<svg xmlns="http://www.w3.org/2000/svg" xmlns:xlink="http://www.w3.org/1999/xlink" width="500" zoomAndPan="magnify" viewBox="0 0 375 374.999991" height="500" preserveAspectRatio="xMidYMid meet" version="1.0"><defs><clipPath id="40acea3c9c"><path d="M 140 131 L 337 131 L 337 286.191406 L 140 286.191406 Z M 140 131 " clip-rule="nonzero"/></clipPath><clipPath id="72b0e3b1a2"><path d="M 48 113 L 242 113 L 242 275 L 48 275 Z M 48 113 " clip-rule="nonzero"/></clipPath><clipPath id="8d58e6467f"><path d="M 129.824219 276.96875 L 2.269531 186.125 L 117.335938 24.558594 L 244.890625 115.398438 Z M 129.824219 276.96875 " clip-rule="nonzero"/></clipPath><clipPath id="fcc955a091"><path d="M 243.660156 117.125 L 116.105469 26.285156 L 1.042969 187.855469 L 128.597656 278.695312 Z M 243.660156 117.125 " clip-rule="nonzero"/></clipPath><clipPath id="d459833eff"><path d="M 243.660156 117.125 L 116.105469 26.285156 L 1.042969 187.855469 L 128.597656 278.695312 Z M 243.660156 117.125 " clip-rule="nonzero"/></clipPath></defs><g clip-path="url(#40acea3c9c)"><path fill="#000000" d="M 330.335938 286.046875 L 145.902344 286.195312 C 143.726562 286.195312 141.738281 285.003906 140.765625 283.113281 C 139.789062 281.222656 140 278.960938 141.304688 277.269531 L 251.964844 133.691406 C 255.125 129.589844 261.839844 131.476562 262.277344 136.574219 L 269.464844 220.40625 L 334.144531 276.296875 C 337.980469 279.613281 335.777344 286.042969 330.335938 286.046875 Z M 330.335938 286.046875 " fill-opacity="1" fill-rule="nonzero"/></g><g clip-path="url(#72b0e3b1a2)"><g clip-path="url(#8d58e6467f)"><g clip-path="url(#fcc955a091)"><g clip-path="url(#d459833eff)"><path fill="#000000" d="M 132.957031 272.324219 L 240.066406 122.179688 C 241.328125 120.410156 241.507812 118.097656 240.535156 116.210938 C 239.5625 114.320312 237.597656 113.175781 235.460938 113.257812 L 54.316406 120.105469 C 49.144531 120.300781 46.785156 126.863281 50.683594 130.179688 L 114.800781 184.664062 L 122.804688 269.769531 C 123.28125 274.820312 129.796875 276.753906 132.957031 272.324219 Z M 132.957031 272.324219 " fill-opacity="1" fill-rule="nonzero"/></g></g></g></g></svg>