<svg xmlns="http://www.w3.org/2000/svg" xmlns:xlink="http://www.w3.org/1999/xlink" width="500" zoomAndPan="magnify" viewBox="0 0 375 374.999991" height="500" preserveAspectRatio="xMidYMid meet" version="1.0"><path fill="#01ec64" d="M 208.820312 91.726562 C 198.472656 79.445312 189.566406 66.972656 187.746094 64.382812 C 187.703125 64.339844 187.648438 64.304688 187.59375 64.277344 C 187.535156 64.253906 187.472656 64.242188 187.410156 64.242188 C 187.347656 64.242188 187.285156 64.253906 187.226562 64.277344 C 187.167969 64.304688 187.117188 64.339844 187.074219 64.382812 C 185.253906 66.976562 176.347656 79.445312 166 91.726562 C 77.203125 205.019531 179.984375 281.476562 179.984375 281.476562 L 180.847656 282.050781 C 181.613281 293.851562 183.53125 310.832031 183.53125 310.832031 L 191.195312 310.832031 C 191.195312 310.832031 193.109375 293.945312 193.875 282.050781 L 194.738281 281.378906 C 194.832031 281.476562 297.617188 205.019531 208.820312 91.726562 Z M 187.363281 279.75 C 187.363281 279.75 182.765625 275.816406 181.519531 273.800781 L 181.519531 273.609375 L 187.074219 150.242188 C 187.074219 149.859375 187.648438 149.859375 187.648438 150.242188 L 193.207031 273.609375 L 193.207031 273.800781 C 191.960938 275.816406 187.363281 279.75 187.363281 279.75 Z M 187.363281 279.75 " fill-opacity="1" fill-rule="nonzero"/></svg>