<svg xmlns="http://www.w3.org/2000/svg" xmlns:xlink="http://www.w3.org/1999/xlink" width="500" zoomAndPan="magnify" viewBox="0 0 375 374.999991" height="500" preserveAspectRatio="xMidYMid meet" version="1.0"><defs><clipPath id="8dfc0b4552"><path d="M 117 102 L 327.941406 102 L 327.941406 188 L 117 188 Z M 117 102 " clip-rule="nonzero"/></clipPath><clipPath id="81f70f331f"><path d="M 46.691406 187 L 258 187 L 258 273.929688 L 46.691406 273.929688 Z M 46.691406 187 " clip-rule="nonzero"/></clipPath></defs><g clip-path="url(#8dfc0b4552)"><path fill="#35dde5" d="M 117.566406 157.675781 C 124.453125 127.488281 143.929688 108.839844 170.503906 104.332031 C 187.628906 101.425781 204.378906 102.53125 220.511719 109.34375 C 229.703125 113.226562 237.523438 119.214844 244.644531 126.136719 C 249.394531 130.75 254.136719 135.375 258.742188 140.132812 C 277.242188 159.265625 303.503906 158.132812 321.050781 139.445312 C 322.972656 137.398438 324.882812 135.335938 326.796875 133.28125 L 327.941406 133.796875 C 325.296875 140.289062 323.140625 147.039062 319.917969 153.226562 C 309.226562 173.78125 291.992188 184.800781 269.117188 187.285156 C 251.132812 189.234375 233.851562 187.3125 217.800781 178.335938 C 207.160156 172.386719 199.066406 163.414062 190.335938 155.148438 C 184.886719 149.988281 179.269531 144.4375 172.6875 141.160156 C 157.550781 133.613281 142.769531 135.980469 129.492188 146.375 C 125.292969 149.664062 121.691406 153.726562 117.566406 157.675781 Z M 117.566406 157.675781 " fill-opacity="1" fill-rule="nonzero"/></g><g clip-path="url(#81f70f331f)"><path fill="#35dde5" d="M 46.691406 243.636719 C 48.898438 234.0625 52.105469 226.148438 56.601562 218.78125 C 67.65625 200.640625 84.039062 191.0625 104.902344 188.742188 C 125.351562 186.460938 144.910156 188.949219 162 201.261719 C 169.398438 206.585938 175.621094 213.519531 182.578125 219.492188 C 188.898438 224.914062 194.824219 231.34375 202.09375 234.988281 C 216.710938 242.316406 231.246094 240.054688 244.242188 230.085938 C 248.683594 226.679688 252.492188 222.441406 257.050781 218.152344 C 255.0625 226.726562 251.796875 234.777344 247.25 242.304688 C 234.242188 263.863281 214.125 272.3125 190.074219 273.121094 C 166.550781 273.910156 146.082031 266.496094 129.34375 249.515625 C 124.507812 244.609375 119.644531 239.722656 114.617188 235.011719 C 95.75 217.320312 72.589844 217.613281 54.082031 235.726562 C 51.789062 237.96875 49.695312 240.40625 46.691406 243.636719 Z M 46.691406 243.636719 " fill-opacity="1" fill-rule="nonzero"/></g></svg>