<svg xmlns="http://www.w3.org/2000/svg" xmlns:xlink="http://www.w3.org/1999/xlink" width="500" zoomAndPan="magnify" viewBox="0 0 375 374.999991" height="500" preserveAspectRatio="xMidYMid meet" version="1.0"><defs><clipPath id="143db1fde8"><path d="M 73.300781 58 L 302 58 L 302 317.984375 L 73.300781 317.984375 Z M 73.300781 58 " clip-rule="nonzero"/></clipPath></defs><g clip-path="url(#143db1fde8)"><path fill="#000000" d="M 159.625 285.789062 C 152.941406 289.65625 151.671875 290.109375 145.390625 292.332031 C 143.875 292.851562 141.574219 293.769531 146.257812 296.457031 L 177.71875 315.277344 C 180.722656 317.042969 184.195312 317.964844 187.609375 317.964844 L 187.632812 317.984375 C 191.09375 317.984375 194.507812 317.054688 197.515625 315.300781 L 291.691406 260.316406 C 297.808594 256.710938 301.585938 250.050781 301.585938 242.933594 L 301.585938 133.035156 C 301.585938 125.863281 297.820312 119.203125 291.691406 115.652344 L 197.515625 60.613281 C 191.601562 57.214844 183.695312 57.214844 177.726562 60.613281 L 83.660156 115.597656 C 77.550781 119.160156 73.777344 125.863281 73.777344 132.980469 L 73.777344 242.882812 C 73.777344 250.050781 77.539062 256.710938 83.660156 260.261719 L 108.335938 274.65625 C 120.269531 280.644531 124.542969 280.644531 130 280.644531 C 147.691406 280.644531 157.886719 269.816406 157.886719 250.9375 L 157.886719 142.378906 C 157.886719 140.84375 156.617188 139.652344 155.132812 139.652344 L 143.199219 139.652344 C 141.671875 139.652344 140.445312 140.832031 140.445312 142.378906 L 140.445312 250.882812 C 140.445312 259.289062 131.875 267.59375 117.851562 260.535156 L 92.054688 245.46875 C 91.152344 245.003906 90.589844 243.976562 90.589844 242.933594 L 90.589844 133.035156 C 90.589844 131.960938 91.152344 130.921875 92.066406 130.402344 L 186.136719 75.417969 C 186.992188 74.898438 188.175781 74.898438 189.042969 75.417969 L 283.167969 130.347656 C 284.078125 130.910156 284.640625 131.898438 284.640625 132.980469 L 284.640625 242.933594 C 284.640625 243.953125 284.089844 244.992188 283.21875 245.511719 L 189.042969 300.496094 C 188.230469 301.015625 187.003906 301.015625 186.136719 300.496094 L 161.96875 286.003906 C 161.25 285.539062 160.339844 285.378906 159.625 285.789062 Z M 159.625 285.789062 " fill-opacity="1" fill-rule="nonzero"/></g><path fill="#000000" d="M 216.683594 225.597656 C 191.753906 225.597656 186.285156 219.25 184.464844 206.71875 C 184.257812 205.378906 183.140625 204.402344 181.761719 204.402344 L 169.582031 204.402344 C 168.050781 204.402344 166.878906 205.636719 166.878906 207.132812 C 166.878906 223.171875 175.492188 242.308594 216.734375 242.308594 C 246.5 242.253906 263.652344 230.351562 263.652344 209.613281 L 263.617188 209.621094 C 263.617188 189.046875 249.851562 183.578125 220.945312 179.710938 C 191.679688 175.789062 188.726562 173.777344 188.726562 166.867188 C 188.726562 161.148438 191.234375 153.511719 212.894531 153.511719 C 232.226562 153.511719 239.363281 157.738281 242.316406 170.9375 C 242.5625 172.183594 243.691406 173.105469 244.972656 173.105469 L 257.207031 173.105469 C 257.96875 173.105469 258.683594 172.800781 259.191406 172.226562 C 259.703125 171.652344 259.953125 170.882812 259.910156 170.113281 C 258.023438 147.371094 243.085938 136.800781 212.894531 136.800781 C 186.027344 136.800781 170.015625 148.261719 170.015625 167.484375 C 170.015625 188.320312 185.972656 194.101562 211.722656 196.671875 C 242.574219 199.722656 244.960938 204.304688 244.960938 210.445312 C 244.984375 221.070312 236.523438 225.597656 216.683594 225.597656 Z M 216.683594 225.597656 " fill-opacity="1" fill-rule="nonzero"/></svg>