<svg xmlns="http://www.w3.org/2000/svg" xmlns:xlink="http://www.w3.org/1999/xlink" width="500" zoomAndPan="magnify" viewBox="0 0 375 374.999991" height="500" preserveAspectRatio="xMidYMid meet" version="1.0"><defs><clipPath id="572465a4b4"><path d="M 98.8125 143 L 275.8125 143 L 275.8125 232 L 98.8125 232 Z M 98.8125 143 " clip-rule="nonzero"/></clipPath><clipPath id="a4d06a9d1a"><path d="M 98.8125 54.386719 L 275.8125 54.386719 L 275.8125 144 L 98.8125 144 Z M 98.8125 54.386719 " clip-rule="nonzero"/></clipPath><clipPath id="f42c021afd"><path d="M 98.8125 231 L 188 231 L 188 320.636719 L 98.8125 320.636719 Z M 98.8125 231 " clip-rule="nonzero"/></clipPath></defs><g clip-path="url(#572465a4b4)"><path fill="#24a8ff" d="M 275.8125 231.859375 L 98.8125 231.859375 L 98.8125 143.164062 L 187.3125 143.164062 Z M 275.8125 231.859375 " fill-opacity="1" fill-rule="nonzero"/></g><g clip-path="url(#a4d06a9d1a)"><path fill="#8ddcff" d="M 275.8125 54.472656 L 98.8125 54.472656 L 187.3125 143.164062 L 275.8125 143.164062 Z M 275.8125 54.472656 " fill-opacity="1" fill-rule="nonzero"/></g><g clip-path="url(#f42c021afd)"><path fill="#054eff" d="M 187.3125 231.859375 L 187.3125 320.550781 L 98.8125 231.859375 Z M 187.3125 231.859375 " fill-opacity="1" fill-rule="nonzero"/></g></svg>