<svg xmlns="http://www.w3.org/2000/svg" xmlns:xlink="http://www.w3.org/1999/xlink" width="200" zoomAndPan="magnify" viewBox="0 0 150 149.999998" height="200" preserveAspectRatio="xMidYMid meet" version="1.0"><defs><g/></defs><g fill="#eeefef" fill-opacity="1"><g transform="translate(46.054686, 67.499998)"><g><path d="M 14.28125 -19.6875 C 11 -19.6875 8.234375 -17.875 6.359375 -15.515625 L 6.359375 -24.234375 C 6.359375 -26.6875 6.359375 -28.15625 6.6875 -32 L 2.5625 -32 C 2.875 -28.15625 2.875 -26.6875 2.875 -24.234375 L 2.875 0 L 6.765625 0 C 6.484375 -2.203125 6.40625 -3.484375 6.359375 -5.125 C 7.359375 -1.71875 9.84375 0.796875 14.046875 0.796875 C 19.125 0.796875 23.15625 -2.875 23.15625 -9.4375 C 23.15625 -15.953125 18.84375 -19.6875 14.28125 -19.6875 Z M 12.953125 -0.15625 C 8.765625 -0.15625 6.359375 -3.875 6.359375 -8.953125 L 6.359375 -14.71875 C 8 -16.875 10.59375 -18.796875 13.3125 -18.796875 C 17.078125 -18.796875 19.3125 -15.15625 19.3125 -9.4375 C 19.3125 -4.3125 17.515625 -0.15625 12.953125 -0.15625 Z M 12.953125 -0.15625 "/></g></g></g><g fill="#eeefef" fill-opacity="1"><g transform="translate(71.092195, 67.499998)"><g><path d="M 18.84375 -18.875 C 18.59375 -17.796875 18.515625 -17.359375 18.078125 -16.15625 L 12.6875 -0.765625 L 6.765625 -16.15625 C 6.359375 -17.203125 6.15625 -17.71875 5.953125 -18.875 L 1.515625 -18.875 C 2.203125 -17.765625 2.515625 -17.15625 2.921875 -16.125 L 9.078125 0 L 12.40625 0 L 12.359375 0.078125 C 11 3.921875 9.125 6.234375 6.875 6.234375 C 5.6875 6.234375 5.078125 5.59375 4.40625 4.4375 C 3.515625 2.765625 1.359375 3.5625 1.71875 5.28125 C 3.046875 6.359375 4.765625 6.875 6.40625 6.875 C 9.71875 6.875 11.515625 4.484375 13.078125 0 L 18.796875 -16.125 C 19.203125 -17.3125 19.359375 -17.796875 19.921875 -18.875 Z M 18.84375 -18.875 "/></g></g></g><g fill="#eeefef" fill-opacity="1"><g transform="translate(92.496089, 67.499998)"><g/></g></g><g fill="#eeefef" fill-opacity="1"><g transform="translate(54.058592, 104.249996)"><g><path d="M 16.3125 -18.875 C 16.765625 -15.046875 16.765625 -13.5625 16.765625 -11.078125 L 16.765625 -5.125 C 15.484375 -2.640625 13.28125 -0.15625 10.203125 -0.15625 C 7.640625 -0.15625 6.515625 -2.078125 6.515625 -5.71875 L 6.515625 -18.875 L 2.5625 -18.875 C 3.046875 -15.046875 3.046875 -13.5625 3.046875 -11.078125 L 3.046875 -6.765625 C 3.046875 -1.4375 5.078125 0.796875 9 0.796875 C 12.796875 0.796875 15.40625 -1.796875 16.71875 -4.28125 C 16.6875 -3.125 16.640625 -1.84375 16.484375 0 L 20.234375 0 L 20.234375 -18.875 Z M 16.3125 -18.875 "/></g></g></g><g fill="#eeefef" fill-opacity="1"><g transform="translate(76.856331, 104.249996)"><g><path d="M 1.484375 -5.640625 C 2.4375 -1.4375 5.765625 0.796875 10.359375 0.796875 C 14.84375 0.796875 17.59375 -1.40625 17.59375 -4.59375 C 17.59375 -8.046875 14.921875 -9.359375 10.953125 -11.3125 C 7.3125 -13.125 5.28125 -14.234375 5.28125 -16.3125 C 5.28125 -18.125 6.765625 -19 9 -19 C 11.921875 -19 12.953125 -17.484375 13.484375 -15.484375 C 14 -13.5625 15.953125 -13.484375 16.71875 -14.796875 C 15.078125 -17.875 12.59375 -19.6875 8.953125 -19.6875 C 5.84375 -19.6875 2.59375 -18.4375 2.59375 -15.359375 C 2.59375 -12.4375 5.203125 -11.078125 8.921875 -9.15625 C 13.203125 -6.953125 14.796875 -6.078125 14.796875 -3.765625 C 14.796875 -1.5625 13.484375 0.15625 10.484375 0.15625 C 6.71875 0.15625 4.953125 -2.28125 4.953125 -4.6875 C 4.71875 -6.921875 2.4375 -7.234375 1.484375 -5.640625 Z M 1.484375 -5.640625 "/></g></g></g></svg>