<svg xmlns="http://www.w3.org/2000/svg" xmlns:xlink="http://www.w3.org/1999/xlink" width="200" zoomAndPan="magnify" viewBox="0 0 150 149.999998" height="200" preserveAspectRatio="xMidYMid meet" version="1.0"><defs><clipPath id="a7c4134fa4"><path d="M 35.191406 0 L 114.691406 0 L 114.691406 150 L 35.191406 150 Z M 35.191406 0 " clip-rule="nonzero"/></clipPath></defs><g clip-path="url(#a7c4134fa4)"><path fill="#000000" d="M 92.179688 102.53125 L 95.09375 108.996094 C 95.5625 110.03125 95.429688 110.332031 94.359375 110.808594 C 93.871094 111.023438 93.410156 111.289062 93.003906 111.496094 C 93.941406 115.035156 94.25 118.574219 94.640625 122.113281 C 95.03125 125.65625 95.316406 129.195312 95.582031 132.765625 C 95.707031 134.472656 95.675781 136.191406 95.726562 137.902344 C 95.871094 142.726562 96.070312 147.546875 96.160156 152.367188 C 96.242188 156.566406 96.191406 160.765625 96.230469 164.957031 C 96.25 167.382812 96.425781 169.808594 96.359375 172.230469 C 96.21875 177.253906 95.945312 182.269531 95.753906 187.289062 C 95.695312 188.890625 95.753906 190.488281 95.703125 192.085938 C 95.609375 194.796875 95.414062 197.503906 95.363281 200.207031 C 95.308594 202.800781 95.472656 205.398438 95.363281 207.992188 C 95.296875 209.8125 95.964844 211.457031 96.25 213.1875 C 96.386719 214.035156 96.445312 214.886719 96.5625 215.734375 C 96.726562 216.886719 96.925781 218.035156 97.082031 219.191406 C 97.171875 219.832031 97.222656 220.484375 97.265625 221.128906 C 97.328125 222.003906 97.390625 222.878906 97.40625 223.753906 C 97.390625 224.277344 97.351562 224.804688 97.28125 225.324219 C 98.359375 226.253906 99.550781 226.996094 100.859375 227.554688 C 102.164062 228.113281 103.527344 228.457031 104.941406 228.589844 C 107.570312 228.867188 110.070312 229.589844 112.445312 230.753906 C 114.011719 231.511719 114.695312 232.992188 114.445312 234.722656 C 114.363281 235.285156 114.359375 235.863281 114.226562 236.414062 C 114.074219 237.078125 113.765625 237.652344 113.296875 238.148438 C 112.832031 238.640625 112.273438 238.980469 111.621094 239.167969 C 108.640625 240.230469 105.574219 240.886719 102.421875 241.132812 C 99.949219 241.289062 97.449219 241.421875 94.964844 240.796875 C 93.398438 240.402344 91.691406 240.535156 90.042969 240.550781 C 87.785156 240.578125 85.570312 240.269531 83.40625 239.628906 C 82.527344 239.363281 81.835938 238.910156 82.007812 237.804688 C 82.03125 237.632812 81.984375 237.476562 81.875 237.34375 C 81.175781 236.667969 81.234375 235.769531 81.207031 234.945312 C 81.160156 233.414062 81.144531 231.878906 81.15625 230.34375 C 81.15625 229.691406 81.28125 229.042969 81.355469 228.378906 C 80.371094 227.871094 79.429688 227.277344 79.136719 226.171875 C 78.878906 225.335938 78.796875 224.484375 78.894531 223.613281 C 79.074219 222.5625 79.167969 221.617188 78.566406 220.667969 C 78.273438 220.238281 78.089844 219.765625 78.011719 219.25 C 77.921875 218.710938 78.007812 218.203125 78.273438 217.722656 C 79.101562 216.589844 79.171875 215.363281 79.058594 214.058594 C 78.917969 212.484375 78.769531 210.875 78.664062 209.28125 C 78.40625 205.492188 78.144531 201.707031 77.882812 197.921875 C 77.671875 194.929688 77.464844 191.9375 77.265625 188.953125 C 77.007812 185.277344 76.726562 181.605469 76.480469 177.9375 C 76.269531 174.792969 76.128906 171.664062 75.886719 168.535156 C 75.496094 163.183594 75.007812 157.84375 74.5625 152.5 C 74.324219 149.628906 74.117188 146.753906 73.839844 143.886719 C 73.664062 142.050781 73.363281 140.238281 72.9375 138.445312 C 72.765625 139.800781 72.582031 141.15625 72.414062 142.511719 C 72.0625 145.316406 71.742188 148.121094 71.359375 150.917969 C 70.574219 156.65625 69.644531 162.375 69.003906 168.125 C 68.472656 172.820312 67.683594 177.492188 67.695312 182.261719 C 67.695312 188.054688 67.300781 193.84375 67.195312 199.636719 C 67.09375 204.71875 67.132812 209.800781 67.117188 214.882812 C 67.078125 215.257812 67.117188 215.625 67.230469 215.984375 C 67.828125 217.289062 67.824219 218.664062 67.695312 220.023438 C 67.472656 222.332031 68.210938 224.484375 68.617188 226.710938 C 69.007812 228.800781 68.890625 230.808594 67.863281 232.71875 C 67.753906 232.972656 67.710938 233.234375 67.730469 233.507812 C 67.726562 234.457031 67.792969 235.398438 67.933594 236.339844 C 68.117188 237.253906 67.773438 237.9375 67.332031 238.636719 C 67.054688 239.117188 66.683594 239.503906 66.210938 239.796875 C 65.742188 240.085938 65.230469 240.25 64.675781 240.285156 C 61.675781 240.492188 58.667969 240.738281 55.652344 240.8125 C 54.226562 240.777344 52.816406 240.617188 51.421875 240.332031 C 50.511719 240.191406 49.789062 239.019531 49.851562 238.058594 C 49.898438 237.757812 49.859375 237.464844 49.734375 237.1875 C 49.472656 236.808594 49.359375 236.386719 49.386719 235.925781 C 49.417969 235.464844 49.589844 235.0625 49.898438 234.722656 C 50.484375 233.992188 51.210938 233.378906 51.816406 232.660156 C 52.039062 232.339844 52.203125 231.992188 52.304688 231.613281 C 52.351562 231.335938 52.421875 231.0625 52.511719 230.792969 C 53.070312 229.882812 52.90625 229.0625 52.394531 228.1875 C 51.855469 227.253906 51.496094 226.253906 51.320312 225.191406 C 51.140625 224.125 51.15625 223.0625 51.363281 222.003906 C 51.425781 221.292969 51.394531 220.585938 51.261719 219.882812 C 51.136719 218.835938 50.867188 217.804688 50.8125 216.757812 C 50.648438 214.199219 50.59375 211.644531 50.421875 209.066406 C 50.101562 203.914062 49.734375 198.761719 49.402344 193.605469 C 49.257812 191.382812 49.125 189.160156 49.046875 186.917969 C 48.746094 178.613281 48.605469 170.304688 48.878906 161.988281 C 49.082031 155.765625 49.15625 149.542969 49.394531 143.324219 C 49.597656 137.988281 49.832031 132.652344 50.277344 127.335938 C 50.667969 122.769531 50.890625 118.171875 51.898438 113.671875 C 52.140625 112.601562 52.050781 111.453125 52.101562 110.34375 C 52.101562 110.207031 52.101562 110.015625 52.035156 109.949219 C 51.21875 109.164062 51.585938 108.410156 52.058594 107.636719 C 52.796875 106.421875 53.511719 105.195312 54.332031 103.8125 C 54.191406 103.746094 54.0625 103.664062 53.941406 103.566406 C 51.757812 101.535156 49.570312 99.5 47.386719 97.460938 C 47.0625 97.1875 46.722656 96.933594 46.367188 96.703125 C 45.253906 95.914062 44.070312 95.199219 43.03125 94.34375 C 40.902344 92.542969 38.828125 90.664062 36.753906 88.792969 C 35.421875 87.613281 35.183594 86.019531 35.550781 84.386719 C 36.484375 80.375 37.84375 76.511719 39.625 72.800781 C 41.277344 69.261719 42.792969 65.621094 44.289062 61.996094 C 45.546875 58.945312 46.507812 55.761719 47.9375 52.800781 C 49.113281 50.339844 50.460938 47.777344 53.402344 46.898438 C 54.921875 46.445312 56.5 46.167969 58.054688 45.820312 C 58.414062 45.734375 58.78125 45.695312 59.148438 45.628906 C 59.941406 45.527344 60.640625 45.210938 61.234375 44.675781 C 62.042969 43.910156 63.167969 43.492188 64.121094 42.875 C 65.949219 41.691406 67.777344 40.484375 69.59375 39.257812 C 69.777344 39.078125 69.867188 38.859375 69.867188 38.601562 C 69.902344 37.816406 69.867188 37.070312 69.867188 36.242188 C 68.503906 36.402344 67.386719 38.074219 65.886719 36.742188 C 65.308594 36.953125 64.625 37.234375 63.921875 37.4375 C 63.648438 37.484375 63.40625 37.414062 63.203125 37.222656 C 63.097656 36.992188 63.109375 36.761719 63.238281 36.539062 C 63.808594 35.609375 63.597656 34.789062 62.925781 34.042969 C 61.992188 33.007812 60.945312 32.074219 60.109375 30.953125 C 59.558594 30.125 59.117188 29.242188 58.777344 28.304688 C 58.515625 27.679688 58.660156 26.855469 57.816406 26.535156 C 57.734375 26.507812 57.6875 26.214844 57.722656 26.070312 C 57.765625 25.972656 57.789062 25.867188 57.785156 25.761719 C 57.785156 25.652344 57.765625 25.550781 57.71875 25.453125 C 57.675781 25.355469 57.613281 25.269531 57.535156 25.195312 C 57.453125 25.125 57.363281 25.074219 57.261719 25.039062 C 57.105469 24.972656 57.027344 24.617188 56.996094 24.386719 C 56.921875 23.820312 56.945312 23.242188 56.84375 22.683594 C 56.269531 19.632812 56.652344 16.636719 57.535156 13.722656 C 59.363281 7.785156 63.640625 4.1875 69.097656 1.773438 C 71.363281 0.777344 73.707031 0.0507812 76.230469 0.503906 C 76.953125 0.632812 77.652344 0.898438 78.367188 1.066406 C 78.832031 1.195312 79.300781 1.28125 79.78125 1.320312 C 84.53125 1.515625 88.449219 3.375 91.296875 7.222656 C 93.671875 10.433594 94.410156 14.007812 93.34375 17.921875 C 92.953125 19.410156 92.539062 20.886719 91.546875 22.128906 C 91.378906 22.339844 91.414062 22.71875 91.359375 23.023438 C 90.855469 25.796875 90.386719 28.578125 89.828125 31.34375 C 89.609375 32.40625 89.273438 33.4375 88.832031 34.429688 C 88.441406 35.300781 88.542969 35.886719 89.359375 36.359375 C 89.46875 36.421875 89.539062 36.550781 89.84375 36.898438 C 89.089844 36.949219 88.554688 36.941406 88.035156 37.03125 C 87.703125 37.070312 87.414062 37.199219 87.164062 37.425781 C 86.0625 38.660156 85.035156 39.96875 83.242188 40.714844 C 83.828125 41.027344 84.25 41.292969 84.695312 41.5 C 86.132812 42.125 87.601562 42.679688 89.011719 43.355469 C 89.511719 43.601562 89.863281 44.144531 90.296875 44.535156 C 90.496094 44.753906 90.722656 44.933594 90.984375 45.070312 C 91.9375 45.464844 92.898438 45.8125 93.878906 46.101562 C 96.898438 46.996094 98.589844 49.25 99.371094 52.046875 C 100.054688 54.558594 100.527344 57.105469 100.789062 59.691406 C 101.550781 66.257812 102 72.863281 103.300781 79.355469 C 103.773438 81.71875 104.023438 84.148438 104.371094 86.542969 C 104.746094 89.109375 103.4375 91.179688 102.347656 93.300781 C 100.671875 96.5625 97.914062 98.847656 95.171875 101.125 C 94.777344 101.453125 94.144531 101.515625 93.648438 101.730469 C 93.148438 101.941406 92.671875 102.273438 92.179688 102.53125 Z M 78.445312 97.613281 L 78.445312 98.484375 C 78.445312 101.074219 78.445312 103.671875 78.40625 106.269531 C 78.40625 106.464844 78.171875 106.660156 78.046875 106.851562 C 77.847656 106.722656 77.667969 106.574219 77.503906 106.402344 C 77.425781 106.242188 77.394531 106.078125 77.414062 105.902344 C 77.363281 103.390625 77.316406 100.878906 77.273438 98.367188 C 77.273438 98.117188 77.242188 97.875 77.226562 97.578125 L 74.351562 97.578125 C 74.296875 97.773438 74.238281 97.972656 74.191406 98.15625 C 73.148438 102.386719 72.128906 106.617188 71.054688 110.839844 C 70.613281 112.582031 69.738281 113.199219 67.914062 112.957031 C 64.417969 112.519531 60.925781 112.023438 57.441406 111.507812 C 56.15625 111.3125 54.898438 111.003906 53.542969 110.71875 C 53.535156 111.488281 53.464844 112.25 53.335938 113.007812 C 52.132812 118.015625 51.910156 123.128906 51.453125 128.207031 C 51.042969 133.039062 50.894531 137.894531 50.71875 142.761719 C 50.460938 150.003906 50.226562 157.257812 50.070312 164.507812 C 49.96875 169.441406 49.925781 174.386719 50.035156 179.324219 C 50.183594 185.6875 50.5 192.046875 50.761719 198.410156 C 50.84375 200.378906 50.964844 202.34375 51.113281 204.3125 C 51.421875 208.546875 51.75 212.78125 52.097656 217.015625 C 52.15625 217.75 52.339844 218.472656 52.417969 219.210938 C 52.554688 220.21875 52.632812 221.234375 52.652344 222.253906 C 52.652344 223.734375 52.460938 225.199219 52.949219 226.660156 C 53.367188 227.925781 53.660156 229.242188 54.023438 230.59375 C 54.507812 230.148438 55.046875 229.617188 55.628906 229.136719 C 56.425781 228.453125 57.253906 227.8125 58.117188 227.214844 C 58.902344 226.691406 59.761719 226.765625 60.65625 227.09375 C 63.007812 227.941406 64.804688 229.523438 66.417969 231.371094 C 66.515625 231.476562 66.617188 231.574219 66.726562 231.664062 C 67.015625 231.027344 67.292969 230.449219 67.546875 229.859375 C 67.691406 229.617188 67.761719 229.355469 67.765625 229.074219 C 67.625 228.289062 67.371094 227.550781 67.203125 226.785156 C 66.6875 224.425781 66.105469 222.066406 66.285156 219.605469 C 66.355469 218.59375 66 217.550781 65.839844 216.519531 C 65.722656 215.992188 65.644531 215.457031 65.605469 214.917969 C 65.605469 209.78125 65.617188 204.640625 65.640625 199.5 C 65.640625 197.046875 65.640625 194.589844 65.71875 192.136719 C 65.847656 188.570312 66.234375 185.007812 66.1875 181.441406 C 66.121094 176.527344 67.101562 171.734375 67.605469 166.890625 C 68.03125 162.753906 68.8125 158.648438 69.363281 154.523438 C 69.941406 150.175781 70.382812 145.800781 70.980469 141.449219 C 71.574219 137.101562 72.289062 132.714844 72.964844 128.347656 C 73.355469 125.816406 75.425781 124.238281 77.710938 124.738281 C 77.820312 125.542969 77.125 125.625 76.652344 125.824219 C 75.566406 126.28125 74.589844 126.824219 74.335938 128.105469 C 74.15625 129.03125 73.988281 129.953125 73.875 130.886719 C 73.726562 132.128906 73.480469 133.394531 73.5625 134.628906 C 73.695312 136.378906 74.164062 138.097656 74.402344 139.84375 C 74.792969 142.898438 75.183594 145.949219 75.496094 149.015625 C 75.804688 152.078125 76.023438 155.207031 76.28125 158.308594 C 76.589844 161.945312 76.9375 165.585938 77.210938 169.226562 C 77.492188 172.984375 77.683594 176.746094 77.949219 180.507812 C 78.316406 185.832031 78.710938 191.15625 79.125 196.476562 C 79.367188 199.691406 79.683594 202.902344 79.910156 206.121094 C 80.125 209.078125 80.300781 212.042969 80.449219 215.007812 C 80.492188 215.707031 80.308594 216.339844 79.894531 216.90625 C 79.5 217.464844 79.222656 218.421875 79.421875 219.03125 C 79.984375 220.746094 80.457031 222.378906 79.859375 224.191406 C 79.710938 224.640625 79.882812 225.515625 80.210938 225.738281 C 81.367188 226.527344 82.660156 227.019531 84.136719 226.527344 C 85.851562 225.925781 87.582031 225.363281 89.300781 224.777344 C 90.269531 224.453125 91.21875 224.050781 92.207031 223.796875 C 92.785156 223.667969 93.371094 223.640625 93.957031 223.71875 C 94.742188 223.792969 95.492188 223.972656 96.3125 224.109375 C 96.210938 223.40625 96 222.8125 96.078125 222.261719 C 96.265625 220.929688 95.964844 219.683594 95.714844 218.386719 C 95.367188 216.574219 95.277344 214.714844 95 212.882812 C 94.832031 211.761719 94.355469 210.667969 94.320312 209.554688 C 94.195312 205.675781 94.175781 201.792969 94.183594 197.914062 C 94.183594 196.691406 94.453125 195.472656 94.492188 194.25 C 94.6875 187.859375 94.847656 181.464844 95.023438 175.074219 C 95.0625 173.648438 95.144531 172.21875 95.136719 170.796875 C 95.136719 168.96875 95.035156 167.140625 95.011719 165.3125 C 94.960938 161.34375 94.96875 157.375 94.875 153.40625 C 94.746094 147.695312 94.570312 141.988281 94.347656 136.285156 C 94.21875 132.863281 94.089844 129.433594 93.78125 126.023438 C 93.492188 122.820312 92.941406 119.636719 92.546875 116.4375 C 92.355469 114.925781 92.265625 113.398438 92.128906 111.835938 L 88.914062 112.589844 C 87.851562 112.894531 86.777344 113.132812 85.6875 113.308594 C 84.953125 113.386719 84.015625 113.253906 83.792969 112.347656 C 83.304688 110.382812 82.921875 108.34375 82.535156 106.332031 C 81.976562 103.429688 81.453125 100.523438 80.914062 97.609375 Z M 60.367188 46.457031 C 58.015625 47.007812 55.660156 47.457031 53.359375 48.136719 C 52.433594 48.402344 51.695312 48.933594 51.152344 49.726562 C 49.132812 53.113281 47.433594 56.65625 46.050781 60.347656 C 44.691406 64.183594 43.253906 67.992188 41.710938 71.753906 C 40.054688 75.78125 38.113281 79.6875 36.921875 83.902344 C 36.609375 84.976562 36.675781 86.023438 37.117188 87.050781 C 37.347656 87.589844 37.511719 88.257812 37.921875 88.601562 C 39.847656 90.199219 41.847656 91.746094 43.808594 93.246094 C 44.871094 94.03125 46.003906 94.765625 47.09375 95.539062 C 47.585938 95.871094 48.054688 96.238281 48.5 96.636719 C 50.375 98.421875 52.222656 100.230469 54.082031 102.027344 C 54.386719 102.320312 54.726562 102.582031 55.070312 102.882812 C 55.6875 102.214844 56.324219 101.675781 55.65625 100.621094 C 55.199219 99.898438 55.527344 99.074219 55.945312 98.355469 C 56.132812 98.039062 56.296875 97.710938 56.472656 97.386719 C 56.972656 96.46875 57.425781 95.519531 58 94.632812 C 58.570312 93.75 58.558594 93.21875 57.707031 92.742188 C 55.179688 91.347656 53.78125 88.917969 52.300781 86.5625 C 51.960938 86.105469 51.589844 85.675781 51.183594 85.28125 L 49.769531 86.699219 L 49.53125 86.492188 C 49.746094 86.097656 49.964844 85.707031 50.203125 85.3125 C 49.148438 85.574219 48.28125 86.640625 47.15625 85.542969 C 47.863281 85.222656 48.589844 84.953125 49.335938 84.730469 C 49.578125 84.640625 49.761719 84.484375 49.886719 84.257812 C 50.457031 83.015625 51.03125 81.773438 51.511719 80.492188 C 51.828125 79.726562 52.015625 78.925781 52.078125 78.097656 C 52.171875 76.191406 52.808594 74.488281 53.984375 72.984375 C 54.457031 72.34375 54.941406 71.710938 55.382812 71.042969 C 55.542969 70.804688 55.613281 70.542969 55.59375 70.253906 C 55.441406 69.15625 55.199219 68.070312 55.042969 66.972656 C 54.9375 66.277344 54.890625 65.574219 54.820312 64.875 L 55.136719 64.808594 C 55.289062 65.089844 55.417969 65.375 55.53125 65.671875 C 56.679688 69.460938 57.859375 73.242188 58.941406 77.046875 C 59.253906 78.15625 59.535156 79.40625 59.363281 80.5 C 58.675781 84.945312 59.816406 89.324219 59.597656 93.707031 C 62.65625 94.886719 63.96875 97.503906 65.214844 100.140625 C 65.363281 100.699219 65.261719 101.203125 64.902344 101.652344 C 64.40625 102.09375 63.835938 102.394531 63.195312 102.554688 C 61.144531 103.207031 59.148438 102.949219 57.179688 102.046875 C 56.347656 103.183594 55.472656 104.261719 54.722656 105.421875 C 54.136719 106.328125 53.703125 107.332031 53.203125 108.292969 C 52.878906 108.914062 53.117188 109.472656 53.800781 109.597656 C 55.371094 109.898438 56.9375 110.226562 58.507812 110.445312 C 61.375 110.839844 64.261719 111.160156 67.140625 111.5625 C 69.546875 111.894531 69.886719 111.710938 70.433594 109.355469 C 71.199219 105.964844 71.9375 102.570312 72.648438 99.175781 C 73.011719 97.410156 73.628906 95.71875 73.375 93.816406 C 72.984375 90.792969 72.839844 87.738281 72.589844 84.699219 C 72.5625 84.371094 72.554688 83.847656 72.367188 83.757812 C 70.964844 83.050781 70.683594 81.644531 70.269531 80.382812 C 68.699219 75.625 67.183594 70.839844 65.675781 66.058594 C 64.894531 63.511719 64.074219 60.945312 63.371094 58.382812 C 62.8125 56.320312 62.425781 54.214844 61.914062 52.144531 C 61.394531 50.242188 60.878906 48.378906 60.367188 46.457031 Z M 90.558594 46.144531 C 90.492188 46.828125 90.445312 47.394531 90.378906 47.960938 C 90.128906 50.167969 89.988281 52.398438 89.59375 54.578125 C 89.027344 57.65625 88.308594 60.710938 87.570312 63.753906 C 86.761719 67.074219 85.882812 70.378906 84.988281 73.675781 C 84.238281 76.429688 83.542969 79.25 82.558594 81.9375 C 82.175781 83.027344 82 84.152344 82.03125 85.308594 C 82.03125 87.136719 82.03125 88.960938 82.03125 90.789062 C 82.058594 93.070312 81.988281 95.363281 82.222656 97.628906 C 82.425781 99.660156 83.003906 101.65625 83.378906 103.667969 C 83.847656 106.183594 84.308594 108.710938 84.734375 111.234375 C 84.878906 112.054688 85.363281 112.296875 86.070312 112.128906 C 88.25 111.605469 90.429688 111.078125 92.589844 110.480469 C 93.867188 110.125 94.0625 109.507812 93.496094 108.285156 C 92.679688 106.53125 91.851562 104.777344 91.105469 102.992188 C 91.042969 102.777344 90.921875 102.597656 90.75 102.453125 C 90.578125 102.308594 90.378906 102.226562 90.15625 102.203125 C 88.878906 101.945312 87.605469 101.644531 86.351562 101.285156 C 85.476562 101.035156 85.339844 100.601562 85.769531 99.796875 C 86.449219 98.511719 87.019531 97.148438 87.863281 95.980469 C 89.125 94.253906 89.792969 92.324219 89.867188 90.183594 C 90.101562 86.203125 90.683594 82.246094 91.109375 78.285156 C 91.320312 76.269531 91.410156 74.238281 91.707031 72.242188 C 92.191406 68.949219 92.777344 65.667969 93.355469 62.410156 C 93.570312 61.230469 93.917969 60.050781 95.179688 59.503906 C 95.382812 59.457031 95.585938 59.445312 95.792969 59.472656 C 95.792969 59.683594 95.769531 59.894531 95.722656 60.101562 C 95.179688 61.738281 94.40625 63.332031 94.097656 65.015625 C 93.414062 68.792969 92.921875 72.605469 92.421875 76.421875 C 92.160156 78.488281 92.128906 80.582031 91.902344 82.644531 C 91.5625 85.734375 91.117188 88.804688 90.769531 91.886719 C 90.695312 92.546875 90.769531 93.121094 91.515625 93.578125 C 92.1875 94.039062 92.667969 94.65625 92.949219 95.421875 C 93.53125 96.9375 94.125 98.5 93.800781 100.339844 C 93.988281 100.238281 94.167969 100.125 94.34375 100.003906 C 97.851562 96.960938 101.199219 93.800781 102.726562 89.207031 C 103.085938 88.296875 103.203125 87.355469 103.074219 86.386719 C 102.1875 80.929688 101.324219 75.46875 100.5625 69.992188 C 100.046875 66.320312 99.660156 62.628906 99.324219 58.941406 C 99.089844 56.300781 98.695312 53.707031 97.554688 51.3125 C 96.964844 50.070312 96.300781 48.777344 94.945312 48.132812 C 93.535156 47.453125 92.097656 46.835938 90.558594 46.144531 Z M 91.695312 19.492188 C 91.820312 18.960938 91.902344 18.550781 92.015625 18.144531 C 93.542969 12.617188 91.539062 7.628906 86.714844 4.539062 C 84.058594 2.851562 81.035156 2.667969 78.109375 2.066406 C 74.921875 1.402344 71.949219 2.011719 69.082031 3.460938 C 64.566406 5.742188 60.75 8.753906 59.148438 13.820312 C 58.050781 17.210938 57.808594 20.664062 58.417969 24.175781 L 58.910156 23.894531 C 58.96875 24.042969 59.085938 24.199219 59.070312 24.34375 C 59.027344 25.148438 59.15625 25.921875 59.460938 26.667969 C 60.082031 28.46875 61.035156 30.066406 62.332031 31.460938 C 63.507812 32.777344 64.90625 34 64.734375 36.207031 C 65.382812 35.746094 65.855469 35.390625 66.34375 35.070312 C 66.894531 34.707031 67.25 34.875 67.324219 35.53125 C 67.335938 35.730469 67.335938 35.929688 67.324219 36.132812 C 70.113281 35.101562 69.964844 35.097656 69.449219 33.238281 C 68.816406 33.039062 68.160156 32.996094 67.714844 32.664062 C 64.988281 30.652344 63.554688 26.246094 65.492188 23.023438 C 65.800781 22.457031 66.21875 21.996094 66.753906 21.640625 C 67.289062 21.28125 67.875 21.074219 68.515625 21.007812 C 69.300781 20.929688 70.085938 21.148438 70.375 21.921875 C 70.832031 23.183594 71.792969 23.300781 72.832031 23.15625 C 74.878906 22.863281 76.828125 22.300781 78.402344 20.796875 C 79.417969 19.839844 79.648438 19.910156 80.277344 21.214844 C 80.546875 20.726562 80.789062 20.226562 81.003906 19.710938 C 81.699219 17.71875 82.390625 15.730469 83.03125 13.722656 C 83.324219 12.6875 83.875 11.816406 84.683594 11.113281 C 84.984375 10.828125 85.339844 10.660156 85.746094 10.601562 C 86.15625 10.546875 86.542969 10.613281 86.90625 10.804688 C 87.1875 10.902344 87.472656 10.914062 87.761719 10.839844 C 88.695312 10.644531 89.4375 10.886719 89.847656 11.742188 C 90.308594 12.617188 90.664062 13.535156 90.914062 14.496094 C 91.257812 16.101562 91.425781 17.738281 91.695312 19.492188 Z M 79.375 21.207031 C 78.828125 21.707031 78.25 22.167969 77.640625 22.59375 C 76.035156 23.535156 74.304688 24.058594 72.449219 24.167969 C 72 24.230469 71.5625 24.1875 71.136719 24.035156 C 70.707031 23.882812 70.339844 23.640625 70.03125 23.304688 C 68.855469 21.953125 67.191406 22.175781 66.339844 23.792969 C 65.207031 25.941406 65.804688 29.359375 67.605469 30.980469 C 68.113281 31.4375 68.695312 31.792969 69.382812 31.539062 C 70.316406 31.1875 70.78125 31.707031 71.175781 32.378906 C 71.472656 32.902344 71.734375 33.441406 71.960938 34 C 72.597656 35.691406 73.597656 37.132812 74.953125 38.324219 C 78.027344 40.910156 80.617188 41.441406 84.140625 38.84375 C 86.648438 37 87.890625 34.277344 88.679688 31.183594 C 88.355469 31.414062 88.015625 31.625 87.667969 31.816406 C 87.378906 31.953125 87.074219 32.046875 86.757812 32.09375 C 86.695312 32.09375 86.488281 31.753906 86.515625 31.726562 C 86.75 31.460938 87.011719 31.230469 87.296875 31.027344 C 87.738281 30.734375 88.207031 30.492188 88.6875 30.207031 C 86.785156 28.28125 86.082031 25.25 87.328125 24.382812 C 87.4375 25.324219 87.46875 26.246094 87.660156 27.136719 C 87.902344 28.113281 88.453125 28.863281 89.3125 29.386719 C 89.773438 26.777344 90.222656 24.25 90.671875 21.722656 L 90.398438 21.792969 L 89.222656 20.863281 L 90.554688 20.214844 C 90.898438 18.597656 90.3125 14.210938 89.457031 12.707031 C 89.28125 12.398438 88.863281 11.898438 88.722656 11.949219 C 87.601562 12.34375 86.4375 11.660156 85.410156 12.046875 C 84.847656 12.261719 84.316406 12.992188 84.089844 13.621094 C 83.363281 15.589844 82.789062 17.617188 82.125 19.675781 C 82.347656 19.675781 82.5625 19.703125 82.773438 19.761719 C 83.035156 19.890625 83.285156 20.039062 83.523438 20.203125 C 83.296875 20.367188 83.085938 20.652344 82.839844 20.683594 C 81.90625 20.800781 81.1875 21.15625 80.804688 22.074219 C 80.679688 22.261719 80.519531 22.410156 80.320312 22.519531 C 79.820312 22.878906 79.46875 22.707031 79.410156 22.082031 C 79.375 21.820312 79.375 21.554688 79.375 21.207031 Z M 82.5625 228.300781 C 82.5625 230.699219 82.5625 233.121094 82.5625 235.542969 C 82.5625 236.230469 82.851562 236.660156 83.617188 236.6875 C 84.070312 236.707031 84.511719 236.84375 84.964844 236.898438 C 87.242188 237.1875 89.515625 237.617188 91.820312 236.972656 C 93.648438 236.460938 95.425781 236.578125 97.042969 237.722656 C 97.164062 237.792969 97.292969 237.824219 97.433594 237.816406 C 98.5625 237.875 99.691406 237.847656 100.816406 237.746094 C 103.707031 237.296875 106.589844 236.769531 109.449219 236.171875 C 110.527344 235.921875 111.570312 235.578125 112.589844 235.144531 C 113.199219 234.902344 113.71875 233.570312 113.375 233.203125 C 112.808594 232.652344 112.21875 231.992188 111.511719 231.753906 C 109.339844 231.007812 107.117188 230.394531 104.890625 229.832031 C 103.929688 229.589844 102.90625 229.488281 102.183594 230.554688 C 101.933594 230.914062 101.398438 231.097656 100.976562 231.386719 C 100.34375 230.402344 101.535156 230.0625 101.5 229.367188 C 100.191406 228.890625 99.953125 228.933594 99.039062 229.820312 C 98.980469 229.878906 98.949219 230 98.886719 230.019531 C 98.671875 230.074219 98.441406 230.09375 98.222656 230.128906 C 98.222656 229.902344 98.171875 229.632812 98.273438 229.464844 C 98.546875 229.0625 98.84375 228.679688 99.15625 228.3125 C 98.730469 227.992188 98.324219 227.722656 97.957031 227.40625 C 97.878906 227.3125 97.785156 227.242188 97.675781 227.1875 C 97.5625 227.136719 97.449219 227.109375 97.328125 227.109375 C 97.203125 227.109375 97.089844 227.136719 96.980469 227.1875 C 96.867188 227.242188 96.773438 227.3125 96.695312 227.40625 C 96.3125 227.707031 95.898438 227.964844 95.464844 228.183594 L 95.210938 227.960938 L 96.3125 226.253906 C 95.023438 224.777344 93.566406 224.515625 91.746094 225.398438 C 90.28125 226.09375 88.773438 226.679688 87.222656 227.15625 C 85.773438 227.613281 84.261719 227.890625 82.554688 228.300781 Z M 69.679688 40.515625 C 67.636719 42.710938 65.074219 43.6875 62.710938 44.988281 C 61.222656 45.808594 61.242188 45.867188 61.703125 47.558594 C 62.347656 49.917969 62.980469 52.277344 63.535156 54.671875 C 64.363281 58.246094 65.179688 61.804688 66.449219 65.269531 C 68.128906 69.839844 69.523438 74.511719 71.054688 79.132812 C 71.386719 80.140625 71.785156 81.121094 72.148438 82.113281 L 72.367188 82.0625 C 72.367188 81.792969 72.367188 81.515625 72.367188 81.246094 C 72.128906 78.375 71.976562 75.5 71.617188 72.640625 C 71.285156 69.886719 70.675781 67.132812 70.355469 64.378906 C 69.8125 59.734375 69.394531 55.078125 68.933594 50.425781 C 68.769531 48.761719 68.355469 47.113281 68.742188 45.410156 C 69.085938 43.871094 69.335938 42.324219 69.679688 40.515625 Z M 81.308594 41.695312 C 81.65625 43.066406 82.164062 44.347656 82.273438 45.660156 C 82.472656 48.019531 82.453125 50.382812 82.488281 52.742188 C 82.554688 57.160156 82.605469 61.582031 82.644531 66.003906 C 82.644531 67.6875 82.695312 69.375 82.613281 71.058594 C 82.476562 73.921875 82.253906 76.78125 82.0625 79.644531 C 82.34375 79.242188 82.539062 78.804688 82.652344 78.332031 C 83.917969 73.039062 85.136719 67.742188 86.425781 62.460938 C 87.769531 57.09375 88.75 51.660156 89.375 46.160156 C 89.457031 45.375 89.25 44.785156 88.4375 44.453125 C 87.257812 43.984375 86.132812 43.472656 85.003906 42.933594 C 84.238281 42.621094 83.519531 42.21875 82.847656 41.734375 C 82.261719 41.261719 81.824219 41.300781 81.308594 41.695312 Z M 51.785156 237.851562 C 53.257812 237.792969 54.644531 237.691406 56.027344 237.6875 C 59.199219 237.6875 62.378906 238.003906 65.445312 236.902344 C 66.703125 236.445312 67.175781 235.585938 66.601562 234.367188 C 65.5 232.046875 63.554688 230.433594 61.550781 229.046875 C 61.238281 228.808594 60.894531 228.632812 60.523438 228.515625 C 60.148438 228.402344 59.765625 228.359375 59.375 228.382812 C 58.984375 228.40625 58.609375 228.5 58.253906 228.660156 C 57.894531 228.820312 57.578125 229.039062 57.300781 229.3125 C 56.761719 229.820312 56.175781 230.28125 55.664062 230.8125 C 54.484375 232.039062 53.355469 233.328125 52.132812 234.542969 C 50.636719 236.042969 50.613281 236.019531 51.738281 237.832031 C 51.785156 237.863281 51.828125 237.90625 51.785156 237.851562 Z M 51.347656 84.246094 C 51.984375 84.792969 52.589844 85.15625 52.976562 85.679688 C 53.957031 87.003906 54.828125 88.40625 55.761719 89.769531 C 56.371094 90.722656 57.207031 91.394531 58.273438 91.78125 C 58.21875 90.921875 58.160156 90.179688 58.125 89.441406 C 57.996094 86.882812 57.863281 84.328125 57.730469 81.765625 C 57.683594 80.632812 57.730469 79.496094 57.625 78.371094 C 57.546875 77.316406 57.390625 76.277344 57.167969 75.246094 C 56.929688 74.191406 56.554688 73.171875 56.214844 72.054688 C 54.554688 74.46875 53.289062 76.839844 53.058594 79.636719 C 53.015625 79.890625 52.941406 80.132812 52.835938 80.367188 C 52.34375 81.691406 51.824219 83.011719 51.347656 84.246094 Z M 69.855469 45.648438 C 69.980469 45.722656 70.109375 45.78125 70.25 45.820312 C 71.703125 46.007812 73.160156 46.210938 74.617188 46.363281 C 76.492188 46.550781 78.300781 46.289062 80.046875 45.574219 C 80.730469 45.308594 81.222656 44.988281 80.832031 44.082031 C 80.644531 43.539062 80.535156 42.980469 80.515625 42.40625 C 80.46875 41.929688 80.242188 41.800781 79.792969 41.800781 C 78.5625 41.804688 77.390625 41.546875 76.273438 41.035156 C 75.15625 40.523438 74.199219 39.800781 73.398438 38.863281 C 72.425781 37.78125 71.601562 36.570312 70.746094 35.464844 C 71.058594 38.914062 70.761719 42.308594 69.855469 45.648438 Z M 113.371094 236.433594 C 112.875 236.652344 112.367188 236.835938 111.847656 236.988281 C 108.816406 237.613281 105.796875 238.304688 102.742188 238.796875 C 100.175781 239.191406 97.578125 239.582031 95.082031 238.214844 C 94.503906 237.90625 93.625 237.984375 92.917969 238.089844 C 91.121094 238.359375 89.359375 238.820312 87.511719 238.484375 C 85.984375 238.222656 84.445312 238.058594 82.929688 237.851562 C 82.628906 238.640625 83.1875 238.695312 83.640625 238.789062 C 86.171875 239.390625 88.738281 239.621094 91.335938 239.484375 C 93.050781 239.296875 94.726562 239.460938 96.371094 239.976562 C 96.945312 240.15625 97.535156 240.214844 98.132812 240.160156 C 100.738281 239.976562 103.351562 239.859375 105.929688 239.484375 C 107.828125 239.148438 109.691406 238.683594 111.523438 238.089844 C 111.957031 238 112.339844 237.804688 112.667969 237.507812 C 113 237.214844 113.230469 236.855469 113.371094 236.433594 Z M 62.867188 98.109375 C 62.363281 96.640625 61.101562 96.144531 60.046875 95.410156 C 59.976562 95.335938 59.890625 95.285156 59.796875 95.253906 C 59.699219 95.222656 59.601562 95.214844 59.503906 95.230469 C 59.402344 95.25 59.3125 95.289062 59.230469 95.347656 C 59.152344 95.410156 59.089844 95.484375 59.046875 95.578125 C 58.453125 96.445312 57.742188 97.261719 57.292969 98.195312 C 56.394531 100.050781 57.03125 100.746094 58.917969 101.0625 L 58.300781 100.003906 C 59.355469 99.898438 59.894531 100.507812 60.421875 101.003906 C 61.128906 101.664062 61.871094 101.570312 62.730469 101.398438 C 61.894531 100.675781 61.125 100.007812 60.351562 99.339844 L 60.539062 99.066406 C 60.8125 99.144531 61.074219 99.25 61.324219 99.382812 C 62.066406 99.855469 62.773438 100.382812 63.519531 100.851562 C 63.699219 100.964844 64.097656 101.039062 64.175781 100.949219 C 64.335938 100.730469 64.390625 100.484375 64.339844 100.214844 C 64.253906 99.972656 64.097656 99.785156 63.871094 99.660156 C 62.976562 99.109375 62.058594 98.601562 61.160156 98.058594 C 60.851562 97.835938 60.554688 97.597656 60.273438 97.339844 C 61.441406 97.070312 62.019531 97.789062 62.867188 98.109375 Z M 90.75 96.222656 L 90.914062 96.53125 C 89.921875 97.761719 87.832031 97.652344 87.285156 99.46875 L 90.613281 98.355469 L 90.765625 98.675781 L 87.863281 100.355469 C 88.960938 101.300781 89.957031 100.355469 91.167969 100.058594 L 90.457031 100.960938 C 92.253906 101.121094 92.542969 100.960938 92.746094 99.425781 C 92.96875 97.703125 92.113281 96.277344 91.175781 94.957031 C 90.910156 94.78125 90.632812 94.761719 90.34375 94.894531 C 89.863281 95.488281 89.421875 96.109375 89.007812 96.753906 L 89.152344 96.851562 Z M 50.804688 238.449219 C 51.109375 238.710938 51.386719 239.164062 51.714844 239.199219 C 53.230469 239.375 54.757812 239.460938 56.285156 239.523438 C 57.160156 239.5625 58.039062 239.523438 58.914062 239.476562 C 60.261719 239.421875 61.609375 239.347656 62.953125 239.28125 L 62.953125 238.972656 C 58.921875 239.238281 54.90625 239.28125 50.804688 238.449219 Z M 50.804688 238.449219 " fill-opacity="1" fill-rule="nonzero"/></g><path fill="#ffffff" d="M 78.441406 97.613281 L 80.914062 97.613281 C 81.453125 100.527344 81.976562 103.433594 82.535156 106.335938 C 82.925781 108.347656 83.320312 110.367188 83.792969 112.351562 C 84.015625 113.257812 84.972656 113.390625 85.6875 113.3125 C 86.777344 113.136719 87.851562 112.898438 88.914062 112.59375 L 92.128906 111.835938 C 92.265625 113.410156 92.355469 114.925781 92.546875 116.4375 C 92.9375 119.636719 93.492188 122.820312 93.78125 126.023438 C 94.089844 129.433594 94.21875 132.863281 94.347656 136.285156 C 94.570312 141.988281 94.746094 147.695312 94.875 153.40625 C 94.96875 157.375 94.960938 161.34375 95.011719 165.3125 C 95.035156 167.140625 95.128906 168.96875 95.136719 170.796875 C 95.136719 172.21875 95.0625 173.648438 95.023438 175.074219 C 94.847656 181.46875 94.6875 187.859375 94.492188 194.25 C 94.453125 195.472656 94.183594 196.691406 94.183594 197.914062 C 94.183594 201.792969 94.183594 205.675781 94.320312 209.554688 C 94.355469 210.667969 94.832031 211.761719 95 212.882812 C 95.277344 214.710938 95.367188 216.570312 95.714844 218.386719 C 95.964844 219.683594 96.265625 220.929688 96.078125 222.261719 C 96 222.8125 96.210938 223.40625 96.3125 224.109375 C 95.472656 223.960938 94.710938 223.78125 93.957031 223.71875 C 93.371094 223.640625 92.785156 223.667969 92.207031 223.796875 C 91.21875 224.050781 90.269531 224.453125 89.300781 224.777344 C 87.582031 225.367188 85.851562 225.929688 84.136719 226.527344 C 82.675781 227.035156 81.390625 226.527344 80.210938 225.738281 C 79.882812 225.515625 79.710938 224.640625 79.859375 224.191406 C 80.457031 222.378906 79.984375 220.746094 79.421875 219.03125 C 79.222656 218.421875 79.496094 217.460938 79.894531 216.90625 C 80.308594 216.339844 80.492188 215.707031 80.449219 215.007812 C 80.296875 212.042969 80.125 209.078125 79.910156 206.121094 C 79.675781 202.902344 79.359375 199.691406 79.125 196.476562 C 78.71875 191.15625 78.328125 185.832031 77.949219 180.507812 C 77.683594 176.746094 77.492188 172.984375 77.210938 169.226562 C 76.9375 165.585938 76.589844 161.945312 76.28125 158.308594 C 76.015625 155.207031 75.800781 152.105469 75.496094 149.015625 C 75.1875 145.921875 74.808594 142.898438 74.402344 139.847656 C 74.164062 138.097656 73.695312 136.378906 73.5625 134.628906 C 73.460938 133.394531 73.726562 132.128906 73.875 130.886719 C 73.988281 129.953125 74.15625 129.03125 74.335938 128.105469 C 74.589844 126.824219 75.566406 126.28125 76.652344 125.824219 C 77.125 125.625 77.832031 125.542969 77.710938 124.738281 C 75.425781 124.238281 73.355469 125.816406 72.964844 128.347656 C 72.289062 132.714844 71.578125 137.074219 70.980469 141.449219 C 70.378906 145.828125 69.941406 150.175781 69.363281 154.523438 C 68.8125 158.648438 68.03125 162.753906 67.605469 166.890625 C 67.101562 171.734375 66.121094 176.527344 66.1875 181.441406 C 66.234375 185.007812 65.847656 188.570312 65.71875 192.136719 C 65.640625 194.589844 65.640625 197.046875 65.640625 199.511719 C 65.617188 204.652344 65.605469 209.792969 65.605469 214.929688 C 65.644531 215.46875 65.722656 216.003906 65.839844 216.53125 C 66 217.5625 66.355469 218.605469 66.285156 219.617188 C 66.105469 222.089844 66.679688 224.433594 67.203125 226.796875 C 67.371094 227.5625 67.625 228.316406 67.765625 229.085938 C 67.761719 229.367188 67.691406 229.628906 67.546875 229.871094 C 67.292969 230.460938 67.015625 231.050781 66.726562 231.675781 C 66.617188 231.582031 66.519531 231.480469 66.425781 231.371094 C 64.8125 229.523438 63.015625 227.941406 60.664062 227.09375 C 59.769531 226.765625 58.910156 226.699219 58.125 227.214844 C 57.261719 227.8125 56.433594 228.453125 55.636719 229.136719 C 55.054688 229.617188 54.515625 230.148438 54.03125 230.59375 C 53.667969 229.230469 53.375 227.914062 52.957031 226.660156 C 52.46875 225.199219 52.640625 223.734375 52.660156 222.253906 C 52.640625 221.234375 52.5625 220.21875 52.425781 219.210938 C 52.347656 218.472656 52.164062 217.75 52.105469 217.015625 C 51.757812 212.78125 51.429688 208.546875 51.121094 204.3125 C 50.972656 202.34375 50.851562 200.378906 50.769531 198.410156 C 50.507812 192.046875 50.191406 185.6875 50.042969 179.324219 C 49.933594 174.386719 49.976562 169.441406 50.078125 164.507812 C 50.234375 157.257812 50.472656 150.003906 50.726562 142.761719 C 50.902344 137.910156 51.050781 133.054688 51.460938 128.207031 C 51.894531 123.128906 52.140625 118.015625 53.363281 113.03125 C 53.492188 112.273438 53.5625 111.511719 53.570312 110.742188 C 54.925781 111.019531 56.183594 111.328125 57.46875 111.53125 C 60.933594 112.039062 64.4375 112.535156 67.933594 112.980469 C 69.738281 113.210938 70.613281 112.589844 71.074219 110.863281 C 72.140625 106.640625 73.160156 102.410156 74.210938 98.179688 C 74.257812 97.984375 74.316406 97.789062 74.375 97.601562 L 77.246094 97.601562 C 77.246094 97.890625 77.289062 98.132812 77.292969 98.390625 C 77.339844 100.898438 77.386719 103.410156 77.433594 105.925781 C 77.417969 106.097656 77.449219 106.261719 77.527344 106.417969 C 77.691406 106.589844 77.871094 106.738281 78.070312 106.867188 C 78.195312 106.671875 78.425781 106.472656 78.429688 106.285156 C 78.460938 103.6875 78.460938 101.09375 78.46875 98.5 Z M 78.441406 97.613281 " fill-opacity="1" fill-rule="nonzero"/><path fill="#ffffff" d="M 60.367188 46.457031 C 60.878906 48.378906 61.394531 50.242188 61.855469 52.121094 C 62.367188 54.191406 62.753906 56.296875 63.3125 58.359375 C 64.015625 60.933594 64.8125 63.472656 65.617188 66.035156 C 67.125 70.816406 68.636719 75.601562 70.210938 80.359375 C 70.625 81.621094 70.902344 83.027344 72.308594 83.734375 C 72.496094 83.824219 72.503906 84.347656 72.53125 84.675781 C 72.796875 87.714844 72.925781 90.769531 73.316406 93.792969 C 73.570312 95.695312 72.953125 97.386719 72.585938 99.152344 C 71.878906 102.5625 71.140625 105.953125 70.375 109.332031 C 69.839844 111.691406 69.488281 111.871094 67.082031 111.539062 C 64.210938 111.144531 61.324219 110.828125 58.449219 110.421875 C 56.878906 110.199219 55.308594 109.875 53.742188 109.574219 C 53.085938 109.441406 52.855469 108.890625 53.179688 108.261719 C 53.679688 107.300781 54.113281 106.296875 54.699219 105.390625 C 55.449219 104.210938 56.324219 103.152344 57.15625 102.015625 C 59.117188 102.917969 61.121094 103.175781 63.171875 102.523438 C 63.8125 102.363281 64.382812 102.0625 64.878906 101.621094 C 65.238281 101.171875 65.339844 100.667969 65.191406 100.109375 C 63.945312 97.472656 62.632812 94.863281 59.574219 93.675781 C 59.792969 89.292969 58.652344 84.914062 59.339844 80.46875 C 59.511719 79.363281 59.230469 78.109375 58.917969 77.015625 C 57.835938 73.210938 56.65625 69.429688 55.507812 65.640625 C 55.394531 65.34375 55.261719 65.054688 55.113281 64.777344 L 54.796875 64.84375 C 54.867188 65.542969 54.914062 66.246094 55.019531 66.941406 C 55.1875 68.039062 55.414062 69.125 55.570312 70.222656 C 55.589844 70.511719 55.519531 70.773438 55.355469 71.011719 C 54.917969 71.679688 54.433594 72.3125 53.960938 72.953125 C 52.785156 74.457031 52.148438 76.160156 52.054688 78.066406 C 52 78.898438 51.824219 79.703125 51.515625 80.476562 C 51.035156 81.757812 50.460938 83 49.890625 84.242188 C 49.765625 84.46875 49.582031 84.625 49.339844 84.714844 C 48.59375 84.933594 47.867188 85.207031 47.160156 85.527344 C 48.285156 86.625 49.152344 85.558594 50.207031 85.296875 C 49.96875 85.722656 49.75 86.105469 49.535156 86.476562 L 49.773438 86.683594 L 51.1875 85.265625 C 51.59375 85.667969 51.964844 86.097656 52.300781 86.5625 C 53.796875 88.921875 55.195312 91.335938 57.75 92.769531 C 58.601562 93.246094 58.585938 93.839844 58.042969 94.660156 C 57.496094 95.484375 57.015625 96.484375 56.515625 97.414062 C 56.339844 97.738281 56.175781 98.066406 55.988281 98.382812 C 55.570312 99.101562 55.242188 99.925781 55.699219 100.648438 C 56.367188 101.703125 55.730469 102.246094 55.113281 102.910156 C 54.769531 102.609375 54.429688 102.347656 54.125 102.054688 C 52.265625 100.257812 50.417969 98.449219 48.542969 96.664062 C 48.097656 96.265625 47.628906 95.898438 47.136719 95.566406 C 46.046875 94.777344 44.914062 94.078125 43.851562 93.273438 C 41.859375 91.757812 39.875 90.226562 37.964844 88.628906 C 37.554688 88.285156 37.390625 87.617188 37.160156 87.078125 C 36.71875 86.054688 36.652344 85.003906 36.964844 83.929688 C 38.144531 79.714844 40.105469 75.808594 41.753906 71.78125 C 43.300781 68.015625 44.734375 64.207031 46.09375 60.375 C 47.476562 56.683594 49.175781 53.140625 51.195312 49.753906 C 51.738281 48.960938 52.476562 48.429688 53.402344 48.164062 C 55.648438 47.457031 58 47.007812 60.367188 46.457031 Z M 52.730469 49.265625 C 51.714844 50.445312 52.421875 57.042969 53.714844 58.308594 C 53.832031 55.09375 53.296875 52.171875 52.730469 49.265625 Z M 52.730469 49.265625 " fill-opacity="1" fill-rule="nonzero"/><path fill="#ffffff" d="M 90.558594 46.144531 C 92.097656 46.835938 93.535156 47.453125 94.945312 48.113281 C 96.300781 48.757812 96.964844 50.050781 97.554688 51.292969 C 98.695312 53.6875 99.089844 56.28125 99.324219 58.921875 C 99.660156 62.609375 100.046875 66.296875 100.5625 69.972656 C 101.324219 75.449219 102.1875 80.910156 103.074219 86.367188 C 103.203125 87.335938 103.085938 88.277344 102.726562 89.1875 C 101.199219 93.78125 97.851562 96.941406 94.34375 99.984375 C 94.167969 100.105469 93.988281 100.21875 93.800781 100.320312 C 94.117188 98.480469 93.53125 96.917969 92.949219 95.402344 C 92.667969 94.632812 92.1875 94.019531 91.515625 93.558594 C 90.761719 93.097656 90.695312 92.523438 90.769531 91.867188 C 91.128906 88.785156 91.554688 85.714844 91.902344 82.625 C 92.128906 80.558594 92.160156 78.46875 92.421875 76.402344 C 92.910156 72.597656 93.414062 68.785156 94.097656 64.996094 C 94.40625 63.3125 95.179688 61.71875 95.722656 60.082031 C 95.769531 59.875 95.792969 59.664062 95.792969 59.449219 C 95.585938 59.425781 95.382812 59.4375 95.179688 59.484375 C 93.917969 60.027344 93.570312 61.199219 93.355469 62.390625 C 92.777344 65.664062 92.179688 68.945312 91.707031 72.222656 C 91.410156 74.21875 91.3125 76.25 91.109375 78.261719 C 90.683594 82.226562 90.101562 86.183594 89.867188 90.164062 C 89.792969 92.304688 89.125 94.234375 87.863281 95.960938 C 87.019531 97.140625 86.449219 98.492188 85.769531 99.777344 C 85.339844 100.566406 85.476562 101.015625 86.351562 101.265625 C 87.605469 101.625 88.878906 101.925781 90.15625 102.183594 C 90.378906 102.207031 90.578125 102.289062 90.75 102.433594 C 90.921875 102.578125 91.042969 102.757812 91.105469 102.972656 C 91.851562 104.757812 92.675781 106.511719 93.496094 108.265625 C 94.0625 109.488281 93.886719 110.105469 92.589844 110.460938 C 90.429688 111.058594 88.25 111.585938 86.070312 112.109375 C 85.363281 112.277344 84.894531 112.035156 84.734375 111.214844 C 84.308594 108.691406 83.847656 106.164062 83.378906 103.648438 C 82.984375 101.632812 82.425781 99.640625 82.222656 97.609375 C 81.988281 95.34375 82.058594 93.050781 82.03125 90.769531 C 82.007812 88.941406 82.03125 87.117188 82.03125 85.289062 C 82 84.132812 82.175781 83.007812 82.558594 81.917969 C 83.542969 79.230469 84.238281 76.410156 84.988281 73.65625 C 85.882812 70.359375 86.761719 67.054688 87.570312 63.734375 C 88.308594 60.691406 89.027344 57.636719 89.59375 54.558594 C 89.988281 52.378906 90.132812 50.148438 90.378906 47.941406 C 90.445312 47.394531 90.492188 46.828125 90.558594 46.144531 Z M 93.503906 86.449219 C 94.402344 86.367188 95.070312 86.078125 95.507812 85.304688 C 94.375 85.015625 93.558594 85.449219 93.503906 86.449219 Z M 93.695312 87.648438 C 94.363281 88.019531 94.871094 87.878906 95.375 87.289062 C 94.441406 86.792969 94.109375 86.867188 93.683594 87.648438 Z M 93.695312 87.648438 " fill-opacity="1" fill-rule="nonzero"/><path fill="#ffffff" d="M 91.695312 19.492188 C 91.425781 17.738281 91.257812 16.101562 90.910156 14.507812 C 90.660156 13.546875 90.304688 12.628906 89.84375 11.753906 C 89.433594 10.898438 88.691406 10.65625 87.757812 10.851562 C 87.46875 10.929688 87.183594 10.914062 86.902344 10.816406 C 86.539062 10.625 86.152344 10.558594 85.742188 10.613281 C 85.335938 10.671875 84.980469 10.839844 84.679688 11.125 C 83.863281 11.832031 83.304688 12.710938 83.007812 13.753906 C 82.371094 15.761719 81.679688 17.75 80.984375 19.742188 C 80.769531 20.257812 80.527344 20.757812 80.257812 21.246094 C 79.628906 19.941406 79.398438 19.871094 78.382812 20.828125 C 76.8125 22.3125 74.851562 22.875 72.8125 23.1875 C 71.769531 23.332031 70.8125 23.214844 70.355469 21.953125 C 70.078125 21.164062 69.296875 20.960938 68.496094 21.039062 C 67.855469 21.105469 67.269531 21.3125 66.734375 21.671875 C 66.199219 22.027344 65.78125 22.488281 65.472656 23.054688 C 63.535156 26.277344 64.96875 30.683594 67.695312 32.699219 C 68.140625 33.027344 68.796875 33.089844 69.429688 33.273438 C 69.945312 35.128906 70.09375 35.132812 67.304688 36.164062 C 67.316406 35.960938 67.316406 35.761719 67.304688 35.5625 C 67.230469 34.90625 66.875 34.738281 66.324219 35.101562 C 65.835938 35.421875 65.363281 35.777344 64.714844 36.238281 C 64.886719 34.03125 63.503906 32.808594 62.3125 31.492188 C 61.011719 30.089844 60.058594 28.480469 59.441406 26.667969 C 59.136719 25.921875 59.007812 25.148438 59.050781 24.34375 C 59.050781 24.199219 58.949219 24.042969 58.890625 23.894531 L 58.398438 24.175781 C 57.789062 20.664062 58.03125 17.210938 59.128906 13.820312 C 60.75 8.753906 64.566406 5.742188 69.089844 3.445312 C 71.949219 1.996094 74.921875 1.386719 78.117188 2.050781 C 81.042969 2.667969 84.066406 2.835938 86.722656 4.539062 C 91.539062 7.628906 93.550781 12.617188 92.023438 18.144531 C 91.902344 18.550781 91.820312 18.976562 91.695312 19.492188 Z M 91.695312 19.492188 " fill-opacity="1" fill-rule="nonzero"/><path fill="#ffffff" d="M 79.375 21.207031 C 79.375 21.554688 79.375 21.820312 79.417969 22.09375 C 79.476562 22.71875 79.8125 22.878906 80.328125 22.53125 C 80.53125 22.414062 80.691406 22.253906 80.8125 22.054688 C 81.203125 21.136719 81.914062 20.78125 82.847656 20.664062 C 83.09375 20.632812 83.304688 20.347656 83.53125 20.183594 C 83.292969 20.019531 83.042969 19.871094 82.78125 19.742188 C 82.570312 19.683594 82.355469 19.65625 82.132812 19.65625 C 82.785156 17.597656 83.359375 15.570312 84.097656 13.601562 C 84.324219 12.984375 84.855469 12.253906 85.417969 12.027344 C 86.445312 11.636719 87.609375 12.34375 88.730469 11.929688 C 88.871094 11.878906 89.289062 12.378906 89.464844 12.6875 C 90.320312 14.191406 90.90625 18.589844 90.5625 20.195312 L 89.230469 20.84375 L 90.40625 21.773438 L 90.679688 21.703125 C 90.230469 24.230469 89.78125 26.757812 89.320312 29.367188 C 88.460938 28.84375 87.910156 28.09375 87.667969 27.117188 C 87.476562 26.226562 87.445312 25.304688 87.339844 24.363281 C 86.089844 25.230469 86.792969 28.261719 88.695312 30.1875 C 88.214844 30.472656 87.746094 30.714844 87.304688 31.007812 C 87.019531 31.210938 86.757812 31.441406 86.523438 31.707031 C 86.496094 31.734375 86.703125 32.097656 86.765625 32.074219 C 87.082031 32.027344 87.386719 31.933594 87.675781 31.796875 C 88.015625 31.605469 88.347656 31.398438 88.664062 31.171875 C 87.878906 34.265625 86.632812 36.988281 84.125 38.832031 C 80.59375 41.429688 78.011719 40.898438 74.9375 38.3125 C 73.582031 37.121094 72.582031 35.679688 71.945312 33.988281 C 71.71875 33.429688 71.457031 32.890625 71.160156 32.367188 C 70.765625 31.695312 70.300781 31.1875 69.367188 31.523438 C 68.679688 31.78125 68.097656 31.425781 67.589844 30.96875 C 65.792969 29.347656 65.195312 25.929688 66.328125 23.769531 C 67.179688 22.152344 68.839844 21.929688 70.019531 23.28125 C 70.328125 23.613281 70.695312 23.855469 71.121094 24.007812 C 71.546875 24.15625 71.984375 24.199219 72.429688 24.136719 C 74.285156 24.027344 76.015625 23.503906 77.621094 22.5625 C 78.234375 22.148438 78.820312 21.699219 79.375 21.207031 Z M 69.507812 27.078125 C 69.019531 27.230469 68.46875 27.242188 68.214844 27.523438 C 67.894531 27.917969 67.765625 28.363281 67.824219 28.867188 C 67.851562 29.03125 67.90625 29.1875 67.992188 29.328125 C 68.078125 29.472656 68.1875 29.59375 68.320312 29.695312 C 68.457031 29.792969 68.605469 29.867188 68.765625 29.90625 C 68.925781 29.949219 69.089844 29.957031 69.257812 29.9375 C 69.867188 29.78125 70.328125 29.425781 70.632812 28.875 C 71.214844 27.640625 70.324219 25 69.207031 24.242188 C 68.8125 23.988281 68.421875 23.792969 68.003906 24.207031 C 69.453125 26.058594 69.457031 26.058594 69.507812 27.078125 Z M 80.285156 32.925781 C 80.101562 33.027344 79.945312 33.160156 79.8125 33.324219 C 79.683594 33.488281 79.585938 33.671875 79.527344 33.875 C 79.46875 34.074219 79.449219 34.28125 79.46875 34.492188 C 79.488281 34.699219 79.546875 34.898438 79.648438 35.085938 C 80.039062 35.871094 80.824219 36.066406 81.695312 35.621094 C 82.566406 35.171875 82.8125 34.644531 82.386719 33.882812 C 82.214844 34.132812 82.023438 34.367188 81.816406 34.589844 C 81.589844 34.804688 81.246094 35.164062 81.070312 35.109375 C 80.738281 34.953125 80.515625 34.703125 80.398438 34.355469 C 80.308594 33.882812 80.273438 33.40625 80.285156 32.925781 Z M 82.90625 24.394531 L 82.296875 23.167969 C 82.050781 23.535156 81.679688 23.882812 81.601562 24.289062 C 81.5 24.808594 81.1875 25.660156 82.054688 25.75 C 82.921875 25.84375 82.652344 25.007812 82.90625 24.394531 Z M 89.535156 24.089844 L 89.054688 23.304688 C 88.847656 23.515625 88.511719 23.699219 88.460938 23.953125 C 88.402344 24.40625 88.410156 24.859375 88.488281 25.3125 C 88.488281 25.351562 88.878906 25.429688 88.917969 25.382812 C 89.140625 24.996094 89.316406 24.574219 89.535156 24.089844 Z M 89.535156 24.089844 " fill-opacity="1" fill-rule="nonzero"/><path fill="#ffffff" d="M 69.679688 40.515625 C 69.335938 42.324219 69.085938 43.871094 68.738281 45.394531 C 68.347656 47.097656 68.765625 48.746094 68.929688 50.410156 C 69.390625 55.0625 69.808594 59.71875 70.351562 64.363281 C 70.671875 67.117188 71.28125 69.871094 71.613281 72.625 C 71.957031 75.484375 72.125 78.359375 72.363281 81.230469 C 72.386719 81.5 72.363281 81.777344 72.363281 82.046875 L 72.144531 82.097656 C 71.78125 81.105469 71.382812 80.132812 71.050781 79.117188 C 69.519531 74.496094 68.125 69.824219 66.445312 65.253906 C 65.175781 61.789062 64.359375 58.230469 63.53125 54.65625 C 62.976562 52.273438 62.355469 49.90625 61.699219 47.542969 C 61.238281 45.851562 61.21875 45.792969 62.707031 44.972656 C 65.074219 43.6875 67.636719 42.710938 69.679688 40.515625 Z M 69.679688 40.515625 " fill-opacity="1" fill-rule="nonzero"/><path fill="#ffffff" d="M 81.308594 41.695312 C 81.824219 41.304688 82.261719 41.261719 82.847656 41.742188 C 83.519531 42.226562 84.238281 42.628906 85.003906 42.945312 C 86.132812 43.480469 87.273438 43.992188 88.4375 44.460938 C 89.25 44.792969 89.457031 45.394531 89.375 46.167969 C 88.753906 51.667969 87.777344 57.101562 86.4375 62.46875 C 85.148438 67.75 83.929688 73.046875 82.664062 78.339844 C 82.550781 78.8125 82.355469 79.25 82.074219 79.652344 C 82.265625 76.789062 82.488281 73.929688 82.625 71.066406 C 82.707031 69.382812 82.671875 67.695312 82.65625 66.011719 C 82.613281 61.589844 82.558594 57.167969 82.5 52.75 C 82.464844 50.390625 82.5 48.027344 82.285156 45.667969 C 82.164062 44.347656 81.65625 43.066406 81.308594 41.695312 Z M 81.308594 41.695312 " fill-opacity="1" fill-rule="nonzero"/><path fill="#ffffff" d="M 69.855469 45.648438 C 70.761719 42.304688 71.058594 38.902344 70.742188 35.449219 C 71.597656 36.554688 72.421875 37.765625 73.394531 38.847656 C 74.195312 39.785156 75.152344 40.511719 76.269531 41.023438 C 77.386719 41.539062 78.558594 41.792969 79.789062 41.789062 C 80.238281 41.789062 80.464844 41.921875 80.511719 42.398438 C 80.53125 42.972656 80.640625 43.53125 80.828125 44.070312 C 81.21875 44.980469 80.714844 45.300781 80.042969 45.566406 C 78.296875 46.28125 76.488281 46.542969 74.613281 46.351562 C 73.15625 46.195312 71.699219 46 70.246094 45.8125 C 70.109375 45.773438 69.980469 45.71875 69.855469 45.648438 Z M 69.855469 45.648438 " fill-opacity="1" fill-rule="nonzero"/><path fill="#ffffff" d="M 62.867188 98.109375 C 62.019531 97.789062 61.441406 97.070312 60.28125 97.355469 C 60.5625 97.613281 60.859375 97.851562 61.167969 98.074219 C 62.066406 98.617188 62.984375 99.125 63.878906 99.675781 C 64.105469 99.800781 64.261719 99.988281 64.347656 100.230469 C 64.398438 100.5 64.34375 100.746094 64.183594 100.964844 C 64.105469 101.054688 63.707031 100.964844 63.527344 100.867188 C 62.78125 100.398438 62.074219 99.871094 61.332031 99.398438 C 61.082031 99.265625 60.820312 99.160156 60.550781 99.082031 L 60.359375 99.355469 C 61.144531 100.023438 61.902344 100.691406 62.738281 101.414062 C 61.878906 101.585938 61.136719 101.679688 60.429688 101.019531 C 59.902344 100.527344 59.363281 99.914062 58.308594 100.019531 L 58.925781 101.0625 C 57.039062 100.746094 56.402344 100.050781 57.300781 98.195312 C 57.75 97.261719 58.476562 96.445312 59.054688 95.578125 C 59.097656 95.484375 59.160156 95.410156 59.238281 95.347656 C 59.320312 95.289062 59.410156 95.25 59.511719 95.230469 C 59.609375 95.214844 59.707031 95.222656 59.804688 95.253906 C 59.898438 95.285156 59.984375 95.335938 60.054688 95.410156 C 61.101562 96.136719 62.363281 96.640625 62.867188 98.109375 Z M 62.867188 98.109375 " fill-opacity="1" fill-rule="nonzero"/><path fill="#ffffff" d="M 90.753906 96.222656 L 89.148438 96.855469 L 89.003906 96.757812 C 89.417969 96.113281 89.859375 95.492188 90.339844 94.898438 C 90.628906 94.765625 90.90625 94.785156 91.171875 94.960938 C 92.113281 96.292969 92.96875 97.714844 92.742188 99.429688 C 92.539062 100.972656 92.25 101.125 90.453125 100.964844 L 91.164062 100.0625 C 89.953125 100.34375 88.957031 101.304688 87.859375 100.359375 L 90.761719 98.679688 L 90.609375 98.359375 L 87.28125 99.472656 C 87.828125 97.65625 89.917969 97.765625 90.910156 96.535156 Z M 90.753906 96.222656 " fill-opacity="1" fill-rule="nonzero"/><path fill="#000000" d="M 52.730469 49.265625 C 53.296875 52.1875 53.832031 55.109375 53.714844 58.308594 C 52.421875 57.027344 51.714844 50.417969 52.730469 49.265625 Z M 52.730469 49.265625 " fill-opacity="1" fill-rule="nonzero"/><path fill="#000000" d="M 93.503906 86.449219 C 93.570312 85.453125 94.386719 85.015625 95.507812 85.304688 C 95.070312 86.078125 94.390625 86.367188 93.503906 86.449219 Z M 93.503906 86.449219 " fill-opacity="1" fill-rule="nonzero"/><path fill="#000000" d="M 93.683594 87.648438 C 94.109375 86.863281 94.441406 86.792969 95.363281 87.289062 C 94.878906 87.878906 94.351562 88.019531 93.683594 87.648438 Z M 93.683594 87.648438 " fill-opacity="1" fill-rule="nonzero"/><path fill="#000000" d="M 69.507812 27.078125 C 69.457031 26.046875 69.453125 26.046875 67.996094 24.207031 C 68.417969 23.792969 68.824219 23.988281 69.199219 24.242188 C 70.316406 25 71.207031 27.640625 70.625 28.875 C 70.320312 29.425781 69.859375 29.78125 69.25 29.9375 C 69.082031 29.957031 68.917969 29.949219 68.757812 29.90625 C 68.597656 29.867188 68.449219 29.792969 68.3125 29.695312 C 68.179688 29.59375 68.070312 29.472656 67.984375 29.328125 C 67.898438 29.1875 67.839844 29.03125 67.816406 28.867188 C 67.757812 28.363281 67.886719 27.917969 68.207031 27.523438 C 68.46875 27.238281 69.019531 27.238281 69.507812 27.078125 Z M 69.507812 27.078125 " fill-opacity="1" fill-rule="nonzero"/><path fill="#000000" d="M 80.285156 32.925781 C 80.273438 33.40625 80.308594 33.882812 80.398438 34.355469 C 80.515625 34.703125 80.738281 34.953125 81.070312 35.109375 C 81.246094 35.164062 81.589844 34.804688 81.816406 34.589844 C 82.023438 34.367188 82.214844 34.132812 82.386719 33.882812 C 82.8125 34.644531 82.566406 35.167969 81.695312 35.621094 C 80.824219 36.070312 80.039062 35.859375 79.648438 35.085938 C 79.546875 34.898438 79.488281 34.699219 79.46875 34.492188 C 79.449219 34.28125 79.46875 34.074219 79.527344 33.875 C 79.585938 33.671875 79.683594 33.488281 79.8125 33.324219 C 79.945312 33.160156 80.101562 33.027344 80.285156 32.925781 Z M 80.285156 32.925781 " fill-opacity="1" fill-rule="nonzero"/><path fill="#000000" d="M 82.90625 24.394531 C 82.671875 25.007812 82.90625 25.839844 82.054688 25.75 C 81.203125 25.664062 81.5 24.808594 81.601562 24.289062 C 81.679688 23.894531 82.050781 23.535156 82.296875 23.167969 Z M 82.90625 24.394531 " fill-opacity="1" fill-rule="nonzero"/><path fill="#000000" d="M 89.535156 24.089844 C 89.316406 24.5625 89.144531 24.984375 88.917969 25.382812 C 88.890625 25.429688 88.492188 25.351562 88.488281 25.3125 C 88.410156 24.859375 88.402344 24.40625 88.460938 23.953125 C 88.511719 23.707031 88.851562 23.515625 89.054688 23.304688 Z M 89.535156 24.089844 " fill-opacity="1" fill-rule="nonzero"/></svg>