<svg xmlns="http://www.w3.org/2000/svg" xmlns:xlink="http://www.w3.org/1999/xlink" width="200" zoomAndPan="magnify" viewBox="0 0 150 149.999998" height="200" preserveAspectRatio="xMidYMid meet" version="1.0"><defs><clipPath id="878da68992"><path d="M 4 143 L 11 143 L 11 149.757812 L 4 149.757812 Z M 4 143 " clip-rule="nonzero"/></clipPath><clipPath id="a953c418b7"><path d="M 20 145 L 27 145 L 27 149.757812 L 20 149.757812 Z M 20 145 " clip-rule="nonzero"/></clipPath><clipPath id="cdda243e55"><path d="M 36 146 L 43 146 L 43 149.757812 L 36 149.757812 Z M 36 146 " clip-rule="nonzero"/></clipPath><clipPath id="8b253f5bbd"><path d="M 63 145 L 68 145 L 68 149.757812 L 63 149.757812 Z M 63 145 " clip-rule="nonzero"/></clipPath><clipPath id="af846fad41"><path d="M 10 147 L 17 147 L 17 149.757812 L 10 149.757812 Z M 10 147 " clip-rule="nonzero"/></clipPath><clipPath id="e6d3943e11"><path d="M 79 146 L 84 146 L 84 149.757812 L 79 149.757812 Z M 79 146 " clip-rule="nonzero"/></clipPath><clipPath id="ee9752a571"><path d="M 53 147 L 59 147 L 59 149.757812 L 53 149.757812 Z M 53 147 " clip-rule="nonzero"/></clipPath><clipPath id="fcc0ae383b"><path d="M 95 147 L 100 147 L 100 149.757812 L 95 149.757812 Z M 95 147 " clip-rule="nonzero"/></clipPath><clipPath id="271f960109"><path d="M 138 147 L 141 147 L 141 149.757812 L 138 149.757812 Z M 138 147 " clip-rule="nonzero"/></clipPath><clipPath id="7e676cd5e5"><path d="M 9 40.257812 L 12 40.257812 L 12 43 L 9 43 Z M 9 40.257812 " clip-rule="nonzero"/></clipPath><clipPath id="1fcb1d8167"><path d="M 27 148 L 32 148 L 32 149.757812 L 27 149.757812 Z M 27 148 " clip-rule="nonzero"/></clipPath><clipPath id="cf09f3b84e"><path d="M 70 148 L 74 148 L 74 149.757812 L 70 149.757812 Z M 70 148 " clip-rule="nonzero"/></clipPath><clipPath id="649a376b34"><path d="M 0 147 L 2 147 L 2 149.757812 L 0 149.757812 Z M 0 147 " clip-rule="nonzero"/></clipPath><clipPath id="e0415125d4"><path d="M 112 148 L 115 148 L 115 149.757812 L 112 149.757812 Z M 112 148 " clip-rule="nonzero"/></clipPath></defs><g clip-path="url(#878da68992)"><path fill="#0f2553" d="M 7.574219 149.949219 C 7.148438 149.949219 6.722656 149.9375 6.296875 149.953125 C 5.863281 149.972656 5.542969 149.78125 5.242188 149.488281 C 3.773438 148.042969 4.070312 145.375 5.910156 144.324219 C 7.046875 143.675781 8.195312 143.625 9.316406 144.308594 C 10.449219 145 11.015625 146.042969 10.957031 147.382812 C 10.921875 148.179688 10.605469 148.875 10.054688 149.460938 C 9.75 149.792969 9.398438 149.980469 8.933594 149.957031 C 8.480469 149.933594 8.027344 149.953125 7.578125 149.953125 Z M 7.574219 149.949219 " fill-opacity="1" fill-rule="nonzero"/></g><path fill="#0f2553" d="M 4.992188 140.523438 C 3.507812 140.578125 1.796875 139.339844 1.824219 137.300781 C 1.851562 135.5 3.222656 134.140625 5.0625 134.128906 C 6.808594 134.121094 8.273438 135.636719 8.234375 137.375 C 8.191406 139.46875 6.390625 140.617188 4.992188 140.523438 Z M 4.992188 140.523438 " fill-opacity="1" fill-rule="nonzero"/><path fill="#0f2553" d="M 14.371094 141.019531 C 14.332031 142.769531 12.898438 144.121094 11.148438 144.078125 C 9.429688 144.035156 8.0625 142.667969 8.074219 140.933594 C 8.089844 139.089844 9.566406 137.734375 11.316406 137.78125 C 13.101562 137.832031 14.414062 139.265625 14.371094 141.019531 Z M 14.371094 141.019531 " fill-opacity="1" fill-rule="nonzero"/><path fill="#0f2553" d="M 20.5625 144.546875 C 20.535156 146.289062 19.179688 147.65625 17.460938 147.644531 C 15.660156 147.628906 14.347656 146.144531 14.382812 144.445312 C 14.417969 142.820312 15.75 141.460938 17.476562 141.429688 C 19.152344 141.398438 20.578125 142.867188 20.5625 144.546875 Z M 20.5625 144.546875 " fill-opacity="1" fill-rule="nonzero"/><path fill="#0f2553" d="M 8.605469 134.128906 C 6.941406 134.121094 5.621094 132.800781 5.617188 131.136719 C 5.617188 129.503906 6.980469 128.121094 8.613281 128.132812 C 10.402344 128.140625 11.652344 129.597656 11.632812 131.183594 C 11.613281 132.765625 10.265625 134.195312 8.605469 134.128906 Z M 8.605469 134.128906 " fill-opacity="1" fill-rule="nonzero"/><path fill="#0f2553" d="M 14.761719 137.640625 C 13.140625 137.613281 11.851562 136.28125 11.867188 134.652344 C 11.878906 133.066406 13.261719 131.707031 14.859375 131.742188 C 16.25 131.773438 17.777344 132.746094 17.78125 134.707031 C 17.785156 136.644531 16.183594 137.707031 14.761719 137.640625 Z M 14.761719 137.640625 " fill-opacity="1" fill-rule="nonzero"/><path fill="#0f2553" d="M 0.160156 127.566406 C 0.160156 127.035156 0.175781 126.5 0.152344 125.96875 C 0.136719 125.515625 0.347656 125.226562 0.703125 124.984375 C 2.398438 123.835938 4.761719 124.707031 5.347656 126.683594 C 5.71875 127.953125 5.175781 129.300781 4.195312 130.011719 C 3.167969 130.757812 1.828125 130.804688 0.746094 130.125 C 0.351562 129.878906 0.132812 129.566406 0.152344 129.082031 C 0.175781 128.578125 0.160156 128.070312 0.160156 127.566406 Z M 0.160156 127.566406 " fill-opacity="1" fill-rule="nonzero"/><path fill="#0f2553" d="M 21.097656 141.171875 C 19.480469 141.179688 18.140625 139.917969 18.160156 138.332031 C 18.179688 136.730469 19.335938 135.46875 21.03125 135.390625 C 22.601562 135.320312 23.925781 136.652344 23.941406 138.261719 C 23.957031 139.910156 22.734375 141.160156 21.101562 141.171875 Z M 21.097656 141.171875 " fill-opacity="1" fill-rule="nonzero"/><path fill="#0f2553" d="M 5.980469 118.410156 C 7.597656 118.488281 8.835938 119.621094 8.871094 121.316406 C 8.902344 122.835938 7.558594 124.195312 6.039062 124.183594 C 4.441406 124.171875 3.144531 123.050781 3.117188 121.328125 C 3.089844 119.703125 4.28125 118.496094 5.980469 118.410156 Z M 5.980469 118.410156 " fill-opacity="1" fill-rule="nonzero"/><path fill="#0f2553" d="M 1.285156 146.929688 C 1.179688 146.917969 0.914062 146.902344 0.652344 146.851562 C 0.367188 146.792969 0.179688 146.617188 0.171875 146.300781 C 0.167969 146.167969 0.160156 146.035156 0.160156 145.902344 C 0.15625 144.359375 0.160156 142.820312 0.160156 141.277344 C 0.160156 140.546875 0.136719 140.355469 1.101562 140.214844 C 1.722656 140.125 2.328125 140.246094 2.878906 140.527344 C 4.152344 141.179688 4.886719 142.339844 4.8125 143.753906 C 4.734375 145.199219 3.75 146.394531 2.390625 146.8125 C 2.082031 146.90625 1.765625 146.925781 1.285156 146.929688 Z M 1.285156 146.929688 " fill-opacity="1" fill-rule="nonzero"/><path fill="#0f2553" d="M 30.136719 141.941406 C 30.109375 143.480469 28.785156 144.792969 27.242188 144.753906 C 25.628906 144.710938 24.421875 143.457031 24.410156 141.882812 C 24.398438 140.328125 25.726562 139.027344 27.257812 139.027344 C 28.828125 139.027344 30.160156 140.375 30.132812 141.941406 Z M 30.136719 141.941406 " fill-opacity="1" fill-rule="nonzero"/><path fill="#0f2553" d="M 14.976562 124.902344 C 14.976562 126.492188 13.714844 127.734375 12.125 127.710938 C 10.648438 127.6875 9.375 126.40625 9.371094 124.941406 C 9.371094 123.421875 10.636719 122.085938 12.128906 122.085938 C 13.957031 122.078125 15.0625 123.648438 14.976562 124.902344 Z M 14.976562 124.902344 " fill-opacity="1" fill-rule="nonzero"/><path fill="#0f2553" d="M 33.511719 142.6875 C 35.019531 142.679688 36.335938 143.988281 36.324219 145.476562 C 36.308594 147.003906 35.03125 148.324219 33.546875 148.3125 C 31.699219 148.300781 30.695312 146.722656 30.707031 145.550781 C 30.726562 143.949219 31.921875 142.695312 33.511719 142.6875 Z M 33.511719 142.6875 " fill-opacity="1" fill-rule="nonzero"/><g clip-path="url(#a953c418b7)"><path fill="#0f2553" d="M 23.675781 149.949219 C 23.0625 149.949219 22.449219 149.929688 21.839844 149.957031 C 21.296875 149.980469 21.015625 149.714844 20.835938 149.238281 C 20.253906 147.722656 20.9375 146.035156 22.425781 145.359375 C 23.898438 144.691406 25.636719 145.300781 26.371094 146.753906 C 26.804688 147.613281 26.824219 148.488281 26.449219 149.375 C 26.289062 149.757812 26.023438 149.960938 25.589844 149.953125 C 24.953125 149.9375 24.316406 149.949219 23.675781 149.949219 Z M 23.675781 149.949219 " fill-opacity="1" fill-rule="nonzero"/></g><path fill="#0f2553" d="M 18.433594 131.238281 C 16.902344 131.238281 15.695312 130.035156 15.691406 128.503906 C 15.6875 126.992188 16.914062 125.753906 18.425781 125.746094 C 19.898438 125.738281 21.1875 127.023438 21.183594 128.496094 C 21.179688 130.003906 19.945312 131.238281 18.433594 131.238281 Z M 18.433594 131.238281 " fill-opacity="1" fill-rule="nonzero"/><path fill="#0f2553" d="M 0.636719 111.546875 C 0.546875 110.105469 1.773438 108.804688 3.316406 108.761719 C 4.511719 108.730469 6.070312 109.664062 6.101562 111.472656 C 6.132812 113.191406 4.699219 114.269531 3.394531 114.257812 C 1.636719 114.238281 0.566406 112.820312 0.636719 111.546875 Z M 0.636719 111.546875 " fill-opacity="1" fill-rule="nonzero"/><path fill="#0f2553" d="M 27.292969 132.121094 C 27.351562 133.484375 26.074219 134.824219 24.574219 134.773438 C 23.082031 134.722656 21.90625 133.527344 21.941406 132.03125 C 21.972656 130.601562 23.203125 129.402344 24.632812 129.414062 C 26.25 129.421875 27.371094 130.808594 27.292969 132.121094 Z M 27.292969 132.121094 " fill-opacity="1" fill-rule="nonzero"/><path fill="#0f2553" d="M 9.589844 112.445312 C 11.050781 112.4375 12.238281 113.609375 12.25 115.066406 C 12.265625 116.851562 10.765625 117.832031 9.589844 117.777344 C 7.871094 117.703125 6.941406 116.492188 6.917969 115.066406 C 6.894531 113.628906 8.121094 112.457031 9.589844 112.445312 Z M 9.589844 112.445312 " fill-opacity="1" fill-rule="nonzero"/><path fill="#0f2553" d="M 30.867188 133.078125 C 32.320312 133.070312 33.523438 134.273438 33.507812 135.714844 C 33.492188 137.152344 32.257812 138.375 30.828125 138.332031 C 29.335938 138.285156 28.285156 137.160156 28.222656 135.714844 C 28.160156 134.285156 29.398438 133.085938 30.867188 133.078125 Z M 30.867188 133.078125 " fill-opacity="1" fill-rule="nonzero"/><path fill="#0f2553" d="M 18.371094 118.707031 C 18.375 120.144531 17.214844 121.3125 15.789062 121.308594 C 14.386719 121.304688 13.136719 120.089844 13.183594 118.707031 C 13.242188 117.070312 14.527344 116.09375 15.789062 116.117188 C 17.253906 116.148438 18.367188 117.246094 18.371094 118.707031 Z M 18.371094 118.707031 " fill-opacity="1" fill-rule="nonzero"/><path fill="#0f2553" d="M 37.125 136.742188 C 38.332031 136.691406 39.644531 137.648438 39.6875 139.261719 C 39.726562 140.75 38.5 141.933594 37.046875 141.878906 C 35.445312 141.820312 34.519531 140.519531 34.542969 139.292969 C 34.570312 137.816406 35.640625 136.734375 37.125 136.742188 Z M 37.125 136.742188 " fill-opacity="1" fill-rule="nonzero"/><path fill="#0f2553" d="M 6.949219 102.714844 C 8.335938 102.722656 9.503906 103.882812 9.503906 105.265625 C 9.503906 106.5 8.578125 107.8125 6.957031 107.808594 C 5.488281 107.804688 4.417969 106.75 4.410156 105.269531 C 4.40625 103.648438 5.714844 102.730469 6.949219 102.714844 Z M 6.949219 102.714844 " fill-opacity="1" fill-rule="nonzero"/><path fill="#0f2553" d="M 45.835938 142.863281 C 45.875 144.105469 44.867188 145.363281 43.300781 145.40625 C 41.914062 145.441406 40.8125 144.257812 40.78125 142.847656 C 40.75 141.429688 41.917969 140.332031 43.308594 140.308594 C 44.675781 140.28125 45.835938 141.476562 45.835938 142.863281 Z M 45.835938 142.863281 " fill-opacity="1" fill-rule="nonzero"/><path fill="#0f2553" d="M 19.519531 122.253906 C 19.519531 120.886719 20.640625 119.707031 21.980469 119.730469 C 23.527344 119.757812 24.5625 120.890625 24.554688 122.316406 C 24.546875 123.652344 23.378906 124.816406 22.042969 124.804688 C 20.675781 124.792969 19.464844 123.644531 19.519531 122.253906 Z M 19.519531 122.253906 " fill-opacity="1" fill-rule="nonzero"/><path fill="#0f2553" d="M 47.039062 146.425781 C 47.042969 145.035156 48.128906 143.953125 49.523438 143.953125 C 51.191406 143.953125 52.074219 145.300781 52.058594 146.476562 C 52.042969 147.863281 50.851562 149.019531 49.46875 148.972656 C 48.183594 148.925781 47.027344 147.9375 47.039062 146.425781 Z M 47.039062 146.425781 " fill-opacity="1" fill-rule="nonzero"/><path fill="#0f2553" d="M 30.660156 125.820312 C 30.71875 127.347656 29.4375 128.335938 28.226562 128.332031 C 27.089844 128.328125 25.816406 127.496094 25.773438 125.910156 C 25.738281 124.554688 26.855469 123.390625 28.222656 123.390625 C 29.546875 123.394531 30.703125 124.488281 30.660156 125.820312 Z M 30.660156 125.820312 " fill-opacity="1" fill-rule="nonzero"/><path fill="#0f2553" d="M 15.617188 108.863281 C 15.632812 110.179688 14.644531 111.316406 13.132812 111.320312 C 11.816406 111.324219 10.703125 110.152344 10.746094 108.832031 C 10.789062 107.371094 11.910156 106.390625 13.203125 106.425781 C 14.773438 106.464844 15.652344 107.644531 15.617188 108.863281 Z M 15.617188 108.863281 " fill-opacity="1" fill-rule="nonzero"/><path fill="#0f2553" d="M 1.917969 95.460938 C 1.855469 94.1875 2.984375 93.039062 4.351562 93.070312 C 5.566406 93.097656 6.703125 93.964844 6.734375 95.453125 C 6.761719 96.804688 5.707031 97.898438 4.316406 97.894531 C 2.960938 97.894531 1.878906 96.859375 1.917969 95.460938 Z M 1.917969 95.460938 " fill-opacity="1" fill-rule="nonzero"/><path fill="#0f2553" d="M 34.496094 131.867188 C 33.191406 131.890625 32.070312 130.832031 32.050781 129.511719 C 32.03125 128.28125 32.972656 127.082031 34.398438 127.058594 C 35.910156 127.035156 36.851562 128.15625 36.867188 129.453125 C 36.882812 130.78125 35.824219 131.847656 34.496094 131.867188 Z M 34.496094 131.867188 " fill-opacity="1" fill-rule="nonzero"/><path fill="#0f2553" d="M 21.765625 112.5 C 21.746094 113.742188 20.621094 114.867188 19.390625 114.839844 C 17.886719 114.808594 17.003906 113.585938 17.015625 112.433594 C 17.023438 111.148438 18.203125 110.039062 19.464844 110.089844 C 20.71875 110.136719 21.785156 111.253906 21.765625 112.5 Z M 21.765625 112.5 " fill-opacity="1" fill-rule="nonzero"/><path fill="#0f2553" d="M 40.679688 135.398438 C 39.550781 135.441406 38.320312 134.5625 38.304688 133.019531 C 38.292969 131.753906 39.40625 130.707031 40.675781 130.699219 C 41.640625 130.691406 43.007812 131.535156 43.003906 133.058594 C 43.003906 134.347656 41.976562 135.394531 40.679688 135.398438 Z M 40.679688 135.398438 " fill-opacity="1" fill-rule="nonzero"/><path fill="#0f2553" d="M 12.875 99.097656 C 12.855469 100.375 11.789062 101.425781 10.511719 101.394531 C 9.136719 101.359375 8.207031 100.207031 8.21875 99.015625 C 8.234375 97.777344 9.300781 96.773438 10.550781 96.765625 C 12.035156 96.757812 12.910156 98.078125 12.875 99.097656 Z M 12.875 99.097656 " fill-opacity="1" fill-rule="nonzero"/><path fill="#0f2553" d="M 46.871094 138.933594 C 45.578125 138.921875 44.617188 137.941406 44.625 136.636719 C 44.628906 135.332031 45.609375 134.355469 46.894531 134.363281 C 48.214844 134.371094 49.214844 135.390625 49.199219 136.710938 C 49.179688 137.992188 48.183594 138.949219 46.871094 138.933594 Z M 46.871094 138.933594 " fill-opacity="1" fill-rule="nonzero"/><path fill="#0f2553" d="M 23.355469 116.050781 C 23.292969 114.867188 24.351562 113.78125 25.648438 113.769531 C 26.882812 113.753906 27.925781 114.835938 27.917969 116.085938 C 27.90625 117.390625 26.878906 118.339844 25.613281 118.359375 C 24.351562 118.382812 23.359375 117.332031 23.355469 116.050781 Z M 23.355469 116.050781 " fill-opacity="1" fill-rule="nonzero"/><path fill="#0f2553" d="M 53.101562 137.976562 C 54.488281 138.023438 55.355469 139.074219 55.386719 140.285156 C 55.417969 141.453125 54.316406 142.566406 53.144531 142.542969 C 51.859375 142.519531 50.808594 141.570312 50.824219 140.195312 C 50.835938 138.980469 51.890625 137.96875 53.101562 137.976562 Z M 53.101562 137.976562 " fill-opacity="1" fill-rule="nonzero"/><g clip-path="url(#cdda243e55)"><path fill="#0f2553" d="M 39.722656 149.949219 C 39.03125 149.949219 38.339844 149.960938 37.648438 149.941406 C 37.144531 149.929688 37.007812 149.777344 36.96875 149.261719 C 36.871094 147.925781 37.804688 146.6875 39.128906 146.40625 C 40.484375 146.121094 41.84375 146.890625 42.296875 148.207031 C 42.433594 148.613281 42.515625 149.03125 42.421875 149.460938 C 42.355469 149.773438 42.207031 149.925781 41.871094 149.933594 C 41.15625 149.949219 40.4375 149.9375 39.722656 149.9375 C 39.722656 149.941406 39.722656 149.941406 39.722656 149.945312 Z M 39.722656 149.949219 " fill-opacity="1" fill-rule="nonzero"/></g><path fill="#0f2553" d="M 57.101562 143.886719 C 57.039062 142.785156 57.90625 141.628906 59.269531 141.59375 C 60.582031 141.5625 61.582031 142.53125 61.609375 143.902344 C 61.632812 145.09375 60.554688 146.109375 59.332031 146.109375 C 58.082031 146.109375 57.117188 145.148438 57.101562 143.886719 Z M 57.101562 143.886719 " fill-opacity="1" fill-rule="nonzero"/><g clip-path="url(#8b253f5bbd)"><path fill="#0f2553" d="M 63.296875 147.433594 C 63.292969 146.222656 64.300781 145.195312 65.515625 145.175781 C 66.730469 145.160156 67.742188 146.164062 67.753906 147.394531 C 67.765625 148.644531 66.800781 149.628906 65.554688 149.636719 C 64.324219 149.640625 63.300781 148.648438 63.296875 147.433594 Z M 63.296875 147.433594 " fill-opacity="1" fill-rule="nonzero"/></g><path fill="#0f2553" d="M 16.808594 104.863281 C 15.542969 104.867188 14.566406 103.898438 14.574219 102.648438 C 14.582031 101.433594 15.542969 100.46875 16.761719 100.457031 C 18.011719 100.445312 18.980469 101.417969 18.980469 102.6875 C 18.980469 103.925781 18.050781 104.859375 16.8125 104.863281 Z M 16.808594 104.863281 " fill-opacity="1" fill-rule="nonzero"/><path fill="#0f2553" d="M 10.128906 89.320312 C 10.105469 90.511719 9.011719 91.546875 7.828125 91.492188 C 6.660156 91.441406 5.65625 90.375 5.695312 89.238281 C 5.734375 88.054688 6.757812 87.027344 7.914062 87.066406 C 9.238281 87.109375 10.09375 88.105469 10.128906 89.320312 Z M 10.128906 89.320312 " fill-opacity="1" fill-rule="nonzero"/><path fill="#0f2553" d="M 34.015625 119.707031 C 34.070312 120.761719 33.117188 121.867188 31.816406 121.894531 C 30.625 121.921875 29.585938 120.828125 29.613281 119.617188 C 29.640625 118.445312 30.675781 117.414062 31.832031 117.4375 C 32.964844 117.464844 34.058594 118.332031 34.015625 119.707031 Z M 34.015625 119.707031 " fill-opacity="1" fill-rule="nonzero"/><path fill="#0f2553" d="M 0.160156 85.617188 C 0.160156 85.246094 0.171875 84.875 0.15625 84.503906 C 0.136719 84.035156 0.367188 83.761719 0.773438 83.585938 C 1.671875 83.203125 2.496094 83.34375 3.230469 83.957031 C 4.058594 84.652344 4.242188 85.9375 3.667969 86.859375 C 3.054688 87.847656 1.851562 88.230469 0.820312 87.78125 C 0.386719 87.59375 0.117188 87.328125 0.152344 86.816406 C 0.179688 86.417969 0.160156 86.019531 0.160156 85.617188 Z M 0.160156 85.617188 " fill-opacity="1" fill-rule="nonzero"/><path fill="#0f2553" d="M 40.222656 123.277344 C 40.203125 124.425781 39.292969 125.410156 38.066406 125.417969 C 36.914062 125.425781 35.925781 124.554688 35.910156 123.289062 C 35.894531 122.035156 36.929688 121.085938 38.097656 121.105469 C 39.257812 121.125 40.226562 122.125 40.222656 123.277344 Z M 40.222656 123.277344 " fill-opacity="1" fill-rule="nonzero"/><path fill="#0f2553" d="M 23.011719 108.375 C 21.816406 108.382812 20.859375 107.449219 20.851562 106.269531 C 20.839844 105.164062 21.808594 104.167969 22.921875 104.144531 C 24.074219 104.121094 25.128906 105.089844 25.117188 106.226562 C 25.105469 107.351562 24.328125 108.359375 23.011719 108.375 Z M 23.011719 108.375 " fill-opacity="1" fill-rule="nonzero"/><path fill="#0f2553" d="M 44.285156 124.765625 C 45.429688 124.773438 46.351562 125.699219 46.359375 126.851562 C 46.371094 128.007812 45.375 129.023438 44.230469 128.96875 C 42.925781 128.910156 42.144531 127.976562 42.152344 126.792969 C 42.164062 125.683594 43.074219 124.75 44.285156 124.765625 Z M 44.285156 124.765625 " fill-opacity="1" fill-rule="nonzero"/><path fill="#0f2553" d="M 5.296875 81.511719 C 4.253906 81.5625 3.21875 80.625 3.222656 79.417969 C 3.226562 78.296875 4.199219 77.332031 5.332031 77.339844 C 6.429688 77.34375 7.433594 78.359375 7.417969 79.460938 C 7.410156 80.390625 6.613281 81.566406 5.296875 81.511719 Z M 5.296875 81.511719 " fill-opacity="1" fill-rule="nonzero"/><path fill="#0f2553" d="M 14.136719 94.917969 C 13.015625 94.914062 12.058594 93.949219 12.058594 92.824219 C 12.058594 91.738281 13.074219 90.726562 14.160156 90.742188 C 15.289062 90.757812 16.242188 91.722656 16.230469 92.84375 C 16.222656 93.972656 15.265625 94.917969 14.136719 94.914062 Z M 14.136719 94.917969 " fill-opacity="1" fill-rule="nonzero"/><path fill="#0f2553" d="M 0.164062 101.710938 C 0.164062 101.050781 0.152344 100.386719 0.167969 99.722656 C 0.179688 99.265625 0.355469 99.101562 0.8125 99.121094 C 2.589844 99.183594 3.679688 100.859375 3.253906 102.386719 C 2.949219 103.460938 1.992188 104.242188 0.878906 104.3125 C 0.796875 104.316406 0.71875 104.316406 0.640625 104.308594 C 0.359375 104.28125 0.199219 104.136719 0.175781 103.859375 C 0.152344 103.621094 0.160156 103.382812 0.15625 103.144531 C 0.15625 102.667969 0.15625 102.1875 0.15625 101.710938 Z M 0.164062 101.710938 " fill-opacity="1" fill-rule="nonzero"/><path fill="#0f2553" d="M 52.550781 130.417969 C 52.550781 131.523438 51.628906 132.476562 50.539062 132.492188 C 49.375 132.503906 48.449219 131.503906 48.453125 130.414062 C 48.457031 129.257812 49.40625 128.347656 50.546875 128.351562 C 51.648438 128.351562 52.554688 129.308594 52.550781 130.421875 Z M 52.550781 130.417969 " fill-opacity="1" fill-rule="nonzero"/><path fill="#0f2553" d="M 31.269531 109.832031 C 31.273438 110.9375 30.335938 111.875 29.230469 111.871094 C 28.121094 111.871094 27.199219 110.945312 27.199219 109.828125 C 27.203125 108.671875 28.066406 107.808594 29.222656 107.804688 C 30.335938 107.800781 31.265625 108.71875 31.269531 109.832031 Z M 31.269531 109.832031 " fill-opacity="1" fill-rule="nonzero"/><path fill="#0f2553" d="M 56.652344 136.035156 C 55.683594 136.035156 54.644531 135.222656 54.699219 133.949219 C 54.753906 132.640625 55.785156 132.003906 56.714844 131.988281 C 57.804688 131.972656 58.785156 132.960938 58.734375 134.042969 C 58.671875 135.25 57.761719 136.054688 56.652344 136.035156 Z M 56.652344 136.035156 " fill-opacity="1" fill-rule="nonzero"/><path fill="#0f2553" d="M 62.929688 135.640625 C 64.042969 135.636719 64.90625 136.484375 64.917969 137.585938 C 64.929688 138.714844 64.035156 139.613281 62.902344 139.597656 C 61.804688 139.585938 60.957031 138.71875 60.957031 137.605469 C 60.960938 136.507812 61.828125 135.640625 62.929688 135.640625 Z M 62.929688 135.640625 " fill-opacity="1" fill-rule="nonzero"/><path fill="#0f2553" d="M 35.417969 111.476562 C 36.554688 111.476562 37.378906 112.304688 37.375 113.445312 C 37.371094 114.558594 36.496094 115.414062 35.382812 115.398438 C 34.316406 115.378906 33.464844 114.523438 33.453125 113.457031 C 33.441406 112.34375 34.304688 111.476562 35.417969 111.476562 Z M 35.417969 111.476562 " fill-opacity="1" fill-rule="nonzero"/><path fill="#0f2553" d="M 77.34375 144.808594 C 77.347656 145.863281 76.472656 146.800781 75.359375 146.769531 C 74.222656 146.742188 73.410156 145.921875 73.421875 144.777344 C 73.4375 143.699219 74.277344 142.859375 75.355469 142.84375 C 76.453125 142.832031 77.34375 143.707031 77.34375 144.808594 Z M 77.34375 144.808594 " fill-opacity="1" fill-rule="nonzero"/><path fill="#0f2553" d="M 18.398438 96.464844 C 18.339844 95.425781 19.195312 94.488281 20.34375 94.453125 C 21.410156 94.421875 22.316406 95.351562 22.320312 96.445312 C 22.324219 97.476562 21.4375 98.402344 20.402344 98.414062 C 19.496094 98.425781 18.414062 97.78125 18.398438 96.464844 Z M 18.398438 96.464844 " fill-opacity="1" fill-rule="nonzero"/><path fill="#0f2553" d="M 2.679688 67.671875 C 3.90625 67.699219 4.671875 68.675781 4.648438 69.667969 C 4.617188 70.816406 3.667969 71.640625 2.625 71.597656 C 1.25 71.546875 0.671875 70.417969 0.691406 69.574219 C 0.71875 68.535156 1.644531 67.660156 2.679688 67.671875 Z M 2.679688 67.671875 " fill-opacity="1" fill-rule="nonzero"/><path fill="#0f2553" d="M 71.105469 141.21875 C 71.113281 142.253906 70.234375 143.179688 69.195312 143.199219 C 68.304688 143.214844 67.222656 142.585938 67.179688 141.257812 C 67.144531 140.210938 67.976562 139.28125 69.121094 139.238281 C 70.1875 139.195312 71.097656 140.125 71.105469 141.21875 Z M 71.105469 141.21875 " fill-opacity="1" fill-rule="nonzero"/><path fill="#0f2553" d="M 13.484375 83.011719 C 13.507812 84.019531 12.613281 84.953125 11.582031 85 C 10.511719 85.046875 9.585938 84.167969 9.550781 83.070312 C 9.519531 82.039062 10.390625 81.125 11.441406 81.097656 C 12.519531 81.066406 13.460938 81.945312 13.484375 83.011719 Z M 13.484375 83.011719 " fill-opacity="1" fill-rule="nonzero"/><g clip-path="url(#af846fad41)"><path fill="#0f2553" d="M 13.808594 149.953125 C 13.066406 149.953125 12.320312 149.953125 11.578125 149.949219 C 11.394531 149.949219 11.203125 149.933594 11.027344 149.894531 C 10.921875 149.871094 10.84375 149.765625 10.871094 149.648438 C 10.902344 149.496094 10.945312 149.339844 11.015625 149.199219 C 11.949219 147.386719 14.332031 146.90625 15.917969 148.21875 C 16.308594 148.542969 16.636719 148.921875 16.839844 149.402344 C 16.976562 149.734375 16.871094 149.925781 16.515625 149.9375 C 16.039062 149.957031 15.5625 149.949219 15.082031 149.953125 C 14.660156 149.953125 14.234375 149.953125 13.808594 149.953125 Z M 13.808594 149.953125 " fill-opacity="1" fill-rule="nonzero"/></g><g clip-path="url(#e6d3943e11)"><path fill="#0f2553" d="M 81.535156 149.945312 C 81.269531 149.945312 81.007812 149.941406 80.742188 149.945312 C 80.386719 149.953125 80.144531 149.78125 79.949219 149.5 C 79.335938 148.609375 79.59375 147.386719 80.523438 146.777344 C 81.433594 146.179688 82.695312 146.457031 83.238281 147.382812 C 83.652344 148.089844 83.628906 148.796875 83.199219 149.488281 C 83.019531 149.777344 82.765625 149.949219 82.414062 149.945312 C 82.121094 149.941406 81.828125 149.945312 81.539062 149.945312 Z M 81.535156 149.945312 " fill-opacity="1" fill-rule="nonzero"/></g><path fill="#0f2553" d="M 41.632812 118.914062 C 40.621094 118.902344 39.753906 118.003906 39.777344 116.992188 C 39.796875 115.9375 40.628906 115.148438 41.699219 115.160156 C 42.707031 115.167969 43.566406 115.992188 43.554688 116.980469 C 43.546875 117.941406 42.871094 118.902344 41.632812 118.914062 Z M 41.632812 118.914062 " fill-opacity="1" fill-rule="nonzero"/><path fill="#0f2553" d="M 26.5625 98.171875 C 27.605469 98.15625 28.449219 98.984375 28.445312 100.027344 C 28.441406 101.074219 27.679688 101.867188 26.570312 101.910156 C 25.632812 101.945312 24.691406 101.015625 24.707031 100.078125 C 24.730469 99.007812 25.476562 98.195312 26.5625 98.171875 Z M 26.5625 98.171875 " fill-opacity="1" fill-rule="nonzero"/><path fill="#0f2553" d="M 8.949219 75.089844 C 7.910156 75.109375 7.066406 74.277344 7.0625 73.238281 C 7.0625 72.25 7.902344 71.390625 8.875 71.382812 C 9.878906 71.371094 10.761719 72.234375 10.773438 73.246094 C 10.789062 74.210938 9.9375 75.070312 8.949219 75.089844 Z M 8.949219 75.089844 " fill-opacity="1" fill-rule="nonzero"/><path fill="#0f2553" d="M 17.734375 88.484375 C 16.769531 88.480469 15.886719 87.582031 15.902344 86.625 C 15.921875 85.628906 16.785156 84.789062 17.761719 84.800781 C 18.75 84.8125 19.59375 85.671875 19.585938 86.65625 C 19.582031 87.632812 18.714844 88.488281 17.730469 88.484375 Z M 17.734375 88.484375 " fill-opacity="1" fill-rule="nonzero"/><path fill="#0f2553" d="M 0.15625 117.65625 C 0.15625 117.015625 0.15625 116.375 0.160156 115.738281 C 0.160156 115.550781 0.171875 115.363281 0.199219 115.179688 C 0.222656 115.007812 0.375 114.90625 0.546875 114.9375 C 0.652344 114.957031 0.757812 114.984375 0.855469 115.023438 C 1.910156 115.433594 2.632812 116.480469 2.652344 117.628906 C 2.671875 118.835938 1.992188 119.914062 0.925781 120.367188 C 0.828125 120.40625 0.722656 120.4375 0.621094 120.460938 C 0.375 120.515625 0.199219 120.398438 0.183594 120.132812 C 0.160156 119.652344 0.164062 119.175781 0.160156 118.695312 C 0.15625 118.347656 0.160156 118 0.160156 117.65625 Z M 0.15625 117.65625 " fill-opacity="1" fill-rule="nonzero"/><path fill="#0f2553" d="M 47.859375 118.804688 C 48.878906 118.800781 49.675781 119.597656 49.679688 120.625 C 49.683594 121.628906 48.863281 122.449219 47.855469 122.441406 C 46.828125 122.4375 46.03125 121.640625 46.039062 120.621094 C 46.042969 119.585938 46.824219 118.808594 47.859375 118.800781 Z M 47.859375 118.804688 " fill-opacity="1" fill-rule="nonzero"/><path fill="#0f2553" d="M 54.074219 125.972656 C 53.078125 125.96875 52.3125 125.191406 52.328125 124.199219 C 52.347656 123.234375 53.167969 122.429688 54.125 122.4375 C 55.066406 122.449219 55.910156 123.308594 55.882812 124.238281 C 55.859375 125.210938 55.058594 125.976562 54.074219 125.972656 Z M 54.074219 125.972656 " fill-opacity="1" fill-rule="nonzero"/><path fill="#0f2553" d="M 31.035156 103.632812 C 31.03125 102.597656 31.765625 101.886719 32.800781 101.875 C 33.699219 101.867188 34.539062 102.5625 34.5625 103.675781 C 34.582031 104.574219 33.710938 105.421875 32.8125 105.414062 C 31.820312 105.410156 31.035156 104.625 31.035156 103.632812 Z M 31.035156 103.632812 " fill-opacity="1" fill-rule="nonzero"/><path fill="#0f2553" d="M 8.039062 63.429688 C 8.039062 64.332031 7.21875 65.144531 6.285156 65.164062 C 5.363281 65.1875 4.53125 64.386719 4.511719 63.464844 C 4.488281 62.507812 5.328125 61.601562 6.257812 61.648438 C 7.457031 61.710938 7.964844 62.488281 8.039062 63.429688 Z M 8.039062 63.429688 " fill-opacity="1" fill-rule="nonzero"/><path fill="#0f2553" d="M 62.007812 127.800781 C 62.011719 128.757812 61.246094 129.5625 60.335938 129.566406 C 59.355469 129.570312 58.550781 128.769531 58.566406 127.800781 C 58.578125 126.867188 59.359375 126.089844 60.296875 126.074219 C 61.214844 126.0625 62.003906 126.855469 62.007812 127.800781 Z M 62.007812 127.800781 " fill-opacity="1" fill-rule="nonzero"/><path fill="#0f2553" d="M 89.703125 145.78125 C 89.695312 144.851562 90.417969 144.09375 91.347656 144.070312 C 92.21875 144.046875 93.097656 144.617188 93.132812 145.8125 C 93.15625 146.683594 92.308594 147.523438 91.4375 147.496094 C 90.253906 147.457031 89.714844 146.601562 89.703125 145.78125 Z M 89.703125 145.78125 " fill-opacity="1" fill-rule="nonzero"/><path fill="#0f2553" d="M 22.246094 90.257812 C 22.238281 89.3125 23.019531 88.511719 23.949219 88.507812 C 24.84375 88.503906 25.644531 89.277344 25.667969 90.167969 C 25.691406 91.105469 24.921875 91.933594 23.992188 91.953125 C 23.050781 91.980469 22.253906 91.207031 22.246094 90.257812 Z M 22.246094 90.257812 " fill-opacity="1" fill-rule="nonzero"/><path fill="#0f2553" d="M 68.238281 131.429688 C 68.222656 132.398438 67.453125 133.15625 66.5 133.140625 C 65.582031 133.125 64.78125 132.285156 64.816406 131.367188 C 64.851562 130.414062 65.636719 129.691406 66.609375 129.71875 C 67.546875 129.746094 68.253906 130.488281 68.238281 131.429688 Z M 68.238281 131.429688 " fill-opacity="1" fill-rule="nonzero"/><path fill="#0f2553" d="M 38.996094 105.558594 C 39.957031 105.546875 40.695312 106.246094 40.714844 107.183594 C 40.734375 108.097656 39.988281 108.902344 39.089844 108.933594 C 38.167969 108.964844 37.328125 108.160156 37.316406 107.238281 C 37.308594 106.320312 38.058594 105.570312 38.996094 105.558594 Z M 38.996094 105.558594 " fill-opacity="1" fill-rule="nonzero"/><path fill="#0f2553" d="M 83.5 142.191406 C 83.492188 141.246094 84.210938 140.488281 85.136719 140.46875 C 86.054688 140.453125 86.878906 141.269531 86.875 142.199219 C 86.875 143.089844 86.078125 143.867188 85.167969 143.867188 C 84.222656 143.867188 83.507812 143.148438 83.5 142.191406 Z M 83.5 142.191406 " fill-opacity="1" fill-rule="nonzero"/><path fill="#0f2553" d="M 78.9375 136.90625 C 79.886719 136.894531 80.648438 137.601562 80.675781 138.527344 C 80.707031 139.445312 79.898438 140.273438 78.964844 140.28125 C 78.078125 140.292969 77.289062 139.5 77.28125 138.589844 C 77.269531 137.648438 77.984375 136.921875 78.9375 136.90625 Z M 78.9375 136.90625 " fill-opacity="1" fill-rule="nonzero"/><path fill="#0f2553" d="M 74.4375 135.035156 C 74.417969 135.914062 73.59375 136.691406 72.699219 136.667969 C 71.777344 136.644531 71.039062 135.882812 71.042969 134.960938 C 71.050781 134.066406 71.859375 133.257812 72.734375 133.273438 C 73.675781 133.289062 74.460938 134.097656 74.441406 135.035156 Z M 74.4375 135.035156 " fill-opacity="1" fill-rule="nonzero"/><path fill="#0f2553" d="M 15.09375 78.472656 C 14.148438 78.46875 13.433594 77.746094 13.4375 76.796875 C 13.445312 75.878906 14.203125 75.097656 15.097656 75.09375 C 16.035156 75.09375 16.828125 75.894531 16.816406 76.832031 C 16.800781 77.726562 16.019531 78.472656 15.09375 78.46875 Z M 15.09375 78.472656 " fill-opacity="1" fill-rule="nonzero"/><path fill="#0f2553" d="M 3.601562 55.269531 C 2.683594 55.261719 1.945312 54.5 1.953125 53.574219 C 1.960938 52.679688 2.75 51.917969 3.664062 51.929688 C 4.5625 51.941406 5.351562 52.753906 5.320312 53.628906 C 5.285156 54.539062 4.511719 55.277344 3.601562 55.269531 Z M 3.601562 55.269531 " fill-opacity="1" fill-rule="nonzero"/><g clip-path="url(#ee9752a571)"><path fill="#0f2553" d="M 55.773438 149.953125 C 55.242188 149.953125 54.710938 149.953125 54.183594 149.949219 C 53.996094 149.949219 53.8125 149.9375 53.628906 149.910156 C 53.464844 149.886719 53.355469 149.730469 53.371094 149.566406 C 53.398438 149.296875 53.484375 149.046875 53.625 148.820312 C 54.1875 147.921875 55.007812 147.515625 56.050781 147.644531 C 57.03125 147.765625 57.6875 148.335938 58.039062 149.257812 C 58.050781 149.28125 58.058594 149.308594 58.066406 149.332031 C 58.175781 149.714844 58.058594 149.898438 57.679688 149.933594 C 57.496094 149.953125 57.308594 149.949219 57.121094 149.949219 C 56.671875 149.953125 56.222656 149.949219 55.773438 149.949219 Z M 55.773438 149.953125 " fill-opacity="1" fill-rule="nonzero"/></g><path fill="#0f2553" d="M 45.238281 109.238281 C 46.152344 109.242188 46.828125 109.949219 46.8125 110.875 C 46.792969 111.902344 45.996094 112.445312 45.15625 112.445312 C 44.339844 112.441406 43.558594 111.632812 43.605469 110.828125 C 43.660156 109.796875 44.363281 109.21875 45.238281 109.238281 Z M 45.238281 109.238281 " fill-opacity="1" fill-rule="nonzero"/><path fill="#0f2553" d="M 12.503906 68.585938 C 11.617188 68.59375 10.910156 67.921875 10.890625 67.058594 C 10.875 66.144531 11.574219 65.429688 12.484375 65.425781 C 13.351562 65.425781 14.039062 66.113281 14.050781 67 C 14.0625 67.878906 13.378906 68.578125 12.503906 68.585938 Z M 12.503906 68.585938 " fill-opacity="1" fill-rule="nonzero"/><path fill="#0f2553" d="M 30.183594 95.414062 C 29.3125 95.417969 28.621094 94.734375 28.605469 93.851562 C 28.585938 92.972656 29.265625 92.269531 30.140625 92.253906 C 31.027344 92.238281 31.742188 92.90625 31.761719 93.769531 C 31.789062 94.683594 31.089844 95.40625 30.183594 95.414062 Z M 30.183594 95.414062 " fill-opacity="1" fill-rule="nonzero"/><path fill="#0f2553" d="M 21.347656 78.851562 C 22.230469 78.855469 22.941406 79.5625 22.925781 80.425781 C 22.910156 81.257812 22.210938 81.957031 21.390625 81.964844 C 20.515625 81.976562 19.785156 81.277344 19.777344 80.421875 C 19.769531 79.539062 20.457031 78.851562 21.347656 78.851562 Z M 21.347656 78.851562 " fill-opacity="1" fill-rule="nonzero"/><path fill="#0f2553" d="M 2.011719 133.707031 C 1.992188 134.671875 1.648438 135.429688 1.023438 136.058594 C 0.910156 136.167969 0.777344 136.261719 0.640625 136.34375 C 0.40625 136.484375 0.214844 136.394531 0.179688 136.136719 C 0.171875 136.085938 0.164062 136.03125 0.164062 135.980469 C 0.164062 134.464844 0.160156 132.953125 0.164062 131.4375 C 0.164062 131.335938 0.195312 131.230469 0.230469 131.132812 C 0.261719 131.046875 0.355469 131.015625 0.425781 131.039062 C 0.546875 131.082031 0.675781 131.132812 0.777344 131.210938 C 1.59375 131.871094 1.988281 132.734375 2.011719 133.707031 Z M 2.011719 133.707031 " fill-opacity="1" fill-rule="nonzero"/><path fill="#0f2553" d="M 53 114.433594 C 52.976562 115.246094 52.257812 115.90625 51.414062 115.890625 C 50.59375 115.875 49.914062 115.160156 49.933594 114.332031 C 49.953125 113.519531 50.683594 112.835938 51.507812 112.859375 C 52.308594 112.882812 53.019531 113.636719 53 114.433594 Z M 53 114.433594 " fill-opacity="1" fill-rule="nonzero"/><path fill="#0f2553" d="M 11.390625 57.253906 C 11.363281 58.011719 10.609375 58.738281 9.863281 58.730469 C 9.054688 58.714844 8.34375 57.976562 8.363281 57.160156 C 8.375 56.375 9.09375 55.683594 9.875 55.699219 C 10.695312 55.71875 11.417969 56.457031 11.390625 57.257812 Z M 11.390625 57.253906 " fill-opacity="1" fill-rule="nonzero"/><path fill="#0f2553" d="M 107.46875 148.195312 C 106.660156 148.203125 105.949219 147.527344 105.953125 146.75 C 105.957031 145.945312 106.621094 145.269531 107.421875 145.253906 C 108.230469 145.238281 108.890625 145.878906 108.925781 146.707031 C 108.957031 147.492188 108.277344 148.1875 107.46875 148.195312 Z M 107.46875 148.195312 " fill-opacity="1" fill-rule="nonzero"/><path fill="#0f2553" d="M 56.179688 117.875 C 56.242188 117.078125 56.976562 116.441406 57.761719 116.5 C 58.550781 116.554688 59.167969 117.285156 59.117188 118.09375 C 59.0625 118.902344 58.328125 119.535156 57.542969 119.457031 C 56.707031 119.367188 56.113281 118.679688 56.179688 117.875 Z M 56.179688 117.875 " fill-opacity="1" fill-rule="nonzero"/><path fill="#0f2553" d="M 36.40625 98.882812 C 35.605469 98.882812 34.921875 98.222656 34.902344 97.421875 C 34.882812 96.585938 35.582031 95.894531 36.429688 95.910156 C 37.1875 95.925781 37.835938 96.585938 37.84375 97.363281 C 37.855469 98.171875 37.183594 98.882812 36.40625 98.882812 Z M 36.40625 98.882812 " fill-opacity="1" fill-rule="nonzero"/><path fill="#0f2553" d="M 0.175781 43.757812 C 0.175781 43.441406 0.167969 43.121094 0.179688 42.804688 C 0.1875 42.53125 0.359375 42.375 0.605469 42.296875 C 1.203125 42.101562 1.910156 42.339844 2.308594 42.863281 C 2.730469 43.417969 2.738281 44.144531 2.332031 44.71875 C 1.9375 45.273438 1.277344 45.519531 0.65625 45.34375 C 0.328125 45.253906 0.199219 45.085938 0.164062 44.714844 C 0.160156 44.660156 0.160156 44.605469 0.160156 44.554688 C 0.160156 44.289062 0.160156 44.023438 0.160156 43.757812 C 0.164062 43.757812 0.171875 43.757812 0.175781 43.757812 Z M 0.175781 43.757812 " fill-opacity="1" fill-rule="nonzero"/><path fill="#0f2553" d="M 20.128906 70.582031 C 20.136719 71.371094 19.519531 72.023438 18.753906 72.039062 C 17.945312 72.050781 17.28125 71.390625 17.289062 70.582031 C 17.296875 69.824219 17.972656 69.148438 18.710938 69.15625 C 19.484375 69.164062 20.125 69.804688 20.128906 70.578125 Z M 20.128906 70.582031 " fill-opacity="1" fill-rule="nonzero"/><path fill="#0f2553" d="M 8.667969 47.394531 C 8.652344 48.152344 7.980469 48.816406 7.230469 48.808594 C 6.46875 48.800781 5.804688 48.148438 5.796875 47.394531 C 5.789062 46.609375 6.496094 45.914062 7.277344 45.9375 C 8.03125 45.960938 8.683594 46.640625 8.667969 47.394531 Z M 8.667969 47.394531 " fill-opacity="1" fill-rule="nonzero"/><path fill="#0f2553" d="M 65.332031 121.605469 C 65.324219 122.359375 64.660156 123.015625 63.894531 123.019531 C 63.148438 123.027344 62.472656 122.363281 62.460938 121.605469 C 62.445312 120.820312 63.152344 120.121094 63.929688 120.148438 C 64.6875 120.175781 65.335938 120.851562 65.332031 121.605469 Z M 65.332031 121.605469 " fill-opacity="1" fill-rule="nonzero"/><path fill="#0f2553" d="M 101.15625 144.558594 C 100.382812 144.539062 99.753906 143.867188 99.785156 143.085938 C 99.820312 142.289062 100.457031 141.695312 101.257812 141.71875 C 102.054688 141.742188 102.648438 142.382812 102.621094 143.1875 C 102.59375 143.976562 101.953125 144.574219 101.15625 144.558594 Z M 101.15625 144.558594 " fill-opacity="1" fill-rule="nonzero"/><path fill="#0f2553" d="M 27.546875 85.417969 C 26.792969 85.410156 26.132812 84.738281 26.132812 83.976562 C 26.132812 83.265625 26.792969 82.597656 27.503906 82.582031 C 28.261719 82.570312 28.945312 83.222656 28.964844 83.980469 C 28.984375 84.71875 28.289062 85.425781 27.546875 85.417969 Z M 27.546875 85.417969 " fill-opacity="1" fill-rule="nonzero"/><g clip-path="url(#fcc0ae383b)"><path fill="#0f2553" d="M 97.5625 149.933594 C 97.164062 149.933594 96.765625 149.949219 96.371094 149.929688 C 96.089844 149.914062 95.921875 149.742188 95.917969 149.472656 C 95.90625 148.816406 96.160156 148.285156 96.730469 147.9375 C 97.332031 147.570312 97.945312 147.574219 98.53125 147.960938 C 99.058594 148.308594 99.320312 148.804688 99.265625 149.449219 C 99.238281 149.769531 99.101562 149.917969 98.753906 149.933594 C 98.359375 149.957031 97.960938 149.941406 97.5625 149.941406 Z M 97.5625 149.933594 " fill-opacity="1" fill-rule="nonzero"/></g><path fill="#0f2553" d="M 96.394531 139.558594 C 96.382812 140.355469 95.730469 140.984375 94.949219 140.949219 C 94.230469 140.917969 93.597656 140.246094 93.605469 139.519531 C 93.609375 138.777344 94.246094 138.136719 94.984375 138.128906 C 95.757812 138.117188 96.402344 138.773438 96.394531 139.558594 Z M 96.394531 139.558594 " fill-opacity="1" fill-rule="nonzero"/><path fill="#0f2553" d="M 77.6875 128.804688 C 77.675781 129.585938 77.082031 130.152344 76.292969 130.132812 C 75.523438 130.117188 74.914062 129.488281 74.941406 128.742188 C 74.972656 127.992188 75.613281 127.378906 76.355469 127.390625 C 77.117188 127.40625 77.695312 128.019531 77.683594 128.804688 Z M 77.6875 128.804688 " fill-opacity="1" fill-rule="nonzero"/><path fill="#0f2553" d="M 90.140625 135.960938 C 90.140625 136.738281 89.550781 137.335938 88.78125 137.332031 C 87.996094 137.328125 87.382812 136.738281 87.382812 135.988281 C 87.382812 135.257812 88.011719 134.613281 88.757812 134.589844 C 89.464844 134.5625 90.140625 135.234375 90.140625 135.960938 Z M 90.140625 135.960938 " fill-opacity="1" fill-rule="nonzero"/><path fill="#0f2553" d="M 44.011719 101.027344 C 43.988281 101.777344 43.34375 102.394531 42.601562 102.382812 C 41.808594 102.367188 41.222656 101.714844 41.269531 100.890625 C 41.3125 100.15625 41.90625 99.621094 42.65625 99.640625 C 43.429688 99.65625 44.039062 100.28125 44.011719 101.027344 Z M 44.011719 101.027344 " fill-opacity="1" fill-rule="nonzero"/><path fill="#0f2553" d="M 71.449219 125.1875 C 71.4375 125.96875 70.839844 126.578125 70.089844 126.570312 C 69.359375 126.5625 68.71875 125.925781 68.703125 125.183594 C 68.6875 124.472656 69.363281 123.804688 70.089844 123.8125 C 70.867188 123.816406 71.457031 124.414062 71.449219 125.1875 Z M 71.449219 125.1875 " fill-opacity="1" fill-rule="nonzero"/><path fill="#0f2553" d="M 82.527344 133.75 C 81.820312 133.753906 81.144531 133.066406 81.164062 132.363281 C 81.179688 131.644531 81.851562 131.011719 82.574219 131.023438 C 83.292969 131.035156 83.886719 131.636719 83.886719 132.355469 C 83.890625 133.078125 83.242188 133.746094 82.527344 133.75 Z M 82.527344 133.75 " fill-opacity="1" fill-rule="nonzero"/><path fill="#0f2553" d="M 15.988281 62.117188 C 15.269531 62.074219 14.703125 61.425781 14.761719 60.71875 C 14.824219 60 15.457031 59.464844 16.183594 59.519531 C 16.867188 59.566406 17.398438 60.171875 17.359375 60.863281 C 17.324219 61.589844 16.695312 62.164062 15.988281 62.117188 Z M 15.988281 62.117188 " fill-opacity="1" fill-rule="nonzero"/><path fill="#0f2553" d="M 35.074219 87.589844 C 35.085938 88.265625 34.496094 88.84375 33.792969 88.855469 C 33.105469 88.867188 32.519531 88.300781 32.503906 87.601562 C 32.492188 86.9375 33.09375 86.339844 33.78125 86.332031 C 34.460938 86.324219 35.0625 86.910156 35.074219 87.589844 Z M 35.074219 87.589844 " fill-opacity="1" fill-rule="nonzero"/><path fill="#0f2553" d="M 48.785156 103.332031 C 49.492188 103.320312 50.089844 103.875 50.109375 104.554688 C 50.128906 105.226562 49.539062 105.839844 48.859375 105.855469 C 48.171875 105.871094 47.554688 105.296875 47.542969 104.628906 C 47.53125 103.933594 48.097656 103.339844 48.785156 103.332031 Z M 48.785156 103.332031 " fill-opacity="1" fill-rule="nonzero"/><path fill="#0f2553" d="M 123.476562 146.40625 C 124.15625 146.425781 124.710938 147.023438 124.699219 147.726562 C 124.691406 148.414062 124.097656 148.984375 123.402344 148.972656 C 122.734375 148.960938 122.160156 148.339844 122.175781 147.652344 C 122.191406 146.972656 122.804688 146.386719 123.476562 146.40625 Z M 123.476562 146.40625 " fill-opacity="1" fill-rule="nonzero"/><path fill="#0f2553" d="M 24.894531 75.425781 C 24.199219 75.421875 23.695312 74.917969 23.679688 74.222656 C 23.667969 73.53125 24.242188 72.945312 24.925781 72.957031 C 25.578125 72.964844 26.140625 73.519531 26.152344 74.171875 C 26.167969 74.859375 25.589844 75.433594 24.894531 75.429688 Z M 24.894531 75.425781 " fill-opacity="1" fill-rule="nonzero"/><path fill="#0f2553" d="M 118.449219 144.183594 C 118.429688 144.859375 117.878906 145.363281 117.1875 145.339844 C 116.523438 145.316406 115.980469 144.734375 116.015625 144.082031 C 116.050781 143.417969 116.625 142.890625 117.289062 142.90625 C 117.929688 142.921875 118.472656 143.515625 118.449219 144.183594 Z M 118.449219 144.183594 " fill-opacity="1" fill-rule="nonzero"/><path fill="#0f2553" d="M 13.5 52.199219 C 12.84375 52.21875 12.285156 51.691406 12.242188 51.015625 C 12.203125 50.378906 12.757812 49.789062 13.425781 49.761719 C 14.105469 49.734375 14.640625 50.242188 14.660156 50.9375 C 14.679688 51.621094 14.167969 52.179688 13.5 52.199219 Z M 13.5 52.199219 " fill-opacity="1" fill-rule="nonzero"/><path fill="#0f2553" d="M 0.167969 59.789062 C 0.167969 59.339844 0.152344 58.890625 0.171875 58.441406 C 0.183594 58.09375 0.378906 57.976562 0.703125 58.09375 C 1.835938 58.511719 2.242188 59.960938 1.492188 60.925781 C 1.277344 61.203125 1.015625 61.421875 0.675781 61.53125 C 0.394531 61.621094 0.210938 61.507812 0.175781 61.21875 C 0.167969 61.164062 0.164062 61.113281 0.164062 61.058594 C 0.160156 60.636719 0.164062 60.214844 0.164062 59.789062 C 0.164062 59.789062 0.164062 59.789062 0.167969 59.789062 Z M 0.167969 59.789062 " fill-opacity="1" fill-rule="nonzero"/><path fill="#0f2553" d="M 56.234375 108.195312 C 56.242188 108.84375 55.742188 109.355469 55.097656 109.371094 C 54.425781 109.386719 53.878906 108.855469 53.875 108.1875 C 53.875 107.539062 54.375 107.027344 55.019531 107.011719 C 55.707031 107 56.230469 107.507812 56.234375 108.195312 Z M 56.234375 108.195312 " fill-opacity="1" fill-rule="nonzero"/><g clip-path="url(#271f960109)"><path fill="#0f2553" d="M 140.648438 148.710938 C 140.644531 149.339844 140.09375 149.867188 139.460938 149.859375 C 138.839844 149.851562 138.300781 149.292969 138.3125 148.671875 C 138.324219 148.035156 138.867188 147.507812 139.492188 147.523438 C 140.109375 147.539062 140.65625 148.097656 140.648438 148.714844 Z M 140.648438 148.710938 " fill-opacity="1" fill-rule="nonzero"/></g><g clip-path="url(#7e676cd5e5)"><path fill="#0f2553" d="M 11.992188 41.167969 C 12.007812 41.757812 11.503906 42.285156 10.898438 42.316406 C 10.261719 42.347656 9.699219 41.84375 9.667969 41.210938 C 9.632812 40.605469 10.191406 40.019531 10.808594 40.015625 C 11.445312 40.011719 11.976562 40.53125 11.992188 41.167969 Z M 11.992188 41.167969 " fill-opacity="1" fill-rule="nonzero"/></g><path fill="#0f2553" d="M 41.125 91.203125 C 41.128906 91.785156 40.597656 92.316406 40.003906 92.332031 C 39.371094 92.351562 38.863281 91.820312 38.875 91.15625 C 38.890625 90.542969 39.390625 90.0625 40.011719 90.070312 C 40.597656 90.078125 41.121094 90.613281 41.125 91.203125 Z M 41.125 91.203125 " fill-opacity="1" fill-rule="nonzero"/><path fill="#0f2553" d="M 62.390625 111.769531 C 62.398438 112.386719 61.910156 112.898438 61.292969 112.917969 C 60.695312 112.9375 60.167969 112.429688 60.152344 111.816406 C 60.132812 111.183594 60.605469 110.691406 61.234375 110.679688 C 61.84375 110.671875 62.378906 111.175781 62.390625 111.769531 Z M 62.390625 111.769531 " fill-opacity="1" fill-rule="nonzero"/><path fill="#0f2553" d="M 112.132812 140.570312 C 112.113281 141.167969 111.574219 141.660156 110.964844 141.644531 C 110.335938 141.625 109.871094 141.125 109.898438 140.488281 C 109.925781 139.878906 110.460938 139.378906 111.054688 139.410156 C 111.679688 139.441406 112.15625 139.957031 112.132812 140.570312 Z M 112.132812 140.570312 " fill-opacity="1" fill-rule="nonzero"/><path fill="#0f2553" d="M 21.199219 64.371094 C 21.1875 63.792969 21.730469 63.25 22.3125 63.257812 C 22.894531 63.269531 23.417969 63.808594 23.410156 64.394531 C 23.402344 64.933594 22.878906 65.460938 22.335938 65.46875 C 21.753906 65.476562 21.210938 64.953125 21.199219 64.371094 Z M 21.199219 64.371094 " fill-opacity="1" fill-rule="nonzero"/><path fill="#0f2553" d="M 32.230469 77.816406 C 32.222656 78.40625 31.753906 78.890625 31.175781 78.902344 C 30.5625 78.917969 30.066406 78.417969 30.074219 77.792969 C 30.085938 77.148438 30.578125 76.671875 31.195312 76.707031 C 31.765625 76.738281 32.242188 77.25 32.230469 77.816406 Z M 32.230469 77.816406 " fill-opacity="1" fill-rule="nonzero"/><g clip-path="url(#1fcb1d8167)"><path fill="#0f2553" d="M 29.859375 149.941406 C 29.300781 149.941406 28.742188 149.945312 28.1875 149.941406 C 28.054688 149.9375 27.910156 149.921875 27.875 149.757812 C 27.855469 149.648438 27.929688 149.558594 28.007812 149.484375 C 28.644531 148.929688 29.386719 148.703125 30.21875 148.789062 C 30.757812 148.847656 31.246094 149.046875 31.675781 149.378906 C 31.804688 149.472656 31.957031 149.574219 31.917969 149.753906 C 31.878906 149.953125 31.683594 149.941406 31.53125 149.945312 C 30.972656 149.953125 30.414062 149.945312 29.859375 149.945312 C 29.859375 149.945312 29.859375 149.941406 29.859375 149.941406 Z M 29.859375 149.941406 " fill-opacity="1" fill-rule="nonzero"/></g><path fill="#0f2553" d="M 134.335938 145.070312 C 134.347656 145.652344 133.875 146.140625 133.296875 146.152344 C 132.710938 146.164062 132.210938 145.691406 132.203125 145.117188 C 132.195312 144.558594 132.695312 144.042969 133.257812 144.019531 C 133.824219 144 134.324219 144.488281 134.335938 145.070312 Z M 134.335938 145.070312 " fill-opacity="1" fill-rule="nonzero"/><path fill="#0f2553" d="M 105.863281 136.9375 C 105.863281 137.519531 105.382812 137.996094 104.800781 137.996094 C 104.214844 137.996094 103.726562 137.507812 103.734375 136.9375 C 103.738281 136.375 104.246094 135.871094 104.808594 135.863281 C 105.378906 135.859375 105.863281 136.351562 105.863281 136.9375 Z M 105.863281 136.9375 " fill-opacity="1" fill-rule="nonzero"/><path fill="#0f2553" d="M 66.425781 115.304688 C 66.46875 114.742188 66.996094 114.292969 67.574219 114.332031 C 68.140625 114.363281 68.589844 114.894531 68.542969 115.472656 C 68.496094 116.066406 67.976562 116.519531 67.417969 116.453125 C 66.84375 116.382812 66.382812 115.851562 66.425781 115.304688 Z M 66.425781 115.304688 " fill-opacity="1" fill-rule="nonzero"/><path fill="#0f2553" d="M 73.664062 120.015625 C 73.121094 119.992188 72.65625 119.511719 72.660156 118.96875 C 72.664062 118.421875 73.144531 117.9375 73.679688 117.949219 C 74.246094 117.957031 74.75 118.480469 74.730469 119.042969 C 74.710938 119.585938 74.214844 120.035156 73.664062 120.015625 Z M 73.664062 120.015625 " fill-opacity="1" fill-rule="nonzero"/><path fill="#0f2553" d="M 99.582031 133.371094 C 99.570312 133.929688 99.109375 134.386719 98.5625 134.378906 C 97.988281 134.367188 97.515625 133.855469 97.546875 133.273438 C 97.574219 132.738281 98.078125 132.285156 98.617188 132.308594 C 99.160156 132.332031 99.59375 132.808594 99.582031 133.371094 Z M 99.582031 133.371094 " fill-opacity="1" fill-rule="nonzero"/><path fill="#0f2553" d="M 46.21875 95.796875 C 45.691406 95.800781 45.203125 95.304688 45.222656 94.777344 C 45.238281 94.25 45.734375 93.78125 46.265625 93.796875 C 46.777344 93.808594 47.222656 94.261719 47.222656 94.769531 C 47.222656 95.304688 46.746094 95.792969 46.21875 95.796875 Z M 46.21875 95.796875 " fill-opacity="1" fill-rule="nonzero"/><path fill="#0f2553" d="M 87.109375 126.171875 C 87.097656 126.71875 86.691406 127.121094 86.140625 127.128906 C 85.578125 127.132812 85.117188 126.664062 85.136719 126.113281 C 85.160156 125.59375 85.609375 125.144531 86.117188 125.144531 C 86.667969 125.140625 87.121094 125.609375 87.109375 126.171875 Z M 87.109375 126.171875 " fill-opacity="1" fill-rule="nonzero"/><path fill="#0f2553" d="M 80.914062 122.574219 C 80.898438 123.101562 80.460938 123.535156 79.941406 123.539062 C 79.390625 123.539062 78.90625 123.050781 78.929688 122.515625 C 78.957031 121.960938 79.4375 121.535156 80.003906 121.566406 C 80.546875 121.597656 80.933594 122.023438 80.914062 122.574219 Z M 80.914062 122.574219 " fill-opacity="1" fill-rule="nonzero"/><path fill="#0f2553" d="M 18.683594 54.601562 C 18.664062 54.050781 19.050781 53.625 19.597656 53.59375 C 20.160156 53.558594 20.640625 53.988281 20.667969 54.542969 C 20.691406 55.078125 20.210938 55.566406 19.660156 55.5625 C 19.140625 55.5625 18.703125 55.128906 18.683594 54.601562 Z M 18.683594 54.601562 " fill-opacity="1" fill-rule="nonzero"/><path fill="#0f2553" d="M 92.34375 128.765625 C 92.886719 128.753906 93.3125 129.148438 93.34375 129.683594 C 93.375 130.238281 92.933594 130.722656 92.382812 130.738281 C 91.839844 130.75 91.359375 130.273438 91.371094 129.726562 C 91.386719 129.207031 91.820312 128.777344 92.34375 128.765625 Z M 92.34375 128.765625 " fill-opacity="1" fill-rule="nonzero"/><path fill="#0f2553" d="M 149.300781 145.078125 C 149.839844 145.074219 150.265625 145.472656 150.289062 146.011719 C 150.316406 146.5625 149.867188 147.042969 149.316406 147.050781 C 148.804688 147.058594 148.34375 146.625 148.316406 146.109375 C 148.289062 145.566406 148.746094 145.085938 149.300781 145.078125 Z M 149.300781 145.078125 " fill-opacity="1" fill-rule="nonzero"/><path fill="#0f2553" d="M 127.011719 142.433594 C 126.46875 142.417969 126.054688 141.972656 126.085938 141.445312 C 126.121094 140.9375 126.519531 140.554688 127.027344 140.550781 C 127.539062 140.546875 128.011719 141 128.007812 141.507812 C 128.007812 142.011719 127.539062 142.449219 127.011719 142.433594 Z M 127.011719 142.433594 " fill-opacity="1" fill-rule="nonzero"/><path fill="#0f2553" d="M 37.324219 82.296875 C 36.828125 82.292969 36.410156 81.871094 36.417969 81.375 C 36.425781 80.882812 36.863281 80.46875 37.355469 80.480469 C 37.847656 80.492188 38.285156 80.933594 38.273438 81.40625 C 38.261719 81.890625 37.824219 82.304688 37.324219 82.296875 Z M 37.324219 82.296875 " fill-opacity="1" fill-rule="nonzero"/><g clip-path="url(#cf09f3b84e)"><path fill="#0f2553" d="M 71.746094 149.917969 C 71.296875 149.917969 70.847656 149.925781 70.398438 149.910156 C 70.21875 149.90625 70.148438 149.703125 70.242188 149.554688 C 70.34375 149.394531 70.488281 149.28125 70.644531 149.179688 C 71.445312 148.671875 72.539062 148.777344 73.21875 149.429688 C 73.257812 149.464844 73.285156 149.511719 73.316406 149.554688 C 73.421875 149.691406 73.347656 149.894531 73.175781 149.914062 C 72.964844 149.9375 72.753906 149.945312 72.542969 149.949219 C 72.277344 149.957031 72.011719 149.953125 71.746094 149.953125 C 71.746094 149.941406 71.746094 149.929688 71.746094 149.917969 Z M 71.746094 149.917969 " fill-opacity="1" fill-rule="nonzero"/></g><path fill="#0f2553" d="M 29.363281 67.96875 C 29.371094 68.453125 29 68.839844 28.519531 68.84375 C 28.054688 68.847656 27.652344 68.464844 27.625 68 C 27.59375 67.515625 28.023438 67.074219 28.523438 67.082031 C 28.984375 67.089844 29.359375 67.480469 29.363281 67.96875 Z M 29.363281 67.96875 " fill-opacity="1" fill-rule="nonzero"/><path fill="#0f2553" d="M 16.171875 44.789062 C 16.171875 44.300781 16.535156 43.90625 17 43.890625 C 17.496094 43.878906 17.933594 44.3125 17.910156 44.800781 C 17.890625 45.261719 17.492188 45.648438 17.023438 45.652344 C 16.546875 45.65625 16.171875 45.277344 16.171875 44.789062 Z M 16.171875 44.789062 " fill-opacity="1" fill-rule="nonzero"/><path fill="#0f2553" d="M 52.429688 99.253906 C 51.941406 99.265625 51.554688 98.898438 51.542969 98.421875 C 51.527344 97.929688 51.957031 97.496094 52.449219 97.507812 C 52.902344 97.519531 53.300781 97.929688 53.300781 98.394531 C 53.300781 98.859375 52.914062 99.242188 52.425781 99.253906 Z M 52.429688 99.253906 " fill-opacity="1" fill-rule="nonzero"/><path fill="#0f2553" d="M 0.183594 75.816406 C 0.183594 75.363281 0.171875 74.910156 0.1875 74.460938 C 0.191406 74.273438 0.390625 74.207031 0.535156 74.324219 C 1.109375 74.785156 1.355469 75.671875 1.121094 76.433594 C 1.007812 76.796875 0.84375 77.128906 0.535156 77.371094 C 0.480469 77.414062 0.390625 77.429688 0.320312 77.425781 C 0.230469 77.417969 0.191406 77.332031 0.183594 77.253906 C 0.167969 77.039062 0.160156 76.828125 0.15625 76.617188 C 0.152344 76.347656 0.15625 76.082031 0.15625 75.816406 C 0.164062 75.816406 0.171875 75.816406 0.183594 75.816406 Z M 0.183594 75.816406 " fill-opacity="1" fill-rule="nonzero"/><path fill="#0f2553" d="M 143.105469 141.617188 C 143.554688 141.636719 143.902344 142.011719 143.894531 142.460938 C 143.882812 142.941406 143.46875 143.320312 143 143.28125 C 142.5625 143.246094 142.207031 142.832031 142.246094 142.402344 C 142.28125 141.96875 142.691406 141.597656 143.105469 141.617188 Z M 143.105469 141.617188 " fill-opacity="1" fill-rule="nonzero"/><path fill="#0f2553" d="M 121.65625 137.933594 C 121.644531 138.386719 121.273438 138.742188 120.832031 138.726562 C 120.363281 138.710938 119.976562 138.292969 120.007812 137.828125 C 120.039062 137.390625 120.433594 137.054688 120.886719 137.082031 C 121.339844 137.109375 121.671875 137.476562 121.65625 137.933594 Z M 121.65625 137.933594 " fill-opacity="1" fill-rule="nonzero"/><g clip-path="url(#649a376b34)"><path fill="#0f2553" d="M 0.175781 148.601562 C 0.175781 148.3125 0.171875 148.019531 0.183594 147.730469 C 0.183594 147.667969 0.242188 147.589844 0.292969 147.542969 C 0.363281 147.484375 0.453125 147.527344 0.507812 147.582031 C 1.058594 148.136719 1.277344 148.824219 1.296875 149.585938 C 1.300781 149.753906 1.179688 149.886719 1.003906 149.914062 C 0.851562 149.933594 0.691406 149.933594 0.535156 149.917969 C 0.324219 149.894531 0.199219 149.757812 0.1875 149.550781 C 0.171875 149.234375 0.183594 148.917969 0.183594 148.601562 C 0.179688 148.601562 0.179688 148.601562 0.175781 148.601562 Z M 0.175781 148.601562 " fill-opacity="1" fill-rule="nonzero"/></g><g clip-path="url(#e0415125d4)"><path fill="#0f2553" d="M 113.542969 149.96875 C 113.222656 149.949219 112.90625 149.933594 112.589844 149.902344 C 112.472656 149.890625 112.394531 149.691406 112.449219 149.578125 C 112.480469 149.507812 112.515625 149.433594 112.566406 149.375 C 113.113281 148.753906 114.128906 148.734375 114.695312 149.335938 C 114.746094 149.390625 114.785156 149.464844 114.820312 149.535156 C 114.902344 149.6875 114.820312 149.882812 114.652344 149.902344 C 114.417969 149.933594 114.179688 149.941406 113.941406 149.949219 C 113.808594 149.957031 113.675781 149.953125 113.542969 149.953125 C 113.542969 149.957031 113.542969 149.964844 113.542969 149.96875 Z M 113.542969 149.96875 " fill-opacity="1" fill-rule="nonzero"/></g><path fill="#0f2553" d="M 59.429688 101.933594 C 59.4375 102.359375 59.117188 102.710938 58.710938 102.738281 C 58.277344 102.769531 57.886719 102.402344 57.875 101.960938 C 57.863281 101.550781 58.199219 101.179688 58.601562 101.15625 C 59.042969 101.128906 59.425781 101.488281 59.429688 101.933594 Z M 59.429688 101.933594 " fill-opacity="1" fill-rule="nonzero"/><path fill="#0f2553" d="M 43.570312 84.207031 C 43.960938 84.207031 44.332031 84.574219 44.332031 84.96875 C 44.332031 85.363281 43.964844 85.703125 43.550781 85.695312 C 43.164062 85.6875 42.855469 85.378906 42.84375 84.988281 C 42.832031 84.578125 43.175781 84.207031 43.570312 84.207031 Z M 43.570312 84.207031 " fill-opacity="1" fill-rule="nonzero"/><path fill="#0f2553" d="M 25.933594 57.445312 C 26.320312 57.460938 26.632812 57.789062 26.632812 58.171875 C 26.632812 58.582031 26.269531 58.933594 25.863281 58.910156 C 25.488281 58.890625 25.164062 58.554688 25.160156 58.179688 C 25.160156 57.773438 25.523438 57.425781 25.933594 57.445312 Z M 25.933594 57.445312 " fill-opacity="1" fill-rule="nonzero"/><path fill="#0f2553" d="M 35.425781 71.609375 C 35.410156 71.972656 35.109375 72.257812 34.746094 72.253906 C 34.347656 72.25 34.042969 71.929688 34.054688 71.53125 C 34.066406 71.167969 34.367188 70.878906 34.730469 70.882812 C 35.117188 70.890625 35.4375 71.226562 35.425781 71.609375 Z M 35.425781 71.609375 " fill-opacity="1" fill-rule="nonzero"/><path fill="#0f2553" d="M 114.613281 134.992188 C 114.222656 134.988281 113.902344 134.648438 113.925781 134.269531 C 113.945312 133.914062 114.253906 133.609375 114.597656 133.609375 C 114.972656 133.609375 115.296875 133.953125 115.28125 134.335938 C 115.265625 134.695312 114.960938 134.996094 114.613281 134.992188 Z M 114.613281 134.992188 " fill-opacity="1" fill-rule="nonzero"/><path fill="#0f2553" d="M 65.535156 105.523438 C 65.546875 105.90625 65.214844 106.246094 64.839844 106.238281 C 64.496094 106.234375 64.191406 105.925781 64.175781 105.570312 C 64.164062 105.191406 64.488281 104.855469 64.875 104.859375 C 65.222656 104.859375 65.527344 105.167969 65.535156 105.523438 Z M 65.535156 105.523438 " fill-opacity="1" fill-rule="nonzero"/><path fill="#0f2553" d="M 109.015625 130.671875 C 109.023438 131.003906 108.761719 131.304688 108.441406 131.328125 C 108.085938 131.355469 107.765625 131.042969 107.78125 130.683594 C 107.792969 130.347656 108.066406 130.078125 108.398438 130.070312 C 108.730469 130.0625 109.007812 130.332031 109.015625 130.671875 Z M 109.015625 130.671875 " fill-opacity="1" fill-rule="nonzero"/><path fill="#0f2553" d="M 136.90625 138.226562 C 137.238281 138.238281 137.496094 138.523438 137.484375 138.863281 C 137.476562 139.199219 137.199219 139.480469 136.878906 139.484375 C 136.519531 139.488281 136.21875 139.164062 136.253906 138.804688 C 136.285156 138.476562 136.578125 138.214844 136.902344 138.226562 Z M 136.90625 138.226562 " fill-opacity="1" fill-rule="nonzero"/><path fill="#0f2553" d="M 23.839844 48.375 C 23.847656 48.671875 23.589844 48.941406 23.292969 48.945312 C 22.988281 48.949219 22.71875 48.710938 22.699219 48.414062 C 22.671875 48.082031 22.953125 47.792969 23.285156 47.804688 C 23.585938 47.8125 23.828125 48.066406 23.839844 48.375 Z M 23.839844 48.375 " fill-opacity="1" fill-rule="nonzero"/><path fill="#0f2553" d="M 71.667969 109.15625 C 71.671875 109.453125 71.410156 109.71875 71.113281 109.722656 C 70.808594 109.722656 70.542969 109.480469 70.527344 109.1875 C 70.507812 108.855469 70.789062 108.566406 71.121094 108.582031 C 71.417969 108.59375 71.660156 108.847656 71.667969 109.15625 Z M 71.667969 109.15625 " fill-opacity="1" fill-rule="nonzero"/><path fill="#0f2553" d="M 101.609375 127.128906 C 101.597656 126.828125 101.828125 126.574219 102.128906 126.546875 C 102.429688 126.523438 102.703125 126.746094 102.726562 127.039062 C 102.753906 127.347656 102.484375 127.65625 102.167969 127.671875 C 101.882812 127.683594 101.617188 127.425781 101.609375 127.128906 Z M 101.609375 127.128906 " fill-opacity="1" fill-rule="nonzero"/><path fill="#0f2553" d="M 77.851562 112.707031 C 77.867188 113.007812 77.644531 113.273438 77.347656 113.300781 C 77.03125 113.328125 76.71875 113.050781 76.722656 112.734375 C 76.722656 112.453125 76.984375 112.191406 77.277344 112.175781 C 77.566406 112.164062 77.832031 112.40625 77.851562 112.707031 Z M 77.851562 112.707031 " fill-opacity="1" fill-rule="nonzero"/><path fill="#0f2553" d="M 49.75 88.003906 C 50.046875 87.984375 50.308594 88.214844 50.335938 88.515625 C 50.359375 88.816406 50.136719 89.089844 49.847656 89.125 C 49.535156 89.164062 49.210938 88.882812 49.207031 88.570312 C 49.207031 88.289062 49.460938 88.023438 49.75 88.003906 Z M 49.75 88.003906 " fill-opacity="1" fill-rule="nonzero"/><path fill="#0f2553" d="M 131.128906 135.230469 C 131.136719 135.515625 130.921875 135.746094 130.640625 135.753906 C 130.367188 135.761719 130.128906 135.519531 130.140625 135.246094 C 130.15625 134.976562 130.40625 134.746094 130.675781 134.761719 C 130.921875 134.777344 131.125 134.984375 131.128906 135.230469 Z M 131.128906 135.230469 " fill-opacity="1" fill-rule="nonzero"/><path fill="#0f2553" d="M 90.222656 119.90625 C 90.242188 120.175781 90.015625 120.425781 89.742188 120.441406 C 89.503906 120.453125 89.273438 120.261719 89.242188 120.023438 C 89.203125 119.738281 89.390625 119.496094 89.675781 119.457031 C 89.957031 119.417969 90.203125 119.621094 90.222656 119.90625 Z M 90.222656 119.90625 " fill-opacity="1" fill-rule="nonzero"/><path fill="#0f2553" d="M 32.101562 61.285156 C 32.382812 61.28125 32.605469 61.507812 32.59375 61.785156 C 32.582031 62.058594 32.339844 62.273438 32.066406 62.257812 C 31.832031 62.242188 31.632812 62.035156 31.613281 61.789062 C 31.59375 61.523438 31.824219 61.285156 32.101562 61.285156 Z M 32.101562 61.285156 " fill-opacity="1" fill-rule="nonzero"/><path fill="#0f2553" d="M 96.460938 123.5625 C 96.453125 123.828125 96.207031 124.042969 95.929688 124.023438 C 95.679688 124.003906 95.488281 123.808594 95.480469 123.5625 C 95.46875 123.296875 95.699219 123.054688 95.96875 123.046875 C 96.226562 123.042969 96.464844 123.289062 96.457031 123.5625 Z M 96.460938 123.5625 " fill-opacity="1" fill-rule="nonzero"/><path fill="#0f2553" d="M 84.019531 116.351562 C 84.011719 116.621094 83.753906 116.847656 83.488281 116.816406 C 83.246094 116.789062 83.054688 116.566406 83.0625 116.324219 C 83.070312 116.054688 83.328125 115.824219 83.59375 115.859375 C 83.832031 115.886719 84.027344 116.113281 84.019531 116.351562 Z M 84.019531 116.351562 " fill-opacity="1" fill-rule="nonzero"/><path fill="#0f2553" d="M 56.03125 91.746094 C 56.285156 91.769531 56.457031 91.992188 56.417969 92.234375 C 56.382812 92.449219 56.179688 92.59375 55.960938 92.558594 C 55.753906 92.523438 55.59375 92.324219 55.605469 92.109375 C 55.617188 91.898438 55.816406 91.726562 56.03125 91.746094 Z M 56.03125 91.746094 " fill-opacity="1" fill-rule="nonzero"/><path fill="#0f2553" d="M 124.828125 131.734375 C 124.808594 131.949219 124.613281 132.121094 124.402344 132.101562 C 124.191406 132.085938 124.019531 131.882812 124.035156 131.671875 C 124.050781 131.457031 124.242188 131.292969 124.460938 131.308594 C 124.683594 131.324219 124.847656 131.519531 124.828125 131.734375 Z M 124.828125 131.734375 " fill-opacity="1" fill-rule="nonzero"/><path fill="#0f2553" d="M 40.910156 74.769531 C 41.113281 74.753906 41.316406 74.941406 41.328125 75.152344 C 41.335938 75.335938 41.191406 75.507812 41.007812 75.539062 C 40.796875 75.574219 40.589844 75.417969 40.554688 75.203125 C 40.527344 74.996094 40.695312 74.785156 40.910156 74.769531 Z M 40.910156 74.769531 " fill-opacity="1" fill-rule="nonzero"/><path fill="#0f2553" d="M 146.691406 135.867188 C 146.90625 135.882812 147.070312 136.082031 147.054688 136.300781 C 147.039062 136.480469 146.871094 136.636719 146.6875 136.640625 C 146.476562 136.644531 146.277344 136.457031 146.277344 136.25 C 146.277344 136.042969 146.488281 135.851562 146.691406 135.867188 Z M 146.691406 135.867188 " fill-opacity="1" fill-rule="nonzero"/><path fill="#0f2553" d="M 0.558594 91.746094 C 0.558594 91.894531 0.5625 91.949219 0.558594 92 C 0.539062 92.355469 0.390625 92.660156 0.285156 92.578125 C 0.0898438 92.429688 0.171875 92.195312 0.160156 91.996094 C 0.152344 91.789062 0.160156 91.578125 0.171875 91.367188 C 0.179688 91.273438 0.179688 91.140625 0.324219 91.148438 C 0.445312 91.15625 0.480469 91.277344 0.503906 91.378906 C 0.535156 91.53125 0.550781 91.6875 0.558594 91.746094 Z M 0.558594 91.746094 " fill-opacity="1" fill-rule="nonzero"/><path fill="#0f2553" d="M 93.355469 113.445312 C 93.515625 113.46875 93.636719 113.636719 93.585938 113.785156 C 93.539062 113.921875 93.4375 114 93.289062 113.980469 C 93.144531 113.960938 93.058594 113.871094 93.050781 113.722656 C 93.046875 113.558594 93.195312 113.425781 93.355469 113.445312 Z M 93.355469 113.445312 " fill-opacity="1" fill-rule="nonzero"/><path fill="#0f2553" d="M 27.144531 42.152344 C 27.144531 42.285156 27.003906 42.429688 26.84375 42.398438 C 26.707031 42.375 26.613281 42.289062 26.605469 42.136719 C 26.597656 41.972656 26.746094 41.835938 26.90625 41.859375 C 27.046875 41.882812 27.136719 41.964844 27.144531 42.148438 Z M 27.144531 42.152344 " fill-opacity="1" fill-rule="nonzero"/><path fill="#0f2553" d="M 87.390625 110.109375 C 87.386719 110.269531 87.230469 110.40625 87.078125 110.371094 C 86.9375 110.339844 86.851562 110.246094 86.855469 110.097656 C 86.855469 109.941406 86.945312 109.859375 87.089844 109.832031 C 87.246094 109.804688 87.394531 109.945312 87.390625 110.109375 Z M 87.390625 110.109375 " fill-opacity="1" fill-rule="nonzero"/><path fill="#0f2553" d="M 80.613281 106.535156 C 80.613281 106.398438 80.753906 106.257812 80.914062 106.285156 C 81.050781 106.308594 81.144531 106.398438 81.152344 106.546875 C 81.160156 106.710938 81.011719 106.851562 80.851562 106.824219 C 80.710938 106.800781 80.621094 106.71875 80.613281 106.535156 Z M 80.613281 106.535156 " fill-opacity="1" fill-rule="nonzero"/><path fill="#0f2553" d="M 47.457031 78.769531 C 47.433594 78.921875 47.355469 79.011719 47.203125 79.027344 C 47.042969 79.039062 46.90625 78.894531 46.921875 78.730469 C 46.933594 78.574219 47.101562 78.445312 47.25 78.488281 C 47.386719 78.53125 47.464844 78.625 47.457031 78.769531 Z M 47.457031 78.769531 " fill-opacity="1" fill-rule="nonzero"/><path fill="#0f2553" d="M 105.75 121.179688 C 105.605469 121.15625 105.511719 121.078125 105.5 120.929688 C 105.488281 120.765625 105.632812 120.632812 105.792969 120.644531 C 105.953125 120.660156 106.074219 120.824219 106.039062 120.976562 C 106.011719 121.097656 105.878906 121.191406 105.75 121.179688 Z M 105.75 121.179688 " fill-opacity="1" fill-rule="nonzero"/><path fill="#0f2553" d="M 29.746094 51.890625 C 29.75 52.03125 29.683594 52.132812 29.546875 52.179688 C 29.402344 52.230469 29.222656 52.113281 29.199219 51.960938 C 29.175781 51.804688 29.308594 51.65625 29.472656 51.65625 C 29.625 51.65625 29.707031 51.742188 29.746094 51.890625 Z M 29.746094 51.890625 " fill-opacity="1" fill-rule="nonzero"/><path fill="#0f2553" d="M 134.515625 129.085938 C 134.492188 129.269531 134.328125 129.375 134.171875 129.328125 C 134.027344 129.285156 133.960938 129.179688 133.972656 129.035156 C 133.984375 128.878906 134.167969 128.761719 134.316406 128.8125 C 134.453125 128.855469 134.523438 128.957031 134.515625 129.085938 Z M 134.515625 129.085938 " fill-opacity="1" fill-rule="nonzero"/><path fill="#0f2553" d="M 68.464844 99.085938 C 68.625 99.085938 68.757812 99.234375 68.730469 99.398438 C 68.703125 99.539062 68.617188 99.628906 68.464844 99.628906 C 68.3125 99.628906 68.226562 99.539062 68.199219 99.398438 C 68.167969 99.238281 68.304688 99.085938 68.464844 99.085938 Z M 68.464844 99.085938 " fill-opacity="1" fill-rule="nonzero"/><path fill="#0f2553" d="M 112.269531 124.519531 C 112.253906 124.679688 112.09375 124.8125 111.945312 124.769531 C 111.8125 124.734375 111.722656 124.644531 111.734375 124.488281 C 111.746094 124.332031 111.90625 124.199219 112.058594 124.238281 C 112.191406 124.277344 112.273438 124.367188 112.269531 124.519531 Z M 112.269531 124.519531 " fill-opacity="1" fill-rule="nonzero"/><path fill="#0f2553" d="M 38.597656 65.363281 C 38.578125 65.515625 38.496094 65.601562 38.351562 65.617188 C 38.191406 65.636719 38.058594 65.5 38.066406 65.332031 C 38.070312 65.183594 38.15625 65.097656 38.304688 65.089844 C 38.472656 65.078125 38.605469 65.210938 38.597656 65.363281 Z M 38.597656 65.363281 " fill-opacity="1" fill-rule="nonzero"/><path fill="#0f2553" d="M 35.675781 55.257812 C 35.832031 55.246094 35.976562 55.382812 35.96875 55.542969 C 35.960938 55.691406 35.871094 55.777344 35.726562 55.792969 C 35.570312 55.8125 35.421875 55.671875 35.433594 55.511719 C 35.445312 55.367188 35.535156 55.289062 35.675781 55.257812 Z M 35.675781 55.257812 " fill-opacity="1" fill-rule="nonzero"/><path fill="#0f2553" d="M 62.28125 95.476562 C 62.421875 95.511719 62.503906 95.597656 62.496094 95.746094 C 62.484375 95.914062 62.332031 96.042969 62.179688 96.007812 C 62.046875 95.972656 61.957031 95.882812 61.964844 95.730469 C 61.972656 95.570312 62.121094 95.453125 62.28125 95.476562 Z M 62.28125 95.476562 " fill-opacity="1" fill-rule="nonzero"/><path fill="#0f2553" d="M 53.386719 82.640625 C 53.242188 82.644531 53.140625 82.582031 53.101562 82.4375 C 53.0625 82.28125 53.183594 82.125 53.339844 82.109375 C 53.492188 82.09375 53.585938 82.171875 53.625 82.308594 C 53.671875 82.457031 53.550781 82.617188 53.386719 82.636719 Z M 53.386719 82.640625 " fill-opacity="1" fill-rule="nonzero"/><path fill="#0f2553" d="M 140.742188 132.667969 C 140.730469 132.824219 140.578125 132.964844 140.425781 132.929688 C 140.292969 132.898438 140.203125 132.808594 140.207031 132.65625 C 140.207031 132.496094 140.363281 132.371094 140.519531 132.394531 C 140.644531 132.410156 140.746094 132.539062 140.742188 132.667969 Z M 140.742188 132.667969 " fill-opacity="1" fill-rule="nonzero"/><path fill="#0f2553" d="M 44.8125 68.964844 C 44.789062 69.144531 44.628906 69.265625 44.480469 69.226562 C 44.339844 69.1875 44.261719 69.089844 44.277344 68.941406 C 44.292969 68.78125 44.460938 68.65625 44.605469 68.699219 C 44.738281 68.742188 44.820312 68.835938 44.8125 68.96875 Z M 44.8125 68.964844 " fill-opacity="1" fill-rule="nonzero"/><path fill="#0f2553" d="M 99.574219 117.039062 C 99.730469 117.046875 99.871094 117.203125 99.835938 117.351562 C 99.804688 117.488281 99.714844 117.578125 99.5625 117.574219 C 99.40625 117.570312 99.269531 117.414062 99.300781 117.261719 C 99.332031 117.121094 99.421875 117.039062 99.574219 117.039062 Z M 99.574219 117.039062 " fill-opacity="1" fill-rule="nonzero"/><path fill="#0f2553" d="M 118.21875 127.847656 C 118.398438 127.871094 118.515625 128.023438 118.476562 128.183594 C 118.441406 128.324219 118.339844 128.394531 118.191406 128.378906 C 118.03125 128.363281 117.910156 128.199219 117.953125 128.050781 C 117.996094 127.914062 118.089844 127.839844 118.21875 127.847656 Z M 118.21875 127.847656 " fill-opacity="1" fill-rule="nonzero"/><path fill="#0f2553" d="M 74.972656 102.902344 C 74.984375 103.070312 74.863281 103.210938 74.699219 103.203125 C 74.546875 103.199219 74.460938 103.109375 74.441406 102.96875 C 74.414062 102.8125 74.550781 102.675781 74.714844 102.671875 C 74.855469 102.667969 74.964844 102.765625 74.972656 102.902344 Z M 74.972656 102.902344 " fill-opacity="1" fill-rule="nonzero"/></svg>