<svg xmlns="http://www.w3.org/2000/svg" xmlns:xlink="http://www.w3.org/1999/xlink" width="200" zoomAndPan="magnify" viewBox="0 0 150 149.999998" height="200" preserveAspectRatio="xMidYMid meet" version="1.0"><defs><g/></defs><g fill="#0f2553" fill-opacity="1"><g transform="translate(0.0093827, 67.795047)"><g><path d="M 2.53125 -29 C 2.75 -25.953125 2.828125 -24.5 2.828125 -21.859375 L 2.828125 -7.140625 C 2.828125 -4.5 2.75 -3.046875 2.53125 0 L 6.671875 0 C 6.453125 -3.046875 6.375 -4.5 6.375 -7.140625 L 6.375 -21.859375 C 6.375 -24.5 6.453125 -25.953125 6.671875 -29 Z M 2.53125 -29 "/></g></g></g><g fill="#0f2553" fill-opacity="1"><g transform="translate(9.214499, 67.795047)"><g><path d="M 14.828125 0 L 18.53125 0 C 18.234375 -3.484375 18.234375 -4.828125 18.234375 -7.03125 L 18.234375 -10.984375 C 18.234375 -15.8125 16.390625 -17.828125 12.828125 -17.828125 C 9.359375 -17.828125 7 -15.4375 5.796875 -13.15625 C 5.84375 -14.359375 5.90625 -15.59375 6.046875 -17.109375 L 2.3125 -17.109375 C 2.609375 -14.390625 2.609375 -12.546875 2.609375 -10.296875 L 2.609375 -6.78125 C 2.609375 -4.5625 2.609375 -2.71875 2.3125 0 L 6.046875 0 C 5.765625 -2.71875 5.765625 -4.5625 5.765625 -6.78125 L 5.765625 -12.1875 C 6.921875 -14.46875 8.921875 -16.921875 11.75 -16.921875 C 14.0625 -16.921875 15.109375 -15.21875 15.109375 -11.921875 L 15.109375 -7.03125 C 15.109375 -4.828125 15.109375 -3.484375 14.828125 0 Z M 14.828125 0 "/></g></g></g><g fill="#0f2553" fill-opacity="1"><g transform="translate(30.089085, 67.795047)"><g><path d="M 1.34375 -5.109375 C 2.21875 -1.3125 5.21875 0.71875 9.390625 0.71875 C 13.453125 0.71875 15.953125 -1.265625 15.953125 -4.171875 C 15.953125 -7.28125 13.515625 -8.484375 9.9375 -10.265625 C 6.640625 -11.890625 4.78125 -12.90625 4.78125 -14.796875 C 4.78125 -16.421875 6.125 -17.21875 8.15625 -17.21875 C 10.796875 -17.21875 11.75 -15.84375 12.21875 -14.03125 C 12.6875 -12.28125 14.46875 -12.21875 15.15625 -13.40625 C 13.671875 -16.203125 11.421875 -17.828125 8.125 -17.828125 C 5.296875 -17.828125 2.359375 -16.71875 2.359375 -13.921875 C 2.359375 -11.28125 4.71875 -10.046875 8.078125 -8.296875 C 11.96875 -6.3125 13.40625 -5.515625 13.40625 -3.40625 C 13.40625 -1.40625 12.21875 0.140625 9.5 0.140625 C 6.09375 0.140625 4.5 -2.0625 4.5 -4.234375 C 4.28125 -6.265625 2.21875 -6.5625 1.34375 -5.109375 Z M 1.34375 -5.109375 "/></g></g></g><g fill="#0f2553" fill-opacity="1"><g transform="translate(47.375853, 67.795047)"><g><path d="M 12.71875 -17.828125 C 8.921875 -17.828125 6.671875 -15.546875 5.765625 -12.46875 C 5.796875 -13.890625 5.84375 -15.484375 5.984375 -17.109375 L 2.3125 -17.109375 C 2.609375 -14.140625 2.609375 -12.28125 2.609375 -10.046875 L 2.609375 1.671875 C 2.609375 3.875 2.609375 5.734375 2.3125 8.703125 L 6.046875 8.703125 C 5.765625 5.734375 5.765625 3.875 5.765625 1.671875 L 5.765625 -3.015625 C 7.46875 -0.90625 9.96875 0.71875 12.9375 0.71875 C 17.078125 0.71875 20.984375 -2.609375 20.984375 -8.5625 C 20.984375 -14.46875 17.328125 -17.828125 12.71875 -17.828125 Z M 12.078125 -0.078125 C 9.609375 -0.078125 7.25 -1.8125 5.765625 -3.765625 L 5.765625 -8.984375 C 5.765625 -13.5625 7.9375 -16.921875 11.75 -16.921875 C 15.875 -16.921875 17.515625 -13.15625 17.515625 -8.5625 C 17.515625 -3.375 15.484375 -0.078125 12.078125 -0.078125 Z M 12.078125 -0.078125 "/></g></g></g><g fill="#0f2553" fill-opacity="1"><g transform="translate(70.06247, 67.795047)"><g><path d="M 4.828125 -21.53125 L 7.328125 -23.8125 L 4.828125 -26.09375 L 2.3125 -23.8125 Z M 2.96875 -17.109375 C 3.265625 -14.390625 3.265625 -12.546875 3.265625 -10.296875 L 3.265625 -6.78125 C 3.265625 -4.5625 3.265625 -2.71875 2.96875 0 L 6.703125 0 C 6.421875 -2.71875 6.421875 -4.5625 6.421875 -6.78125 L 6.421875 -10.296875 C 6.421875 -12.546875 6.421875 -14.390625 6.703125 -17.109375 Z M 2.96875 -17.109375 "/></g></g></g><g fill="#0f2553" fill-opacity="1"><g transform="translate(79.702468, 67.795047)"><g><path d="M 14.75 -17.109375 C 10.625 -17.765625 8.515625 -15.59375 5.765625 -12.609375 C 5.796875 -14 5.875 -15.375 6.046875 -17.109375 L 2.3125 -17.109375 C 2.609375 -14.390625 2.609375 -12.546875 2.609375 -10.296875 L 2.609375 -6.78125 C 2.609375 -4.5625 2.609375 -2.71875 2.3125 0 L 6.046875 0 C 5.765625 -2.71875 5.765625 -4.5625 5.765625 -6.78125 L 5.765625 -11.78125 C 9.28125 -15.375 10.515625 -15.59375 12.25 -14.96875 C 14.171875 -14.3125 15.15625 -15.515625 14.75 -17.109375 Z M 14.75 -17.109375 "/></g></g></g><g fill="#0f2553" fill-opacity="1"><g transform="translate(95.430889, 67.795047)"><g><path d="M 19.328125 -6.484375 C 18.15625 -2.53125 15.734375 -0.140625 12.1875 -0.140625 C 7.546875 -0.140625 5.1875 -4.234375 5.1875 -8.765625 C 5.1875 -9.46875 5.21875 -10.15625 5.296875 -10.765625 L 18.921875 -10.765625 C 18.890625 -14.390625 16.015625 -17.828125 10.90625 -17.828125 C 6.015625 -17.828125 1.703125 -14.3125 1.703125 -8.5625 C 1.703125 -2.796875 5.90625 0.71875 11.3125 0.71875 C 15.984375 0.71875 18.671875 -2.140625 19.859375 -6.484375 Z M 10.875 -17.25 C 14.0625 -17.25 15.546875 -14.640625 15.546875 -11.3125 L 5.359375 -11.3125 C 5.984375 -15.078125 7.96875 -17.25 10.875 -17.25 Z M 10.875 -17.25 "/></g></g></g><g fill="#0f2553" fill-opacity="1"><g transform="translate(116.631636, 67.795047)"><g><path d="M 20.65625 0 C 20.078125 -3.21875 20.078125 -4.5625 20.078125 -6.78125 L 20.078125 -29 L 16.53125 -29 C 16.921875 -25.515625 16.921875 -24.171875 16.921875 -21.96875 L 16.921875 -14.0625 C 15.21875 -16.203125 12.71875 -17.828125 9.75 -17.828125 C 5.65625 -17.828125 1.703125 -14.46875 1.703125 -8.5625 C 1.703125 -2.609375 5.359375 0.71875 10 0.71875 C 13.8125 0.71875 16.015625 -1.59375 16.921875 -4.671875 C 16.96875 -3.078125 17 -2.03125 17.25 0 Z M 10.953125 -0.140625 C 6.8125 -0.140625 5.1875 -3.921875 5.1875 -8.5625 C 5.1875 -13.734375 7.21875 -17.03125 10.625 -17.03125 C 13.09375 -17.03125 15.4375 -15.296875 16.921875 -13.34375 L 16.921875 -8.125 C 16.921875 -3.515625 14.75 -0.140625 10.953125 -0.140625 Z M 10.953125 -0.140625 "/></g></g></g><g fill="#0f2553" fill-opacity="1"><g transform="translate(139.614732, 67.795047)"><g/></g></g><g fill="#0f2553" fill-opacity="1"><g transform="translate(0.00000125, 101.418162)"><g><path d="M 27.265625 -17.109375 C 25.984375 -17.25 24.90625 -16.671875 25.375 -15.546875 C 25.8125 -14.578125 27.265625 -13.625 26.171875 -11.125 L 21.828125 -1.09375 L 16.09375 -14.359375 C 15.625 -15.375 15.328125 -16.09375 15.15625 -17.109375 L 11.09375 -17.109375 C 11.75 -16.0625 12.1875 -15.328125 12.65625 -14.28125 L 15.1875 -8.34375 L 12.078125 -1.09375 L 6.3125 -14.359375 C 5.875 -15.375 5.578125 -16.09375 5.40625 -17.109375 L 1.34375 -17.109375 C 2 -16.0625 2.421875 -15.328125 2.859375 -14.28125 L 8.984375 0 L 12.71875 0 C 12.609375 -0.875 12.875 -1.484375 13.296875 -2.5 L 15.515625 -7.578125 L 18.734375 0 L 22.46875 0 C 22.359375 -0.875 22.625 -1.484375 23.0625 -2.5 L 27.046875 -11.640625 C 27.984375 -13.8125 27.734375 -15.765625 27.265625 -17.109375 Z M 27.265625 -17.109375 "/></g></g></g><g fill="#0f2553" fill-opacity="1"><g transform="translate(28.920005, 101.418162)"><g><path d="M 11.8125 0.71875 C 17.71875 0.71875 21.9375 -2.96875 21.9375 -8.5625 C 21.9375 -14.09375 17.71875 -17.828125 11.8125 -17.828125 C 5.90625 -17.828125 1.703125 -14.09375 1.703125 -8.5625 C 1.703125 -2.96875 5.90625 0.71875 11.8125 0.71875 Z M 11.8125 0.140625 C 7.4375 0.140625 5.1875 -3.296875 5.1875 -8.5625 C 5.1875 -13.8125 7.4375 -17.25 11.8125 -17.25 C 16.203125 -17.25 18.453125 -13.8125 18.453125 -8.5625 C 18.453125 -3.296875 16.203125 0.140625 11.8125 0.140625 Z M 11.8125 0.140625 "/></g></g></g><g fill="#0f2553" fill-opacity="1"><g transform="translate(52.54888, 101.418162)"><g><path d="M 14.75 -17.109375 C 10.625 -17.765625 8.515625 -15.59375 5.765625 -12.609375 C 5.796875 -14 5.875 -15.375 6.046875 -17.109375 L 2.3125 -17.109375 C 2.609375 -14.390625 2.609375 -12.546875 2.609375 -10.296875 L 2.609375 -6.78125 C 2.609375 -4.5625 2.609375 -2.71875 2.3125 0 L 6.046875 0 C 5.765625 -2.71875 5.765625 -4.5625 5.765625 -6.78125 L 5.765625 -11.78125 C 9.28125 -15.375 10.515625 -15.59375 12.25 -14.96875 C 14.171875 -14.3125 15.15625 -15.515625 14.75 -17.109375 Z M 14.75 -17.109375 "/></g></g></g><g fill="#0f2553" fill-opacity="1"><g transform="translate(68.277301, 101.418162)"><g><path d="M 20.65625 0 C 20.078125 -3.21875 20.078125 -4.5625 20.078125 -6.78125 L 20.078125 -29 L 16.53125 -29 C 16.921875 -25.515625 16.921875 -24.171875 16.921875 -21.96875 L 16.921875 -14.0625 C 15.21875 -16.203125 12.71875 -17.828125 9.75 -17.828125 C 5.65625 -17.828125 1.703125 -14.46875 1.703125 -8.5625 C 1.703125 -2.609375 5.359375 0.71875 10 0.71875 C 13.8125 0.71875 16.015625 -1.59375 16.921875 -4.671875 C 16.96875 -3.078125 17 -2.03125 17.25 0 Z M 10.953125 -0.140625 C 6.8125 -0.140625 5.1875 -3.921875 5.1875 -8.5625 C 5.1875 -13.734375 7.21875 -17.03125 10.625 -17.03125 C 13.09375 -17.03125 15.4375 -15.296875 16.921875 -13.34375 L 16.921875 -8.125 C 16.921875 -3.515625 14.75 -0.140625 10.953125 -0.140625 Z M 10.953125 -0.140625 "/></g></g></g></svg>