<svg id="visual" viewBox="0 0 900 600" width="900" height="600" xmlns="http://www.w3.org/2000/svg" xmlns:xlink="http://www.w3.org/1999/xlink" version="1.1"><path d="M0 476L15 475.2C30 474.3 60 472.7 90 466.2C120 459.7 150 448.3 180 437.7C210 427 240 417 270 422.5C300 428 330 449 360 458.5C390 468 420 466 450 466.2C480 466.3 510 468.7 540 464.5C570 460.3 600 449.7 630 446.3C660 443 690 447 720 441.3C750 435.7 780 420.3 810 412.2C840 404 870 403 885 402.5L900 402L900 601L885 601C870 601 840 601 810 601C780 601 750 601 720 601C690 601 660 601 630 601C600 601 570 601 540 601C510 601 480 601 450 601C420 601 390 601 360 601C330 601 300 601 270 601C240 601 210 601 180 601C150 601 120 601 90 601C60 601 30 601 15 601L0 601Z" fill="#fd8a8a"></path><path d="M0 508L15 502C30 496 60 484 90 485C120 486 150 500 180 506.3C210 512.7 240 511.3 270 511.3C300 511.3 330 512.7 360 505.2C390 497.7 420 481.3 450 470.2C480 459 510 453 540 460C570 467 600 487 630 494.7C660 502.3 690 497.7 720 487.3C750 477 780 461 810 462.7C840 464.3 870 483.7 885 493.3L900 503L900 601L885 601C870 601 840 601 810 601C780 601 750 601 720 601C690 601 660 601 630 601C600 601 570 601 540 601C510 601 480 601 450 601C420 601 390 601 360 601C330 601 300 601 270 601C240 601 210 601 180 601C150 601 120 601 90 601C60 601 30 601 15 601L0 601Z" fill="#ffaf84"></path><path d="M0 540L15 534.3C30 528.7 60 517.3 90 509.2C120 501 150 496 180 495.3C210 494.7 240 498.3 270 502.2C300 506 330 510 360 516.7C390 523.3 420 532.7 450 533.7C480 534.7 510 527.3 540 526.2C570 525 600 530 630 525.3C660 520.7 690 506.3 720 504C750 501.7 780 511.3 810 514.2C840 517 870 513 885 511L900 509L900 601L885 601C870 601 840 601 810 601C780 601 750 601 720 601C690 601 660 601 630 601C600 601 570 601 540 601C510 601 480 601 450 601C420 601 390 601 360 601C330 601 300 601 270 601C240 601 210 601 180 601C150 601 120 601 90 601C60 601 30 601 15 601L0 601Z" fill="#fbd492"></path><path d="M0 569L15 567.5C30 566 60 563 90 558.3C120 553.7 150 547.3 180 541.8C210 536.3 240 531.7 270 529.3C300 527 330 527 360 529.8C390 532.7 420 538.3 450 543.3C480 548.3 510 552.7 540 554.5C570 556.3 600 555.7 630 553.8C660 552 690 549 720 551C750 553 780 560 810 563.7C840 567.3 870 567.7 885 567.8L900 568L900 601L885 601C870 601 840 601 810 601C780 601 750 601 720 601C690 601 660 601 630 601C600 601 570 601 540 601C510 601 480 601 450 601C420 601 390 601 360 601C330 601 300 601 270 601C240 601 210 601 180 601C150 601 120 601 90 601C60 601 30 601 15 601L0 601Z" fill="#f1f7b5"></path></svg>