<svg xmlns="http://www.w3.org/2000/svg" xmlns:xlink="http://www.w3.org/1999/xlink" width="200" zoomAndPan="magnify" viewBox="0 0 150 149.999998" height="200" preserveAspectRatio="xMidYMid meet" version="1.0"><defs><filter x="0%" y="0%" width="100%" height="100%" id="858d248233"><feColorMatrix values="0 0 0 0 1 0 0 0 0 1 0 0 0 0 1 0 0 0 1 0" color-interpolation-filters="sRGB"/></filter><clipPath id="b6dbb6a79b"><path d="M 70.1875 44.175781 L 150 44.175781 L 150 106.332031 L 70.1875 106.332031 Z M 70.1875 44.175781 " clip-rule="nonzero"/></clipPath><clipPath id="5a21cbd598"><path d="M 107.066406 44.175781 L 150 44.175781 L 113.121094 106.332031 L 70.1875 106.332031 Z M 107.066406 44.175781 " clip-rule="nonzero"/></clipPath><mask id="edf915b89e"><g filter="url(#858d248233)"><rect x="-15" width="180" fill="#000000" y="-15" height="179.999997" fill-opacity="0.8"/></g></mask><clipPath id="3e7aeae86d"><path d="M 0.339844 0.515625 L 63.058594 0.515625 L 63.058594 53.332031 L 0.339844 53.332031 Z M 0.339844 0.515625 " clip-rule="nonzero"/></clipPath><clipPath id="fc52c842b1"><path d="M 31.675781 0.515625 L 63.015625 0.515625 L 31.675781 53.332031 L 0.339844 53.332031 Z M 31.675781 0.515625 " clip-rule="nonzero"/></clipPath><clipPath id="fef708ab96"><rect x="0" width="64" y="0" height="54"/></clipPath><mask id="9848231b7a"><g filter="url(#858d248233)"><rect x="-15" width="180" fill="#000000" y="-15" height="179.999997" fill-opacity="0.6"/></g></mask><clipPath id="4dfaf73e57"><path d="M 0 0.425781 L 47.390625 0.425781 L 47.390625 40.332031 L 0 40.332031 Z M 0 0.425781 " clip-rule="nonzero"/></clipPath><clipPath id="0df77f05f1"><path d="M 23.679688 0.425781 L 47.355469 0.425781 L 23.679688 40.332031 L 0 40.332031 Z M 23.679688 0.425781 " clip-rule="nonzero"/></clipPath><clipPath id="4b7b8a315f"><rect x="0" width="48" y="0" height="41"/></clipPath></defs><g clip-path="url(#b6dbb6a79b)"><g clip-path="url(#5a21cbd598)"><path fill="#eeefef" d="M 70.1875 44.175781 L 150.070312 44.175781 L 150.070312 106.332031 L 70.1875 106.332031 Z M 70.1875 44.175781 " fill-opacity="1" fill-rule="nonzero"/></g></g><g mask="url(#edf915b89e)"><g transform="matrix(1, 0, 0, 1, 31, 53)"><g clip-path="url(#fef708ab96)"><g clip-path="url(#3e7aeae86d)"><g clip-path="url(#fc52c842b1)"><path fill="#eeefef" d="M 0.339844 0.515625 L 63.058594 0.515625 L 63.058594 53.332031 L 0.339844 53.332031 Z M 0.339844 0.515625 " fill-opacity="1" fill-rule="nonzero"/></g></g></g></g></g><g mask="url(#9848231b7a)"><g transform="matrix(1, 0, 0, 1, 0, 66)"><g clip-path="url(#4b7b8a315f)"><g clip-path="url(#4dfaf73e57)"><g clip-path="url(#0df77f05f1)"><path fill="#eeefef" d="M 0 0.425781 L 47.390625 0.425781 L 47.390625 40.332031 L 0 40.332031 Z M 0 0.425781 " fill-opacity="1" fill-rule="nonzero"/></g></g></g></g></g></svg>