<svg xmlns="http://www.w3.org/2000/svg" xmlns:xlink="http://www.w3.org/1999/xlink" width="200" zoomAndPan="magnify" viewBox="0 0 150 149.999998" height="200" preserveAspectRatio="xMidYMid meet" version="1.0"><rect x="-15" width="180" fill="#ffffff" y="-15" height="179.999997" fill-opacity="1"/><rect x="-15" width="180" fill="#ffffff" y="-15" height="179.999997" fill-opacity="1"/><path fill="#eeefef" d="M 3.695312 60.519531 C 4.015625 59.929688 4.816406 59.769531 5.40625 60.089844 C 5.996094 60.464844 6.210938 61.214844 5.835938 61.804688 C 3.53125 65.765625 2.515625 68.816406 2.515625 71.066406 C 2.515625 73.847656 4.230469 75.507812 7.121094 76.363281 C 10.386719 77.328125 15.042969 77.273438 20.503906 76.578125 C 38.492188 74.277344 64.453125 64.695312 76.714844 59.503906 C 78.640625 58.753906 79.765625 59.128906 80.300781 60.414062 C 80.835938 61.695312 79.925781 64.585938 78.210938 68.066406 C 79.070312 67.746094 79.816406 67.585938 80.40625 67.585938 C 81.476562 67.691406 82.171875 68.226562 82.386719 69.351562 C 82.761719 71.117188 82.761719 73.207031 82.441406 75.402344 C 84.101562 74.0625 85.972656 72.777344 88.0625 71.867188 C 91.113281 70.53125 92.773438 71.117188 93.46875 72.777344 C 94.113281 74.222656 93.574219 76.632812 92.613281 79.09375 C 97.589844 77.703125 104.871094 78.507812 113.542969 79.523438 C 123.824219 80.648438 136.136719 82.09375 148.5 80.164062 C 149.195312 80.058594 149.839844 80.539062 149.945312 81.238281 C 150 81.933594 149.570312 82.574219 148.875 82.683594 C 136.1875 84.609375 123.714844 83.21875 113.277344 82.039062 C 103.160156 80.863281 95.074219 79.953125 91.007812 82.519531 C 89.507812 85.304688 87.582031 87.285156 86.9375 87.070312 C 86.882812 87.070312 86.832031 87.019531 86.832031 87.019531 C 86.082031 86.695312 85.867188 85.894531 86.296875 84.609375 C 86.9375 82.949219 87.902344 81.664062 89.1875 80.703125 C 89.238281 80.539062 89.292969 80.378906 89.402344 80.21875 C 90.578125 77.703125 91.648438 74.867188 91.167969 73.796875 C 91.058594 73.527344 90.472656 73.582031 89.078125 74.171875 C 85.921875 75.5625 83.351562 77.703125 81.425781 79.84375 C 80.566406 82.519531 79.390625 84.984375 77.945312 86.695312 C 77.945312 86.695312 77.890625 86.75 77.890625 86.75 C 77.410156 87.339844 76.980469 87.660156 76.605469 87.769531 C 75 88.355469 74.359375 87.554688 74.839844 85.734375 C 74.945312 85.199219 75.269531 84.449219 75.695312 83.59375 C 76.445312 82.199219 77.570312 80.433594 79.175781 78.613281 C 79.230469 78.292969 79.335938 78.023438 79.390625 77.703125 C 80.085938 75.027344 80.351562 72.296875 79.980469 70.15625 C 79.441406 70.207031 78.480469 70.691406 77.355469 71.386719 C 76.925781 71.652344 76.445312 71.976562 75.964844 72.296875 C 75.160156 73.636719 74.359375 75.027344 73.449219 76.363281 C 69.21875 82.894531 64.078125 89.320312 61.5625 90.605469 C 60.226562 91.246094 59.261719 91.085938 58.617188 89.910156 C 57.121094 86.910156 64.078125 78.667969 70.664062 73.152344 C 71.839844 72.191406 73.019531 71.28125 74.144531 70.476562 C 76.714844 66.140625 78.425781 62.445312 77.996094 61.375 C 77.890625 61.214844 77.996094 61.75 77.730469 61.859375 C 65.308594 67.050781 39.078125 76.738281 20.824219 79.09375 C 15.042969 79.84375 10.011719 79.84375 6.425781 78.773438 C 2.410156 77.597656 0 75.1875 0 71.066406 C 0 68.335938 1.125 64.910156 3.695312 60.519531 Z M 60.8125 88.140625 C 62.792969 86.804688 66.433594 82.308594 69.859375 77.273438 C 65.308594 81.34375 61.136719 86.054688 60.8125 88.140625 Z M 60.8125 88.140625 " fill-opacity="1" fill-rule="nonzero"/></svg>