<svg xmlns="http://www.w3.org/2000/svg" xmlns:xlink="http://www.w3.org/1999/xlink" width="200" zoomAndPan="magnify" viewBox="0 0 150 149.999998" height="200" preserveAspectRatio="xMidYMid meet" version="1.0"><defs><clipPath id="a0f3968e93"><path d="M 3 71 L 139 71 L 139 138 L 3 138 Z M 3 71 " clip-rule="nonzero"/></clipPath><clipPath id="df3c8aed33"><path d="M 27.507812 8.882812 L 150.242188 43.417969 L 122.816406 140.882812 L 0.0820312 106.347656 Z M 27.507812 8.882812 " clip-rule="nonzero"/></clipPath><clipPath id="03a8a17d5e"><path d="M 27.507812 8.882812 L 150.242188 43.417969 L 122.816406 140.882812 L 0.0820312 106.347656 Z M 27.507812 8.882812 " clip-rule="nonzero"/></clipPath><clipPath id="e33c8046c8"><path d="M 14 11 L 149 11 L 149 70 L 14 70 Z M 14 11 " clip-rule="nonzero"/></clipPath><clipPath id="9b5e338e2c"><path d="M 27.507812 8.882812 L 150.242188 43.417969 L 122.816406 140.882812 L 0.0820312 106.347656 Z M 27.507812 8.882812 " clip-rule="nonzero"/></clipPath><clipPath id="5c36ba464e"><path d="M 27.507812 8.882812 L 150.242188 43.417969 L 122.816406 140.882812 L 0.0820312 106.347656 Z M 27.507812 8.882812 " clip-rule="nonzero"/></clipPath></defs><g clip-path="url(#a0f3968e93)"><g clip-path="url(#df3c8aed33)"><g clip-path="url(#03a8a17d5e)"><path fill="#eeefef" d="M 43.332031 80.566406 C 43.769531 79.648438 44.167969 78.328125 43.6875 77.722656 C 43.03125 76.914062 41.738281 76.601562 40.253906 76.496094 C 38.882812 76.371094 33.664062 76.3125 32.460938 76.335938 C 30.890625 76.363281 29.472656 76.589844 28.558594 77.242188 C 27.929688 77.71875 27.859375 78.792969 27.972656 79.605469 C 30.828125 89.082031 20.242188 97.175781 21.125 106.621094 C 21.503906 110.738281 26.507812 113.136719 29.152344 110.023438 C 31.824219 105.4375 29.082031 90.46875 34.019531 88.757812 C 38.089844 92.066406 30.695312 105.378906 31.4375 110.617188 C 32.742188 114.863281 38.011719 115.304688 40.011719 111.335938 C 44.867188 101.578125 36.957031 89.792969 43.332031 80.566406 Z M 35.695312 83.8125 C 35.394531 83.492188 35.046875 83.523438 34.871094 83.5 C 34.695312 83.476562 34.359375 83.382812 33.972656 83.640625 C 33.273438 84.09375 33.550781 82.554688 33.925781 81.488281 C 34.144531 80.898438 34.59375 80.609375 34.941406 80.472656 C 35.207031 80.367188 35.34375 80.351562 35.414062 80.371094 C 35.492188 80.367188 35.589844 80.394531 35.8125 80.535156 C 36.128906 80.703125 36.5 81.042969 36.5 81.691406 C 36.472656 82.804688 36.234375 84.40625 35.695312 83.8125 Z M 85.179688 78.667969 C 85.835938 77.261719 86.5625 75.226562 86.1875 74.339844 C 85.664062 73.148438 84.367188 72.757812 82.914062 72.742188 C 81.554688 72.75 75.421875 73.8125 73.898438 74.136719 C 71.933594 74.546875 70.050781 75.21875 68.785156 76.476562 C 67.894531 77.320312 67.660156 79 67.671875 80.148438 C 70.300781 92.664062 56.820312 102.882812 57.082031 115.382812 C 57.175781 119.863281 61.667969 123.992188 65.070312 119.117188 C 68.175781 113.917969 68.667969 107.625 69.582031 101.785156 C 70.074219 98.644531 69.917969 92.632812 73.636719 91.359375 C 77.769531 94.449219 67.308594 114.117188 67.382812 119.6875 C 68.035156 125.707031 74.261719 124.410156 76.257812 119.816406 C 81.765625 107.089844 77.074219 91.078125 85.179688 78.667969 Z M 76.449219 84.414062 C 76.136719 84.042969 75.714844 84.15625 75.5 84.175781 C 75.289062 84.191406 74.886719 84.132812 74.375 84.5625 C 73.453125 85.34375 74.039062 83.164062 74.695312 81.578125 C 75.058594 80.664062 75.667969 80.160156 76.109375 79.890625 C 76.453125 79.675781 76.597656 79.636719 76.707031 79.617188 C 76.816406 79.597656 76.914062 79.621094 77.164062 79.746094 C 77.507812 79.921875 77.882812 80.339844 77.753906 81.265625 C 77.558594 82.878906 76.984375 85.113281 76.449219 84.414062 Z M 19.0625 83.402344 C 22.339844 80.546875 21.882812 78.101562 20.078125 76.734375 C 17.789062 74.96875 13.632812 74.738281 11.914062 76.3125 C 11.367188 77.148438 11.492188 78.09375 11.6875 79.0625 C 11.773438 79.5 11.824219 79.960938 11.859375 80.671875 C 11.867188 81.378906 11.734375 82.511719 11.527344 83.523438 C 10.976562 86.023438 9.871094 88.292969 7.753906 91.839844 C 5.886719 94.960938 1.597656 101.125 4.628906 104.242188 C 7.851562 107.601562 14.191406 108.578125 17.621094 104.355469 C 22.046875 98.90625 22.570312 89.546875 19.0625 83.402344 Z M 16.398438 78.328125 C 16.867188 77.964844 17.808594 78.414062 17.5625 79.386719 C 17.3125 80.359375 16.804688 81.335938 16.378906 81.269531 C 15.882812 81.179688 15.738281 79.941406 15.90625 79.15625 C 15.972656 78.835938 16.171875 78.5 16.398438 78.328125 Z M 16.738281 87.59375 C 16.421875 88.519531 15.871094 89.460938 15.140625 89.75 C 14.78125 89.910156 14.1875 89.898438 14.054688 89.445312 C 13.941406 89.097656 14.78125 86.027344 15.003906 85.335938 C 15.46875 83.953125 16.675781 84.476562 16.847656 85.90625 C 16.914062 86.496094 16.917969 87.046875 16.738281 87.59375 Z M 128.460938 77.507812 C 128.429688 80.207031 127.65625 83.324219 126.15625 86.339844 C 125.433594 87.804688 124.558594 89.148438 123.730469 89.773438 C 122.902344 90.402344 122.136719 90.160156 122.136719 88.960938 C 122.125 86.875 124.09375 83.574219 123.550781 82.089844 C 123.265625 81.335938 122.382812 81.789062 121.628906 82.800781 C 119.140625 86.191406 117.179688 90.5625 116.210938 94.746094 C 115.5625 97.609375 116.519531 100.589844 118.347656 99.277344 C 119.292969 98.605469 120.371094 97.085938 121.117188 97.113281 C 121.636719 97.128906 121.789062 97.980469 121.675781 98.9375 C 121.5625 99.894531 121.207031 100.96875 120.859375 102.015625 C 119.335938 106.695312 117.746094 111.328125 115.886719 115.804688 C 113.863281 120.679688 111.269531 125.550781 107.988281 129.707031 C 104.960938 133.519531 101.570312 134.101562 100.632812 131.308594 C 99.246094 127.167969 100.445312 121.800781 101.4375 117.445312 C 104.554688 104.046875 110.242188 92.074219 118.027344 80.796875 C 120.269531 77.546875 122.574219 75.097656 124.714844 74.242188 C 127.335938 73.257812 128.488281 74.808594 128.460938 77.507812 Z M 138.839844 78.578125 C 138.84375 79.386719 138.472656 81.082031 138.121094 82.699219 C 137.703125 84.5625 137.238281 86.488281 136.691406 88.34375 C 136.429688 89.179688 136.136719 90.035156 135.859375 90.554688 C 135.457031 91.328125 135.191406 91.074219 135.183594 90.367188 C 135.171875 89.761719 135.289062 88.886719 135.367188 88.046875 C 135.46875 87.21875 135.519531 86.398438 135.390625 86.023438 C 135.253906 85.671875 134.84375 85.921875 134.378906 86.832031 C 134.023438 87.539062 133.730469 88.5 133.597656 89.242188 C 133.472656 89.964844 133.511719 90.46875 133.601562 90.804688 C 133.695312 91.121094 133.855469 91.292969 134.019531 91.445312 C 134.09375 91.546875 134.148438 91.820312 134.089844 92.21875 C 134.027344 92.621094 133.890625 93.101562 133.769531 93.539062 C 133.585938 94.1875 133.402344 94.839844 133.179688 95.453125 C 132.953125 96.070312 132.679688 96.667969 132.421875 96.933594 C 132.050781 97.324219 131.886719 96.890625 131.542969 97 C 131.089844 97.132812 130.394531 98.316406 129.925781 99.515625 C 129.601562 100.386719 129.34375 101.304688 129.367188 101.960938 C 129.367188 102.613281 129.65625 102.878906 130.058594 102.46875 C 130.828125 102.503906 132.246094 99.046875 133.007812 98.742188 C 133.445312 98.578125 133.488281 99.632812 133.292969 100.878906 C 133.097656 102.125 132.753906 103.539062 132.371094 104.890625 C 130.273438 112.714844 128.03125 120.5 125.53125 128.183594 C 124.964844 129.925781 124.332031 131.804688 123.507812 133.34375 C 122.101562 136.023438 120.515625 136.929688 119.21875 137.191406 C 117.074219 137.601562 115.214844 136.792969 113.882812 134.960938 C 113 133.746094 112.328125 131.683594 112.949219 128.472656 C 113.277344 126.742188 113.953125 124.898438 114.628906 123.238281 C 116.644531 118.207031 119.5 113.511719 122.101562 108.90625 C 125.894531 102.261719 128.667969 95.097656 130.058594 87.570312 C 130.328125 86.136719 130.519531 84.445312 131.246094 82.695312 C 132.015625 80.878906 133.019531 79.625 133.804688 78.882812 C 135.929688 76.976562 138.824219 77.792969 138.839844 78.578125 Z M 81.328125 126.972656 C 79.597656 126.824219 78.339844 125.011719 78.53125 121.261719 C 78.667969 118.566406 79.441406 115.628906 80.34375 113.070312 C 82.101562 108.019531 84.597656 103.222656 86.902344 98.375 C 89.105469 93.683594 90.972656 88.527344 90.941406 83.363281 C 90.9375 82.085938 90.753906 80.886719 90.832031 79.5 C 90.90625 78.117188 91.28125 76.425781 92.105469 75.066406 C 93.070312 73.488281 94.3125 72.875 95.539062 72.308594 C 96.652344 72.046875 97.773438 71.765625 98.785156 71.972656 C 99.777344 72.144531 100.644531 72.859375 100.988281 74.230469 C 101.359375 75.691406 101.128906 77.710938 100.921875 79.554688 C 100.1875 85.964844 99.371094 92.375 98.082031 98.628906 C 97.855469 99.710938 97.386719 101.847656 97.890625 101.804688 C 98.398438 101.765625 98.996094 99.640625 99.246094 98.566406 C 100.765625 92.613281 102.117188 86.609375 102.578125 80.617188 C 102.675781 79.34375 102.699219 77.867188 103.371094 76.414062 C 103.84375 75.375 104.597656 74.546875 105.277344 74.085938 C 105.953125 73.625 106.621094 73.472656 107.25 73.363281 C 108.9375 73.109375 110.546875 73.121094 111.945312 73.617188 C 112.835938 73.789062 113.015625 75.453125 112.679688 77.210938 C 112.316406 78.957031 111.53125 80.742188 110.675781 82.296875 C 109.828125 83.832031 108.808594 85.601562 107.992188 87.015625 C 106.089844 90.253906 104.71875 93.648438 103.679688 96.976562 C 102.644531 100.277344 101.910156 103.535156 101.039062 107.199219 C 100.40625 111.476562 99.257812 115.65625 98 119.757812 C 97.386719 121.75 96.625 123.902344 95.640625 125.917969 C 94.65625 127.933594 93.378906 129.789062 92.417969 130.144531 C 91.324219 130.148438 90.375 129.726562 89.558594 128.921875 C 89.109375 128.484375 88.699219 127.898438 88.59375 126.800781 C 88.507812 125.996094 88.617188 124.960938 88.765625 123.960938 C 89.0625 121.699219 89.542969 119.4375 90.144531 117.390625 C 91.628906 111.195312 93.011719 104.992188 94.09375 98.730469 C 94.363281 97.21875 94.609375 95.699219 94.675781 94.257812 C 94.703125 93.875 94.710938 93.488281 94.609375 93.199219 C 94.507812 92.910156 94.332031 92.703125 94.050781 92.78125 C 93.707031 92.890625 93.347656 93.417969 93.109375 93.898438 C 92.546875 95.066406 92.167969 96.316406 91.902344 97.542969 C 90.398438 104.363281 90.238281 111.6875 88.601562 118.441406 C 88.003906 120.929688 86.425781 123.484375 85.070312 125.160156 C 83.71875 126.8125 82.546875 127.082031 81.328125 126.972656 Z M 56.046875 76.019531 C 57.484375 76.1875 58.296875 77.277344 58.164062 78.203125 C 58.097656 78.730469 57.84375 79.257812 57.621094 79.769531 C 56.792969 81.515625 55.84375 83.125 55.097656 84.761719 C 54.339844 86.425781 53.742188 88.367188 53.765625 90.042969 C 53.777344 90.566406 53.832031 91.101562 54.035156 91.496094 C 54.234375 91.894531 54.605469 92.152344 55.023438 92.0625 C 55.578125 91.933594 56.039062 91.226562 56.476562 90.597656 C 56.914062 89.964844 57.488281 89.136719 58.027344 89.15625 C 58.410156 89.1875 58.660156 89.59375 58.855469 90.015625 C 59.292969 91.050781 59.371094 93.910156 58.957031 96.867188 C 58.40625 100.777344 58.082031 101.648438 57 105.957031 C 56.332031 108.605469 55.535156 111.429688 54.335938 114.035156 C 53.652344 115.539062 52.769531 117.007812 51.832031 117.65625 C 51.125 118.132812 50.441406 118.152344 49.789062 118.070312 C 48.574219 117.9375 47.386719 117.628906 46.242188 117.152344 C 45.289062 116.753906 44.347656 116.203125 43.625 115.164062 C 42.894531 114.152344 42.367188 112.597656 42.394531 110.832031 C 42.433594 109.125 42.980469 107.457031 43.523438 105.890625 C 44.773438 102.28125 46.042969 98.703125 47.339844 95.109375 C 48.757812 91.183594 49.3125 89.492188 48.847656 85.402344 C 48.71875 84.375 48.460938 83.441406 48.363281 82.398438 C 48.265625 81.355469 48.355469 80.210938 48.828125 79.171875 C 49.382812 77.945312 50.316406 77.21875 51.316406 76.71875 C 52.246094 76.277344 54.535156 75.828125 56.046875 76.019531 Z M 56.046875 76.019531 " fill-opacity="1" fill-rule="nonzero"/></g></g></g><g clip-path="url(#e33c8046c8)"><g clip-path="url(#9b5e338e2c)"><g clip-path="url(#5c36ba464e)"><path fill="#03489c" d="M 59.367188 26.625 C 60.132812 25.199219 61.101562 23.050781 60.992188 21.871094 C 60.863281 20.300781 59.976562 19.371094 58.835938 18.792969 C 57.761719 18.253906 53.316406 17.03125 52.210938 16.875 C 50.78125 16.683594 49.320312 16.972656 48.023438 18.433594 C 47.140625 19.433594 46.414062 21.835938 46.0625 23.457031 C 44.660156 38.167969 32.46875 48.621094 29.441406 62.722656 C 28.242188 68.273438 32.75 71.050781 35.789062 65.160156 C 39.097656 59.785156 40.703125 53.699219 42.589844 47.746094 C 43.515625 44.828125 44.296875 39.082031 47.65625 37.96875 C 50.742188 42.746094 38.675781 59.148438 37.855469 65.21875 C 37.480469 72.382812 45.011719 65.984375 46.417969 63.488281 C 52.824219 52.109375 51.429688 37.808594 59.367188 26.625 Z M 51.210938 31.078125 C 51.09375 30.574219 50.746094 30.609375 50.578125 30.558594 C 50.40625 30.511719 50.164062 30.367188 49.6875 30.753906 C 48.816406 31.445312 49.78125 29.035156 50.648438 27.246094 C 51.140625 26.238281 51.691406 25.769531 52.0625 25.558594 C 52.363281 25.410156 52.472656 25.390625 52.546875 25.410156 C 52.617188 25.429688 52.707031 25.480469 52.824219 25.722656 C 53.019531 26.039062 53.179688 26.679688 52.871094 27.769531 C 52.355469 29.601562 51.445312 32.003906 51.210938 31.078125 Z M 53.625 67.964844 C 52.5 68.246094 51.4375 68.417969 50.617188 68.003906 C 49.789062 67.613281 48.84375 66.621094 48.824219 65.023438 C 48.796875 63.453125 49.25 61.65625 49.878906 59.796875 C 51.058594 56.25 53.125 52.609375 55.167969 49.511719 C 57.140625 46.578125 59.105469 43.667969 60.558594 40.351562 C 62.050781 36.992188 63.035156 32.945312 63.464844 29.289062 C 63.867188 27.398438 64.847656 25.484375 65.847656 24.152344 C 66.839844 22.839844 67.855469 22.109375 68.707031 21.855469 C 69.558594 21.601562 70.296875 21.757812 70.890625 22.054688 C 71.429688 22.363281 71.984375 22.699219 72.359375 23.40625 C 72.730469 24.132812 72.871094 25.292969 72.621094 26.734375 C 72.347656 28.273438 71.652344 29.898438 70.898438 31.199219 C 69.191406 34.207031 66.664062 37.351562 65.417969 40.023438 C 64.699219 41.566406 64.34375 43.109375 64.042969 44.535156 C 63.5 47.117188 63.4375 48.636719 62.902344 51.195312 C 62.347656 53.902344 61.832031 56.570312 60.316406 59.820312 C 58.851562 63.078125 56.328125 67.242188 53.625 67.964844 Z M 27.769531 62.355469 C 26.957031 64.238281 25.914062 66.183594 25 67.203125 C 24.277344 68.015625 23.726562 68.121094 23.230469 68.21875 C 22.277344 68.367188 21.328125 68.410156 20.964844 67.007812 C 20.613281 65.578125 21.15625 62.347656 22.152344 59.1875 C 23.832031 54.972656 25.539062 50.761719 27.722656 46.792969 C 29.585938 43.410156 31.449219 39.660156 32.574219 35.941406 C 32.730469 35.386719 32.886719 34.828125 32.925781 34.320312 C 32.957031 33.835938 32.8125 33.429688 32.535156 33.480469 C 32.121094 33.570312 31.6875 34.464844 31.339844 35.230469 C 30.539062 37.0625 29.863281 38.902344 29.300781 40.722656 C 28.898438 41.964844 28.539062 43.246094 27.945312 44.433594 C 27.355469 45.59375 26.667969 46.285156 26.050781 46.164062 C 25.390625 46.003906 25.289062 45.167969 25.507812 43.929688 C 25.726562 42.6875 26.242188 41.402344 26.695312 40.171875 C 27.363281 38.355469 27.910156 36.503906 28.371094 34.574219 C 28.566406 33.796875 28.710938 32.820312 28.445312 32.5625 C 28.238281 32.375 27.894531 32.667969 27.613281 33.113281 C 27.332031 33.554688 27.121094 34.121094 26.917969 34.660156 C 25.613281 38.277344 24.816406 42.300781 24.273438 46.082031 C 23.640625 50.464844 22.558594 54.769531 21.480469 59.074219 C 20.429688 62.246094 18.945312 65.394531 17.777344 66.683594 C 16.605469 67.96875 15.828125 67.773438 15.136719 67.449219 C 14.769531 67.269531 14.386719 67.058594 14.292969 66.09375 C 14.191406 64.890625 14.503906 62.660156 14.960938 60.574219 C 15.425781 58.464844 15.996094 56.4375 16.582031 54.625 C 18.585938 48.335938 21 42.164062 23.558594 36.035156 C 24.28125 34.308594 25.039062 32.441406 25.328125 30.488281 C 25.566406 28.8125 25.785156 26.1875 25.875 24.46875 C 26.023438 21.359375 26.71875 17.675781 28.417969 14.140625 C 30.148438 10.589844 32.59375 10.3125 33.578125 12.464844 C 35.097656 15.863281 34.191406 20.011719 33.628906 23.578125 C 33.628906 23.578125 33.628906 23.578125 33.621094 23.601562 C 35.226562 20.300781 36.886719 16.261719 40.054688 14.261719 C 42.082031 12.984375 44.007812 14.464844 43.460938 18.164062 C 42.929688 21.816406 41.394531 25.136719 39.710938 27.789062 C 38.78125 29.246094 37.375 31.558594 36.589844 33.058594 C 35.671875 34.832031 35.183594 36.753906 34.742188 38.503906 C 33.265625 44.679688 31.679688 50.875 29.773438 56.902344 C 29.25 58.578125 28.59375 60.453125 27.769531 62.355469 Z M 64.230469 67.015625 C 62.230469 67.46875 60.710938 66.570312 60.910156 63.816406 C 61.0625 61.800781 61.886719 59.425781 62.875 57.492188 C 64.796875 53.707031 67.171875 50 69.503906 46.332031 C 71.652344 42.949219 73.539062 38.375 73.890625 34.359375 C 74 33.21875 73.996094 32.121094 74.210938 30.804688 C 74.421875 29.507812 74.925781 27.902344 75.707031 26.691406 C 76.625 25.28125 77.566406 24.894531 78.496094 24.558594 C 79.296875 24.496094 80.085938 24.457031 80.746094 24.800781 C 81.398438 25.167969 81.90625 25.960938 82.03125 27.273438 C 82.167969 28.640625 81.859375 30.375 81.632812 31.925781 C 80.910156 36.621094 80.3125 41.429688 79.410156 46.125 C 79.261719 46.835938 78.996094 48.246094 79.453125 48.191406 C 79.917969 48.117188 80.273438 46.757812 80.453125 46.027344 C 81.511719 41.710938 82.355469 37.3125 82.824219 32.964844 C 82.933594 31.929688 83.027344 30.679688 83.558594 29.523438 C 83.953125 28.671875 84.519531 28.050781 85.023438 27.75 C 85.523438 27.449219 85.980469 27.394531 86.402344 27.382812 C 87.578125 27.375 88.660156 27.601562 89.617188 28.183594 C 90.222656 28.429688 90.367188 29.773438 90.183594 31.078125 C 89.964844 32.394531 89.453125 33.660156 88.886719 34.75 C 88.320312 35.839844 87.632812 37.078125 87.042969 38.058594 C 85.707031 40.316406 84.816406 42.644531 84.238281 44.796875 C 83.65625 46.953125 83.402344 48.964844 83.070312 51.164062 C 83.089844 53.410156 82.8125 55.78125 82.140625 58.457031 C 81.835938 59.621094 81.453125 60.894531 80.726562 62.175781 C 80.003906 63.457031 78.84375 64.796875 77.765625 65.300781 C 76.441406 65.65625 75.183594 65.773438 74.054688 65.613281 C 73.457031 65.523438 72.867188 65.304688 72.59375 64.707031 C 72.378906 64.253906 72.375 63.628906 72.390625 63.007812 C 72.453125 61.59375 72.714844 60.101562 73.167969 58.773438 C 74.210938 54.691406 75.070312 50.527344 75.84375 46.394531 C 76.03125 45.355469 76.226562 44.289062 76.3125 43.246094 C 76.339844 42.964844 76.339844 42.679688 76.265625 42.476562 C 76.199219 42.25 76.035156 42.101562 75.808594 42.167969 C 75.527344 42.242188 75.234375 42.628906 75 43.007812 C 74.5 43.855469 74.125 44.816406 73.933594 45.675781 C 72.875 50.09375 72.734375 55.316406 71.667969 59.757812 C 71.285156 61.394531 69.765625 63.363281 68.347656 64.789062 C 67 66.152344 65.621094 66.703125 64.230469 67.015625 Z M 118.867188 40.035156 C 119.265625 39.179688 119.65625 37.882812 119.269531 37.125 C 118.777344 36.101562 117.738281 35.445312 116.546875 34.953125 C 115.421875 34.503906 110.980469 33.253906 109.914062 33.058594 C 108.53125 32.800781 107.195312 32.816406 106.21875 33.609375 C 105.546875 34.148438 105.308594 35.644531 105.308594 36.660156 C 107.023438 46.207031 96.5 51.582031 97.53125 60.3125 C 97.90625 63.519531 103.46875 64.300781 106.144531 61.929688 C 109.042969 58.289062 106 48.082031 110.429688 46.515625 C 114.003906 49.734375 107.382812 57.796875 108.515625 62.207031 C 110.011719 65.023438 115.457031 65.121094 117.023438 62.699219 C 121.496094 55.960938 113.480469 47.425781 118.867188 40.035156 Z M 112.144531 42.179688 C 111.878906 41.816406 111.570312 41.808594 111.394531 41.785156 C 111.226562 41.738281 110.925781 41.601562 110.546875 41.835938 C 109.867188 42.214844 110.214844 40.699219 110.628906 39.589844 C 110.863281 38.953125 111.296875 38.710938 111.609375 38.617188 C 111.859375 38.554688 111.96875 38.535156 112.042969 38.554688 C 112.113281 38.578125 112.203125 38.628906 112.394531 38.785156 C 112.644531 39.011719 112.964844 39.441406 112.925781 40.132812 C 112.886719 41.292969 112.59375 42.800781 112.144531 42.179688 Z M 124.964844 66.601562 C 124.078125 66.507812 123.183594 66.359375 122.324219 65.988281 C 121.488281 65.621094 120.3125 64.898438 119.847656 64.039062 C 119.386719 63.179688 119.28125 62.265625 119.320312 61.285156 C 119.4375 59.210938 120.320312 57.375 121.253906 55.628906 C 122.167969 53.855469 123.175781 52.03125 123.601562 49.78125 C 124.035156 47.503906 123.859375 44.878906 123.394531 42.273438 C 123.296875 41.046875 123.757812 39.871094 124.382812 39.136719 C 125.007812 38.402344 125.785156 38.046875 126.535156 37.96875 C 127.285156 37.894531 127.992188 38.066406 128.621094 38.324219 C 129.199219 38.589844 129.804688 38.839844 130.289062 39.339844 C 130.796875 39.847656 131.207031 40.613281 131.292969 41.523438 C 131.402344 42.519531 131.109375 43.554688 130.746094 44.390625 C 129.890625 46.3125 128.378906 48.363281 127.933594 50.214844 C 127.683594 51.292969 127.757812 52.40625 127.875 53.480469 C 128.050781 55.355469 128.390625 56.546875 128.601562 58.296875 C 128.808594 60.152344 129.019531 61.90625 128.574219 63.578125 C 128.144531 65.203125 127.09375 66.808594 124.964844 66.601562 Z M 133.046875 68.328125 C 131.714844 68.160156 130.402344 67.453125 129.960938 65.972656 C 129.636719 64.894531 129.796875 63.6875 130.101562 62.601562 C 130.761719 60.257812 132 58.160156 132.988281 55.675781 C 133.996094 53.199219 134.746094 50.074219 134.191406 46.949219 C 134.035156 46.125 133.789062 45.328125 133.699219 44.441406 C 133.609375 43.554688 133.71875 42.519531 134.183594 41.789062 C 134.707031 40.949219 135.535156 40.789062 136.347656 40.679688 C 137.089844 40.730469 137.835938 40.761719 138.53125 41.058594 C 139.230469 41.359375 139.875 41.933594 140.226562 42.8125 C 140.613281 43.753906 140.675781 44.917969 140.710938 45.996094 C 140.894531 49.980469 141.066406 53.625 140.871094 57.007812 C 140.835938 57.597656 140.777344 58.726562 141.109375 58.742188 C 141.445312 58.757812 141.574219 57.648438 141.636719 57.066406 C 141.957031 53.980469 142.324219 50.359375 141.929688 46.859375 C 141.828125 46.101562 141.730469 45.242188 142.023438 44.492188 C 142.25 43.957031 142.644531 43.570312 143.082031 43.410156 C 143.496094 43.238281 143.90625 43.25 144.3125 43.285156 C 145.40625 43.386719 146.5 43.667969 147.488281 44.128906 C 148.105469 44.351562 148.425781 45.25 148.375 46.171875 C 148.328125 47.074219 147.972656 47.964844 147.550781 48.730469 C 147.125 49.496094 146.636719 50.398438 146.21875 51.140625 C 145.277344 52.832031 144.722656 54.707031 144.402344 56.492188 C 144.082031 58.277344 143.964844 59.988281 143.792969 61.710938 C 143.855469 63.527344 143.675781 65.273438 143.328125 66.792969 C 143.167969 67.449219 142.976562 68.125 142.613281 68.675781 C 142.25 69.222656 141.734375 69.675781 141.191406 69.757812 C 140.515625 69.75 139.84375 69.640625 139.1875 69.378906 C 138.832031 69.25 138.464844 69.070312 138.226562 68.714844 C 138.0625 68.460938 137.96875 68.148438 137.914062 67.792969 C 137.78125 67.054688 137.777344 66.246094 137.890625 65.46875 C 138.082031 62.839844 138.15625 59.890625 138.125 56.679688 C 138.125 55.84375 138.105469 54.980469 138.003906 54.144531 C 137.960938 53.925781 137.925781 53.679688 137.84375 53.5 C 137.742188 53.316406 137.601562 53.171875 137.410156 53.195312 C 137.171875 53.207031 137.011719 53.5 136.882812 53.777344 C 136.625 54.40625 136.53125 55.109375 136.46875 55.796875 C 136.199219 59.445312 137.300781 62.75 136.992188 65.789062 C 136.886719 66.722656 136.222656 67.5 135.515625 67.980469 C 134.785156 68.453125 133.976562 68.457031 133.046875 68.328125 Z M 96.03125 57.78125 C 95.515625 59.328125 94.460938 61.039062 92.988281 62.109375 C 91.578125 63.144531 90.253906 63.5 88.445312 63.722656 C 88.421875 63.714844 88.421875 63.714844 88.390625 63.734375 C 88.367188 63.726562 88.359375 63.75 88.335938 63.742188 C 86.535156 63.941406 85.492188 63.855469 84.527344 62.933594 C 83.519531 61.972656 83.492188 60.035156 83.9375 58.261719 C 84.394531 56.460938 85.273438 54.726562 86.152344 53.179688 C 88.171875 49.605469 90.699219 46.175781 92.613281 42.519531 C 93.445312 40.957031 94.015625 38.929688 94.390625 37.417969 C 94.507812 36.902344 94.613281 36.257812 94.355469 36.054688 C 94.207031 35.933594 93.996094 36.03125 93.792969 36.207031 C 93.609375 36.390625 93.457031 36.660156 93.300781 36.929688 C 92.933594 37.683594 92.679688 38.5 92.414062 39.257812 C 92.148438 40.015625 91.808594 40.753906 91.324219 41.269531 C 90.839844 41.785156 90.097656 42.019531 89.753906 41.582031 C 89.417969 41.203125 89.558594 40.511719 89.714844 39.773438 C 89.992188 38.601562 90.710938 36.511719 91.585938 34.050781 C 91.921875 33.128906 92.410156 32.226562 92.566406 31.957031 C 93.039062 31.097656 93.617188 30.347656 94.191406 30.066406 C 94.679688 29.816406 95.09375 29.90625 95.507812 30.023438 C 96.332031 30.226562 97.292969 30.523438 97.679688 30.632812 C 98.066406 30.742188 99.042969 30.964844 99.863281 31.195312 C 100.273438 31.3125 100.703125 31.457031 100.976562 31.875 C 101.324219 32.386719 101.453125 33.230469 101.445312 34.089844 C 101.445312 34.375 101.425781 35.28125 101.265625 36.121094 C 100.839844 38.375 100.425781 40.3125 100.085938 41.339844 C 99.882812 41.960938 99.660156 42.574219 99.171875 42.828125 C 98.652344 43.097656 98.09375 42.757812 97.894531 42.179688 C 97.691406 41.601562 97.769531 40.871094 97.921875 40.132812 C 98.054688 39.386719 98.265625 38.640625 98.300781 37.867188 C 98.328125 37.585938 98.296875 37.320312 98.230469 37.09375 C 98.164062 36.863281 98 36.714844 97.804688 36.761719 C 97.464844 36.851562 97.214844 37.457031 97.058594 37.933594 C 96.601562 39.367188 96.09375 41.363281 96.027344 42.984375 C 95.878906 47.03125 96.605469 49.816406 96.566406 53.375 C 96.625 54.746094 96.542969 56.234375 96.03125 57.78125 Z M 96.03125 57.78125 " fill-opacity="1" fill-rule="nonzero"/></g></g></g></svg>