<svg xmlns="http://www.w3.org/2000/svg" xmlns:xlink="http://www.w3.org/1999/xlink" width="300" zoomAndPan="magnify" viewBox="0 0 224.87999 322.499991" height="430" preserveAspectRatio="xMidYMid meet" version="1.0"><defs><g/><clipPath id="0ca92b9ca0"><path d="M 0.113281 0 L 224.644531 0 L 224.644531 322 L 0.113281 322 Z M 0.113281 0 " clip-rule="nonzero"/></clipPath><clipPath id="8a8cb48177"><path d="M 10.542969 0 L 214.339844 0 C 220.097656 0 224.765625 4.667969 224.765625 10.425781 L 224.765625 311.574219 C 224.765625 317.332031 220.097656 322 214.339844 322 L 10.542969 322 C 4.78125 322 0.113281 317.332031 0.113281 311.574219 L 0.113281 10.425781 C 0.113281 4.667969 4.78125 0 10.542969 0 Z M 10.542969 0 " clip-rule="nonzero"/></clipPath></defs><g clip-path="url(#0ca92b9ca0)"><g clip-path="url(#8a8cb48177)"><path fill="#9ea1d4" d="M 0.113281 0 L 224.765625 0 L 224.765625 322.058594 L 0.113281 322.058594 Z M 0.113281 0 " fill-opacity="1" fill-rule="nonzero"/></g></g><g fill="#00215e" fill-opacity="1"><g transform="translate(11.346731, 70.640472)"><g><path d="M 11.875 0 C 10.945312 0 10.179688 -0.289062 9.578125 -0.875 C 8.984375 -1.457031 8.6875 -2.179688 8.6875 -3.046875 L 8.6875 -28.203125 L 9.390625 -27.109375 L 5.734375 -24.40625 C 5.273438 -24.039062 4.695312 -23.859375 4 -23.859375 C 3.195312 -23.859375 2.492188 -24.15625 1.890625 -24.75 C 1.296875 -25.351562 1 -26.070312 1 -26.90625 C 1 -27.96875 1.515625 -28.832031 2.546875 -29.5 L 9.734375 -34.296875 C 10.066406 -34.523438 10.441406 -34.691406 10.859375 -34.796875 C 11.273438 -34.898438 11.664062 -34.953125 12.03125 -34.953125 C 13 -34.953125 13.765625 -34.660156 14.328125 -34.078125 C 14.890625 -33.492188 15.171875 -32.769531 15.171875 -31.90625 L 15.171875 -3.046875 C 15.171875 -2.179688 14.863281 -1.457031 14.25 -0.875 C 13.632812 -0.289062 12.84375 0 11.875 0 Z M 11.875 0 "/></g></g></g><g fill="#00215e" fill-opacity="1"><g transform="translate(30.763617, 70.640472)"><g><path d="M 5.890625 -0.046875 C 4.921875 -0.046875 4.175781 -0.300781 3.65625 -0.8125 C 3.144531 -1.332031 2.890625 -2.078125 2.890625 -3.046875 L 2.890625 -3.890625 C 2.890625 -4.859375 3.144531 -5.597656 3.65625 -6.109375 C 4.175781 -6.628906 4.921875 -6.890625 5.890625 -6.890625 L 6.546875 -6.890625 C 7.503906 -6.890625 8.238281 -6.628906 8.75 -6.109375 C 9.269531 -5.597656 9.53125 -4.859375 9.53125 -3.890625 L 9.53125 -3.046875 C 9.53125 -2.078125 9.269531 -1.332031 8.75 -0.8125 C 8.238281 -0.300781 7.503906 -0.046875 6.546875 -0.046875 Z M 5.890625 -0.046875 "/></g></g></g><g fill="#00215e" fill-opacity="1"><g transform="translate(11.346731, 140.282495)"><g><path d="M 17.078125 -27.203125 C 19.398438 -27.203125 21.484375 -26.609375 23.328125 -25.421875 C 25.179688 -24.242188 26.648438 -22.625 27.734375 -20.5625 C 28.816406 -18.5 29.359375 -16.101562 29.359375 -13.375 C 29.359375 -10.644531 28.816406 -8.238281 27.734375 -6.15625 C 26.648438 -4.082031 25.203125 -2.453125 23.390625 -1.265625 C 21.578125 -0.0859375 19.535156 0.5 17.265625 0.5 C 15.941406 0.5 14.695312 0.285156 13.53125 -0.140625 C 12.363281 -0.578125 11.335938 -1.128906 10.453125 -1.796875 C 9.578125 -2.460938 8.894531 -3.132812 8.40625 -3.8125 C 7.925781 -4.5 7.6875 -5.078125 7.6875 -5.546875 L 9.234375 -6.1875 L 9.234375 6.9375 C 9.234375 7.800781 8.945312 8.523438 8.375 9.109375 C 7.8125 9.691406 7.097656 9.984375 6.234375 9.984375 C 5.367188 9.984375 4.65625 9.695312 4.09375 9.125 C 3.53125 8.5625 3.25 7.832031 3.25 6.9375 L 3.25 -23.65625 C 3.25 -24.53125 3.53125 -25.253906 4.09375 -25.828125 C 4.65625 -26.410156 5.367188 -26.703125 6.234375 -26.703125 C 7.097656 -26.703125 7.8125 -26.410156 8.375 -25.828125 C 8.945312 -25.253906 9.234375 -24.53125 9.234375 -23.65625 L 9.234375 -21.21875 L 8.390625 -21.671875 C 8.390625 -22.097656 8.617188 -22.617188 9.078125 -23.234375 C 9.546875 -23.847656 10.179688 -24.460938 10.984375 -25.078125 C 11.785156 -25.703125 12.707031 -26.210938 13.75 -26.609375 C 14.800781 -27.003906 15.910156 -27.203125 17.078125 -27.203125 Z M 16.328125 -21.71875 C 14.859375 -21.71875 13.570312 -21.347656 12.46875 -20.609375 C 11.375 -19.878906 10.519531 -18.890625 9.90625 -17.640625 C 9.289062 -16.398438 8.984375 -14.976562 8.984375 -13.375 C 8.984375 -11.8125 9.289062 -10.390625 9.90625 -9.109375 C 10.519531 -7.828125 11.375 -6.820312 12.46875 -6.09375 C 13.570312 -5.363281 14.859375 -5 16.328125 -5 C 17.785156 -5 19.054688 -5.363281 20.140625 -6.09375 C 21.222656 -6.820312 22.070312 -7.828125 22.6875 -9.109375 C 23.300781 -10.390625 23.609375 -11.8125 23.609375 -13.375 C 23.609375 -14.976562 23.300781 -16.398438 22.6875 -17.640625 C 22.070312 -18.890625 21.222656 -19.878906 20.140625 -20.609375 C 19.054688 -21.347656 17.785156 -21.71875 16.328125 -21.71875 Z M 16.328125 -21.71875 "/></g></g></g><g fill="#00215e" fill-opacity="1"><g transform="translate(42.693268, 140.282495)"><g><path d="M 6.234375 0 C 5.367188 0 4.65625 -0.289062 4.09375 -0.875 C 3.53125 -1.457031 3.25 -2.179688 3.25 -3.046875 L 3.25 -23.65625 C 3.25 -24.53125 3.53125 -25.253906 4.09375 -25.828125 C 4.65625 -26.410156 5.367188 -26.703125 6.234375 -26.703125 C 7.097656 -26.703125 7.8125 -26.410156 8.375 -25.828125 C 8.945312 -25.253906 9.234375 -24.53125 9.234375 -23.65625 L 9.234375 -18.96875 L 8.890625 -22.3125 C 9.253906 -23.113281 9.726562 -23.820312 10.3125 -24.4375 C 10.894531 -25.050781 11.550781 -25.566406 12.28125 -25.984375 C 13.007812 -26.398438 13.789062 -26.707031 14.625 -26.90625 C 15.457031 -27.101562 16.289062 -27.203125 17.125 -27.203125 C 18.125 -27.203125 18.960938 -26.921875 19.640625 -26.359375 C 20.328125 -25.796875 20.671875 -25.128906 20.671875 -24.359375 C 20.671875 -23.265625 20.382812 -22.472656 19.8125 -21.984375 C 19.25 -21.503906 18.632812 -21.265625 17.96875 -21.265625 C 17.332031 -21.265625 16.753906 -21.378906 16.234375 -21.609375 C 15.722656 -21.847656 15.140625 -21.96875 14.484375 -21.96875 C 13.878906 -21.96875 13.269531 -21.820312 12.65625 -21.53125 C 12.039062 -21.25 11.472656 -20.804688 10.953125 -20.203125 C 10.441406 -19.609375 10.023438 -18.867188 9.703125 -17.984375 C 9.390625 -17.109375 9.234375 -16.070312 9.234375 -14.875 L 9.234375 -3.046875 C 9.234375 -2.179688 8.945312 -1.457031 8.375 -0.875 C 7.8125 -0.289062 7.097656 0 6.234375 0 Z M 6.234375 0 "/></g></g></g><g fill="#00215e" fill-opacity="1"><g transform="translate(64.356328, 140.282495)"><g><path d="M 25.109375 -27.203125 C 25.972656 -27.203125 26.6875 -26.921875 27.25 -26.359375 C 27.820312 -25.796875 28.109375 -25.0625 28.109375 -24.15625 L 28.109375 -3.046875 C 28.109375 -2.179688 27.820312 -1.457031 27.25 -0.875 C 26.6875 -0.289062 25.972656 0 25.109375 0 C 24.242188 0 23.523438 -0.289062 22.953125 -0.875 C 22.390625 -1.457031 22.109375 -2.179688 22.109375 -3.046875 L 22.109375 -5.484375 L 23.21875 -5.046875 C 23.21875 -4.609375 22.984375 -4.082031 22.515625 -3.46875 C 22.046875 -2.851562 21.410156 -2.242188 20.609375 -1.640625 C 19.816406 -1.046875 18.878906 -0.539062 17.796875 -0.125 C 16.710938 0.289062 15.539062 0.5 14.28125 0.5 C 11.976562 0.5 9.894531 -0.0859375 8.03125 -1.265625 C 6.164062 -2.453125 4.691406 -4.082031 3.609375 -6.15625 C 2.535156 -8.238281 2 -10.628906 2 -13.328125 C 2 -16.054688 2.535156 -18.457031 3.609375 -20.53125 C 4.691406 -22.613281 6.148438 -24.242188 7.984375 -25.421875 C 9.816406 -26.609375 11.847656 -27.203125 14.078125 -27.203125 C 15.503906 -27.203125 16.816406 -26.984375 18.015625 -26.546875 C 19.210938 -26.117188 20.253906 -25.570312 21.140625 -24.90625 C 22.023438 -24.238281 22.707031 -23.5625 23.1875 -22.875 C 23.664062 -22.195312 23.90625 -21.628906 23.90625 -21.171875 L 22.109375 -20.515625 L 22.109375 -24.15625 C 22.109375 -25.019531 22.390625 -25.742188 22.953125 -26.328125 C 23.523438 -26.910156 24.242188 -27.203125 25.109375 -27.203125 Z M 15.03125 -5 C 16.488281 -5 17.765625 -5.363281 18.859375 -6.09375 C 19.960938 -6.820312 20.820312 -7.816406 21.4375 -9.078125 C 22.050781 -10.347656 22.359375 -11.765625 22.359375 -13.328125 C 22.359375 -14.921875 22.050781 -16.347656 21.4375 -17.609375 C 20.820312 -18.878906 19.960938 -19.878906 18.859375 -20.609375 C 17.765625 -21.347656 16.488281 -21.71875 15.03125 -21.71875 C 13.59375 -21.71875 12.320312 -21.347656 11.21875 -20.609375 C 10.125 -19.878906 9.269531 -18.878906 8.65625 -17.609375 C 8.039062 -16.347656 7.734375 -14.921875 7.734375 -13.328125 C 7.734375 -11.765625 8.039062 -10.347656 8.65625 -9.078125 C 9.269531 -7.816406 10.125 -6.820312 11.21875 -6.09375 C 12.320312 -5.363281 13.59375 -5 15.03125 -5 Z M 15.03125 -5 "/></g></g></g><g fill="#00215e" fill-opacity="1"><g transform="translate(95.702865, 140.282495)"><g><path d="M 15.125 -27.203125 C 17.019531 -27.203125 18.675781 -27.003906 20.09375 -26.609375 C 21.507812 -26.210938 22.609375 -25.65625 23.390625 -24.9375 C 24.171875 -24.21875 24.5625 -23.359375 24.5625 -22.359375 C 24.5625 -21.691406 24.359375 -21.066406 23.953125 -20.484375 C 23.554688 -19.910156 22.976562 -19.625 22.21875 -19.625 C 21.6875 -19.625 21.242188 -19.695312 20.890625 -19.84375 C 20.546875 -19.988281 20.238281 -20.175781 19.96875 -20.40625 C 19.695312 -20.644531 19.378906 -20.863281 19.015625 -21.0625 C 18.679688 -21.257812 18.171875 -21.414062 17.484375 -21.53125 C 16.804688 -21.65625 16.300781 -21.71875 15.96875 -21.71875 C 14.269531 -21.71875 12.832031 -21.347656 11.65625 -20.609375 C 10.476562 -19.878906 9.570312 -18.890625 8.9375 -17.640625 C 8.300781 -16.398438 7.984375 -14.960938 7.984375 -13.328125 C 7.984375 -11.734375 8.304688 -10.3125 8.953125 -9.0625 C 9.609375 -7.8125 10.507812 -6.820312 11.65625 -6.09375 C 12.800781 -5.363281 14.125 -5 15.625 -5 C 16.457031 -5 17.171875 -5.046875 17.765625 -5.140625 C 18.367188 -5.242188 18.867188 -5.394531 19.265625 -5.59375 C 19.734375 -5.851562 20.148438 -6.132812 20.515625 -6.4375 C 20.878906 -6.738281 21.429688 -6.890625 22.171875 -6.890625 C 23.035156 -6.890625 23.695312 -6.613281 24.15625 -6.0625 C 24.625 -5.507812 24.859375 -4.835938 24.859375 -4.046875 C 24.859375 -3.210938 24.390625 -2.453125 23.453125 -1.765625 C 22.523438 -1.085938 21.300781 -0.539062 19.78125 -0.125 C 18.269531 0.289062 16.632812 0.5 14.875 0.5 C 12.25 0.5 9.96875 -0.101562 8.03125 -1.3125 C 6.101562 -2.53125 4.613281 -4.1875 3.5625 -6.28125 C 2.519531 -8.382812 2 -10.734375 2 -13.328125 C 2 -16.054688 2.554688 -18.457031 3.671875 -20.53125 C 4.785156 -22.613281 6.332031 -24.242188 8.3125 -25.421875 C 10.289062 -26.609375 12.5625 -27.203125 15.125 -27.203125 Z M 15.125 -27.203125 "/></g></g></g><g fill="#00215e" fill-opacity="1"><g transform="translate(121.658597, 140.282495)"><g><path d="M 3.546875 -26.203125 L 15.375 -26.203125 C 16.175781 -26.203125 16.84375 -25.9375 17.375 -25.40625 C 17.90625 -24.875 18.171875 -24.207031 18.171875 -23.40625 C 18.171875 -22.644531 17.90625 -22.003906 17.375 -21.484375 C 16.84375 -20.972656 16.175781 -20.71875 15.375 -20.71875 L 3.546875 -20.71875 C 2.742188 -20.71875 2.078125 -20.984375 1.546875 -21.515625 C 1.015625 -22.046875 0.75 -22.710938 0.75 -23.515625 C 0.75 -24.273438 1.015625 -24.910156 1.546875 -25.421875 C 2.078125 -25.941406 2.742188 -26.203125 3.546875 -26.203125 Z M 8.890625 -32.453125 C 9.753906 -32.453125 10.457031 -32.160156 11 -31.578125 C 11.550781 -30.992188 11.828125 -30.269531 11.828125 -29.40625 L 11.828125 -7.1875 C 11.828125 -6.71875 11.914062 -6.332031 12.09375 -6.03125 C 12.28125 -5.738281 12.53125 -5.523438 12.84375 -5.390625 C 13.164062 -5.253906 13.507812 -5.1875 13.875 -5.1875 C 14.28125 -5.1875 14.644531 -5.257812 14.96875 -5.40625 C 15.300781 -5.5625 15.6875 -5.640625 16.125 -5.640625 C 16.59375 -5.640625 17.015625 -5.421875 17.390625 -4.984375 C 17.773438 -4.554688 17.96875 -3.957031 17.96875 -3.1875 C 17.96875 -2.257812 17.457031 -1.492188 16.4375 -0.890625 C 15.425781 -0.296875 14.335938 0 13.171875 0 C 12.472656 0 11.695312 -0.0546875 10.84375 -0.171875 C 10 -0.285156 9.203125 -0.566406 8.453125 -1.015625 C 7.710938 -1.472656 7.09375 -2.164062 6.59375 -3.09375 C 6.09375 -4.03125 5.84375 -5.3125 5.84375 -6.9375 L 5.84375 -29.40625 C 5.84375 -30.269531 6.132812 -30.992188 6.71875 -31.578125 C 7.300781 -32.160156 8.023438 -32.453125 8.890625 -32.453125 Z M 8.890625 -32.453125 "/></g></g></g><g fill="#00215e" fill-opacity="1"><g transform="translate(142.073782, 140.282495)"><g><path d="M 8.890625 -3.046875 C 8.890625 -2.179688 8.601562 -1.457031 8.03125 -0.875 C 7.46875 -0.289062 6.753906 0 5.890625 0 C 5.023438 0 4.304688 -0.289062 3.734375 -0.875 C 3.171875 -1.457031 2.890625 -2.179688 2.890625 -3.046875 L 2.890625 -23.65625 C 2.890625 -24.53125 3.171875 -25.253906 3.734375 -25.828125 C 4.304688 -26.410156 5.023438 -26.703125 5.890625 -26.703125 C 6.753906 -26.703125 7.46875 -26.410156 8.03125 -25.828125 C 8.601562 -25.253906 8.890625 -24.53125 8.890625 -23.65625 Z M 5.84375 -29.953125 C 4.707031 -29.953125 3.90625 -30.132812 3.4375 -30.5 C 2.976562 -30.863281 2.75 -31.515625 2.75 -32.453125 L 2.75 -33.390625 C 2.75 -34.359375 3.003906 -35.015625 3.515625 -35.359375 C 4.035156 -35.710938 4.828125 -35.890625 5.890625 -35.890625 C 7.054688 -35.890625 7.867188 -35.707031 8.328125 -35.34375 C 8.796875 -34.976562 9.03125 -34.328125 9.03125 -33.390625 L 9.03125 -32.453125 C 9.03125 -31.484375 8.78125 -30.820312 8.28125 -30.46875 C 7.78125 -30.125 6.96875 -29.953125 5.84375 -29.953125 Z M 5.84375 -29.953125 "/></g></g></g><g fill="#00215e" fill-opacity="1"><g transform="translate(153.85369, 140.282495)"><g><path d="M 15.125 -27.203125 C 17.019531 -27.203125 18.675781 -27.003906 20.09375 -26.609375 C 21.507812 -26.210938 22.609375 -25.65625 23.390625 -24.9375 C 24.171875 -24.21875 24.5625 -23.359375 24.5625 -22.359375 C 24.5625 -21.691406 24.359375 -21.066406 23.953125 -20.484375 C 23.554688 -19.910156 22.976562 -19.625 22.21875 -19.625 C 21.6875 -19.625 21.242188 -19.695312 20.890625 -19.84375 C 20.546875 -19.988281 20.238281 -20.175781 19.96875 -20.40625 C 19.695312 -20.644531 19.378906 -20.863281 19.015625 -21.0625 C 18.679688 -21.257812 18.171875 -21.414062 17.484375 -21.53125 C 16.804688 -21.65625 16.300781 -21.71875 15.96875 -21.71875 C 14.269531 -21.71875 12.832031 -21.347656 11.65625 -20.609375 C 10.476562 -19.878906 9.570312 -18.890625 8.9375 -17.640625 C 8.300781 -16.398438 7.984375 -14.960938 7.984375 -13.328125 C 7.984375 -11.734375 8.304688 -10.3125 8.953125 -9.0625 C 9.609375 -7.8125 10.507812 -6.820312 11.65625 -6.09375 C 12.800781 -5.363281 14.125 -5 15.625 -5 C 16.457031 -5 17.171875 -5.046875 17.765625 -5.140625 C 18.367188 -5.242188 18.867188 -5.394531 19.265625 -5.59375 C 19.734375 -5.851562 20.148438 -6.132812 20.515625 -6.4375 C 20.878906 -6.738281 21.429688 -6.890625 22.171875 -6.890625 C 23.035156 -6.890625 23.695312 -6.613281 24.15625 -6.0625 C 24.625 -5.507812 24.859375 -4.835938 24.859375 -4.046875 C 24.859375 -3.210938 24.390625 -2.453125 23.453125 -1.765625 C 22.523438 -1.085938 21.300781 -0.539062 19.78125 -0.125 C 18.269531 0.289062 16.632812 0.5 14.875 0.5 C 12.25 0.5 9.96875 -0.101562 8.03125 -1.3125 C 6.101562 -2.53125 4.613281 -4.1875 3.5625 -6.28125 C 2.519531 -8.382812 2 -10.734375 2 -13.328125 C 2 -16.054688 2.554688 -18.457031 3.671875 -20.53125 C 4.785156 -22.613281 6.332031 -24.242188 8.3125 -25.421875 C 10.289062 -26.609375 12.5625 -27.203125 15.125 -27.203125 Z M 15.125 -27.203125 "/></g></g></g><g fill="#00215e" fill-opacity="1"><g transform="translate(179.809423, 140.282495)"><g><path d="M 15.828125 0.5 C 12.992188 0.5 10.535156 -0.0859375 8.453125 -1.265625 C 6.378906 -2.453125 4.785156 -4.0625 3.671875 -6.09375 C 2.554688 -8.125 2 -10.421875 2 -12.984375 C 2 -15.972656 2.601562 -18.523438 3.8125 -20.640625 C 5.03125 -22.753906 6.617188 -24.375 8.578125 -25.5 C 10.546875 -26.632812 12.628906 -27.203125 14.828125 -27.203125 C 16.523438 -27.203125 18.128906 -26.851562 19.640625 -26.15625 C 21.160156 -25.457031 22.5 -24.5 23.65625 -23.28125 C 24.820312 -22.070312 25.742188 -20.664062 26.421875 -19.0625 C 27.109375 -17.46875 27.453125 -15.773438 27.453125 -13.984375 C 27.421875 -13.179688 27.101562 -12.53125 26.5 -12.03125 C 25.90625 -11.53125 25.207031 -11.28125 24.40625 -11.28125 L 5.34375 -11.28125 L 3.84375 -16.28125 L 22.171875 -16.28125 L 21.0625 -15.28125 L 21.0625 -16.625 C 21 -17.59375 20.660156 -18.457031 20.046875 -19.21875 C 19.429688 -19.988281 18.664062 -20.597656 17.75 -21.046875 C 16.832031 -21.492188 15.859375 -21.71875 14.828125 -21.71875 C 13.828125 -21.71875 12.894531 -21.582031 12.03125 -21.3125 C 11.164062 -21.050781 10.414062 -20.601562 9.78125 -19.96875 C 9.15625 -19.332031 8.65625 -18.484375 8.28125 -17.421875 C 7.914062 -16.359375 7.734375 -15.007812 7.734375 -13.375 C 7.734375 -11.582031 8.109375 -10.0625 8.859375 -8.8125 C 9.609375 -7.5625 10.570312 -6.613281 11.75 -5.96875 C 12.9375 -5.320312 14.195312 -5 15.53125 -5 C 16.757812 -5 17.738281 -5.097656 18.46875 -5.296875 C 19.195312 -5.492188 19.785156 -5.734375 20.234375 -6.015625 C 20.691406 -6.296875 21.101562 -6.535156 21.46875 -6.734375 C 22.0625 -7.035156 22.625 -7.1875 23.15625 -7.1875 C 23.894531 -7.1875 24.503906 -6.9375 24.984375 -6.4375 C 25.460938 -5.9375 25.703125 -5.351562 25.703125 -4.6875 C 25.703125 -3.789062 25.238281 -2.976562 24.3125 -2.25 C 23.445312 -1.507812 22.234375 -0.863281 20.671875 -0.3125 C 19.109375 0.226562 17.492188 0.5 15.828125 0.5 Z M 15.828125 0.5 "/></g></g></g><g fill="#00215e" fill-opacity="1"><g transform="translate(11.346731, 209.924518)"><g><path d="M 17.265625 -27.203125 C 19.929688 -27.203125 21.894531 -26.5625 23.15625 -25.28125 C 24.425781 -24 25.257812 -22.34375 25.65625 -20.3125 L 24.8125 -20.765625 L 25.203125 -21.5625 C 25.609375 -22.332031 26.226562 -23.15625 27.0625 -24.03125 C 27.894531 -24.914062 28.898438 -25.664062 30.078125 -26.28125 C 31.253906 -26.894531 32.578125 -27.203125 34.046875 -27.203125 C 36.441406 -27.203125 38.265625 -26.6875 39.515625 -25.65625 C 40.765625 -24.625 41.617188 -23.25 42.078125 -21.53125 C 42.546875 -19.820312 42.78125 -17.921875 42.78125 -15.828125 L 42.78125 -3.046875 C 42.78125 -2.179688 42.492188 -1.457031 41.921875 -0.875 C 41.359375 -0.289062 40.644531 0 39.78125 0 C 38.914062 0 38.203125 -0.289062 37.640625 -0.875 C 37.078125 -1.457031 36.796875 -2.179688 36.796875 -3.046875 L 36.796875 -15.828125 C 36.796875 -16.921875 36.660156 -17.910156 36.390625 -18.796875 C 36.128906 -19.679688 35.644531 -20.390625 34.9375 -20.921875 C 34.238281 -21.453125 33.242188 -21.71875 31.953125 -21.71875 C 30.679688 -21.71875 29.597656 -21.453125 28.703125 -20.921875 C 27.804688 -20.390625 27.132812 -19.679688 26.6875 -18.796875 C 26.238281 -17.910156 26.015625 -16.921875 26.015625 -15.828125 L 26.015625 -3.046875 C 26.015625 -2.179688 25.726562 -1.457031 25.15625 -0.875 C 24.59375 -0.289062 23.878906 0 23.015625 0 C 22.148438 0 21.429688 -0.289062 20.859375 -0.875 C 20.296875 -1.457031 20.015625 -2.179688 20.015625 -3.046875 L 20.015625 -15.828125 C 20.015625 -16.921875 19.878906 -17.910156 19.609375 -18.796875 C 19.347656 -19.679688 18.867188 -20.390625 18.171875 -20.921875 C 17.472656 -21.453125 16.472656 -21.71875 15.171875 -21.71875 C 13.910156 -21.71875 12.828125 -21.453125 11.921875 -20.921875 C 11.023438 -20.390625 10.351562 -19.679688 9.90625 -18.796875 C 9.457031 -17.910156 9.234375 -16.921875 9.234375 -15.828125 L 9.234375 -3.046875 C 9.234375 -2.179688 8.945312 -1.457031 8.375 -0.875 C 7.8125 -0.289062 7.097656 0 6.234375 0 C 5.367188 0 4.65625 -0.289062 4.09375 -0.875 C 3.53125 -1.457031 3.25 -2.179688 3.25 -3.046875 L 3.25 -23.65625 C 3.25 -24.53125 3.53125 -25.253906 4.09375 -25.828125 C 4.65625 -26.410156 5.367188 -26.703125 6.234375 -26.703125 C 7.097656 -26.703125 7.8125 -26.410156 8.375 -25.828125 C 8.945312 -25.253906 9.234375 -24.53125 9.234375 -23.65625 L 9.234375 -21.515625 L 8.484375 -21.671875 C 8.785156 -22.234375 9.203125 -22.835938 9.734375 -23.484375 C 10.265625 -24.140625 10.910156 -24.75 11.671875 -25.3125 C 12.441406 -25.875 13.289062 -26.328125 14.21875 -26.671875 C 15.15625 -27.023438 16.171875 -27.203125 17.265625 -27.203125 Z M 17.265625 -27.203125 "/></g></g></g><g fill="#00215e" fill-opacity="1"><g transform="translate(57.368242, 209.924518)"><g><path d="M 25.109375 -27.203125 C 25.972656 -27.203125 26.6875 -26.921875 27.25 -26.359375 C 27.820312 -25.796875 28.109375 -25.0625 28.109375 -24.15625 L 28.109375 -3.046875 C 28.109375 -2.179688 27.820312 -1.457031 27.25 -0.875 C 26.6875 -0.289062 25.972656 0 25.109375 0 C 24.242188 0 23.523438 -0.289062 22.953125 -0.875 C 22.390625 -1.457031 22.109375 -2.179688 22.109375 -3.046875 L 22.109375 -5.484375 L 23.21875 -5.046875 C 23.21875 -4.609375 22.984375 -4.082031 22.515625 -3.46875 C 22.046875 -2.851562 21.410156 -2.242188 20.609375 -1.640625 C 19.816406 -1.046875 18.878906 -0.539062 17.796875 -0.125 C 16.710938 0.289062 15.539062 0.5 14.28125 0.5 C 11.976562 0.5 9.894531 -0.0859375 8.03125 -1.265625 C 6.164062 -2.453125 4.691406 -4.082031 3.609375 -6.15625 C 2.535156 -8.238281 2 -10.628906 2 -13.328125 C 2 -16.054688 2.535156 -18.457031 3.609375 -20.53125 C 4.691406 -22.613281 6.148438 -24.242188 7.984375 -25.421875 C 9.816406 -26.609375 11.847656 -27.203125 14.078125 -27.203125 C 15.503906 -27.203125 16.816406 -26.984375 18.015625 -26.546875 C 19.210938 -26.117188 20.253906 -25.570312 21.140625 -24.90625 C 22.023438 -24.238281 22.707031 -23.5625 23.1875 -22.875 C 23.664062 -22.195312 23.90625 -21.628906 23.90625 -21.171875 L 22.109375 -20.515625 L 22.109375 -24.15625 C 22.109375 -25.019531 22.390625 -25.742188 22.953125 -26.328125 C 23.523438 -26.910156 24.242188 -27.203125 25.109375 -27.203125 Z M 15.03125 -5 C 16.488281 -5 17.765625 -5.363281 18.859375 -6.09375 C 19.960938 -6.820312 20.820312 -7.816406 21.4375 -9.078125 C 22.050781 -10.347656 22.359375 -11.765625 22.359375 -13.328125 C 22.359375 -14.921875 22.050781 -16.347656 21.4375 -17.609375 C 20.820312 -18.878906 19.960938 -19.878906 18.859375 -20.609375 C 17.765625 -21.347656 16.488281 -21.71875 15.03125 -21.71875 C 13.59375 -21.71875 12.320312 -21.347656 11.21875 -20.609375 C 10.125 -19.878906 9.269531 -18.878906 8.65625 -17.609375 C 8.039062 -16.347656 7.734375 -14.921875 7.734375 -13.328125 C 7.734375 -11.765625 8.039062 -10.347656 8.65625 -9.078125 C 9.269531 -7.816406 10.125 -6.820312 11.21875 -6.09375 C 12.320312 -5.363281 13.59375 -5 15.03125 -5 Z M 15.03125 -5 "/></g></g></g><g fill="#00215e" fill-opacity="1"><g transform="translate(88.714778, 209.924518)"><g><path d="M 6.734375 0 C 5.867188 0 5.15625 -0.289062 4.59375 -0.875 C 4.03125 -1.457031 3.75 -2.179688 3.75 -3.046875 L 3.75 -33.890625 C 3.75 -34.753906 4.03125 -35.476562 4.59375 -36.0625 C 5.15625 -36.644531 5.867188 -36.9375 6.734375 -36.9375 C 7.597656 -36.9375 8.3125 -36.644531 8.875 -36.0625 C 9.445312 -35.476562 9.734375 -34.753906 9.734375 -33.890625 L 9.734375 -3.046875 C 9.734375 -2.179688 9.445312 -1.457031 8.875 -0.875 C 8.3125 -0.289062 7.597656 0 6.734375 0 Z M 22.609375 -26.703125 C 23.378906 -26.703125 24.046875 -26.382812 24.609375 -25.75 C 25.171875 -25.125 25.453125 -24.507812 25.453125 -23.90625 C 25.453125 -23.113281 25.054688 -22.367188 24.265625 -21.671875 L 9.234375 -7.84375 L 8.984375 -14.734375 L 20.421875 -25.765625 C 21.046875 -26.390625 21.773438 -26.703125 22.609375 -26.703125 Z M 23.359375 -0.046875 C 22.492188 -0.046875 21.765625 -0.378906 21.171875 -1.046875 L 11.9375 -10.828125 L 16.46875 -15.03125 L 25.453125 -5.234375 C 26.085938 -4.578125 26.40625 -3.832031 26.40625 -3 C 26.40625 -2.132812 26.0625 -1.425781 25.375 -0.875 C 24.695312 -0.320312 24.023438 -0.046875 23.359375 -0.046875 Z M 23.359375 -0.046875 "/></g></g></g><g fill="#00215e" fill-opacity="1"><g transform="translate(117.116338, 209.924518)"><g><path d="M 15.828125 0.5 C 12.992188 0.5 10.535156 -0.0859375 8.453125 -1.265625 C 6.378906 -2.453125 4.785156 -4.0625 3.671875 -6.09375 C 2.554688 -8.125 2 -10.421875 2 -12.984375 C 2 -15.972656 2.601562 -18.523438 3.8125 -20.640625 C 5.03125 -22.753906 6.617188 -24.375 8.578125 -25.5 C 10.546875 -26.632812 12.628906 -27.203125 14.828125 -27.203125 C 16.523438 -27.203125 18.128906 -26.851562 19.640625 -26.15625 C 21.160156 -25.457031 22.5 -24.5 23.65625 -23.28125 C 24.820312 -22.070312 25.742188 -20.664062 26.421875 -19.0625 C 27.109375 -17.46875 27.453125 -15.773438 27.453125 -13.984375 C 27.421875 -13.179688 27.101562 -12.53125 26.5 -12.03125 C 25.90625 -11.53125 25.207031 -11.28125 24.40625 -11.28125 L 5.34375 -11.28125 L 3.84375 -16.28125 L 22.171875 -16.28125 L 21.0625 -15.28125 L 21.0625 -16.625 C 21 -17.59375 20.660156 -18.457031 20.046875 -19.21875 C 19.429688 -19.988281 18.664062 -20.597656 17.75 -21.046875 C 16.832031 -21.492188 15.859375 -21.71875 14.828125 -21.71875 C 13.828125 -21.71875 12.894531 -21.582031 12.03125 -21.3125 C 11.164062 -21.050781 10.414062 -20.601562 9.78125 -19.96875 C 9.15625 -19.332031 8.65625 -18.484375 8.28125 -17.421875 C 7.914062 -16.359375 7.734375 -15.007812 7.734375 -13.375 C 7.734375 -11.582031 8.109375 -10.0625 8.859375 -8.8125 C 9.609375 -7.5625 10.570312 -6.613281 11.75 -5.96875 C 12.9375 -5.320312 14.195312 -5 15.53125 -5 C 16.757812 -5 17.738281 -5.097656 18.46875 -5.296875 C 19.195312 -5.492188 19.785156 -5.734375 20.234375 -6.015625 C 20.691406 -6.296875 21.101562 -6.535156 21.46875 -6.734375 C 22.0625 -7.035156 22.625 -7.1875 23.15625 -7.1875 C 23.894531 -7.1875 24.503906 -6.9375 24.984375 -6.4375 C 25.460938 -5.9375 25.703125 -5.351562 25.703125 -4.6875 C 25.703125 -3.789062 25.238281 -2.976562 24.3125 -2.25 C 23.445312 -1.507812 22.234375 -0.863281 20.671875 -0.3125 C 19.109375 0.226562 17.492188 0.5 15.828125 0.5 Z M 15.828125 0.5 "/></g></g></g><g fill="#00215e" fill-opacity="1"><g transform="translate(11.346731, 279.566541)"><g><path d="M 17.078125 -27.203125 C 19.398438 -27.203125 21.484375 -26.609375 23.328125 -25.421875 C 25.179688 -24.242188 26.648438 -22.625 27.734375 -20.5625 C 28.816406 -18.5 29.359375 -16.101562 29.359375 -13.375 C 29.359375 -10.644531 28.816406 -8.238281 27.734375 -6.15625 C 26.648438 -4.082031 25.203125 -2.453125 23.390625 -1.265625 C 21.578125 -0.0859375 19.535156 0.5 17.265625 0.5 C 15.941406 0.5 14.695312 0.285156 13.53125 -0.140625 C 12.363281 -0.578125 11.335938 -1.128906 10.453125 -1.796875 C 9.578125 -2.460938 8.894531 -3.132812 8.40625 -3.8125 C 7.925781 -4.5 7.6875 -5.078125 7.6875 -5.546875 L 9.234375 -6.1875 L 9.234375 6.9375 C 9.234375 7.800781 8.945312 8.523438 8.375 9.109375 C 7.8125 9.691406 7.097656 9.984375 6.234375 9.984375 C 5.367188 9.984375 4.65625 9.695312 4.09375 9.125 C 3.53125 8.5625 3.25 7.832031 3.25 6.9375 L 3.25 -23.65625 C 3.25 -24.53125 3.53125 -25.253906 4.09375 -25.828125 C 4.65625 -26.410156 5.367188 -26.703125 6.234375 -26.703125 C 7.097656 -26.703125 7.8125 -26.410156 8.375 -25.828125 C 8.945312 -25.253906 9.234375 -24.53125 9.234375 -23.65625 L 9.234375 -21.21875 L 8.390625 -21.671875 C 8.390625 -22.097656 8.617188 -22.617188 9.078125 -23.234375 C 9.546875 -23.847656 10.179688 -24.460938 10.984375 -25.078125 C 11.785156 -25.703125 12.707031 -26.210938 13.75 -26.609375 C 14.800781 -27.003906 15.910156 -27.203125 17.078125 -27.203125 Z M 16.328125 -21.71875 C 14.859375 -21.71875 13.570312 -21.347656 12.46875 -20.609375 C 11.375 -19.878906 10.519531 -18.890625 9.90625 -17.640625 C 9.289062 -16.398438 8.984375 -14.976562 8.984375 -13.375 C 8.984375 -11.8125 9.289062 -10.390625 9.90625 -9.109375 C 10.519531 -7.828125 11.375 -6.820312 12.46875 -6.09375 C 13.570312 -5.363281 14.859375 -5 16.328125 -5 C 17.785156 -5 19.054688 -5.363281 20.140625 -6.09375 C 21.222656 -6.820312 22.070312 -7.828125 22.6875 -9.109375 C 23.300781 -10.390625 23.609375 -11.8125 23.609375 -13.375 C 23.609375 -14.976562 23.300781 -16.398438 22.6875 -17.640625 C 22.070312 -18.890625 21.222656 -19.878906 20.140625 -20.609375 C 19.054688 -21.347656 17.785156 -21.71875 16.328125 -21.71875 Z M 16.328125 -21.71875 "/></g></g></g><g fill="#00215e" fill-opacity="1"><g transform="translate(42.693268, 279.566541)"><g><path d="M 15.828125 0.5 C 12.992188 0.5 10.535156 -0.0859375 8.453125 -1.265625 C 6.378906 -2.453125 4.785156 -4.0625 3.671875 -6.09375 C 2.554688 -8.125 2 -10.421875 2 -12.984375 C 2 -15.972656 2.601562 -18.523438 3.8125 -20.640625 C 5.03125 -22.753906 6.617188 -24.375 8.578125 -25.5 C 10.546875 -26.632812 12.628906 -27.203125 14.828125 -27.203125 C 16.523438 -27.203125 18.128906 -26.851562 19.640625 -26.15625 C 21.160156 -25.457031 22.5 -24.5 23.65625 -23.28125 C 24.820312 -22.070312 25.742188 -20.664062 26.421875 -19.0625 C 27.109375 -17.46875 27.453125 -15.773438 27.453125 -13.984375 C 27.421875 -13.179688 27.101562 -12.53125 26.5 -12.03125 C 25.90625 -11.53125 25.207031 -11.28125 24.40625 -11.28125 L 5.34375 -11.28125 L 3.84375 -16.28125 L 22.171875 -16.28125 L 21.0625 -15.28125 L 21.0625 -16.625 C 21 -17.59375 20.660156 -18.457031 20.046875 -19.21875 C 19.429688 -19.988281 18.664062 -20.597656 17.75 -21.046875 C 16.832031 -21.492188 15.859375 -21.71875 14.828125 -21.71875 C 13.828125 -21.71875 12.894531 -21.582031 12.03125 -21.3125 C 11.164062 -21.050781 10.414062 -20.601562 9.78125 -19.96875 C 9.15625 -19.332031 8.65625 -18.484375 8.28125 -17.421875 C 7.914062 -16.359375 7.734375 -15.007812 7.734375 -13.375 C 7.734375 -11.582031 8.109375 -10.0625 8.859375 -8.8125 C 9.609375 -7.5625 10.570312 -6.613281 11.75 -5.96875 C 12.9375 -5.320312 14.195312 -5 15.53125 -5 C 16.757812 -5 17.738281 -5.097656 18.46875 -5.296875 C 19.195312 -5.492188 19.785156 -5.734375 20.234375 -6.015625 C 20.691406 -6.296875 21.101562 -6.535156 21.46875 -6.734375 C 22.0625 -7.035156 22.625 -7.1875 23.15625 -7.1875 C 23.894531 -7.1875 24.503906 -6.9375 24.984375 -6.4375 C 25.460938 -5.9375 25.703125 -5.351562 25.703125 -4.6875 C 25.703125 -3.789062 25.238281 -2.976562 24.3125 -2.25 C 23.445312 -1.507812 22.234375 -0.863281 20.671875 -0.3125 C 19.109375 0.226562 17.492188 0.5 15.828125 0.5 Z M 15.828125 0.5 "/></g></g></g><g fill="#00215e" fill-opacity="1"><g transform="translate(72.143037, 279.566541)"><g><path d="M 6.234375 0 C 5.367188 0 4.65625 -0.289062 4.09375 -0.875 C 3.53125 -1.457031 3.25 -2.179688 3.25 -3.046875 L 3.25 -23.65625 C 3.25 -24.53125 3.53125 -25.253906 4.09375 -25.828125 C 4.65625 -26.410156 5.367188 -26.703125 6.234375 -26.703125 C 7.097656 -26.703125 7.8125 -26.410156 8.375 -25.828125 C 8.945312 -25.253906 9.234375 -24.53125 9.234375 -23.65625 L 9.234375 -18.96875 L 8.890625 -22.3125 C 9.253906 -23.113281 9.726562 -23.820312 10.3125 -24.4375 C 10.894531 -25.050781 11.550781 -25.566406 12.28125 -25.984375 C 13.007812 -26.398438 13.789062 -26.707031 14.625 -26.90625 C 15.457031 -27.101562 16.289062 -27.203125 17.125 -27.203125 C 18.125 -27.203125 18.960938 -26.921875 19.640625 -26.359375 C 20.328125 -25.796875 20.671875 -25.128906 20.671875 -24.359375 C 20.671875 -23.265625 20.382812 -22.472656 19.8125 -21.984375 C 19.25 -21.503906 18.632812 -21.265625 17.96875 -21.265625 C 17.332031 -21.265625 16.753906 -21.378906 16.234375 -21.609375 C 15.722656 -21.847656 15.140625 -21.96875 14.484375 -21.96875 C 13.878906 -21.96875 13.269531 -21.820312 12.65625 -21.53125 C 12.039062 -21.25 11.472656 -20.804688 10.953125 -20.203125 C 10.441406 -19.609375 10.023438 -18.867188 9.703125 -17.984375 C 9.390625 -17.109375 9.234375 -16.070312 9.234375 -14.875 L 9.234375 -3.046875 C 9.234375 -2.179688 8.945312 -1.457031 8.375 -0.875 C 7.8125 -0.289062 7.097656 0 6.234375 0 Z M 6.234375 0 "/></g></g></g><g fill="#00215e" fill-opacity="1"><g transform="translate(93.806097, 279.566541)"><g><path d="M 16.96875 -36.9375 C 17.707031 -36.9375 18.425781 -36.835938 19.125 -36.640625 C 19.820312 -36.441406 20.398438 -36.117188 20.859375 -35.671875 C 21.328125 -35.222656 21.5625 -34.628906 21.5625 -33.890625 C 21.5625 -33.066406 21.320312 -32.410156 20.84375 -31.921875 C 20.363281 -31.441406 19.804688 -31.203125 19.171875 -31.203125 C 18.867188 -31.203125 18.414062 -31.273438 17.8125 -31.421875 C 17.21875 -31.578125 16.640625 -31.65625 16.078125 -31.65625 C 15.242188 -31.65625 14.601562 -31.46875 14.15625 -31.09375 C 13.707031 -30.726562 13.398438 -30.304688 13.234375 -29.828125 C 13.066406 -29.347656 12.984375 -28.925781 12.984375 -28.5625 L 12.984375 -3.046875 C 12.984375 -2.179688 12.695312 -1.457031 12.125 -0.875 C 11.5625 -0.289062 10.847656 0 9.984375 0 C 9.117188 0 8.398438 -0.289062 7.828125 -0.875 C 7.265625 -1.457031 6.984375 -2.179688 6.984375 -3.046875 L 6.984375 -28.5 C 6.984375 -30.863281 7.816406 -32.859375 9.484375 -34.484375 C 11.148438 -36.117188 13.644531 -36.9375 16.96875 -36.9375 Z M 17.515625 -26.203125 C 18.316406 -26.203125 18.984375 -25.941406 19.515625 -25.421875 C 20.046875 -24.910156 20.3125 -24.257812 20.3125 -23.46875 C 20.3125 -22.664062 20.046875 -22.003906 19.515625 -21.484375 C 18.984375 -20.972656 18.316406 -20.71875 17.515625 -20.71875 L 4.296875 -20.71875 C 3.492188 -20.71875 2.828125 -20.972656 2.296875 -21.484375 C 1.765625 -22.003906 1.5 -22.664062 1.5 -23.46875 C 1.5 -24.257812 1.765625 -24.910156 2.296875 -25.421875 C 2.828125 -25.941406 3.492188 -26.203125 4.296875 -26.203125 Z M 17.515625 -26.203125 "/></g></g></g><g fill="#00215e" fill-opacity="1"><g transform="translate(115.6189, 279.566541)"><g><path d="M 15.828125 0.5 C 12.992188 0.5 10.535156 -0.0859375 8.453125 -1.265625 C 6.378906 -2.453125 4.785156 -4.0625 3.671875 -6.09375 C 2.554688 -8.125 2 -10.421875 2 -12.984375 C 2 -15.972656 2.601562 -18.523438 3.8125 -20.640625 C 5.03125 -22.753906 6.617188 -24.375 8.578125 -25.5 C 10.546875 -26.632812 12.628906 -27.203125 14.828125 -27.203125 C 16.523438 -27.203125 18.128906 -26.851562 19.640625 -26.15625 C 21.160156 -25.457031 22.5 -24.5 23.65625 -23.28125 C 24.820312 -22.070312 25.742188 -20.664062 26.421875 -19.0625 C 27.109375 -17.46875 27.453125 -15.773438 27.453125 -13.984375 C 27.421875 -13.179688 27.101562 -12.53125 26.5 -12.03125 C 25.90625 -11.53125 25.207031 -11.28125 24.40625 -11.28125 L 5.34375 -11.28125 L 3.84375 -16.28125 L 22.171875 -16.28125 L 21.0625 -15.28125 L 21.0625 -16.625 C 21 -17.59375 20.660156 -18.457031 20.046875 -19.21875 C 19.429688 -19.988281 18.664062 -20.597656 17.75 -21.046875 C 16.832031 -21.492188 15.859375 -21.71875 14.828125 -21.71875 C 13.828125 -21.71875 12.894531 -21.582031 12.03125 -21.3125 C 11.164062 -21.050781 10.414062 -20.601562 9.78125 -19.96875 C 9.15625 -19.332031 8.65625 -18.484375 8.28125 -17.421875 C 7.914062 -16.359375 7.734375 -15.007812 7.734375 -13.375 C 7.734375 -11.582031 8.109375 -10.0625 8.859375 -8.8125 C 9.609375 -7.5625 10.570312 -6.613281 11.75 -5.96875 C 12.9375 -5.320312 14.195312 -5 15.53125 -5 C 16.757812 -5 17.738281 -5.097656 18.46875 -5.296875 C 19.195312 -5.492188 19.785156 -5.734375 20.234375 -6.015625 C 20.691406 -6.296875 21.101562 -6.535156 21.46875 -6.734375 C 22.0625 -7.035156 22.625 -7.1875 23.15625 -7.1875 C 23.894531 -7.1875 24.503906 -6.9375 24.984375 -6.4375 C 25.460938 -5.9375 25.703125 -5.351562 25.703125 -4.6875 C 25.703125 -3.789062 25.238281 -2.976562 24.3125 -2.25 C 23.445312 -1.507812 22.234375 -0.863281 20.671875 -0.3125 C 19.109375 0.226562 17.492188 0.5 15.828125 0.5 Z M 15.828125 0.5 "/></g></g></g><g fill="#00215e" fill-opacity="1"><g transform="translate(145.068669, 279.566541)"><g><path d="M 15.125 -27.203125 C 17.019531 -27.203125 18.675781 -27.003906 20.09375 -26.609375 C 21.507812 -26.210938 22.609375 -25.65625 23.390625 -24.9375 C 24.171875 -24.21875 24.5625 -23.359375 24.5625 -22.359375 C 24.5625 -21.691406 24.359375 -21.066406 23.953125 -20.484375 C 23.554688 -19.910156 22.976562 -19.625 22.21875 -19.625 C 21.6875 -19.625 21.242188 -19.695312 20.890625 -19.84375 C 20.546875 -19.988281 20.238281 -20.175781 19.96875 -20.40625 C 19.695312 -20.644531 19.378906 -20.863281 19.015625 -21.0625 C 18.679688 -21.257812 18.171875 -21.414062 17.484375 -21.53125 C 16.804688 -21.65625 16.300781 -21.71875 15.96875 -21.71875 C 14.269531 -21.71875 12.832031 -21.347656 11.65625 -20.609375 C 10.476562 -19.878906 9.570312 -18.890625 8.9375 -17.640625 C 8.300781 -16.398438 7.984375 -14.960938 7.984375 -13.328125 C 7.984375 -11.734375 8.304688 -10.3125 8.953125 -9.0625 C 9.609375 -7.8125 10.507812 -6.820312 11.65625 -6.09375 C 12.800781 -5.363281 14.125 -5 15.625 -5 C 16.457031 -5 17.171875 -5.046875 17.765625 -5.140625 C 18.367188 -5.242188 18.867188 -5.394531 19.265625 -5.59375 C 19.734375 -5.851562 20.148438 -6.132812 20.515625 -6.4375 C 20.878906 -6.738281 21.429688 -6.890625 22.171875 -6.890625 C 23.035156 -6.890625 23.695312 -6.613281 24.15625 -6.0625 C 24.625 -5.507812 24.859375 -4.835938 24.859375 -4.046875 C 24.859375 -3.210938 24.390625 -2.453125 23.453125 -1.765625 C 22.523438 -1.085938 21.300781 -0.539062 19.78125 -0.125 C 18.269531 0.289062 16.632812 0.5 14.875 0.5 C 12.25 0.5 9.96875 -0.101562 8.03125 -1.3125 C 6.101562 -2.53125 4.613281 -4.1875 3.5625 -6.28125 C 2.519531 -8.382812 2 -10.734375 2 -13.328125 C 2 -16.054688 2.554688 -18.457031 3.671875 -20.53125 C 4.785156 -22.613281 6.332031 -24.242188 8.3125 -25.421875 C 10.289062 -26.609375 12.5625 -27.203125 15.125 -27.203125 Z M 15.125 -27.203125 "/></g></g></g><g fill="#00215e" fill-opacity="1"><g transform="translate(171.024402, 279.566541)"><g><path d="M 3.546875 -26.203125 L 15.375 -26.203125 C 16.175781 -26.203125 16.84375 -25.9375 17.375 -25.40625 C 17.90625 -24.875 18.171875 -24.207031 18.171875 -23.40625 C 18.171875 -22.644531 17.90625 -22.003906 17.375 -21.484375 C 16.84375 -20.972656 16.175781 -20.71875 15.375 -20.71875 L 3.546875 -20.71875 C 2.742188 -20.71875 2.078125 -20.984375 1.546875 -21.515625 C 1.015625 -22.046875 0.75 -22.710938 0.75 -23.515625 C 0.75 -24.273438 1.015625 -24.910156 1.546875 -25.421875 C 2.078125 -25.941406 2.742188 -26.203125 3.546875 -26.203125 Z M 8.890625 -32.453125 C 9.753906 -32.453125 10.457031 -32.160156 11 -31.578125 C 11.550781 -30.992188 11.828125 -30.269531 11.828125 -29.40625 L 11.828125 -7.1875 C 11.828125 -6.71875 11.914062 -6.332031 12.09375 -6.03125 C 12.28125 -5.738281 12.53125 -5.523438 12.84375 -5.390625 C 13.164062 -5.253906 13.507812 -5.1875 13.875 -5.1875 C 14.28125 -5.1875 14.644531 -5.257812 14.96875 -5.40625 C 15.300781 -5.5625 15.6875 -5.640625 16.125 -5.640625 C 16.59375 -5.640625 17.015625 -5.421875 17.390625 -4.984375 C 17.773438 -4.554688 17.96875 -3.957031 17.96875 -3.1875 C 17.96875 -2.257812 17.457031 -1.492188 16.4375 -0.890625 C 15.425781 -0.296875 14.335938 0 13.171875 0 C 12.472656 0 11.695312 -0.0546875 10.84375 -0.171875 C 10 -0.285156 9.203125 -0.566406 8.453125 -1.015625 C 7.710938 -1.472656 7.09375 -2.164062 6.59375 -3.09375 C 6.09375 -4.03125 5.84375 -5.3125 5.84375 -6.9375 L 5.84375 -29.40625 C 5.84375 -30.269531 6.132812 -30.992188 6.71875 -31.578125 C 7.300781 -32.160156 8.023438 -32.453125 8.890625 -32.453125 Z M 8.890625 -32.453125 "/></g></g></g></svg>