<svg xmlns="http://www.w3.org/2000/svg" xmlns:xlink="http://www.w3.org/1999/xlink" width="300" zoomAndPan="magnify" viewBox="0 0 224.87999 322.499991" height="430" preserveAspectRatio="xMidYMid meet" version="1.0"><defs><g/><clipPath id="3fc513c1ad"><path d="M 0.113281 0 L 224.644531 0 L 224.644531 322 L 0.113281 322 Z M 0.113281 0 " clip-rule="nonzero"/></clipPath><clipPath id="e95409eaf6"><path d="M 10.542969 0 L 214.339844 0 C 220.097656 0 224.765625 4.667969 224.765625 10.425781 L 224.765625 311.574219 C 224.765625 317.332031 220.097656 322 214.339844 322 L 10.542969 322 C 4.78125 322 0.113281 317.332031 0.113281 311.574219 L 0.113281 10.425781 C 0.113281 4.667969 4.78125 0 10.542969 0 Z M 10.542969 0 " clip-rule="nonzero"/></clipPath></defs><g clip-path="url(#3fc513c1ad)"><g clip-path="url(#e95409eaf6)"><path fill="#b68d40" d="M 0.113281 0 L 224.765625 0 L 224.765625 322.058594 L 0.113281 322.058594 Z M 0.113281 0 " fill-opacity="1" fill-rule="nonzero"/><path stroke-linecap="butt" transform="matrix(0.748839, 0, 0, 0.748839, 0.114147, 0.000000000000021283)" fill="none" stroke-linejoin="miter" d="M 13.926656 -0.000000000000028422 L 286.077145 -0.000000000000028422 C 293.766131 -0.000000000000028422 299.99974 6.233609 299.99974 13.922596 L 299.99974 416.076429 C 299.99974 423.765416 293.766131 429.999025 286.077145 429.999025 L 13.926656 429.999025 C 6.232452 429.999025 -0.00115626 423.765416 -0.00115626 416.076429 L -0.00115626 13.922596 C -0.00115626 6.233609 6.232452 -0.000000000000028422 13.926656 -0.000000000000028422 Z M 13.926656 -0.000000000000028422 " stroke="#000000" stroke-width="2" stroke-opacity="1" stroke-miterlimit="4"/></g></g><g fill="#00215e" fill-opacity="1"><g transform="translate(22.579316, 74.883894)"><g><path d="M 22.859375 -5.484375 C 23.660156 -5.484375 24.328125 -5.21875 24.859375 -4.6875 C 25.390625 -4.15625 25.65625 -3.492188 25.65625 -2.703125 C 25.65625 -1.929688 25.390625 -1.285156 24.859375 -0.765625 C 24.328125 -0.253906 23.660156 0 22.859375 0 L 5.890625 0 C 5.023438 0 4.34375 -0.265625 3.84375 -0.796875 C 3.34375 -1.328125 3.09375 -2.007812 3.09375 -2.84375 C 3.09375 -3.675781 3.394531 -4.410156 4 -5.046875 L 14.875 -16.671875 C 16.101562 -18.003906 17.078125 -19.367188 17.796875 -20.765625 C 18.515625 -22.160156 18.875 -23.375 18.875 -24.40625 C 18.875 -26.070312 18.390625 -27.410156 17.421875 -28.421875 C 16.453125 -29.441406 15.171875 -29.953125 13.578125 -29.953125 C 12.941406 -29.953125 12.289062 -29.800781 11.625 -29.5 C 10.96875 -29.195312 10.328125 -28.78125 9.703125 -28.25 C 9.085938 -27.71875 8.515625 -27.101562 7.984375 -26.40625 C 7.585938 -25.875 7.1875 -25.539062 6.78125 -25.40625 C 6.382812 -25.269531 6.019531 -25.203125 5.6875 -25.203125 C 4.957031 -25.203125 4.285156 -25.476562 3.671875 -26.03125 C 3.054688 -26.582031 2.75 -27.222656 2.75 -27.953125 C 2.75 -28.523438 2.9375 -29.078125 3.3125 -29.609375 C 3.695312 -30.140625 4.175781 -30.6875 4.75 -31.25 C 5.570312 -32.082031 6.5 -32.8125 7.53125 -33.4375 C 8.5625 -34.070312 9.625 -34.5625 10.71875 -34.90625 C 11.820312 -35.257812 12.890625 -35.4375 13.921875 -35.4375 C 16.148438 -35.4375 18.085938 -34.992188 19.734375 -34.109375 C 21.390625 -33.234375 22.664062 -31.988281 23.5625 -30.375 C 24.457031 -28.757812 24.90625 -26.851562 24.90625 -24.65625 C 24.90625 -22.832031 24.363281 -20.796875 23.28125 -18.546875 C 22.207031 -16.296875 20.753906 -14.191406 18.921875 -12.234375 L 12.1875 -5.046875 L 11.625 -5.484375 Z M 22.859375 -5.484375 "/></g></g></g><g fill="#00215e" fill-opacity="1"><g transform="translate(50.980875, 74.883894)"><g><path d="M 5.890625 -0.046875 C 4.921875 -0.046875 4.175781 -0.300781 3.65625 -0.8125 C 3.144531 -1.332031 2.890625 -2.078125 2.890625 -3.046875 L 2.890625 -3.890625 C 2.890625 -4.859375 3.144531 -5.597656 3.65625 -6.109375 C 4.175781 -6.628906 4.921875 -6.890625 5.890625 -6.890625 L 6.546875 -6.890625 C 7.503906 -6.890625 8.238281 -6.628906 8.75 -6.109375 C 9.269531 -5.597656 9.53125 -4.859375 9.53125 -3.890625 L 9.53125 -3.046875 C 9.53125 -2.078125 9.269531 -1.332031 8.75 -0.8125 C 8.238281 -0.300781 7.503906 -0.046875 6.546875 -0.046875 Z M 5.890625 -0.046875 "/></g></g></g><g fill="#00215e" fill-opacity="1"><g transform="translate(22.579316, 144.525917)"><g><path d="M 23.0625 -26.703125 C 23.925781 -26.703125 24.640625 -26.410156 25.203125 -25.828125 C 25.773438 -25.253906 26.0625 -24.53125 26.0625 -23.65625 L 26.0625 -10.984375 C 26.0625 -7.453125 25.078125 -4.65625 23.109375 -2.59375 C 21.148438 -0.53125 18.320312 0.5 14.625 0.5 C 10.925781 0.5 8.101562 -0.53125 6.15625 -2.59375 C 4.21875 -4.65625 3.25 -7.453125 3.25 -10.984375 L 3.25 -23.65625 C 3.25 -24.53125 3.53125 -25.253906 4.09375 -25.828125 C 4.65625 -26.410156 5.367188 -26.703125 6.234375 -26.703125 C 7.097656 -26.703125 7.8125 -26.410156 8.375 -25.828125 C 8.945312 -25.253906 9.234375 -24.53125 9.234375 -23.65625 L 9.234375 -10.984375 C 9.234375 -8.953125 9.679688 -7.445312 10.578125 -6.46875 C 11.484375 -5.488281 12.832031 -5 14.625 -5 C 16.457031 -5 17.820312 -5.488281 18.71875 -6.46875 C 19.613281 -7.445312 20.0625 -8.953125 20.0625 -10.984375 L 20.0625 -23.65625 C 20.0625 -24.53125 20.34375 -25.253906 20.90625 -25.828125 C 21.476562 -26.410156 22.195312 -26.703125 23.0625 -26.703125 Z M 23.0625 -26.703125 "/></g></g></g><g fill="#00215e" fill-opacity="1"><g transform="translate(51.879343, 144.525917)"><g><path d="M 17.078125 -27.203125 C 19.398438 -27.203125 21.484375 -26.609375 23.328125 -25.421875 C 25.179688 -24.242188 26.648438 -22.625 27.734375 -20.5625 C 28.816406 -18.5 29.359375 -16.101562 29.359375 -13.375 C 29.359375 -10.644531 28.816406 -8.238281 27.734375 -6.15625 C 26.648438 -4.082031 25.203125 -2.453125 23.390625 -1.265625 C 21.578125 -0.0859375 19.535156 0.5 17.265625 0.5 C 15.941406 0.5 14.695312 0.285156 13.53125 -0.140625 C 12.363281 -0.578125 11.335938 -1.128906 10.453125 -1.796875 C 9.578125 -2.460938 8.894531 -3.132812 8.40625 -3.8125 C 7.925781 -4.5 7.6875 -5.078125 7.6875 -5.546875 L 9.234375 -6.1875 L 9.234375 6.9375 C 9.234375 7.800781 8.945312 8.523438 8.375 9.109375 C 7.8125 9.691406 7.097656 9.984375 6.234375 9.984375 C 5.367188 9.984375 4.65625 9.695312 4.09375 9.125 C 3.53125 8.5625 3.25 7.832031 3.25 6.9375 L 3.25 -23.65625 C 3.25 -24.53125 3.53125 -25.253906 4.09375 -25.828125 C 4.65625 -26.410156 5.367188 -26.703125 6.234375 -26.703125 C 7.097656 -26.703125 7.8125 -26.410156 8.375 -25.828125 C 8.945312 -25.253906 9.234375 -24.53125 9.234375 -23.65625 L 9.234375 -21.21875 L 8.390625 -21.671875 C 8.390625 -22.097656 8.617188 -22.617188 9.078125 -23.234375 C 9.546875 -23.847656 10.179688 -24.460938 10.984375 -25.078125 C 11.785156 -25.703125 12.707031 -26.210938 13.75 -26.609375 C 14.800781 -27.003906 15.910156 -27.203125 17.078125 -27.203125 Z M 16.328125 -21.71875 C 14.859375 -21.71875 13.570312 -21.347656 12.46875 -20.609375 C 11.375 -19.878906 10.519531 -18.890625 9.90625 -17.640625 C 9.289062 -16.398438 8.984375 -14.976562 8.984375 -13.375 C 8.984375 -11.8125 9.289062 -10.390625 9.90625 -9.109375 C 10.519531 -7.828125 11.375 -6.820312 12.46875 -6.09375 C 13.570312 -5.363281 14.859375 -5 16.328125 -5 C 17.785156 -5 19.054688 -5.363281 20.140625 -6.09375 C 21.222656 -6.820312 22.070312 -7.828125 22.6875 -9.109375 C 23.300781 -10.390625 23.609375 -11.8125 23.609375 -13.375 C 23.609375 -14.976562 23.300781 -16.398438 22.6875 -17.640625 C 22.070312 -18.890625 21.222656 -19.878906 20.140625 -20.609375 C 19.054688 -21.347656 17.785156 -21.71875 16.328125 -21.71875 Z M 16.328125 -21.71875 "/></g></g></g><g fill="#00215e" fill-opacity="1"><g transform="translate(83.225879, 144.525917)"><g><path d="M 25.109375 -36.9375 C 25.972656 -36.9375 26.6875 -36.65625 27.25 -36.09375 C 27.820312 -35.53125 28.109375 -34.796875 28.109375 -33.890625 L 28.109375 -3.046875 C 28.109375 -2.179688 27.820312 -1.457031 27.25 -0.875 C 26.6875 -0.289062 25.972656 0 25.109375 0 C 24.242188 0 23.523438 -0.289062 22.953125 -0.875 C 22.390625 -1.457031 22.109375 -2.179688 22.109375 -3.046875 L 22.109375 -5.484375 L 23.21875 -5.046875 C 23.21875 -4.609375 22.984375 -4.082031 22.515625 -3.46875 C 22.046875 -2.851562 21.410156 -2.242188 20.609375 -1.640625 C 19.816406 -1.046875 18.878906 -0.539062 17.796875 -0.125 C 16.710938 0.289062 15.539062 0.5 14.28125 0.5 C 11.976562 0.5 9.894531 -0.0859375 8.03125 -1.265625 C 6.164062 -2.453125 4.691406 -4.082031 3.609375 -6.15625 C 2.535156 -8.238281 2 -10.628906 2 -13.328125 C 2 -16.054688 2.535156 -18.457031 3.609375 -20.53125 C 4.691406 -22.613281 6.148438 -24.242188 7.984375 -25.421875 C 9.816406 -26.609375 11.847656 -27.203125 14.078125 -27.203125 C 15.503906 -27.203125 16.816406 -26.984375 18.015625 -26.546875 C 19.210938 -26.117188 20.253906 -25.570312 21.140625 -24.90625 C 22.023438 -24.238281 22.707031 -23.5625 23.1875 -22.875 C 23.664062 -22.195312 23.90625 -21.628906 23.90625 -21.171875 L 22.109375 -20.515625 L 22.109375 -33.890625 C 22.109375 -34.753906 22.390625 -35.476562 22.953125 -36.0625 C 23.523438 -36.644531 24.242188 -36.9375 25.109375 -36.9375 Z M 15.03125 -5 C 16.488281 -5 17.765625 -5.363281 18.859375 -6.09375 C 19.960938 -6.820312 20.820312 -7.816406 21.4375 -9.078125 C 22.050781 -10.347656 22.359375 -11.765625 22.359375 -13.328125 C 22.359375 -14.921875 22.050781 -16.347656 21.4375 -17.609375 C 20.820312 -18.878906 19.960938 -19.878906 18.859375 -20.609375 C 17.765625 -21.347656 16.488281 -21.71875 15.03125 -21.71875 C 13.59375 -21.71875 12.320312 -21.347656 11.21875 -20.609375 C 10.125 -19.878906 9.269531 -18.878906 8.65625 -17.609375 C 8.039062 -16.347656 7.734375 -14.921875 7.734375 -13.328125 C 7.734375 -11.765625 8.039062 -10.347656 8.65625 -9.078125 C 9.269531 -7.816406 10.125 -6.820312 11.21875 -6.09375 C 12.320312 -5.363281 13.59375 -5 15.03125 -5 Z M 15.03125 -5 "/></g></g></g><g fill="#00215e" fill-opacity="1"><g transform="translate(114.572416, 144.525917)"><g><path d="M 25.109375 -27.203125 C 25.972656 -27.203125 26.6875 -26.921875 27.25 -26.359375 C 27.820312 -25.796875 28.109375 -25.0625 28.109375 -24.15625 L 28.109375 -3.046875 C 28.109375 -2.179688 27.820312 -1.457031 27.25 -0.875 C 26.6875 -0.289062 25.972656 0 25.109375 0 C 24.242188 0 23.523438 -0.289062 22.953125 -0.875 C 22.390625 -1.457031 22.109375 -2.179688 22.109375 -3.046875 L 22.109375 -5.484375 L 23.21875 -5.046875 C 23.21875 -4.609375 22.984375 -4.082031 22.515625 -3.46875 C 22.046875 -2.851562 21.410156 -2.242188 20.609375 -1.640625 C 19.816406 -1.046875 18.878906 -0.539062 17.796875 -0.125 C 16.710938 0.289062 15.539062 0.5 14.28125 0.5 C 11.976562 0.5 9.894531 -0.0859375 8.03125 -1.265625 C 6.164062 -2.453125 4.691406 -4.082031 3.609375 -6.15625 C 2.535156 -8.238281 2 -10.628906 2 -13.328125 C 2 -16.054688 2.535156 -18.457031 3.609375 -20.53125 C 4.691406 -22.613281 6.148438 -24.242188 7.984375 -25.421875 C 9.816406 -26.609375 11.847656 -27.203125 14.078125 -27.203125 C 15.503906 -27.203125 16.816406 -26.984375 18.015625 -26.546875 C 19.210938 -26.117188 20.253906 -25.570312 21.140625 -24.90625 C 22.023438 -24.238281 22.707031 -23.5625 23.1875 -22.875 C 23.664062 -22.195312 23.90625 -21.628906 23.90625 -21.171875 L 22.109375 -20.515625 L 22.109375 -24.15625 C 22.109375 -25.019531 22.390625 -25.742188 22.953125 -26.328125 C 23.523438 -26.910156 24.242188 -27.203125 25.109375 -27.203125 Z M 15.03125 -5 C 16.488281 -5 17.765625 -5.363281 18.859375 -6.09375 C 19.960938 -6.820312 20.820312 -7.816406 21.4375 -9.078125 C 22.050781 -10.347656 22.359375 -11.765625 22.359375 -13.328125 C 22.359375 -14.921875 22.050781 -16.347656 21.4375 -17.609375 C 20.820312 -18.878906 19.960938 -19.878906 18.859375 -20.609375 C 17.765625 -21.347656 16.488281 -21.71875 15.03125 -21.71875 C 13.59375 -21.71875 12.320312 -21.347656 11.21875 -20.609375 C 10.125 -19.878906 9.269531 -18.878906 8.65625 -17.609375 C 8.039062 -16.347656 7.734375 -14.921875 7.734375 -13.328125 C 7.734375 -11.765625 8.039062 -10.347656 8.65625 -9.078125 C 9.269531 -7.816406 10.125 -6.820312 11.21875 -6.09375 C 12.320312 -5.363281 13.59375 -5 15.03125 -5 Z M 15.03125 -5 "/></g></g></g><g fill="#00215e" fill-opacity="1"><g transform="translate(145.918952, 144.525917)"><g><path d="M 3.546875 -26.203125 L 15.375 -26.203125 C 16.175781 -26.203125 16.84375 -25.9375 17.375 -25.40625 C 17.90625 -24.875 18.171875 -24.207031 18.171875 -23.40625 C 18.171875 -22.644531 17.90625 -22.003906 17.375 -21.484375 C 16.84375 -20.972656 16.175781 -20.71875 15.375 -20.71875 L 3.546875 -20.71875 C 2.742188 -20.71875 2.078125 -20.984375 1.546875 -21.515625 C 1.015625 -22.046875 0.75 -22.710938 0.75 -23.515625 C 0.75 -24.273438 1.015625 -24.910156 1.546875 -25.421875 C 2.078125 -25.941406 2.742188 -26.203125 3.546875 -26.203125 Z M 8.890625 -32.453125 C 9.753906 -32.453125 10.457031 -32.160156 11 -31.578125 C 11.550781 -30.992188 11.828125 -30.269531 11.828125 -29.40625 L 11.828125 -7.1875 C 11.828125 -6.71875 11.914062 -6.332031 12.09375 -6.03125 C 12.28125 -5.738281 12.53125 -5.523438 12.84375 -5.390625 C 13.164062 -5.253906 13.507812 -5.1875 13.875 -5.1875 C 14.28125 -5.1875 14.644531 -5.257812 14.96875 -5.40625 C 15.300781 -5.5625 15.6875 -5.640625 16.125 -5.640625 C 16.59375 -5.640625 17.015625 -5.421875 17.390625 -4.984375 C 17.773438 -4.554688 17.96875 -3.957031 17.96875 -3.1875 C 17.96875 -2.257812 17.457031 -1.492188 16.4375 -0.890625 C 15.425781 -0.296875 14.335938 0 13.171875 0 C 12.472656 0 11.695312 -0.0546875 10.84375 -0.171875 C 10 -0.285156 9.203125 -0.566406 8.453125 -1.015625 C 7.710938 -1.472656 7.09375 -2.164062 6.59375 -3.09375 C 6.09375 -4.03125 5.84375 -5.3125 5.84375 -6.9375 L 5.84375 -29.40625 C 5.84375 -30.269531 6.132812 -30.992188 6.71875 -31.578125 C 7.300781 -32.160156 8.023438 -32.453125 8.890625 -32.453125 Z M 8.890625 -32.453125 "/></g></g></g><g fill="#00215e" fill-opacity="1"><g transform="translate(166.334137, 144.525917)"><g><path d="M 15.828125 0.5 C 12.992188 0.5 10.535156 -0.0859375 8.453125 -1.265625 C 6.378906 -2.453125 4.785156 -4.0625 3.671875 -6.09375 C 2.554688 -8.125 2 -10.421875 2 -12.984375 C 2 -15.972656 2.601562 -18.523438 3.8125 -20.640625 C 5.03125 -22.753906 6.617188 -24.375 8.578125 -25.5 C 10.546875 -26.632812 12.628906 -27.203125 14.828125 -27.203125 C 16.523438 -27.203125 18.128906 -26.851562 19.640625 -26.15625 C 21.160156 -25.457031 22.5 -24.5 23.65625 -23.28125 C 24.820312 -22.070312 25.742188 -20.664062 26.421875 -19.0625 C 27.109375 -17.46875 27.453125 -15.773438 27.453125 -13.984375 C 27.421875 -13.179688 27.101562 -12.53125 26.5 -12.03125 C 25.90625 -11.53125 25.207031 -11.28125 24.40625 -11.28125 L 5.34375 -11.28125 L 3.84375 -16.28125 L 22.171875 -16.28125 L 21.0625 -15.28125 L 21.0625 -16.625 C 21 -17.59375 20.660156 -18.457031 20.046875 -19.21875 C 19.429688 -19.988281 18.664062 -20.597656 17.75 -21.046875 C 16.832031 -21.492188 15.859375 -21.71875 14.828125 -21.71875 C 13.828125 -21.71875 12.894531 -21.582031 12.03125 -21.3125 C 11.164062 -21.050781 10.414062 -20.601562 9.78125 -19.96875 C 9.15625 -19.332031 8.65625 -18.484375 8.28125 -17.421875 C 7.914062 -16.359375 7.734375 -15.007812 7.734375 -13.375 C 7.734375 -11.582031 8.109375 -10.0625 8.859375 -8.8125 C 9.609375 -7.5625 10.570312 -6.613281 11.75 -5.96875 C 12.9375 -5.320312 14.195312 -5 15.53125 -5 C 16.757812 -5 17.738281 -5.097656 18.46875 -5.296875 C 19.195312 -5.492188 19.785156 -5.734375 20.234375 -6.015625 C 20.691406 -6.296875 21.101562 -6.535156 21.46875 -6.734375 C 22.0625 -7.035156 22.625 -7.1875 23.15625 -7.1875 C 23.894531 -7.1875 24.503906 -6.9375 24.984375 -6.4375 C 25.460938 -5.9375 25.703125 -5.351562 25.703125 -4.6875 C 25.703125 -3.789062 25.238281 -2.976562 24.3125 -2.25 C 23.445312 -1.507812 22.234375 -0.863281 20.671875 -0.3125 C 19.109375 0.226562 17.492188 0.5 15.828125 0.5 Z M 15.828125 0.5 "/></g></g></g><g fill="#00215e" fill-opacity="1"><g transform="translate(22.579316, 214.16794)"><g><path d="M 3.546875 -26.203125 L 15.375 -26.203125 C 16.175781 -26.203125 16.84375 -25.9375 17.375 -25.40625 C 17.90625 -24.875 18.171875 -24.207031 18.171875 -23.40625 C 18.171875 -22.644531 17.90625 -22.003906 17.375 -21.484375 C 16.84375 -20.972656 16.175781 -20.71875 15.375 -20.71875 L 3.546875 -20.71875 C 2.742188 -20.71875 2.078125 -20.984375 1.546875 -21.515625 C 1.015625 -22.046875 0.75 -22.710938 0.75 -23.515625 C 0.75 -24.273438 1.015625 -24.910156 1.546875 -25.421875 C 2.078125 -25.941406 2.742188 -26.203125 3.546875 -26.203125 Z M 8.890625 -32.453125 C 9.753906 -32.453125 10.457031 -32.160156 11 -31.578125 C 11.550781 -30.992188 11.828125 -30.269531 11.828125 -29.40625 L 11.828125 -7.1875 C 11.828125 -6.71875 11.914062 -6.332031 12.09375 -6.03125 C 12.28125 -5.738281 12.53125 -5.523438 12.84375 -5.390625 C 13.164062 -5.253906 13.507812 -5.1875 13.875 -5.1875 C 14.28125 -5.1875 14.644531 -5.257812 14.96875 -5.40625 C 15.300781 -5.5625 15.6875 -5.640625 16.125 -5.640625 C 16.59375 -5.640625 17.015625 -5.421875 17.390625 -4.984375 C 17.773438 -4.554688 17.96875 -3.957031 17.96875 -3.1875 C 17.96875 -2.257812 17.457031 -1.492188 16.4375 -0.890625 C 15.425781 -0.296875 14.335938 0 13.171875 0 C 12.472656 0 11.695312 -0.0546875 10.84375 -0.171875 C 10 -0.285156 9.203125 -0.566406 8.453125 -1.015625 C 7.710938 -1.472656 7.09375 -2.164062 6.59375 -3.09375 C 6.09375 -4.03125 5.84375 -5.3125 5.84375 -6.9375 L 5.84375 -29.40625 C 5.84375 -30.269531 6.132812 -30.992188 6.71875 -31.578125 C 7.300781 -32.160156 8.023438 -32.453125 8.890625 -32.453125 Z M 8.890625 -32.453125 "/></g></g></g><g fill="#00215e" fill-opacity="1"><g transform="translate(42.994501, 214.16794)"><g><path d="M 15.828125 0.5 C 12.992188 0.5 10.535156 -0.0859375 8.453125 -1.265625 C 6.378906 -2.453125 4.785156 -4.0625 3.671875 -6.09375 C 2.554688 -8.125 2 -10.421875 2 -12.984375 C 2 -15.972656 2.601562 -18.523438 3.8125 -20.640625 C 5.03125 -22.753906 6.617188 -24.375 8.578125 -25.5 C 10.546875 -26.632812 12.628906 -27.203125 14.828125 -27.203125 C 16.523438 -27.203125 18.128906 -26.851562 19.640625 -26.15625 C 21.160156 -25.457031 22.5 -24.5 23.65625 -23.28125 C 24.820312 -22.070312 25.742188 -20.664062 26.421875 -19.0625 C 27.109375 -17.46875 27.453125 -15.773438 27.453125 -13.984375 C 27.421875 -13.179688 27.101562 -12.53125 26.5 -12.03125 C 25.90625 -11.53125 25.207031 -11.28125 24.40625 -11.28125 L 5.34375 -11.28125 L 3.84375 -16.28125 L 22.171875 -16.28125 L 21.0625 -15.28125 L 21.0625 -16.625 C 21 -17.59375 20.660156 -18.457031 20.046875 -19.21875 C 19.429688 -19.988281 18.664062 -20.597656 17.75 -21.046875 C 16.832031 -21.492188 15.859375 -21.71875 14.828125 -21.71875 C 13.828125 -21.71875 12.894531 -21.582031 12.03125 -21.3125 C 11.164062 -21.050781 10.414062 -20.601562 9.78125 -19.96875 C 9.15625 -19.332031 8.65625 -18.484375 8.28125 -17.421875 C 7.914062 -16.359375 7.734375 -15.007812 7.734375 -13.375 C 7.734375 -11.582031 8.109375 -10.0625 8.859375 -8.8125 C 9.609375 -7.5625 10.570312 -6.613281 11.75 -5.96875 C 12.9375 -5.320312 14.195312 -5 15.53125 -5 C 16.757812 -5 17.738281 -5.097656 18.46875 -5.296875 C 19.195312 -5.492188 19.785156 -5.734375 20.234375 -6.015625 C 20.691406 -6.296875 21.101562 -6.535156 21.46875 -6.734375 C 22.0625 -7.035156 22.625 -7.1875 23.15625 -7.1875 C 23.894531 -7.1875 24.503906 -6.9375 24.984375 -6.4375 C 25.460938 -5.9375 25.703125 -5.351562 25.703125 -4.6875 C 25.703125 -3.789062 25.238281 -2.976562 24.3125 -2.25 C 23.445312 -1.507812 22.234375 -0.863281 20.671875 -0.3125 C 19.109375 0.226562 17.492188 0.5 15.828125 0.5 Z M 15.828125 0.5 "/></g></g></g><g fill="#00215e" fill-opacity="1"><g transform="translate(72.44427, 214.16794)"><g><path d="M 15.125 -27.203125 C 17.019531 -27.203125 18.675781 -27.003906 20.09375 -26.609375 C 21.507812 -26.210938 22.609375 -25.65625 23.390625 -24.9375 C 24.171875 -24.21875 24.5625 -23.359375 24.5625 -22.359375 C 24.5625 -21.691406 24.359375 -21.066406 23.953125 -20.484375 C 23.554688 -19.910156 22.976562 -19.625 22.21875 -19.625 C 21.6875 -19.625 21.242188 -19.695312 20.890625 -19.84375 C 20.546875 -19.988281 20.238281 -20.175781 19.96875 -20.40625 C 19.695312 -20.644531 19.378906 -20.863281 19.015625 -21.0625 C 18.679688 -21.257812 18.171875 -21.414062 17.484375 -21.53125 C 16.804688 -21.65625 16.300781 -21.71875 15.96875 -21.71875 C 14.269531 -21.71875 12.832031 -21.347656 11.65625 -20.609375 C 10.476562 -19.878906 9.570312 -18.890625 8.9375 -17.640625 C 8.300781 -16.398438 7.984375 -14.960938 7.984375 -13.328125 C 7.984375 -11.734375 8.304688 -10.3125 8.953125 -9.0625 C 9.609375 -7.8125 10.507812 -6.820312 11.65625 -6.09375 C 12.800781 -5.363281 14.125 -5 15.625 -5 C 16.457031 -5 17.171875 -5.046875 17.765625 -5.140625 C 18.367188 -5.242188 18.867188 -5.394531 19.265625 -5.59375 C 19.734375 -5.851562 20.148438 -6.132812 20.515625 -6.4375 C 20.878906 -6.738281 21.429688 -6.890625 22.171875 -6.890625 C 23.035156 -6.890625 23.695312 -6.613281 24.15625 -6.0625 C 24.625 -5.507812 24.859375 -4.835938 24.859375 -4.046875 C 24.859375 -3.210938 24.390625 -2.453125 23.453125 -1.765625 C 22.523438 -1.085938 21.300781 -0.539062 19.78125 -0.125 C 18.269531 0.289062 16.632812 0.5 14.875 0.5 C 12.25 0.5 9.96875 -0.101562 8.03125 -1.3125 C 6.101562 -2.53125 4.613281 -4.1875 3.5625 -6.28125 C 2.519531 -8.382812 2 -10.734375 2 -13.328125 C 2 -16.054688 2.554688 -18.457031 3.671875 -20.53125 C 4.785156 -22.613281 6.332031 -24.242188 8.3125 -25.421875 C 10.289062 -26.609375 12.5625 -27.203125 15.125 -27.203125 Z M 15.125 -27.203125 "/></g></g></g><g fill="#00215e" fill-opacity="1"><g transform="translate(98.400003, 214.16794)"><g><path d="M 17.265625 -27.203125 C 19.671875 -27.203125 21.492188 -26.6875 22.734375 -25.65625 C 23.984375 -24.625 24.84375 -23.25 25.3125 -21.53125 C 25.78125 -19.820312 26.015625 -17.921875 26.015625 -15.828125 L 26.015625 -3.046875 C 26.015625 -2.179688 25.726562 -1.457031 25.15625 -0.875 C 24.59375 -0.289062 23.878906 0 23.015625 0 C 22.148438 0 21.429688 -0.289062 20.859375 -0.875 C 20.296875 -1.457031 20.015625 -2.179688 20.015625 -3.046875 L 20.015625 -15.828125 C 20.015625 -16.921875 19.878906 -17.910156 19.609375 -18.796875 C 19.347656 -19.679688 18.867188 -20.390625 18.171875 -20.921875 C 17.472656 -21.453125 16.472656 -21.71875 15.171875 -21.71875 C 13.910156 -21.71875 12.828125 -21.453125 11.921875 -20.921875 C 11.023438 -20.390625 10.351562 -19.679688 9.90625 -18.796875 C 9.457031 -17.910156 9.234375 -16.921875 9.234375 -15.828125 L 9.234375 -3.046875 C 9.234375 -2.179688 8.945312 -1.457031 8.375 -0.875 C 7.8125 -0.289062 7.097656 0 6.234375 0 C 5.367188 0 4.65625 -0.289062 4.09375 -0.875 C 3.53125 -1.457031 3.25 -2.179688 3.25 -3.046875 L 3.25 -33.890625 C 3.25 -34.753906 3.53125 -35.476562 4.09375 -36.0625 C 4.65625 -36.644531 5.367188 -36.9375 6.234375 -36.9375 C 7.097656 -36.9375 7.8125 -36.644531 8.375 -36.0625 C 8.945312 -35.476562 9.234375 -34.753906 9.234375 -33.890625 L 9.234375 -21.515625 L 8.484375 -21.671875 C 8.785156 -22.234375 9.203125 -22.835938 9.734375 -23.484375 C 10.265625 -24.140625 10.910156 -24.75 11.671875 -25.3125 C 12.441406 -25.875 13.289062 -26.328125 14.21875 -26.671875 C 15.15625 -27.023438 16.171875 -27.203125 17.265625 -27.203125 Z M 17.265625 -27.203125 "/></g></g></g><g fill="#00215e" fill-opacity="1"><g transform="translate(22.579316, 283.809962)"><g><path d="M 5.546875 -12.328125 C 4.679688 -12.328125 3.957031 -12.609375 3.375 -13.171875 C 2.789062 -13.742188 2.5 -14.460938 2.5 -15.328125 C 2.5 -16.191406 2.789062 -16.894531 3.375 -17.4375 C 3.957031 -17.988281 4.679688 -18.265625 5.546875 -18.265625 L 14.234375 -18.265625 C 15.097656 -18.265625 15.816406 -17.972656 16.390625 -17.390625 C 16.972656 -16.816406 17.265625 -16.09375 17.265625 -15.21875 C 17.265625 -14.394531 16.972656 -13.707031 16.390625 -13.15625 C 15.816406 -12.601562 15.097656 -12.328125 14.234375 -12.328125 Z M 5.546875 -12.328125 "/></g></g></g><g fill="#00215e" fill-opacity="1"><g transform="translate(42.345609, 283.809962)"><g><path d="M 17.515625 -27.203125 C 19.984375 -27.203125 21.859375 -26.6875 23.140625 -25.65625 C 24.421875 -24.625 25.300781 -23.25 25.78125 -21.53125 C 26.269531 -19.820312 26.515625 -17.921875 26.515625 -15.828125 L 26.515625 -3.046875 C 26.515625 -2.179688 26.226562 -1.457031 25.65625 -0.875 C 25.09375 -0.289062 24.378906 0 23.515625 0 C 22.648438 0 21.929688 -0.289062 21.359375 -0.875 C 20.796875 -1.457031 20.515625 -2.179688 20.515625 -3.046875 L 20.515625 -15.828125 C 20.515625 -16.921875 20.375 -17.910156 20.09375 -18.796875 C 19.8125 -19.679688 19.300781 -20.390625 18.5625 -20.921875 C 17.832031 -21.453125 16.785156 -21.71875 15.421875 -21.71875 C 14.085938 -21.71875 12.960938 -21.453125 12.046875 -20.921875 C 11.140625 -20.390625 10.441406 -19.679688 9.953125 -18.796875 C 9.472656 -17.910156 9.234375 -16.921875 9.234375 -15.828125 L 9.234375 -3.046875 C 9.234375 -2.179688 8.945312 -1.457031 8.375 -0.875 C 7.8125 -0.289062 7.097656 0 6.234375 0 C 5.367188 0 4.65625 -0.289062 4.09375 -0.875 C 3.53125 -1.457031 3.25 -2.179688 3.25 -3.046875 L 3.25 -23.65625 C 3.25 -24.53125 3.53125 -25.253906 4.09375 -25.828125 C 4.65625 -26.410156 5.367188 -26.703125 6.234375 -26.703125 C 7.097656 -26.703125 7.8125 -26.410156 8.375 -25.828125 C 8.945312 -25.253906 9.234375 -24.53125 9.234375 -23.65625 L 9.234375 -21.515625 L 8.484375 -21.671875 C 8.785156 -22.234375 9.21875 -22.835938 9.78125 -23.484375 C 10.351562 -24.140625 11.019531 -24.75 11.78125 -25.3125 C 12.550781 -25.875 13.414062 -26.328125 14.375 -26.671875 C 15.34375 -27.023438 16.390625 -27.203125 17.515625 -27.203125 Z M 17.515625 -27.203125 "/></g></g></g><g fill="#00215e" fill-opacity="1"><g transform="translate(72.094875, 283.809962)"><g><path d="M 29.15625 -13.328125 C 29.15625 -10.597656 28.546875 -8.191406 27.328125 -6.109375 C 26.117188 -4.035156 24.488281 -2.414062 22.4375 -1.25 C 20.394531 -0.0820312 18.109375 0.5 15.578125 0.5 C 13.046875 0.5 10.753906 -0.0820312 8.703125 -1.25 C 6.660156 -2.414062 5.03125 -4.035156 3.8125 -6.109375 C 2.601562 -8.191406 2 -10.597656 2 -13.328125 C 2 -16.054688 2.601562 -18.457031 3.8125 -20.53125 C 5.03125 -22.613281 6.660156 -24.242188 8.703125 -25.421875 C 10.753906 -26.609375 13.046875 -27.203125 15.578125 -27.203125 C 18.109375 -27.203125 20.394531 -26.609375 22.4375 -25.421875 C 24.488281 -24.242188 26.117188 -22.613281 27.328125 -20.53125 C 28.546875 -18.457031 29.15625 -16.054688 29.15625 -13.328125 Z M 23.15625 -13.328125 C 23.15625 -15.023438 22.8125 -16.5 22.125 -17.75 C 21.445312 -19 20.535156 -19.972656 19.390625 -20.671875 C 18.242188 -21.367188 16.972656 -21.71875 15.578125 -21.71875 C 14.179688 -21.71875 12.90625 -21.367188 11.75 -20.671875 C 10.601562 -19.972656 9.6875 -19 9 -17.75 C 8.320312 -16.5 7.984375 -15.023438 7.984375 -13.328125 C 7.984375 -11.660156 8.320312 -10.203125 9 -8.953125 C 9.6875 -7.710938 10.601562 -6.742188 11.75 -6.046875 C 12.90625 -5.347656 14.179688 -5 15.578125 -5 C 16.972656 -5 18.242188 -5.347656 19.390625 -6.046875 C 20.535156 -6.742188 21.445312 -7.710938 22.125 -8.953125 C 22.8125 -10.203125 23.15625 -11.660156 23.15625 -13.328125 Z M 23.15625 -13.328125 "/></g></g></g><g fill="#00215e" fill-opacity="1"><g transform="translate(103.241758, 283.809962)"><g><path d="M 9.734375 -3.046875 C 9.734375 -2.179688 9.441406 -1.457031 8.859375 -0.875 C 8.273438 -0.289062 7.550781 0 6.6875 0 C 5.851562 0 5.15625 -0.289062 4.59375 -0.875 C 4.03125 -1.457031 3.75 -2.179688 3.75 -3.046875 L 3.75 -33.890625 C 3.75 -34.753906 4.035156 -35.476562 4.609375 -36.0625 C 5.191406 -36.644531 5.921875 -36.9375 6.796875 -36.9375 C 7.660156 -36.9375 8.363281 -36.644531 8.90625 -36.0625 C 9.457031 -35.476562 9.734375 -34.753906 9.734375 -33.890625 Z M 9.734375 -3.046875 "/></g></g></g><g fill="#00215e" fill-opacity="1"><g transform="translate(116.718769, 283.809962)"><g><path d="M 29.15625 -13.328125 C 29.15625 -10.597656 28.546875 -8.191406 27.328125 -6.109375 C 26.117188 -4.035156 24.488281 -2.414062 22.4375 -1.25 C 20.394531 -0.0820312 18.109375 0.5 15.578125 0.5 C 13.046875 0.5 10.753906 -0.0820312 8.703125 -1.25 C 6.660156 -2.414062 5.03125 -4.035156 3.8125 -6.109375 C 2.601562 -8.191406 2 -10.597656 2 -13.328125 C 2 -16.054688 2.601562 -18.457031 3.8125 -20.53125 C 5.03125 -22.613281 6.660156 -24.242188 8.703125 -25.421875 C 10.753906 -26.609375 13.046875 -27.203125 15.578125 -27.203125 C 18.109375 -27.203125 20.394531 -26.609375 22.4375 -25.421875 C 24.488281 -24.242188 26.117188 -22.613281 27.328125 -20.53125 C 28.546875 -18.457031 29.15625 -16.054688 29.15625 -13.328125 Z M 23.15625 -13.328125 C 23.15625 -15.023438 22.8125 -16.5 22.125 -17.75 C 21.445312 -19 20.535156 -19.972656 19.390625 -20.671875 C 18.242188 -21.367188 16.972656 -21.71875 15.578125 -21.71875 C 14.179688 -21.71875 12.90625 -21.367188 11.75 -20.671875 C 10.601562 -19.972656 9.6875 -19 9 -17.75 C 8.320312 -16.5 7.984375 -15.023438 7.984375 -13.328125 C 7.984375 -11.660156 8.320312 -10.203125 9 -8.953125 C 9.6875 -7.710938 10.601562 -6.742188 11.75 -6.046875 C 12.90625 -5.347656 14.179688 -5 15.578125 -5 C 16.972656 -5 18.242188 -5.347656 19.390625 -6.046875 C 20.535156 -6.742188 21.445312 -7.710938 22.125 -8.953125 C 22.8125 -10.203125 23.15625 -11.660156 23.15625 -13.328125 Z M 23.15625 -13.328125 "/></g></g></g><g fill="#00215e" fill-opacity="1"><g transform="translate(147.865652, 283.809962)"><g><path d="M 14.328125 -27.203125 C 15.722656 -27.203125 17.003906 -26.984375 18.171875 -26.546875 C 19.335938 -26.117188 20.34375 -25.570312 21.1875 -24.90625 C 22.039062 -24.238281 22.707031 -23.5625 23.1875 -22.875 C 23.664062 -22.195312 23.90625 -21.628906 23.90625 -21.171875 L 22.609375 -20.515625 L 22.609375 -24.15625 C 22.609375 -25.019531 22.890625 -25.742188 23.453125 -26.328125 C 24.023438 -26.910156 24.742188 -27.203125 25.609375 -27.203125 C 26.472656 -27.203125 27.1875 -26.921875 27.75 -26.359375 C 28.320312 -25.796875 28.609375 -25.0625 28.609375 -24.15625 L 28.609375 -1.953125 C 28.609375 0.941406 27.984375 3.265625 26.734375 5.015625 C 25.484375 6.765625 23.84375 8.03125 21.8125 8.8125 C 19.78125 9.59375 17.601562 9.984375 15.28125 9.984375 C 14.613281 9.984375 13.742188 9.898438 12.671875 9.734375 C 11.609375 9.566406 10.59375 9.363281 9.625 9.125 C 8.664062 8.894531 7.9375 8.679688 7.4375 8.484375 C 6.4375 8.054688 5.742188 7.515625 5.359375 6.859375 C 4.984375 6.210938 4.910156 5.523438 5.140625 4.796875 C 5.441406 3.828125 5.925781 3.164062 6.59375 2.8125 C 7.257812 2.46875 7.957031 2.429688 8.6875 2.703125 C 9.019531 2.796875 9.566406 2.992188 10.328125 3.296875 C 11.097656 3.597656 11.941406 3.875 12.859375 4.125 C 13.773438 4.375 14.582031 4.5 15.28125 4.5 C 17.769531 4.5 19.613281 4 20.8125 3 C 22.007812 2 22.609375 0.617188 22.609375 -1.140625 L 22.609375 -5.484375 L 23.21875 -5.046875 C 23.21875 -4.609375 22.988281 -4.082031 22.53125 -3.46875 C 22.082031 -2.851562 21.46875 -2.242188 20.6875 -1.640625 C 19.90625 -1.046875 18.984375 -0.539062 17.921875 -0.125 C 16.859375 0.289062 15.726562 0.5 14.53125 0.5 C 12.164062 0.5 10.035156 -0.0859375 8.140625 -1.265625 C 6.242188 -2.453125 4.742188 -4.082031 3.640625 -6.15625 C 2.546875 -8.238281 2 -10.628906 2 -13.328125 C 2 -16.054688 2.546875 -18.457031 3.640625 -20.53125 C 4.742188 -22.613281 6.226562 -24.242188 8.09375 -25.421875 C 9.957031 -26.609375 12.035156 -27.203125 14.328125 -27.203125 Z M 15.28125 -21.71875 C 13.78125 -21.71875 12.460938 -21.347656 11.328125 -20.609375 C 10.203125 -19.878906 9.320312 -18.878906 8.6875 -17.609375 C 8.050781 -16.347656 7.734375 -14.921875 7.734375 -13.328125 C 7.734375 -11.765625 8.050781 -10.347656 8.6875 -9.078125 C 9.320312 -7.816406 10.203125 -6.820312 11.328125 -6.09375 C 12.460938 -5.363281 13.78125 -5 15.28125 -5 C 16.8125 -5 18.140625 -5.363281 19.265625 -6.09375 C 20.398438 -6.820312 21.28125 -7.816406 21.90625 -9.078125 C 22.539062 -10.347656 22.859375 -11.765625 22.859375 -13.328125 C 22.859375 -14.921875 22.539062 -16.347656 21.90625 -17.609375 C 21.28125 -18.878906 20.398438 -19.878906 19.265625 -20.609375 C 18.140625 -21.347656 16.8125 -21.71875 15.28125 -21.71875 Z M 15.28125 -21.71875 "/></g></g></g><g fill="#00215e" fill-opacity="1"><g transform="translate(179.711338, 283.809962)"><g><path d="M 23.0625 -26.703125 C 23.925781 -26.703125 24.640625 -26.410156 25.203125 -25.828125 C 25.773438 -25.253906 26.0625 -24.53125 26.0625 -23.65625 L 26.0625 -2.453125 C 26.0625 0.609375 25.484375 3.046875 24.328125 4.859375 C 23.179688 6.679688 21.644531 7.988281 19.71875 8.78125 C 17.789062 9.582031 15.628906 9.984375 13.234375 9.984375 C 12.160156 9.984375 11.023438 9.898438 9.828125 9.734375 C 8.628906 9.566406 7.648438 9.316406 6.890625 8.984375 C 5.890625 8.554688 5.195312 8.015625 4.8125 7.359375 C 4.4375 6.710938 4.363281 6.023438 4.59375 5.296875 C 4.894531 4.328125 5.375 3.664062 6.03125 3.3125 C 6.695312 2.96875 7.398438 2.925781 8.140625 3.1875 C 8.671875 3.351562 9.367188 3.613281 10.234375 3.96875 C 11.097656 4.320312 12.097656 4.5 13.234375 4.5 C 14.765625 4.5 16.035156 4.289062 17.046875 3.875 C 18.066406 3.457031 18.832031 2.753906 19.34375 1.765625 C 19.863281 0.785156 20.125 -0.550781 20.125 -2.25 L 20.125 -5.59375 L 21.171875 -4.390625 C 20.597656 -3.296875 19.882812 -2.390625 19.03125 -1.671875 C 18.1875 -0.953125 17.179688 -0.410156 16.015625 -0.046875 C 14.859375 0.316406 13.53125 0.5 12.03125 0.5 C 10.269531 0.5 8.726562 0.09375 7.40625 -0.71875 C 6.09375 -1.539062 5.070312 -2.675781 4.34375 -4.125 C 3.613281 -5.570312 3.25 -7.222656 3.25 -9.078125 L 3.25 -23.65625 C 3.25 -24.53125 3.53125 -25.253906 4.09375 -25.828125 C 4.65625 -26.410156 5.367188 -26.703125 6.234375 -26.703125 C 7.097656 -26.703125 7.8125 -26.410156 8.375 -25.828125 C 8.945312 -25.253906 9.234375 -24.53125 9.234375 -23.65625 L 9.234375 -10.890625 C 9.234375 -8.722656 9.707031 -7.195312 10.65625 -6.3125 C 11.601562 -5.4375 12.925781 -5 14.625 -5 C 15.789062 -5 16.769531 -5.222656 17.5625 -5.671875 C 18.363281 -6.117188 18.976562 -6.78125 19.40625 -7.65625 C 19.84375 -8.539062 20.0625 -9.617188 20.0625 -10.890625 L 20.0625 -23.65625 C 20.0625 -24.53125 20.34375 -25.253906 20.90625 -25.828125 C 21.476562 -26.410156 22.195312 -26.703125 23.0625 -26.703125 Z M 23.0625 -26.703125 "/></g></g></g></svg>