<svg xmlns="http://www.w3.org/2000/svg" xmlns:xlink="http://www.w3.org/1999/xlink" width="500" zoomAndPan="magnify" viewBox="0 0 375 374.999991" height="500" preserveAspectRatio="xMidYMid meet" version="1.0"><defs><clipPath id="a2d8a13069"><path d="M 38 129.683594 L 65 129.683594 L 65 232 L 38 232 Z M 38 129.683594 " clip-rule="nonzero"/></clipPath><clipPath id="a79dcc52aa"><path d="M 61 216 L 69 216 L 69 245.183594 L 61 245.183594 Z M 61 216 " clip-rule="nonzero"/></clipPath><clipPath id="e6a6be726a"><path d="M 268 183 L 337.5 183 L 337.5 219 L 268 219 Z M 268 183 " clip-rule="nonzero"/></clipPath></defs><path fill="#599636" d="M 63.664062 130.117188 L 66.746094 135.90625 C 67.417969 136.953125 68.195312 137.917969 69.074219 138.796875 C 71.65625 141.375 74.113281 144.078125 76.3125 146.972656 C 81.535156 153.828125 85.0625 161.4375 87.582031 169.675781 C 89.089844 174.710938 89.910156 179.867188 89.972656 185.085938 C 90.226562 200.683594 84.871094 214.074219 74.046875 225.207031 C 72.289062 226.976562 70.398438 228.589844 68.378906 230.050781 C 67.304688 230.050781 66.804688 229.203125 66.363281 228.476562 C 65.515625 227.066406 65.039062 225.519531 64.789062 223.953125 C 64.410156 222.066406 64.160156 220.179688 64.285156 218.226562 L 64.285156 217.347656 C 64.222656 217.15625 63.28125 130.558594 63.65625 130.121094 Z M 63.664062 130.117188 " fill-opacity="1" fill-rule="nonzero"/><g clip-path="url(#a2d8a13069)"><path fill="#6cac48" d="M 63.664062 129.929688 C 63.535156 129.675781 63.410156 129.867188 63.285156 129.992188 C 63.347656 131.25 62.90625 132.382812 62.210938 133.453125 C 61.457031 134.523438 60.445312 135.339844 59.441406 136.21875 C 53.835938 141.0625 49.433594 146.910156 45.902344 153.449219 C 41.246094 162.257812 38.792969 171.6875 38.101562 181.625 C 37.789062 185.210938 39.230469 197.851562 40.367188 201.496094 C 43.449219 211.183594 48.992188 219.292969 56.199219 226.335938 C 57.964844 228.03125 59.851562 229.609375 61.804688 231.117188 C 62.371094 231.117188 62.433594 230.613281 62.558594 230.234375 C 62.808594 229.429688 62.996094 228.613281 63.125 227.78125 C 63.6875 224.636719 64.007812 221.492188 64.382812 218.347656 L 63.6875 129.929688 Z M 63.664062 129.929688 " fill-opacity="1" fill-rule="nonzero"/></g><g clip-path="url(#a79dcc52aa)"><path fill="#c2bfbf" d="M 66.753906 233.886719 C 66.882812 232.441406 67.601562 231.246094 68.328125 230.050781 C 67.574219 229.742188 67.003906 229.109375 66.566406 228.414062 C 66.1875 227.785156 65.871094 227 65.621094 226.335938 C 64.738281 223.695312 64.546875 220.929688 64.296875 218.222656 L 64.296875 216.585938 C 63.984375 216.839844 63.917969 218.976562 63.917969 219.292969 C 63.730469 222.183594 63.351562 225.015625 62.789062 227.78125 C 62.597656 228.910156 62.476562 230.046875 61.78125 231.050781 C 61.78125 231.179688 61.78125 231.304688 61.84375 231.492188 C 62.972656 234.824219 63.289062 238.21875 63.484375 241.679688 L 63.484375 242.9375 C 63.484375 244.445312 63.421875 244.132812 64.679688 244.632812 C 65.183594 244.820312 65.753906 244.886719 66.253906 245.261719 C 66.632812 245.261719 66.695312 244.949219 66.695312 244.695312 L 66.503906 242.621094 L 66.503906 236.832031 C 66.441406 235.824219 66.632812 234.816406 66.757812 233.875 Z M 66.753906 233.886719 " fill-opacity="1" fill-rule="nonzero"/></g><path fill="#47474a" d="M 114.558594 207.582031 L 114.558594 213.570312 C 114.554688 213.808594 114.566406 214.046875 114.601562 214.28125 C 114.679688 214.988281 115.113281 215.421875 115.753906 215.621094 C 116.355469 215.777344 116.960938 215.898438 117.574219 215.976562 C 117.929688 216.015625 118.046875 216.171875 118.085938 216.554688 C 118.128906 217.894531 118.007812 218.050781 116.707031 217.972656 C 113.671875 217.8125 110.632812 217.777344 107.59375 217.972656 L 107.304688 217.972656 C 106.359375 218.011719 106.28125 217.929688 106.28125 216.984375 C 106.28125 216.828125 106.320312 216.632812 106.320312 216.472656 C 106.320312 216.183594 106.515625 216.039062 106.792969 216.039062 C 107.429688 215.960938 108.019531 215.804688 108.613281 215.683594 C 109.441406 215.488281 109.914062 214.976562 109.992188 214.148438 C 110.109375 213.242188 110.109375 212.296875 110.109375 211.390625 L 110.148438 200.828125 C 110.164062 200.515625 110.089844 200.226562 109.933594 199.953125 C 109.777344 199.683594 109.558594 199.476562 109.28125 199.328125 C 108.566406 198.933594 107.816406 198.617188 107.03125 198.382812 C 106.792969 198.304688 106.558594 198.269531 106.363281 198.148438 C 105.785156 197.871094 105.769531 197.359375 106.320312 197.042969 C 106.515625 196.925781 106.753906 196.847656 106.992188 196.804688 C 109.390625 196.453125 111.730469 195.863281 114.011719 195.035156 C 114.484375 194.875 114.601562 194.917969 114.648438 195.386719 C 114.6875 195.675781 114.648438 196.023438 114.605469 196.292969 C 114.527344 196.804688 114.527344 197.316406 114.527344 197.792969 C 114.527344 197.988281 114.570312 198.1875 114.765625 198.304688 C 114.960938 198.425781 115.160156 198.304688 115.34375 198.191406 C 116.171875 197.554688 117 196.96875 117.90625 196.460938 C 119.203125 195.75 120.589844 195.121094 122.089844 194.921875 C 123.910156 194.6875 125.484375 195.160156 126.867188 196.34375 C 127.441406 196.855469 127.941406 197.433594 128.363281 198.074219 C 128.761719 198.652344 128.796875 198.667969 129.3125 198.269531 C 130.8125 197.167969 132.386719 196.183594 134.085938 195.472656 C 135.863281 194.726562 137.675781 194.609375 139.488281 195.238281 C 141.34375 195.90625 142.609375 197.207031 143.359375 198.980469 C 143.992188 200.398438 144.265625 201.863281 144.265625 203.394531 L 144.265625 213.953125 C 144.265625 214.660156 144.554688 215.105469 145.253906 215.453125 C 146.003906 215.738281 146.832031 215.882812 147.621094 216.042969 C 148.132812 216.15625 148.132812 216.15625 148.132812 216.675781 C 148.054688 217.976562 147.9375 218.054688 146.671875 217.976562 C 143.503906 217.796875 140.335938 217.796875 137.167969 217.976562 C 136.53125 218.015625 136.53125 218.015625 136.496094 217.382812 L 136.496094 217.1875 C 136.457031 216.121094 136.457031 216.121094 137.484375 215.890625 L 138.507812 215.613281 C 138.867188 215.527344 139.160156 215.34375 139.386719 215.054688 C 139.617188 214.769531 139.730469 214.441406 139.734375 214.074219 L 139.847656 211.121094 L 139.769531 203.398438 C 139.738281 202.703125 139.59375 202.035156 139.335938 201.386719 C 138.351562 198.984375 136.183594 198.117188 134.089844 198.355469 C 132.511719 198.511719 131.128906 199.140625 129.828125 200.050781 C 129.550781 200.246094 129.355469 200.484375 129.394531 200.878906 C 129.75 203.402344 129.511719 205.925781 129.554688 208.445312 L 129.554688 213.921875 C 129.554688 214.910156 129.949219 215.382812 130.894531 215.617188 L 132.714844 216.015625 C 132.992188 216.054688 133.148438 216.171875 133.148438 216.488281 L 133.148438 216.773438 C 133.109375 217.878906 133.03125 217.929688 131.925781 217.917969 C 128.769531 217.757812 125.609375 217.800781 122.496094 217.917969 C 121.425781 217.957031 121.339844 217.839844 121.390625 216.761719 C 121.429688 216.128906 121.503906 216.09375 122.101562 215.976562 L 123.398438 215.738281 C 124.554688 215.503906 124.976562 215.070312 125.054688 213.847656 L 125.171875 211.207031 L 125.09375 203.285156 C 125.015625 202.300781 124.804688 201.355469 124.265625 200.449219 C 123.476562 198.988281 122.246094 198.242188 120.554688 198.160156 C 118.859375 198.046875 117.359375 198.675781 115.9375 199.460938 C 114.949219 200.035156 114.515625 200.71875 114.59375 201.863281 L 114.59375 207.617188 Z M 188.886719 207.820312 L 188.886719 213.378906 C 188.890625 213.773438 188.917969 214.167969 188.964844 214.5625 C 188.980469 214.828125 189.078125 215.066406 189.253906 215.269531 C 189.429688 215.476562 189.648438 215.605469 189.910156 215.664062 C 190.59375 215.863281 191.289062 215.980469 192 216.019531 C 192.394531 216.058594 192.472656 216.214844 192.515625 216.53125 L 192.515625 216.808594 C 192.472656 218.1875 192.316406 218.347656 190.976562 218.269531 C 187.972656 218.074219 184.980469 218.109375 181.980469 218.269531 L 180.824219 218.308594 C 180.589844 218.308594 180.535156 218.195312 180.46875 218.03125 C 180.355469 217.480469 180.355469 216.929688 180.46875 216.378906 C 180.511719 216.140625 180.667969 216.089844 180.902344 216.023438 C 181.480469 215.945312 181.972656 215.828125 182.519531 215.734375 C 183.507812 215.496094 183.863281 215.101562 183.898438 214.078125 L 184.015625 210.769531 L 184.015625 201.074219 C 184.015625 200.363281 183.738281 199.933594 183.109375 199.613281 C 182.398438 199.21875 181.648438 198.945312 180.855469 198.667969 C 180.621094 198.589844 180.382812 198.511719 180.1875 198.390625 C 179.671875 198.039062 179.609375 197.527344 180.109375 197.132812 C 180.339844 196.945312 180.601562 196.839844 180.898438 196.816406 C 183.421875 196.421875 185.867188 195.871094 188.234375 194.921875 C 188.511719 194.808594 188.632812 194.882812 188.75 195.121094 C 188.867188 195.355469 188.910156 195.632812 188.867188 195.90625 L 188.75 197.757812 C 188.75 197.996094 188.632812 198.335938 188.828125 198.425781 C 189.066406 198.585938 189.222656 198.230469 189.417969 198.140625 C 190.589844 197.160156 191.867188 196.34375 193.246094 195.695312 C 194.472656 195.121094 195.730469 194.75 197.152344 194.832031 C 199.796875 194.988281 201.691406 196.332031 202.914062 198.65625 C 203.546875 199.878906 203.820312 201.214844 203.9375 202.597656 L 204.050781 205.480469 L 204.09375 214.1875 C 204.132812 214.859375 204.371094 215.292969 205.039062 215.53125 C 205.734375 215.761719 206.445312 215.933594 207.171875 216.042969 C 207.804688 216.121094 207.839844 216.238281 207.878906 216.828125 L 207.878906 217.027344 C 207.800781 218.367188 207.722656 218.40625 206.378906 218.324219 C 203.433594 218.164062 200.488281 218.164062 197.542969 218.324219 C 197.148438 218.363281 196.753906 218.324219 196.386719 218.363281 C 196.152344 218.363281 195.992188 218.324219 195.957031 218.085938 C 195.878906 217.574219 195.796875 217.0625 195.914062 216.511719 C 195.957031 216.273438 196.074219 216.15625 196.347656 216.113281 L 198.167969 215.828125 C 198.800781 215.667969 199.152344 215.25 199.234375 214.671875 L 199.3125 213.570312 L 199.273438 205.332031 C 199.273438 204.386719 199.230469 203.441406 199.035156 202.496094 C 198.5625 200.476562 197.023438 199.035156 194.9375 198.832031 C 193.117188 198.636719 191.472656 199.109375 189.964844 200.09375 C 189.214844 200.566406 188.898438 201.234375 188.898438 202.0625 L 188.898438 208.015625 C 188.898438 207.898438 188.898438 207.898438 188.9375 207.898438 Z M 188.886719 207.820312 " fill-opacity="1" fill-rule="nonzero"/><g clip-path="url(#e6a6be726a)"><path fill="#c2bfbf" d="M 304.421875 196.667969 C 303.988281 193.789062 302.921875 191.230469 301.066406 188.984375 C 299.425781 186.96875 297.402344 185.46875 294.992188 184.492188 C 292.507812 183.46875 289.863281 183.148438 287.179688 183.070312 C 286.074219 183.03125 271.003906 183.269531 269.898438 183.070312 C 269.621094 183.03125 269.425781 183.113281 269.265625 183.347656 C 269.066406 183.636719 268.867188 183.941406 268.75 184.253906 C 268.277344 185.320312 268.277344 185.242188 269.421875 185.394531 C 270.367188 185.554688 271.273438 185.632812 272.183594 185.910156 C 273.011719 186.1875 273.601562 186.660156 273.800781 187.566406 C 273.878906 187.996094 273.957031 201.867188 273.957031 208.332031 L 273.800781 212.945312 C 273.757812 213.300781 273.722656 213.65625 273.601562 213.96875 C 273.445312 214.441406 273.171875 214.835938 272.695312 215.035156 C 272.171875 215.285156 271.617188 215.425781 271.039062 215.46875 C 269.972656 215.585938 269.816406 215.628906 269.460938 216.808594 L 269.34375 217.242188 C 269.265625 217.753906 269.304688 217.832031 269.820312 217.832031 L 281.613281 217.949219 L 286.234375 217.871094 L 289.429688 217.476562 C 293.058594 216.808594 296.292969 215.308594 299.054688 212.90625 C 300.644531 211.5 301.90625 209.847656 302.839844 207.941406 C 303.945312 205.734375 304.417969 203.328125 304.539062 200.886719 C 304.734375 199.507812 304.652344 198.089844 304.421875 196.671875 Z M 298.699219 202.261719 C 298.542969 204.785156 298.03125 207.226562 296.730469 209.433594 C 295.070312 212.3125 292.703125 214.320312 289.429688 215.027344 C 288.011719 215.316406 286.589844 215.460938 285.101562 215.265625 C 284.03125 215.148438 283.011719 215.027344 282.023438 214.671875 C 280.25 214.039062 279.617188 212.941406 279.578125 211.210938 L 279.539062 187.453125 C 279.539062 186.035156 280.171875 185.722656 281.195312 185.679688 C 282.734375 185.5625 284.3125 185.601562 285.851562 185.757812 C 287.496094 185.914062 289.089844 186.300781 290.625 186.910156 C 291.769531 187.386719 292.808594 188.03125 293.746094 188.84375 C 295.875 190.660156 297.296875 192.9375 298.074219 195.617188 C 298.710938 197.785156 298.824219 199.992188 298.710938 202.199219 Z M 337.210938 206.125 C 337.210938 205.890625 337.210938 205.695312 337.167969 205.457031 C 336.816406 203.289062 335.667969 201.632812 333.894531 200.375 C 332.753906 199.546875 331.453125 198.996094 330.109375 198.601562 C 329.871094 198.523438 329.675781 198.441406 329.4375 198.402344 C 329.480469 198.207031 329.597656 198.167969 329.714844 198.128906 C 330.503906 197.730469 331.253906 197.300781 331.925781 196.707031 C 333.148438 195.683594 333.945312 194.421875 334.371094 192.886719 C 334.605469 192.058594 334.605469 191.230469 334.527344 190.363281 C 334.464844 189.332031 334.179688 188.371094 333.671875 187.472656 C 333.167969 186.574219 332.492188 185.828125 331.648438 185.238281 C 329.828125 183.898438 327.703125 183.347656 325.492188 183.304688 C 321.230469 183.226562 316.933594 183.304688 312.675781 183.304688 C 311.453125 183.304688 310.230469 183.382812 308.964844 183.191406 C 308.730469 183.148438 308.390625 183.074219 308.214844 183.347656 C 307.925781 183.863281 307.582031 184.371094 307.464844 184.964844 C 307.425781 185.242188 307.503906 185.394531 307.820312 185.4375 L 310.542969 185.832031 C 311.609375 185.992188 312.359375 186.582031 312.4375 187.527344 C 312.511719 188.179688 312.550781 188.839844 312.550781 189.496094 L 312.472656 196.863281 L 312.433594 211.445312 C 312.433594 212.308594 312.316406 213.140625 312.15625 214.003906 C 312.117188 214.285156 312.003906 214.53125 311.816406 214.746094 C 311.632812 214.960938 311.402344 215.105469 311.132812 215.1875 C 310.34375 215.421875 309.59375 215.660156 308.765625 215.660156 C 308.535156 215.636719 308.324219 215.6875 308.132812 215.816406 C 307.941406 215.941406 307.8125 216.109375 307.738281 216.328125 C 307.582031 216.683594 307.449219 217.078125 307.382812 217.433594 C 307.304688 217.90625 307.425781 218.066406 307.898438 218.007812 C 308.253906 217.96875 321.273438 218.285156 323.71875 218.050781 C 325.179688 217.890625 326.605469 217.695312 328.054688 217.261719 C 330.539062 216.476562 332.832031 215.332031 334.644531 213.398438 C 336.144531 211.820312 337.011719 209.929688 337.089844 207.722656 C 337.203125 207.210938 337.203125 206.699219 337.203125 206.144531 Z M 318.078125 189.976562 L 318.191406 186.828125 C 318.191406 186.234375 318.429688 185.960938 319.019531 185.839844 C 319.96875 185.644531 320.914062 185.726562 321.863281 185.761719 C 322.808594 185.839844 323.714844 185.957031 324.660156 186.234375 C 326.394531 186.75 327.738281 187.734375 328.53125 189.386719 C 328.894531 190.148438 329.078125 190.949219 329.082031 191.792969 C 329.121094 192.898438 329.039062 193.960938 328.609375 195.023438 C 327.9375 196.480469 326.875 197.425781 325.335938 197.703125 C 323.792969 197.980469 319.417969 197.863281 318.746094 197.863281 C 318.15625 197.863281 318.113281 197.785156 318.113281 197.191406 L 318.113281 193.480469 C 318.019531 192.328125 318.003906 191.171875 318.070312 190.011719 Z M 330.894531 211.179688 C 330.222656 212.953125 329 214.175781 327.265625 214.839844 C 326.320312 215.195312 325.371094 215.417969 324.378906 215.355469 C 323.15625 215.3125 321.933594 215.355469 320.710938 215.117188 C 319.054688 214.761719 318.304688 213.183594 318.1875 212.042969 C 317.992188 210.035156 318.109375 207.984375 318.070312 206.488281 L 318.070312 201.285156 C 318.070312 200.648438 318.148438 200.457031 318.820312 200.457031 L 322.53125 200.496094 L 325.058594 200.785156 C 326.832031 201.179688 328.449219 201.851562 329.714844 203.226562 C 330.738281 204.332031 331.292969 205.671875 331.410156 207.128906 C 331.527344 208.507812 331.453125 209.847656 330.9375 211.148438 Z M 330.894531 211.179688 " fill-opacity="1" fill-rule="nonzero"/></g><path fill="#47474a" d="M 230.664062 199.304688 L 231.691406 199.464844 C 232.796875 199.503906 234.097656 199.109375 234.492188 197.574219 C 234.710938 196.824219 234.710938 196.074219 234.492188 195.324219 C 234.253906 195.324219 234.136719 195.519531 234.015625 195.601562 C 233.425781 196.074219 232.753906 196.351562 232.046875 196.429688 C 230.625 196.585938 229.203125 196.507812 227.824219 195.996094 L 225.890625 195.328125 C 224.53125 194.882812 223.136719 194.699219 221.707031 194.78125 C 219.691406 194.9375 217.800781 195.605469 216.023438 196.554688 C 214.128906 197.578125 212.789062 199.113281 212.15625 201.203125 C 211.800781 202.425781 211.761719 203.683594 211.917969 204.945312 C 212.316406 207.824219 213.8125 209.835938 216.496094 210.898438 C 216.652344 210.9375 216.773438 211.015625 216.925781 211.058594 C 217.28125 211.253906 217.324219 211.453125 217.003906 211.726562 L 216.019531 212.394531 L 213.652344 213.855469 C 213.058594 214.207031 212.980469 214.488281 213.175781 215.113281 C 213.417969 215.863281 213.835938 216.496094 214.4375 217.003906 C 214.984375 217.472656 215.589844 217.839844 216.253906 218.109375 C 216.6875 218.304688 216.6875 218.398438 216.296875 218.746094 L 214.042969 220.359375 C 213.292969 220.9375 212.542969 221.511719 211.914062 222.25 C 211.46875 222.726562 211.164062 223.277344 210.996094 223.90625 C 210.828125 224.535156 210.816406 225.164062 210.964844 225.796875 C 211.265625 227.199219 211.949219 228.382812 213.015625 229.34375 C 214.058594 230.308594 215.269531 230.964844 216.644531 231.3125 C 218.851562 231.949219 221.140625 231.984375 223.390625 231.550781 C 226.625 230.960938 229.453125 229.53125 231.675781 227.097656 C 233.214844 225.484375 234.121094 223.59375 234.203125 221.332031 C 234.246094 220.675781 234.175781 220.035156 233.988281 219.40625 C 233.804688 218.777344 233.515625 218.203125 233.128906 217.675781 C 232.738281 217.148438 232.269531 216.703125 231.71875 216.34375 C 231.171875 215.984375 230.578125 215.730469 229.941406 215.578125 L 227.8125 215.183594 L 221.300781 214.605469 C 220.589844 214.566406 219.878906 214.449219 219.289062 214.09375 C 218.539062 213.621094 218.34375 212.714844 218.816406 212.125 C 219.171875 211.691406 219.605469 211.414062 220.15625 211.375 L 221.417969 211.257812 C 222.667969 211.132812 223.859375 210.808594 225 210.289062 C 226.144531 209.769531 227.171875 209.082031 228.085938 208.226562 C 229.082031 207.304688 229.753906 206.1875 230.097656 204.875 C 230.570312 203.179688 230.570312 201.414062 230.175781 199.683594 C 230.058594 199.25 230.097656 199.210938 230.648438 199.289062 Z M 220.996094 218.933594 C 221.230469 218.976562 221.46875 218.933594 221.707031 218.933594 C 223.363281 219.011719 225.058594 219.132812 226.675781 219.570312 C 227.203125 219.726562 227.71875 219.921875 228.214844 220.160156 C 229.792969 221.027344 230.386719 222.523438 230.1875 224.140625 C 229.949219 225.914062 228.960938 227.171875 227.421875 228.003906 C 226.398438 228.582031 225.253906 228.832031 224.070312 228.949219 C 223.636719 228.988281 223.242188 228.949219 222.808594 228.949219 C 221.429688 228.988281 220.085938 228.835938 218.785156 228.28125 C 217.878906 227.925781 217.125 227.414062 216.457031 226.703125 C 215.078125 225.324219 214.4375 222.800781 216.496094 220.75 C 217.757812 219.597656 219.183594 218.78125 220.996094 218.933594 Z M 225.492188 206.640625 C 224.664062 208.726562 222.847656 209.359375 221.035156 209.082031 C 219.378906 208.84375 218.15625 207.941406 217.371094 206.441406 C 216.34375 204.429688 216.070312 202.347656 216.660156 200.175781 C 217.09375 198.558594 218.078125 197.335938 219.8125 197.058594 C 222.023438 196.664062 224.144531 197.457031 225.257812 199.660156 C 225.835938 200.726562 226.085938 202.027344 226.085938 203.878906 C 226.046875 204.625 225.890625 205.652344 225.496094 206.636719 Z M 175.789062 203.957031 C 175.433594 201.828125 174.644531 199.898438 173.183594 198.28125 C 171.011719 195.878906 168.253906 194.824219 165.136719 194.8125 C 162.414062 194.773438 159.851562 195.5625 157.5625 196.984375 C 156.433594 197.65625 155.472656 198.511719 154.675781 199.554688 C 153.878906 200.597656 153.300781 201.75 152.945312 203.011719 C 152.277344 205.296875 152.308594 207.625 152.828125 209.945312 C 154.210938 216.175781 159.023438 218.851562 164.78125 218.460938 C 166.476562 218.34375 168.09375 217.789062 169.628906 217.039062 C 171.917969 215.972656 173.578125 214.28125 174.71875 212.035156 C 175.625 210.183594 176.019531 208.210938 175.980469 205.964844 L 175.785156 203.953125 Z M 170.1875 212.707031 C 170.046875 213.148438 169.84375 213.5625 169.582031 213.949219 C 169.320312 214.332031 169.011719 214.671875 168.648438 214.964844 C 168.289062 215.261719 167.894531 215.496094 167.460938 215.675781 C 167.03125 215.855469 166.585938 215.96875 166.125 216.015625 C 164.390625 216.253906 162.769531 215.820312 161.3125 214.792969 C 160.242188 214.007812 159.414062 213.023438 158.824219 211.839844 C 157.207031 208.527344 156.933594 205.0625 157.757812 201.515625 C 158.027344 200.394531 158.582031 199.433594 159.414062 198.636719 C 160.875 197.296875 162.570312 196.984375 164.464844 197.378906 C 166.285156 197.773438 167.660156 198.757812 168.796875 200.253906 C 169.929688 201.753906 170.453125 203.484375 170.769531 205.300781 C 170.925781 206.207031 170.925781 207.152344 170.964844 207.742188 C 170.964844 209.636719 170.804688 211.203125 170.214844 212.710938 Z M 261.988281 204.273438 C 261.699219 201.988281 260.84375 199.902344 259.222656 198.167969 C 257.09375 195.84375 254.332031 194.855469 251.257812 194.816406 C 248.613281 194.777344 246.167969 195.527344 243.917969 196.828125 C 241.394531 198.328125 239.65625 200.453125 238.988281 203.328125 C 238.589844 204.898438 238.46875 206.488281 238.632812 208.101562 C 238.796875 209.714844 239.230469 211.25 239.933594 212.707031 C 241.234375 215.464844 243.445312 217.238281 246.367188 218.027344 C 249.601562 218.890625 252.679688 218.5 255.675781 217.039062 C 258.28125 215.78125 260.132812 213.8125 261.199219 211.128906 C 261.832031 209.550781 262.066406 207.859375 262.105469 205.886719 C 262.144531 205.53125 262.066406 204.902344 261.988281 204.273438 Z M 256.542969 212.195312 C 255.90625 214.324219 254.570312 215.703125 252.320312 216.019531 C 250.664062 216.257812 249.089844 215.859375 247.664062 214.914062 C 246.441406 214.085938 245.574219 212.984375 244.945312 211.6875 C 244.234375 210.308594 243.835938 208.847656 243.683594 207.351562 C 243.445312 205.5 243.445312 203.691406 243.878906 201.835938 C 243.960938 201.46875 244.078125 201.113281 244.234375 200.773438 C 245.339844 198.011719 247.785156 196.75 250.664062 197.382812 C 252.597656 197.816406 254.058594 198.882812 255.164062 200.496094 C 256.230469 202.074219 256.742188 203.808594 256.980469 205.6875 C 257.097656 206.4375 257.140625 207.226562 257.097656 207.894531 C 257.097656 209.429688 256.980469 210.847656 256.519531 212.226562 Z M 256.542969 212.195312 " fill-opacity="1" fill-rule="nonzero"/></svg>