<svg xmlns="http://www.w3.org/2000/svg" xmlns:xlink="http://www.w3.org/1999/xlink" width="500" zoomAndPan="magnify" viewBox="0 0 375 374.999991" height="500" preserveAspectRatio="xMidYMid meet" version="1.0"><defs><clipPath id="ef623ccd27"><path d="M 37.5 5.082031 L 324.75 5.082031 L 324.75 369.582031 L 37.5 369.582031 Z M 37.5 5.082031 " clip-rule="nonzero"/></clipPath></defs><g clip-path="url(#ef623ccd27)"><path fill="#c1ff72" d="M 65.578125 340.15625 C 67.789062 340.15625 71.894531 342.617188 75.242188 345.964844 C 78.71875 349.503906 80.992188 353.359375 80.992188 355.886719 C 80.992188 358.222656 78.90625 362.203125 76.191406 364.980469 C 73.285156 367.949219 69.621094 369.910156 67.09375 369.910156 C 64.441406 369.910156 60.777344 367.886719 57.554688 364.539062 C 53.007812 359.863281 52.4375 358.410156 53.449219 353.421875 C 54.082031 350.199219 56.164062 345.902344 58.125 343.882812 C 60.082031 341.859375 63.429688 340.15625 65.578125 340.15625 Z M 63.429688 357.148438 C 64 358.726562 65.578125 359.992188 66.96875 359.992188 C 68.292969 359.992188 69.8125 359.296875 70.253906 358.347656 C 70.695312 357.464844 70.695312 355.191406 70.253906 353.421875 C 69.8125 351.589844 68.292969 350.074219 66.90625 350.074219 C 65.515625 350.074219 63.933594 351.019531 63.429688 352.15625 C 62.863281 353.292969 62.925781 355.503906 63.429688 357.148438 Z M 290.664062 6.472656 C 292.371094 8.050781 291.929688 10.449219 288.265625 18.851562 C 285.105469 25.929688 282.769531 29.214844 280.746094 29.152344 C 279.167969 29.152344 277.460938 28.203125 276.957031 27.066406 C 276.390625 25.929688 277.714844 21 279.800781 16.074219 C 281.949219 11.210938 284.789062 6.597656 286.117188 5.839844 C 287.570312 5.082031 289.402344 5.335938 290.664062 6.472656 Z M 247.140625 25.867188 C 248.148438 25.929688 253.015625 27.949219 258.003906 30.414062 C 263.058594 32.878906 267.355469 36.035156 267.671875 37.425781 C 267.921875 38.753906 267.039062 40.457031 265.585938 41.152344 C 264.007812 41.910156 259.078125 40.585938 253.015625 37.804688 C 247.328125 35.214844 242.96875 32.121094 242.84375 30.667969 C 242.71875 29.214844 243.222656 27.507812 243.980469 26.9375 C 244.738281 26.308594 246.128906 25.867188 247.140625 25.867188 Z M 310.945312 30.855469 C 317.324219 30.730469 320.800781 31.425781 322.570312 33.257812 C 324.589844 35.40625 324.652344 36.226562 322.882812 37.867188 C 321.683594 39.003906 318.335938 39.636719 315.429688 39.320312 C 312.523438 39.070312 306.964844 39.574219 303.109375 40.585938 C 298.375 41.785156 295.277344 41.847656 293.570312 40.710938 C 292.054688 39.699219 291.613281 38.058594 292.371094 36.480469 C 293.066406 35.089844 295.46875 33.320312 297.742188 32.5 C 300.015625 31.675781 305.953125 30.984375 310.945312 30.855469 Z M 269.566406 50.566406 C 270.070312 50.503906 271.398438 51.640625 272.535156 53.03125 C 274.242188 55.179688 273.292969 57.136719 266.914062 65.097656 C 262.679688 70.339844 258.195312 75.203125 256.996094 75.898438 C 255.730469 76.53125 253.960938 76.71875 253.078125 76.277344 C 252.128906 75.835938 251.433594 74.128906 251.433594 72.550781 C 251.5 70.972656 254.214844 66.296875 257.5 62.191406 C 260.847656 58.148438 264.703125 53.851562 266.089844 52.714844 C 267.542969 51.578125 269.058594 50.628906 269.566406 50.566406 Z M 289.84375 50.628906 C 290.980469 50.566406 294.265625 52.273438 297.109375 54.355469 C 300.015625 56.378906 303.933594 60.105469 305.828125 62.632812 C 307.722656 65.160156 308.921875 68.316406 308.480469 69.644531 C 308.039062 71.035156 306.710938 72.171875 305.574219 72.171875 C 304.4375 72.171875 299.445312 68.507812 294.457031 63.960938 C 287.949219 58.148438 285.675781 54.988281 286.496094 53.15625 C 287.191406 51.765625 288.644531 50.628906 289.84375 50.628906 Z M 200.136719 65.664062 C 204.246094 65.539062 211.320312 66.550781 215.867188 67.875 C 220.984375 69.328125 227.238281 72.992188 232.355469 77.542969 C 237.472656 82.027344 242.273438 88.28125 244.800781 93.777344 C 248.402344 101.609375 248.90625 105.023438 248.90625 120.941406 C 248.90625 137.304688 248.527344 139.894531 244.800781 146.527344 C 241.578125 152.210938 238.421875 155.054688 230.839844 158.972656 C 223.070312 162.890625 218.394531 164.089844 208.539062 164.59375 C 198.8125 165.035156 194.324219 164.46875 188.515625 162.003906 C 184.472656 160.300781 177.523438 155.496094 173.164062 151.453125 C 167.667969 146.402344 164.128906 141.285156 161.792969 135.03125 C 159.515625 128.902344 158.378906 121.828125 158.378906 113.488281 C 158.316406 103.507812 159.203125 99.148438 162.800781 91.1875 C 165.203125 85.691406 168.867188 79.5 170.886719 77.351562 C 172.847656 75.203125 176.574219 72.296875 179.101562 70.910156 C 181.691406 69.519531 185.796875 67.75 188.199219 67.054688 C 190.660156 66.359375 196.03125 65.726562 200.136719 65.664062 Z M 178.847656 82.59375 C 176.765625 84.554688 173.414062 89.164062 171.457031 92.828125 C 168.613281 98.074219 167.917969 102.304688 167.855469 113.488281 C 167.855469 125.238281 168.550781 128.902344 172.027344 135.722656 C 174.488281 140.589844 178.785156 145.644531 182.765625 148.359375 C 186.367188 150.886719 192.9375 153.917969 197.296875 155.117188 C 204.308594 157.078125 206.582031 157.015625 216.308594 154.359375 C 222.4375 152.65625 229.449219 149.875 231.976562 148.105469 C 235.136719 145.894531 237.347656 142.042969 239.242188 135.410156 C 241.011719 129.027344 241.578125 122.964844 240.949219 116.835938 C 240.378906 111.78125 238.609375 104.011719 236.96875 99.460938 C 235.390625 94.976562 231.789062 89.101562 229.070312 86.386719 C 226.355469 83.734375 221.113281 80.195312 217.511719 78.550781 C 213.40625 76.65625 207.148438 75.582031 200.960938 75.582031 C 195.464844 75.644531 189.144531 76.40625 186.871094 77.289062 C 184.597656 78.238281 180.996094 80.574219 178.847656 82.59375 Z M 108.851562 87.332031 C 110.367188 87.648438 111.820312 88.976562 112.074219 90.367188 C 112.390625 91.691406 109.738281 97.125 106.324219 102.367188 C 102.597656 107.992188 98.871094 111.90625 97.164062 111.84375 C 95.332031 111.84375 94.257812 110.582031 94.257812 108.558594 C 94.257812 106.726562 95.082031 103.570312 96.089844 101.484375 C 97.101562 99.460938 99.816406 95.355469 102.09375 92.324219 C 104.367188 89.292969 107.398438 87.082031 108.851562 87.332031 Z M 62.355469 98.578125 C 64 98.578125 67.15625 99.84375 69.429688 101.359375 C 71.707031 102.875 76 106.410156 78.972656 109.191406 C 81.941406 112.035156 84.339844 115.257812 84.339844 116.394531 C 84.339844 117.53125 83.203125 118.855469 81.8125 119.300781 C 80.488281 119.742188 75.9375 117.71875 71.832031 114.75 C 67.664062 111.78125 62.734375 108.242188 60.839844 106.917969 C 58.566406 105.273438 57.679688 103.378906 58.375 101.484375 C 58.945312 99.90625 60.714844 98.640625 62.355469 98.578125 Z M 112.832031 121.828125 C 114.917969 121.828125 119.527344 123.214844 123.191406 124.859375 C 126.855469 126.5 130.773438 129.089844 131.910156 130.609375 C 133.046875 132.125 133.554688 134.082031 133.109375 135.03125 C 132.667969 135.914062 130.960938 136.671875 129.382812 136.609375 C 127.804688 136.609375 122.625 134.777344 117.824219 132.503906 C 111.632812 129.535156 109.105469 127.449219 109.105469 125.113281 C 109.105469 122.773438 110.242188 121.761719 112.832031 121.828125 Z M 76.507812 132.125 C 77.644531 132.503906 78.71875 134.207031 79.035156 135.976562 C 79.285156 137.808594 77.203125 141.472656 74.042969 144.632812 C 70.820312 147.855469 67.285156 149.875 65.453125 149.621094 C 63.683594 149.308594 61.976562 148.167969 61.722656 147.03125 C 61.410156 145.894531 64.1875 141.914062 67.851562 138.1875 C 71.515625 134.460938 75.433594 131.746094 76.507812 132.125 Z M 100.132812 138.316406 C 101.460938 138.316406 103.609375 140.019531 105 142.042969 C 106.386719 144.0625 107.523438 148.167969 107.460938 151.140625 C 107.460938 154.109375 106.703125 156.886719 105.820312 157.328125 C 104.933594 157.773438 103.230469 157.519531 102.09375 156.699219 C 100.957031 155.875 99.125 152.148438 97.984375 148.421875 C 96.847656 144.695312 96.28125 140.90625 96.785156 139.957031 C 97.292969 139.074219 98.808594 138.316406 100.132812 138.316406 Z M 132.730469 166.488281 C 137.027344 166.488281 142.964844 167.5625 145.933594 168.890625 C 148.902344 170.21875 153.894531 174.007812 157.117188 177.292969 C 161.917969 182.21875 162.992188 184.683594 163.558594 191.757812 C 164.128906 199.402344 163.625 200.984375 159.203125 206.164062 C 156.484375 209.320312 150.230469 214.125 145.304688 216.777344 C 139.429688 219.933594 133.933594 221.578125 129.003906 221.640625 C 124.140625 221.703125 119.339844 220.441406 115.359375 218.101562 C 111.949219 216.082031 108.03125 212.164062 106.640625 209.449219 C 105.3125 206.730469 104.175781 201.171875 104.175781 197.066406 C 104.175781 192.960938 105.566406 186.832031 107.335938 183.421875 C 109.042969 180.007812 112.199219 175.648438 114.347656 173.691406 C 116.496094 171.796875 119.71875 169.394531 121.550781 168.386719 C 123.382812 167.375 128.371094 166.554688 132.730469 166.488281 Z M 119.339844 181.527344 C 117.507812 183.671875 115.167969 187.527344 114.222656 190.054688 C 113.210938 192.519531 112.453125 196.433594 112.453125 198.707031 C 112.453125 201.109375 114.539062 204.964844 117.378906 207.804688 C 120.707031 211.132812 124.015625 212.796875 127.296875 212.796875 C 130.078125 212.796875 134.691406 211.785156 137.660156 210.585938 C 140.628906 209.386719 145.808594 206.035156 149.21875 203.132812 C 153.011719 199.910156 155.472656 196.433594 155.472656 194.160156 C 155.472656 192.136719 154.085938 188.222656 152.441406 185.441406 C 150.800781 182.726562 146.691406 179.1875 143.34375 177.609375 C 139.996094 176.03125 135.574219 174.765625 133.554688 174.828125 C 131.46875 174.890625 128.183594 175.523438 126.289062 176.21875 C 124.328125 176.976562 121.171875 179.3125 119.339844 181.527344 Z M 218.207031 192.898438 C 220.984375 192.898438 225.34375 193.96875 227.808594 195.171875 C 230.335938 196.433594 233.304688 199.402344 234.441406 201.804688 C 235.578125 204.203125 236.527344 207.617188 236.527344 209.449219 C 236.527344 211.28125 235.515625 214.816406 234.25 217.34375 C 233.050781 219.808594 229.828125 222.839844 227.238281 224.042969 C 224.585938 225.304688 220.226562 225.875 217.511719 225.304688 C 214.792969 224.800781 210.8125 222.714844 208.792969 220.628906 C 206.707031 218.609375 204.558594 213.933594 203.929688 210.269531 C 202.980469 204.394531 203.421875 203.066406 207.972656 198.265625 C 211.574219 194.476562 214.605469 192.898438 218.207031 192.898438 Z M 213.027344 208.5 C 213.152344 210.394531 214.164062 212.921875 215.363281 214.058594 C 216.5625 215.261719 219.34375 215.957031 221.617188 215.703125 C 225.15625 215.324219 225.785156 214.4375 225.785156 209.449219 C 225.785156 204.203125 225.28125 203.636719 220.734375 203.195312 C 217.953125 202.878906 215.046875 203.195312 214.289062 203.890625 C 213.46875 204.519531 212.898438 206.605469 213.027344 208.5 Z M 72.402344 216.460938 C 74.613281 216.902344 75.117188 218.609375 74.800781 224.421875 C 74.613281 228.464844 73.347656 232.886719 72.023438 234.277344 C 70.570312 235.792969 68.546875 236.234375 67.03125 235.539062 C 65.324219 234.71875 64.695312 232.757812 65.199219 229.726562 C 65.578125 227.199219 66.714844 223.09375 67.789062 220.503906 C 68.988281 217.472656 70.632812 216.019531 72.402344 216.460938 Z M 43.65625 224.292969 C 44.605469 224.292969 47.699219 226.503906 50.417969 229.222656 C 53.765625 232.570312 54.964844 235.035156 54.144531 236.738281 C 53.449219 238.128906 51.933594 239.265625 50.796875 239.328125 C 49.660156 239.328125 46.6875 237.8125 44.226562 235.980469 C 41.699219 234.148438 39.550781 231.242188 39.359375 229.601562 C 39.234375 227.894531 39.738281 226.0625 40.5 225.429688 C 41.257812 224.863281 42.644531 224.355469 43.65625 224.292969 Z M 179.039062 232.632812 C 181.5 232.632812 185.988281 233.582031 188.957031 234.78125 C 191.925781 235.980469 196.347656 239.519531 198.8125 242.675781 C 202.097656 246.785156 203.359375 250.257812 203.359375 255.375 C 203.421875 260.996094 202.347656 263.589844 198.054688 268.453125 C 195.085938 271.800781 189.714844 275.84375 186.050781 277.550781 C 182.449219 279.191406 176.636719 280.519531 173.226562 280.582031 C 169.816406 280.582031 164.824219 279.507812 162.042969 278.117188 C 159.328125 276.726562 155.601562 273.191406 153.832031 270.285156 C 151.875 267.125 150.484375 261.945312 150.484375 257.839844 C 150.484375 252.28125 151.621094 249.5625 155.851562 244.761719 C 158.824219 241.414062 164.253906 237.371094 167.855469 235.726562 C 171.519531 234.023438 176.511719 232.695312 179.039062 232.632812 Z M 160.71875 253.542969 C 158.824219 257.585938 158.886719 259.039062 161.097656 263.652344 C 162.550781 266.621094 165.773438 269.84375 168.296875 270.789062 C 171.394531 272.054688 174.617188 272.054688 178.597656 270.917969 C 181.816406 270.03125 186.808594 267 189.777344 264.15625 C 192.746094 261.378906 195.148438 257.585938 195.148438 255.753906 C 195.148438 253.984375 193.316406 250.257812 191.039062 247.542969 C 187.628906 243.4375 185.671875 242.550781 179.859375 242.550781 C 175.878906 242.613281 170.699219 243.941406 167.855469 245.710938 C 165.140625 247.414062 161.917969 250.953125 160.71875 253.542969 Z M 91.542969 239.582031 C 98.746094 240.023438 100.007812 240.59375 100.007812 243.371094 C 100.007812 246.027344 98.363281 246.972656 91.351562 248.363281 C 84.277344 249.691406 82.191406 249.5625 80.042969 247.542969 C 77.707031 245.269531 77.707031 244.761719 80.234375 242.046875 C 82.382812 239.773438 85.097656 239.203125 91.542969 239.582031 Z M 232.546875 245.835938 C 232.925781 245.835938 234.441406 246.40625 235.957031 247.101562 C 237.472656 247.792969 240.441406 250.953125 242.464844 254.113281 C 244.550781 257.332031 245.875 260.871094 245.496094 262.007812 C 245.117188 263.144531 243.476562 264.09375 241.894531 264.09375 C 240.316406 264.15625 236.589844 261.125 233.621094 257.460938 C 229.386719 252.21875 228.628906 250.320312 230.082031 248.363281 C 231.09375 246.972656 232.230469 245.835938 232.546875 245.835938 Z M 52.4375 250.828125 C 55.089844 250.828125 56.164062 251.773438 56.164062 254.113281 C 56.164062 256.386719 53.953125 258.535156 49.152344 260.871094 C 45.300781 262.765625 41.191406 263.902344 40.054688 263.335938 C 38.917969 262.828125 37.90625 261.25 37.78125 259.925781 C 37.65625 258.535156 40.054688 255.945312 43.152344 254.113281 C 46.246094 252.28125 50.417969 250.828125 52.4375 250.828125 Z M 272.914062 251.269531 C 274.304688 251.457031 275.566406 253.355469 275.820312 255.375 C 276.136719 258.027344 275 259.609375 272.09375 260.746094 C 269.820312 261.628906 265.902344 263.96875 263.375 265.925781 C 260.722656 268.011719 257.6875 269.019531 255.984375 268.390625 C 254.339844 267.820312 253.078125 266.429688 253.015625 265.292969 C 253.015625 264.15625 254.65625 261.628906 256.742188 259.609375 C 258.828125 257.648438 262.742188 254.808594 265.460938 253.417969 C 268.175781 251.964844 271.523438 251.015625 272.914062 251.269531 Z M 69.179688 256.132812 C 70.632812 256.386719 72.78125 258.472656 73.917969 260.746094 C 75.117188 263.019531 75.875 267.503906 75.621094 270.664062 C 75.308594 275.023438 74.359375 276.601562 71.894531 276.980469 C 69.117188 277.359375 68.292969 276.035156 66.527344 268.261719 C 65.386719 263.210938 64.945312 258.28125 65.515625 257.332031 C 66.019531 256.386719 67.726562 255.816406 69.179688 256.132812 Z M 107.460938 258.28125 C 110.683594 258.851562 114.980469 260.996094 117 262.957031 C 119.085938 264.914062 121.171875 268.769531 121.675781 271.484375 C 122.183594 274.203125 121.613281 278.625 120.414062 281.214844 C 119.210938 283.867188 116.179688 287.027344 113.652344 288.289062 C 111.191406 289.488281 106.894531 290.5 104.175781 290.5 C 100.851562 290.5 97.542969 288.859375 94.257812 285.574219 C 89.964844 281.277344 89.332031 279.570312 89.710938 272.8125 C 90.027344 265.925781 90.785156 264.535156 95.902344 261.125 C 100.386719 258.09375 102.976562 257.460938 107.460938 258.28125 Z M 98.363281 275.652344 C 98.808594 277.484375 100.511719 279.632812 102.09375 280.390625 C 103.796875 281.277344 106.578125 281.277344 108.726562 280.390625 C 111 279.507812 112.453125 277.550781 112.453125 275.210938 C 112.453125 273.191406 111.570312 270.539062 110.429688 269.398438 C 109.230469 268.261719 106.703125 267.316406 104.746094 267.316406 C 102.851562 267.378906 100.386719 268.453125 99.375 269.84375 C 98.363281 271.230469 97.921875 273.820312 98.363281 275.652344 Z M 228.25 272.496094 C 230.523438 272.433594 233.367188 272.9375 234.566406 273.570312 C 235.769531 274.265625 236.527344 276.285156 236.210938 278.117188 C 235.769531 280.960938 234.1875 281.464844 225.34375 281.84375 C 215.550781 282.222656 215.046875 282.035156 215.425781 278.625 C 215.679688 276.285156 217.382812 274.515625 219.972656 273.820312 C 222.25 273.191406 225.976562 272.621094 228.25 272.496094 Z M 264.007812 278.9375 C 264.386719 278.9375 267.039062 280.140625 270.007812 281.59375 C 272.976562 283.109375 277.082031 285.886719 279.167969 287.847656 C 281.253906 289.742188 282.894531 292.648438 282.894531 294.226562 C 282.894531 295.871094 281.757812 297.511719 280.367188 297.953125 C 278.980469 298.460938 275.316406 296.753906 272.21875 294.226562 C 269.058594 291.761719 264.828125 288.480469 262.679688 287.027344 C 259.394531 284.6875 259.140625 283.992188 261.101562 281.65625 C 262.363281 280.140625 263.628906 278.9375 264.007812 278.9375 Z M 247.328125 287.214844 C 248.65625 287.214844 249.980469 288.351562 250.296875 289.679688 C 250.613281 291.003906 250.234375 295.679688 249.476562 300.039062 C 248.78125 304.335938 247.203125 308.757812 246.066406 309.894531 C 244.738281 311.09375 243.03125 311.285156 241.453125 310.398438 C 239.558594 309.261719 239.242188 307.304688 240.253906 301.367188 C 240.949219 297.257812 242.273438 292.332031 243.160156 290.5 C 244.105469 288.730469 246.003906 287.214844 247.328125 287.214844 Z M 134.375 292.332031 C 135.953125 292.269531 139.871094 294.796875 143.027344 297.953125 C 147.449219 302.375 148.839844 305.15625 148.839844 309.578125 C 148.839844 312.738281 147.703125 317.601562 146.378906 320.316406 C 144.988281 323.035156 142.398438 326.003906 140.566406 326.953125 C 138.734375 327.835938 134.816406 328.59375 131.910156 328.59375 C 128.941406 328.59375 124.078125 327.078125 121.109375 325.246094 C 118.136719 323.476562 114.917969 319.9375 113.96875 317.414062 C 112.707031 314.253906 112.707031 311.09375 113.84375 307.050781 C 114.789062 303.894531 116.875 299.976562 118.519531 298.398438 C 120.222656 296.816406 123.761719 294.859375 126.476562 293.976562 C 129.257812 293.152344 132.792969 292.394531 134.375 292.332031 Z M 122.75 311.601562 C 123.066406 314.757812 124.644531 316.78125 127.742188 318.234375 C 130.582031 319.496094 133.363281 319.75 135.195312 318.863281 C 136.773438 318.105469 138.605469 315.390625 139.300781 312.863281 C 140.121094 309.640625 139.679688 307.429688 137.597656 305.15625 C 136.078125 303.449219 133.679688 301.996094 132.289062 302.0625 C 130.898438 302.0625 128.121094 303.199219 126.097656 304.585938 C 123.507812 306.292969 122.496094 308.441406 122.75 311.601562 Z M 112.199219 339.082031 C 114.601562 340.027344 117.886719 341.988281 119.527344 343.375 C 121.234375 344.894531 122.433594 348.175781 122.433594 351.335938 C 122.371094 354.433594 120.980469 358.097656 119.085938 359.992188 C 117.191406 361.824219 113.527344 363.339844 110.808594 363.339844 C 108.03125 363.339844 104.492188 362.707031 102.914062 361.886719 C 101.335938 361.128906 98.996094 357.90625 97.734375 354.875 C 95.839844 350.136719 95.839844 348.558594 97.734375 344.640625 C 98.996094 342.113281 101.777344 339.398438 103.925781 338.703125 C 106.136719 337.945312 109.738281 338.070312 112.199219 339.082031 Z M 108.347656 354.621094 C 109.738281 355.316406 111.632812 355.125 112.515625 354.242188 C 113.464844 353.292969 113.78125 351.273438 113.273438 349.695312 C 112.832031 348.050781 110.9375 346.789062 109.105469 346.789062 C 106.914062 346.789062 105.820312 347.882812 105.820312 350.074219 C 105.820312 351.90625 106.957031 353.925781 108.347656 354.621094 Z M 108.347656 354.621094 " fill-opacity="1" fill-rule="evenodd"/></g></svg>