<svg xmlns="http://www.w3.org/2000/svg" xmlns:xlink="http://www.w3.org/1999/xlink" width="500" zoomAndPan="magnify" viewBox="0 0 375 374.999991" height="500" preserveAspectRatio="xMidYMid meet" version="1.0"><defs><clipPath id="48ca3db1a6"><path d="M 67.5 165.148438 L 307.5 165.148438 L 307.5 210 L 67.5 210 Z M 67.5 165.148438 " clip-rule="nonzero"/></clipPath></defs><g clip-path="url(#48ca3db1a6)"><path fill="#f6fa70" d="M 306.777344 208.242188 C 298.148438 204.40625 290.351562 198.71875 284.167969 191.558594 C 283.800781 191.132812 283.433594 190.695312 283.078125 190.257812 C 284.621094 189.378906 286.105469 188.417969 287.535156 187.382812 C 293.546875 183.011719 298.558594 177.195312 301.1875 170.179688 C 301.699219 168.820312 301.96875 167.207031 300.636719 166.230469 C 299.535156 165.410156 297.949219 165.523438 296.691406 165.863281 C 295.007812 166.332031 293.5625 167.433594 292.191406 168.480469 C 290.476562 169.78125 288.894531 171.238281 287.449219 172.839844 C 286.433594 173.972656 285.511719 175.1875 284.648438 176.445312 C 283.84375 171.988281 280.914062 167.972656 276.695312 166.105469 C 274.671875 165.199219 272.011719 165.183594 271.152344 167.617188 C 270.386719 169.78125 271.363281 172.203125 272.125 174.210938 C 274.234375 179.742188 277.09375 184.921875 280.617188 189.621094 C 266.636719 196.878906 250.253906 196.835938 234.871094 194.515625 C 225.335938 193.074219 215.910156 190.921875 206.433594 189.082031 C 197.304688 187.300781 188.152344 185.671875 178.941406 184.355469 C 160.703125 181.765625 142.164062 180.492188 123.785156 182.332031 C 106.15625 184.085938 87.988281 188.699219 72.90625 198.308594 C 71.109375 199.453125 69.382812 200.683594 67.710938 202 C 67.5 202.171875 67.78125 202.539062 67.996094 202.367188 C 75.609375 196.75 84.167969 192.929688 93.167969 190.085938 C 102.351562 187.1875 111.84375 185.332031 121.421875 184.3125 C 140.679688 182.277344 160.164062 183.71875 179.277344 186.492188 C 188.914062 187.894531 198.492188 189.648438 208.058594 191.542969 C 217.878906 193.496094 227.65625 195.691406 237.601562 196.949219 C 247.167969 198.152344 257.015625 198.476562 266.507812 196.484375 C 271.773438 195.378906 276.953125 193.554688 281.71875 190.992188 C 284.394531 194.347656 287.40625 197.429688 290.734375 200.191406 C 295.429688 204.082031 300.59375 207.207031 306.242188 209.484375 C 306.960938 209.8125 307.5 208.566406 306.777344 208.242188 Z M 276.171875 179.914062 C 275.042969 177.804688 274.066406 175.613281 273.214844 173.375 C 272.609375 171.75 271.207031 168.425781 273.089844 167.109375 C 274.417969 166.175781 276.414062 167.304688 277.589844 168.027344 C 278.664062 168.691406 279.625 169.527344 280.476562 170.460938 C 282.34375 172.527344 283.503906 175.171875 283.773438 177.945312 C 283.8125 178.46875 284.480469 178.695312 284.789062 178.214844 C 287.082031 174.578125 290.292969 171.382812 293.847656 168.949219 C 295.21875 168 296.660156 167.050781 298.402344 167.066406 C 298.96875 167.066406 299.773438 167.152344 300.042969 167.730469 C 300.46875 168.621094 299.535156 170.179688 299.167969 170.984375 C 296.066406 177.734375 290.902344 183.253906 284.707031 187.269531 C 283.828125 187.835938 282.9375 188.375 282.03125 188.882812 C 279.808594 186.082031 277.84375 183.070312 276.171875 179.914062 Z M 276.171875 179.914062 " fill-opacity="1" fill-rule="nonzero"/></g></svg>