<svg xmlns="http://www.w3.org/2000/svg" xmlns:xlink="http://www.w3.org/1999/xlink" width="500" zoomAndPan="magnify" viewBox="0 0 375 374.999991" height="500" preserveAspectRatio="xMidYMid meet" version="1.0"><defs><clipPath id="8975605a20"><path d="M 21 221 L 355 221 L 355 357 L 21 357 Z M 21 221 " clip-rule="nonzero"/></clipPath><clipPath id="627a91bae1"><path d="M 18.089844 21.089844 L 18.089844 353.910156 C 18.089844 355.566406 19.433594 356.910156 21.089844 356.910156 L 353.910156 356.910156 C 355.566406 356.910156 356.910156 355.566406 356.910156 353.910156 L 356.910156 21.089844 C 356.910156 19.433594 355.566406 18.089844 353.910156 18.089844 L 21.089844 18.089844 C 19.433594 18.089844 18.089844 19.433594 18.089844 21.089844 Z M 18.089844 21.089844 " clip-rule="nonzero"/></clipPath><clipPath id="290881ecad"><path d="M 19 240 L 357 240 L 357 357 L 19 357 Z M 19 240 " clip-rule="nonzero"/></clipPath><clipPath id="8619e49556"><path d="M 18.089844 21.089844 L 18.089844 353.910156 C 18.089844 355.566406 19.433594 356.910156 21.089844 356.910156 L 353.910156 356.910156 C 355.566406 356.910156 356.910156 355.566406 356.910156 353.910156 L 356.910156 21.089844 C 356.910156 19.433594 355.566406 18.089844 353.910156 18.089844 L 21.089844 18.089844 C 19.433594 18.089844 18.089844 19.433594 18.089844 21.089844 Z M 18.089844 21.089844 " clip-rule="nonzero"/></clipPath><clipPath id="8c7b0171d1"><path d="M 115 81 L 296 81 L 296 260 L 115 260 Z M 115 81 " clip-rule="nonzero"/></clipPath><clipPath id="6c57f44452"><path d="M 18.089844 21.089844 L 18.089844 353.910156 C 18.089844 355.566406 19.433594 356.910156 21.089844 356.910156 L 353.910156 356.910156 C 355.566406 356.910156 356.910156 355.566406 356.910156 353.910156 L 356.910156 21.089844 C 356.910156 19.433594 355.566406 18.089844 353.910156 18.089844 L 21.089844 18.089844 C 19.433594 18.089844 18.089844 19.433594 18.089844 21.089844 Z M 18.089844 21.089844 " clip-rule="nonzero"/></clipPath><clipPath id="9afb3d63ed"><path d="M 53 20 L 344 20 L 344 279 L 53 279 Z M 53 20 " clip-rule="nonzero"/></clipPath><clipPath id="7c8e084e42"><path d="M 18.089844 21.089844 L 18.089844 353.910156 C 18.089844 355.566406 19.433594 356.910156 21.089844 356.910156 L 353.910156 356.910156 C 355.566406 356.910156 356.910156 355.566406 356.910156 353.910156 L 356.910156 21.089844 C 356.910156 19.433594 355.566406 18.089844 353.910156 18.089844 L 21.089844 18.089844 C 19.433594 18.089844 18.089844 19.433594 18.089844 21.089844 Z M 18.089844 21.089844 " clip-rule="nonzero"/></clipPath><clipPath id="77ab50a003"><path d="M 194 143 L 276 143 L 276 228 L 194 228 Z M 194 143 " clip-rule="nonzero"/></clipPath><clipPath id="725717f4a2"><path d="M 18.089844 21.089844 L 18.089844 353.910156 C 18.089844 355.566406 19.433594 356.910156 21.089844 356.910156 L 353.910156 356.910156 C 355.566406 356.910156 356.910156 355.566406 356.910156 353.910156 L 356.910156 21.089844 C 356.910156 19.433594 355.566406 18.089844 353.910156 18.089844 L 21.089844 18.089844 C 19.433594 18.089844 18.089844 19.433594 18.089844 21.089844 Z M 18.089844 21.089844 " clip-rule="nonzero"/></clipPath></defs><g clip-path="url(#8975605a20)"><g clip-path="url(#627a91bae1)"><path fill="#ffffff" d="M 354.300781 524.960938 C 353.675781 511.871094 352.636719 498.992188 351.808594 485.902344 C 349.730469 459.933594 347.03125 434.171875 342.667969 408.621094 C 338.304688 383.484375 332.074219 358.761719 323.140625 334.871094 C 318.988281 323.652344 314.625 314.09375 307.976562 304.121094 C 301.746094 294.566406 294.0625 288.125 284.296875 282.515625 C 275.574219 277.324219 265.394531 268.390625 256.878906 262.574219 C 253.347656 260.078125 246.078125 260.289062 243.792969 256.757812 C 240.675781 252.183594 242.753906 244.914062 239.429688 240.34375 C 235.691406 234.941406 230.707031 230.789062 224.890625 227.878906 C 218.660156 223.722656 211.179688 221.648438 203.910156 222.0625 C 192.902344 221.4375 181.890625 224.96875 175.035156 233.695312 C 171.503906 238.058594 169.429688 243.253906 169.222656 248.863281 C 169.222656 250.316406 169.636719 251.5625 170.46875 252.394531 C 170.050781 253.015625 169.636719 253.640625 169.011719 254.261719 C 167.558594 252.1875 164.234375 250.9375 161.949219 252.601562 C 154.679688 257.792969 146.785156 261.949219 138.476562 265.066406 C 136.609375 264.234375 134.117188 264.652344 132.453125 266.105469 C 131.832031 266.726562 131 267.144531 130.378906 267.765625 C 127.261719 268.597656 124.144531 269.222656 121.03125 269.84375 C 119.992188 270.050781 119.160156 270.675781 118.535156 271.296875 C 117.5 270.46875 116.253906 270.050781 114.796875 270.46875 C 97.765625 276.699219 81.976562 286.671875 69.929688 300.175781 C 56.636719 315.132812 49.574219 333.832031 44.171875 352.734375 C 38.355469 373.304688 34.617188 394.492188 31.503906 415.683594 C 28.386719 437.082031 25.269531 458.6875 22.984375 480.292969 C 21.738281 492.34375 21.324219 504.808594 21.945312 516.855469 C 22.15625 522.882812 22.777344 529.113281 23.609375 535.140625 C 23.816406 536.59375 24.023438 538.253906 24.441406 539.710938 C 23.402344 539.5 22.15625 540.332031 22.363281 541.785156 C 23.816406 551.757812 35.863281 554.667969 44.171875 555.914062 C 57.882812 557.785156 71.382812 558.824219 85.300781 558.824219 C 98.804688 558.824219 112.304688 557.992188 125.808594 557.160156 C 139.722656 556.328125 153.433594 555.5 167.351562 554.667969 C 222.605469 551.34375 278.066406 548.226562 333.320312 544.902344 C 338.304688 544.695312 344.121094 544.28125 348.484375 541.371094 C 354.300781 537.839844 354.714844 531.398438 354.300781 524.960938 Z M 354.300781 524.960938 " fill-opacity="1" fill-rule="evenodd"/></g></g><g clip-path="url(#290881ecad)"><g clip-path="url(#8619e49556)"><path fill="#000000" d="M 84.472656 413.191406 C 84.261719 412.773438 84.679688 412.566406 85.09375 412.773438 C 91.742188 418.59375 95.273438 428.148438 96.101562 436.875 C 96.933594 446.222656 95.6875 455.777344 95.273438 465.128906 C 94.855469 475.515625 94.441406 485.902344 93.816406 496.082031 C 93.195312 506.46875 92.570312 517.066406 92.15625 527.453125 L 90.910156 551.136719 C 90.703125 553.628906 91.117188 556.746094 90.078125 559.03125 C 88.625 562.769531 84.054688 562.144531 83.222656 559.03125 C 82.394531 556.328125 83.015625 553.003906 83.222656 550.304688 L 84.472656 524.542969 C 85.300781 506.261719 86.132812 488.1875 87.171875 469.90625 L 87.585938 463.882812 C 88.003906 455.777344 88.417969 447.46875 88.625 439.367188 L 88.625 436.667969 C 88.625 428.355469 88.417969 420.667969 84.472656 413.191406 Z M 247.324219 261.949219 C 251.0625 261.535156 253.972656 262.78125 257.292969 264.234375 C 258.75 264.859375 260.203125 265.480469 261.65625 266.105469 C 263.527344 266.9375 264.566406 268.390625 265.601562 270.050781 L 266.226562 270.882812 C 270.796875 277.53125 273.910156 285.21875 277.234375 292.488281 C 281.183594 301.007812 285.335938 309.523438 289.285156 318.042969 L 291.152344 322.195312 C 292.191406 324.273438 293.023438 326.351562 294.0625 328.429688 L 295.722656 332.167969 C 297.382812 335.910156 298.839844 339.855469 296.554688 343.800781 C 294.269531 347.335938 290.53125 350.242188 287.414062 352.945312 C 284.921875 355.230469 282.222656 357.515625 279.726562 359.800781 C 285.128906 365.199219 288.660156 371.847656 290.738281 379.121094 C 293.644531 377.875 297.382812 377.664062 300.5 377.042969 C 304.863281 376.210938 305.277344 382.859375 301.332031 382.859375 C 298.214844 382.859375 294.683594 383.066406 291.566406 382.445312 C 292.191406 384.730469 292.398438 387.222656 292.816406 389.714844 C 294.0625 402.386719 291.359375 415.058594 288.246094 427.523438 L 288.035156 428.5625 C 284.714844 441.859375 281.804688 455.15625 279.105469 468.660156 C 276.40625 482.164062 273.910156 495.667969 271.628906 509.171875 C 269.34375 522.882812 267.886719 536.800781 266.226562 550.71875 C 266.019531 552.796875 264.566406 554.667969 262.28125 554.667969 C 260.410156 554.667969 258.125 552.796875 258.332031 550.71875 C 259.996094 535.554688 262.488281 520.597656 264.980469 505.640625 C 269.132812 479.878906 274.535156 454.324219 280.765625 428.980469 L 281.804688 424.617188 C 284.503906 413.191406 287 401.347656 285.753906 389.507812 C 284.714844 379.949219 280.558594 369.5625 272.664062 363.539062 L 272.457031 363.125 C 270.589844 361.667969 269.964844 359.175781 271.628906 357.304688 C 272.875 356.058594 273.910156 355.019531 275.160156 353.980469 L 282.222656 347.125 L 283.675781 345.671875 C 284.921875 344.425781 285.960938 343.386719 287.207031 342.347656 C 288.035156 341.726562 289.90625 340.480469 290.113281 339.230469 C 290.113281 338.609375 289.285156 337.15625 289.074219 336.53125 L 287.414062 333.414062 C 286.582031 331.546875 285.542969 329.675781 284.714844 328.015625 C 282.84375 324.273438 280.972656 320.535156 279.3125 316.585938 L 268.71875 293.734375 C 265.8125 287.296875 263.109375 280.4375 259.164062 274.414062 L 258.332031 273.167969 C 257.710938 272.128906 257.085938 271.296875 256.671875 270.050781 C 256.253906 268.804688 255.839844 267.558594 255.007812 266.726562 C 253.347656 264.441406 250.023438 263.195312 247.324219 262.574219 C 246.910156 262.574219 247.117188 261.949219 247.324219 261.949219 Z M 165.273438 255.925781 C 165.480469 255.925781 165.480469 256.339844 165.273438 256.339844 C 161.949219 257.378906 158.835938 258.832031 156.34375 261.328125 C 155.097656 262.363281 153.847656 263.613281 153.019531 265.066406 C 152.8125 265.6875 152.601562 266.3125 152.394531 266.9375 L 152.394531 267.144531 C 152.1875 268.183594 151.980469 268.804688 151.355469 269.84375 L 151.355469 270.050781 C 148.035156 275.039062 145.75 280.648438 143.671875 286.257812 L 139.101562 298.511719 L 134.53125 310.769531 C 133.078125 314.71875 131.625 318.664062 130.167969 322.613281 C 129.339844 324.691406 128.507812 326.976562 127.675781 329.050781 C 127.261719 330.089844 126.847656 330.921875 126.636719 331.960938 C 126.636719 332.167969 126.429688 332.792969 126.429688 333 C 127.261719 334.453125 129.753906 335.910156 131.207031 336.945312 L 135.984375 340.894531 C 139.308594 343.59375 142.839844 346.296875 146.164062 349.203125 C 148.242188 351.074219 146.996094 354.191406 144.710938 355.019531 C 140.761719 356.265625 137.023438 357.722656 133.285156 359.175781 C 131.832031 359.800781 130.167969 360.214844 128.714844 360.839844 L 127.46875 361.046875 C 127.054688 361.253906 127.261719 361.253906 127.261719 361.875 C 127.261719 362.5 127.46875 363.332031 127.675781 363.953125 C 128.921875 371.640625 130.378906 379.535156 131.832031 387.222656 C 136.816406 414.644531 143.046875 441.859375 149.902344 468.867188 C 153.433594 482.578125 157.171875 496.082031 160.703125 509.585938 C 164.234375 523.089844 169.011719 536.59375 173.375 549.890625 C 174.621094 553.628906 168.597656 555.289062 167.558594 551.550781 C 162.367188 535.96875 157.589844 520.179688 152.8125 504.390625 C 144.085938 476.347656 137.230469 447.882812 131.207031 419.214844 C 128.300781 405.089844 125.390625 390.753906 122.898438 376.417969 C 122.484375 373.71875 122.066406 371.019531 121.445312 368.316406 L 121.03125 364.578125 C 120.613281 361.667969 120.40625 358.761719 122.484375 356.476562 C 124.5625 354.191406 128.300781 353.566406 131.207031 352.527344 L 131.414062 352.527344 C 133.285156 351.90625 134.945312 351.28125 136.816406 350.449219 C 134.117188 348.375 131.625 346.296875 128.921875 344.011719 C 126.847656 342.347656 124.5625 340.6875 122.484375 339.023438 C 120.820312 337.570312 119.367188 335.699219 119.160156 333.414062 C 118.953125 331.128906 119.992188 328.84375 120.820312 326.765625 L 120.820312 326.558594 C 121.652344 324.480469 122.484375 322.195312 123.316406 320.121094 L 128.507812 306.617188 C 131.832031 298.097656 134.945312 289.582031 138.269531 281.0625 C 139.722656 277.738281 141.179688 274.414062 142.839844 271.296875 C 143.671875 269.84375 144.503906 268.183594 145.539062 266.9375 C 146.578125 265.273438 147.617188 264.441406 149.28125 263.613281 C 151.980469 262.15625 154.058594 259.871094 156.964844 258.417969 C 159.457031 256.757812 162.367188 255.925781 165.273438 255.925781 Z M 174.207031 240.757812 C 174.414062 240.550781 174.621094 240.757812 174.621094 240.96875 C 174.621094 245.121094 173.789062 249.484375 173.167969 253.640625 C 172.542969 257.792969 172.335938 262.363281 171.503906 266.519531 C 171.503906 266.726562 171.503906 266.9375 171.296875 267.144531 L 171.296875 267.351562 C 170.882812 268.597656 169.84375 269.429688 168.804688 269.84375 C 169.222656 271.921875 169.636719 274 169.84375 276.285156 C 170.257812 280.023438 170.882812 283.554688 171.296875 287.296875 L 171.921875 291.65625 C 172.542969 295.8125 172.960938 299.96875 173.375 304.121094 C 174.414062 304.121094 175.660156 304.746094 177.113281 304.953125 C 180.230469 305.785156 183.347656 306.199219 186.460938 306.617188 C 192.902344 307.238281 199.546875 307.445312 205.988281 307.863281 L 207.441406 307.863281 C 214.710938 308.277344 222.191406 308.277344 229.460938 307.65625 C 232.992188 307.238281 236.730469 306.617188 240.261719 305.785156 C 242.128906 305.371094 243.792969 304.746094 245.660156 304.121094 C 246.285156 303.914062 246.699219 303.707031 247.324219 303.292969 C 247.53125 302.875 247.945312 302.667969 248.363281 302.667969 L 248.777344 302.667969 C 249.191406 302.667969 249.402344 302.667969 249.816406 302.667969 C 250.023438 299.34375 250.023438 296.226562 250.230469 292.902344 C 250.648438 284.179688 252.101562 275.246094 250.230469 266.519531 C 250.230469 266.3125 250.648438 266.105469 250.648438 266.3125 C 254.179688 275.453125 253.761719 285.425781 253.972656 294.980469 C 254.179688 304.332031 253.972656 313.679688 253.972656 323.027344 C 254.59375 323.234375 255.21875 323.652344 255.632812 324.273438 C 256.671875 325.3125 256.878906 327.183594 255.632812 328.222656 C 255.007812 328.636719 254.59375 329.050781 253.761719 329.261719 C 253.761719 337.363281 253.761719 345.464844 253.554688 353.566406 C 255.007812 354.8125 255.21875 357.515625 253.554688 358.761719 C 253.347656 385.144531 252.722656 411.527344 252.308594 437.703125 L 251.476562 492.964844 C 251.269531 500.238281 251.269531 507.714844 251.0625 514.988281 L 251.269531 514.988281 C 251.476562 515.195312 252.101562 515.402344 252.101562 515.609375 C 252.101562 515.609375 252.101562 515.820312 252.101562 515.820312 C 252.515625 515.820312 253.140625 516.027344 253.554688 516.441406 C 254.59375 517.480469 254.386719 518.933594 253.554688 519.972656 L 253.347656 520.179688 C 252.722656 520.804688 251.894531 521.011719 251.0625 521.011719 C 251.0625 525.582031 251.0625 530.152344 251.0625 534.722656 C 251.0625 536.179688 251.0625 537.632812 251.0625 538.878906 L 251.0625 542.203125 C 251.0625 544.074219 250.855469 546.566406 248.984375 547.394531 C 246.699219 548.433594 244.832031 547.605469 243.792969 545.320312 C 243.585938 544.695312 243.585938 544.074219 243.792969 543.449219 C 243.792969 542.617188 243.585938 541.578125 243.585938 540.75 L 243.585938 537.214844 C 243.585938 536.59375 243.585938 536.179688 243.585938 535.554688 C 235.691406 535.96875 227.796875 535.761719 219.90625 535.761719 L 216.375 535.761719 C 213.464844 535.761719 210.558594 535.761719 207.648438 535.554688 L 206.609375 535.554688 C 204.324219 535.554688 202.039062 535.347656 199.753906 535.140625 C 199.964844 537.425781 200.378906 539.710938 200.585938 542.203125 C 200.792969 544.488281 198.507812 546.359375 196.433594 546.359375 C 193.941406 546.359375 192.691406 544.488281 192.277344 542.203125 C 190.824219 531.816406 190.410156 521.425781 188.953125 511.039062 C 187.707031 501.691406 186.667969 492.550781 185.839844 483.203125 L 185.421875 480.085938 C 181.683594 446.222656 177.945312 412.566406 174.414062 378.703125 L 172.753906 362.914062 C 171.089844 346.917969 169.429688 331.128906 167.972656 315.132812 C 167.144531 305.992188 166.519531 296.851562 165.691406 287.710938 C 165.273438 281.0625 164.859375 274.414062 164.652344 267.558594 C 163.820312 266.726562 163.40625 265.480469 163.820312 264.234375 C 164.027344 263.402344 164.234375 262.78125 164.441406 261.949219 C 164.441406 261.328125 164.441406 260.496094 164.441406 259.871094 C 164.441406 259.25 165.066406 258.832031 165.691406 259.042969 C 166.726562 256.546875 167.765625 254.054688 168.804688 251.769531 C 170.675781 248.652344 171.921875 244.292969 174.207031 240.757812 Z M 89.871094 283.347656 C 105.660156 273.375 124.351562 266.3125 143.253906 267.144531 C 143.671875 267.144531 143.878906 267.765625 143.464844 267.972656 C 133.492188 270.257812 123.316406 272.960938 113.757812 276.90625 C 104.203125 280.648438 95.066406 286.046875 87.171875 292.488281 C 72.214844 304.539062 60.582031 319.910156 53.105469 337.363281 C 48.742188 347.542969 45.417969 358.34375 42.71875 369.148438 C 39.8125 380.574219 37.527344 392 35.449219 403.632812 C 31.503906 426.488281 29.21875 449.753906 27.972656 473.023438 C 26.722656 496.707031 27.347656 520.179688 26.308594 543.863281 C 26.101562 548.019531 20.285156 547.8125 20.078125 543.863281 C 18 517.066406 19.246094 489.640625 21.117188 462.84375 C 22.777344 438.742188 25.6875 414.644531 30.253906 390.960938 L 30.671875 388.882812 C 35.035156 366.863281 40.226562 344.425781 50.820312 324.480469 C 59.753906 307.65625 73.667969 293.527344 89.871094 283.347656 Z M 308.808594 388.261719 C 308.808594 388.054688 309.222656 388.054688 309.222656 388.261719 C 311.09375 393.246094 311.09375 399.0625 311.507812 404.257812 L 311.507812 404.671875 C 311.925781 409.453125 312.339844 414.4375 312.546875 419.214844 L 312.753906 421.085938 C 314.003906 440.820312 315.664062 460.558594 318.15625 480.292969 C 320.648438 499.820312 323.765625 519.351562 327.296875 538.878906 C 327.710938 540.957031 326.671875 543.242188 324.386719 543.863281 C 322.3125 544.488281 319.816406 543.242188 319.402344 540.957031 C 317.117188 529.738281 315.457031 518.726562 313.792969 507.300781 C 311.09375 487.566406 309.015625 467.621094 307.5625 447.675781 C 306.941406 437.703125 306.523438 427.734375 306.316406 417.554688 C 306.316406 412.984375 306.316406 408.203125 306.523438 403.632812 L 306.523438 402.59375 C 307.355469 397.816406 307.148438 392.832031 308.808594 388.261719 Z M 138.476562 514.15625 C 138.6875 513.949219 138.894531 514.363281 138.894531 514.570312 C 135.777344 519.558594 131.625 523.714844 127.675781 528.074219 C 123.523438 532.4375 119.367188 537.007812 115.214844 541.371094 C 112.097656 544.488281 107.113281 539.5 110.4375 536.59375 C 115.003906 532.644531 119.785156 528.699219 124.351562 524.75 L 126.429688 523.089844 C 130.167969 519.765625 134.117188 516.648438 138.476562 514.15625 Z M 283.46875 511.664062 C 283.257812 511.246094 283.675781 510.832031 284.089844 511.246094 C 286.582031 513.324219 288.660156 515.609375 291.152344 517.6875 C 293.4375 519.765625 295.929688 521.636719 298.421875 523.714844 C 300.914062 525.582031 303.617188 527.453125 306.109375 529.113281 C 308.394531 530.570312 310.472656 531.605469 312.753906 532.855469 C 313.792969 533.0625 314.832031 533.476562 315.664062 534.515625 C 316.910156 536.179688 317.117188 539.085938 315.25 540.332031 L 315.039062 540.539062 C 312.964844 542.203125 310.679688 542.410156 308.601562 540.539062 C 306.316406 538.464844 304.238281 536.386719 302.160156 534.308594 L 301.539062 533.683594 C 299.253906 531.398438 296.96875 529.113281 294.890625 526.828125 L 293.023438 524.75 C 289.492188 520.804688 285.960938 516.441406 283.46875 511.664062 Z M 272.042969 279.191406 C 271.628906 278.984375 271.835938 278.152344 272.457031 278.363281 L 273.289062 278.777344 C 277.234375 280.023438 281.183594 281.6875 284.714844 283.761719 C 288.453125 286.046875 291.984375 288.75 295.308594 291.449219 C 302.160156 297.265625 307.976562 304.539062 313.171875 312.226562 C 323.140625 327.390625 329.375 344.839844 334.359375 362.085938 C 339.757812 380.574219 343.707031 399.480469 347.238281 418.59375 C 350.5625 437.914062 353.261719 457.234375 354.921875 476.761719 C 355.753906 486.316406 356.378906 496.082031 356.585938 505.640625 C 356.792969 510.625 356.792969 515.609375 356.585938 520.597656 C 356.585938 521.84375 356.585938 523.089844 356.585938 524.335938 L 356.585938 528.074219 C 356.585938 530.570312 357 533.0625 356.378906 535.347656 C 355.546875 539.085938 349.105469 538.464844 349.316406 534.515625 C 349.105469 533.269531 349.105469 531.816406 349.105469 530.570312 C 349.105469 530.359375 349.105469 530.152344 349.105469 529.945312 C 349.105469 529.53125 349.105469 528.90625 349.316406 528.492188 C 349.316406 527.867188 349.316406 527.246094 349.316406 526.621094 C 349.316406 524.128906 349.316406 521.425781 349.316406 518.933594 C 349.105469 513.535156 348.898438 508.132812 348.691406 502.730469 C 348.277344 491.925781 347.652344 481.125 346.820312 470.527344 C 343.707031 433.132812 337.472656 395.53125 326.671875 359.589844 C 321.6875 342.972656 314.832031 326.558594 304.863281 312.015625 C 300.5 305.578125 295.515625 299.761719 290.113281 294.152344 C 284.714844 288.957031 278.691406 283.554688 272.042969 279.191406 Z M 197.679688 519.972656 L 198.507812 525.375 C 198.925781 528.074219 199.339844 530.777344 199.546875 533.476562 C 201.832031 533.0625 204.324219 533.0625 206.609375 532.855469 C 210.558594 532.4375 214.710938 532.230469 218.660156 532.230469 C 226.96875 531.816406 235.277344 531.191406 243.585938 531.398438 C 243.585938 531.398438 243.792969 531.398438 243.792969 531.398438 L 244.207031 520.804688 L 238.390625 520.804688 C 233.40625 520.804688 228.421875 520.804688 223.4375 520.804688 C 218.867188 520.804688 214.503906 520.804688 209.933594 520.597656 L 208.066406 520.597656 C 204.949219 520.179688 201.210938 520.390625 197.679688 519.972656 Z M 244.832031 504.601562 C 244.625 504.601562 244.414062 504.601562 244 504.601562 C 242.753906 504.601562 241.714844 504.601562 240.46875 504.601562 C 237.976562 504.601562 235.484375 504.601562 232.992188 504.601562 C 228.003906 504.601562 223.019531 504.601562 218.242188 504.601562 C 213.257812 504.601562 208.066406 504.808594 203.078125 504.808594 C 200.585938 504.808594 198.09375 504.808594 195.601562 504.601562 C 196.015625 508.132812 196.433594 511.664062 196.847656 515.195312 C 200.585938 514.78125 204.742188 514.988281 208.480469 514.988281 L 208.894531 514.988281 C 214.089844 514.988281 219.074219 514.988281 224.265625 514.988281 C 229.460938 514.988281 234.859375 514.988281 240.054688 514.988281 L 244.414062 514.988281 L 244.414062 514.78125 C 244.832031 511.457031 244.832031 507.925781 244.832031 504.601562 Z M 193.941406 487.773438 C 194.355469 491.925781 194.769531 496.082031 195.394531 500.238281 C 195.601562 500.238281 196.015625 500.238281 196.222656 500.03125 C 198.71875 499.820312 201.210938 499.613281 203.703125 499.40625 C 208.6875 499.199219 213.671875 498.992188 218.449219 498.78125 C 223.4375 498.574219 228.628906 498.574219 233.613281 498.367188 C 236.105469 498.367188 238.597656 498.367188 241.09375 498.367188 C 242.339844 498.367188 243.378906 498.367188 244.625 498.367188 C 244.832031 498.367188 244.832031 498.367188 245.039062 498.367188 L 245.039062 492.136719 C 245.039062 491.097656 245.039062 490.058594 245.039062 489.019531 C 241.300781 489.226562 237.351562 489.226562 233.613281 489.226562 L 232.785156 489.226562 C 228.003906 489.226562 223.226562 489.226562 218.449219 489.019531 C 213.464844 489.019531 208.480469 488.8125 203.703125 488.394531 C 201.625 488.1875 199.753906 488.1875 197.679688 487.980469 L 196.640625 487.773438 C 195.601562 487.980469 194.769531 487.980469 193.941406 487.773438 Z M 245.453125 470.320312 C 236.316406 471.152344 227.175781 471.359375 217.828125 471.359375 L 216.375 471.359375 C 208.273438 471.359375 199.964844 471.777344 191.863281 471.566406 C 192.277344 475.722656 192.902344 480.085938 193.316406 484.242188 C 194.5625 484.242188 195.601562 484.242188 196.847656 484.242188 C 199.132812 484.242188 201.417969 484.03125 203.910156 484.03125 C 208.6875 484.03125 213.464844 484.03125 218.242188 484.03125 C 223.226562 484.03125 228.214844 484.03125 232.992188 483.824219 C 236.9375 483.824219 241.09375 483.410156 245.039062 483.410156 Z M 245.871094 452.246094 C 244.832031 452.664062 243.585938 452.664062 242.128906 452.664062 L 238.597656 452.871094 C 236.9375 452.871094 235.277344 453.078125 233.613281 453.078125 C 228.214844 453.285156 222.605469 453.492188 217.203125 453.703125 C 211.597656 453.910156 205.988281 453.910156 200.171875 453.910156 C 197.472656 453.910156 194.769531 453.703125 191.863281 453.492188 C 191.238281 453.492188 190.410156 453.492188 189.785156 453.285156 C 190.410156 458.894531 191.03125 464.503906 191.65625 470.113281 C 199.753906 469.074219 208.066406 468.453125 216.164062 467.414062 L 223.4375 466.375 C 230.707031 465.335938 238.183594 464.503906 245.453125 463.671875 Z M 246.285156 433.964844 C 244.625 434.382812 242.960938 434.382812 241.507812 434.382812 L 241.300781 434.382812 C 238.390625 434.589844 235.691406 434.796875 232.785156 434.796875 C 227.175781 435.003906 221.566406 435.003906 215.957031 435.003906 L 212.632812 435.003906 C 208.066406 435.003906 203.703125 435.003906 199.132812 435.003906 C 196.222656 435.003906 193.316406 434.796875 190.410156 434.589844 C 189.578125 434.589844 188.746094 434.589844 187.707031 434.382812 C 188.332031 439.78125 188.953125 444.976562 189.578125 450.378906 C 190.617188 450.171875 191.445312 450.171875 192.277344 449.960938 C 194.5625 449.546875 196.847656 449.339844 199.339844 448.921875 C 204.324219 448.300781 209.519531 447.882812 214.503906 447.46875 C 219.695312 447.054688 224.890625 446.847656 230.082031 446.429688 L 233.820312 446.222656 C 235.066406 446.222656 236.316406 446.015625 237.5625 446.015625 C 239.636719 445.808594 242.128906 446.015625 244.207031 445.597656 C 244.832031 445.390625 245.453125 445.390625 246.078125 445.390625 Z M 246.699219 412.566406 C 246.078125 413.191406 245.453125 413.605469 244.414062 413.8125 C 239.429688 414.4375 234.238281 414.644531 229.253906 414.851562 L 228.421875 414.851562 C 223.226562 415.269531 218.035156 415.476562 212.632812 415.683594 C 207.234375 415.890625 201.832031 416.097656 196.433594 416.308594 C 194.148438 416.308594 191.863281 416.308594 189.578125 416.308594 L 188.539062 416.308594 C 187.5 416.308594 186.667969 416.308594 185.628906 416.308594 C 186.253906 421.292969 186.667969 426.277344 187.292969 431.265625 C 188.332031 431.058594 189.371094 431.058594 190.199219 431.058594 C 193.109375 430.847656 196.015625 430.433594 198.925781 430.226562 C 204.324219 429.8125 209.933594 429.601562 215.335938 429.1875 C 220.941406 428.980469 226.550781 428.773438 232.160156 428.5625 C 234.859375 428.355469 237.5625 428.355469 240.261719 427.941406 C 242.128906 427.734375 244.414062 427.109375 246.285156 427.316406 C 246.492188 422.332031 246.699219 417.554688 246.699219 412.566406 Z M 247.117188 393.453125 C 247.117188 393.664062 246.910156 393.664062 246.910156 393.871094 C 244.625 396.15625 241.921875 395.949219 239.015625 396.15625 L 238.808594 396.15625 C 235.898438 396.363281 232.992188 396.570312 230.289062 396.777344 C 224.472656 397.195312 218.867188 397.402344 213.050781 397.816406 C 207.234375 398.023438 201.210938 398.234375 195.394531 398.234375 C 191.65625 398.234375 187.707031 398.234375 183.761719 397.816406 C 184.382812 403.21875 185.007812 408.828125 185.628906 414.230469 C 186.667969 414.023438 187.707031 413.8125 188.746094 413.605469 C 191.445312 413.191406 193.941406 412.773438 196.640625 412.566406 C 201.832031 411.945312 207.027344 411.320312 212.425781 410.90625 C 216.996094 410.488281 221.359375 410.074219 225.929688 409.660156 L 228.628906 409.453125 C 234.03125 409.035156 239.429688 408.203125 244.832031 408.203125 C 245.660156 408.203125 246.699219 408.621094 247.324219 409.453125 C 246.910156 403.84375 247.117188 398.648438 247.117188 393.453125 Z M 247.53125 377.875 C 246.078125 378.082031 244.625 377.875 243.378906 378.082031 C 240.261719 378.289062 236.9375 378.289062 233.820312 378.289062 L 214.710938 378.914062 C 208.273438 379.121094 201.625 379.328125 195.1875 379.121094 C 192.277344 379.121094 189.371094 379.121094 186.667969 378.914062 L 185.628906 378.914062 C 184.382812 378.914062 182.929688 378.914062 181.683594 378.703125 L 183.347656 394.078125 C 187.085938 393.453125 191.03125 393.246094 194.976562 393.039062 L 195.808594 393.039062 C 201.417969 392.625 207.027344 392.207031 212.632812 391.792969 C 218.449219 391.378906 224.058594 390.960938 229.875 390.546875 C 232.785156 390.339844 235.691406 390.128906 238.390625 389.714844 L 238.808594 389.714844 C 241.507812 389.507812 244 388.882812 246.492188 390.339844 C 246.910156 390.546875 247.117188 390.960938 247.324219 391.167969 C 247.324219 386.597656 247.53125 382.234375 247.53125 377.875 Z M 247.945312 359.800781 C 236.316406 360.214844 224.683594 360.628906 213.050781 360.839844 C 206.402344 360.839844 199.964844 360.839844 193.316406 360.628906 C 190.410156 360.628906 187.707031 360.421875 184.800781 360.214844 L 183.761719 360.214844 C 182.308594 360.007812 181.0625 360.007812 179.605469 359.800781 C 180.230469 365.199219 180.851562 370.394531 181.269531 375.796875 C 182.722656 375.589844 184.175781 375.378906 185.421875 375.171875 L 185.628906 375.171875 C 188.746094 374.757812 191.65625 374.550781 194.769531 374.339844 C 200.792969 373.71875 206.609375 373.511719 212.632812 373.09375 C 218.660156 372.886719 224.890625 372.472656 230.914062 372.265625 L 236.9375 372.054688 C 237.976562 372.054688 239.015625 372.054688 240.054688 371.847656 C 241.507812 371.847656 242.960938 371.640625 244.414062 371.640625 C 245.039062 371.640625 245.871094 371.433594 246.492188 371.640625 L 246.699219 371.640625 C 246.699219 371.640625 246.910156 371.640625 246.910156 371.640625 C 247.117188 371.433594 247.324219 371.433594 247.53125 371.226562 L 247.738281 371.226562 Z M 177.738281 342.765625 C 178.359375 347.542969 178.777344 352.320312 179.398438 357.097656 C 181.0625 356.890625 182.722656 356.890625 184.382812 356.683594 C 187.5 356.476562 190.824219 356.058594 193.941406 356.058594 L 200.378906 355.851562 C 204.742188 355.644531 208.894531 355.4375 213.257812 355.230469 C 224.890625 354.8125 236.730469 354.398438 248.363281 353.773438 C 248.363281 350.449219 248.570312 347.335938 248.570312 344.011719 C 247.945312 344.632812 247.117188 345.050781 246.078125 345.050781 C 233.820312 345.050781 221.566406 345.050781 209.3125 344.839844 C 203.078125 344.839844 197.054688 344.632812 190.824219 344.21875 C 187.914062 344.011719 184.800781 343.800781 181.890625 343.386719 C 180.4375 342.972656 178.984375 342.972656 177.738281 342.765625 Z M 175.660156 325.730469 C 176.285156 330.714844 176.90625 335.492188 177.320312 340.480469 C 178.777344 340.269531 180.4375 340.0625 181.890625 339.855469 C 185.007812 339.441406 188.125 339.023438 191.03125 339.023438 C 197.054688 338.609375 203.078125 338.609375 209.101562 338.402344 C 221.359375 338.195312 233.613281 338.195312 245.871094 337.984375 C 247.117188 337.984375 247.945312 338.402344 248.363281 339.023438 C 248.363281 335.910156 248.570312 333 248.570312 329.882812 C 247.324219 329.675781 246.285156 329.675781 245.039062 329.46875 C 241.714844 329.261719 238.390625 329.050781 235.066406 328.84375 C 228.003906 328.429688 221.152344 328.015625 214.089844 327.804688 C 207.027344 327.597656 200.171875 327.183594 193.109375 326.976562 L 189.992188 326.765625 C 185.421875 326.558594 180.644531 326.351562 175.660156 325.730469 Z M 173.582031 307.238281 C 174.207031 312.226562 174.828125 317.210938 175.453125 322.195312 L 175.660156 323.652344 C 181.476562 322.613281 187.707031 322.195312 193.523438 321.988281 C 200.378906 321.574219 207.441406 321.574219 214.503906 321.574219 C 221.566406 321.574219 228.421875 321.78125 235.484375 321.988281 C 239.015625 322.195312 242.546875 322.195312 245.871094 322.40625 C 246.910156 322.40625 247.945312 322.40625 249.191406 322.40625 C 249.191406 321.574219 249.191406 320.742188 249.191406 320.121094 C 249.402344 317.003906 249.402344 313.886719 249.609375 310.5625 C 247.324219 311.808594 244.207031 312.226562 241.714844 312.847656 L 241.507812 312.847656 C 237.5625 313.679688 233.613281 314.300781 229.667969 314.71875 C 221.773438 315.339844 213.878906 315.132812 205.988281 314.511719 L 204.535156 314.300781 C 197.679688 313.679688 190.410156 312.847656 183.761719 311.1875 C 180.644531 310.355469 177.320312 309.316406 174.414062 307.65625 C 174.207031 307.65625 173.789062 307.445312 173.582031 307.238281 Z M 239.847656 248.238281 C 239.847656 248.03125 240.261719 247.824219 240.46875 248.238281 C 241.300781 249.898438 241.714844 252.183594 242.339844 254.054688 C 242.960938 256.132812 243.585938 258.210938 244.414062 260.078125 C 246.078125 264.234375 247.945312 268.390625 250.230469 272.128906 C 252.515625 276.078125 246.285156 278.777344 244.625 274.414062 C 242.960938 270.050781 241.507812 265.480469 240.675781 260.910156 C 240.261719 258.625 239.847656 256.339844 239.847656 254.054688 C 239.636719 252.394531 239.429688 250.109375 239.847656 248.238281 Z M 239.847656 248.238281 " fill-opacity="1" fill-rule="evenodd"/></g></g><g clip-path="url(#8c7b0171d1)"><g clip-path="url(#6c57f44452)"><path fill="#ffffff" d="M 252.382812 103 C 223.511719 79.527344 177.1875 71.839844 146.445312 95.523438 C 122.351562 117.960938 112.378906 181.113281 116.535156 212.691406 C 117.78125 233.050781 133.359375 256.113281 156 249.671875 C 159.949219 249.257812 163.6875 247.800781 167.632812 247.59375 C 172.410156 246.972656 176.980469 246.972656 181.757812 247.800781 C 191.9375 249.257812 200.871094 254.65625 210.839844 257.152344 C 229.121094 261.929688 249.683594 258.605469 265.261719 248.21875 C 317.402344 213.730469 293.929688 136.242188 252.382812 103 Z M 252.382812 103 " fill-opacity="1" fill-rule="evenodd"/></g></g><g clip-path="url(#9afb3d63ed)"><g clip-path="url(#7c8e084e42)"><path fill="#000000" d="M 248.4375 257.566406 C 249.058594 257.359375 249.476562 257.152344 250.097656 256.941406 C 250.097656 257.152344 250.097656 257.152344 250.308594 257.359375 C 250.308594 257.566406 250.515625 257.773438 250.515625 257.980469 C 249.890625 257.980469 249.058594 257.773438 248.4375 257.566406 M 247.398438 30.082031 C 247.191406 29.457031 246.984375 29.042969 246.566406 28.628906 C 247.398438 28.835938 248.023438 29.25 248.644531 29.667969 C 248.230469 29.875 247.8125 30.082031 247.398438 30.082031 M 133.359375 99.675781 C 133.566406 98.636719 134.398438 97.601562 135.230469 96.976562 C 135.4375 96.769531 135.4375 96.769531 135.644531 96.5625 C 134.8125 97.390625 133.984375 98.429688 133.359375 99.675781 M 342.121094 208.746094 C 341.703125 205.003906 341.289062 201.472656 340.664062 197.734375 C 340.042969 194.203125 339.625 190.464844 337.757812 187.554688 C 335.886719 184.4375 334.019531 181.324219 331.941406 178.621094 C 332.148438 177.167969 332.5625 175.921875 332.980469 174.882812 C 335.058594 168.859375 336.925781 161.171875 332.773438 155.5625 C 331.734375 154.316406 330.695312 153.277344 329.242188 152.445312 C 328.617188 152.03125 327.785156 151.613281 327.371094 151.199219 C 327.164062 150.785156 327.164062 150.992188 327.164062 150.785156 C 327.164062 149.746094 329.449219 147.667969 329.863281 146.835938 C 330.902344 145.382812 331.734375 143.71875 332.148438 142.058594 C 334.433594 135.410156 332.980469 128.140625 331.527344 121.492188 C 330.695312 117.960938 330.070312 114.425781 329.65625 110.894531 C 329.449219 107.570312 329.863281 104.246094 330.070312 100.921875 C 330.277344 97.601562 330.277344 94.277344 328.824219 91.160156 C 328.203125 89.707031 327.164062 88.25 325.710938 87.421875 C 324.464844 86.382812 323.007812 85.757812 321.761719 84.925781 C 320.933594 83.886719 321.347656 82.640625 321.554688 81.1875 C 321.96875 79.316406 322.59375 77.449219 322.59375 75.578125 C 322.59375 72.253906 321.347656 68.929688 319.269531 66.4375 C 316.984375 63.738281 313.871094 62.074219 310.546875 61.660156 C 308.882812 61.453125 307.429688 61.867188 305.976562 61.660156 C 304.523438 61.453125 304.105469 60.828125 303.898438 59.375 C 303.277344 56.257812 303.484375 52.933594 301.820312 50.027344 C 300.367188 47.324219 297.875 45.453125 295.175781 44.417969 C 290.1875 42.546875 284.164062 42.960938 278.972656 44 C 275.855469 34.652344 265.886719 28.628906 256.332031 28.628906 C 254.875 26.132812 252.175781 24.058594 249.269531 23.019531 C 244.492188 21.148438 239.296875 22.1875 234.3125 22.1875 C 233.898438 22.1875 233.273438 22.1875 232.859375 22.1875 C 232.441406 22.1875 231.820312 22.1875 231.402344 21.980469 C 225.589844 21.355469 219.980469 18.863281 214.371094 21.355469 C 211.878906 22.394531 209.800781 24.058594 208.554688 25.925781 C 206.683594 26.550781 204.816406 26.964844 202.945312 27.796875 C 194.84375 28.003906 186.953125 32.367188 182.796875 39.222656 C 176.980469 38.597656 170.957031 39.636719 167.011719 44.417969 C 165.972656 45.664062 165.347656 47.117188 164.726562 48.570312 C 160.777344 49.816406 157.246094 52.101562 154.964844 55.425781 C 152.886719 58.542969 152.46875 62.492188 153.925781 65.8125 C 150.394531 68.308594 147.691406 71.839844 146.445312 76.203125 C 145.617188 78.695312 145.617188 81.394531 146.03125 83.886719 C 142.5 84.71875 139.175781 86.171875 136.058594 88.25 C 132.945312 90.535156 128.996094 94.066406 128.789062 98.429688 C 128.789062 98.636719 128.789062 99.054688 128.789062 99.261719 C 121.933594 98.847656 114.871094 99.886719 110.09375 105.496094 C 106.5625 109.648438 105.109375 115.050781 105.941406 119.828125 C 97.632812 121.492188 89.945312 125.855469 84.546875 132.085938 C 80.597656 136.65625 77.066406 142.472656 77.277344 148.914062 C 77.277344 150.785156 77.691406 152.652344 78.523438 154.523438 C 78.105469 155.144531 77.898438 155.769531 77.484375 156.601562 C 72.496094 160.132812 68.757812 165.742188 66.683594 171.972656 C 65.019531 176.960938 63.980469 183.398438 65.644531 188.59375 C 65.851562 189.425781 66.265625 190.046875 66.683594 190.671875 C 66.265625 191.085938 66.058594 191.292969 65.644531 191.710938 C 62.113281 195.65625 58.789062 200.851562 58.996094 206.253906 C 58.996094 208.539062 59.828125 210.613281 61.28125 212.484375 C 56.503906 217.261719 52.765625 223.289062 53.179688 230.144531 C 53.59375 235.960938 56.710938 241.984375 61.902344 244.894531 C 61.074219 249.464844 62.113281 254.242188 65.644531 257.773438 C 67.304688 259.644531 69.589844 260.683594 71.667969 261.304688 C 72.082031 266.707031 76.859375 270.863281 81.84375 272.109375 C 82.882812 272.316406 83.714844 272.523438 84.753906 272.523438 C 89.324219 274.808594 94.722656 274.394531 99.292969 272.523438 C 100.746094 274.1875 102.410156 275.640625 104.488281 276.679688 C 105.316406 277.09375 106.148438 277.511719 107.1875 277.71875 C 113.625 279.585938 120.480469 277.09375 126.089844 273.976562 C 126.296875 273.976562 126.714844 273.769531 126.921875 273.5625 C 127.75 274.394531 129.207031 275.226562 129.828125 275.847656 C 132.320312 277.300781 135.4375 277.925781 138.34375 277.71875 C 141.667969 277.511719 144.785156 276.261719 147.691406 274.808594 C 148.109375 274.808594 148.523438 275.015625 148.9375 275.015625 C 151.640625 275.226562 153.925781 274.394531 156 272.941406 C 157.457031 273.148438 158.910156 273.148438 160.363281 272.941406 C 163.480469 273.769531 166.59375 272.523438 169.089844 270.445312 C 170.125 269.617188 171.164062 268.371094 172.203125 267.539062 C 173.242188 266.5 174.074219 266.292969 175.320312 265.460938 C 178.226562 263.796875 178.644531 259.4375 177.398438 256.527344 C 177.605469 255.902344 177.8125 255.488281 177.8125 254.65625 C 177.8125 248.839844 175.113281 243.4375 171.789062 238.867188 C 170.335938 236.792969 168.671875 234.714844 167.011719 232.84375 C 165.558594 230.972656 163.6875 228.6875 161.609375 228.066406 C 161.402344 228.066406 161.402344 227.859375 161.195312 227.859375 C 161.609375 226.402344 161.816406 224.949219 161.816406 223.496094 C 161.609375 222.042969 161.195312 220.585938 160.363281 219.339844 C 163.0625 214.355469 164.101562 208.746094 163.480469 202.929688 C 165.558594 199.8125 167.21875 196.488281 168.050781 192.957031 C 168.464844 190.671875 168.878906 188.386719 168.878906 185.894531 C 168.878906 184.855469 168.464844 183.398438 168.464844 182.152344 C 168.464844 182.570312 169.089844 181.113281 169.089844 180.90625 C 171.164062 176.960938 173.867188 173.84375 174.28125 169.273438 C 174.488281 166.574219 173.867188 163.664062 172.203125 161.378906 C 173.242188 157.222656 173.242188 152.859375 171.582031 148.914062 C 171.164062 147.875 170.542969 146.835938 170.125 145.796875 C 170.335938 144.964844 170.542969 144.136719 170.957031 143.511719 C 171.164062 143.304688 171.164062 142.890625 171.371094 142.679688 C 172.621094 141.640625 173.65625 140.394531 174.695312 139.355469 C 176.773438 136.863281 178.433594 133.957031 178.433594 130.632812 C 178.433594 128.96875 178.226562 127.308594 177.605469 125.855469 C 177.398438 125.230469 177.1875 124.398438 176.980469 123.570312 C 176.773438 123.152344 176.566406 122.738281 176.359375 122.53125 C 176.359375 122.53125 176.359375 122.320312 176.359375 122.320312 C 176.359375 122.320312 176.359375 122.113281 176.359375 121.90625 C 176.359375 120.246094 176.566406 118.789062 176.566406 117.335938 C 178.019531 118.789062 179.683594 119.828125 181.757812 120.453125 C 185.707031 121.699219 189.859375 121.074219 193.390625 119.207031 C 197.128906 121.90625 201.492188 124.191406 205.855469 125.023438 C 208.554688 125.644531 211.253906 125.4375 213.746094 125.644531 C 216.449219 126.0625 218.941406 127.101562 221.433594 128.140625 C 227.042969 130.214844 232.441406 132.292969 238.050781 134.164062 C 242.621094 135.824219 247.398438 137.070312 252.175781 136.035156 C 253.421875 138.109375 255.292969 139.773438 257.371094 141.019531 C 259.03125 141.851562 260.691406 142.472656 262.5625 142.890625 C 264.222656 143.097656 266.09375 143.097656 267.339844 144.136719 C 268.585938 145.175781 269.417969 146.835938 270.457031 147.875 C 271.703125 149.121094 273.15625 150.367188 274.816406 151.199219 C 276.0625 151.820312 277.519531 152.238281 278.765625 152.652344 C 278.558594 155.5625 278.558594 158.679688 278.558594 161.585938 C 278.558594 168.027344 278.558594 174.675781 278.347656 181.113281 C 278.347656 187.554688 278.140625 194.203125 277.726562 200.644531 C 277.308594 206.667969 276.894531 212.898438 275.441406 218.71875 C 270.664062 238.453125 252.589844 252.582031 232.441406 253.203125 C 226.417969 253.410156 220.601562 252.582031 214.785156 250.710938 C 208.761719 248.839844 203.570312 245.101562 197.546875 243.855469 C 195.882812 243.648438 194.429688 245.101562 195.46875 246.761719 C 197.128906 249.878906 199 251.542969 201.699219 252.996094 C 204.402344 254.65625 207.515625 255.902344 210.425781 256.941406 C 216.03125 259.019531 221.847656 260.058594 227.664062 260.476562 C 232.234375 260.683594 236.597656 260.476562 240.960938 259.644531 C 241.167969 260.683594 241.789062 261.511719 242.207031 262.34375 C 242.207031 262.550781 242.414062 262.34375 242.414062 262.34375 C 242.414062 262.136719 242.207031 261.929688 242.207031 261.722656 C 243.660156 263.589844 245.945312 265.046875 248.230469 265.667969 C 249.890625 266.082031 251.554688 266.292969 253.421875 266.082031 C 254.046875 266.082031 254.460938 265.875 255.085938 265.875 C 256.746094 267.332031 259.03125 268.371094 261.316406 268.992188 C 260.902344 271.277344 262.148438 273.769531 264.640625 274.601562 C 265.679688 274.808594 266.925781 274.808594 267.964844 274.808594 C 268.792969 275.226562 269.832031 275.433594 270.664062 275.847656 C 271.910156 276.054688 273.570312 275.847656 274.402344 274.808594 C 275.027344 275.226562 275.441406 275.433594 275.855469 276.054688 C 277.933594 278.546875 282.296875 276.472656 282.503906 273.769531 C 283.125 273.769531 283.75 273.769531 284.371094 273.769531 C 284.582031 273.769531 284.582031 273.976562 284.789062 273.976562 C 287.695312 275.226562 290.605469 276.472656 293.71875 275.433594 C 294.34375 275.226562 294.757812 275.015625 295.382812 274.808594 C 297.667969 275.015625 299.746094 275.015625 302.027344 274.394531 C 303.277344 273.976562 304.523438 273.355469 305.558594 272.316406 C 309.089844 273.355469 312.621094 273.769531 316.152344 272.523438 C 318.648438 271.691406 320.722656 270.03125 322.179688 268.160156 C 324.464844 268.160156 326.746094 267.746094 328.617188 266.707031 C 332.148438 264.835938 334.433594 261.511719 336.304688 257.980469 C 340.042969 250.503906 342.328125 242.191406 343.15625 233.882812 C 344.195312 225.15625 342.949219 216.847656 342.121094 208.746094 " fill-opacity="1" fill-rule="evenodd"/></g></g><g clip-path="url(#77ab50a003)"><g clip-path="url(#725717f4a2)"><path fill="#000000" d="M 235.746094 226.21875 C 232.839844 224.972656 230.140625 223.101562 228.269531 220.402344 C 227.644531 219.570312 227.4375 218.53125 227.644531 217.703125 C 227.855469 216.664062 228.476562 215.832031 229.101562 215.207031 C 229.929688 214.585938 230.761719 214.378906 231.800781 214.378906 C 232.632812 214.585938 233.460938 215 234.085938 215.832031 L 234.292969 216.039062 C 235.539062 217.492188 236.992188 218.949219 238.65625 219.777344 C 240.316406 220.609375 242.1875 221.023438 244.054688 220.816406 C 247.585938 220.402344 250.082031 218.53125 252.78125 215.832031 C 253.195312 215.417969 253.402344 215.207031 253.820312 214.792969 C 253.820312 214.378906 254.027344 214.167969 254.441406 214.167969 C 254.859375 213.960938 255.273438 213.960938 255.480469 214.167969 C 255.894531 214.167969 256.3125 214.378906 256.519531 214.792969 C 256.726562 215 256.933594 215.417969 256.726562 215.832031 C 256.519531 218.53125 255.066406 221.023438 252.988281 222.894531 C 250.703125 224.972656 247.796875 226.425781 244.886719 227.050781 C 241.769531 227.671875 238.65625 227.257812 235.746094 226.21875 Z M 246.339844 183.628906 C 249.664062 185.707031 254.648438 190.277344 251.117188 195.265625 C 246.964844 199.628906 240.941406 194.640625 237.824219 192.355469 C 235.125 190.484375 232.007812 195.058594 234.5 197.132812 C 256.105469 213.339844 264.828125 184.253906 248.003906 181.34375 C 246.132812 181.136719 245.511719 183.007812 246.339844 183.628906 Z M 207.914062 165.140625 C 208.328125 160.570312 215.183594 159.53125 215.804688 164.101562 C 216.429688 168.050781 215.597656 171.789062 213.9375 175.527344 C 212.273438 179.058594 207.914062 177.398438 207.496094 174.28125 C 207.082031 169.917969 207.496094 168.050781 207.914062 165.140625 Z M 260.464844 163.269531 C 261.503906 162.023438 262.75 161.195312 264.414062 161.609375 C 269.605469 163.0625 268.152344 170.542969 266.28125 174.074219 C 265.242188 175.945312 262.128906 176.566406 260.675781 174.90625 C 258.390625 171.996094 257.144531 166.386719 260.257812 163.6875 C 260.257812 163.480469 260.464844 163.269531 260.464844 163.269531 Z M 213.730469 145.195312 L 214.558594 144.988281 C 217.050781 144.574219 220.375 144.160156 222.039062 146.234375 C 223.078125 147.273438 223.285156 149.351562 222.039062 150.390625 C 219.753906 152.261719 217.261719 151.429688 214.558594 151.636719 C 212.273438 151.84375 210.199219 152.054688 208.121094 152.675781 C 203.34375 153.921875 199.605469 156.414062 195.449219 159.117188 C 194.828125 159.53125 194.410156 158.699219 194.617188 158.285156 C 196.902344 153.714844 201.472656 149.976562 206.042969 147.691406 C 208.535156 146.859375 211.027344 145.820312 213.730469 145.195312 Z M 255.6875 143.328125 L 256.3125 143.328125 C 263.167969 144.78125 272.097656 147.691406 275.421875 154.339844 C 275.628906 155.375 275.421875 155.585938 275.214844 155.585938 C 275.214844 155.792969 275.007812 155.792969 274.589844 156 C 274.382812 156 274.382812 156 274.175781 156 C 272.722656 155.585938 271.476562 155.167969 270.4375 154.546875 L 269.398438 153.921875 C 267.945312 153.300781 266.488281 152.46875 265.035156 152.054688 C 261.710938 151.015625 258.390625 150.183594 255.066406 149.765625 C 254.234375 149.765625 253.613281 149.351562 252.988281 148.9375 C 252.363281 148.519531 251.949219 147.898438 251.949219 147.273438 C 251.742188 146.234375 251.742188 145.613281 252.363281 144.78125 C 252.78125 144.160156 253.402344 143.742188 254.027344 143.328125 C 254.234375 143.121094 255.066406 143.121094 255.6875 143.328125 Z M 255.6875 143.328125 " fill-opacity="1" fill-rule="evenodd"/></g></g></svg>