<svg xmlns="http://www.w3.org/2000/svg" xmlns:xlink="http://www.w3.org/1999/xlink" width="500" zoomAndPan="magnify" viewBox="0 0 375 374.999991" height="500" preserveAspectRatio="xMidYMid meet" version="1.0"><defs><clipPath id="4bb8717281"><path d="M 69 140 L 305 140 L 305 370 L 69 370 Z M 69 140 " clip-rule="nonzero"/></clipPath><clipPath id="6f81fbe950"><path d="M 65.832031 53.371094 L 65.832031 343.5 C 65.832031 360.898438 79.933594 375 97.332031 375 L 277.667969 375 C 295.066406 375 309.167969 360.898438 309.167969 343.5 L 309.167969 53.371094 C 309.167969 35.976562 295.066406 21.871094 277.667969 21.871094 L 97.332031 21.871094 C 79.933594 21.871094 65.832031 35.976562 65.832031 53.371094 Z M 65.832031 53.371094 " clip-rule="nonzero"/></clipPath><clipPath id="835062da8c"><path d="M 65.832031 144 L 308.832031 144 L 308.832031 370 L 65.832031 370 Z M 65.832031 144 " clip-rule="nonzero"/></clipPath><clipPath id="8460024574"><path d="M 65.832031 53.371094 L 65.832031 343.5 C 65.832031 360.898438 79.933594 375 97.332031 375 L 277.667969 375 C 295.066406 375 309.167969 360.898438 309.167969 343.5 L 309.167969 53.371094 C 309.167969 35.976562 295.066406 21.871094 277.667969 21.871094 L 97.332031 21.871094 C 79.933594 21.871094 65.832031 35.976562 65.832031 53.371094 Z M 65.832031 53.371094 " clip-rule="nonzero"/></clipPath><clipPath id="ea922aba1f"><path d="M 148 35 L 258 35 L 258 162 L 148 162 Z M 148 35 " clip-rule="nonzero"/></clipPath><clipPath id="208ca821ef"><path d="M 65.832031 53.371094 L 65.832031 343.5 C 65.832031 360.898438 79.933594 375 97.332031 375 L 277.667969 375 C 295.066406 375 309.167969 360.898438 309.167969 343.5 L 309.167969 53.371094 C 309.167969 35.976562 295.066406 21.871094 277.667969 21.871094 L 97.332031 21.871094 C 79.933594 21.871094 65.832031 35.976562 65.832031 53.371094 Z M 65.832031 53.371094 " clip-rule="nonzero"/></clipPath><clipPath id="882f6ee9df"><path d="M 145 32 L 260 32 L 260 164 L 145 164 Z M 145 32 " clip-rule="nonzero"/></clipPath><clipPath id="d411349b23"><path d="M 65.832031 53.371094 L 65.832031 343.5 C 65.832031 360.898438 79.933594 375 97.332031 375 L 277.667969 375 C 295.066406 375 309.167969 360.898438 309.167969 343.5 L 309.167969 53.371094 C 309.167969 35.976562 295.066406 21.871094 277.667969 21.871094 L 97.332031 21.871094 C 79.933594 21.871094 65.832031 35.976562 65.832031 53.371094 Z M 65.832031 53.371094 " clip-rule="nonzero"/></clipPath><clipPath id="15cdaa835d"><path d="M 195 84 L 251 84 L 251 142 L 195 142 Z M 195 84 " clip-rule="nonzero"/></clipPath><clipPath id="7a0a77dfcc"><path d="M 65.832031 53.371094 L 65.832031 343.5 C 65.832031 360.898438 79.933594 375 97.332031 375 L 277.667969 375 C 295.066406 375 309.167969 360.898438 309.167969 343.5 L 309.167969 53.371094 C 309.167969 35.976562 295.066406 21.871094 277.667969 21.871094 L 97.332031 21.871094 C 79.933594 21.871094 65.832031 35.976562 65.832031 53.371094 Z M 65.832031 53.371094 " clip-rule="nonzero"/></clipPath><clipPath id="46aea2b977"><path d="M 167 106 L 261 106 L 261 189 L 167 189 Z M 167 106 " clip-rule="nonzero"/></clipPath><clipPath id="09bfe1dc87"><path d="M 65.832031 53.371094 L 65.832031 343.5 C 65.832031 360.898438 79.933594 375 97.332031 375 L 277.667969 375 C 295.066406 375 309.167969 360.898438 309.167969 343.5 L 309.167969 53.371094 C 309.167969 35.976562 295.066406 21.871094 277.667969 21.871094 L 97.332031 21.871094 C 79.933594 21.871094 65.832031 35.976562 65.832031 53.371094 Z M 65.832031 53.371094 " clip-rule="nonzero"/></clipPath></defs><g clip-path="url(#4bb8717281)"><g clip-path="url(#6f81fbe950)"><path fill="#ffffff" d="M 300.917969 364.320312 C 306.699219 364.039062 304.300781 354.011719 303.878906 350.195312 C 299.367188 336.636719 300.351562 321.949219 298.660156 307.683594 C 297.53125 294.40625 296.121094 281.269531 294.855469 267.992188 C 292.457031 241.15625 275.394531 186.496094 256.078125 177.597656 C 253.679688 166.863281 243.527344 156.835938 230.699219 156.835938 C 221.957031 146.523438 211.523438 139.179688 197.984375 140.734375 C 192.488281 141.015625 186.988281 146.949219 181.628906 148.078125 C 178.667969 148.5 152.160156 147.371094 146.800781 150.621094 C 143.136719 152.457031 139.75 155.988281 140.878906 160.507812 C 142.570312 165.875 137.214844 160.082031 125.933594 165.875 C 102.949219 179.714844 116.769531 198.078125 117.332031 198.644531 C 103.234375 218.558594 90.683594 234.800781 84.902344 259.09375 C 81.09375 277.175781 81.519531 295.816406 78.417969 314.039062 C 77.289062 320.394531 75.597656 326.46875 73.761719 332.542969 C 71.789062 340.59375 70.800781 360.507812 69.675781 360.789062 C 67.699219 361.355469 70.800781 365.449219 72.917969 365.449219 C 131.855469 375.195312 191.640625 365.875 250.71875 364.320312 C 267.5 363.757812 284.277344 363.613281 300.917969 364.320312 Z M 300.917969 364.320312 " fill-opacity="1" fill-rule="evenodd"/></g></g><g clip-path="url(#835062da8c)"><g clip-path="url(#8460024574)"><path fill="#000000" d="M 211.664062 200.335938 C 211.664062 200.054688 212.085938 200.054688 212.085938 200.335938 L 212.507812 204.292969 C 213.074219 209.234375 213.496094 214.039062 213.917969 218.980469 C 214.339844 225.195312 214.625 231.269531 214.765625 237.484375 C 215.328125 258.953125 215.328125 280.421875 215.46875 301.890625 C 218.429688 301.75 221.25 301.46875 224.210938 301.328125 C 226.1875 301.183594 228.160156 301.042969 230.132812 300.902344 L 235.210938 300.621094 L 237.324219 300.480469 C 238.734375 300.339844 240.285156 300.054688 241.273438 301.328125 C 241.695312 301.890625 241.835938 302.457031 241.554688 303.023438 C 240.707031 304.433594 239.441406 304.292969 238.03125 304.433594 C 236.621094 304.433594 235.210938 304.574219 233.941406 304.574219 C 230.980469 304.714844 228.019531 304.859375 225.058594 304.859375 C 221.957031 305 218.855469 305 215.75 305 C 215.75 314.039062 215.328125 323.078125 214.90625 332.117188 L 214.765625 336.214844 C 214.199219 347.230469 213.777344 358.246094 212.933594 369.265625 C 212.933594 370.113281 211.664062 370.113281 211.523438 369.265625 C 210.675781 356.835938 210.113281 344.40625 209.546875 331.976562 C 209.125 322.9375 208.84375 314.039062 208.84375 305 C 208.417969 305 207.996094 305 207.574219 305 C 196.011719 305 184.308594 305.140625 172.746094 305 C 172.746094 305 172.746094 305 172.746094 305.140625 C 173.59375 307.117188 173.734375 309.660156 173.59375 311.777344 C 173.59375 314.179688 173.167969 316.582031 172.746094 318.980469 C 170.773438 327.457031 165.554688 335.226562 159.632812 341.441406 L 159.070312 342.003906 C 157.660156 343.417969 156.109375 344.972656 155.261719 346.808594 C 154.414062 348.785156 154.132812 351.042969 153.710938 353.023438 L 153.710938 353.304688 L 152.019531 361.074219 C 151.453125 363.613281 151.3125 367.144531 149.339844 368.980469 C 147.507812 370.675781 145.109375 369.828125 144.265625 367.570312 C 143.558594 365.875 144.265625 364.039062 144.6875 362.34375 L 147.789062 349.207031 C 148.351562 347.089844 148.917969 344.972656 149.902344 342.992188 C 151.03125 341.015625 152.722656 339.605469 154.414062 338.191406 C 157.660156 335.367188 160.621094 332.257812 163.015625 328.867188 C 165.554688 325.480469 167.671875 321.664062 169.082031 317.710938 C 169.785156 315.734375 170.488281 313.613281 170.914062 311.496094 C 171.335938 309.519531 171.335938 307.398438 171.757812 305.5625 C 171.757812 305.421875 171.898438 305.28125 172.042969 305.28125 C 172.042969 305.140625 172.042969 305.140625 172.183594 305 L 181.628906 304.433594 C 190.089844 303.867188 198.550781 303.304688 207.007812 302.738281 L 208.5625 302.597656 C 208.417969 290.59375 208.5625 278.585938 208.703125 266.582031 C 208.84375 255.5625 208.84375 244.546875 209.265625 233.53125 C 209.40625 228.019531 209.828125 222.652344 210.113281 217.144531 C 210.394531 211.496094 211.097656 205.988281 211.664062 200.335938 Z M 122.410156 264.320312 C 122.269531 263.753906 123.113281 263.332031 123.394531 263.898438 C 127.484375 270.253906 129.457031 277.175781 130.164062 284.660156 C 130.867188 291.296875 130.726562 297.9375 130.304688 304.574219 C 129.882812 311.636719 129.457031 318.699219 129.035156 325.761719 L 128.332031 336.636719 L 126.640625 363.757812 C 126.496094 365.734375 126.074219 367.429688 124.382812 368.417969 C 124.242188 368.558594 123.960938 368.699219 123.675781 368.839844 C 122.832031 369.265625 121.5625 369.125 121 368.136719 L 121.140625 368.277344 C 121.28125 368.417969 121.140625 368.277344 120.574219 367.851562 L 120.011719 367.144531 C 119.589844 366.582031 119.449219 366.015625 119.304688 365.449219 C 119.304688 364.320312 119.589844 363.332031 119.589844 362.203125 L 120.714844 344.40625 C 121.5625 330.5625 122.691406 316.722656 123.394531 302.878906 C 123.820312 296.382812 123.960938 290.027344 123.820312 283.53125 C 123.820312 277.175781 123.394531 270.675781 122.410156 264.320312 Z M 157.378906 145.109375 L 157.660156 145.109375 C 165.695312 143.839844 174.4375 143.980469 181.769531 147.9375 C 181.769531 147.9375 181.769531 148.078125 181.769531 148.078125 L 179.375 147.9375 C 171.898438 147.652344 164.425781 147.511719 157.09375 149.207031 L 156.25 149.488281 C 153.570312 150.195312 150.890625 150.902344 148.636719 152.738281 C 146.660156 154.433594 145.53125 156.976562 144.546875 159.375 L 144.40625 159.660156 C 143.417969 162.058594 142.148438 164.179688 140.035156 165.734375 C 137.214844 167.570312 133.828125 167.429688 130.585938 167.710938 C 124.945312 168.132812 120.292969 172.230469 118.039062 177.316406 C 116.628906 180.421875 116.0625 183.8125 115.921875 187.0625 C 115.921875 188.753906 115.921875 190.589844 116.0625 192.144531 C 116.203125 192.710938 116.769531 194.6875 117.191406 194.546875 C 117.898438 194.40625 118.601562 194.828125 118.882812 195.394531 C 120.714844 193.558594 122.691406 191.863281 124.664062 190.167969 C 129.601562 185.929688 134.957031 182.117188 140.457031 178.867188 C 144.6875 176.324219 149.199219 173.925781 153.851562 171.949219 C 153.429688 171.949219 153.148438 171.949219 152.722656 172.230469 C 152.582031 172.371094 152.441406 172.089844 152.582031 171.949219 C 153.992188 170.394531 155.824219 170.113281 157.519531 170.535156 C 157.941406 170.394531 158.222656 170.253906 158.644531 170.253906 C 158.785156 170.253906 158.929688 170.394531 158.785156 170.535156 L 158.363281 170.816406 C 160.339844 171.523438 162.171875 172.796875 163.722656 173.785156 C 168.09375 176.609375 171.898438 180.28125 175.707031 183.671875 L 176.414062 184.234375 C 179.796875 187.203125 183.320312 190.167969 187.128906 192.710938 C 189.101562 193.980469 191.21875 195.113281 193.472656 196.101562 C 195.449219 196.804688 198.550781 197.371094 199.394531 199.347656 C 200.242188 200.335938 199.820312 201.609375 198.972656 202.171875 C 197.421875 203.867188 194.320312 202.738281 192.34375 202.03125 C 190.089844 201.183594 187.972656 200.054688 185.859375 198.925781 C 181.769531 196.523438 178.105469 193.558594 174.578125 190.449219 C 170.914062 187.203125 167.527344 183.671875 164.003906 180.28125 C 162.453125 178.867188 161.042969 177.316406 159.492188 175.902344 L 158.785156 175.195312 C 157.941406 174.488281 156.953125 173.359375 155.683594 172.652344 C 153.429688 173.925781 151.171875 175.335938 148.917969 176.609375 C 145.816406 178.585938 142.855469 180.5625 139.894531 182.683594 C 134.253906 186.777344 128.753906 191.296875 123.820312 196.242188 C 114.652344 205.28125 106.898438 215.59375 99.988281 226.46875 L 99.425781 227.316406 C 95.476562 233.53125 91.8125 240.027344 89.273438 246.804688 C 86.453125 254.433594 85.042969 262.34375 84.195312 270.394531 C 83.492188 278.304688 83.210938 286.355469 82.363281 294.40625 C 81.519531 302.597656 79.828125 310.648438 77.851562 318.558594 L 77.429688 320.394531 C 75.738281 327.597656 73.902344 334.660156 72.917969 342.003906 C 72.492188 345.960938 72.210938 349.914062 72.210938 353.871094 C 72.210938 357.824219 72.917969 361.636719 73.339844 365.59375 C 73.480469 367.144531 72.070312 368.417969 70.800781 368.558594 C 69.25 368.839844 67.980469 367.851562 67.558594 366.441406 C 66.148438 362.0625 65.867188 357.117188 65.867188 352.597656 C 65.867188 347.9375 66.570312 343.277344 67.417969 338.613281 C 69.109375 329.574219 71.648438 320.675781 73.761719 311.636719 C 75.597656 303.726562 76.863281 295.816406 77.570312 287.765625 C 78.273438 279.433594 78.699219 270.960938 79.96875 262.625 C 81.234375 254.433594 83.632812 246.523438 87.300781 239.039062 C 90.542969 232.257812 94.632812 225.761719 99.003906 219.546875 C 104.21875 211.917969 110 204.714844 116.34375 198.21875 C 115.78125 198.21875 115.21875 198.078125 114.652344 197.652344 C 112.960938 196.664062 112.257812 194.546875 111.972656 192.710938 C 111.410156 188.332031 111.550781 183.8125 112.679688 179.574219 C 114.511719 172.796875 119.164062 166.722656 125.933594 164.179688 C 127.625 163.613281 129.457031 163.332031 131.292969 163.332031 C 132.984375 163.332031 134.957031 163.472656 136.648438 162.90625 C 139.328125 162.0625 140.457031 158.8125 141.445312 156.410156 L 141.445312 156.269531 C 142.710938 153.164062 144.265625 150.621094 147.082031 148.640625 C 150.1875 146.664062 153.851562 145.816406 157.378906 145.109375 Z M 233.800781 157.257812 C 236.195312 156.410156 239.300781 157.117188 241.554688 157.964844 C 244.234375 158.8125 246.632812 160.222656 248.746094 162.058594 C 251.003906 163.898438 252.835938 166.296875 254.105469 168.839844 L 254.246094 169.121094 C 255.375 171.523438 256.78125 174.914062 256.21875 177.457031 C 256.21875 177.597656 256.21875 177.597656 256.21875 177.738281 C 261.011719 180.140625 265.382812 183.105469 269.332031 186.777344 C 273.84375 191.15625 277.652344 196.101562 280.894531 201.46875 C 293.726562 222.796875 295.980469 248.5 297.390625 272.796875 L 297.816406 279.011719 C 298.660156 292.285156 299.648438 305.707031 302.042969 318.839844 L 302.1875 319.828125 C 304.863281 333.53125 308.671875 347.511719 308.25 361.636719 C 308.109375 365.875 301.902344 365.875 301.761719 361.636719 C 301.058594 345.816406 297.390625 330.5625 294.855469 315.027344 C 290.484375 287.625 292.597656 259.378906 286.394531 232.257812 C 283.996094 221.664062 280.1875 211.355469 274.832031 201.75 C 272.152344 197.089844 269.050781 192.570312 265.523438 188.472656 C 262.421875 184.941406 259.320312 181.695312 255.65625 178.726562 C 254.527344 179.855469 252.269531 179.292969 251.566406 177.597656 C 251.144531 176.46875 251.285156 175.054688 251.003906 173.925781 C 250.71875 172.796875 250.4375 171.664062 250.015625 170.675781 C 249.167969 168.558594 247.757812 166.582031 246.207031 164.886719 C 244.515625 163.050781 242.683594 161.496094 240.566406 160.222656 C 238.453125 158.953125 236.054688 158.53125 233.800781 157.683594 C 233.800781 157.398438 233.800781 157.257812 233.800781 157.257812 Z M 243.246094 303.585938 C 243.246094 303.445312 243.386719 303.445312 243.527344 303.445312 C 244.375 304.292969 244.9375 305.28125 245.503906 306.269531 C 246.207031 307.398438 246.914062 308.53125 247.757812 309.519531 C 249.308594 311.636719 251.144531 313.613281 252.835938 315.59375 C 254.527344 317.429688 256.21875 319.125 258.050781 320.816406 C 260.027344 322.65625 262.28125 324.207031 264.113281 326.183594 C 267.921875 330.28125 268.484375 335.929688 269.332031 341.296875 L 269.472656 341.863281 C 269.894531 344.972656 270.460938 348.21875 270.742188 351.328125 C 270.882812 352.878906 271.164062 354.433594 271.304688 355.988281 L 271.304688 356.410156 C 271.449219 357.964844 271.449219 359.519531 270.601562 360.789062 C 269.613281 362.203125 267.640625 362.625 266.371094 361.355469 C 264.257812 359.09375 264.679688 354.859375 264.398438 351.890625 C 264.113281 349.492188 263.972656 346.949219 263.550781 344.546875 L 263.410156 343.277344 C 263.128906 340.449219 262.847656 337.625 262.140625 334.800781 C 261.578125 332.398438 260.449219 330.5625 258.757812 328.726562 C 256.925781 326.890625 255.089844 325.339844 253.539062 323.359375 C 251.847656 321.382812 250.296875 319.125 248.886719 316.863281 C 247.617188 314.886719 246.773438 312.765625 245.785156 310.789062 L 245.644531 310.507812 C 244.515625 308.53125 243.105469 305.847656 243.246094 303.585938 Z M 274.265625 215.59375 C 274.265625 215.308594 274.691406 215.308594 274.691406 215.59375 C 274.691406 217.992188 274.832031 220.535156 274.832031 222.9375 C 275.253906 242.710938 274.972656 262.625 276.945312 282.398438 C 277.933594 291.722656 279.625 300.902344 281.597656 310.082031 C 282.585938 314.746094 283.714844 319.40625 284.703125 324.066406 C 285.6875 328.585938 286.816406 333.246094 287.519531 337.765625 C 288.226562 342.289062 288.929688 346.808594 289.355469 351.46875 L 289.355469 352.03125 C 289.496094 354.292969 290.058594 357.542969 288.929688 359.519531 C 287.664062 361.636719 285.125 361.636719 283.714844 359.660156 C 282.445312 357.683594 282.726562 354.292969 282.445312 352.03125 C 282.164062 349.773438 282.023438 347.371094 281.597656 345.113281 C 281.035156 340.59375 280.332031 336.074219 279.484375 331.550781 C 277.933594 322.230469 275.535156 313.050781 273.84375 303.726562 C 272.152344 294.125 270.882812 284.519531 270.742188 274.773438 C 270.742188 265.027344 271.730469 255.140625 272.292969 245.394531 C 273 235.367188 273.5625 225.480469 274.265625 215.59375 Z M 180.785156 153.867188 C 181.347656 152.03125 183.179688 150.902344 185.011719 151.46875 C 186.707031 151.890625 188.117188 154.007812 187.410156 155.703125 C 186.707031 157.539062 185.4375 159.234375 184.449219 160.929688 C 183.460938 162.484375 182.050781 163.753906 181.066406 165.308594 L 182.191406 166.4375 C 182.757812 167.003906 183.320312 167.570312 183.886719 168.132812 L 185.859375 170.113281 C 187.410156 171.664062 188.820312 173.21875 190.371094 174.632812 C 194.882812 179.007812 199.535156 183.246094 204.472656 186.917969 C 205.597656 187.765625 206.726562 188.613281 207.996094 189.460938 L 208.417969 189.746094 C 209.265625 190.308594 210.113281 190.875 211.097656 190.734375 C 213.496094 190.449219 215.609375 187.90625 217.300781 186.355469 L 217.445312 186.214844 C 221.53125 182.257812 225.339844 178.019531 228.582031 173.5 C 229.289062 172.511719 229.992188 171.382812 230.699219 170.394531 C 229.148438 168.558594 229.429688 164.886719 229.429688 162.625 C 229.429688 161.070312 229.429688 159.375 229.289062 157.824219 L 229.289062 157.539062 C 229.289062 156.550781 229.289062 155.5625 229.851562 154.714844 C 229.851562 154.714844 229.992188 154.714844 229.992188 154.714844 C 230.980469 155.140625 231.261719 155.988281 231.542969 156.976562 L 231.542969 157.117188 C 231.96875 158.246094 232.53125 159.234375 232.953125 160.367188 C 233.375 161.496094 233.941406 162.625 234.363281 163.898438 C 234.503906 164.460938 234.785156 165.027344 234.929688 165.449219 C 235.070312 165.734375 235.210938 166.15625 235.351562 166.4375 C 235.492188 166.582031 235.632812 166.722656 235.773438 166.863281 C 236.339844 167.144531 236.761719 167.570312 236.902344 168.273438 C 237.324219 169.828125 236.480469 170.957031 235.632812 172.230469 C 232.53125 177.03125 229.003906 181.695312 225.058594 185.789062 C 223.082031 187.90625 220.96875 189.886719 218.855469 191.722656 L 218.429688 192.003906 C 216.457031 193.699219 214.339844 195.253906 211.804688 195.675781 C 208.84375 196.101562 206.304688 194.6875 204.046875 192.851562 L 203.765625 192.710938 C 201.511719 191.015625 199.394531 189.320312 197.421875 187.484375 C 193.191406 183.8125 189.101562 179.855469 185.578125 175.621094 C 182.050781 171.382812 178.667969 166.722656 176.554688 161.636719 C 176.414062 161.355469 176.835938 161.070312 176.976562 161.214844 C 177.964844 162.203125 179.089844 163.332031 180.078125 164.320312 C 180.078125 162.765625 179.796875 161.214844 179.9375 159.519531 C 180.21875 157.824219 180.21875 155.703125 180.785156 153.867188 Z M 180.785156 153.867188 " fill-opacity="1" fill-rule="evenodd"/></g></g><g clip-path="url(#ea922aba1f)"><g clip-path="url(#208ca821ef)"><path fill="#ffffff" d="M 252.179688 80.550781 C 249.5 69.109375 243.578125 58.515625 234.132812 50.039062 C 205.792969 21.933594 153.621094 37.1875 153.761719 79.558594 C 152.773438 84.503906 152.351562 89.589844 152.632812 94.671875 C 152.773438 96.792969 153.761719 99.898438 152.492188 101.734375 C 149.671875 105.40625 147.980469 108.089844 148.96875 112.894531 C 149.8125 117.132812 152.632812 120.097656 156.441406 121.652344 C 158.695312 122.355469 160.953125 123.769531 161.800781 126.03125 C 167.015625 135.492188 170.824219 143.261719 179 149.757812 C 181.117188 151.453125 202.546875 161.339844 209.738281 161.339844 C 230.464844 161.339844 256.691406 153.855469 257.117188 130.550781 C 257.257812 125.464844 256.269531 120.238281 255.707031 115.292969 C 254.296875 103.710938 254.71875 91.707031 252.179688 80.550781 Z M 252.179688 80.550781 " fill-opacity="1" fill-rule="evenodd"/></g></g><g clip-path="url(#882f6ee9df)"><g clip-path="url(#d411349b23)"><path fill="#000000" d="M 251.617188 74.898438 C 251.617188 74.757812 251.757812 74.757812 251.898438 74.898438 C 252.605469 77.582031 253.167969 80.40625 253.730469 83.234375 C 254.296875 85.917969 254.859375 88.601562 255.28125 91.285156 C 256.128906 96.367188 256.832031 101.453125 257.539062 106.679688 L 257.679688 107.949219 C 258.808594 116.988281 260.78125 126.453125 259.089844 135.492188 C 257.679688 143.261719 252.746094 149.476562 246.539062 154.136719 C 240.617188 158.515625 233.425781 161.199219 226.378906 162.894531 C 218.761719 164.449219 209.738281 164.871094 203.535156 159.222656 C 200.996094 156.960938 204.382812 152.441406 207.203125 154.558594 C 213.546875 159.363281 221.582031 157.949219 228.773438 155.972656 L 229.054688 155.972656 C 235.402344 154.277344 241.605469 151.734375 246.683594 147.5 C 252.179688 142.695312 254.859375 136.199219 255.28125 128.996094 C 255.425781 124.898438 255.140625 120.945312 254.71875 116.847656 L 254.71875 116.425781 C 254.296875 111.765625 253.730469 107.242188 253.308594 102.582031 C 252.886719 98.34375 252.605469 94.109375 252.320312 89.871094 L 252.179688 87.753906 C 251.757812 83.515625 251.476562 79.136719 251.617188 74.898438 Z M 177.308594 39.164062 C 187.601562 33.796875 199.445312 31.820312 211.007812 33.65625 C 222.007812 35.351562 232.160156 41.140625 239.773438 49.335938 C 243.4375 53.289062 246.683594 57.949219 248.796875 63.035156 C 249.785156 65.578125 250.628906 68.121094 251.054688 70.804688 C 251.335938 72.214844 251.476562 73.628906 251.476562 75.039062 C 251.476562 76.3125 251.195312 77.582031 251.195312 78.855469 C 251.195312 78.996094 250.910156 79.136719 250.769531 78.855469 C 250.347656 77.441406 249.5 76.3125 248.9375 74.898438 C 248.515625 73.910156 248.09375 72.78125 247.667969 71.792969 L 247.246094 70.945312 C 246.117188 68.402344 244.707031 66 243.296875 63.601562 C 240.476562 58.796875 236.953125 54.277344 232.722656 50.605469 C 225.671875 44.109375 216.226562 39.871094 206.355469 39.023438 C 196.203125 38.175781 185.769531 40.71875 177.167969 46.085938 C 168.425781 51.453125 161.941406 59.925781 158.414062 69.53125 C 156.722656 74.335938 155.734375 79.417969 155.453125 84.644531 C 155.3125 87.1875 155.453125 89.871094 155.59375 92.554688 L 155.734375 93.824219 C 155.875 95.378906 155.875 96.792969 155.734375 98.203125 C 157.285156 97.78125 158.980469 97.5 160.671875 97.78125 C 163.066406 98.203125 164.617188 99.191406 165.746094 101.3125 C 165.746094 101.453125 165.746094 101.59375 165.605469 101.453125 C 164.195312 100.746094 161.941406 101.171875 160.390625 101.453125 C 158.835938 101.875 157.429688 102.582031 156.019531 103.429688 C 153.480469 105.125 151.648438 107.808594 151.082031 110.773438 C 150.660156 113.742188 151.789062 116.566406 153.761719 118.683594 C 154.75 119.816406 156.019531 120.660156 157.429688 121.226562 C 159.121094 121.933594 160.8125 121.933594 162.222656 123.0625 C 163.066406 123.769531 162.925781 125.039062 162.363281 125.746094 C 165.464844 129.136719 168.285156 132.949219 171.386719 136.339844 C 172.796875 137.894531 174.207031 139.589844 175.617188 141.140625 L 176.179688 141.707031 C 177.589844 143.402344 179.707031 145.097656 180.410156 147.214844 C 180.835938 148.488281 179.425781 150.183594 178.015625 149.617188 C 175.898438 148.769531 174.347656 146.367188 172.796875 144.53125 L 172.65625 144.671875 C 171.105469 142.695312 169.695312 140.71875 168.425781 138.601562 L 168.003906 137.894531 C 165.746094 134.082031 163.492188 130.125 162.082031 126.03125 C 161.941406 126.171875 161.941406 126.171875 161.800781 126.3125 C 159.683594 127.722656 156.722656 126.59375 154.609375 125.746094 C 152.632812 124.898438 150.800781 123.488281 149.53125 121.792969 C 146.429688 118.261719 145.160156 113.601562 146.148438 108.9375 C 146.992188 104.984375 149.671875 101.171875 153.339844 99.191406 C 151.648438 97.355469 151.082031 94.671875 150.519531 92.273438 C 149.8125 89.023438 149.8125 85.773438 149.953125 82.527344 C 150.238281 76.027344 151.929688 69.671875 154.464844 63.882812 C 158.980469 53.289062 167.15625 44.53125 177.308594 39.164062 Z M 155.59375 109.644531 C 157.710938 109.222656 159.824219 109.082031 161.800781 110.070312 C 164.054688 111.058594 165.605469 112.753906 167.15625 114.589844 C 168.847656 116.847656 164.476562 119.109375 163.492188 116.285156 L 163.492188 116.140625 C 163.207031 115.292969 162.644531 114.449219 162.082031 113.742188 C 161.941406 114.023438 161.65625 114.304688 161.234375 114.449219 C 160.8125 114.589844 160.246094 114.449219 160.246094 114.023438 C 160.105469 113.457031 160.246094 112.894531 160.53125 112.328125 C 158.980469 111.058594 157.285156 110.210938 155.59375 109.925781 C 155.453125 109.925781 155.453125 109.644531 155.59375 109.644531 Z M 155.59375 109.644531 " fill-opacity="1" fill-rule="evenodd"/></g></g><g clip-path="url(#15cdaa835d)"><g clip-path="url(#7a0a77dfcc)"><path fill="#000000" d="M 223.402344 141.015625 C 221.429688 140.167969 219.597656 138.898438 218.328125 137.0625 C 217.90625 136.496094 217.765625 135.789062 217.90625 135.226562 C 218.046875 134.519531 218.46875 133.953125 218.890625 133.53125 C 219.457031 133.105469 220.019531 132.964844 220.726562 132.964844 C 221.289062 133.25 221.851562 133.53125 222.277344 134.238281 L 222.417969 134.378906 C 223.121094 135.367188 224.109375 136.214844 225.238281 136.78125 C 226.363281 137.34375 227.632812 137.625 228.902344 137.484375 C 231.300781 137.203125 232.992188 135.933594 234.824219 134.097656 C 235.105469 133.8125 235.246094 133.53125 235.53125 133.390625 C 235.671875 133.105469 235.8125 132.964844 236.09375 132.964844 C 236.375 132.824219 236.65625 132.824219 236.800781 132.964844 C 237.082031 133.105469 237.222656 133.25 237.363281 133.390625 C 237.644531 133.53125 237.644531 133.8125 237.644531 134.097656 C 237.503906 135.933594 236.515625 137.625 235.105469 138.898438 C 233.554688 140.308594 231.582031 141.300781 229.609375 141.722656 C 227.492188 142.148438 225.378906 141.863281 223.402344 141.015625 Z M 230.59375 112.203125 C 232.851562 113.617188 236.234375 116.722656 233.839844 120.113281 C 231.019531 123.078125 226.929688 119.6875 224.8125 118.136719 C 222.980469 116.863281 220.867188 119.972656 222.558594 121.382812 C 237.222656 132.402344 243.144531 112.625 231.722656 110.648438 C 230.453125 110.367188 230.03125 111.777344 230.59375 112.203125 Z M 204.367188 99.632812 C 204.652344 96.523438 209.304688 95.820312 209.726562 98.925781 C 210.148438 101.609375 209.585938 104.152344 208.457031 106.695312 C 207.328125 109.09375 204.367188 107.964844 204.085938 105.847656 C 203.945312 102.882812 204.226562 101.609375 204.367188 99.632812 Z M 240.183594 98.21875 C 240.886719 97.371094 241.734375 96.808594 242.863281 97.089844 C 246.386719 98.078125 245.398438 103.164062 244.132812 105.566406 C 243.425781 106.835938 241.3125 107.257812 240.324219 106.128906 C 238.773438 104.152344 237.925781 100.339844 240.042969 98.503906 C 240.042969 98.503906 240.183594 98.359375 240.183594 98.21875 Z M 208.457031 86.074219 L 209.023438 85.933594 C 210.714844 85.648438 212.96875 85.367188 214.097656 86.777344 C 214.804688 87.484375 214.945312 88.898438 214.097656 89.605469 C 212.546875 90.875 210.855469 90.308594 209.023438 90.453125 C 207.46875 90.59375 206.0625 90.734375 204.652344 91.15625 C 201.40625 92.003906 198.871094 93.699219 196.050781 95.535156 C 195.625 95.820312 195.34375 95.253906 195.484375 94.972656 C 197.035156 91.863281 200.136719 89.320312 203.242188 87.769531 C 204.933594 87.0625 206.625 86.496094 208.457031 86.074219 Z M 236.941406 84.660156 L 237.363281 84.800781 C 242.015625 85.789062 248.078125 87.769531 250.335938 92.289062 C 250.476562 92.992188 250.335938 93.136719 250.195312 93.136719 C 250.195312 93.277344 250.054688 93.277344 249.769531 93.417969 C 249.628906 93.417969 249.628906 93.417969 249.488281 93.417969 C 248.503906 93.136719 247.65625 92.851562 246.949219 92.429688 L 246.105469 92.003906 C 245.117188 91.582031 244.132812 91.015625 243.144531 90.734375 C 240.886719 90.027344 238.632812 89.460938 236.375 89.179688 C 235.8125 89.179688 235.390625 88.898438 234.964844 88.617188 C 234.542969 88.332031 234.261719 87.910156 234.261719 87.484375 C 233.980469 86.921875 234.121094 86.355469 234.402344 85.789062 C 234.683594 85.367188 235.105469 85.085938 235.53125 84.800781 C 235.953125 84.660156 236.515625 84.660156 236.941406 84.660156 Z M 236.941406 84.660156 " fill-opacity="1" fill-rule="evenodd"/></g></g><g clip-path="url(#46aea2b977)"><g clip-path="url(#09bfe1dc87)"><path fill="#000000" d="M 236.929688 145.714844 C 234.113281 143.171875 231.007812 138.230469 227.0625 142.183594 C 226.074219 143.3125 225.652344 145.855469 224.101562 146.28125 C 222.125 146.984375 220.152344 144.867188 219.449219 143.171875 C 216.628906 134.132812 228.1875 131.589844 234.816406 133.144531 C 238.058594 134.414062 240.457031 139.78125 240.597656 142.605469 C 240.597656 144.300781 239.046875 147.125 236.929688 145.714844 M 257.800781 131.730469 C 257.800781 131.589844 257.800781 131.449219 257.660156 131.449219 C 256.390625 131.023438 255.402344 131.449219 254.839844 132.296875 C 254.839844 132.578125 254.980469 132.71875 254.980469 133.003906 C 254.558594 133.992188 254.132812 135.121094 253.429688 135.96875 C 253.289062 135.96875 253.148438 135.96875 253.003906 135.96875 C 242.570312 137.097656 247.648438 126.222656 237.074219 123.398438 C 228.894531 121.984375 214.230469 123.539062 210.28125 132.15625 C 207.179688 145.714844 191.8125 136.25 186.734375 129.1875 C 181.375 122.691406 177.851562 114.921875 174.46875 107.296875 C 173.761719 105.742188 171.507812 106.871094 171.789062 108.425781 C 168.6875 114.640625 168.828125 122.269531 167.980469 129.046875 C 166.710938 142.75 165.445312 161.957031 178.132812 170.289062 C 194.632812 189.078125 235.945312 195.574219 254.980469 178.484375 C 261.890625 164.074219 261.042969 146.703125 257.800781 131.730469 " fill-opacity="1" fill-rule="evenodd"/></g></g></svg>