<svg xmlns="http://www.w3.org/2000/svg" xmlns:xlink="http://www.w3.org/1999/xlink" width="119" zoomAndPan="magnify" viewBox="0 0 89.25 196.499996" height="262" preserveAspectRatio="xMidYMid meet" version="1.0"><defs><clipPath id="7a8634a369"><path d="M 0 19.015625 L 88.480469 19.015625 L 88.480469 184.570312 L 0 184.570312 Z M 0 19.015625 " clip-rule="nonzero"/></clipPath><clipPath id="185ef7a890"><path d="M 15.617188 19.015625 L 72.859375 19.015625 C 77.003906 19.015625 80.976562 20.660156 83.90625 23.589844 C 86.835938 26.519531 88.480469 30.492188 88.480469 34.632812 L 88.480469 168.867188 C 88.480469 173.007812 86.835938 176.980469 83.90625 179.910156 C 80.976562 182.839844 77.003906 184.484375 72.859375 184.484375 L 15.617188 184.484375 C 11.476562 184.484375 7.503906 182.839844 4.574219 179.910156 C 1.644531 176.980469 0 173.007812 0 168.867188 L 0 34.632812 C 0 30.492188 1.644531 26.519531 4.574219 23.589844 C 7.503906 20.660156 11.476562 19.015625 15.617188 19.015625 Z M 15.617188 19.015625 " clip-rule="nonzero"/></clipPath><clipPath id="9e18ee111c"><path d="M 0 19.019531 L 88.507812 19.019531 L 88.507812 184.128906 L 0 184.128906 Z M 0 19.019531 " clip-rule="nonzero"/></clipPath><clipPath id="b3b66839e3"><path d="M 15.617188 19.019531 L 72.855469 19.019531 C 76.996094 19.019531 80.96875 20.664062 83.898438 23.59375 C 86.824219 26.523438 88.472656 30.492188 88.472656 34.636719 L 88.472656 168.855469 C 88.472656 172.996094 86.824219 176.96875 83.898438 179.898438 C 80.96875 182.828125 76.996094 184.472656 72.855469 184.472656 L 15.617188 184.472656 C 11.476562 184.472656 7.503906 182.828125 4.574219 179.898438 C 1.644531 176.96875 0 172.996094 0 168.855469 L 0 34.636719 C 0 30.492188 1.644531 26.523438 4.574219 23.59375 C 7.503906 20.664062 11.476562 19.019531 15.617188 19.019531 Z M 15.617188 19.019531 " clip-rule="nonzero"/></clipPath><clipPath id="e2d4e2690a"><path d="M 16 29 L 88 29 L 88 195.433594 L 16 195.433594 Z M 16 29 " clip-rule="nonzero"/></clipPath><clipPath id="7bd14ad516"><path d="M 38 0.570312 L 68 0.570312 L 68 36 L 38 36 Z M 38 0.570312 " clip-rule="nonzero"/></clipPath></defs><g clip-path="url(#7a8634a369)"><g clip-path="url(#185ef7a890)"><path fill="#00ffb9" d="M 0 19.015625 L 88.480469 19.015625 L 88.480469 184.570312 L 0 184.570312 Z M 0 19.015625 " fill-opacity="1" fill-rule="nonzero"/></g></g><g clip-path="url(#9e18ee111c)"><g clip-path="url(#b3b66839e3)"><path stroke-linecap="butt" transform="matrix(0.74375, 0, 0, 0.74375, -0.000000000000005285, 19.018683)" fill="none" stroke-linejoin="miter" d="M 20.997901 0.00114019 L 97.956943 0.00114019 C 103.524171 0.00114019 108.865558 2.212275 112.804634 6.151351 C 116.738458 10.090427 118.954845 15.426562 118.954845 20.999042 L 118.954845 201.461246 C 118.954845 207.028473 116.738458 212.36986 112.804634 216.308936 C 108.865558 220.248012 103.524171 222.459147 97.956943 222.459147 L 20.997901 222.459147 C 15.430674 222.459147 10.089287 220.248012 6.150211 216.308936 C 2.211135 212.36986 0.000000000000007105 207.028473 0.000000000000007105 201.461246 L 0.000000000000007105 20.999042 C 0.000000000000007105 15.426562 2.211135 10.090427 6.150211 6.151351 C 10.089287 2.212275 15.430674 0.00114019 20.997901 0.00114019 Z M 20.997901 0.00114019 " stroke="#000000" stroke-width="2" stroke-opacity="1" stroke-miterlimit="4"/></g></g><path fill="#ffffff" d="M 28.492188 66.316406 C 26.652344 68.4375 26.824219 69.039062 27.800781 71.1875 C 29.957031 76.171875 33.027344 81.242188 36.53125 85.886719 C 36.300781 75.484375 36.101562 65.054688 35.757812 54.566406 C 33.660156 58.636719 31.449219 62.273438 28.492188 66.316406 M 28.148438 194.710938 C 27 194.597656 18.898438 194.910156 21.082031 192.535156 C 20.421875 191.074219 22.289062 189.867188 23.4375 188.75 C 24.5 187.71875 25.5625 186.574219 26.683594 185.285156 C 27.714844 184.050781 28.863281 182.621094 29.609375 180.929688 C 29.785156 180.671875 29.957031 180.46875 30.097656 180.382812 L 30.1875 180.328125 L 30.242188 180.242188 C 30.875 179.238281 31.390625 178.179688 31.964844 177.175781 C 30.558594 176.660156 29.265625 176.171875 27.6875 175.457031 C 29.925781 162.246094 33.316406 149.351562 35.5 136.113281 C 36.820312 124.566406 37.535156 112.933594 40.582031 101.585938 L 40.984375 101.617188 L 41.210938 100.871094 C 40.898438 100.871094 40.234375 100.84375 39.921875 100.84375 L 40.007812 101.214844 C 38.570312 101.042969 37.136719 100.640625 35.726562 100.296875 C 35.011719 100.210938 34.292969 99.695312 34.550781 98.835938 C 34.636719 97.605469 34.894531 96.402344 35.011719 95.140625 C 34.550781 94.824219 34.089844 94.480469 33.632812 94.109375 C 32.425781 94.683594 30.988281 96.488281 29.667969 96.027344 C 26.625 91.929688 24.039062 87.003906 21.714844 83.078125 C 16.085938 73.9375 14.304688 68.265625 20.105469 58.78125 C 25.101562 50.84375 30.5 38.207031 40.523438 36.230469 C 41.644531 36.027344 42.820312 36 43.910156 35.511719 C 43.96875 34.769531 44.34375 34.367188 44.601562 34.339844 C 45.261719 34.195312 45.980469 33.964844 46.609375 33.964844 C 46.839844 33.878906 47.097656 33.9375 47.328125 33.996094 C 47.960938 32.703125 47.902344 31.070312 48.621094 29.867188 C 48.648438 28.953125 48.9375 27.949219 51.75 27.746094 C 53.675781 27.574219 56.402344 27.433594 57.925781 28.265625 C 58.988281 29.125 59.015625 31.070312 58.875 32.417969 C 58.730469 33.421875 58.785156 34.597656 59.589844 35.769531 C 61.832031 35.082031 63.382812 36.542969 64.789062 39.265625 C 70.648438 40.070312 71.9375 40.527344 74.207031 46.316406 C 75.296875 48.835938 76.417969 51.53125 77.28125 54.28125 C 78.398438 57.664062 78.515625 61.1875 79.605469 64.566406 C 82.59375 72.046875 85.636719 76.859375 86.613281 85.570312 C 87.074219 89.410156 86.8125 91.328125 86.355469 91.902344 C 85.089844 91.53125 83.453125 91.273438 82.132812 91.101562 L 83.570312 92.191406 C 82.363281 97.632812 85.835938 113.191406 76.417969 111.988281 C 76.332031 111.789062 76.476562 110.671875 76.535156 110.210938 C 76.273438 110.242188 75.785156 110.242188 75.558594 110.210938 C 75.097656 111.5 74.4375 112.675781 74.007812 113.964844 C 73.804688 114.769531 73.519531 115.570312 73.261719 116.34375 C 67.34375 136.257812 66.167969 155.425781 68.808594 175.425781 L 68.695312 175.484375 L 68.636719 175.570312 L 68.550781 175.597656 C 68.347656 175.855469 68.089844 175.855469 67.6875 175.855469 C 65.105469 175.941406 62.808594 176.058594 60.710938 176.113281 C 60.941406 177.234375 60.796875 178.40625 60.683594 179.554688 C 61.917969 179.46875 63.035156 179.953125 64.15625 180.554688 C 66.3125 181.617188 68.4375 182.707031 70.53125 183.910156 C 72.597656 185.226562 75.929688 186.34375 74.265625 188.722656 L 74.753906 188.921875 C 74.78125 188.921875 74.78125 188.921875 74.78125 188.953125 C 74.839844 189.152344 74.179688 189.984375 74.007812 189.984375 C 69.46875 190.183594 65.59375 189.125 59.792969 188.035156 C 58.472656 187.546875 51.78125 186.746094 51.75 185.484375 C 51.78125 185.082031 52.183594 185.113281 52.46875 185.054688 C 51.609375 180.757812 54.507812 180.414062 54.910156 176.515625 C 54.335938 176.632812 53.734375 176.71875 53.128906 176.546875 C 52.613281 168.234375 53.445312 159.695312 52.527344 151.300781 L 51.609375 151.1875 C 48.507812 160.328125 45.261719 169.695312 42.792969 179.179688 C 42.734375 179.382812 42.503906 179.238281 42.417969 179.179688 C 40.8125 179.152344 39.171875 178.980469 37.59375 178.695312 C 37.566406 179.640625 37.507812 180.585938 37.480469 181.503906 L 37.738281 181.644531 C 37.910156 181.875 37.824219 182.90625 37.796875 183.335938 C 37.765625 183.792969 37.738281 184.109375 37.796875 184.425781 C 38.3125 185.425781 36.5625 187.605469 35.640625 188.808594 C 33.546875 191.386719 31.878906 195.226562 28.148438 194.710938 " fill-opacity="1" fill-rule="evenodd"/><g clip-path="url(#e2d4e2690a)"><path fill="#000000" d="M 48.132812 29.925781 C 48.679688 29.554688 47.902344 32.761719 47.902344 33.078125 L 47.902344 33.136719 C 47.761719 33.792969 47.53125 34.539062 46.984375 34.96875 C 47.242188 37.058594 47.558594 39.125 47.960938 41.1875 L 48.191406 41.214844 C 51.609375 41.671875 55.054688 42.273438 58.527344 41.960938 C 60.394531 41.988281 61.628906 40.699219 62.40625 39.125 C 62.347656 38.921875 62.289062 38.75 62.261719 38.550781 C 59.878906 37.089844 58.070312 34.167969 59.160156 31.386719 C 59.21875 31.273438 59.359375 31.273438 59.417969 31.328125 C 59.417969 31.328125 59.449219 31.328125 59.449219 31.359375 L 59.332031 31.929688 C 59.246094 33.105469 59.21875 34.339844 59.878906 35.398438 C 62.460938 34.796875 64.070312 36.972656 65.160156 38.980469 L 65.9375 39.09375 C 68.921875 39.523438 71.765625 40.070312 73.261719 43.078125 L 73.460938 43.507812 C 75.5 47.863281 77.421875 52.359375 78.542969 57.058594 C 79.117188 59.554688 79.320312 62.132812 80.125 64.566406 C 81.847656 69.09375 84.257812 73.335938 85.578125 78.035156 C 86.382812 79.726562 88.679688 92.449219 86.410156 92.535156 C 85.609375 92.304688 84.773438 92.101562 83.941406 91.960938 C 84.058594 92.046875 84.113281 92.21875 84.085938 92.390625 C 83.796875 94.425781 83.769531 96.488281 83.769531 98.550781 C 83.914062 103.535156 83.796875 114.253906 76.246094 112.535156 C 75.699219 112.332031 76.046875 111.445312 76.046875 110.84375 C 76.015625 110.84375 75.960938 110.84375 75.902344 110.84375 C 75.472656 112.019531 74.867188 113.078125 74.496094 114.253906 C 74.179688 115.253906 73.949219 116.34375 73.488281 117.320312 C 68.722656 134.167969 66.769531 151.875 68.636719 169.296875 C 68.75 170.328125 68.867188 171.386719 68.980469 172.417969 C 68.953125 173.078125 69.726562 175.800781 69.039062 175.972656 C 69.011719 176.027344 68.921875 176.085938 68.867188 176.113281 C 68.4375 176.574219 67.746094 176.402344 67.199219 176.460938 C 65.21875 176.546875 63.265625 176.632812 61.285156 176.6875 C 61.398438 177.519531 61.3125 178.378906 61.226562 179.210938 C 62.664062 179.210938 63.984375 180.097656 65.25 180.671875 C 67.144531 181.589844 68.980469 182.589844 70.820312 183.652344 C 72.511719 184.824219 76.246094 185.941406 74.953125 188.609375 C 75.929688 189.007812 74.582031 190.613281 73.835938 190.640625 C 69.066406 190.613281 64.328125 189.554688 59.675781 188.609375 C 57.035156 187.921875 54.136719 187.632812 51.695312 186.460938 C 51.003906 186.144531 51.148438 184.910156 51.894531 184.769531 C 51.320312 180.613281 53.617188 180.671875 54.277344 177.203125 C 53.90625 177.261719 53.472656 177.234375 53.101562 177.148438 C 52.238281 177.949219 52.554688 171.617188 52.441406 170.984375 C 52.410156 164.480469 52.726562 157.949219 52.039062 151.472656 L 50.859375 154.941406 C 48.105469 163.050781 45.375 171.15625 43.222656 179.4375 C 43.078125 179.925781 42.5625 180.011719 42.21875 179.78125 C 40.8125 179.753906 39.375 179.609375 37.996094 179.382812 C 37.96875 180.039062 37.9375 180.699219 37.910156 181.359375 C 38.511719 181.675781 38.109375 183.738281 38.167969 184.425781 C 38.828125 185.914062 36.160156 188.808594 35.296875 190.039062 C 33.746094 192.191406 32.195312 195.226562 29.210938 195.339844 L 29.125 195.339844 C 26.882812 195.398438 24.613281 195.253906 22.402344 194.941406 L 22.171875 194.910156 C 21.542969 194.796875 20.824219 194.652344 20.449219 194.082031 C 20.136719 193.59375 20.164062 192.992188 20.566406 192.621094 C 20.078125 190.8125 22 189.726562 23.09375 188.609375 C 25.132812 186.660156 26.96875 184.511719 28.578125 182.191406 L 28.664062 181.960938 C 28.949219 181.273438 29.324219 180.5 29.871094 180.15625 C 30.386719 179.324219 30.847656 178.4375 31.335938 177.578125 C 30.042969 177.089844 28.75 176.574219 27.484375 176 C 27.226562 175.886719 27.140625 175.570312 27.199219 175.3125 L 27.199219 175.285156 C 29.667969 162.535156 32.625 149.839844 34.921875 137.0625 C 36.386719 125.285156 36.992188 113.335938 40.09375 101.789062 C 38.597656 101.644531 37.105469 101.214844 35.640625 100.84375 C 34.464844 100.585938 33.859375 99.984375 34.089844 98.75 C 34.175781 97.632812 34.40625 96.542969 34.523438 95.457031 C 34.207031 95.226562 33.890625 94.996094 33.601562 94.769531 C 33.058594 95.167969 32.484375 95.570312 31.910156 95.914062 C 30.5 96.917969 29.410156 97.089844 28.546875 95.425781 C 26.050781 91.472656 23.609375 87.460938 21.339844 83.394531 C 19.214844 79.46875 16.601562 75.570312 16.058594 71.042969 C 15.28125 62.992188 24.84375 50.011719 29.609375 43.394531 C 32.253906 40.210938 35.46875 36.945312 39.660156 36.027344 C 40.953125 35.828125 42.304688 35.800781 43.539062 35.339844 C 43.625 34.738281 43.910156 34.195312 44.542969 34.050781 C 45.203125 33.910156 45.921875 33.679688 46.582031 33.652344 C 46.726562 33.621094 46.925781 33.59375 47.070312 33.621094 C 47.53125 32.445312 47.617188 31.101562 48.132812 29.925781 Z M 22.519531 193.566406 C 22.632812 193.621094 22.75 193.679688 22.863281 193.707031 C 23.007812 193.738281 23.148438 193.738281 23.324219 193.765625 C 23.035156 193.707031 22.777344 193.652344 22.519531 193.566406 Z M 37.394531 182.019531 C 35.183594 182.820312 34.578125 179.066406 30.273438 180.585938 C 28.578125 183.707031 26.394531 186.546875 23.898438 189.066406 C 23.007812 190.15625 20.394531 191.417969 21.800781 193.019531 L 22.03125 193.050781 C 24.5 193.507812 27 193.851562 29.496094 193.652344 C 31.390625 193.136719 32.796875 191.617188 33.949219 190.097656 C 34.78125 188.636719 35.757812 187.261719 36.734375 185.886719 C 37.277344 185.199219 37.335938 184.339844 37.335938 183.507812 C 37.363281 183.050781 37.363281 182.535156 37.394531 182.019531 Z M 62.089844 180.183594 C 61.171875 179.839844 60.195312 180.15625 59.359375 180.585938 C 57.925781 181.246094 54.765625 182.019531 53.445312 180.984375 C 52.785156 182.074219 52.554688 183.277344 52.757812 184.539062 L 52.757812 184.625 C 52.785156 185.140625 52.84375 185.542969 53.445312 185.570312 L 55.199219 186 C 61.085938 187.492188 67.058594 188.894531 73.117188 189.324219 C 74.722656 188.320312 74.78125 187.003906 73.058594 186.058594 L 72.628906 185.800781 C 69.210938 183.707031 65.734375 181.675781 62.089844 180.183594 Z M 74.898438 188.78125 C 74.867188 188.808594 74.867188 188.835938 74.839844 188.867188 C 74.867188 188.867188 74.898438 188.894531 74.898438 188.921875 C 74.925781 188.867188 74.925781 188.808594 74.898438 188.78125 Z M 31.679688 177.71875 C 31.707031 178.179688 31.476562 178.695312 31.304688 179.09375 C 31.21875 179.324219 31.105469 179.695312 30.960938 179.953125 C 34.664062 178.867188 35.785156 182.046875 37.105469 181.386719 L 37.136719 181.359375 C 36.875 180.726562 37.164062 179.867188 37.335938 179.238281 C 35.441406 178.921875 33.515625 178.378906 31.679688 177.71875 Z M 60.882812 176.746094 L 59.820312 176.773438 C 58.15625 176.832031 56.519531 176.859375 54.851562 176.859375 C 55.023438 178.035156 54.679688 180.011719 53.90625 180.929688 C 56.085938 181.246094 58.15625 180.269531 60.109375 179.410156 C 60.164062 178.523438 60.539062 177.605469 60.882812 176.746094 Z M 53.734375 180.355469 L 53.53125 180.726562 C 53.5625 180.757812 53.589844 180.785156 53.617188 180.8125 C 53.617188 180.671875 53.675781 180.5 53.734375 180.355469 Z M 31.449219 177.632812 C 31.421875 177.804688 31.363281 177.949219 31.335938 178.121094 C 31.390625 177.976562 31.476562 177.804688 31.59375 177.691406 Z M 54.710938 176.859375 L 54.59375 176.859375 L 54.59375 176.917969 C 54.625 176.976562 54.625 177.03125 54.59375 177.0625 C 54.59375 177.261719 54.59375 177.460938 54.566406 177.691406 L 54.59375 177.460938 C 54.652344 177.261719 54.679688 177.0625 54.710938 176.859375 Z M 53.246094 176.804688 L 53.246094 176.917969 C 53.386719 176.917969 53.53125 176.917969 53.703125 176.917969 C 53.789062 176.917969 53.875 176.890625 53.933594 176.890625 C 53.703125 176.859375 53.472656 176.832031 53.246094 176.804688 Z M 79.777344 91.671875 C 79.691406 91.757812 79.636719 91.816406 79.546875 91.84375 C 79.546875 93.792969 79.148438 95.742188 78.054688 97.433594 C 77.597656 98.035156 77.335938 98.722656 77.136719 99.410156 C 75.988281 102.648438 75.785156 106.144531 76.1875 109.554688 C 77.308594 107.890625 77.769531 105.914062 78.085938 103.996094 C 78.113281 103.910156 78.257812 103.910156 78.285156 103.996094 C 78.660156 106.085938 78 108.121094 77.222656 110.039062 C 76.734375 110.382812 76.847656 111.300781 76.792969 111.84375 C 85.121094 113.050781 82.21875 97.117188 83.28125 92.1875 C 83.3125 92.046875 83.425781 91.960938 83.539062 91.902344 C 82.304688 91.730469 81.042969 91.703125 79.777344 91.671875 Z M 40.523438 101.472656 C 40.523438 101.53125 40.550781 101.585938 40.550781 101.617188 L 40.609375 101.472656 C 40.582031 101.5 40.550781 101.472656 40.523438 101.472656 Z M 46.179688 33.996094 L 46.035156 34.023438 C 44.484375 34.425781 44 34.367188 43.910156 36.230469 C 43.539062 38.75 42.132812 40.929688 41.5 43.363281 C 41.242188 44.222656 41.527344 45.800781 42.707031 45.570312 C 43.078125 45.457031 43.394531 45.972656 43.109375 46.257812 C 42.246094 47.058594 41.414062 47.921875 40.550781 48.75 C 43.941406 60.125 48.335938 71.214844 53.675781 81.816406 C 53.875 82.246094 53.246094 82.621094 53.042969 82.1875 C 47.730469 71.558594 43.308594 60.46875 39.863281 49.09375 L 39.75 48.75 C 39.605469 48.320312 41.527344 46.832031 41.902344 46.34375 C 38.371094 44.652344 43.308594 38.695312 43.453125 35.828125 C 42.449219 36.285156 41.296875 36.113281 40.207031 36.285156 C 38.140625 36.660156 36.359375 37.832031 34.75 39.09375 C 28.234375 44.824219 24.070312 52.761719 19.90625 60.242188 C 17.0625 65.113281 15.710938 71.070312 18.554688 76.285156 C 21.859375 82.933594 25.675781 89.351562 29.726562 95.570312 C 30.15625 96.144531 30.847656 95.484375 31.335938 95.253906 C 34.035156 93.652344 36.359375 91.445312 38.167969 88.894531 C 33.804688 83.566406 30.011719 77.75 27.34375 71.414062 L 27.3125 71.328125 C 26.710938 70.125 26.222656 68.664062 27.226562 67.519531 C 30.789062 62.964844 33.949219 58.148438 36.933594 53.191406 C 36.960938 53.136719 37.019531 53.191406 37.019531 53.25 C 36.703125 53.9375 36.386719 54.625 36.042969 55.3125 C 36.734375 65.371094 36.617188 75.597656 36.90625 85.714844 C 37.710938 86.746094 38.511719 87.777344 39.347656 88.808594 C 42.046875 86.945312 45.234375 85.742188 48.507812 85.371094 L 48.707031 85.339844 C 50.085938 85.199219 52.382812 84.941406 52.585938 86.714844 C 52.355469 88.921875 47.789062 87.691406 46.324219 88.953125 C 48.734375 89.925781 51.464844 90.183594 53.675781 91.644531 C 54.394531 92.046875 55.773438 93.363281 54.421875 93.878906 C 53.820312 93.9375 53.214844 93.707031 52.640625 93.652344 C 53.300781 93.878906 53.90625 94.253906 54.308594 94.855469 C 54.59375 95.253906 54.796875 96.113281 54.136719 96.285156 C 52.613281 96.34375 51.089844 95.828125 49.597656 95.597656 L 49.742188 95.65625 C 50.832031 96.113281 52.554688 96.917969 51.0625 98.09375 C 49.597656 98.867188 47.789062 97.546875 46.324219 97.203125 C 42.359375 96.285156 39.433594 98.808594 35.355469 96.085938 C 35.238281 97.003906 35.066406 97.890625 35.011719 98.808594 L 35.011719 98.867188 C 34.867188 99.695312 34.980469 100.011719 35.898438 100.15625 C 36.992188 100.46875 38.140625 100.585938 39.261719 100.640625 C 44.714844 100.929688 50.230469 100.726562 55.628906 100.039062 C 56.402344 99.839844 58.242188 100.039062 58.558594 99.179688 C 57.953125 77.144531 48.734375 56.402344 46.210938 34.652344 C 46.09375 34.394531 46.09375 34.167969 46.179688 33.996094 Z M 61.574219 35.886719 C 61.140625 35.914062 60.738281 36 60.308594 36.027344 C 60.539062 36.542969 61.800781 37.261719 61.6875 37.519531 C 61.773438 37.574219 61.859375 37.660156 61.972656 37.71875 C 61.832031 37.261719 61.714844 36.800781 61.574219 36.34375 C 66.398438 48.035156 67.058594 61.875 67.6875 74.625 C 67.890625 81.042969 68.003906 87.492188 67.6875 93.9375 C 67.515625 95.65625 67.058594 97.375 67.171875 99.09375 C 69.984375 99.496094 72.859375 99.523438 75.699219 99.238281 C 75.785156 99.007812 75.875 98.808594 75.988281 98.578125 C 80.238281 93.421875 77.96875 86.945312 75.929688 81.359375 C 74.695312 81.414062 73.460938 81.328125 72.226562 81.359375 C 72.597656 82.535156 72.714844 83.792969 72.914062 84.996094 C 73.058594 85.855469 73.230469 86.714844 73.433594 87.578125 L 73.488281 87.835938 C 73.574219 88.148438 73.660156 88.464844 73.546875 88.78125 C 73.433594 89.09375 73.058594 89.210938 72.800781 88.980469 C 72.339844 88.464844 72.398438 87.71875 72.253906 87.058594 L 72.226562 86.859375 C 71.96875 85.027344 71.652344 83.136719 72.109375 81.328125 C 71.679688 81.242188 70.445312 81.585938 70.386719 80.984375 C 70.417969 80.011719 69.699219 77.863281 70.472656 77.230469 C 70.960938 76.859375 71.765625 76.972656 72.3125 76.972656 C 72.945312 76.945312 73.605469 76.917969 74.234375 76.917969 C 69.066406 64.480469 70.503906 60.640625 71.046875 48.292969 L 71.078125 47.921875 C 71.078125 47.835938 71.222656 47.804688 71.222656 47.890625 C 71.996094 52.964844 70.960938 58.09375 71.449219 63.164062 C 72.339844 72.820312 78.457031 81.128906 79.492188 90.726562 C 81.703125 90.46875 83.941406 90.785156 86.097656 91.328125 C 86.152344 90.929688 86.183594 90.554688 86.210938 90.15625 C 86.613281 82.992188 84.085938 76 81.15625 69.582031 C 79.40625 66.171875 78.3125 62.53125 77.855469 58.695312 C 76.964844 53.738281 74.984375 49.039062 73 44.425781 C 71.738281 40.984375 69.039062 40.15625 65.679688 39.753906 C 66.796875 41.617188 67.949219 43.507812 69.066406 45.398438 C 69.324219 45.972656 68.550781 46.371094 68.207031 46.714844 C 72.339844 48.953125 69.929688 55.886719 70.015625 59.78125 C 69.699219 63.363281 69.585938 66.945312 69.039062 70.5 C 69.011719 70.757812 68.609375 70.671875 68.609375 70.441406 C 68.664062 65.140625 69.296875 59.839844 69.585938 54.539062 L 69.613281 54.167969 C 69.84375 51.644531 70.042969 48.035156 67.027344 47.347656 C 66.625 47.289062 66.597656 46.6875 66.914062 46.488281 C 67.34375 46.257812 67.746094 45.941406 68.0625 45.597656 C 66.914062 43.652344 65.765625 41.730469 64.617188 39.78125 L 64.558594 39.695312 C 63.726562 38.351562 62.980469 36.746094 61.574219 35.886719 Z M 51.722656 86.574219 C 51.378906 85.597656 48.132812 86.230469 47.273438 86.34375 C 44.085938 86.945312 40.867188 88.351562 38.425781 90.527344 C 38.285156 90.671875 38.109375 90.671875 37.96875 90.585938 C 36.875 91.960938 35.613281 93.222656 34.234375 94.339844 C 34.492188 94.539062 34.75 94.738281 35.011719 94.910156 C 35.125 94.910156 35.238281 94.996094 35.296875 95.113281 C 39.085938 97.863281 41.875 95.714844 45.808594 96.199219 C 47.273438 96.488281 48.621094 97.433594 50.144531 97.460938 C 51.261719 97.203125 50.285156 96.746094 49.769531 96.574219 C 48.59375 96 47.386719 95.511719 46.179688 94.996094 L 45.234375 94.597656 C 44.773438 94.394531 44.917969 93.679688 45.460938 93.824219 C 46.382812 94.050781 47.300781 94.253906 48.25 94.453125 C 50.027344 94.824219 51.867188 95.285156 53.648438 95.457031 C 53.246094 94.339844 48.996094 93.136719 47.761719 92.707031 C 47.300781 92.476562 45.949219 92.535156 46.125 91.816406 C 46.238281 91.15625 47.671875 91.902344 48.132812 91.960938 C 50.058594 92.449219 52.039062 92.734375 53.992188 93.050781 C 51.894531 90.929688 48.621094 90.757812 45.921875 89.753906 L 45.835938 89.726562 C 45.347656 89.609375 44.6875 89.410156 45.089844 88.867188 C 46.523438 86.800781 51.980469 87.835938 51.722656 86.574219 Z M 47.761719 75.226562 C 48.734375 74.425781 49.28125 76.085938 49.195312 76.832031 C 49.253906 77.460938 49.28125 78.121094 49.339844 78.75 C 49.28125 79.238281 49.796875 81.070312 49.109375 81.070312 C 46.007812 80.898438 42.878906 80.957031 39.777344 80.757812 C 39.777344 81.386719 39.75 82.015625 39.777344 82.648438 C 39.75 83.421875 40.035156 84.222656 39.863281 84.996094 C 39.777344 85.339844 39.289062 85.398438 39.085938 85.113281 C 38.511719 83.765625 38.914062 82.046875 39.316406 80.699219 C 37.796875 80.414062 37.59375 78.980469 37.996094 77.71875 L 37.996094 77.664062 C 37.96875 77.261719 37.96875 76.859375 38.140625 76.515625 C 38.597656 75.972656 39.574219 76.316406 40.234375 76.285156 C 42.21875 76.085938 44.257812 76.027344 46.210938 75.65625 C 46.699219 75.511719 47.214844 75.253906 47.761719 75.226562 Z M 35.382812 56.574219 C 33.832031 59.523438 32.050781 62.332031 30.15625 65.054688 C 29.753906 65.628906 29.324219 66.199219 28.921875 66.773438 L 28.863281 66.832031 C 28.003906 67.921875 27.113281 68.808594 27.917969 70.242188 C 30.011719 75.3125 32.828125 80.097656 36.074219 84.539062 C 35.871094 75.253906 35.671875 65.914062 35.382812 56.574219 Z M 74.324219 77.089844 C 70.445312 77.890625 70.359375 76.371094 71.019531 80.699219 C 72.570312 80.699219 74.148438 80.671875 75.699219 80.699219 C 75.242188 79.46875 74.78125 78.265625 74.324219 77.089844 Z M 48.191406 75.855469 C 46.152344 76.574219 44 76.457031 41.875 76.542969 C 41.875 77.003906 39.71875 76.574219 39.289062 76.628906 L 39.144531 76.628906 C 38.800781 76.601562 38.339844 76.601562 38.339844 77.03125 C 38.457031 77.777344 38.023438 78.578125 38.285156 79.296875 C 38.628906 80.269531 40.121094 80.183594 40.953125 80.183594 C 42.304688 80.210938 43.652344 80.242188 45.003906 80.269531 C 46.210938 80.296875 47.445312 80.355469 48.648438 80.382812 C 48.535156 79.523438 48.507812 78.636719 48.449219 77.777344 C 48.390625 77.144531 48.507812 76.402344 48.191406 75.855469 Z M 56.75 79.007812 C 56.75 79.007812 56.75 79.039062 56.75 79.039062 C 56.777344 79.039062 56.777344 79.039062 56.804688 79.039062 L 56.835938 79.039062 C 56.804688 79.007812 56.777344 79.007812 56.75 79.007812 Z M 62.636719 40.210938 C 61.746094 41.703125 60.308594 42.675781 58.558594 42.703125 C 55.484375 42.878906 52.355469 42.675781 49.367188 41.960938 C 48.9375 41.84375 48.390625 41.757812 47.988281 41.5 C 50.316406 54.023438 54.046875 66.230469 56.691406 78.664062 C 58.613281 78.835938 60.511719 78.808594 62.433594 78.722656 C 63.925781 78.695312 65.421875 78.867188 66.886719 78.636719 L 66.828125 77.089844 C 66.453125 64.710938 65.9375 52.1875 62.636719 40.210938 Z M 62.636719 40.210938 " fill-opacity="1" fill-rule="evenodd"/></g><path fill="#ffffff" d="M 42.730469 7.804688 C 43.074219 7.433594 43.535156 7.144531 44.023438 7.058594 C 43.589844 7.261719 43.160156 7.519531 42.730469 7.804688 Z M 42.039062 11.042969 C 41.984375 10.757812 41.925781 10.46875 41.925781 10.183594 C 42.011719 10.296875 42.125 10.382812 42.269531 10.410156 C 42.183594 10.640625 42.097656 10.84375 42.039062 11.042969 Z M 65.703125 15.570312 C 65.300781 13.878906 63.375 10.613281 62.945312 9.980469 C 62.457031 8.433594 65.128906 7.175781 63.664062 5.972656 C 63.003906 5.425781 62.140625 5.226562 61.335938 5.023438 C 55.710938 3.707031 49.648438 4.394531 44.421875 6.859375 C 43.621094 6.6875 42.785156 7.03125 42.210938 7.605469 C 39.484375 10.324219 43.1875 15.226562 44.023438 18.292969 C 45.398438 21.703125 42.558594 22.273438 42.84375 25.167969 C 43.074219 26.660156 44.597656 27.058594 45.886719 27.289062 C 46.089844 27.347656 46.375 27.347656 46.433594 27.546875 C 46.636719 28.808594 47.351562 30.011719 48.300781 30.84375 C 48.214844 31.101562 48.273438 31.386719 48.585938 31.617188 C 51.257812 33.59375 54.617188 34.59375 57.949219 34.394531 C 61.910156 34.195312 63.980469 31.929688 64.46875 31.328125 C 67.195312 27.632812 66.878906 22.789062 66.335938 18.40625 C 65.933594 15.339844 66.449219 18.578125 65.703125 15.570312 Z M 65.703125 15.570312 " fill-opacity="1" fill-rule="evenodd"/><g clip-path="url(#7bd14ad516)"><path fill="#000000" d="M 53.46875 1.5 C 53.585938 1.101562 53.957031 0.871094 54.359375 0.929688 C 54.703125 0.957031 55.105469 1.328125 55.046875 1.703125 C 55.046875 1.789062 55.019531 1.84375 55.019531 1.902344 L 55.019531 1.929688 C 54.992188 2.046875 54.960938 2.160156 54.90625 2.273438 C 54.847656 2.476562 54.761719 2.675781 54.703125 2.875 C 54.789062 2.875 54.90625 2.875 54.992188 2.90625 C 55.105469 2.648438 55.191406 2.390625 55.308594 2.132812 C 55.421875 1.84375 55.507812 1.5 55.710938 1.273438 C 55.996094 0.984375 56.457031 0.929688 56.800781 1.128906 C 57.144531 1.328125 57.289062 1.703125 57.203125 2.101562 C 57.171875 2.304688 57.03125 2.445312 56.859375 2.53125 L 56.828125 2.53125 L 56.714844 2.847656 C 56.742188 2.847656 56.800781 2.820312 56.828125 2.820312 C 56.886719 2.789062 56.972656 2.789062 57.03125 2.789062 C 57.203125 2.445312 57.402344 2.132812 57.632812 1.816406 C 57.863281 1.445312 58.351562 1.300781 58.753906 1.53125 C 59.097656 1.730469 59.296875 2.273438 59.039062 2.617188 C 58.839844 2.875 58.667969 3.164062 58.496094 3.449219 C 58.523438 3.449219 58.550781 3.449219 58.582031 3.476562 C 58.582031 3.449219 58.609375 3.449219 58.609375 3.421875 C 58.808594 3.191406 59.039062 2.992188 59.269531 2.789062 C 59.5 2.589844 59.585938 2.304688 59.871094 2.160156 C 60.246094 1.988281 60.675781 2.074219 60.878906 2.417969 C 61.335938 3.191406 60.5625 3.734375 60.074219 4.222656 C 60.503906 3.964844 60.964844 3.707031 61.421875 3.507812 C 61.683594 3.363281 61.941406 3.25 62.226562 3.164062 C 62.628906 3.019531 62.945312 3.078125 63.261719 3.335938 C 63.40625 3.449219 63.492188 3.734375 63.40625 3.90625 C 63.261719 4.25 63.058594 4.453125 62.714844 4.566406 C 62.457031 4.625 62.199219 4.679688 61.941406 4.765625 C 61.511719 4.882812 61.109375 5.023438 60.707031 5.226562 C 60.734375 5.253906 60.761719 5.253906 60.792969 5.28125 C 61.078125 5.195312 61.394531 5.109375 61.683594 5.023438 C 62.199219 4.910156 62.6875 4.824219 63.203125 4.765625 L 63.375 4.738281 C 64.007812 4.679688 64.726562 4.566406 65.128906 5.167969 C 65.242188 5.367188 65.273438 5.683594 65.128906 5.886719 C 64.871094 6.257812 64.609375 6.316406 64.152344 6.34375 C 64.582031 6.402344 65.011719 6.457031 65.445312 6.515625 C 65.730469 6.574219 66.046875 6.601562 66.335938 6.660156 L 66.476562 6.6875 C 66.824219 6.746094 67.222656 6.800781 67.539062 7.003906 C 68.199219 7.460938 67.886719 8.320312 67.167969 8.433594 C 66.792969 8.492188 66.421875 8.320312 66.046875 8.261719 C 65.703125 8.207031 65.359375 8.121094 65.011719 8.089844 C 64.839844 8.0625 64.667969 8.035156 64.46875 8.003906 C 64.839844 8.0625 65.183594 8.121094 65.558594 8.234375 L 65.644531 8.261719 C 66.335938 8.464844 67.253906 8.808594 67.453125 9.523438 C 67.570312 9.953125 67.222656 10.355469 66.792969 10.382812 C 66.390625 10.410156 66.074219 10.183594 65.730469 10.011719 C 65.472656 9.894531 65.242188 9.78125 64.984375 9.695312 C 64.699219 9.609375 64.4375 9.550781 64.152344 9.496094 C 64.382812 9.636719 64.609375 9.78125 64.839844 9.925781 L 64.957031 10.011719 C 65.558594 10.441406 66.449219 11.128906 66.246094 11.960938 C 66.191406 12.21875 65.902344 12.476562 65.617188 12.445312 C 64.898438 12.390625 64.496094 11.617188 63.949219 11.1875 C 63.808594 11.070312 63.664062 10.984375 63.492188 10.871094 C 64.324219 11.84375 64.984375 12.992188 65.472656 14.164062 C 66.5625 16.746094 66.910156 19.152344 66.910156 21.929688 L 66.910156 22.015625 C 66.910156 23.535156 66.878906 25.109375 66.734375 26.628906 C 66.59375 28.035156 66.335938 29.4375 65.703125 30.699219 C 64.640625 32.847656 62.542969 34.507812 60.21875 35.140625 C 57.632812 35.855469 54.761719 35.285156 52.664062 33.648438 C 52.121094 33.21875 52.835938 32.332031 53.382812 32.703125 C 55.566406 34.222656 58.410156 34.710938 60.933594 33.679688 C 62.945312 32.847656 64.523438 31.101562 65.214844 29.066406 C 65.644531 27.777344 65.761719 26.402344 65.933594 25.054688 L 65.933594 24.96875 C 66.105469 23.5625 66.191406 22.132812 66.191406 20.726562 C 66.191406 18.089844 65.816406 15.914062 64.640625 13.535156 C 64.09375 12.417969 63.375 11.359375 62.542969 10.441406 C 62.285156 10.5 61.996094 10.410156 61.738281 10.382812 C 61.597656 10.382812 61.480469 10.355469 61.335938 10.355469 C 61.480469 10.441406 61.597656 10.527344 61.738281 10.613281 L 61.910156 10.726562 C 62.457031 11.101562 63.117188 11.558594 63.003906 12.273438 C 62.972656 12.476562 62.773438 12.648438 62.574219 12.703125 C 61.855469 12.875 61.394531 12.1875 60.90625 11.789062 C 60.503906 11.445312 60.074219 11.128906 59.613281 10.8125 C 59.527344 10.757812 59.414062 10.671875 59.296875 10.613281 C 59.386719 10.726562 59.5 10.84375 59.585938 10.957031 L 59.730469 11.128906 C 60.132812 11.644531 60.707031 12.304688 60.359375 12.933594 C 60.246094 13.105469 60.046875 13.25 59.816406 13.25 C 59.097656 13.21875 58.808594 12.417969 58.464844 11.902344 C 58.179688 11.445312 57.863281 11.042969 57.519531 10.613281 C 57.433594 10.5 57.347656 10.382812 57.230469 10.269531 C 55.710938 10.355469 54.1875 10.554688 52.695312 10.871094 C 51.660156 11.101562 50.65625 11.386719 49.648438 11.703125 L 49.59375 11.617188 C 49.046875 11.789062 48.5 12.015625 48.097656 12.390625 C 48.042969 12.648438 48.097656 12.933594 48.128906 13.191406 L 48.15625 13.390625 C 48.328125 14.222656 48.445312 15.054688 48.359375 15.914062 C 48.273438 16.800781 47.984375 17.605469 47.667969 18.433594 C 47.523438 18.835938 47.351562 18.75 47.296875 19.179688 C 47.265625 19.496094 47.265625 19.839844 47.296875 20.152344 L 47.324219 20.441406 C 47.382812 21.15625 47.410156 21.929688 46.949219 22.53125 C 46.863281 22.617188 46.722656 22.589844 46.664062 22.503906 C 46.636719 22.476562 46.636719 22.445312 46.605469 22.390625 C 46.375 22.074219 46.03125 21.875 45.628906 21.816406 C 45.574219 21.816406 45.601562 21.730469 45.628906 21.730469 C 45.972656 21.703125 46.289062 21.789062 46.546875 21.960938 C 46.433594 21.53125 45.429688 21.730469 45.113281 21.816406 C 44.710938 21.929688 44.308594 22.101562 43.992188 22.359375 C 43.304688 22.875 42.929688 23.648438 42.929688 24.480469 C 42.960938 25.3125 43.390625 26.085938 44.109375 26.488281 C 44.453125 26.6875 44.882812 26.773438 45.285156 26.773438 C 45.714844 26.773438 46.089844 26.574219 46.492188 26.601562 C 46.75 26.628906 46.921875 26.886719 46.777344 27.117188 C 46.691406 27.261719 46.546875 27.375 46.433594 27.488281 C 46.777344 28.292969 47.210938 29.035156 47.726562 29.753906 C 48.011719 30.152344 48.328125 30.5 48.671875 30.8125 C 48.960938 31.070312 49.535156 31.359375 49.507812 31.789062 C 49.507812 31.929688 49.421875 32.046875 49.277344 32.101562 C 48.847656 32.273438 48.300781 31.671875 48.011719 31.386719 L 47.984375 31.359375 C 47.609375 30.984375 47.296875 30.585938 47.007812 30.183594 C 46.492188 29.4375 46.175781 28.578125 46.03125 27.691406 C 45.34375 27.890625 44.394531 27.691406 43.820312 27.433594 C 42.011719 26.628906 41.4375 24.222656 42.527344 22.617188 C 42.730469 22.304688 43.015625 22.046875 43.304688 21.816406 C 43.246094 21.789062 43.1875 21.730469 43.132812 21.671875 C 42.816406 21.359375 42.613281 20.929688 42.386719 20.527344 L 42.355469 20.46875 C 42.15625 20.125 41.984375 19.78125 41.808594 19.4375 L 41.839844 19.238281 C 41.464844 18.433594 41.121094 18.089844 40.863281 17.230469 C 40.605469 16.429688 40.402344 15.570312 40.261719 14.738281 L 40.230469 14.507812 C 40.144531 14.023438 40.085938 13.507812 40.144531 12.992188 C 39.773438 13.105469 39.371094 13.191406 38.996094 12.992188 C 38.738281 12.90625 38.59375 12.5625 38.679688 12.304688 C 38.738281 12.101562 38.851562 11.960938 38.96875 11.84375 C 38.882812 11.816406 38.824219 11.757812 38.738281 11.703125 L 38.679688 11.644531 C 38.449219 11.445312 38.421875 11.070312 38.566406 10.8125 C 38.566406 10.785156 38.59375 10.757812 38.59375 10.726562 C 38.738281 10.5 38.996094 10.324219 39.285156 10.355469 C 39.339844 10.355469 39.371094 10.355469 39.425781 10.355469 C 39.3125 10.324219 39.167969 10.296875 39.054688 10.210938 C 38.535156 9.894531 38.59375 9.007812 39.226562 8.863281 C 39.484375 8.808594 39.800781 8.835938 40.085938 8.894531 C 40.085938 8.894531 40.058594 8.894531 40.058594 8.863281 C 39.828125 8.722656 39.65625 8.464844 39.65625 8.175781 C 39.683594 7.863281 39.773438 7.660156 40.058594 7.488281 C 40.289062 7.347656 40.632812 7.347656 40.863281 7.488281 C 41.0625 7.632812 41.265625 7.777344 41.4375 7.917969 C 41.234375 7.691406 41.09375 7.433594 41.007812 7.175781 C 40.921875 6.832031 41.0625 6.488281 41.351562 6.285156 C 41.582031 6.144531 41.839844 6.171875 42.070312 6.257812 C 42.070312 6.085938 42.097656 5.914062 42.210938 5.742188 C 42.441406 5.425781 42.902344 5.226562 43.273438 5.453125 C 43.332031 5.484375 43.390625 5.542969 43.449219 5.597656 C 43.332031 5.195312 43.449219 4.765625 43.878906 4.59375 C 44.136719 4.480469 44.511719 4.539062 44.710938 4.738281 C 44.566406 3.964844 45.714844 3.390625 46.175781 4.195312 C 46.289062 4.367188 46.375 4.566406 46.460938 4.765625 L 46.492188 4.851562 L 46.460938 4.796875 L 46.433594 4.738281 C 46.320312 4.453125 46.148438 4.136719 46.117188 3.851562 C 46.058594 3.390625 46.261719 2.960938 46.777344 2.875 C 47.035156 2.847656 47.324219 2.960938 47.496094 3.164062 C 47.410156 2.445312 48.214844 1.929688 48.789062 2.445312 C 49.074219 2.703125 49.21875 3.078125 49.390625 3.390625 C 49.476562 3.5625 49.59375 3.765625 49.679688 3.9375 C 49.707031 3.90625 49.734375 3.878906 49.765625 3.851562 C 49.621094 3.421875 49.507812 2.960938 49.421875 2.503906 C 49.335938 2.074219 49.535156 1.644531 49.996094 1.53125 C 50.398438 1.414062 50.886719 1.671875 51 2.101562 C 51.058594 2.390625 51.144531 2.703125 51.230469 2.992188 C 51.285156 2.992188 51.34375 2.960938 51.402344 2.960938 C 51.402344 2.90625 51.402344 2.847656 51.429688 2.789062 L 51.460938 2.589844 C 51.515625 2.132812 51.546875 1.617188 51.804688 1.242188 C 52.207031 0.585938 53.238281 0.871094 53.238281 1.644531 C 53.238281 2.046875 53.097656 2.445312 53.039062 2.820312 C 53.011719 2.992188 53.011719 3.164062 52.980469 3.335938 C 53.097656 2.761719 53.238281 2.1875 53.410156 1.617188 C 53.441406 1.617188 53.441406 1.558594 53.46875 1.5 Z M 44.597656 23.765625 C 45.484375 23.621094 46.320312 24.136719 46.863281 24.824219 C 46.949219 24.9375 46.894531 25.140625 46.808594 25.253906 C 46.75 25.339844 46.664062 25.339844 46.546875 25.371094 C 46.433594 25.371094 46.289062 25.285156 46.261719 25.195312 C 45.917969 24.507812 45.3125 24.078125 44.597656 23.820312 C 44.566406 23.765625 44.566406 23.765625 44.597656 23.765625 Z M 45.832031 11.472656 L 45.859375 11.445312 C 46.03125 11.242188 45.746094 10.957031 45.574219 11.15625 C 45.371094 11.359375 45.257812 11.585938 45.140625 11.84375 C 45.027344 12.074219 45.371094 12.273438 45.484375 12.046875 L 45.542969 11.929688 C 45.628906 11.789062 45.714844 11.617188 45.832031 11.472656 Z M 43.304688 11.101562 C 43.5625 11.042969 43.449219 10.671875 43.1875 10.699219 C 42.84375 10.757812 42.527344 10.8125 42.183594 10.871094 C 41.925781 10.929688 42.039062 11.300781 42.296875 11.273438 C 42.644531 11.214844 42.960938 11.15625 43.304688 11.101562 Z M 58.753906 8.40625 C 58.496094 8.320312 58.410156 8.722656 58.636719 8.808594 C 58.984375 8.921875 59.328125 9.035156 59.644531 9.207031 C 59.871094 9.324219 60.074219 8.980469 59.84375 8.863281 C 59.5 8.664062 59.125 8.550781 58.753906 8.40625 Z M 43.246094 7.890625 C 42.988281 7.804688 42.902344 8.175781 43.132812 8.292969 L 44.023438 8.636719 C 44.28125 8.722656 44.367188 8.347656 44.136719 8.234375 Z M 61.824219 6.945312 L 61.796875 6.917969 C 61.566406 6.773438 61.367188 7.117188 61.597656 7.261719 C 61.738281 7.347656 61.882812 7.402344 61.996094 7.488281 L 62.027344 7.519531 C 62.226562 7.691406 62.515625 7.402344 62.3125 7.230469 C 62.171875 7.117188 61.996094 7.03125 61.824219 6.945312 Z M 61.824219 6.945312 " fill-opacity="1" fill-rule="evenodd"/></g><path fill="#000000" d="M 58.941406 29.835938 C 58.484375 29.664062 58.082031 29.347656 57.765625 28.945312 C 57.652344 28.804688 57.621094 28.660156 57.652344 28.515625 C 57.679688 28.375 57.765625 28.230469 57.878906 28.144531 C 57.996094 28.058594 58.167969 28 58.3125 28.03125 C 58.425781 28.058594 58.570312 28.117188 58.65625 28.257812 L 58.683594 28.289062 C 58.855469 28.515625 59.085938 28.71875 59.34375 28.859375 C 59.601562 28.976562 59.890625 29.03125 60.175781 29.003906 C 60.753906 28.945312 61.125 28.632812 61.527344 28.230469 C 61.585938 28.171875 61.640625 28.117188 61.671875 28.058594 C 61.699219 28 61.757812 27.972656 61.785156 27.972656 C 61.84375 27.945312 61.902344 27.945312 61.957031 27.972656 C 62.015625 28 62.074219 28.03125 62.101562 28.085938 C 62.128906 28.144531 62.160156 28.203125 62.160156 28.257812 C 62.128906 28.6875 61.902344 29.0625 61.585938 29.347656 C 61.238281 29.691406 60.753906 29.921875 60.320312 29.976562 C 59.890625 30.09375 59.402344 30.007812 58.941406 29.835938 Z M 60.609375 23.273438 C 61.125 23.589844 61.902344 24.304688 61.355469 25.078125 C 60.695312 25.765625 59.777344 24.992188 59.289062 24.621094 C 58.855469 24.332031 58.367188 25.050781 58.769531 25.363281 C 62.101562 27.828125 63.480469 23.332031 60.839844 22.902344 C 60.578125 22.871094 60.464844 23.1875 60.609375 23.273438 Z M 54.605469 20.40625 C 54.664062 19.691406 55.726562 19.546875 55.839844 20.234375 C 55.925781 20.867188 55.8125 21.4375 55.554688 21.984375 C 55.296875 22.527344 54.605469 22.269531 54.550781 21.78125 C 54.492188 21.152344 54.578125 20.835938 54.605469 20.40625 Z M 62.789062 20.09375 C 62.933594 19.890625 63.164062 19.777344 63.421875 19.835938 C 64.226562 20.0625 63.996094 21.210938 63.710938 21.78125 C 63.566406 22.097656 63.050781 22.15625 62.820312 21.898438 C 62.445312 21.46875 62.273438 20.609375 62.734375 20.179688 C 62.761719 20.148438 62.789062 20.121094 62.789062 20.09375 Z M 55.527344 17.339844 L 55.640625 17.3125 C 56.042969 17.253906 56.53125 17.167969 56.816406 17.484375 C 56.960938 17.65625 57.019531 17.972656 56.816406 18.117188 C 56.472656 18.402344 56.070312 18.289062 55.667969 18.316406 C 55.324219 18.34375 54.980469 18.402344 54.664062 18.488281 C 53.917969 18.6875 53.34375 19.089844 52.710938 19.492188 C 52.625 19.546875 52.539062 19.433594 52.597656 19.375 C 52.96875 18.660156 53.660156 18.085938 54.347656 17.742188 C 54.722656 17.570312 55.125 17.398438 55.527344 17.339844 Z M 62.042969 17.027344 L 62.128906 17.054688 C 63.191406 17.285156 64.570312 17.714844 65.089844 18.773438 C 65.117188 18.917969 65.089844 18.945312 65.058594 18.976562 C 65.058594 19.003906 65.03125 19.003906 64.972656 19.03125 C 64.945312 19.03125 64.945312 19.03125 64.914062 19.03125 C 64.6875 18.976562 64.515625 18.890625 64.3125 18.804688 L 64.167969 18.6875 C 63.941406 18.574219 63.710938 18.488281 63.480469 18.402344 C 62.964844 18.230469 62.445312 18.117188 61.929688 18.058594 C 61.816406 18.058594 61.699219 18 61.613281 17.945312 C 61.527344 17.886719 61.46875 17.800781 61.441406 17.683594 C 61.414062 17.542969 61.414062 17.425781 61.5 17.285156 C 61.554688 17.167969 61.640625 17.113281 61.757812 17.082031 C 61.816406 16.996094 61.929688 16.996094 62.042969 17.027344 Z M 62.042969 17.027344 " fill-opacity="1" fill-rule="evenodd"/><path fill="#000000" d="M 66.351562 22.25 C 66.152344 22.765625 65.863281 23.3125 65.519531 23.769531 C 64.054688 25.003906 62.648438 24.3125 61.929688 22.652344 C 61.640625 21.476562 62.359375 20.21875 63.136719 19.355469 C 64.253906 18.238281 66.035156 18.839844 66.554688 20.132812 C 66.582031 20.304688 66.609375 20.476562 66.609375 20.648438 C 66.609375 21.191406 66.523438 21.679688 66.351562 22.195312 M 52.394531 21.21875 C 54.320312 18.957031 57.878906 18.839844 57.792969 22.308594 C 57.363281 26.722656 50.441406 25.632812 52.394531 21.21875 Z M 66.953125 19.328125 C 66.898438 19.214844 66.8125 19.097656 66.726562 19.011719 C 66.695312 18.984375 66.667969 18.839844 66.582031 18.8125 C 65.089844 17.179688 62.503906 18.097656 61.554688 19.730469 C 61.382812 19.929688 61.242188 20.160156 61.15625 20.417969 C 60.234375 20.246094 59.144531 20.273438 58.3125 20.617188 C 57.449219 18.410156 54.894531 18.210938 53.199219 19.15625 C 52.136719 19.671875 51.449219 20.761719 50.441406 21.363281 C 48.03125 21.535156 45.445312 20.992188 43.0625 21.59375 C 41.195312 21.992188 42.746094 22.910156 43.0625 22.28125 C 45.304688 21.621094 47.945312 22.164062 50.269531 22.023438 C 50.5 22.421875 50.988281 22.765625 51.449219 22.738281 C 51.9375 27.121094 58.367188 26.40625 58.597656 22.507812 C 58.855469 22.109375 59.171875 21.734375 59.605469 21.476562 C 59.777344 21.449219 59.949219 21.390625 60.09375 21.335938 C 60.351562 21.304688 60.753906 21.421875 60.980469 21.621094 C 61.785156 26.492188 66.496094 25.917969 67.328125 21.648438 C 67.355469 21.621094 67.386719 21.5625 67.414062 21.476562 C 67.703125 21.105469 68.417969 20.960938 68.304688 20.332031 C 68.191406 19.703125 67.386719 19.703125 66.953125 19.328125 Z M 66.953125 19.328125 " fill-opacity="1" fill-rule="evenodd"/></svg>