<svg xmlns="http://www.w3.org/2000/svg" xmlns:xlink="http://www.w3.org/1999/xlink" width="500" zoomAndPan="magnify" viewBox="0 0 375 374.999991" height="500" preserveAspectRatio="xMidYMid meet" version="1.0"><defs><clipPath id="2c0b3bf794"><path d="M 56.738281 33 L 300 33 L 300 341.878906 L 56.738281 341.878906 Z M 56.738281 33 " clip-rule="nonzero"/></clipPath></defs><g clip-path="url(#2c0b3bf794)"><path fill="#ff914d" d="M 80.535156 316.890625 C 82.410156 316.890625 85.890625 318.980469 88.730469 321.816406 C 91.675781 324.816406 93.601562 328.082031 93.601562 330.222656 C 93.601562 332.207031 91.835938 335.578125 89.53125 337.933594 C 87.070312 340.453125 83.964844 342.113281 81.820312 342.113281 C 79.574219 342.113281 76.46875 340.398438 73.738281 337.558594 C 69.882812 333.597656 69.398438 332.367188 70.253906 328.136719 C 70.792969 325.40625 72.558594 321.765625 74.21875 320.050781 C 75.878906 318.335938 78.714844 316.890625 80.535156 316.890625 Z M 78.714844 331.296875 C 79.199219 332.632812 80.535156 333.707031 81.714844 333.707031 C 82.839844 333.707031 84.125 333.117188 84.5 332.3125 C 84.875 331.5625 84.875 329.636719 84.5 328.136719 C 84.125 326.582031 82.839844 325.296875 81.660156 325.296875 C 80.484375 325.296875 79.144531 326.101562 78.714844 327.066406 C 78.234375 328.027344 78.289062 329.902344 78.714844 331.296875 Z M 271.324219 34.054688 C 272.769531 35.394531 272.394531 37.429688 269.289062 44.550781 C 266.613281 50.546875 264.632812 53.332031 262.917969 53.277344 C 261.578125 53.277344 260.132812 52.476562 259.707031 51.511719 C 259.222656 50.546875 260.347656 46.371094 262.113281 42.195312 C 263.9375 38.070312 266.34375 34.164062 267.46875 33.519531 C 268.703125 32.878906 270.253906 33.09375 271.324219 34.054688 Z M 234.429688 50.496094 C 235.289062 50.546875 239.410156 52.261719 243.640625 54.351562 C 247.925781 56.4375 251.566406 59.117188 251.832031 60.292969 C 252.046875 61.417969 251.296875 62.863281 250.066406 63.453125 C 248.726562 64.09375 244.550781 62.972656 239.410156 60.613281 C 234.59375 58.417969 230.898438 55.796875 230.789062 54.5625 C 230.683594 53.332031 231.109375 51.886719 231.753906 51.40625 C 232.394531 50.871094 233.574219 50.496094 234.429688 50.496094 Z M 288.515625 54.726562 C 293.921875 54.617188 296.867188 55.207031 298.367188 56.757812 C 300.078125 58.582031 300.132812 59.277344 298.632812 60.667969 C 297.617188 61.632812 294.777344 62.167969 292.316406 61.898438 C 289.851562 61.6875 285.140625 62.113281 281.875 62.972656 C 277.859375 63.988281 275.234375 64.042969 273.789062 63.078125 C 272.503906 62.222656 272.128906 60.828125 272.769531 59.492188 C 273.359375 58.3125 275.394531 56.8125 277.324219 56.117188 C 279.25 55.421875 284.285156 54.832031 288.515625 54.726562 Z M 253.441406 71.429688 C 253.867188 71.378906 254.992188 72.34375 255.957031 73.519531 C 257.402344 75.339844 256.601562 77 251.191406 83.746094 C 247.605469 88.191406 243.800781 92.316406 242.785156 92.902344 C 241.714844 93.4375 240.214844 93.601562 239.464844 93.226562 C 238.660156 92.851562 238.074219 91.40625 238.074219 90.066406 C 238.125 88.726562 240.429688 84.765625 243.214844 81.285156 C 246.050781 77.855469 249.316406 74.214844 250.496094 73.253906 C 251.726562 72.289062 253.011719 71.484375 253.441406 71.429688 Z M 270.628906 71.484375 C 271.59375 71.429688 274.378906 72.878906 276.785156 74.644531 C 279.25 76.359375 282.570312 79.515625 284.175781 81.660156 C 285.78125 83.800781 286.800781 86.476562 286.425781 87.601562 C 286.050781 88.78125 284.925781 89.746094 283.960938 89.746094 C 283 89.746094 278.769531 86.640625 274.539062 82.785156 C 269.023438 77.855469 267.09375 75.179688 267.789062 73.628906 C 268.378906 72.449219 269.613281 71.484375 270.628906 71.484375 Z M 194.59375 84.230469 C 198.074219 84.121094 204.070312 84.980469 207.925781 86.101562 C 212.261719 87.335938 217.5625 90.441406 221.902344 94.296875 C 226.238281 98.097656 230.308594 103.398438 232.449219 108.058594 C 235.503906 114.699219 235.929688 117.589844 235.929688 131.082031 C 235.929688 144.953125 235.609375 147.148438 232.449219 152.769531 C 229.71875 157.589844 227.042969 160 220.617188 163.316406 C 214.03125 166.636719 210.066406 167.65625 201.714844 168.085938 C 193.46875 168.457031 189.664062 167.976562 184.738281 165.886719 C 181.3125 164.441406 175.421875 160.375 171.726562 156.945312 C 167.070312 152.664062 164.070312 148.324219 162.089844 143.023438 C 160.160156 137.828125 159.199219 131.832031 159.199219 124.765625 C 159.144531 116.304688 159.894531 112.609375 162.945312 105.863281 C 164.980469 101.203125 168.085938 95.957031 169.800781 94.136719 C 171.460938 92.316406 174.617188 89.851562 176.761719 88.671875 C 178.957031 87.496094 182.4375 85.996094 184.472656 85.40625 C 186.558594 84.816406 191.113281 84.28125 194.59375 84.230469 Z M 176.546875 98.578125 C 174.78125 100.238281 171.941406 104.148438 170.28125 107.253906 C 167.871094 111.699219 167.28125 115.285156 167.230469 124.765625 C 167.230469 134.722656 167.820312 137.828125 170.765625 143.613281 C 172.851562 147.734375 176.492188 152.019531 179.867188 154.324219 C 182.917969 156.464844 188.488281 159.035156 192.183594 160.050781 C 198.125 161.710938 200.054688 161.660156 208.300781 159.410156 C 213.496094 157.964844 219.4375 155.609375 221.578125 154.109375 C 224.257812 152.234375 226.132812 148.96875 227.738281 143.34375 C 229.238281 137.9375 229.71875 132.796875 229.183594 127.601562 C 228.703125 123.320312 227.203125 116.730469 225.808594 112.878906 C 224.472656 109.074219 221.417969 104.09375 219.117188 101.792969 C 216.8125 99.542969 212.371094 96.546875 209.316406 95.152344 C 205.835938 93.546875 200.535156 92.636719 195.289062 92.636719 C 190.628906 92.691406 185.273438 93.332031 183.347656 94.082031 C 181.417969 94.886719 178.367188 96.867188 176.546875 98.578125 Z M 117.214844 102.597656 C 118.5 102.863281 119.734375 103.988281 119.949219 105.167969 C 120.214844 106.289062 117.964844 110.894531 115.074219 115.339844 C 111.914062 120.105469 108.757812 123.425781 107.308594 123.371094 C 105.757812 123.371094 104.847656 122.300781 104.847656 120.585938 C 104.847656 119.035156 105.542969 116.359375 106.398438 114.589844 C 107.257812 112.878906 109.558594 109.394531 111.488281 106.824219 C 113.414062 104.257812 115.984375 102.382812 117.214844 102.597656 Z M 77.804688 112.128906 C 79.199219 112.128906 81.875 113.199219 83.804688 114.484375 C 85.730469 115.769531 89.371094 118.765625 91.890625 121.125 C 94.40625 123.53125 96.441406 126.265625 96.441406 127.226562 C 96.441406 128.191406 95.476562 129.316406 94.296875 129.691406 C 93.175781 130.066406 89.320312 128.351562 85.839844 125.835938 C 82.304688 123.320312 78.128906 120.320312 76.519531 119.195312 C 74.59375 117.804688 73.84375 116.195312 74.433594 114.589844 C 74.914062 113.25 76.414062 112.179688 77.804688 112.128906 Z M 120.589844 131.832031 C 122.355469 131.832031 126.265625 133.011719 129.371094 134.402344 C 132.476562 135.796875 135.796875 137.992188 136.761719 139.277344 C 137.726562 140.5625 138.152344 142.222656 137.777344 143.023438 C 137.402344 143.773438 135.957031 144.417969 134.621094 144.363281 C 133.28125 144.363281 128.890625 142.808594 124.820312 140.882812 C 119.574219 138.367188 117.429688 136.597656 117.429688 134.617188 C 117.429688 132.636719 118.394531 131.777344 120.589844 131.832031 Z M 89.800781 140.5625 C 90.765625 140.882812 91.675781 142.328125 91.941406 143.828125 C 92.15625 145.378906 90.390625 148.484375 87.710938 151.164062 C 84.980469 153.894531 81.984375 155.609375 80.429688 155.394531 C 78.929688 155.125 77.484375 154.160156 77.269531 153.199219 C 77.003906 152.234375 79.359375 148.859375 82.464844 145.703125 C 85.570312 142.542969 88.890625 140.238281 89.800781 140.5625 Z M 109.828125 145.808594 C 110.953125 145.808594 112.773438 147.253906 113.949219 148.96875 C 115.128906 150.679688 116.09375 154.160156 116.039062 156.679688 C 116.039062 159.195312 115.394531 161.550781 114.644531 161.925781 C 113.898438 162.300781 112.449219 162.085938 111.488281 161.390625 C 110.523438 160.695312 108.96875 157.535156 108.007812 154.375 C 107.042969 151.214844 106.5625 148.003906 106.988281 147.199219 C 107.417969 146.449219 108.703125 145.808594 109.828125 145.808594 Z M 137.457031 169.691406 C 141.097656 169.691406 146.132812 170.601562 148.648438 171.726562 C 151.164062 172.851562 155.394531 176.0625 158.125 178.847656 C 162.195312 183.023438 163.105469 185.113281 163.589844 191.109375 C 164.070312 197.589844 163.640625 198.925781 159.894531 203.316406 C 157.589844 205.996094 152.289062 210.066406 148.113281 212.3125 C 143.132812 214.992188 138.476562 216.382812 134.296875 216.4375 C 130.175781 216.492188 126.105469 215.417969 122.730469 213.4375 C 119.839844 211.726562 116.519531 208.40625 115.34375 206.101562 C 114.21875 203.800781 113.253906 199.085938 113.253906 195.605469 C 113.253906 192.125 114.433594 186.933594 115.929688 184.039062 C 117.378906 181.148438 120.054688 177.453125 121.875 175.792969 C 123.695312 174.1875 126.425781 172.152344 127.980469 171.296875 C 129.53125 170.441406 133.761719 169.742188 137.457031 169.691406 Z M 126.105469 182.433594 C 124.550781 184.253906 122.570312 187.523438 121.769531 189.664062 C 120.910156 191.75 120.269531 195.070312 120.269531 197 C 120.269531 199.035156 122.035156 202.300781 124.445312 204.710938 C 127.265625 207.53125 130.066406 208.941406 132.851562 208.941406 C 135.207031 208.941406 139.117188 208.082031 141.632812 207.066406 C 144.152344 206.050781 148.542969 203.210938 151.433594 200.746094 C 154.644531 198.015625 156.734375 195.070312 156.734375 193.144531 C 156.734375 191.429688 155.554688 188.109375 154.164062 185.753906 C 152.773438 183.453125 149.292969 180.453125 146.453125 179.113281 C 143.617188 177.777344 139.867188 176.707031 138.152344 176.757812 C 136.386719 176.8125 133.601562 177.347656 131.996094 177.9375 C 130.335938 178.578125 127.660156 180.558594 126.105469 182.433594 Z M 209.90625 192.074219 C 212.261719 192.074219 215.957031 192.984375 218.046875 194 C 220.1875 195.070312 222.703125 197.589844 223.667969 199.625 C 224.632812 201.65625 225.433594 204.550781 225.433594 206.101562 C 225.433594 207.65625 224.578125 210.652344 223.507812 212.796875 C 222.488281 214.882812 219.757812 217.453125 217.5625 218.472656 C 215.316406 219.542969 211.621094 220.023438 209.316406 219.542969 C 207.015625 219.113281 203.640625 217.347656 201.929688 215.582031 C 200.160156 213.867188 198.339844 209.902344 197.804688 206.796875 C 197 201.820312 197.375 200.695312 201.230469 196.625 C 204.285156 193.410156 206.855469 192.074219 209.90625 192.074219 Z M 205.515625 205.300781 C 205.621094 206.90625 206.480469 209.046875 207.496094 210.011719 C 208.515625 211.027344 210.871094 211.617188 212.796875 211.402344 C 215.796875 211.082031 216.332031 210.332031 216.332031 206.101562 C 216.332031 201.65625 215.902344 201.175781 212.046875 200.800781 C 209.691406 200.535156 207.230469 200.800781 206.585938 201.390625 C 205.890625 201.925781 205.410156 203.691406 205.515625 205.300781 Z M 86.320312 212.046875 C 88.195312 212.421875 88.621094 213.867188 88.355469 218.792969 C 88.195312 222.21875 87.125 225.96875 86 227.144531 C 84.765625 228.429688 83.054688 228.804688 81.769531 228.21875 C 80.324219 227.519531 79.789062 225.859375 80.214844 223.292969 C 80.535156 221.148438 81.5 217.667969 82.410156 215.472656 C 83.429688 212.902344 84.820312 211.671875 86.320312 212.046875 Z M 61.957031 218.6875 C 62.757812 218.6875 65.382812 220.558594 67.6875 222.863281 C 70.523438 225.699219 71.539062 227.789062 70.84375 229.234375 C 70.253906 230.414062 68.972656 231.375 68.007812 231.429688 C 67.042969 231.429688 64.527344 230.144531 62.4375 228.59375 C 60.296875 227.039062 58.476562 224.578125 58.316406 223.183594 C 58.207031 221.738281 58.636719 220.183594 59.277344 219.648438 C 59.921875 219.167969 61.097656 218.738281 61.957031 218.6875 Z M 176.707031 225.753906 C 178.796875 225.753906 182.597656 226.558594 185.113281 227.574219 C 187.632812 228.59375 191.378906 231.589844 193.46875 234.269531 C 196.253906 237.75 197.324219 240.695312 197.324219 245.03125 C 197.375 249.796875 196.464844 251.992188 192.824219 256.117188 C 190.308594 258.953125 185.757812 262.378906 182.652344 263.828125 C 179.597656 265.21875 174.671875 266.34375 171.78125 266.394531 C 168.890625 266.394531 164.660156 265.484375 162.304688 264.308594 C 160 263.128906 156.839844 260.132812 155.34375 257.667969 C 153.683594 254.992188 152.503906 250.601562 152.503906 247.121094 C 152.503906 242.40625 153.46875 240.105469 157.054688 236.035156 C 159.574219 233.195312 164.175781 229.769531 167.230469 228.378906 C 170.335938 226.933594 174.566406 225.808594 176.707031 225.753906 Z M 161.179688 243.476562 C 159.574219 246.90625 159.625 248.136719 161.5 252.046875 C 162.730469 254.5625 165.460938 257.292969 167.605469 258.097656 C 170.226562 259.167969 172.960938 259.167969 176.332031 258.203125 C 179.0625 257.453125 183.292969 254.882812 185.808594 252.472656 C 188.328125 250.117188 190.363281 246.90625 190.363281 245.351562 C 190.363281 243.851562 188.808594 240.695312 186.882812 238.390625 C 183.988281 234.910156 182.328125 234.160156 177.402344 234.160156 C 174.03125 234.214844 169.640625 235.339844 167.230469 236.839844 C 164.925781 238.285156 162.195312 241.28125 161.179688 243.476562 Z M 102.542969 231.644531 C 108.648438 232.019531 109.71875 232.5 109.71875 234.855469 C 109.71875 237.105469 108.328125 237.910156 102.382812 239.085938 C 96.386719 240.210938 94.621094 240.105469 92.800781 238.390625 C 90.816406 236.464844 90.816406 236.035156 92.960938 233.734375 C 94.78125 231.804688 97.082031 231.324219 102.542969 231.644531 Z M 222.0625 236.945312 C 222.382812 236.945312 223.667969 237.425781 224.953125 238.015625 C 226.238281 238.605469 228.753906 241.28125 230.46875 243.960938 C 232.234375 246.691406 233.359375 249.691406 233.039062 250.652344 C 232.71875 251.617188 231.324219 252.421875 229.988281 252.421875 C 228.648438 252.472656 225.488281 249.902344 222.972656 246.796875 C 219.382812 242.355469 218.742188 240.746094 219.972656 239.085938 C 220.832031 237.910156 221.792969 236.945312 222.0625 236.945312 Z M 69.398438 241.175781 C 71.648438 241.175781 72.558594 241.980469 72.558594 243.960938 C 72.558594 245.886719 70.683594 247.707031 66.613281 249.691406 C 63.347656 251.296875 59.867188 252.261719 58.902344 251.777344 C 57.941406 251.351562 57.082031 250.011719 56.976562 248.886719 C 56.867188 247.707031 58.902344 245.511719 61.527344 243.960938 C 64.152344 242.40625 67.6875 241.175781 69.398438 241.175781 Z M 256.277344 241.550781 C 257.457031 241.710938 258.527344 243.316406 258.742188 245.03125 C 259.007812 247.28125 258.046875 248.617188 255.582031 249.582031 C 253.65625 250.332031 250.335938 252.3125 248.191406 253.972656 C 245.945312 255.742188 243.375 256.597656 241.929688 256.0625 C 240.535156 255.578125 239.464844 254.402344 239.410156 253.4375 C 239.410156 252.472656 240.804688 250.332031 242.570312 248.617188 C 244.335938 246.957031 247.65625 244.550781 249.960938 243.371094 C 252.261719 242.140625 255.101562 241.335938 256.277344 241.550781 Z M 83.589844 245.671875 C 84.820312 245.886719 86.640625 247.65625 87.605469 249.582031 C 88.621094 251.511719 89.265625 255.3125 89.050781 257.988281 C 88.78125 261.683594 87.980469 263.023438 85.890625 263.34375 C 83.535156 263.664062 82.839844 262.542969 81.339844 255.953125 C 80.375 251.671875 80 247.496094 80.484375 246.691406 C 80.910156 245.886719 82.359375 245.40625 83.589844 245.671875 Z M 116.039062 247.496094 C 118.769531 247.976562 122.410156 249.796875 124.125 251.457031 C 125.890625 253.117188 127.660156 256.382812 128.085938 258.6875 C 128.515625 260.988281 128.03125 264.738281 127.015625 266.933594 C 126 269.179688 123.429688 271.859375 121.285156 272.929688 C 119.199219 273.945312 115.558594 274.804688 113.253906 274.804688 C 110.433594 274.804688 107.632812 273.410156 104.847656 270.625 C 101.207031 266.984375 100.671875 265.539062 100.992188 259.808594 C 101.257812 253.972656 101.902344 252.796875 106.238281 249.902344 C 110.042969 247.332031 112.238281 246.796875 116.039062 247.496094 Z M 108.328125 262.21875 C 108.703125 263.773438 110.148438 265.59375 111.488281 266.234375 C 112.933594 266.984375 115.289062 266.984375 117.109375 266.234375 C 119.039062 265.484375 120.269531 263.828125 120.269531 261.84375 C 120.269531 260.132812 119.519531 257.882812 118.554688 256.917969 C 117.539062 255.953125 115.394531 255.152344 113.734375 255.152344 C 112.128906 255.207031 110.042969 256.117188 109.183594 257.292969 C 108.328125 258.472656 107.953125 260.667969 108.328125 262.21875 Z M 218.421875 259.542969 C 220.347656 259.488281 222.757812 259.917969 223.773438 260.453125 C 224.792969 261.042969 225.433594 262.753906 225.167969 264.308594 C 224.792969 266.71875 223.453125 267.144531 215.957031 267.46875 C 207.65625 267.789062 207.230469 267.628906 207.550781 264.738281 C 207.765625 262.753906 209.210938 261.257812 211.40625 260.667969 C 213.332031 260.132812 216.492188 259.648438 218.421875 259.542969 Z M 248.726562 265.003906 C 249.050781 265.003906 251.296875 266.023438 253.816406 267.253906 C 256.332031 268.539062 259.8125 270.894531 261.578125 272.554688 C 263.347656 274.160156 264.738281 276.625 264.738281 277.960938 C 264.738281 279.355469 263.773438 280.746094 262.597656 281.121094 C 261.417969 281.550781 258.3125 280.105469 255.6875 277.960938 C 253.011719 275.875 249.425781 273.089844 247.605469 271.859375 C 244.820312 269.878906 244.605469 269.289062 246.265625 267.308594 C 247.335938 266.023438 248.40625 265.003906 248.726562 265.003906 Z M 234.59375 272.019531 C 235.714844 272.019531 236.839844 272.984375 237.109375 274.105469 C 237.375 275.230469 237.054688 279.195312 236.414062 282.890625 C 235.824219 286.53125 234.484375 290.277344 233.519531 291.242188 C 232.394531 292.257812 230.949219 292.421875 229.613281 291.671875 C 228.003906 290.707031 227.738281 289.046875 228.59375 284.011719 C 229.183594 280.53125 230.308594 276.355469 231.058594 274.804688 C 231.859375 273.304688 233.46875 272.019531 234.59375 272.019531 Z M 138.851562 276.355469 C 140.1875 276.300781 143.507812 278.445312 146.1875 281.121094 C 149.933594 284.871094 151.113281 287.226562 151.113281 290.972656 C 151.113281 293.652344 150.148438 297.773438 149.023438 300.078125 C 147.84375 302.378906 145.648438 304.898438 144.097656 305.699219 C 142.542969 306.449219 139.222656 307.09375 136.761719 307.09375 C 134.246094 307.09375 130.121094 305.808594 127.605469 304.253906 C 125.089844 302.753906 122.355469 299.757812 121.554688 297.613281 C 120.484375 294.9375 120.484375 292.257812 121.445312 288.832031 C 122.25 286.15625 124.015625 282.835938 125.410156 281.496094 C 126.855469 280.15625 129.855469 278.5 132.15625 277.75 C 134.511719 277.050781 137.511719 276.410156 138.851562 276.355469 Z M 128.996094 292.6875 C 129.265625 295.367188 130.601562 297.078125 133.226562 298.308594 C 135.636719 299.382812 137.992188 299.59375 139.546875 298.847656 C 140.882812 298.203125 142.4375 295.902344 143.027344 293.757812 C 143.722656 291.027344 143.347656 289.152344 141.582031 287.226562 C 140.296875 285.78125 138.261719 284.550781 137.082031 284.601562 C 135.90625 284.601562 133.546875 285.566406 131.835938 286.746094 C 129.640625 288.191406 128.78125 290.011719 128.996094 292.6875 Z M 120.054688 315.980469 C 122.089844 316.785156 124.875 318.445312 126.265625 319.621094 C 127.710938 320.90625 128.730469 323.691406 128.730469 326.371094 C 128.675781 328.992188 127.496094 332.097656 125.890625 333.707031 C 124.285156 335.257812 121.179688 336.542969 118.875 336.542969 C 116.519531 336.542969 113.523438 336.007812 112.183594 335.3125 C 110.84375 334.667969 108.863281 331.9375 107.792969 329.367188 C 106.1875 325.351562 106.1875 324.011719 107.792969 320.691406 C 108.863281 318.550781 111.21875 316.25 113.039062 315.660156 C 114.914062 315.015625 117.964844 315.125 120.054688 315.980469 Z M 116.789062 329.152344 C 117.964844 329.742188 119.574219 329.582031 120.324219 328.832031 C 121.125 328.027344 121.394531 326.316406 120.964844 324.976562 C 120.589844 323.585938 118.984375 322.515625 117.429688 322.515625 C 115.574219 322.515625 114.644531 323.441406 114.644531 325.296875 C 114.644531 326.851562 115.609375 328.566406 116.789062 329.152344 Z M 116.789062 329.152344 " fill-opacity="1" fill-rule="evenodd"/></g></svg>