<svg xmlns="http://www.w3.org/2000/svg" xmlns:xlink="http://www.w3.org/1999/xlink" width="290" zoomAndPan="magnify" viewBox="0 0 217.5 101.249998" height="135" preserveAspectRatio="xMidYMid meet" version="1.0"><defs><clipPath id="0b8f428d7c"><path d="M 150.367188 0 L 204.910156 0 L 204.910156 61.359375 L 150.367188 61.359375 Z M 150.367188 0 " clip-rule="nonzero"/></clipPath><clipPath id="981f24db30"><path d="M 166 0 L 189.273438 0 C 193.421875 0 197.398438 1.648438 200.328125 4.578125 C 203.261719 7.511719 204.910156 11.488281 204.910156 15.632812 L 204.910156 45.695312 C 204.910156 49.839844 203.261719 53.816406 200.328125 56.75 C 197.398438 59.683594 193.421875 61.328125 189.273438 61.328125 L 166 61.328125 C 161.855469 61.328125 157.878906 59.683594 154.945312 56.75 C 152.015625 53.816406 150.367188 49.839844 150.367188 45.695312 L 150.367188 15.632812 C 150.367188 11.488281 152.015625 7.511719 154.945312 4.578125 C 157.878906 1.648438 161.855469 0 166 0 Z M 166 0 " clip-rule="nonzero"/></clipPath><clipPath id="0c9411cba6"><path d="M 150.367188 0.00390625 L 204.714844 0.00390625 L 204.714844 61.046875 L 150.367188 61.046875 Z M 150.367188 0.00390625 " clip-rule="nonzero"/></clipPath><clipPath id="8cdab263dd"><path d="M 166 0.00390625 L 189.269531 0.00390625 C 193.414062 0.00390625 197.390625 1.648438 200.324219 4.582031 C 203.253906 7.511719 204.902344 11.488281 204.902344 15.636719 L 204.902344 45.691406 C 204.902344 49.835938 203.253906 53.8125 200.324219 56.746094 C 197.390625 59.675781 193.414062 61.324219 189.269531 61.324219 L 166 61.324219 C 161.855469 61.324219 157.878906 59.675781 154.945312 56.746094 C 152.015625 53.8125 150.367188 49.835938 150.367188 45.691406 L 150.367188 15.636719 C 150.367188 11.488281 152.015625 7.511719 154.945312 4.582031 C 157.878906 1.648438 161.855469 0.00390625 166 0.00390625 Z M 166 0.00390625 " clip-rule="nonzero"/></clipPath><clipPath id="e93b78c12b"><path d="M 0.550781 16.964844 L 216.328125 16.964844 L 216.328125 99.78125 L 0.550781 99.78125 Z M 0.550781 16.964844 " clip-rule="nonzero"/></clipPath><clipPath id="6ed6282a96"><path d="M 16.1875 16.964844 L 200.554688 16.964844 C 204.699219 16.964844 208.675781 18.609375 211.609375 21.542969 C 214.539062 24.472656 216.1875 28.449219 216.1875 32.597656 L 216.1875 84.144531 C 216.1875 88.292969 214.539062 92.269531 211.609375 95.199219 C 208.675781 98.132812 204.699219 99.78125 200.554688 99.78125 L 16.1875 99.78125 C 12.039062 99.78125 8.0625 98.132812 5.128906 95.199219 C 2.199219 92.269531 0.550781 88.292969 0.550781 84.144531 L 0.550781 32.597656 C 0.550781 28.449219 2.199219 24.472656 5.128906 21.542969 C 8.0625 18.609375 12.039062 16.964844 16.1875 16.964844 Z M 16.1875 16.964844 " clip-rule="nonzero"/></clipPath><clipPath id="8d01555168"><path d="M 0.554688 16.964844 L 216.453125 16.964844 L 216.453125 99.601562 L 0.554688 99.601562 Z M 0.554688 16.964844 " clip-rule="nonzero"/></clipPath><clipPath id="3e198fc945"><path d="M 16.1875 16.964844 L 200.546875 16.964844 C 204.691406 16.964844 208.667969 18.609375 211.601562 21.542969 C 214.535156 24.472656 216.179688 28.449219 216.179688 32.597656 L 216.179688 84.140625 C 216.179688 88.289062 214.535156 92.265625 211.601562 95.195312 C 208.667969 98.128906 204.691406 99.773438 200.546875 99.773438 L 16.1875 99.773438 C 12.042969 99.773438 8.066406 98.128906 5.132812 95.195312 C 2.203125 92.265625 0.554688 88.289062 0.554688 84.140625 L 0.554688 32.597656 C 0.554688 28.449219 2.203125 24.472656 5.132812 21.542969 C 8.066406 18.609375 12.042969 16.964844 16.1875 16.964844 Z M 16.1875 16.964844 " clip-rule="nonzero"/></clipPath><clipPath id="a93fc0944c"><path d="M 145 30 L 198 30 L 198 82 L 145 82 Z M 145 30 " clip-rule="nonzero"/></clipPath><clipPath id="671586234f"><path d="M 133.71875 31.8125 L 133.71875 90.847656 C 133.71875 95.78125 137.71875 99.78125 142.652344 99.78125 L 198.996094 99.78125 C 203.929688 99.78125 207.929688 95.78125 207.929688 90.847656 L 207.929688 31.8125 C 207.929688 26.878906 203.929688 22.878906 198.996094 22.878906 L 142.652344 22.878906 C 137.71875 22.878906 133.71875 26.878906 133.71875 31.8125 Z M 133.71875 31.8125 " clip-rule="nonzero"/></clipPath><clipPath id="3106638ca0"><path d="M 134 89 L 145 89 L 145 99.558594 L 134 99.558594 Z M 134 89 " clip-rule="nonzero"/></clipPath><clipPath id="59a2b3b054"><path d="M 133.71875 31.8125 L 133.71875 90.847656 C 133.71875 95.78125 137.71875 99.78125 142.652344 99.78125 L 198.996094 99.78125 C 203.929688 99.78125 207.929688 95.78125 207.929688 90.847656 L 207.929688 31.8125 C 207.929688 26.878906 203.929688 22.878906 198.996094 22.878906 L 142.652344 22.878906 C 137.71875 22.878906 133.71875 26.878906 133.71875 31.8125 Z M 133.71875 31.8125 " clip-rule="nonzero"/></clipPath><clipPath id="bead9ff2ff"><path d="M 134 89 L 143 89 L 143 99.558594 L 134 99.558594 Z M 134 89 " clip-rule="nonzero"/></clipPath><clipPath id="8c18bb3bf5"><path d="M 133.71875 31.8125 L 133.71875 90.847656 C 133.71875 95.78125 137.71875 99.78125 142.652344 99.78125 L 198.996094 99.78125 C 203.929688 99.78125 207.929688 95.78125 207.929688 90.847656 L 207.929688 31.8125 C 207.929688 26.878906 203.929688 22.878906 198.996094 22.878906 L 142.652344 22.878906 C 137.71875 22.878906 133.71875 26.878906 133.71875 31.8125 Z M 133.71875 31.8125 " clip-rule="nonzero"/></clipPath><clipPath id="1ef1afe897"><path d="M 133.71875 89 L 143 89 L 143 99.558594 L 133.71875 99.558594 Z M 133.71875 89 " clip-rule="nonzero"/></clipPath><clipPath id="3d95ebd87f"><path d="M 133.71875 31.8125 L 133.71875 90.847656 C 133.71875 95.78125 137.71875 99.78125 142.652344 99.78125 L 198.996094 99.78125 C 203.929688 99.78125 207.929688 95.78125 207.929688 90.847656 L 207.929688 31.8125 C 207.929688 26.878906 203.929688 22.878906 198.996094 22.878906 L 142.652344 22.878906 C 137.71875 22.878906 133.71875 26.878906 133.71875 31.8125 Z M 133.71875 31.8125 " clip-rule="nonzero"/></clipPath><clipPath id="84bcff0048"><path d="M 151 53 L 191 53 L 191 99.558594 L 151 99.558594 Z M 151 53 " clip-rule="nonzero"/></clipPath><clipPath id="134a3806d4"><path d="M 133.71875 31.8125 L 133.71875 90.847656 C 133.71875 95.78125 137.71875 99.78125 142.652344 99.78125 L 198.996094 99.78125 C 203.929688 99.78125 207.929688 95.78125 207.929688 90.847656 L 207.929688 31.8125 C 207.929688 26.878906 203.929688 22.878906 198.996094 22.878906 L 142.652344 22.878906 C 137.71875 22.878906 133.71875 26.878906 133.71875 31.8125 Z M 133.71875 31.8125 " clip-rule="nonzero"/></clipPath><clipPath id="9383ecf54c"><path d="M 151 53 L 192 53 L 192 99.558594 L 151 99.558594 Z M 151 53 " clip-rule="nonzero"/></clipPath><clipPath id="e68b185929"><path d="M 133.71875 31.8125 L 133.71875 90.847656 C 133.71875 95.78125 137.71875 99.78125 142.652344 99.78125 L 198.996094 99.78125 C 203.929688 99.78125 207.929688 95.78125 207.929688 90.847656 L 207.929688 31.8125 C 207.929688 26.878906 203.929688 22.878906 198.996094 22.878906 L 142.652344 22.878906 C 137.71875 22.878906 133.71875 26.878906 133.71875 31.8125 Z M 133.71875 31.8125 " clip-rule="nonzero"/></clipPath><clipPath id="372ca4bd3b"><path d="M 139 84 L 202 84 L 202 99.558594 L 139 99.558594 Z M 139 84 " clip-rule="nonzero"/></clipPath><clipPath id="d3b9294c19"><path d="M 133.71875 31.8125 L 133.71875 90.847656 C 133.71875 95.78125 137.71875 99.78125 142.652344 99.78125 L 198.996094 99.78125 C 203.929688 99.78125 207.929688 95.78125 207.929688 90.847656 L 207.929688 31.8125 C 207.929688 26.878906 203.929688 22.878906 198.996094 22.878906 L 142.652344 22.878906 C 137.71875 22.878906 133.71875 26.878906 133.71875 31.8125 Z M 133.71875 31.8125 " clip-rule="nonzero"/></clipPath><clipPath id="5bcc9d3eb8"><path d="M 154 31 L 192 31 L 192 76 L 154 76 Z M 154 31 " clip-rule="nonzero"/></clipPath><clipPath id="f004552a52"><path d="M 133.71875 31.8125 L 133.71875 90.847656 C 133.71875 95.78125 137.71875 99.78125 142.652344 99.78125 L 198.996094 99.78125 C 203.929688 99.78125 207.929688 95.78125 207.929688 90.847656 L 207.929688 31.8125 C 207.929688 26.878906 203.929688 22.878906 198.996094 22.878906 L 142.652344 22.878906 C 137.71875 22.878906 133.71875 26.878906 133.71875 31.8125 Z M 133.71875 31.8125 " clip-rule="nonzero"/></clipPath><clipPath id="7c27025da5"><path d="M 154 30 L 192 30 L 192 76 L 154 76 Z M 154 30 " clip-rule="nonzero"/></clipPath><clipPath id="d259c36ff4"><path d="M 133.71875 31.8125 L 133.71875 90.847656 C 133.71875 95.78125 137.71875 99.78125 142.652344 99.78125 L 198.996094 99.78125 C 203.929688 99.78125 207.929688 95.78125 207.929688 90.847656 L 207.929688 31.8125 C 207.929688 26.878906 203.929688 22.878906 198.996094 22.878906 L 142.652344 22.878906 C 137.71875 22.878906 133.71875 26.878906 133.71875 31.8125 Z M 133.71875 31.8125 " clip-rule="nonzero"/></clipPath><clipPath id="0fdcae5e0b"><path d="M 165 47 L 170 47 L 170 49 L 165 49 Z M 165 47 " clip-rule="nonzero"/></clipPath><clipPath id="17fd196881"><path d="M 133.71875 31.8125 L 133.71875 90.847656 C 133.71875 95.78125 137.71875 99.78125 142.652344 99.78125 L 198.996094 99.78125 C 203.929688 99.78125 207.929688 95.78125 207.929688 90.847656 L 207.929688 31.8125 C 207.929688 26.878906 203.929688 22.878906 198.996094 22.878906 L 142.652344 22.878906 C 137.71875 22.878906 133.71875 26.878906 133.71875 31.8125 Z M 133.71875 31.8125 " clip-rule="nonzero"/></clipPath><clipPath id="fbd150082a"><path d="M 176 47 L 181 47 L 181 49 L 176 49 Z M 176 47 " clip-rule="nonzero"/></clipPath><clipPath id="bb3cabcc24"><path d="M 133.71875 31.8125 L 133.71875 90.847656 C 133.71875 95.78125 137.71875 99.78125 142.652344 99.78125 L 198.996094 99.78125 C 203.929688 99.78125 207.929688 95.78125 207.929688 90.847656 L 207.929688 31.8125 C 207.929688 26.878906 203.929688 22.878906 198.996094 22.878906 L 142.652344 22.878906 C 137.71875 22.878906 133.71875 26.878906 133.71875 31.8125 Z M 133.71875 31.8125 " clip-rule="nonzero"/></clipPath><clipPath id="ec59b3f114"><path d="M 173 52 L 176 52 L 176 60 L 173 60 Z M 173 52 " clip-rule="nonzero"/></clipPath><clipPath id="c85b56feca"><path d="M 133.71875 31.8125 L 133.71875 90.847656 C 133.71875 95.78125 137.71875 99.78125 142.652344 99.78125 L 198.996094 99.78125 C 203.929688 99.78125 207.929688 95.78125 207.929688 90.847656 L 207.929688 31.8125 C 207.929688 26.878906 203.929688 22.878906 198.996094 22.878906 L 142.652344 22.878906 C 137.71875 22.878906 133.71875 26.878906 133.71875 31.8125 Z M 133.71875 31.8125 " clip-rule="nonzero"/></clipPath><clipPath id="87c6658f77"><path d="M 167 51 L 170 51 L 170 54 L 167 54 Z M 167 51 " clip-rule="nonzero"/></clipPath><clipPath id="87a9dd5ade"><path d="M 133.71875 31.8125 L 133.71875 90.847656 C 133.71875 95.78125 137.71875 99.78125 142.652344 99.78125 L 198.996094 99.78125 C 203.929688 99.78125 207.929688 95.78125 207.929688 90.847656 L 207.929688 31.8125 C 207.929688 26.878906 203.929688 22.878906 198.996094 22.878906 L 142.652344 22.878906 C 137.71875 22.878906 133.71875 26.878906 133.71875 31.8125 Z M 133.71875 31.8125 " clip-rule="nonzero"/></clipPath><clipPath id="8e8543e2af"><path d="M 177 51 L 180 51 L 180 54 L 177 54 Z M 177 51 " clip-rule="nonzero"/></clipPath><clipPath id="3c6d4bd68e"><path d="M 133.71875 31.8125 L 133.71875 90.847656 C 133.71875 95.78125 137.71875 99.78125 142.652344 99.78125 L 198.996094 99.78125 C 203.929688 99.78125 207.929688 95.78125 207.929688 90.847656 L 207.929688 31.8125 C 207.929688 26.878906 203.929688 22.878906 198.996094 22.878906 L 142.652344 22.878906 C 137.71875 22.878906 133.71875 26.878906 133.71875 31.8125 Z M 133.71875 31.8125 " clip-rule="nonzero"/></clipPath><clipPath id="36584b87fc"><path d="M 169 61 L 178 61 L 178 65 L 169 65 Z M 169 61 " clip-rule="nonzero"/></clipPath><clipPath id="e46766b6a3"><path d="M 133.71875 31.8125 L 133.71875 90.847656 C 133.71875 95.78125 137.71875 99.78125 142.652344 99.78125 L 198.996094 99.78125 C 203.929688 99.78125 207.929688 95.78125 207.929688 90.847656 L 207.929688 31.8125 C 207.929688 26.878906 203.929688 22.878906 198.996094 22.878906 L 142.652344 22.878906 C 137.71875 22.878906 133.71875 26.878906 133.71875 31.8125 Z M 133.71875 31.8125 " clip-rule="nonzero"/></clipPath><clipPath id="6df94fb6b8"><path d="M 194 90 L 208 90 L 208 99.558594 L 194 99.558594 Z M 194 90 " clip-rule="nonzero"/></clipPath><clipPath id="a36a583130"><path d="M 133.71875 31.8125 L 133.71875 90.847656 C 133.71875 95.78125 137.71875 99.78125 142.652344 99.78125 L 198.996094 99.78125 C 203.929688 99.78125 207.929688 95.78125 207.929688 90.847656 L 207.929688 31.8125 C 207.929688 26.878906 203.929688 22.878906 198.996094 22.878906 L 142.652344 22.878906 C 137.71875 22.878906 133.71875 26.878906 133.71875 31.8125 Z M 133.71875 31.8125 " clip-rule="nonzero"/></clipPath><clipPath id="26baf78948"><path d="M 193 89 L 208 89 L 208 99.558594 L 193 99.558594 Z M 193 89 " clip-rule="nonzero"/></clipPath><clipPath id="dd7ebaa0f0"><path d="M 133.71875 31.8125 L 133.71875 90.847656 C 133.71875 95.78125 137.71875 99.78125 142.652344 99.78125 L 198.996094 99.78125 C 203.929688 99.78125 207.929688 95.78125 207.929688 90.847656 L 207.929688 31.8125 C 207.929688 26.878906 203.929688 22.878906 198.996094 22.878906 L 142.652344 22.878906 C 137.71875 22.878906 133.71875 26.878906 133.71875 31.8125 Z M 133.71875 31.8125 " clip-rule="nonzero"/></clipPath><clipPath id="052dad00ca"><path d="M 154 24 L 191 24 L 191 53 L 154 53 Z M 154 24 " clip-rule="nonzero"/></clipPath><clipPath id="b8fc7a6f79"><path d="M 133.71875 31.8125 L 133.71875 90.847656 C 133.71875 95.78125 137.71875 99.78125 142.652344 99.78125 L 198.996094 99.78125 C 203.929688 99.78125 207.929688 95.78125 207.929688 90.847656 L 207.929688 31.8125 C 207.929688 26.878906 203.929688 22.878906 198.996094 22.878906 L 142.652344 22.878906 C 137.71875 22.878906 133.71875 26.878906 133.71875 31.8125 Z M 133.71875 31.8125 " clip-rule="nonzero"/></clipPath></defs><g clip-path="url(#0b8f428d7c)"><g clip-path="url(#981f24db30)"><path fill="#03489c" d="M 150.367188 0 L 204.910156 0 L 204.910156 61.359375 L 150.367188 61.359375 Z M 150.367188 0 " fill-opacity="1" fill-rule="nonzero"/></g></g><g clip-path="url(#0c9411cba6)"><g clip-path="url(#8cdab263dd)"><path stroke-linecap="butt" transform="matrix(0.744485, 0, 0, 0.744485, 150.367729, 0.00335823)" fill="none" stroke-linejoin="miter" d="M 20.997422 0.000736111 L 52.253288 0.000736111 C 57.820263 0.000736111 63.161622 2.209687 67.102054 6.150119 C 71.037239 10.085305 73.251437 15.426663 73.251437 20.998886 L 73.251437 61.368641 C 73.251437 66.935617 71.037239 72.276975 67.102054 76.217407 C 63.161622 80.152593 57.820263 82.366791 52.253288 82.366791 L 20.997422 82.366791 C 15.430446 82.366791 10.089088 80.152593 6.148655 76.217407 C 2.21347 72.276975 -0.000727894 66.935617 -0.000727894 61.368641 L -0.000727894 20.998886 C -0.000727894 15.426663 2.21347 10.085305 6.148655 6.150119 C 10.089088 2.209687 15.430446 0.000736111 20.997422 0.000736111 Z M 20.997422 0.000736111 " stroke="#231f20" stroke-width="2" stroke-opacity="1" stroke-miterlimit="4"/></g></g><g clip-path="url(#e93b78c12b)"><g clip-path="url(#6ed6282a96)"><path fill="#f6fa70" d="M 0.550781 16.964844 L 216.328125 16.964844 L 216.328125 99.78125 L 0.550781 99.78125 Z M 0.550781 16.964844 " fill-opacity="1" fill-rule="nonzero"/></g></g><g clip-path="url(#8d01555168)"><g clip-path="url(#3e198fc945)"><path stroke-linecap="butt" transform="matrix(0.744485, 0, 0, 0.744485, 0.555758, 16.962934)" fill="none" stroke-linejoin="miter" d="M 20.99671 0.00256559 L 268.630043 0.00256559 C 274.197018 0.00256559 279.538376 2.211516 283.478808 6.151948 C 287.41924 10.087133 289.628191 15.428491 289.628191 21.000714 L 289.628191 90.233738 C 289.628191 95.80596 287.41924 101.147318 283.478808 105.082504 C 279.538376 109.022936 274.197018 111.231886 268.630043 111.231886 L 20.99671 111.231886 C 15.429735 111.231886 10.088377 109.022936 6.147944 105.082504 C 2.212759 101.147318 -0.00143825 95.80596 -0.00143825 90.233738 L -0.00143825 21.000714 C -0.00143825 15.428491 2.212759 10.087133 6.147944 6.151948 C 10.088377 2.211516 15.429735 0.00256559 20.99671 0.00256559 Z M 20.99671 0.00256559 " stroke="#0f2553" stroke-width="2" stroke-opacity="1" stroke-miterlimit="4"/></g></g><g clip-path="url(#a93fc0944c)"><g clip-path="url(#671586234f)"><path fill="#231f20" d="M 154.832031 38.746094 C 154.832031 38.746094 141.035156 78.726562 146.78125 80.789062 C 152.53125 82.851562 159.707031 81.019531 169.683594 80.789062 C 179.664062 80.558594 195.058594 82.941406 197.003906 78.476562 C 198.949219 74.011719 192.582031 35.570312 188.957031 31.304688 C 185.328125 27.039062 154.832031 38.746094 154.832031 38.746094 " fill-opacity="1" fill-rule="nonzero"/></g></g><g clip-path="url(#3106638ca0)"><g clip-path="url(#59a2b3b054)"><path fill="#ffffff" d="M 144.277344 99.199219 L 140.46875 89.921875 C 140.46875 89.921875 138.121094 93.753906 134.816406 99.199219 L 144.277344 99.199219 " fill-opacity="1" fill-rule="nonzero"/><path stroke-linecap="round" transform="matrix(0.0212467, 0, 0, -0.0211193, 125.773367, 106.583447)" fill="none" stroke-linejoin="round" d="M 870.909556 349.642899 L 691.653993 788.924761 C 691.653993 788.924761 581.159026 607.478232 425.620353 349.642899 Z M 870.909556 349.642899 " stroke="#231f20" stroke-width="30" stroke-opacity="1" stroke-miterlimit="10"/></g></g><g clip-path="url(#bead9ff2ff)"><g clip-path="url(#8c18bb3bf5)"><path fill="#ffffff" d="M 142.121094 99.199219 L 140.46875 89.921875 L 134.058594 99.199219 Z M 142.121094 99.199219 " fill-opacity="1" fill-rule="nonzero"/></g></g><g clip-path="url(#1ef1afe897)"><g clip-path="url(#3d95ebd87f)"><path stroke-linecap="round" transform="matrix(0.0212467, 0, 0, -0.0211193, 125.773367, 106.583447)" fill="none" stroke-linejoin="round" d="M 769.42333 349.642899 L 691.653993 788.924761 L 389.953093 349.642899 Z M 769.42333 349.642899 " stroke="#231f20" stroke-width="30" stroke-opacity="1" stroke-miterlimit="10"/></g></g><g clip-path="url(#84bcff0048)"><g clip-path="url(#134a3806d4)"><path fill="#ffffff" d="M 190.757812 99.199219 L 190.757812 86.8125 C 187.589844 86.109375 185.132812 85.066406 184.484375 84.554688 C 180.617188 81.480469 180.257812 73.074219 179.886719 64.691406 C 179.796875 62.605469 167.058594 53.519531 167.058594 53.519531 C 167.058594 53.519531 166.261719 78.476562 161.183594 82.65625 C 161.183594 82.65625 156.535156 83.847656 151.765625 85.5 L 151.765625 97.539062 L 162.746094 99.199219 L 190.757812 99.199219 " fill-opacity="1" fill-rule="nonzero"/></g></g><g clip-path="url(#9383ecf54c)"><g clip-path="url(#e68b185929)"><path stroke-linecap="round" transform="matrix(0.0212467, 0, 0, -0.0211193, 125.773367, 106.583447)" fill="none" stroke-linejoin="round" d="M 3058.562825 349.642899 L 3058.562825 936.153545 C 2909.458967 969.446486 2793.816148 1018.831016 2763.29674 1043.060879 C 2581.283399 1188.625016 2564.369028 1586.660623 2546.903102 1983.586466 C 2542.674509 2082.355525 1943.133597 2512.574309 1943.133597 2512.574309 C 1943.133597 2512.574309 1905.627818 1330.859859 1666.620401 1132.95182 C 1666.620401 1132.95182 1447.836689 1076.538781 1223.353569 998.300369 L 1223.353569 428.251232 L 1740.161145 349.642899 Z M 3058.562825 349.642899 " stroke="#231f20" stroke-width="30" stroke-opacity="1" stroke-miterlimit="10"/></g></g><g clip-path="url(#372ca4bd3b)"><g clip-path="url(#d3b9294c19)"><path fill="#ffffff" d="M 140.265625 99.199219 L 201.257812 99.199219 L 201.289062 92.304688 C 196.496094 88.523438 193.910156 87.371094 188.957031 85.972656 C 188.957031 85.972656 173.175781 97.300781 171.261719 97.164062 C 169.34375 97.027344 154.832031 84.488281 154.832031 84.488281 C 154.832031 84.488281 138.339844 87.53125 139.613281 92.367188 C 139.875 93.363281 140.089844 95.777344 140.265625 99.199219 " fill-opacity="1" fill-rule="nonzero"/><path stroke-linecap="round" transform="matrix(0.0212467, 0, 0, -0.0211193, 125.773367, 106.583447)" fill="none" stroke-linejoin="round" d="M 682.093697 349.642899 L 3552.756622 349.642899 L 3554.227437 676.098683 C 3328.641206 855.140722 3206.931275 909.704153 2973.807118 975.920114 C 2973.807118 975.920114 2231.045608 439.53384 2140.958197 446.007467 C 2050.686934 452.481095 1367.677278 1046.205212 1367.677278 1046.205212 C 1367.677278 1046.205212 591.45473 902.120761 651.390436 673.13931 C 663.708511 625.97431 673.820363 511.668546 682.093697 349.642899 Z M 682.093697 349.642899 " stroke="#231f20" stroke-width="30" stroke-opacity="1" stroke-miterlimit="10"/></g></g><g clip-path="url(#5bcc9d3eb8)"><g clip-path="url(#f004552a52)"><path fill="#ffffff" d="M 186.640625 51.457031 C 186.640625 51.457031 188.097656 38.011719 181.132812 33.449219 C 179.175781 32.167969 176.238281 31.394531 173.121094 31.304688 L 173.121094 31.347656 C 170 31.429688 167.0625 32.207031 165.105469 33.488281 C 158.144531 38.046875 159.597656 51.496094 159.597656 51.496094 C 155.625 47.980469 153.984375 53.253906 155.253906 57.027344 C 156.515625 60.785156 159.546875 60.289062 159.546875 60.289062 C 161.5625 68.324219 167.832031 74.441406 171.9375 75.113281 C 172.371094 75.183594 172.761719 75.238281 173.121094 75.277344 L 173.121094 75.234375 C 173.476562 75.199219 173.867188 75.144531 174.300781 75.074219 C 178.40625 74.402344 184.675781 68.285156 186.695312 60.25 C 186.695312 60.25 189.722656 60.746094 190.984375 56.988281 C 192.253906 53.214844 190.617188 47.941406 186.640625 51.457031 " fill-opacity="1" fill-rule="nonzero"/></g></g><g clip-path="url(#7c27025da5)"><g clip-path="url(#d259c36ff4)"><path stroke-linecap="round" transform="matrix(0.0212467, 0, 0, -0.0211193, 125.773367, 106.583447)" fill="none" stroke-linejoin="round" d="M 2864.782966 2610.233603 C 2864.782966 2610.233603 2933.359709 3246.868622 2605.551845 3462.902818 C 2513.442063 3523.569956 2375.185465 3560.192191 2228.471682 3564.446289 L 2228.471682 3562.41172 C 2081.574047 3558.527544 1943.317449 3521.720348 1851.207667 3461.053211 C 1523.583655 3245.203975 1591.976546 2608.383995 1591.976546 2608.383995 C 1404.999206 2774.848701 1327.781425 2525.151642 1387.533279 2346.479525 C 1446.91743 2168.54725 1589.586472 2192.03727 1589.586472 2192.03727 C 1684.454031 1811.572937 1979.536265 1521.924349 2172.764569 1490.111094 C 2193.172125 1486.7818 2211.557311 1484.192349 2228.471682 1482.342741 L 2228.471682 1484.37731 C 2245.202201 1486.041957 2263.587387 1488.631408 2283.994943 1491.960702 C 2477.223247 1523.773957 2772.305481 1813.422545 2867.356892 2193.886878 C 2867.356892 2193.886878 3009.842082 2170.396858 3069.226233 2348.329133 C 3128.978087 2527.00125 3051.944158 2776.698309 2864.782966 2610.233603 Z M 2864.782966 2610.233603 " stroke="#231f20" stroke-width="30" stroke-opacity="1" stroke-miterlimit="10"/></g></g><g clip-path="url(#0fdcae5e0b)"><g clip-path="url(#17fd196881)"><path fill="#231f20" d="M 165.75 48.488281 C 165.75 48.488281 165.785156 48.429688 165.859375 48.339844 C 165.945312 48.257812 165.988281 48.113281 166.195312 47.992188 C 166.378906 47.855469 166.605469 47.699219 166.867188 47.625 C 166.996094 47.574219 167.132812 47.527344 167.28125 47.519531 C 167.441406 47.507812 167.53125 47.480469 167.757812 47.484375 L 168.132812 47.53125 C 168.246094 47.535156 168.40625 47.601562 168.539062 47.652344 C 168.675781 47.703125 168.816406 47.75 168.917969 47.828125 C 169.019531 47.898438 169.113281 47.96875 169.203125 48.03125 C 169.382812 48.144531 169.464844 48.324219 169.550781 48.40625 C 169.625 48.503906 169.660156 48.5625 169.660156 48.5625 C 169.710938 48.648438 169.683594 48.761719 169.59375 48.8125 C 169.546875 48.839844 169.488281 48.84375 169.441406 48.824219 L 169.402344 48.8125 C 169.402344 48.8125 169.339844 48.789062 169.242188 48.746094 C 169.144531 48.707031 169.027344 48.625 168.863281 48.578125 C 168.785156 48.550781 168.699219 48.519531 168.609375 48.488281 C 168.523438 48.449219 168.429688 48.464844 168.34375 48.4375 C 168.253906 48.417969 168.183594 48.382812 168.046875 48.382812 L 167.667969 48.359375 L 167.394531 48.382812 C 167.289062 48.382812 167.191406 48.398438 167.09375 48.425781 C 167.003906 48.453125 166.894531 48.457031 166.8125 48.480469 C 166.730469 48.507812 166.652344 48.53125 166.578125 48.554688 C 166.433594 48.585938 166.269531 48.691406 166.171875 48.734375 C 166.070312 48.78125 166.007812 48.804688 166.007812 48.804688 C 165.894531 48.84375 165.769531 48.785156 165.730469 48.671875 C 165.707031 48.609375 165.71875 48.539062 165.75 48.488281 " fill-opacity="1" fill-rule="nonzero"/></g></g><g clip-path="url(#fbd150082a)"><g clip-path="url(#bb3cabcc24)"><path fill="#231f20" d="M 176.683594 48.609375 C 176.683594 48.609375 176.71875 48.550781 176.789062 48.460938 C 176.875 48.382812 176.917969 48.234375 177.128906 48.113281 C 177.3125 47.980469 177.539062 47.820312 177.800781 47.746094 C 177.929688 47.695312 178.066406 47.648438 178.210938 47.644531 C 178.375 47.628906 178.464844 47.597656 178.691406 47.605469 L 179.066406 47.65625 C 179.175781 47.65625 179.335938 47.726562 179.472656 47.773438 C 179.609375 47.824219 179.75 47.875 179.847656 47.949219 C 179.949219 48.019531 180.046875 48.089844 180.132812 48.152344 C 180.316406 48.265625 180.398438 48.445312 180.480469 48.527344 C 180.554688 48.625 180.589844 48.683594 180.589844 48.683594 C 180.640625 48.769531 180.613281 48.882812 180.527344 48.9375 C 180.480469 48.964844 180.421875 48.96875 180.371094 48.949219 L 180.332031 48.9375 C 180.332031 48.9375 180.269531 48.914062 180.175781 48.867188 C 180.078125 48.828125 179.960938 48.746094 179.792969 48.699219 C 179.714844 48.671875 179.632812 48.640625 179.542969 48.609375 C 179.457031 48.570312 179.363281 48.585938 179.277344 48.558594 C 179.183594 48.539062 179.117188 48.507812 178.976562 48.507812 L 178.601562 48.480469 L 178.328125 48.503906 C 178.222656 48.503906 178.121094 48.519531 178.027344 48.546875 C 177.824219 48.582031 177.65625 48.625 177.511719 48.679688 C 177.367188 48.707031 177.199219 48.816406 177.105469 48.855469 C 177.003906 48.902344 176.941406 48.925781 176.941406 48.925781 C 176.824219 48.96875 176.703125 48.90625 176.664062 48.792969 C 176.640625 48.730469 176.648438 48.660156 176.683594 48.609375 " fill-opacity="1" fill-rule="nonzero"/></g></g><g clip-path="url(#ec59b3f114)"><g clip-path="url(#c85b56feca)"><path fill="#231f20" d="M 174.152344 52.085938 C 174.152344 52.085938 174.351562 52.554688 174.609375 53.269531 C 174.863281 53.984375 175.171875 54.953125 175.371094 55.957031 C 175.417969 56.207031 175.460938 56.460938 175.488281 56.714844 C 175.519531 56.96875 175.542969 57.21875 175.542969 57.464844 C 175.546875 57.710938 175.527344 57.957031 175.492188 58.1875 C 175.449219 58.417969 175.394531 58.644531 175.296875 58.84375 C 175.269531 58.890625 175.25 58.941406 175.222656 58.988281 C 175.191406 59.035156 175.160156 59.078125 175.128906 59.121094 C 175.078125 59.210938 174.996094 59.277344 174.929688 59.347656 C 174.785156 59.476562 174.632812 59.566406 174.503906 59.613281 C 174.375 59.675781 174.273438 59.683594 174.203125 59.703125 C 174.132812 59.71875 174.09375 59.726562 174.09375 59.726562 C 173.921875 59.765625 173.753906 59.65625 173.714844 59.484375 C 173.679688 59.316406 173.785156 59.144531 173.957031 59.109375 C 173.960938 59.109375 173.964844 59.109375 173.96875 59.109375 L 174.019531 59.097656 C 174.019531 59.097656 174.042969 59.09375 174.089844 59.085938 C 174.132812 59.074219 174.207031 59.074219 174.277344 59.039062 C 174.359375 59.015625 174.445312 58.96875 174.535156 58.902344 C 174.621094 58.828125 174.714844 58.730469 174.785156 58.589844 C 174.867188 58.457031 174.917969 58.277344 174.964844 58.089844 C 175.003906 57.894531 175.035156 57.683594 175.039062 57.457031 C 175.054688 57.234375 175.046875 56.996094 175.03125 56.757812 C 175.015625 56.515625 174.988281 56.269531 174.957031 56.027344 C 174.816406 55.042969 174.5625 54.070312 174.347656 53.351562 C 174.132812 52.632812 173.960938 52.160156 173.960938 52.160156 C 173.941406 52.109375 173.96875 52.050781 174.023438 52.03125 C 174.074219 52.011719 174.128906 52.039062 174.152344 52.085938 " fill-opacity="1" fill-rule="nonzero"/></g></g><g clip-path="url(#87c6658f77)"><g clip-path="url(#87a9dd5ade)"><path fill="#0d0e11" d="M 169.277344 52.546875 C 169.277344 53.082031 168.839844 53.519531 168.296875 53.519531 C 167.761719 53.519531 167.324219 53.082031 167.324219 52.546875 C 167.324219 52.007812 167.761719 51.578125 168.296875 51.578125 C 168.839844 51.578125 169.277344 52.007812 169.277344 52.546875 " fill-opacity="1" fill-rule="nonzero"/></g></g><g clip-path="url(#8e8543e2af)"><g clip-path="url(#3c6d4bd68e)"><path fill="#0d0e11" d="M 179.886719 52.546875 C 179.886719 53.082031 179.449219 53.519531 178.914062 53.519531 C 178.375 53.519531 177.941406 53.082031 177.941406 52.546875 C 177.941406 52.007812 178.375 51.578125 178.914062 51.578125 C 179.449219 51.578125 179.886719 52.007812 179.886719 52.546875 " fill-opacity="1" fill-rule="nonzero"/></g></g><g clip-path="url(#36584b87fc)"><g clip-path="url(#e46766b6a3)"><path fill="#231f20" d="M 170.117188 61.710938 C 170.117188 61.710938 170.140625 61.742188 170.175781 61.789062 C 170.214844 61.839844 170.273438 61.910156 170.351562 62 C 170.507812 62.179688 170.746094 62.429688 171.058594 62.6875 C 171.140625 62.75 171.21875 62.816406 171.3125 62.875 C 171.355469 62.90625 171.398438 62.941406 171.445312 62.972656 C 171.492188 63 171.539062 63.03125 171.589844 63.058594 C 171.785156 63.183594 172 63.28125 172.226562 63.375 C 172.339844 63.421875 172.460938 63.449219 172.582031 63.488281 C 172.703125 63.515625 172.828125 63.542969 172.953125 63.566406 C 173.078125 63.574219 173.210938 63.59375 173.332031 63.597656 C 173.480469 63.601562 173.605469 63.59375 173.734375 63.589844 C 174 63.574219 174.269531 63.539062 174.53125 63.488281 C 174.792969 63.429688 175.050781 63.375 175.289062 63.289062 C 175.53125 63.210938 175.753906 63.117188 175.964844 63.019531 C 176.070312 62.964844 176.167969 62.914062 176.265625 62.863281 C 176.359375 62.804688 176.449219 62.75 176.535156 62.699219 C 176.699219 62.582031 176.851562 62.472656 176.976562 62.363281 C 177.105469 62.261719 177.199219 62.148438 177.289062 62.070312 C 177.449219 61.890625 177.539062 61.785156 177.539062 61.785156 L 177.546875 61.777344 C 177.59375 61.722656 177.671875 61.71875 177.726562 61.765625 C 177.773438 61.804688 177.78125 61.871094 177.753906 61.921875 C 177.753906 61.921875 177.734375 61.953125 177.699219 62.015625 C 177.664062 62.074219 177.617188 62.164062 177.542969 62.269531 C 177.464844 62.371094 177.382812 62.511719 177.253906 62.640625 C 177.191406 62.707031 177.128906 62.78125 177.054688 62.851562 C 176.976562 62.917969 176.898438 62.992188 176.8125 63.066406 C 176.722656 63.136719 176.628906 63.207031 176.535156 63.28125 C 176.433594 63.347656 176.328125 63.414062 176.21875 63.480469 C 175.992188 63.605469 175.75 63.734375 175.488281 63.832031 C 175.226562 63.9375 174.949219 64.019531 174.660156 64.089844 C 174.371094 64.152344 174.078125 64.199219 173.773438 64.222656 C 173.617188 64.230469 173.457031 64.234375 173.320312 64.230469 C 173.15625 64.222656 173.011719 64.199219 172.855469 64.183594 C 172.707031 64.160156 172.558594 64.125 172.414062 64.085938 C 172.273438 64.035156 172.128906 63.996094 172 63.9375 C 171.734375 63.820312 171.488281 63.6875 171.277344 63.535156 C 171.167969 63.460938 171.066406 63.382812 170.976562 63.304688 C 170.878906 63.226562 170.796875 63.144531 170.714844 63.066406 C 170.390625 62.753906 170.175781 62.453125 170.035156 62.234375 C 169.964844 62.125 169.917969 62.035156 169.882812 61.972656 C 169.851562 61.910156 169.835938 61.875 169.835938 61.875 C 169.792969 61.792969 169.828125 61.695312 169.90625 61.65625 C 169.980469 61.617188 170.070312 61.640625 170.113281 61.707031 L 170.117188 61.710938 " fill-opacity="1" fill-rule="nonzero"/></g></g><g clip-path="url(#6df94fb6b8)"><g clip-path="url(#a36a583130)"><path fill="#ffffff" d="M 207.828125 99.199219 C 207.65625 98.59375 207.492188 98.113281 207.335938 97.785156 C 205.667969 94.332031 198.558594 90.273438 198.558594 90.273438 C 198.558594 90.273438 195.984375 94.835938 194.199219 99.199219 L 207.828125 99.199219 " fill-opacity="1" fill-rule="nonzero"/></g></g><g clip-path="url(#26baf78948)"><g clip-path="url(#dd7ebaa0f0)"><path stroke-linecap="round" transform="matrix(0.0212467, 0, 0, -0.0211193, 125.773367, 106.583447)" fill="none" stroke-linejoin="round" d="M 3861.995449 349.642899 C 3853.905967 378.31182 3846.184189 401.061997 3838.830114 416.598702 C 3760.325371 580.104036 3425.714987 772.278291 3425.714987 772.278291 C 3425.714987 772.278291 3304.556612 556.244095 3220.536313 349.642899 Z M 3861.995449 349.642899 " stroke="#231f20" stroke-width="30" stroke-opacity="1" stroke-miterlimit="10"/></g></g><g clip-path="url(#052dad00ca)"><g clip-path="url(#b8fc7a6f79)"><path fill="#231f20" d="M 159.597656 51.496094 C 159.597656 51.496094 152.710938 42.097656 155.628906 34.636719 C 158.550781 27.179688 164.796875 24.277344 164.796875 24.277344 C 164.796875 24.277344 183.734375 22.929688 188.386719 29.664062 C 193.039062 36.402344 186.164062 52.550781 186.164062 52.550781 C 186.164062 52.550781 185.328125 47.484375 183.800781 44.585938 C 183.800781 44.585938 174.875 43.34375 174.054688 37.816406 C 174.054688 37.816406 168.117188 44.640625 162.121094 43.757812 C 162.121094 43.757812 159.992188 48.183594 159.597656 51.496094 " fill-opacity="1" fill-rule="nonzero"/></g></g></svg>