<svg xmlns="http://www.w3.org/2000/svg" xmlns:xlink="http://www.w3.org/1999/xlink" width="500" zoomAndPan="magnify" viewBox="0 0 375 374.999991" height="500" preserveAspectRatio="xMidYMid meet" version="1.0"><defs><clipPath id="bcf78b0263"><path d="M 47 48 L 328.542969 48 L 328.542969 327.316406 L 47 327.316406 Z M 47 48 " clip-rule="nonzero"/></clipPath></defs><g clip-path="url(#bcf78b0263)"><path fill="#fc4100" d="M 278.503906 258.0625 C 271.324219 268.390625 264.515625 278.671875 256.859375 288.273438 C 248.988281 298.144531 240.503906 307.554688 231.871094 316.78125 C 227.273438 321.699219 221.855469 326.039062 214.792969 326.925781 C 211.503906 327.335938 207.90625 327.476562 204.78125 326.582031 C 189.179688 322.117188 174.796875 315.054688 162.621094 304.203125 C 151.535156 294.316406 140.523438 284.292969 130.136719 273.6875 C 123.152344 266.550781 116.859375 258.617188 111.050781 250.472656 C 99.667969 234.511719 88.359375 218.453125 77.9375 201.859375 C 70.363281 189.792969 63.773438 177.113281 58.25 163.828125 C 53.945312 153.46875 50.953125 142.808594 49.023438 131.992188 C 46.523438 117.957031 47.421875 103.8125 54.070312 90.683594 C 60.6875 77.628906 71.433594 69.53125 85.328125 65.484375 C 97.988281 61.800781 110.496094 62.558594 122.851562 67.027344 C 133.601562 70.917969 142.941406 76.96875 151.195312 84.847656 C 164.65625 97.695312 174.761719 112.929688 183.070312 129.433594 C 184.46875 132.207031 185.238281 135.300781 186.355469 138.222656 C 186.566406 138.769531 187.054688 139.210938 187.414062 139.703125 C 187.664062 139.183594 187.980469 138.683594 188.148438 138.140625 C 192.042969 125.390625 197.128906 113.144531 203.558594 101.453125 C 208.824219 91.886719 215.0625 83.058594 222.378906 74.910156 C 230.523438 65.84375 240.207031 59.046875 251.164062 54.003906 C 257.546875 51.066406 264.304688 49.488281 271.332031 48.492188 C 277.648438 47.589844 283.75 48.171875 289.710938 49.503906 C 296.191406 50.949219 302.273438 53.855469 307.390625 58.308594 C 318.789062 68.226562 324.578125 81.113281 326.785156 95.773438 C 327.507812 100.5625 328.429688 105.46875 328.085938 110.234375 C 327.382812 120.054688 326.429688 129.921875 324.59375 139.582031 C 322.085938 152.777344 319.191406 165.960938 315.445312 178.851562 C 312.625 188.542969 308.464844 197.882812 304.425781 207.175781 C 300.039062 217.269531 295.324219 227.234375 290.335938 237.046875 C 286.742188 244.113281 282.472656 250.835938 278.503906 258.0625 M 256.441406 239.851562 C 259.164062 235.261719 261.902344 230.683594 264.601562 226.082031 C 266.691406 222.519531 269.289062 219.128906 270.679688 215.304688 C 273.414062 207.785156 275.558594 200.039062 277.773438 192.339844 C 279.546875 186.175781 281.171875 179.960938 282.679688 173.722656 C 284.425781 166.492188 286.019531 159.226562 287.589844 151.957031 C 288.613281 147.226562 289.492188 142.46875 290.378906 137.714844 C 290.464844 137.25 290.117188 136.707031 289.96875 136.203125 C 289.414062 136.554688 288.507812 136.792969 288.359375 137.269531 C 286.183594 144.3125 283.871094 151.320312 282.0625 158.457031 C 279.566406 168.3125 277.792969 178.355469 275.132812 188.15625 C 270.320312 205.878906 261.867188 222.101562 253.695312 238.421875 C 250.792969 244.210938 248.046875 250.078125 245.304688 255.945312 C 245.03125 256.53125 245.257812 257.351562 245.25 258.0625 C 245.648438 257.660156 246.148438 257.320312 246.425781 256.847656 C 249.667969 251.308594 252.875 245.753906 256.441406 239.851562 M 116.375 199.234375 C 112.753906 191.175781 108.675781 183.289062 105.632812 175.019531 C 102.085938 165.394531 99.445312 155.433594 96.414062 145.617188 C 95.011719 141.070312 93.671875 136.503906 92.152344 131.996094 C 91.902344 131.246094 90.882812 130.753906 90.21875 130.144531 C 89.949219 130.964844 89.425781 131.796875 89.457031 132.605469 C 89.570312 135.425781 89.933594 138.234375 90.101562 141.058594 C 90.601562 149.355469 92.515625 157.390625 95.085938 165.222656 C 97.332031 172.070312 98.878906 179.199219 103.105469 185.328125 C 110.335938 195.816406 117.316406 206.472656 124.464844 217.015625 C 124.90625 217.667969 125.886719 217.949219 126.617188 218.402344 C 126.449219 217.59375 126.464844 216.679688 126.082031 215.988281 C 123.003906 210.496094 119.851562 205.046875 116.375 199.234375 M 161.894531 284.675781 C 153.980469 276.523438 146.007812 268.425781 138.171875 260.199219 C 134.722656 256.578125 131.507812 252.726562 128.257812 248.917969 C 121.796875 241.34375 115.402344 233.714844 108.925781 226.152344 C 108.316406 225.4375 107.332031 225.039062 106.523438 224.492188 C 106.816406 225.453125 106.875 226.585938 107.4375 227.347656 C 111.074219 232.28125 114.648438 237.277344 118.566406 241.980469 C 126.695312 251.726562 134.820312 261.488281 143.335938 270.890625 C 149.59375 277.796875 156.449219 284.160156 163.078125 290.726562 C 164.191406 291.828125 165.476562 292.765625 166.75 293.6875 C 167.203125 294.019531 167.859375 294.074219 168.421875 294.257812 C 168.34375 293.625 168.480469 292.828125 168.148438 292.390625 C 166.242188 289.886719 164.226562 287.46875 161.894531 284.675781 M 88.710938 102.234375 C 89.109375 102.070312 89.578125 101.992188 89.894531 101.726562 C 95.9375 96.742188 102.773438 95.136719 110.527344 96.230469 C 120.828125 97.683594 129.328125 102.644531 136.988281 109.25 C 145.480469 116.574219 151.984375 125.671875 158.75 134.519531 C 159.027344 134.878906 159.394531 135.175781 159.71875 135.503906 C 159.863281 134.992188 160.273438 134.355469 160.101562 133.992188 C 159.261719 132.234375 158.316406 130.519531 157.324219 128.839844 C 151.078125 118.257812 142.628906 109.527344 133.78125 101.160156 C 132.292969 99.746094 130.464844 98.507812 128.570312 97.738281 C 118.347656 93.578125 107.78125 91.503906 97 95.007812 C 92.945312 96.328125 89.3125 99 85.617188 101.265625 C 85.035156 101.621094 85.148438 103.105469 84.9375 104.066406 C 85.832031 103.820312 86.738281 103.613281 87.609375 103.304688 C 87.90625 103.199219 88.113281 102.832031 88.710938 102.234375 M 178.003906 192.230469 C 173.917969 183.304688 169.84375 174.375 165.714844 165.472656 C 165.515625 165.042969 164.847656 164.828125 164.398438 164.515625 C 164.382812 165.132812 164.195312 165.804688 164.375 166.355469 C 165.488281 169.738281 166.449219 173.199219 167.894531 176.441406 C 172.042969 185.761719 174.347656 195.585938 176.234375 205.535156 C 177.039062 209.773438 177.601562 214.058594 178.40625 218.300781 C 178.539062 219.011719 179.34375 219.597656 179.835938 220.242188 C 180.277344 219.542969 180.863281 218.898438 181.125 218.136719 C 181.691406 216.496094 181.835938 214.671875 182.609375 213.15625 C 184.234375 209.953125 183.964844 206.964844 182.59375 203.773438 C 181.023438 200.109375 179.753906 196.316406 178.003906 192.230469 M 143.6875 185.226562 C 145.4375 188.925781 147.15625 192.640625 148.96875 196.3125 C 149.269531 196.921875 149.976562 197.332031 150.496094 197.832031 C 150.679688 197.128906 151.136719 196.367188 150.996094 195.734375 C 150.1875 192.128906 149.730469 188.324219 148.210938 185.023438 C 146.089844 180.40625 143.558594 175.84375 140.453125 171.839844 C 132.265625 161.285156 123.6875 151.03125 115.214844 140.699219 C 114.625 139.980469 113.625 139.597656 112.8125 139.0625 C 113.113281 140.023438 113.179688 141.15625 113.746094 141.914062 C 118.289062 147.976562 123.203125 153.777344 127.472656 160.019531 C 133.015625 168.128906 138.070312 176.574219 143.6875 185.226562 M 239.984375 156.863281 C 239.515625 163.074219 239.015625 169.28125 238.625 175.5 C 238.574219 176.300781 239.109375 177.140625 239.375 177.964844 C 240.042969 177.367188 241.003906 176.890625 241.320312 176.144531 C 241.867188 174.859375 241.921875 173.375 242.347656 172.027344 C 246.34375 159.359375 250.390625 146.710938 254.351562 134.035156 C 254.609375 133.21875 254.273438 132.214844 254.214844 131.300781 C 253.5 131.824219 252.488281 132.191406 252.113281 132.894531 C 248.015625 140.621094 244.011719 148.398438 239.984375 156.863281 M 244.886719 91.03125 C 252.96875 82.222656 262.167969 75.550781 274.761719 75.183594 C 275.328125 75.167969 276.394531 73.777344 276.304688 73.160156 C 275.980469 70.859375 275.082031 68.433594 272.15625 69.046875 C 268.570312 69.804688 264.871094 70.679688 261.636719 72.320312 C 254.382812 76 248.59375 81.589844 243.726562 88.054688 C 241.5625 90.933594 239.796875 94.109375 237.914062 97.191406 C 237.683594 97.566406 237.863281 98.195312 237.851562 98.703125 C 238.265625 98.546875 238.824219 98.503906 239.066406 98.207031 C 240.925781 95.960938 242.722656 93.664062 244.886719 91.03125 M 139.136719 142.855469 C 135.597656 139.085938 132.304688 135.042969 128.449219 131.632812 C 125.359375 128.902344 121.652344 126.839844 118.078125 124.722656 C 117.21875 124.214844 115.789062 124.679688 114.625 124.695312 C 115.277344 125.570312 115.847656 126.519531 116.601562 127.300781 C 122.457031 133.359375 128.519531 139.230469 134.167969 145.476562 C 137.578125 149.246094 140.34375 153.597656 143.460938 157.640625 C 143.921875 158.234375 144.75 158.546875 145.410156 158.992188 C 145.417969 158.257812 145.492188 157.519531 145.425781 156.792969 C 144.953125 151.609375 142.445312 147.308594 139.136719 142.855469 M 217.222656 225.144531 C 219.691406 219.875 222.515625 214.738281 224.5 209.292969 C 225.839844 205.621094 226.089844 201.53125 226.652344 197.605469 C 227.238281 193.503906 227.664062 189.378906 228.023438 185.253906 C 228.082031 184.605469 227.433594 183.894531 227.113281 183.210938 C 226.734375 183.8125 226.214844 184.367188 226.003906 185.023438 C 225.167969 187.59375 224.410156 190.191406 223.667969 192.792969 C 220.128906 205.191406 216.601562 217.59375 213.085938 230 C 212.960938 230.449219 213.03125 230.953125 213.007812 231.433594 C 213.597656 231.261719 214.535156 231.257812 214.710938 230.886719 C 215.546875 229.144531 216.171875 227.300781 217.222656 225.144531 M 214.070312 109.941406 C 218.535156 109.566406 220.867188 106.738281 222.496094 102.886719 C 226.710938 92.929688 232.476562 83.988281 240.03125 76.195312 C 241.152344 75.035156 241.710938 73.324219 242.53125 71.867188 C 241.15625 72.710938 239.527344 73.308594 238.453125 74.4375 C 233.492188 79.671875 228.347656 84.792969 223.914062 90.460938 C 219.527344 96.066406 215.898438 102.261719 212 108.238281 C 211.558594 108.917969 211.542969 109.875 211.332031 110.703125 C 212.128906 110.566406 212.925781 110.425781 214.070312 109.941406 M 305.117188 100.835938 C 304.933594 100.25 304.75 99.667969 304.5625 99.085938 C 304.28125 99.570312 303.777344 100.039062 303.75 100.539062 C 303.457031 105.332031 303.449219 110.148438 302.972656 114.917969 C 301.941406 125.28125 300.894531 135.652344 299.445312 145.964844 C 298.324219 153.910156 296.570312 161.765625 295.136719 169.667969 C 295.003906 170.394531 295.136719 171.167969 295.144531 171.917969 C 295.667969 171.304688 296.488281 170.765625 296.664062 170.0625 C 298.835938 161.398438 301.164062 152.761719 302.925781 144.011719 C 304.09375 138.222656 304.3125 132.25 305.140625 126.382812 C 306.324219 117.988281 306.308594 109.597656 305.117188 100.835938 M 288.308594 210.789062 C 285.09375 216.335938 281.535156 221.71875 278.757812 227.480469 C 275.867188 233.480469 273.707031 239.839844 271.277344 246.0625 C 271.03125 246.699219 271.140625 247.480469 271.085938 248.195312 C 271.566406 247.753906 272.21875 247.40625 272.5 246.863281 C 276.398438 239.386719 280.324219 231.921875 284.082031 224.375 C 287.5 217.523438 290.734375 210.574219 294.011719 203.652344 C 294.226562 203.191406 294.128906 202.578125 294.175781 202.035156 C 293.785156 202.453125 293.339844 202.832031 293.015625 203.296875 C 291.429688 205.546875 289.875 207.820312 288.308594 210.789062 M 217.574219 170.167969 C 216.171875 174.59375 214.71875 179.003906 213.425781 183.460938 C 213.214844 184.175781 213.714844 185.097656 213.886719 185.925781 C 214.417969 185.316406 215.160156 184.792969 215.4375 184.085938 C 217.488281 178.882812 219.375 173.613281 221.449219 168.417969 C 224.003906 162.027344 226.746094 155.710938 229.238281 149.296875 C 229.558594 148.476562 228.878906 147.269531 228.660156 146.238281 C 228 146.859375 227.210938 147.386719 226.699219 148.109375 C 222.117188 154.566406 220.414062 162.261719 217.574219 170.167969 M 137.382812 202.734375 C 139.03125 205.078125 140.644531 207.445312 142.347656 209.75 C 142.613281 210.105469 143.28125 210.167969 143.757812 210.367188 C 143.699219 209.886719 143.753906 209.351562 143.554688 208.9375 C 142.585938 206.890625 141.613281 204.839844 140.523438 202.859375 C 135.730469 194.128906 130.933594 185.402344 126.03125 176.734375 C 125.171875 175.21875 123.792969 173.996094 122.65625 172.640625 C 123.09375 174.464844 123.1875 176.464844 124.023438 178.082031 C 128.253906 186.238281 132.679688 194.292969 137.382812 202.734375 M 78.207031 134.453125 C 78.4375 129.3125 78.75 124.175781 78.828125 119.035156 C 78.839844 118.226562 77.796875 117.40625 77.242188 116.59375 C 76.628906 117.230469 75.6875 117.773438 75.457031 118.527344 C 73.839844 123.835938 73.289062 129.324219 74.09375 134.789062 C 74.523438 137.734375 75.820312 140.5625 76.851562 143.398438 C 77.035156 143.910156 77.816406 144.210938 78.324219 144.605469 C 78.519531 144.035156 78.90625 143.449219 78.871094 142.890625 C 78.714844 140.308594 78.4375 137.730469 78.207031 134.453125 M 266.945312 122.195312 C 265.652344 127.925781 264.351562 133.660156 263.058594 139.390625 C 262.933594 139.949219 262.828125 140.511719 262.714844 141.074219 C 263.308594 140.664062 264.210938 140.382812 264.441406 139.824219 C 265.433594 137.449219 266.292969 135.011719 267.070312 132.554688 C 268.140625 129.160156 269.34375 125.777344 269.984375 122.292969 C 270.269531 120.746094 269.320312 118.96875 268.933594 117.292969 C 266.117188 117.996094 267.746094 120.292969 266.945312 122.195312 M 250.839844 118.695312 C 251.003906 118.296875 251.222656 117.910156 251.320312 117.496094 C 251.488281 116.792969 251.582031 116.070312 251.703125 115.355469 C 251.210938 115.742188 250.648438 116.066406 250.230469 116.523438 C 248.144531 118.796875 245.949219 120.988281 244.074219 123.429688 C 242.003906 126.125 240.160156 129.007812 238.410156 131.929688 C 238.050781 132.53125 238.554688 133.648438 238.65625 134.527344 C 239.332031 134.078125 240.210938 133.773438 240.652344 133.15625 C 243.980469 128.484375 247.21875 123.753906 250.839844 118.695312 M 298.8125 80.527344 C 296.027344 77.742188 293.300781 74.890625 290.410156 72.222656 C 289.773438 71.632812 288.546875 71.683594 287.589844 71.4375 C 287.457031 72.460938 287.160156 73.5 287.246094 74.507812 C 287.316406 75.320312 287.617188 76.457031 288.207031 76.828125 C 291.40625 78.828125 294.722656 80.640625 298.03125 82.460938 C 298.058594 82.476562 298.542969 81.65625 298.8125 80.527344 M 216.523438 280.472656 C 216.097656 279.960938 215.675781 279.453125 215.25 278.941406 C 212.992188 281.007812 210.367188 282.820312 208.632812 285.257812 C 207.851562 286.351562 208.582031 288.789062 209.121094 290.460938 C 209.5 291.640625 210.523438 291.941406 211.300781 290.316406 C 212.835938 287.109375 214.539062 283.984375 216.523438 280.472656 M 166.796875 269.265625 C 164.878906 269.046875 164.371094 269.964844 165.46875 271.378906 C 167.824219 274.40625 170.355469 277.300781 172.871094 280.195312 C 173.265625 280.652344 173.972656 280.832031 174.535156 281.140625 C 174.640625 280.484375 174.871094 279.824219 174.832031 279.175781 C 174.542969 274.179688 171.324219 271.507812 166.796875 269.265625 M 72.601562 84.726562 C 68.210938 87.0625 66.558594 91.546875 64.253906 95.5 C 64.046875 95.859375 64.59375 96.695312 64.886719 97.261719 C 64.929688 97.347656 65.6875 97.277344 65.800781 97.089844 C 68.210938 93.101562 70.578125 89.085938 72.601562 84.726562 M 137.382812 89.980469 C 138.421875 90.34375 139.460938 90.707031 140.5 91.066406 C 139.867188 90.179688 139.425781 89.015625 138.578125 88.449219 C 134.152344 85.492188 129.632812 82.671875 125.109375 79.855469 C 124.78125 79.648438 124.195312 79.855469 123.726562 79.871094 C 124.042969 80.207031 124.308594 80.605469 124.675781 80.867188 C 128.785156 83.800781 132.910156 86.710938 137.382812 89.980469 M 111.472656 113.089844 C 113.355469 113.324219 115.234375 113.648438 117.125 113.746094 C 117.820312 113.78125 118.546875 113.285156 119.238281 112.988281 C 119.273438 112.972656 119.1875 112.476562 119.050781 112.28125 C 118.027344 110.835938 111.457031 109.222656 110.03125 110.355469 C 108.785156 111.347656 106.882812 113.582031 107.199219 114.109375 C 108.535156 116.332031 109.695312 113.421875 111.472656 113.089844 M 286.207031 111.339844 C 286.207031 110.523438 286.28125 109.699219 286.164062 108.898438 C 286.125 108.625 285.621094 108.265625 285.300781 108.230469 C 284.921875 108.1875 284.199219 108.386719 284.148438 108.601562 C 283.15625 112.863281 282.207031 117.136719 281.351562 121.429688 C 281.269531 121.851562 281.855469 122.402344 282.132812 122.894531 C 282.554688 122.4375 283.21875 122.042969 283.367188 121.503906 C 284.261719 118.25 285.039062 114.964844 286.207031 111.339844 M 94.3125 84.726562 C 94.78125 84.363281 95.246094 83.996094 95.714844 83.632812 C 95.515625 83.414062 95.234375 82.972656 95.132812 83.007812 C 92.21875 84.082031 89.308594 85.179688 86.433594 86.355469 C 86.152344 86.472656 86.078125 87.105469 85.910156 87.5 C 86.378906 87.503906 86.894531 87.640625 87.316406 87.496094 C 89.542969 86.726562 91.75 85.890625 94.3125 84.726562 M 276.050781 93.480469 C 275.476562 94.058594 274.59375 94.546875 274.394531 95.230469 C 274.105469 96.234375 274.203125 97.390625 274.347656 98.453125 C 274.414062 98.929688 274.996094 99.335938 275.339844 99.773438 C 275.929688 98.859375 276.835938 98.003906 277.011719 97.015625 C 277.1875 96.023438 276.636719 94.898438 276.050781 93.480469 M 187.457031 308.136719 C 188.609375 308.71875 189.734375 309.355469 190.921875 309.855469 C 191.269531 310 191.816406 309.824219 192.195312 309.640625 C 192.332031 309.578125 192.382812 308.875 192.242188 308.765625 C 190.84375 307.703125 189.445312 306.621094 187.925781 305.75 C 187.617188 305.574219 186.8125 306.265625 186.238281 306.554688 C 186.527344 306.964844 186.816406 307.375 187.457031 308.136719 M 169.949219 257.710938 C 169.488281 259.898438 171.078125 259.558594 172.238281 259.410156 C 172.886719 259.328125 173.46875 258.714844 174.082031 258.339844 C 173.171875 258.015625 172.265625 257.660156 171.34375 257.375 C 171.023438 257.277344 170.648438 257.359375 169.949219 257.710938 M 63.148438 139.003906 C 62.796875 139.503906 62.449219 140 62.097656 140.5 C 62.410156 140.703125 62.722656 140.902344 63.035156 141.105469 C 63.191406 140.519531 63.34375 139.9375 63.148438 139.003906 M 212.320312 308.484375 C 212.550781 308.015625 212.78125 307.546875 213.011719 307.074219 C 212.699219 306.929688 212.382812 306.78125 212.070312 306.636719 C 211.921875 307.25 211.769531 307.867188 212.320312 308.484375 Z M 212.320312 308.484375 " fill-opacity="1" fill-rule="nonzero"/></g></svg>