<svg xmlns="http://www.w3.org/2000/svg" xmlns:xlink="http://www.w3.org/1999/xlink" width="500" zoomAndPan="magnify" viewBox="0 0 375 374.999991" height="500" preserveAspectRatio="xMidYMid meet" version="1.0"><defs><clipPath id="3808c6ecfb"><path d="M 37.5 154 L 347.25 154 L 347.25 221 L 37.5 221 Z M 37.5 154 " clip-rule="nonzero"/></clipPath></defs><g clip-path="url(#3808c6ecfb)"><path fill="#ff3131" d="M 45.125 157.609375 C 45.789062 156.394531 47.445312 156.0625 48.660156 156.722656 C 49.875 157.496094 50.316406 159.042969 49.542969 160.261719 C 44.792969 168.4375 42.695312 174.734375 42.695312 179.375 C 42.695312 185.121094 46.230469 188.546875 52.195312 190.316406 C 58.9375 192.304688 68.550781 192.195312 79.820312 190.757812 C 116.949219 186.007812 170.542969 166.226562 195.847656 155.507812 C 199.824219 153.960938 202.144531 154.734375 203.25 157.386719 C 204.355469 160.039062 202.476562 166.007812 198.941406 173.1875 C 200.707031 172.527344 202.253906 172.195312 203.472656 172.195312 C 205.679688 172.414062 207.117188 173.519531 207.558594 175.839844 C 208.332031 179.488281 208.332031 183.796875 207.671875 188.328125 C 211.09375 185.566406 214.964844 182.914062 219.273438 181.035156 C 225.570312 178.273438 228.996094 179.488281 230.433594 182.914062 C 231.757812 185.894531 230.652344 190.867188 228.664062 195.953125 C 238.941406 193.078125 253.96875 194.734375 271.871094 196.835938 C 293.085938 199.15625 318.5 202.140625 344.027344 198.160156 C 345.464844 197.941406 346.789062 198.933594 347.011719 200.371094 C 347.121094 201.808594 346.238281 203.132812 344.800781 203.355469 C 318.613281 207.332031 292.867188 204.460938 271.316406 202.027344 C 250.433594 199.597656 233.75 197.71875 225.351562 203.023438 C 222.257812 208.769531 218.277344 212.859375 216.953125 212.417969 C 216.839844 212.417969 216.730469 212.304688 216.730469 212.304688 C 215.183594 211.644531 214.742188 209.984375 215.625 207.332031 C 216.953125 203.90625 218.941406 201.253906 221.59375 199.265625 C 221.703125 198.933594 221.8125 198.605469 222.035156 198.273438 C 224.464844 193.078125 226.675781 187.222656 225.679688 185.011719 C 225.460938 184.460938 224.246094 184.570312 221.371094 185.785156 C 214.851562 188.660156 209.546875 193.078125 205.570312 197.5 C 203.800781 203.023438 201.371094 208.105469 198.386719 211.644531 C 198.386719 211.644531 198.277344 211.753906 198.277344 211.753906 C 197.28125 212.96875 196.398438 213.632812 195.625 213.851562 C 192.308594 215.066406 190.984375 213.410156 191.980469 209.652344 C 192.199219 208.546875 192.863281 207 193.746094 205.234375 C 195.292969 202.359375 197.613281 198.714844 200.929688 194.957031 C 201.039062 194.292969 201.261719 193.742188 201.371094 193.078125 C 202.808594 187.554688 203.359375 181.917969 202.585938 177.5 C 201.480469 177.609375 199.492188 178.601562 197.171875 180.039062 C 196.289062 180.59375 195.292969 181.253906 194.300781 181.917969 C 192.640625 184.679688 190.984375 187.554688 189.105469 190.316406 C 180.375 203.796875 169.769531 217.058594 164.574219 219.710938 C 161.8125 221.035156 159.824219 220.703125 158.496094 218.273438 C 155.402344 212.085938 169.769531 195.066406 183.359375 183.6875 C 185.792969 181.695312 188.222656 179.820312 190.542969 178.160156 C 195.847656 169.210938 199.382812 161.585938 198.5 159.375 C 198.277344 159.042969 198.5 160.148438 197.945312 160.371094 C 172.308594 171.089844 118.164062 191.089844 80.484375 195.953125 C 68.550781 197.5 58.164062 197.5 50.761719 195.289062 C 42.472656 192.859375 37.5 187.886719 37.5 179.375 C 37.5 173.742188 39.820312 166.667969 45.125 157.609375 Z M 163.027344 214.625 C 167.117188 211.863281 174.628906 202.582031 181.703125 192.195312 C 172.308594 200.59375 163.691406 210.316406 163.027344 214.625 Z M 163.027344 214.625 " fill-opacity="1" fill-rule="nonzero"/></g></svg>