<svg xmlns="http://www.w3.org/2000/svg" xmlns:xlink="http://www.w3.org/1999/xlink" width="200" zoomAndPan="magnify" viewBox="0 0 150 149.999998" height="200" preserveAspectRatio="xMidYMid meet" version="1.0"><defs><clipPath id="0c99a92547"><path d="M 18.804688 3.636719 L 131 3.636719 L 131 146.136719 L 18.804688 146.136719 Z M 18.804688 3.636719 " clip-rule="nonzero"/></clipPath></defs><g clip-path="url(#0c99a92547)"><path fill="#eeefef" d="M 29.78125 134.722656 C 30.644531 134.722656 32.25 135.683594 33.5625 136.996094 C 34.921875 138.378906 35.808594 139.886719 35.808594 140.875 C 35.808594 141.789062 34.996094 143.347656 33.933594 144.433594 C 32.796875 145.59375 31.363281 146.359375 30.375 146.359375 C 29.335938 146.359375 27.902344 145.570312 26.640625 144.261719 C 24.863281 142.433594 24.640625 141.863281 25.035156 139.910156 C 25.28125 138.652344 26.097656 136.96875 26.863281 136.179688 C 27.628906 135.386719 28.941406 134.722656 29.78125 134.722656 Z M 28.941406 141.367188 C 29.164062 141.988281 29.78125 142.480469 30.324219 142.480469 C 30.84375 142.480469 31.4375 142.210938 31.609375 141.839844 C 31.78125 141.492188 31.78125 140.601562 31.609375 139.910156 C 31.4375 139.195312 30.84375 138.601562 30.300781 138.601562 C 29.753906 138.601562 29.136719 138.972656 28.941406 139.417969 C 28.71875 139.863281 28.742188 140.726562 28.941406 141.367188 Z M 117.835938 4.183594 C 118.503906 4.800781 118.328125 5.738281 116.898438 9.027344 C 115.660156 11.792969 114.746094 13.078125 113.957031 13.054688 C 113.335938 13.054688 112.671875 12.683594 112.472656 12.238281 C 112.25 11.792969 112.769531 9.867188 113.585938 7.9375 C 114.425781 6.035156 115.539062 4.230469 116.054688 3.933594 C 116.625 3.636719 117.339844 3.738281 117.835938 4.183594 Z M 100.808594 11.769531 C 101.203125 11.792969 103.105469 12.585938 105.058594 13.546875 C 107.035156 14.511719 108.714844 15.75 108.839844 16.292969 C 108.9375 16.8125 108.59375 17.476562 108.023438 17.75 C 107.40625 18.046875 105.480469 17.527344 103.105469 16.441406 C 100.882812 15.425781 99.175781 14.214844 99.128906 13.648438 C 99.078125 13.078125 99.277344 12.410156 99.570312 12.191406 C 99.867188 11.941406 100.414062 11.769531 100.808594 11.769531 Z M 125.769531 13.722656 C 128.265625 13.671875 129.625 13.945312 130.316406 14.660156 C 131.105469 15.5 131.132812 15.824219 130.441406 16.464844 C 129.96875 16.910156 128.660156 17.15625 127.523438 17.035156 C 126.386719 16.933594 124.210938 17.132812 122.703125 17.527344 C 120.851562 17.996094 119.640625 18.023438 118.972656 17.578125 C 118.378906 17.183594 118.207031 16.539062 118.503906 15.921875 C 118.773438 15.378906 119.714844 14.6875 120.605469 14.363281 C 121.492188 14.042969 123.816406 13.769531 125.769531 13.722656 Z M 109.582031 21.433594 C 109.777344 21.40625 110.296875 21.851562 110.742188 22.394531 C 111.410156 23.238281 111.039062 24.003906 108.542969 27.117188 C 106.886719 29.167969 105.132812 31.070312 104.664062 31.34375 C 104.167969 31.589844 103.476562 31.664062 103.132812 31.492188 C 102.761719 31.316406 102.488281 30.652344 102.488281 30.03125 C 102.511719 29.414062 103.574219 27.585938 104.859375 25.980469 C 106.171875 24.398438 107.679688 22.71875 108.222656 22.273438 C 108.789062 21.828125 109.382812 21.457031 109.582031 21.433594 Z M 117.515625 21.457031 C 117.960938 21.433594 119.246094 22.101562 120.355469 22.914062 C 121.492188 23.707031 123.027344 25.164062 123.765625 26.152344 C 124.507812 27.140625 124.976562 28.378906 124.804688 28.894531 C 124.632812 29.441406 124.113281 29.882812 123.667969 29.882812 C 123.222656 29.882812 121.269531 28.453125 119.320312 26.671875 C 116.773438 24.398438 115.882812 23.164062 116.203125 22.445312 C 116.476562 21.902344 117.042969 21.457031 117.515625 21.457031 Z M 82.421875 27.339844 C 84.027344 27.289062 86.796875 27.683594 88.574219 28.203125 C 90.578125 28.773438 93.023438 30.207031 95.023438 31.984375 C 97.027344 33.738281 98.90625 36.1875 99.894531 38.335938 C 101.300781 41.402344 101.5 42.734375 101.5 48.964844 C 101.5 55.363281 101.351562 56.378906 99.894531 58.972656 C 98.632812 61.195312 97.398438 62.308594 94.433594 63.839844 C 91.390625 65.375 89.5625 65.84375 85.707031 66.042969 C 81.902344 66.214844 80.148438 65.992188 77.875 65.027344 C 76.292969 64.359375 73.574219 62.480469 71.867188 60.902344 C 69.71875 58.921875 68.332031 56.921875 67.417969 54.476562 C 66.53125 52.078125 66.085938 49.308594 66.085938 46.046875 C 66.058594 42.144531 66.40625 40.4375 67.816406 37.324219 C 68.753906 35.171875 70.1875 32.75 70.976562 31.910156 C 71.746094 31.070312 73.203125 29.933594 74.191406 29.390625 C 75.203125 28.847656 76.8125 28.15625 77.75 27.882812 C 78.714844 27.609375 80.8125 27.363281 82.421875 27.339844 Z M 74.09375 33.960938 C 73.277344 34.730469 71.964844 36.53125 71.199219 37.964844 C 70.089844 40.015625 69.816406 41.671875 69.792969 46.046875 C 69.792969 50.644531 70.0625 52.078125 71.421875 54.746094 C 72.386719 56.648438 74.066406 58.625 75.625 59.691406 C 77.03125 60.679688 79.601562 61.863281 81.308594 62.335938 C 84.050781 63.101562 84.941406 63.074219 88.746094 62.039062 C 91.144531 61.371094 93.886719 60.28125 94.875 59.589844 C 96.113281 58.726562 96.976562 57.21875 97.71875 54.625 C 98.410156 52.128906 98.632812 49.753906 98.386719 47.355469 C 98.164062 45.378906 97.472656 42.339844 96.828125 40.5625 C 96.210938 38.804688 94.800781 36.507812 93.738281 35.445312 C 92.675781 34.40625 90.625 33.023438 89.21875 32.378906 C 87.609375 31.640625 85.164062 31.21875 82.742188 31.21875 C 80.59375 31.242188 78.121094 31.539062 77.230469 31.886719 C 76.339844 32.257812 74.933594 33.171875 74.09375 33.960938 Z M 46.710938 35.816406 C 47.300781 35.941406 47.871094 36.457031 47.96875 37.003906 C 48.09375 37.519531 47.054688 39.648438 45.71875 41.699219 C 44.261719 43.898438 42.804688 45.429688 42.136719 45.40625 C 41.421875 45.40625 41 44.910156 41 44.121094 C 41 43.402344 41.320312 42.167969 41.71875 41.351562 C 42.113281 40.5625 43.175781 38.953125 44.066406 37.769531 C 44.953125 36.582031 46.140625 35.71875 46.710938 35.816406 Z M 28.519531 40.214844 C 29.164062 40.214844 30.398438 40.710938 31.289062 41.300781 C 32.175781 41.894531 33.859375 43.28125 35.019531 44.367188 C 36.179688 45.480469 37.121094 46.738281 37.121094 47.183594 C 37.121094 47.628906 36.675781 48.148438 36.132812 48.320312 C 35.613281 48.496094 33.832031 47.703125 32.226562 46.542969 C 30.597656 45.378906 28.667969 43.996094 27.925781 43.476562 C 27.035156 42.835938 26.691406 42.09375 26.960938 41.351562 C 27.183594 40.734375 27.878906 40.238281 28.519531 40.214844 Z M 48.265625 49.308594 C 49.082031 49.308594 50.886719 49.851562 52.320312 50.496094 C 53.753906 51.136719 55.285156 52.152344 55.730469 52.746094 C 56.175781 53.339844 56.371094 54.105469 56.199219 54.476562 C 56.027344 54.820312 55.359375 55.117188 54.742188 55.09375 C 54.125 55.09375 52.097656 54.375 50.21875 53.488281 C 47.796875 52.324219 46.808594 51.507812 46.808594 50.59375 C 46.808594 49.679688 47.253906 49.285156 48.265625 49.308594 Z M 34.054688 53.339844 C 34.5 53.488281 34.921875 54.152344 35.042969 54.847656 C 35.144531 55.5625 34.328125 56.996094 33.09375 58.230469 C 31.832031 59.492188 30.449219 60.28125 29.730469 60.183594 C 29.039062 60.058594 28.371094 59.617188 28.273438 59.171875 C 28.148438 58.726562 29.238281 57.167969 30.667969 55.710938 C 32.101562 54.253906 33.636719 53.191406 34.054688 53.339844 Z M 43.296875 55.761719 C 43.816406 55.761719 44.65625 56.425781 45.203125 57.21875 C 45.746094 58.007812 46.191406 59.617188 46.164062 60.777344 C 46.164062 61.9375 45.867188 63.027344 45.523438 63.199219 C 45.175781 63.371094 44.507812 63.273438 44.066406 62.953125 C 43.621094 62.628906 42.902344 61.171875 42.457031 59.714844 C 42.011719 58.257812 41.792969 56.773438 41.988281 56.402344 C 42.1875 56.058594 42.78125 55.761719 43.296875 55.761719 Z M 56.050781 66.78125 C 57.730469 66.78125 60.054688 67.203125 61.214844 67.722656 C 62.378906 68.242188 64.332031 69.722656 65.589844 71.007812 C 67.46875 72.9375 67.890625 73.898438 68.113281 76.667969 C 68.332031 79.660156 68.136719 80.277344 66.40625 82.304688 C 65.34375 83.539062 62.898438 85.417969 60.96875 86.453125 C 58.671875 87.691406 56.519531 88.332031 54.59375 88.359375 C 52.691406 88.382812 50.8125 87.886719 49.253906 86.972656 C 47.921875 86.183594 46.386719 84.652344 45.84375 83.589844 C 45.324219 82.523438 44.878906 80.351562 44.878906 78.742188 C 44.878906 77.136719 45.425781 74.742188 46.117188 73.40625 C 46.785156 72.070312 48.019531 70.367188 48.859375 69.601562 C 49.699219 68.859375 50.960938 67.917969 51.675781 67.523438 C 52.394531 67.128906 54.347656 66.808594 56.050781 66.78125 Z M 50.8125 72.664062 C 50.09375 73.503906 49.179688 75.011719 48.808594 76 C 48.414062 76.964844 48.117188 78.496094 48.117188 79.386719 C 48.117188 80.324219 48.933594 81.832031 50.046875 82.945312 C 51.347656 84.246094 52.640625 84.898438 53.925781 84.898438 C 55.011719 84.898438 56.816406 84.503906 57.980469 84.03125 C 59.140625 83.5625 61.167969 82.253906 62.5 81.117188 C 63.984375 79.855469 64.949219 78.496094 64.949219 77.605469 C 64.949219 76.816406 64.40625 75.285156 63.761719 74.195312 C 63.121094 73.132812 61.511719 71.75 60.203125 71.132812 C 58.894531 70.515625 57.164062 70.019531 56.371094 70.042969 C 55.558594 70.070312 54.273438 70.316406 53.53125 70.589844 C 52.765625 70.886719 51.527344 71.800781 50.8125 72.664062 Z M 89.488281 77.113281 C 90.578125 77.113281 92.28125 77.53125 93.246094 78.003906 C 94.234375 78.496094 95.394531 79.660156 95.839844 80.597656 C 96.285156 81.535156 96.65625 82.871094 96.65625 83.589844 C 96.65625 84.304688 96.261719 85.6875 95.765625 86.675781 C 95.296875 87.640625 94.035156 88.828125 93.023438 89.296875 C 91.984375 89.792969 90.28125 90.011719 89.21875 89.792969 C 88.15625 89.59375 86.597656 88.777344 85.804688 87.960938 C 84.992188 87.171875 84.152344 85.34375 83.902344 83.910156 C 83.53125 81.609375 83.707031 81.09375 85.484375 79.214844 C 86.894531 77.730469 88.082031 77.113281 89.488281 77.113281 Z M 87.460938 83.21875 C 87.511719 83.957031 87.90625 84.945312 88.375 85.390625 C 88.847656 85.863281 89.933594 86.132812 90.824219 86.035156 C 92.207031 85.886719 92.453125 85.539062 92.453125 83.589844 C 92.453125 81.535156 92.257812 81.3125 90.476562 81.140625 C 89.390625 81.019531 88.253906 81.140625 87.957031 81.414062 C 87.636719 81.660156 87.414062 82.476562 87.460938 83.21875 Z M 32.449219 86.332031 C 33.3125 86.503906 33.511719 87.171875 33.386719 89.445312 C 33.3125 91.027344 32.820312 92.757812 32.300781 93.300781 C 31.734375 93.894531 30.941406 94.066406 30.347656 93.792969 C 29.679688 93.472656 29.433594 92.707031 29.632812 91.519531 C 29.78125 90.53125 30.226562 88.925781 30.644531 87.914062 C 31.113281 86.726562 31.757812 86.15625 32.449219 86.332031 Z M 21.203125 89.394531 C 21.574219 89.394531 22.785156 90.261719 23.847656 91.324219 C 25.160156 92.632812 25.628906 93.597656 25.308594 94.265625 C 25.035156 94.808594 24.441406 95.253906 23.996094 95.277344 C 23.550781 95.277344 22.390625 94.683594 21.425781 93.96875 C 20.4375 93.25 19.597656 92.113281 19.523438 91.472656 C 19.472656 90.804688 19.671875 90.085938 19.96875 89.839844 C 20.265625 89.617188 20.808594 89.421875 21.203125 89.394531 Z M 74.167969 92.65625 C 75.128906 92.65625 76.886719 93.027344 78.046875 93.5 C 79.207031 93.96875 80.9375 95.351562 81.902344 96.585938 C 83.1875 98.195312 83.679688 99.554688 83.679688 101.554688 C 83.707031 103.753906 83.285156 104.769531 81.605469 106.671875 C 80.445312 107.980469 78.34375 109.5625 76.910156 110.230469 C 75.5 110.871094 73.226562 111.390625 71.894531 111.414062 C 70.558594 111.414062 68.605469 110.996094 67.519531 110.453125 C 66.457031 109.910156 64.996094 108.523438 64.304688 107.386719 C 63.539062 106.152344 62.996094 104.125 62.996094 102.519531 C 62.996094 100.34375 63.441406 99.28125 65.097656 97.402344 C 66.257812 96.09375 68.382812 94.511719 69.792969 93.867188 C 71.226562 93.203125 73.179688 92.683594 74.167969 92.65625 Z M 67 100.839844 C 66.257812 102.421875 66.28125 102.988281 67.148438 104.792969 C 67.714844 105.953125 68.976562 107.214844 69.964844 107.585938 C 71.175781 108.078125 72.4375 108.078125 73.992188 107.632812 C 75.253906 107.289062 77.207031 106.101562 78.367188 104.988281 C 79.527344 103.902344 80.46875 102.421875 80.46875 101.703125 C 80.46875 101.011719 79.75 99.554688 78.863281 98.492188 C 77.527344 96.882812 76.761719 96.539062 74.488281 96.539062 C 72.929688 96.5625 70.902344 97.082031 69.792969 97.773438 C 68.730469 98.441406 67.46875 99.824219 67 100.839844 Z M 39.9375 95.375 C 42.753906 95.550781 43.25 95.773438 43.25 96.859375 C 43.25 97.898438 42.605469 98.269531 39.863281 98.8125 C 37.09375 99.332031 36.28125 99.28125 35.441406 98.492188 C 34.523438 97.601562 34.523438 97.402344 35.515625 96.339844 C 36.355469 95.449219 37.417969 95.226562 39.9375 95.375 Z M 95.097656 97.824219 C 95.246094 97.824219 95.839844 98.046875 96.433594 98.316406 C 97.027344 98.589844 98.1875 99.824219 98.980469 101.0625 C 99.792969 102.320312 100.3125 103.703125 100.164062 104.148438 C 100.015625 104.59375 99.375 104.964844 98.757812 104.964844 C 98.140625 104.988281 96.679688 103.804688 95.519531 102.371094 C 93.863281 100.320312 93.566406 99.578125 94.136719 98.8125 C 94.53125 98.269531 94.976562 97.824219 95.097656 97.824219 Z M 24.640625 99.777344 C 25.675781 99.777344 26.097656 100.144531 26.097656 101.0625 C 26.097656 101.949219 25.234375 102.789062 23.355469 103.703125 C 21.847656 104.445312 20.242188 104.890625 19.796875 104.667969 C 19.351562 104.472656 18.957031 103.851562 18.90625 103.335938 C 18.855469 102.789062 19.796875 101.777344 21.007812 101.0625 C 22.21875 100.34375 23.847656 99.777344 24.640625 99.777344 Z M 110.890625 99.949219 C 111.433594 100.023438 111.929688 100.765625 112.027344 101.554688 C 112.152344 102.59375 111.707031 103.210938 110.570312 103.65625 C 109.679688 104 108.148438 104.917969 107.160156 105.683594 C 106.121094 106.496094 104.933594 106.894531 104.269531 106.644531 C 103.625 106.421875 103.132812 105.878906 103.105469 105.433594 C 103.105469 104.988281 103.75 104 104.5625 103.210938 C 105.378906 102.445312 106.914062 101.332031 107.976562 100.789062 C 109.039062 100.21875 110.347656 99.851562 110.890625 99.949219 Z M 31.1875 101.851562 C 31.757812 101.949219 32.597656 102.765625 33.042969 103.65625 C 33.511719 104.546875 33.808594 106.300781 33.710938 107.535156 C 33.585938 109.242188 33.214844 109.859375 32.25 110.007812 C 31.164062 110.15625 30.84375 109.636719 30.152344 106.597656 C 29.707031 104.621094 29.53125 102.691406 29.753906 102.320312 C 29.953125 101.949219 30.621094 101.726562 31.1875 101.851562 Z M 46.164062 102.691406 C 47.425781 102.914062 49.105469 103.753906 49.898438 104.519531 C 50.710938 105.285156 51.527344 106.792969 51.726562 107.855469 C 51.925781 108.917969 51.703125 110.648438 51.230469 111.664062 C 50.761719 112.699219 49.574219 113.9375 48.585938 114.429688 C 47.625 114.902344 45.941406 115.296875 44.878906 115.296875 C 43.578125 115.296875 42.285156 114.652344 41 113.367188 C 39.320312 111.6875 39.074219 111.019531 39.222656 108.375 C 39.34375 105.683594 39.640625 105.136719 41.644531 103.804688 C 43.398438 102.617188 44.410156 102.371094 46.164062 102.691406 Z M 42.605469 109.488281 C 42.78125 110.203125 43.445312 111.046875 44.066406 111.339844 C 44.730469 111.6875 45.820312 111.6875 46.660156 111.339844 C 47.550781 110.996094 48.117188 110.230469 48.117188 109.316406 C 48.117188 108.523438 47.773438 107.484375 47.328125 107.042969 C 46.859375 106.597656 45.867188 106.226562 45.101562 106.226562 C 44.363281 106.25 43.398438 106.671875 43.003906 107.214844 C 42.605469 107.757812 42.433594 108.769531 42.605469 109.488281 Z M 93.417969 108.253906 C 94.308594 108.226562 95.421875 108.425781 95.890625 108.671875 C 96.359375 108.945312 96.65625 109.734375 96.53125 110.453125 C 96.359375 111.5625 95.742188 111.761719 92.28125 111.910156 C 88.449219 112.058594 88.253906 111.984375 88.402344 110.648438 C 88.5 109.734375 89.167969 109.042969 90.179688 108.769531 C 91.070312 108.523438 92.527344 108.300781 93.417969 108.253906 Z M 107.40625 110.773438 C 107.554688 110.773438 108.59375 111.242188 109.753906 111.8125 C 110.914062 112.40625 112.523438 113.492188 113.335938 114.257812 C 114.152344 115 114.796875 116.136719 114.796875 116.753906 C 114.796875 117.398438 114.351562 118.039062 113.808594 118.210938 C 113.265625 118.410156 111.832031 117.742188 110.621094 116.753906 C 109.382812 115.789062 107.726562 114.503906 106.886719 113.9375 C 105.601562 113.023438 105.503906 112.75 106.269531 111.835938 C 106.765625 111.242188 107.257812 110.773438 107.40625 110.773438 Z M 100.882812 114.011719 C 101.402344 114.011719 101.921875 114.457031 102.042969 114.972656 C 102.167969 115.492188 102.019531 117.324219 101.722656 119.027344 C 101.449219 120.707031 100.832031 122.4375 100.386719 122.882812 C 99.867188 123.351562 99.203125 123.425781 98.582031 123.082031 C 97.84375 122.636719 97.71875 121.871094 98.113281 119.546875 C 98.386719 117.941406 98.90625 116.011719 99.25 115.296875 C 99.621094 114.605469 100.363281 114.011719 100.882812 114.011719 Z M 56.695312 116.011719 C 57.3125 115.988281 58.84375 116.976562 60.078125 118.210938 C 61.808594 119.941406 62.351562 121.03125 62.351562 122.757812 C 62.351562 123.996094 61.910156 125.898438 61.390625 126.960938 C 60.84375 128.023438 59.832031 129.183594 59.117188 129.554688 C 58.398438 129.902344 56.867188 130.199219 55.730469 130.199219 C 54.566406 130.199219 52.664062 129.605469 51.503906 128.886719 C 50.34375 128.195312 49.082031 126.8125 48.710938 125.824219 C 48.214844 124.589844 48.214844 123.351562 48.660156 121.769531 C 49.03125 120.535156 49.847656 119.003906 50.492188 118.386719 C 51.15625 117.765625 52.542969 117 53.605469 116.65625 C 54.691406 116.332031 56.074219 116.039062 56.695312 116.011719 Z M 52.144531 123.550781 C 52.269531 124.785156 52.886719 125.578125 54.097656 126.144531 C 55.210938 126.640625 56.296875 126.738281 57.015625 126.390625 C 57.632812 126.097656 58.347656 125.03125 58.621094 124.042969 C 58.941406 122.785156 58.769531 121.917969 57.953125 121.03125 C 57.359375 120.363281 56.421875 119.792969 55.878906 119.820312 C 55.335938 119.820312 54.246094 120.261719 53.457031 120.808594 C 52.441406 121.472656 52.046875 122.316406 52.144531 123.550781 Z M 48.019531 134.300781 C 48.957031 134.671875 50.242188 135.4375 50.886719 135.980469 C 51.554688 136.574219 52.023438 137.859375 52.023438 139.09375 C 51.996094 140.304688 51.453125 141.738281 50.710938 142.480469 C 49.972656 143.199219 48.539062 143.789062 47.476562 143.789062 C 46.386719 143.789062 45.003906 143.542969 44.386719 143.222656 C 43.769531 142.925781 42.855469 141.664062 42.359375 140.480469 C 41.617188 138.625 41.617188 138.007812 42.359375 136.476562 C 42.855469 135.488281 43.941406 134.425781 44.78125 134.152344 C 45.648438 133.855469 47.054688 133.90625 48.019531 134.300781 Z M 46.511719 140.378906 C 47.054688 140.652344 47.796875 140.578125 48.144531 140.230469 C 48.511719 139.863281 48.636719 139.070312 48.4375 138.453125 C 48.265625 137.808594 47.523438 137.316406 46.808594 137.316406 C 45.953125 137.316406 45.523438 137.746094 45.523438 138.601562 C 45.523438 139.316406 45.96875 140.109375 46.511719 140.378906 Z M 46.511719 140.378906 " fill-opacity="1" fill-rule="evenodd"/></g></svg>