<svg xmlns="http://www.w3.org/2000/svg" xmlns:xlink="http://www.w3.org/1999/xlink" width="200" zoomAndPan="magnify" viewBox="0 0 150 149.999998" height="200" preserveAspectRatio="xMidYMid meet" version="1.0"><defs><clipPath id="fde745893f"><path d="M 32.523438 0 L 117.273438 0 L 117.273438 150 L 32.523438 150 Z M 32.523438 0 " clip-rule="nonzero"/></clipPath></defs><g clip-path="url(#fde745893f)"><path fill="#000000" d="M 65.804688 41.148438 C 65.726562 40.453125 65.839844 39.789062 66.136719 39.15625 C 66.4375 38.523438 66.878906 38.011719 67.464844 37.632812 C 67.703125 37.414062 67.828125 37.144531 67.828125 36.820312 C 67.800781 35.507812 67.710938 34.195312 67.640625 32.808594 C 67.363281 32.957031 67.074219 33.0625 66.769531 33.128906 C 66.5 33.15625 66.257812 33.085938 66.046875 32.917969 C 65.300781 32.105469 64.71875 31.101562 63.878906 30.414062 C 58.613281 26.136719 56.894531 18.339844 59.019531 12.183594 C 60.839844 6.964844 64.40625 3.730469 69.292969 1.714844 C 70.367188 1.292969 71.484375 1.054688 72.636719 1 C 73.46875 0.957031 74.320312 1.339844 75.371094 1.582031 C 77.398438 0.203125 79.90625 0.5 82.285156 1.140625 C 87.722656 2.613281 91.632812 5.90625 93.246094 11.472656 C 93.636719 12.695312 93.800781 13.949219 93.738281 15.230469 C 93.675781 16.511719 93.386719 17.742188 92.878906 18.917969 C 92.066406 20.714844 91.257812 22.5 90.578125 24.34375 C 90.171875 25.527344 90.035156 26.8125 89.726562 28.039062 C 88.882812 31.429688 87.699219 34.691406 85.699219 37.582031 C 85.128906 38.328125 84.523438 39.042969 83.875 39.722656 C 84.082031 40.304688 84.328125 40.871094 84.613281 41.417969 C 84.824219 41.761719 85.121094 41.996094 85.503906 42.121094 C 86.5 42.390625 87.515625 42.542969 88.546875 42.578125 C 93.65625 42.511719 95.8125 45.207031 97.011719 49.425781 C 98.402344 54.347656 99.675781 59.300781 100.832031 64.289062 C 101.460938 67 101.699219 69.800781 102.183594 72.546875 C 102.886719 76.507812 103.753906 80.445312 104.367188 84.425781 C 104.644531 86.492188 104.730469 88.570312 104.628906 90.65625 C 104.628906 91.34375 104.050781 92.113281 103.554688 92.683594 C 101.878906 94.589844 99.675781 95.804688 97.582031 97.148438 C 96.304688 97.960938 95.152344 98.980469 93.933594 99.925781 C 93.78125 100.046875 93.738281 100.3125 93.648438 100.515625 C 93.429688 100.992188 93.191406 101.464844 93.007812 101.957031 C 92.933594 102.164062 92.933594 102.371094 93.007812 102.582031 C 94.222656 105.554688 94.699219 108.667969 95.136719 111.832031 C 95.574219 114.992188 96.050781 118.054688 96.496094 121.167969 C 97.296875 127.21875 97.6875 133.292969 97.667969 139.398438 C 97.707031 144.871094 98.019531 150.355469 98.125 155.828125 C 98.203125 159.863281 98.125 163.902344 98.125 167.9375 C 98.125 169.910156 98.3125 171.886719 98.273438 173.855469 C 98.207031 177.949219 98.042969 182.042969 97.914062 186.132812 C 97.808594 189.546875 97.710938 192.960938 97.570312 196.375 C 97.515625 197.664062 97.246094 198.953125 97.246094 200.242188 C 97.246094 204.273438 97.28125 208.308594 97.410156 212.339844 C 97.445312 213.398438 97.9375 214.433594 98.101562 215.5 C 98.382812 217.359375 98.503906 219.246094 98.828125 221.089844 C 99.070312 222.421875 99.433594 223.710938 99.195312 225.089844 C 99.117188 225.550781 99.347656 226.058594 99.375 226.550781 C 99.414062 227.171875 99.375 227.792969 99.375 228.539062 C 101.570312 230.457031 104.335938 231.4375 107.476562 231.851562 C 109.910156 232.175781 112.277344 233.121094 114.636719 233.910156 C 115.035156 234.054688 115.394531 234.261719 115.722656 234.535156 C 116.046875 234.804688 116.316406 235.125 116.53125 235.488281 C 116.746094 235.855469 116.894531 236.246094 116.972656 236.664062 C 117.050781 237.078125 117.058594 237.496094 116.992188 237.917969 C 116.792969 239.226562 116.949219 240.675781 115.773438 241.632812 C 115.234375 242.113281 114.628906 242.492188 113.960938 242.761719 C 111.222656 243.707031 108.417969 244.5 105.511719 244.660156 C 102.976562 244.792969 100.378906 245 97.902344 244.601562 C 95.175781 244.160156 92.46875 244.429688 89.773438 244.148438 C 88.152344 243.957031 86.546875 243.65625 84.960938 243.25 C 83.714844 242.945312 83.550781 242.621094 83.460938 241.359375 C 83.46875 241.210938 83.433594 241.078125 83.355469 240.953125 C 82.542969 240.140625 82.617188 239.09375 82.613281 238.0625 C 82.613281 236.652344 82.558594 235.246094 82.558594 233.835938 C 82.558594 233.085938 82.867188 232.214844 82.597656 231.609375 C 82.324219 231.003906 81.40625 230.796875 80.976562 230.242188 C 80.617188 229.824219 80.359375 229.351562 80.207031 228.820312 C 80.050781 228.292969 80.011719 227.757812 80.085938 227.210938 C 80.097656 227.007812 80.132812 226.804688 80.195312 226.605469 C 80.394531 226.144531 80.472656 225.660156 80.429688 225.15625 C 80.386719 224.652344 80.226562 224.1875 79.945312 223.765625 C 79.644531 223.289062 79.433594 222.773438 79.316406 222.222656 C 79.230469 221.785156 79.191406 221.164062 79.4375 220.863281 C 80.652344 219.34375 80.527344 217.652344 80.285156 215.90625 C 80.167969 215.035156 80.074219 214.152344 80.011719 213.273438 C 79.605469 207.457031 79.269531 201.636719 78.871094 195.820312 C 78.5 190.414062 78.058594 185.007812 77.695312 179.601562 C 77.417969 175.609375 77.234375 171.605469 76.933594 167.613281 C 76.582031 162.886719 76.121094 158.167969 75.746094 153.445312 C 75.488281 150.335938 75.289062 147.222656 74.992188 144.109375 C 74.816406 142.363281 74.507812 140.644531 74.058594 138.945312 C 73.859375 140.707031 73.6875 142.476562 73.449219 144.222656 C 72.722656 149.589844 71.960938 154.949219 71.242188 160.308594 C 70.710938 164.28125 70.214844 168.253906 69.71875 172.222656 C 69.40625 174.707031 68.992188 177.183594 68.839844 179.675781 C 68.613281 183.289062 68.578125 186.917969 68.460938 190.539062 C 68.359375 193.542969 68.207031 196.542969 68.175781 199.546875 C 68.140625 202.195312 68.296875 204.851562 68.285156 207.5 C 68.285156 210.800781 68.144531 214.101562 68.121094 217.402344 C 68.167969 218.101562 68.273438 218.789062 68.4375 219.472656 C 68.539062 220.105469 68.792969 220.757812 68.726562 221.375 C 68.398438 224.214844 68.984375 226.933594 69.589844 229.667969 C 70.070312 231.855469 69.960938 234.003906 68.851562 236.023438 C 68.710938 236.21875 68.648438 236.4375 68.667969 236.679688 C 69.054688 237.757812 68.949219 238.828125 68.953125 239.945312 C 68.949219 240.929688 68.636719 241.800781 68.011719 242.558594 C 67.699219 242.980469 67.3125 243.3125 66.84375 243.554688 C 66.378906 243.796875 65.882812 243.921875 65.359375 243.933594 C 62.40625 244.128906 59.449219 244.386719 56.496094 244.433594 C 54.878906 244.398438 53.277344 244.21875 51.695312 243.890625 C 50.785156 243.738281 50.113281 242.4375 50.230469 241.457031 C 50.269531 241.167969 50.21875 240.898438 50.082031 240.644531 C 49.820312 240.265625 49.707031 239.84375 49.730469 239.382812 C 49.757812 238.925781 49.917969 238.519531 50.21875 238.171875 C 50.859375 237.359375 51.644531 236.691406 52.320312 235.917969 C 52.53125 235.628906 52.675781 235.3125 52.761719 234.964844 C 52.84375 234.503906 52.96875 234.058594 53.136719 233.621094 C 53.292969 233.347656 53.367188 233.054688 53.355469 232.738281 C 53.339844 232.421875 53.242188 232.136719 53.0625 231.875 C 52.613281 231.050781 52.238281 230.191406 51.9375 229.296875 C 51.695312 228.628906 51.597656 227.941406 51.640625 227.234375 C 51.902344 225.023438 51.777344 222.835938 51.265625 220.671875 C 51.214844 220.382812 51.191406 220.085938 51.1875 219.792969 C 50.898438 215.242188 50.601562 210.691406 50.324219 206.140625 C 50.175781 203.640625 50.066406 201.136719 49.949219 198.636719 C 49.679688 192.867188 49.308594 187.105469 49.175781 181.339844 C 49.050781 175.949219 49.132812 170.554688 49.226562 165.160156 C 49.355469 157.914062 49.523438 150.664062 49.78125 143.417969 C 49.980469 137.976562 50.269531 132.535156 50.679688 127.105469 C 50.984375 123.125 51.492188 119.15625 52.03125 115.195312 C 52.402344 112.441406 52.921875 109.695312 53.492188 106.976562 C 53.722656 105.867188 54.261719 104.828125 54.671875 103.730469 C 54.089844 103.246094 53.652344 102.652344 52.703125 102.746094 C 52.230469 102.796875 51.699219 102.339844 51.195312 102.078125 C 49.070312 101.023438 46.929688 99.984375 44.824219 98.878906 C 44.273438 98.539062 43.773438 98.132812 43.328125 97.660156 C 42.113281 96.542969 40.960938 95.378906 39.753906 94.265625 C 37.957031 92.613281 36.082031 91.015625 34.332031 89.339844 C 32.582031 87.664062 32.503906 85.570312 33.089844 83.425781 C 33.902344 80.507812 34.742188 77.601562 35.722656 74.742188 C 36.3125 73.03125 37.207031 71.429688 37.929688 69.761719 C 39.890625 65.203125 41.761719 60.605469 43.804688 56.089844 C 45.023438 53.417969 46.4375 50.832031 47.859375 48.273438 C 48.441406 47.242188 49.207031 46.371094 50.160156 45.667969 C 51.109375 44.960938 52.164062 44.476562 53.320312 44.214844 C 56.191406 43.484375 59.097656 42.886719 61.984375 42.183594 C 63.277344 41.90625 64.53125 41.507812 65.804688 41.148438 Z M 98.164062 227.207031 C 98.042969 226.484375 97.984375 225.753906 97.992188 225.019531 C 98.136719 223.828125 98.015625 222.664062 97.625 221.527344 C 97.519531 221.15625 97.453125 220.78125 97.421875 220.402344 C 97.167969 218.507812 96.9375 216.617188 96.675781 214.71875 C 96.492188 213.414062 96.144531 212.125 96.09375 210.820312 C 95.992188 207.882812 95.980469 204.9375 96.027344 201.992188 C 96.054688 200.113281 96.289062 198.238281 96.363281 196.359375 C 96.507812 192.621094 96.640625 188.882812 96.710938 185.144531 C 96.808594 180.050781 96.886719 174.957031 96.886719 169.859375 C 96.886719 164.496094 96.832031 159.132812 96.722656 153.769531 C 96.613281 148.972656 96.316406 144.179688 96.222656 139.378906 C 96.132812 134.222656 96.070312 129.074219 95.324219 123.953125 C 94.679688 119.53125 94.179688 115.089844 93.523438 110.675781 C 93.117188 108.019531 92.550781 105.398438 92.070312 102.859375 C 90.738281 103.238281 89.492188 103.640625 88.214844 103.945312 C 88.007812 104.019531 87.792969 104.039062 87.578125 104.003906 C 87.359375 103.96875 87.160156 103.886719 86.984375 103.753906 C 86.808594 103.621094 86.675781 103.453125 86.582031 103.253906 C 86.488281 103.050781 86.449219 102.84375 86.460938 102.621094 C 86.449219 101.914062 86.566406 101.226562 86.808594 100.5625 C 87.214844 99.417969 87.761719 98.320312 88.265625 97.171875 C 84.582031 98.160156 80.871094 97.464844 77.203125 97.691406 C 77.367188 98.179688 77.472656 98.683594 77.523438 99.199219 C 77.472656 102.085938 77.394531 104.972656 77.265625 107.859375 C 77.238281 108.410156 77.15625 109.074219 76.320312 109.382812 C 76.230469 109.035156 76.167969 108.683594 76.132812 108.324219 C 76.132812 106.824219 76.191406 105.324219 76.171875 103.824219 C 76.152344 102.320312 76.078125 100.703125 76 99.144531 C 75.945312 98.101562 75.480469 97.519531 74.628906 97.519531 C 71.015625 97.5 67.394531 97.519531 63.691406 97.519531 C 63.808594 97.925781 63.886719 98.152344 63.933594 98.375 C 64.335938 100.359375 64.835938 102.328125 65.105469 104.335938 C 65.359375 106.171875 64.160156 107.226562 62.367188 106.722656 C 60.230469 106.125 58.152344 105.3125 55.820312 104.511719 C 55.210938 107.171875 54.605469 109.890625 53.949219 112.582031 C 52.632812 117.832031 52.414062 123.222656 51.945312 128.570312 C 51.515625 133.441406 51.394531 138.3125 51.195312 143.210938 C 51.03125 147.367188 50.949219 151.519531 50.839844 155.671875 C 50.667969 162.007812 50.324219 168.34375 50.390625 174.671875 C 50.460938 182.242188 50.859375 189.808594 51.199219 197.371094 C 51.363281 201.25 51.660156 205.125 51.910156 209.007812 C 52.144531 212.675781 52.390625 216.347656 52.644531 220.015625 C 52.691406 220.660156 52.882812 221.289062 52.941406 221.929688 C 53.058594 223.148438 53.152344 224.367188 53.222656 225.585938 C 53.28125 226.726562 53.152344 227.894531 53.359375 229.003906 C 53.667969 230.625 54.203125 232.183594 54.644531 233.789062 C 54.929688 233.539062 55.332031 233.207031 55.710938 232.855469 C 56.363281 232.257812 56.96875 231.605469 57.660156 231.0625 C 58.625 230.308594 59.710938 229.625 60.984375 230.082031 C 62.125 230.472656 63.191406 231.015625 64.183594 231.707031 C 65.476562 232.648438 66.613281 233.808594 67.746094 234.8125 C 68.03125 234.21875 68.378906 233.523438 68.707031 232.820312 C 68.789062 232.667969 68.820312 232.507812 68.800781 232.335938 C 68.628906 231.605469 68.398438 230.890625 68.230469 230.15625 C 67.734375 227.742188 67.015625 225.359375 67.269531 222.847656 C 67.425781 221.59375 67.257812 220.382812 66.765625 219.214844 C 66.582031 218.683594 66.515625 218.132812 66.5625 217.570312 C 66.601562 213.621094 66.691406 209.671875 66.71875 205.722656 C 66.71875 203.75 66.59375 201.777344 66.613281 199.804688 C 66.65625 196.09375 66.730469 192.382812 66.84375 188.671875 C 66.9375 185.578125 67.039062 182.484375 67.25 179.398438 C 67.386719 177.371094 67.738281 175.375 67.980469 173.355469 C 68.429688 169.613281 68.839844 165.867188 69.332031 162.132812 C 69.640625 159.832031 70.144531 157.554688 70.4375 155.230469 C 71.054688 150.566406 71.578125 145.894531 72.1875 141.21875 C 72.429688 139.386719 72.8125 137.566406 73.097656 135.738281 C 73.53125 132.984375 73.875 130.210938 74.363281 127.46875 C 74.675781 125.714844 76.878906 124.21875 78.59375 124.460938 C 78.777344 124.484375 79.066406 124.617188 79.078125 124.726562 C 79.101562 124.960938 79.027344 125.15625 78.855469 125.316406 C 78.488281 125.554688 78.097656 125.753906 77.6875 125.914062 C 76.625 126.347656 75.769531 127.007812 75.589844 128.203125 C 75.1875 130.917969 74.578125 133.585938 75.140625 136.402344 C 75.753906 139.445312 76.058594 142.558594 76.394531 145.652344 C 76.800781 149.542969 77.15625 153.441406 77.496094 157.339844 C 77.765625 160.476562 78.007812 163.617188 78.242188 166.761719 C 78.652344 172.21875 79.058594 177.679688 79.457031 183.144531 C 79.722656 186.847656 79.941406 190.550781 80.222656 194.253906 C 80.597656 199.210938 81.03125 204.171875 81.410156 209.132812 C 81.609375 211.6875 81.777344 214.242188 81.902344 216.800781 C 81.953125 217.859375 82.078125 218.90625 81.285156 219.894531 C 80.878906 220.390625 80.441406 221.167969 80.839844 222.023438 C 81.625 223.71875 81.9375 225.445312 81.3125 227.300781 C 81.160156 227.753906 81.367188 228.648438 81.71875 228.875 C 82.933594 229.6875 84.265625 230.152344 85.769531 229.617188 C 87.511719 229 89.265625 228.429688 91.011719 227.828125 C 91.984375 227.5 92.9375 227.101562 93.925781 226.835938 C 94.523438 226.675781 95.128906 226.628906 95.742188 226.6875 C 96.558594 226.820312 97.367188 226.992188 98.164062 227.207031 Z M 89.808594 20.703125 C 90.210938 19.550781 90.210938 18.546875 89.042969 17.722656 C 88.460938 17.316406 88.074219 16.621094 87.621094 16.039062 C 86.5625 14.707031 85.59375 13.277344 84.441406 12.039062 C 82.773438 10.269531 81.429688 10.246094 79.460938 11.632812 C 79.160156 11.867188 78.820312 11.964844 78.441406 11.933594 C 78.175781 11.847656 77.902344 11.804688 77.625 11.816406 C 77.347656 11.824219 77.078125 11.878906 76.820312 11.980469 C 76.5625 12.082031 76.328125 12.226562 76.117188 12.410156 C 75.910156 12.59375 75.738281 12.808594 75.605469 13.054688 C 75.035156 14.183594 74.542969 15.34375 74.128906 16.539062 C 73.464844 18.136719 72.945312 19.8125 72.105469 21.308594 C 71.15625 23.007812 69.8125 23.109375 68.304688 21.863281 C 68.105469 21.667969 67.875 21.523438 67.617188 21.425781 C 67.355469 21.328125 67.085938 21.289062 66.8125 21.304688 C 66.535156 21.324219 66.273438 21.398438 66.027344 21.523438 C 65.78125 21.652344 65.570312 21.828125 65.398438 22.042969 C 64.375 23.136719 64.25 24.480469 64.457031 25.851562 C 64.769531 27.972656 65.535156 29.78125 67.925781 30.316406 C 68.210938 30.410156 68.425781 30.585938 68.570312 30.84375 C 68.898438 31.402344 69.167969 31.988281 69.382812 32.601562 C 70.136719 34.910156 71.691406 36.605469 73.5 38.113281 C 76.59375 40.691406 81.605469 41.15625 84.605469 37.167969 C 85.359375 36.117188 86.023438 35.015625 86.597656 33.855469 C 86.984375 33.023438 87.328125 32.171875 87.628906 31.304688 C 87.054688 31.476562 86.476562 31.613281 85.886719 31.707031 C 85.644531 31.734375 85.367188 31.488281 85.109375 31.367188 C 85.308594 31.195312 85.527344 31.0625 85.773438 30.960938 C 86.539062 30.796875 87.238281 30.554688 87.660156 29.835938 C 85.632812 27.351562 84.894531 24.75 86.089844 23.941406 C 86.246094 25.851562 86.742188 27.59375 88.484375 29.042969 C 88.921875 26.523438 89.320312 24.207031 89.699219 21.941406 L 88 21.4375 L 88.027344 21.078125 Z M 84.054688 231.855469 C 84.054688 234 84.054688 236.433594 84.054688 238.875 C 84.054688 239.613281 84.300781 240.171875 85.210938 240.171875 C 85.675781 240.214844 86.140625 240.28125 86.597656 240.375 C 88.859375 240.660156 91.109375 241.148438 93.398438 240.484375 C 95.363281 239.917969 97.285156 240 99.027344 241.253906 C 99.128906 241.316406 99.242188 241.34375 99.359375 241.339844 C 100.578125 241.371094 101.792969 241.328125 103.007812 241.210938 C 105.839844 240.78125 108.667969 240.28125 111.484375 239.707031 C 112.746094 239.429688 113.96875 239.03125 115.152344 238.515625 C 116.015625 238.160156 116.054688 236.894531 115.449219 236.234375 C 114.734375 235.460938 113.867188 234.941406 112.847656 234.679688 C 111.132812 234.183594 109.425781 233.636719 107.683594 233.253906 C 106.46875 232.980469 105.140625 232.621094 104.21875 234.007812 C 104.019531 234.234375 103.777344 234.390625 103.488281 234.472656 C 103.292969 234.550781 103.105469 234.53125 102.929688 234.417969 C 102.839844 234.230469 102.839844 234.042969 102.929688 233.855469 C 103.128906 233.449219 103.390625 233.085938 103.609375 232.734375 C 102.417969 231.921875 101.679688 232.558594 100.933594 233.296875 C 100.785156 233.441406 100.445312 233.394531 100.199219 233.4375 C 100.199219 233.203125 100.152344 232.921875 100.261719 232.746094 C 100.519531 232.339844 101.164062 231.703125 101.101562 231.625 C 100.082031 230.40625 98.957031 230 97.699219 231.21875 C 97.609375 231.304688 97.40625 231.269531 97.257812 231.292969 C 97.257812 231.117188 97.210938 230.886719 97.292969 230.777344 C 97.582031 230.3125 97.914062 229.878906 98.230469 229.4375 C 96.925781 227.902344 95.453125 227.773438 93.59375 228.515625 C 90.597656 229.730469 87.5 230.675781 84.054688 231.855469 Z M 52.285156 241.355469 C 53.867188 241.296875 55.324219 241.214844 56.785156 241.195312 C 60.027344 241.152344 63.269531 241.53125 66.429688 240.34375 C 67.605469 239.898438 68.121094 239.125 67.601562 237.941406 C 66.503906 235.453125 64.445312 233.78125 62.335938 232.308594 C 62.015625 232.066406 61.660156 231.886719 61.273438 231.769531 C 60.886719 231.652344 60.492188 231.609375 60.089844 231.640625 C 59.6875 231.667969 59.304688 231.769531 58.9375 231.9375 C 58.570312 232.109375 58.246094 232.339844 57.964844 232.628906 C 57.480469 233.09375 56.9375 233.503906 56.46875 233.988281 C 55.1875 235.324219 53.957031 236.710938 52.660156 238.023438 C 51.1875 239.507812 51.164062 239.484375 52.253906 241.269531 C 52.261719 241.296875 52.273438 241.328125 52.285156 241.355469 Z M 55.492188 90.011719 C 55.492188 85.714844 55.414062 81.660156 55.492188 77.609375 C 55.535156 75.886719 55.242188 74.222656 54.613281 72.617188 C 54.351562 71.921875 53.992188 71.265625 53.679688 70.585938 L 53.378906 70.585938 C 51.871094 74.789062 50.359375 78.992188 49.035156 82.671875 Z M 63.914062 105.152344 L 64.222656 105.070312 C 63.988281 104.15625 63.917969 103.15625 63.484375 102.351562 C 62.878906 101.222656 61.996094 100.242188 61.257812 99.183594 C 61.097656 98.902344 60.964844 98.613281 60.855469 98.3125 L 61.101562 98.125 L 63.085938 100.054688 C 62.636719 98.441406 61.902344 96.972656 60.878906 95.644531 C 60.472656 95.117188 60.113281 95.132812 59.617188 95.480469 C 57.636719 96.886719 55.808594 98.421875 54.855469 100.757812 C 54.777344 100.894531 54.730469 101.039062 54.710938 101.191406 C 54.695312 101.347656 54.707031 101.496094 54.753906 101.644531 C 54.796875 101.796875 54.871094 101.929688 54.96875 102.046875 C 55.070312 102.167969 55.1875 102.261719 55.328125 102.328125 C 56 102.753906 56.695312 103.136719 57.410156 103.476562 C 57.855469 103.644531 58.3125 103.769531 58.78125 103.855469 L 58.179688 102.207031 L 58.453125 102.050781 C 58.945312 102.613281 59.554688 103.109375 59.910156 103.746094 C 60.59375 104.964844 61.839844 105.007812 63.007812 105.371094 L 60.332031 101.363281 L 60.542969 101.203125 C 61.9375 102.253906 62.839844 103.78125 63.914062 105.152344 Z M 115.808594 240.003906 C 115.242188 240.242188 114.664062 240.441406 114.074219 240.601562 C 111.09375 241.21875 108.113281 241.890625 105.105469 242.363281 C 102.367188 242.796875 99.59375 243.210938 96.9375 241.773438 C 96.382812 241.472656 95.554688 241.574219 94.871094 241.640625 C 93.65625 241.769531 92.441406 242.203125 91.226562 242.160156 C 88.957031 242.078125 86.695312 241.757812 84.398438 241.511719 C 84.210938 241.953125 84.398438 242.167969 84.964844 242.296875 C 87.6875 242.976562 90.449219 243.222656 93.25 243.039062 C 94.902344 242.875 96.519531 243.023438 98.113281 243.492188 C 98.730469 243.675781 99.363281 243.765625 100.007812 243.765625 C 101.300781 243.765625 102.589844 243.699219 103.882812 243.644531 C 107.320312 243.472656 110.664062 242.804688 113.90625 241.640625 C 114.664062 241.390625 115.472656 241.042969 115.808594 240.003906 Z M 89.929688 99.40625 L 90.257812 99.628906 L 88.476562 102.59375 C 89.238281 102.59375 89.808594 102.410156 90.097656 101.582031 C 90.328125 101.132812 90.621094 100.726562 90.96875 100.363281 L 91.269531 100.550781 C 91.21875 100.757812 91.179688 100.957031 91.117188 101.171875 C 91.050781 101.386719 90.953125 101.625 90.785156 102.097656 C 91.527344 101.589844 92.066406 101.25 92.578125 100.878906 C 92.738281 100.753906 92.816406 100.589844 92.816406 100.390625 C 92.476562 98.371094 91.816406 96.464844 90.839844 94.664062 C 90.386719 95.671875 89.957031 96.617188 89.507812 97.621094 L 90.429688 97.308594 C 89.871094 99.148438 87.796875 99.90625 87.730469 101.964844 Z M 91.03125 73.835938 L 91.488281 73.980469 C 91.746094 73.433594 91.949219 72.871094 92.109375 72.289062 C 92.464844 70.328125 92.722656 68.351562 93.070312 66.390625 C 93.488281 64.101562 93.582031 61.804688 93.347656 59.488281 C 93.296875 59.257812 93.214844 59.03125 93.109375 58.820312 C 92.425781 63.84375 91.738281 68.851562 91.042969 73.851562 Z M 90.675781 89.140625 L 90.855469 89.183594 C 91.253906 88.644531 91.597656 88.070312 91.890625 87.46875 C 92.171875 86.722656 92.503906 85.875 92.402344 85.121094 C 92.136719 83.632812 91.792969 82.160156 91.367188 80.707031 L 91.226562 80.707031 C 91.050781 83.535156 90.871094 86.351562 90.6875 89.15625 Z M 54.925781 66.175781 L 55.246094 66.261719 C 56.84375 63.640625 57.207031 60.699219 57.273438 57.679688 C 56.496094 60.511719 55.710938 63.34375 54.925781 66.175781 Z M 63.136719 242.957031 L 63.136719 242.632812 C 59.1875 242.964844 55.261719 242.769531 51.363281 242.039062 C 51.632812 242.339844 51.929688 242.714844 52.28125 242.773438 C 53.351562 242.980469 54.433594 243.097656 55.523438 243.136719 C 56.71875 243.160156 57.917969 243.007812 59.117188 242.976562 C 60.449219 242.933594 61.792969 242.957031 63.136719 242.957031 Z M 68.863281 35.277344 C 68.902344 36.210938 68.949219 37.179688 68.996094 38.277344 L 71.746094 38.515625 Z M 46.582031 84.128906 C 45.605469 83.6875 44.9375 83.917969 44.4375 84.855469 Z M 96.144531 84.472656 C 95.972656 84.433594 95.800781 84.410156 95.625 84.414062 C 95.285156 84.496094 94.949219 84.605469 94.609375 84.703125 C 94.640625 84.808594 94.679688 85.003906 94.707031 85.003906 C 95.0625 84.992188 95.417969 84.949219 95.769531 84.878906 C 95.867188 84.859375 95.941406 84.691406 96.136719 84.472656 Z M 47.144531 85.746094 L 46.90625 85.308594 L 45.628906 86.121094 L 45.863281 86.527344 Z M 47.144531 85.746094 " fill-opacity="1" fill-rule="nonzero"/></g><path fill="#ffffff" d="M 98.164062 227.207031 C 97.347656 227.003906 96.527344 226.84375 95.695312 226.726562 C 95.078125 226.664062 94.476562 226.714844 93.878906 226.871094 C 92.890625 227.140625 91.933594 227.535156 90.960938 227.867188 C 89.214844 228.464844 87.460938 229.035156 85.71875 229.652344 C 84.214844 230.1875 82.882812 229.703125 81.667969 228.914062 C 81.324219 228.6875 81.117188 227.789062 81.261719 227.339844 C 81.886719 225.480469 81.574219 223.75 80.789062 222.0625 C 80.382812 221.203125 80.832031 220.4375 81.234375 219.929688 C 82.046875 218.945312 81.902344 217.902344 81.855469 216.835938 C 81.730469 214.28125 81.558594 211.722656 81.359375 209.167969 C 80.980469 204.210938 80.550781 199.25 80.171875 194.289062 C 79.894531 190.585938 79.675781 186.886719 79.40625 183.183594 C 79.019531 177.71875 78.613281 172.257812 78.191406 166.796875 C 77.957031 163.65625 77.71875 160.511719 77.445312 157.375 C 77.105469 153.476562 76.769531 149.578125 76.34375 145.6875 C 76.007812 142.597656 75.707031 139.484375 75.09375 136.4375 C 74.53125 133.621094 75.140625 130.953125 75.542969 128.238281 C 75.722656 127.046875 76.578125 126.382812 77.636719 125.949219 C 78.046875 125.792969 78.4375 125.59375 78.808594 125.351562 C 78.980469 125.191406 79.054688 124.996094 79.03125 124.765625 C 79.03125 124.65625 78.726562 124.519531 78.546875 124.496094 C 76.832031 124.265625 74.628906 125.75 74.316406 127.503906 C 73.824219 130.246094 73.480469 133.019531 73.046875 135.777344 C 72.765625 137.605469 72.378906 139.429688 72.140625 141.257812 C 71.527344 145.925781 71.007812 150.59375 70.390625 155.269531 C 70.082031 157.574219 69.578125 159.851562 69.285156 162.167969 C 68.789062 165.902344 68.378906 169.648438 67.929688 173.390625 C 67.6875 175.421875 67.339844 177.414062 67.203125 179.4375 C 66.992188 182.519531 66.890625 185.613281 66.796875 188.707031 C 66.6875 192.417969 66.609375 196.128906 66.566406 199.839844 C 66.546875 201.8125 66.683594 203.785156 66.671875 205.757812 C 66.644531 209.710938 66.554688 213.660156 66.511719 217.609375 C 66.464844 218.171875 66.53125 218.71875 66.714844 219.253906 C 67.210938 220.40625 67.386719 221.609375 67.242188 222.855469 C 66.992188 225.375 67.703125 227.757812 68.203125 230.164062 C 68.355469 230.898438 68.609375 231.613281 68.773438 232.34375 C 68.792969 232.515625 68.761719 232.675781 68.679688 232.828125 C 68.351562 233.53125 68.003906 234.226562 67.714844 234.820312 C 66.585938 233.816406 65.449219 232.65625 64.15625 231.714844 C 63.164062 231.023438 62.097656 230.480469 60.953125 230.089844 C 59.683594 229.632812 58.597656 230.316406 57.632812 231.074219 C 56.941406 231.613281 56.335938 232.265625 55.683594 232.863281 C 55.304688 233.214844 54.902344 233.546875 54.613281 233.796875 C 54.171875 232.191406 53.636719 230.621094 53.332031 229.011719 C 53.125 227.902344 53.253906 226.734375 53.191406 225.59375 C 53.121094 224.371094 53.03125 223.15625 52.914062 221.9375 C 52.851562 221.296875 52.664062 220.667969 52.617188 220.023438 C 52.347656 216.355469 52.101562 212.683594 51.878906 209.015625 C 51.632812 205.132812 51.332031 201.257812 51.171875 197.378906 C 50.851562 189.816406 50.453125 182.25 50.359375 174.679688 C 50.296875 168.351562 50.640625 162.015625 50.8125 155.679688 C 50.921875 151.527344 51 147.375 51.167969 143.222656 C 51.367188 138.351562 51.488281 133.441406 51.917969 128.578125 C 52.386719 123.230469 52.605469 117.839844 53.921875 112.589844 C 54.597656 109.898438 55.183594 107.179688 55.792969 104.519531 C 58.125 105.332031 60.203125 106.144531 62.339844 106.730469 C 64.132812 107.234375 65.332031 106.179688 65.078125 104.34375 C 64.808594 102.335938 64.308594 100.367188 63.902344 98.382812 C 63.859375 98.160156 63.777344 97.941406 63.660156 97.527344 C 67.375 97.527344 70.992188 97.527344 74.597656 97.527344 C 75.453125 97.527344 75.914062 98.117188 75.972656 99.152344 C 76.050781 100.710938 76.121094 102.273438 76.144531 103.832031 C 76.164062 105.390625 76.101562 106.832031 76.105469 108.332031 C 76.136719 108.691406 76.199219 109.042969 76.292969 109.390625 C 77.128906 109.101562 77.207031 108.417969 77.238281 107.867188 C 77.367188 104.980469 77.441406 102.09375 77.496094 99.207031 C 77.445312 98.691406 77.339844 98.1875 77.175781 97.699219 C 80.820312 97.476562 84.554688 98.167969 88.234375 97.179688 C 87.734375 98.328125 87.191406 99.425781 86.78125 100.570312 C 86.535156 101.234375 86.421875 101.921875 86.433594 102.628906 C 86.421875 102.851562 86.460938 103.0625 86.554688 103.261719 C 86.644531 103.460938 86.78125 103.628906 86.957031 103.761719 C 87.132812 103.894531 87.328125 103.976562 87.546875 104.011719 C 87.765625 104.046875 87.980469 104.027344 88.1875 103.953125 C 89.464844 103.648438 90.710938 103.246094 92.042969 102.871094 C 92.523438 105.402344 93.097656 108.027344 93.492188 110.683594 C 94.148438 115.097656 94.652344 119.539062 95.296875 123.960938 C 96.042969 129.078125 96.105469 134.226562 96.195312 139.386719 C 96.28125 144.1875 96.601562 148.980469 96.695312 153.777344 C 96.8125 159.140625 96.867188 164.503906 96.859375 169.867188 C 96.859375 174.964844 96.777344 180.058594 96.683594 185.152344 C 96.613281 188.890625 96.480469 192.628906 96.332031 196.367188 C 96.261719 198.246094 96.027344 200.121094 95.996094 202 C 95.953125 204.945312 95.964844 207.890625 96.066406 210.828125 C 96.113281 212.132812 96.472656 213.421875 96.644531 214.726562 C 96.910156 216.613281 97.140625 218.503906 97.394531 220.410156 C 97.433594 220.789062 97.511719 221.160156 97.625 221.527344 C 98.011719 222.652344 98.136719 223.8125 97.996094 224.996094 C 97.984375 225.738281 98.042969 226.476562 98.164062 227.207031 Z M 72.953125 101.167969 L 73.359375 101.246094 C 73.65625 100.925781 74.078125 100.640625 74.199219 100.257812 C 74.261719 100.058594 73.855469 99.523438 73.566406 99.449219 C 73.308594 99.339844 73.066406 99.371094 72.847656 99.546875 C 72.625 99.71875 72.539062 99.945312 72.582031 100.222656 C 72.652344 100.558594 72.773438 100.875 72.953125 101.167969 Z M 72.953125 101.167969 " fill-opacity="1" fill-rule="nonzero"/><path fill="#ffffff" d="M 89.808594 20.703125 L 88.035156 21.070312 L 88.007812 21.429688 L 89.707031 21.933594 C 89.300781 24.199219 88.894531 26.515625 88.492188 29.035156 C 86.75 27.582031 86.253906 25.84375 86.097656 23.929688 C 84.902344 24.742188 85.625 27.34375 87.667969 29.828125 C 87.261719 30.550781 86.546875 30.789062 85.78125 30.953125 C 85.539062 31.054688 85.316406 31.1875 85.117188 31.359375 C 85.375 31.480469 85.652344 31.726562 85.894531 31.699219 C 86.484375 31.605469 87.0625 31.46875 87.636719 31.292969 C 87.335938 32.164062 86.992188 33.015625 86.605469 33.847656 C 86.03125 35.003906 85.367188 36.109375 84.613281 37.160156 C 81.613281 41.144531 76.601562 40.683594 73.507812 38.105469 C 71.699219 36.597656 70.144531 34.902344 69.390625 32.59375 C 69.175781 31.980469 68.90625 31.394531 68.578125 30.835938 C 68.433594 30.574219 68.21875 30.398438 67.933594 30.308594 C 65.546875 29.769531 64.777344 27.960938 64.464844 25.84375 C 64.257812 24.464844 64.382812 23.128906 65.40625 22.035156 C 65.578125 21.820312 65.789062 21.644531 66.035156 21.515625 C 66.28125 21.386719 66.542969 21.316406 66.820312 21.296875 C 67.097656 21.28125 67.363281 21.320312 67.625 21.417969 C 67.882812 21.515625 68.113281 21.660156 68.3125 21.851562 C 69.820312 23.097656 71.148438 22.996094 72.113281 21.300781 C 72.949219 19.804688 73.46875 18.128906 74.136719 16.53125 C 74.5625 15.34375 75.0625 14.191406 75.640625 13.074219 C 75.773438 12.828125 75.945312 12.613281 76.15625 12.429688 C 76.363281 12.246094 76.597656 12.101562 76.855469 12 C 77.117188 11.898438 77.382812 11.84375 77.664062 11.835938 C 77.941406 11.828125 78.210938 11.867188 78.476562 11.953125 C 78.855469 11.988281 79.195312 11.886719 79.496094 11.652344 C 81.464844 10.253906 82.8125 10.277344 84.476562 12.058594 C 85.636719 13.296875 86.597656 14.726562 87.65625 16.0625 C 88.109375 16.640625 88.5 17.332031 89.078125 17.742188 C 90.199219 18.546875 90.191406 19.550781 89.808594 20.703125 Z M 68.617188 25.820312 L 68.320312 26.070312 C 67.957031 26 67.59375 25.90625 67.226562 25.867188 C 66.441406 25.78125 65.902344 26.15625 65.792969 26.832031 C 65.773438 27.257812 65.882812 27.644531 66.117188 28 C 66.351562 28.351562 66.667969 28.601562 67.0625 28.75 C 67.234375 28.816406 67.40625 28.847656 67.589844 28.847656 C 67.769531 28.847656 67.945312 28.8125 68.113281 28.742188 C 68.28125 28.671875 68.429688 28.574219 68.558594 28.449219 C 68.6875 28.320312 68.789062 28.171875 68.863281 28.007812 C 69.671875 26.46875 69.304688 24.074219 67.902344 23.050781 C 67.605469 22.914062 67.296875 22.824219 66.972656 22.785156 Z M 79.585938 32 C 78.613281 32.617188 78.449219 33.503906 79.011719 34.269531 C 79.242188 34.570312 79.542969 34.746094 79.917969 34.796875 C 80.585938 34.820312 81.78125 33.773438 81.910156 33.121094 C 81.949219 32.9375 81.804688 32.714844 81.746094 32.511719 C 81.546875 32.582031 81.289062 32.597656 81.164062 32.734375 C 80.925781 32.988281 80.8125 33.359375 80.566406 33.589844 C 80.316406 33.765625 80.046875 33.902344 79.757812 33.996094 C 79.613281 33.695312 79.511719 33.382812 79.449219 33.054688 C 79.449219 32.699219 79.496094 32.347656 79.585938 32 Z M 79.9375 24.355469 C 79.9375 24.757812 79.886719 24.941406 79.9375 25.050781 C 80.097656 25.296875 80.269531 25.53125 80.460938 25.75 C 80.65625 25.570312 81.003906 25.402344 81.015625 25.210938 C 81.015625 24.667969 80.972656 24.125 80.894531 23.585938 C 80.628906 23.628906 80.253906 23.585938 80.125 23.730469 C 80.011719 23.921875 79.949219 24.128906 79.9375 24.355469 Z M 78.386719 21.621094 L 81.246094 20.972656 C 81.175781 20.78125 81.144531 20.464844 81.015625 20.414062 C 80.34375 20.132812 78.789062 20.726562 78.386719 21.621094 Z M 86.945312 24.917969 C 87.246094 25.324219 87.460938 25.792969 87.648438 25.78125 C 88.378906 25.738281 88.328125 25.066406 88.308594 24.566406 C 88.308594 24.28125 87.996094 24.003906 87.828125 23.730469 Z M 86.945312 24.917969 " fill-opacity="1" fill-rule="nonzero"/><path fill="#ffffff" d="M 63.914062 105.152344 C 62.839844 103.78125 61.9375 102.253906 60.53125 101.191406 L 60.320312 101.351562 L 62.996094 105.359375 C 61.824219 105.011719 60.566406 104.972656 59.898438 103.734375 C 59.542969 103.097656 58.933594 102.601562 58.4375 102.039062 L 58.167969 102.195312 L 58.765625 103.84375 C 58.300781 103.757812 57.84375 103.632812 57.398438 103.464844 C 56.683594 103.121094 55.988281 102.738281 55.316406 102.316406 C 55.175781 102.246094 55.058594 102.152344 54.957031 102.035156 C 54.859375 101.917969 54.785156 101.78125 54.742188 101.632812 C 54.695312 101.484375 54.683594 101.335938 54.699219 101.179688 C 54.71875 101.027344 54.765625 100.882812 54.84375 100.746094 C 55.796875 98.402344 57.625 96.871094 59.605469 95.46875 C 60.101562 95.121094 60.480469 95.105469 60.867188 95.632812 C 61.886719 96.957031 62.625 98.429688 63.074219 100.042969 L 61.089844 98.128906 L 60.839844 98.316406 C 60.953125 98.617188 61.085938 98.90625 61.246094 99.1875 C 61.984375 100.246094 62.867188 101.21875 63.472656 102.355469 C 63.902344 103.164062 63.976562 104.160156 64.210938 105.074219 Z M 63.914062 105.152344 " fill-opacity="1" fill-rule="nonzero"/><path fill="#ffffff" d="M 89.929688 99.40625 L 87.703125 101.964844 C 87.773438 99.90625 89.847656 99.148438 90.40625 97.308594 L 89.484375 97.621094 C 89.933594 96.617188 90.363281 95.671875 90.816406 94.664062 C 91.792969 96.464844 92.453125 98.371094 92.792969 100.390625 C 92.792969 100.589844 92.714844 100.753906 92.554688 100.878906 C 92.042969 101.285156 91.503906 101.605469 90.757812 102.097656 C 90.929688 101.625 91.023438 101.398438 91.089844 101.171875 C 91.160156 100.945312 91.191406 100.765625 91.246094 100.550781 L 90.945312 100.363281 C 90.59375 100.726562 90.304688 101.132812 90.074219 101.582031 C 89.796875 102.394531 89.226562 102.578125 88.453125 102.59375 L 90.246094 99.613281 Z M 89.929688 99.40625 " fill-opacity="1" fill-rule="nonzero"/><path fill="#ffffff" d="M 91.042969 73.851562 C 91.734375 68.847656 92.425781 63.839844 93.121094 58.832031 C 93.230469 59.046875 93.308594 59.269531 93.359375 59.5 C 93.59375 61.816406 93.5 64.117188 93.082031 66.402344 C 92.734375 68.363281 92.476562 70.339844 92.121094 72.300781 C 91.964844 72.882812 91.757812 73.445312 91.5 73.992188 Z M 91.042969 73.851562 " fill-opacity="1" fill-rule="nonzero"/><path fill="#ffffff" d="M 90.6875 89.15625 C 90.867188 86.347656 91.050781 83.542969 91.238281 80.734375 L 91.378906 80.734375 C 91.804688 82.183594 92.148438 83.652344 92.417969 85.140625 C 92.515625 85.890625 92.183594 86.738281 91.902344 87.484375 C 91.609375 88.089844 91.265625 88.660156 90.867188 89.199219 Z M 90.6875 89.15625 " fill-opacity="1" fill-rule="nonzero"/><path fill="#ffffff" d="M 54.925781 66.175781 C 55.710938 63.34375 56.492188 60.511719 57.277344 57.679688 C 57.207031 60.699219 56.84375 63.640625 55.25 66.261719 Z M 54.925781 66.175781 " fill-opacity="1" fill-rule="nonzero"/><path fill="#ffffff" d="M 68.863281 35.277344 L 71.746094 38.523438 L 68.996094 38.285156 C 68.957031 37.179688 68.910156 36.210938 68.863281 35.277344 Z M 68.863281 35.277344 " fill-opacity="1" fill-rule="nonzero"/><path fill="#ffffff" d="M 46.582031 84.128906 L 44.4375 84.855469 C 44.929688 83.921875 45.597656 83.6875 46.582031 84.128906 Z M 46.582031 84.128906 " fill-opacity="1" fill-rule="nonzero"/><path fill="#ffffff" d="M 96.136719 84.472656 C 95.941406 84.691406 95.867188 84.859375 95.761719 84.878906 C 95.410156 84.949219 95.054688 84.992188 94.695312 85.003906 C 94.671875 85.003906 94.632812 84.808594 94.601562 84.703125 C 94.941406 84.605469 95.277344 84.496094 95.617188 84.414062 C 95.792969 84.410156 95.964844 84.433594 96.136719 84.472656 Z M 96.136719 84.472656 " fill-opacity="1" fill-rule="nonzero"/><path fill="#ffffff" d="M 47.144531 85.746094 L 45.863281 86.496094 L 45.628906 86.089844 L 46.90625 85.277344 Z M 47.144531 85.746094 " fill-opacity="1" fill-rule="nonzero"/><path fill="#000000" d="M 72.953125 101.167969 C 72.761719 100.875 72.628906 100.554688 72.550781 100.210938 C 72.503906 99.933594 72.59375 99.707031 72.816406 99.535156 C 73.035156 99.359375 73.273438 99.328125 73.535156 99.433594 C 73.820312 99.523438 74.230469 100.058594 74.164062 100.246094 C 74.042969 100.628906 73.621094 100.914062 73.328125 101.234375 Z M 72.953125 101.167969 " fill-opacity="1" fill-rule="nonzero"/><path fill="#000000" d="M 68.617188 25.820312 L 66.957031 22.785156 C 67.285156 22.824219 67.59375 22.914062 67.890625 23.050781 C 69.292969 24.074219 69.671875 26.46875 68.863281 28.007812 C 68.789062 28.171875 68.6875 28.316406 68.558594 28.445312 C 68.433594 28.570312 68.285156 28.667969 68.117188 28.738281 C 67.953125 28.804688 67.777344 28.839844 67.597656 28.84375 C 67.417969 28.847656 67.246094 28.816406 67.078125 28.75 C 66.679688 28.601562 66.363281 28.351562 66.128906 28 C 65.894531 27.644531 65.785156 27.257812 65.804688 26.832031 C 65.902344 26.15625 66.433594 25.78125 67.242188 25.875 C 67.609375 25.914062 67.972656 26.011719 68.335938 26.078125 Z M 68.617188 25.820312 " fill-opacity="1" fill-rule="nonzero"/><path fill="#000000" d="M 79.585938 32 C 79.492188 32.339844 79.441406 32.683594 79.433594 33.035156 C 79.492188 33.363281 79.597656 33.675781 79.738281 33.972656 C 80.03125 33.882812 80.300781 33.746094 80.550781 33.566406 C 80.796875 33.339844 80.910156 32.96875 81.144531 32.714844 C 81.273438 32.578125 81.550781 32.5625 81.730469 32.492188 C 81.789062 32.695312 81.933594 32.917969 81.894531 33.101562 C 81.765625 33.753906 80.570312 34.800781 79.902344 34.777344 C 79.527344 34.726562 79.222656 34.550781 78.996094 34.25 C 78.449219 33.503906 78.613281 32.617188 79.585938 32 Z M 79.585938 32 " fill-opacity="1" fill-rule="nonzero"/><path fill="#000000" d="M 79.9375 24.355469 C 79.949219 24.121094 80.015625 23.90625 80.136719 23.707031 C 80.265625 23.554688 80.640625 23.605469 80.90625 23.566406 C 80.988281 24.105469 81.027344 24.644531 81.027344 25.191406 C 81.027344 25.378906 80.667969 25.550781 80.472656 25.730469 C 80.285156 25.519531 80.109375 25.296875 79.949219 25.0625 C 79.886719 24.941406 79.9375 24.765625 79.9375 24.355469 Z M 79.9375 24.355469 " fill-opacity="1" fill-rule="nonzero"/><path fill="#000000" d="M 78.386719 21.621094 C 78.792969 20.726562 80.34375 20.132812 81.015625 20.402344 C 81.144531 20.457031 81.175781 20.773438 81.246094 20.964844 Z M 78.386719 21.621094 " fill-opacity="1" fill-rule="nonzero"/><path fill="#000000" d="M 86.945312 24.917969 L 87.828125 23.742188 C 87.996094 24.015625 88.296875 24.292969 88.308594 24.578125 C 88.328125 25.066406 88.378906 25.738281 87.648438 25.792969 C 87.460938 25.792969 87.246094 25.304688 86.945312 24.917969 Z M 86.945312 24.917969 " fill-opacity="1" fill-rule="nonzero"/></svg>