<svg xmlns="http://www.w3.org/2000/svg" xmlns:xlink="http://www.w3.org/1999/xlink" width="200" zoomAndPan="magnify" viewBox="0 0 150 149.999998" height="200" preserveAspectRatio="xMidYMid meet" version="1.0"><defs><filter x="0%" y="0%" width="100%" height="100%" id="4f3a2802e6"><feColorMatrix values="0 0 0 0 1 0 0 0 0 1 0 0 0 0 1 0 0 0 1 0" color-interpolation-filters="sRGB"/></filter><clipPath id="acccdd33e6"><path d="M 70.1875 44.175781 L 150 44.175781 L 150 106.332031 L 70.1875 106.332031 Z M 70.1875 44.175781 " clip-rule="nonzero"/></clipPath><clipPath id="17b19a3ce1"><path d="M 107.066406 44.175781 L 150 44.175781 L 113.121094 106.332031 L 70.1875 106.332031 Z M 107.066406 44.175781 " clip-rule="nonzero"/></clipPath><mask id="db873ecaec"><g filter="url(#4f3a2802e6)"><rect x="-15" width="180" fill="#000000" y="-15" height="179.999997" fill-opacity="0.8"/></g></mask><clipPath id="374a3f1e6a"><path d="M 0.339844 0.515625 L 63.058594 0.515625 L 63.058594 53.332031 L 0.339844 53.332031 Z M 0.339844 0.515625 " clip-rule="nonzero"/></clipPath><clipPath id="6204091707"><path d="M 31.675781 0.515625 L 63.015625 0.515625 L 31.675781 53.332031 L 0.339844 53.332031 Z M 31.675781 0.515625 " clip-rule="nonzero"/></clipPath><clipPath id="192afdc377"><rect x="0" width="64" y="0" height="54"/></clipPath><mask id="a313830551"><g filter="url(#4f3a2802e6)"><rect x="-15" width="180" fill="#000000" y="-15" height="179.999997" fill-opacity="0.6"/></g></mask><clipPath id="6ac8c2f24a"><path d="M 0 0.425781 L 47.390625 0.425781 L 47.390625 40.332031 L 0 40.332031 Z M 0 0.425781 " clip-rule="nonzero"/></clipPath><clipPath id="4049bae35b"><path d="M 23.679688 0.425781 L 47.355469 0.425781 L 23.679688 40.332031 L 0 40.332031 Z M 23.679688 0.425781 " clip-rule="nonzero"/></clipPath><clipPath id="3a5046d5f2"><rect x="0" width="48" y="0" height="41"/></clipPath></defs><g clip-path="url(#acccdd33e6)"><g clip-path="url(#17b19a3ce1)"><path fill="#0f2553" d="M 70.1875 44.175781 L 150.070312 44.175781 L 150.070312 106.332031 L 70.1875 106.332031 Z M 70.1875 44.175781 " fill-opacity="1" fill-rule="nonzero"/></g></g><g mask="url(#db873ecaec)"><g transform="matrix(1, 0, 0, 1, 31, 53)"><g clip-path="url(#192afdc377)"><g clip-path="url(#374a3f1e6a)"><g clip-path="url(#6204091707)"><path fill="#0f2553" d="M 0.339844 0.515625 L 63.058594 0.515625 L 63.058594 53.332031 L 0.339844 53.332031 Z M 0.339844 0.515625 " fill-opacity="1" fill-rule="nonzero"/></g></g></g></g></g><g mask="url(#a313830551)"><g transform="matrix(1, 0, 0, 1, 0, 66)"><g clip-path="url(#3a5046d5f2)"><g clip-path="url(#6ac8c2f24a)"><g clip-path="url(#4049bae35b)"><path fill="#0f2553" d="M 0 0.425781 L 47.390625 0.425781 L 47.390625 40.332031 L 0 40.332031 Z M 0 0.425781 " fill-opacity="1" fill-rule="nonzero"/></g></g></g></g></g></svg>