<svg xmlns="http://www.w3.org/2000/svg" xmlns:xlink="http://www.w3.org/1999/xlink" width="240" zoomAndPan="magnify" viewBox="0 0 180 217.499994" height="290" preserveAspectRatio="xMidYMid meet" version="1.0"><defs><clipPath id="c821402b50"><path d="M 10 21.160156 L 178 21.160156 L 178 216.261719 L 10 216.261719 Z M 10 21.160156 " clip-rule="nonzero"/></clipPath><clipPath id="87114fa627"><path d="M 13 21.160156 L 175 21.160156 L 175 208.8125 L 13 208.8125 Z M 13 21.160156 " clip-rule="nonzero"/></clipPath><clipPath id="50efe1f303"><path d="M 16 0 L 61.425781 0 L 61.425781 85.636719 L 16 85.636719 Z M 16 0 " clip-rule="nonzero"/></clipPath><clipPath id="875c194933"><path d="M 1 74 L 171 74 L 171 210 L 1 210 Z M 1 74 " clip-rule="nonzero"/></clipPath><clipPath id="c9baa20591"><path d="M 0.207031 41.144531 L 0.207031 173.929688 C 0.207031 195.003906 17.292969 212.089844 38.367188 212.089844 L 134.652344 212.089844 C 155.730469 212.089844 172.816406 195.003906 172.816406 173.929688 L 172.816406 41.144531 C 172.816406 20.070312 155.730469 2.984375 134.652344 2.984375 L 38.367188 2.984375 C 17.292969 2.984375 0.207031 20.070312 0.207031 41.144531 Z M 0.207031 41.144531 " clip-rule="nonzero"/></clipPath><clipPath id="073f50e895"><path d="M 1 82 L 172.8125 82 L 172.8125 211 L 1 211 Z M 1 82 " clip-rule="nonzero"/></clipPath><clipPath id="e96b80c0f6"><path d="M 0.207031 41.144531 L 0.207031 173.929688 C 0.207031 195.003906 17.292969 212.089844 38.367188 212.089844 L 134.652344 212.089844 C 155.730469 212.089844 172.816406 195.003906 172.816406 173.929688 L 172.816406 41.144531 C 172.816406 20.070312 155.730469 2.984375 134.652344 2.984375 L 38.367188 2.984375 C 17.292969 2.984375 0.207031 20.070312 0.207031 41.144531 Z M 0.207031 41.144531 " clip-rule="nonzero"/></clipPath><clipPath id="3bf1926049"><path d="M 61 8 L 143 8 L 143 90 L 61 90 Z M 61 8 " clip-rule="nonzero"/></clipPath><clipPath id="52f8b54a7f"><path d="M 0.207031 41.144531 L 0.207031 173.929688 C 0.207031 195.003906 17.292969 212.089844 38.367188 212.089844 L 134.652344 212.089844 C 155.730469 212.089844 172.816406 195.003906 172.816406 173.929688 L 172.816406 41.144531 C 172.816406 20.070312 155.730469 2.984375 134.652344 2.984375 L 38.367188 2.984375 C 17.292969 2.984375 0.207031 20.070312 0.207031 41.144531 Z M 0.207031 41.144531 " clip-rule="nonzero"/></clipPath><clipPath id="d3d5f06f2d"><path d="M 60 7 L 144 7 L 144 91 L 60 91 Z M 60 7 " clip-rule="nonzero"/></clipPath><clipPath id="ebb511d2b3"><path d="M 0.207031 41.144531 L 0.207031 173.929688 C 0.207031 195.003906 17.292969 212.089844 38.367188 212.089844 L 134.652344 212.089844 C 155.730469 212.089844 172.816406 195.003906 172.816406 173.929688 L 172.816406 41.144531 C 172.816406 20.070312 155.730469 2.984375 134.652344 2.984375 L 38.367188 2.984375 C 17.292969 2.984375 0.207031 20.070312 0.207031 41.144531 Z M 0.207031 41.144531 " clip-rule="nonzero"/></clipPath><clipPath id="ccb634902a"><path d="M 65 42 L 101 42 L 101 79 L 65 79 Z M 65 42 " clip-rule="nonzero"/></clipPath><clipPath id="a8957c863f"><path d="M 0.207031 41.144531 L 0.207031 173.929688 C 0.207031 195.003906 17.292969 212.089844 38.367188 212.089844 L 134.652344 212.089844 C 155.730469 212.089844 172.816406 195.003906 172.816406 173.929688 L 172.816406 41.144531 C 172.816406 20.070312 155.730469 2.984375 134.652344 2.984375 L 38.367188 2.984375 C 17.292969 2.984375 0.207031 20.070312 0.207031 41.144531 Z M 0.207031 41.144531 " clip-rule="nonzero"/></clipPath><clipPath id="16fe463f1f"><path d="M 62 56 L 117 56 L 117 99 L 62 99 Z M 62 56 " clip-rule="nonzero"/></clipPath><clipPath id="5be0bbc766"><path d="M 0.207031 41.144531 L 0.207031 173.929688 C 0.207031 195.003906 17.292969 212.089844 38.367188 212.089844 L 134.652344 212.089844 C 155.730469 212.089844 172.816406 195.003906 172.816406 173.929688 L 172.816406 41.144531 C 172.816406 20.070312 155.730469 2.984375 134.652344 2.984375 L 38.367188 2.984375 C 17.292969 2.984375 0.207031 20.070312 0.207031 41.144531 Z M 0.207031 41.144531 " clip-rule="nonzero"/></clipPath></defs><g clip-path="url(#c821402b50)"><path fill="#00215e" d="M 110.601562 117.71875 C 106.382812 110.335938 107.617188 101.035156 110.304688 92.964844 C 112.996094 84.898438 117.023438 77.261719 118.3125 68.824219 C 118.722656 65.8125 118.792969 62.789062 118.523438 59.757812 C 118.257812 56.726562 117.65625 53.765625 116.726562 50.867188 C 115.792969 47.972656 114.554688 45.214844 113.003906 42.59375 C 111.453125 39.976562 109.632812 37.5625 107.542969 35.351562 C 105.429688 33.171875 103.121094 31.214844 100.617188 29.492188 C 98.117188 27.765625 95.46875 26.304688 92.675781 25.105469 C 89.882812 23.902344 87 22.988281 84.027344 22.359375 C 81.054688 21.734375 78.046875 21.402344 75.007812 21.367188 C 61.816406 21.191406 48.90625 26.460938 37.960938 33.898438 C 32.359375 37.703125 27.066406 42.1875 23.511719 47.945312 C 20.6875 52.597656 19.019531 57.898438 17.617188 63.183594 C 13.910156 77.195312 11.578125 91.4375 10.628906 105.902344 C 9.675781 120.367188 10.121094 134.785156 11.964844 149.164062 C 13.640625 162.148438 16.519531 175.160156 22.691406 186.707031 C 28.859375 198.257812 38.613281 208.253906 50.953125 212.652344 C 58.15625 215.226562 65.898438 215.816406 73.542969 216.003906 C 96.523438 216.585938 119.132812 213.980469 141.375 208.179688 C 150.550781 205.785156 160.113281 202.527344 166.191406 195.242188 C 169.351562 191.433594 171.347656 186.804688 173.035156 182.132812 C 176.902344 171.386719 179.363281 159.375 175.363281 148.660156 C 170.652344 136.003906 157.902344 129.234375 144.898438 129.105469 C 132.527344 128.9375 117.804688 130.46875 110.601562 117.71875 Z M 110.601562 117.71875 " fill-opacity="1" fill-rule="nonzero"/></g><g clip-path="url(#87114fa627)"><path fill="#9ea1d4" d="M 77.816406 113.871094 C 81.867188 106.78125 80.683594 97.851562 78.101562 90.105469 C 75.519531 82.359375 71.652344 75.027344 70.414062 66.925781 C 70.023438 64.03125 69.953125 61.128906 70.210938 58.21875 C 70.464844 55.308594 71.042969 52.464844 71.9375 49.683594 C 72.832031 46.902344 74.023438 44.253906 75.511719 41.742188 C 77 39.226562 78.746094 36.910156 80.753906 34.789062 C 82.785156 32.691406 85 30.816406 87.402344 29.160156 C 89.804688 27.503906 92.347656 26.097656 95.027344 24.945312 C 97.710938 23.792969 100.476562 22.917969 103.332031 22.3125 C 106.1875 21.710938 109.074219 21.390625 111.992188 21.359375 C 124.660156 21.1875 137.054688 26.25 147.566406 33.390625 C 152.941406 37.046875 158.023438 41.347656 161.4375 46.878906 C 164.152344 51.34375 165.75 56.4375 167.097656 61.511719 C 170.660156 74.964844 172.898438 88.636719 173.808594 102.523438 C 174.722656 116.414062 174.292969 130.261719 172.523438 144.066406 C 170.914062 156.53125 168.152344 169.027344 162.226562 180.113281 C 156.304688 191.203125 146.9375 200.800781 135.089844 205.023438 C 128.171875 207.496094 120.742188 208.0625 113.398438 208.246094 C 91.335938 208.804688 69.625 206.296875 48.269531 200.730469 C 39.460938 198.433594 30.277344 195.304688 24.445312 188.304688 C 21.40625 184.652344 19.492188 180.207031 17.871094 175.71875 C 14.15625 165.402344 11.796875 153.867188 15.632812 143.582031 C 20.160156 131.429688 32.402344 124.929688 44.886719 124.808594 C 56.765625 124.644531 70.902344 126.113281 77.816406 113.871094 Z M 77.816406 113.871094 " fill-opacity="1" fill-rule="nonzero"/></g><g clip-path="url(#50efe1f303)"><path fill="#ffbd59" d="M 61.464844 26.433594 C 61.332031 28.746094 59.3125 30.441406 56.976562 29.710938 C 55.804688 29.347656 54.773438 28.753906 53.921875 27.882812 C 52.769531 26.710938 51.40625 25.804688 50.160156 24.75 C 48.828125 23.621094 47.703125 22.324219 46.621094 20.972656 C 44.699219 18.582031 42.710938 16.242188 40.6875 13.929688 C 39.082031 12.085938 37.410156 10.285156 36.191406 8.140625 C 35.550781 7.019531 35.402344 5.742188 35.050781 4.535156 C 34.855469 3.867188 35.144531 3.1875 35.542969 2.632812 C 36.636719 1.101562 37.992188 -0.00390625 40.09375 0.136719 C 41.472656 0.015625 42.714844 0.59375 43.894531 1.308594 C 46.535156 2.90625 48.667969 5.074219 50.65625 7.40625 C 52.414062 9.472656 54.203125 11.519531 55.640625 13.824219 C 57.554688 16.902344 59.445312 19.992188 60.714844 23.421875 C 61.082031 24.417969 61.527344 25.324219 61.464844 26.433594 Z M 44.949219 41.125 C 43.898438 40.722656 42.800781 40.476562 41.804688 39.90625 C 39.226562 38.417969 36.546875 37.128906 33.742188 36.117188 C 31.800781 35.417969 29.796875 34.941406 27.785156 34.511719 C 25.449219 34.007812 23.117188 33.855469 20.761719 34.480469 C 16.921875 35.5 16 39.136719 16.78125 42.097656 C 17.132812 43.421875 18.304688 43.875 19.433594 44.316406 C 21.585938 45.164062 23.886719 45.4375 26.117188 45.984375 C 29.042969 46.703125 31.957031 47.492188 34.914062 48.117188 C 37.050781 48.570312 39.191406 48.851562 41.234375 48.941406 C 42.359375 48.882812 43.367188 48.871094 44.269531 49.300781 C 45.445312 49.859375 47.707031 49.164062 48.601562 47.929688 C 49.054688 47.304688 49.394531 46.617188 49.207031 45.785156 C 48.675781 43.417969 47.152344 41.96875 44.949219 41.125 Z M 45.84375 66.953125 C 45.808594 66.597656 45.472656 66.40625 45.339844 66.09375 C 44.921875 65.140625 43.929688 64.734375 43.015625 65.1875 C 42.09375 65.648438 41.183594 66.140625 40.3125 66.691406 C 36.1875 69.300781 32.839844 72.773438 29.644531 76.398438 C 28.378906 77.835938 27.28125 79.417969 26.910156 81.390625 C 26.617188 82.949219 27.199219 84.242188 28.59375 84.980469 C 29.449219 85.429688 30.375 85.5 31.292969 85.582031 C 32.515625 85.691406 33.527344 85.25 34.355469 84.316406 C 35.042969 83.539062 35.621094 82.6875 36.210938 81.84375 C 37.28125 80.328125 38.734375 79.132812 39.800781 77.632812 C 41.578125 75.132812 43.261719 72.566406 45.046875 70.066406 C 45.519531 69.402344 46.003906 68.660156 45.847656 67.679688 C 45.847656 67.480469 45.867188 67.214844 45.84375 66.953125 Z M 49.378906 31.875 C 47.246094 30.945312 45.46875 29.378906 43.289062 28.519531 C 42.085938 28.042969 40.9375 27.421875 39.566406 27.574219 C 38.519531 27.464844 37.542969 27.632812 36.917969 28.601562 C 36.21875 29.675781 36.394531 30.738281 37.476562 31.8125 C 39.851562 34.175781 42.757812 35.59375 45.9375 36.511719 C 46.464844 36.664062 47.015625 36.738281 47.53125 36.917969 C 48.210938 37.148438 48.867188 37.058594 49.4375 36.738281 C 50.714844 36.019531 50.828125 34.96875 50.5 33.472656 C 50.359375 32.824219 50.054688 32.167969 49.378906 31.875 Z M 35.632812 63.511719 C 37.324219 63.511719 38.773438 63.171875 40.414062 62.386719 C 41.324219 61.949219 42.25 61.570312 43.226562 61.292969 C 44.941406 60.808594 45.761719 58.898438 44.972656 57.339844 C 44.910156 57.214844 44.867188 57.074219 44.851562 56.9375 C 44.730469 55.765625 43.941406 55.15625 42.84375 55.464844 C 40.855469 56.023438 38.808594 56.167969 36.78125 56.445312 C 35.269531 56.65625 33.796875 57.011719 32.730469 58.234375 C 32.203125 58.839844 31.753906 59.523438 31.871094 60.367188 C 32.105469 62.082031 33.851562 63.511719 35.632812 63.511719 Z M 35.632812 63.511719 " fill-opacity="1" fill-rule="nonzero"/></g><g clip-path="url(#875c194933)"><g clip-path="url(#c9baa20591)"><path fill="#ffffff" d="M 96.449219 74.683594 C 91.023438 74.945312 82.707031 77.214844 82.269531 78.699219 C 81.65625 80.96875 83.054688 89.609375 80.691406 94.234375 C 79.730469 96.242188 75.878906 96.070312 74.390625 96.679688 C 69.488281 98.863281 54.867188 102.964844 51.804688 108.113281 C 50.578125 110.207031 43.136719 135.78125 39.199219 148.871094 C 38.761719 150.355469 38.234375 151.664062 37.710938 152.972656 L 37.535156 152.015625 C 35.960938 144.160156 35.082031 139.359375 35.082031 137.699219 C 35.082031 135.082031 37.183594 124.171875 35.082031 121.378906 C 32.984375 118.585938 28.082031 116.316406 25.804688 116.316406 L 25.71875 116.316406 C 24.230469 116.316406 23.003906 115.878906 21.863281 114.921875 L 20.289062 114.136719 C 12.234375 110.121094 7.597656 107.9375 6.195312 107.503906 C 4.007812 106.890625 0.332031 108.199219 2.167969 110.207031 C 3.394531 111.515625 6.457031 113.875 11.449219 117.277344 L 13.285156 118.761719 L 13.023438 118.847656 C 10.660156 120.070312 9.171875 121.203125 8.820312 122.078125 C 8.382812 122.949219 8.558594 123.996094 9.433594 125.21875 L 9.347656 125.308594 C 8.296875 126.355469 7.683594 127.050781 7.683594 127.402344 L 7.683594 129.148438 C 6.632812 130.71875 6.371094 132.027344 6.894531 133.074219 C 7.421875 134.121094 8.296875 134.996094 9.433594 135.78125 C 10.308594 138.050781 11.359375 139.621094 12.5 140.582031 C 13.722656 141.539062 15.738281 142.324219 18.625 142.9375 L 21.253906 149.222656 L 23.351562 158.035156 L 24.402344 167.898438 L 24.054688 168.160156 C 22.566406 169.207031 21.691406 169.992188 21.691406 170.777344 C 21.691406 172 27.554688 201.675781 36.660156 202.984375 C 38.671875 203.246094 48.828125 201.851562 52.242188 199.144531 L 52.152344 199.40625 C 51.367188 204.207031 51.542969 206.648438 52.679688 206.824219 C 66.683594 209.179688 105.992188 209.878906 170.59375 209.007812 C 170.945312 174.792969 169.28125 152.015625 165.34375 140.667969 C 155.539062 111.605469 144.597656 101.65625 140.832031 100.867188 C 137.503906 100.082031 125.949219 95.542969 122.710938 94.324219 C 120.609375 93.539062 120.171875 91.179688 117.722656 91.179688 L 117.546875 91.179688 C 115.183594 91.179688 113.167969 91.617188 112.03125 90.394531 C 108.96875 87.253906 109.84375 82.890625 108.617188 78.789062 C 107.742188 76.429688 103.015625 74.335938 96.449219 74.683594 Z M 96.449219 74.683594 " fill-opacity="1" fill-rule="evenodd"/></g></g><g clip-path="url(#073f50e895)"><g clip-path="url(#e96b80c0f6)"><path fill="#000000" d="M 111.242188 82.890625 C 110.894531 82.277344 110.105469 82.367188 109.492188 82.628906 C 107.828125 83.847656 109.578125 86.207031 110.019531 87.691406 C 111.242188 90.570312 113.257812 93.363281 116.058594 94.671875 C 115.796875 97.550781 115.53125 100.34375 115.445312 103.226562 C 111.855469 107.675781 105.726562 109.335938 100.300781 110.644531 C 91.808594 113 82.179688 108.199219 79.292969 99.820312 C 82.53125 97.988281 83.582031 93.101562 82.617188 89.695312 C 82.53125 89.433594 82.179688 89.347656 82.003906 89.609375 C 81.128906 91.441406 81.21875 93.710938 80.167969 95.542969 C 70.539062 96.417969 57.929688 100.082031 51.542969 107.9375 C 48.738281 111.867188 47.601562 117.015625 46.203125 121.554688 C 43.226562 130.980469 40.863281 140.582031 37.886719 150.007812 L 37.535156 148.261719 C 36.570312 143.375 35.695312 138.398438 36.398438 133.335938 L 36.398438 133.074219 C 36.570312 129.058594 37.886719 121.726562 34.734375 119.023438 C 31.933594 116.929688 27.90625 115.183594 24.402344 116.140625 C 18.1875 113.351562 12.761719 108.722656 6.109375 106.890625 C 4.09375 106.453125 1.117188 106.976562 1.554688 109.769531 C 2.867188 114.660156 8.558594 116.492188 12.324219 119.023438 C 9.871094 119.722656 6.894531 122.6875 8.820312 125.308594 C 8.820312 125.394531 8.820312 125.394531 8.910156 125.394531 C 7.332031 126.09375 7.160156 127.835938 7.507812 129.320312 C 7.507812 129.757812 7.683594 129.410156 7.421875 129.757812 C 5.671875 131.417969 6.457031 136.042969 9.085938 136.214844 C 8.910156 138.398438 10.308594 140.492188 12.0625 141.714844 C 13.988281 143.023438 16.789062 143.023438 18.363281 144.855469 C 22.128906 151.402344 23.351562 159.171875 23.792969 166.765625 C 21.339844 167.722656 19.152344 170.429688 21.339844 172.785156 C 21.425781 172.785156 21.425781 172.785156 21.515625 172.785156 C 22.828125 176.277344 23.351562 179.941406 23.964844 183.523438 C 25.015625 189.71875 27.816406 195.304688 31.320312 200.453125 C 35.347656 207.261719 46.289062 206.125 51.804688 201.761719 C 51.804688 202.898438 51.628906 204.03125 51.980469 205.167969 C 52.503906 206.386719 53.816406 205.863281 53.992188 204.644531 C 56.882812 206.300781 57.582031 200.890625 54.34375 201.761719 C 54.605469 197.835938 54.691406 193.996094 54.867188 190.066406 C 58.542969 191.289062 58.71875 185.179688 54.957031 186.402344 L 54.957031 184.742188 C 54.957031 171.914062 54.867188 158.996094 53.117188 146.253906 C 52.941406 145.292969 52.679688 144.421875 52.503906 143.460938 C 52.503906 143.375 52.328125 143.375 52.328125 143.460938 C 52.066406 161.351562 53.203125 179.15625 51.980469 197.050781 C 50.929688 197.398438 50.578125 198.535156 49.789062 199.230469 C 48.128906 200.800781 45.851562 201.5 43.664062 201.761719 C 37.449219 202.636719 34.734375 200.714844 31.933594 195.304688 C 33.15625 196.175781 34.910156 194.691406 34.121094 193.382812 C 33.332031 191.988281 31.058594 192.859375 31.40625 194.429688 C 28.605469 189.980469 27.117188 184.917969 26.066406 179.855469 L 25.890625 179.246094 C 25.367188 177.0625 24.667969 174.617188 23.441406 172.613281 C 31.144531 170.691406 38.585938 164.757812 39.8125 156.550781 C 41.738281 162.660156 44.363281 168.597656 46.902344 174.53125 C 47.6875 176.625 48.039062 178.808594 49.089844 180.730469 C 49.351562 181.164062 49.964844 181.078125 50.140625 180.554688 C 51.101562 176.101562 48.128906 171.828125 46.550781 167.8125 C 45.238281 165.542969 41.5625 155.15625 39.285156 155.15625 C 41.824219 143.898438 45.324219 132.726562 48.566406 121.640625 C 51.714844 106.628906 58.195312 103.75 71.761719 99.035156 C 69.398438 111.429688 58.195312 123.5625 64.148438 136.652344 L 64.320312 137.003906 C 64.933594 138.484375 65.460938 139.882812 65.023438 141.453125 C 64.585938 143.023438 63.621094 144.332031 62.921875 145.730469 C 58.71875 153.585938 61.609375 162.660156 63.273438 170.867188 C 65.285156 180.464844 67.296875 189.980469 69.398438 199.582031 C 69.835938 201.5 70.097656 203.421875 70.710938 205.253906 C 71.0625 206.214844 72.636719 206.125 72.550781 204.992188 C 72.375 202.808594 71.761719 200.714844 71.324219 198.621094 C 68.699219 184.917969 65.109375 171.390625 62.832031 157.601562 C 61.34375 147.386719 67.125 145.816406 66.949219 139.269531 C 66.160156 135.867188 64.058594 132.898438 64.234375 129.320312 C 63.796875 118.324219 71.761719 109.246094 72.8125 98.597656 L 74.5625 97.988281 C 75.441406 97.640625 76.316406 97.378906 77.191406 97.027344 C 72.636719 128.972656 74.039062 161.613281 76.316406 193.734375 C 76.753906 195.21875 76.316406 205.515625 78.328125 204.644531 C 78.414062 205.253906 78.765625 205.777344 79.378906 205.777344 C 85.417969 205.863281 91.546875 205.953125 97.585938 206.039062 C 100.476562 205.777344 104.503906 206.914062 107.042969 205.167969 C 109.929688 204.382812 110.28125 196.613281 110.980469 193.820312 L 111.242188 191.8125 C 116.058594 158.996094 120.433594 125.394531 116.933594 92.226562 C 121.835938 92.402344 122.796875 97.640625 123.148438 101.480469 C 124.023438 109.945312 129.539062 117.191406 129.800781 125.742188 C 129.800781 127.835938 129.453125 129.84375 128.574219 131.765625 C 126.386719 136.390625 122.535156 141.800781 125.425781 147.039062 C 128.75 151.054688 128.488281 152.1875 127.261719 157.164062 C 123.761719 173.746094 117.984375 189.632812 112.554688 205.601562 C 113.78125 211.800781 120.960938 188.757812 121.574219 187.011719 C 124.722656 188.582031 126.476562 183.347656 122.796875 182.910156 C 125.160156 175.054688 127.261719 167.199219 129.101562 159.257812 L 129.1875 158.996094 C 129.976562 155.332031 131.550781 151.054688 128.925781 147.738281 C 122.097656 140.929688 133.390625 133.25 131.988281 124.957031 C 133.214844 125.832031 135.054688 124.871094 135.054688 123.386719 C 135.140625 121.640625 132.777344 120.769531 131.726562 122.078125 C 130.589844 115.355469 126.5625 109.507812 125.425781 102.789062 L 125.335938 102.441406 C 124.898438 100.082031 124.8125 97.550781 123.675781 95.457031 C 125.25 96.503906 126.914062 97.289062 128.664062 98.074219 C 125.511719 100.695312 131.550781 103.050781 131.113281 99.035156 C 148.097656 104.011719 151.949219 110.820312 158.253906 126.617188 C 157.113281 125.480469 155.101562 126.964844 155.800781 128.363281 C 156.324219 129.84375 158.777344 129.410156 158.777344 127.835938 L 159.039062 128.535156 C 162.804688 137.613281 166.304688 146.863281 168.054688 156.550781 C 164.640625 156.117188 165.519531 161.527344 168.582031 159.957031 C 169.808594 168.597656 169.808594 177.324219 169.71875 186.050781 C 166.832031 184.570312 166.742188 189.632812 169.71875 188.234375 C 169.632812 195.390625 169.457031 202.460938 169.371094 209.617188 C 169.371094 211.101562 171.734375 211.101562 171.734375 209.617188 C 171.996094 198.707031 172.519531 187.710938 172.257812 176.714844 C 172.347656 157.6875 166.917969 139.359375 158.777344 122.339844 C 151.511719 102.789062 141.53125 100.519531 123.234375 94.847656 C 121.574219 92.316406 117.894531 89.960938 115.007812 91.53125 C 113.257812 88.910156 112.46875 85.683594 111.242188 82.890625 Z M 142.671875 151.226562 C 142.582031 150.964844 142.230469 151.054688 142.230469 151.316406 C 142.058594 154.371094 142.230469 157.511719 142.40625 160.566406 C 142.496094 162.488281 142.671875 164.320312 142.84375 166.242188 C 143.195312 171.214844 143.457031 176.101562 143.71875 181.078125 C 143.632812 181.078125 143.546875 180.992188 143.457031 180.992188 C 143.109375 180.902344 142.671875 180.902344 142.320312 180.992188 C 141.96875 181.078125 141.707031 181.253906 141.445312 181.515625 L 141.355469 181.601562 C 141.183594 181.777344 141.007812 182.039062 140.917969 182.300781 C 140.832031 182.5625 140.742188 182.734375 140.742188 183.085938 L 140.742188 183.171875 C 140.742188 183.523438 140.832031 183.871094 141.007812 184.21875 C 141.269531 184.308594 141.53125 184.570312 141.882812 184.742188 C 142.230469 184.917969 142.582031 185.003906 142.933594 185.003906 C 142.933594 185.003906 143.019531 185.003906 143.019531 185.003906 C 143.28125 185.003906 143.546875 184.917969 143.808594 184.832031 C 143.894531 187.363281 143.984375 189.894531 144.070312 192.335938 C 144.15625 194.519531 144.15625 196.699219 144.246094 198.882812 L 144.246094 202.460938 C 144.246094 203.421875 144.246094 204.382812 144.597656 205.339844 L 144.597656 205.429688 C 144.859375 206.039062 145.035156 206.914062 145.644531 207.261719 C 146.171875 207.523438 146.871094 207.4375 147.132812 206.914062 C 147.398438 206.476562 147.132812 205.777344 146.785156 205.515625 C 146.785156 205.515625 146.785156 205.515625 146.785156 205.429688 C 146.871094 205.253906 146.960938 205.078125 146.960938 204.90625 C 147.132812 204.382812 147.046875 203.769531 147.046875 203.246094 C 147.046875 202.285156 147.046875 201.328125 146.960938 200.367188 C 146.871094 198.273438 146.871094 196.265625 146.785156 194.167969 C 146.785156 187.273438 146.257812 180.378906 145.644531 173.398438 L 145.472656 171.039062 C 145.207031 167.898438 144.945312 164.84375 144.507812 161.703125 C 144.507812 161.527344 144.507812 161.441406 144.421875 161.265625 C 144.597656 161.179688 144.859375 161.003906 144.945312 160.828125 C 145.558594 160.21875 145.910156 159.171875 146.257812 158.386719 L 146.347656 158.210938 C 146.695312 157.339844 147.046875 156.378906 147.308594 155.417969 L 147.308594 155.332031 C 147.398438 154.894531 147.570312 154.195312 147.132812 154.019531 C 146.871094 153.933594 146.785156 154.019531 146.695312 154.195312 C 146.695312 154.195312 146.695312 154.285156 146.695312 154.285156 C 146.523438 154.546875 146.257812 154.808594 146.085938 155.070312 L 145.472656 155.941406 L 145.207031 156.378906 C 144.859375 156.902344 144.421875 157.511719 143.984375 158.035156 C 143.71875 155.765625 143.28125 153.496094 142.671875 151.226562 Z M 117.722656 202.808594 C 116.933594 202.199219 115.707031 202.546875 115.707031 203.59375 C 115.707031 204.730469 116.933594 204.992188 117.722656 204.382812 C 118.160156 204.03125 118.160156 203.246094 117.722656 202.898438 L 117.722656 202.808594 C 117.808594 202.898438 117.722656 202.898438 117.722656 202.808594 Z M 150.8125 200.714844 C 150.375 200.714844 150.109375 200.800781 149.761719 200.976562 C 149.671875 201.066406 149.5 201.152344 149.410156 201.238281 C 149.148438 201.5 148.972656 201.761719 148.886719 202.113281 L 148.796875 202.636719 C 148.796875 202.898438 148.886719 203.160156 148.972656 203.332031 C 149.148438 203.59375 149.234375 203.769531 149.410156 203.945312 C 149.585938 204.121094 149.761719 204.292969 150.023438 204.292969 C 150.199219 204.382812 150.460938 204.46875 150.722656 204.46875 L 150.8125 204.46875 C 151.160156 204.46875 151.511719 204.382812 151.773438 204.207031 C 151.863281 204.121094 152.035156 204.03125 152.125 203.945312 C 152.386719 203.683594 152.5625 203.421875 152.648438 203.070312 C 152.648438 202.898438 152.738281 202.722656 152.738281 202.546875 C 152.738281 202.285156 152.648438 202.023438 152.5625 201.851562 C 152.472656 201.589844 152.386719 201.414062 152.125 201.238281 C 151.949219 201.066406 151.773438 200.890625 151.511719 200.800781 C 151.335938 200.714844 151.074219 200.714844 150.8125 200.714844 Z M 64.234375 197.222656 L 63.710938 197.3125 C 63.273438 197.398438 62.832031 197.746094 62.660156 198.183594 C 62.484375 198.359375 62.484375 198.621094 62.484375 198.882812 C 62.394531 199.144531 62.484375 199.40625 62.484375 199.582031 C 62.570312 199.84375 62.660156 200.015625 62.832031 200.191406 C 62.921875 200.277344 62.921875 200.367188 63.007812 200.453125 C 63.183594 200.714844 63.359375 200.890625 63.621094 201.066406 C 63.796875 201.152344 64.058594 201.238281 64.234375 201.238281 C 64.410156 201.238281 64.585938 201.238281 64.671875 201.238281 C 64.933594 201.238281 65.109375 201.152344 65.285156 201.066406 C 65.371094 200.976562 65.546875 200.890625 65.636719 200.800781 C 65.722656 200.714844 65.808594 200.539062 65.898438 200.453125 C 65.984375 200.277344 65.984375 200.191406 66.074219 200.015625 C 66.160156 199.667969 66.160156 199.40625 66.074219 199.058594 C 66.074219 198.96875 66.074219 198.96875 65.984375 198.882812 L 65.984375 198.796875 C 65.898438 198.535156 65.808594 198.445312 65.636719 198.183594 L 65.546875 198.097656 C 65.546875 198.007812 65.460938 198.007812 65.460938 197.921875 C 65.371094 197.835938 65.199219 197.660156 65.023438 197.574219 C 64.933594 197.3125 64.585938 197.222656 64.234375 197.222656 Z M 127.089844 196.003906 C 126.738281 196.003906 126.476562 196.089844 126.300781 196.175781 L 126.039062 196.4375 C 125.863281 196.613281 125.6875 196.875 125.6875 197.136719 C 125.6875 197.3125 125.6875 197.398438 125.601562 197.574219 C 125.601562 197.746094 125.601562 198.007812 125.6875 198.183594 C 125.773438 198.359375 125.863281 198.535156 126.039062 198.621094 C 126.210938 198.796875 126.300781 198.882812 126.476562 198.96875 C 126.648438 199.058594 126.824219 199.058594 127 199.058594 L 127.089844 199.058594 C 127.351562 199.058594 127.613281 198.96875 127.875 198.882812 L 128.136719 198.621094 C 128.3125 198.445312 128.488281 198.183594 128.488281 197.921875 C 128.488281 197.746094 128.488281 197.660156 128.574219 197.484375 C 128.574219 197.3125 128.574219 197.050781 128.488281 196.875 C 128.402344 196.699219 128.3125 196.527344 128.136719 196.4375 C 127.964844 196.265625 127.875 196.175781 127.699219 196.089844 C 127.4375 196.089844 127.261719 196.003906 127.089844 196.003906 Z M 139.257812 195.390625 C 138.90625 195.390625 138.46875 195.480469 138.117188 195.742188 C 137.769531 195.914062 137.59375 196.175781 137.417969 196.527344 C 137.417969 196.613281 137.328125 196.699219 137.328125 196.789062 C 137.15625 197.222656 137.15625 197.660156 137.328125 198.007812 C 137.503906 198.445312 138.03125 198.621094 138.378906 198.707031 C 138.730469 198.796875 139.082031 198.796875 139.429688 198.707031 C 139.78125 198.707031 139.867188 198.621094 140.042969 198.535156 C 140.304688 198.359375 140.480469 198.183594 140.65625 197.921875 C 140.832031 197.660156 140.917969 197.398438 140.917969 197.050781 C 140.917969 196.789062 140.832031 196.4375 140.65625 196.175781 C 140.394531 195.742188 139.867188 195.390625 139.257812 195.390625 Z M 158.863281 195.742188 C 158.339844 195.742188 157.988281 196.003906 157.640625 196.351562 C 157.375 196.699219 157.203125 197.222656 157.375 197.660156 C 157.550781 198.183594 157.902344 198.621094 158.425781 198.707031 C 158.777344 198.796875 159.128906 198.796875 159.476562 198.707031 C 159.828125 198.621094 160.089844 198.445312 160.265625 198.273438 C 160.527344 198.007812 160.617188 197.660156 160.617188 197.3125 C 160.527344 196.960938 160.441406 196.789062 160.179688 196.527344 L 160.265625 196.613281 C 160.265625 196.613281 160.179688 196.527344 160.179688 196.527344 C 160.179688 196.527344 160.179688 196.527344 160.179688 196.4375 C 160.003906 196.175781 159.828125 196.003906 159.652344 195.914062 C 159.390625 195.828125 159.128906 195.742188 158.863281 195.742188 Z M 45.0625 190.15625 C 44.800781 190.066406 44.539062 190.066406 44.273438 190.15625 C 44.101562 190.242188 43.925781 190.328125 43.75 190.417969 C 43.574219 190.503906 43.488281 190.679688 43.398438 190.765625 L 43.398438 190.851562 C 43.226562 191.203125 43.136719 191.636719 43.226562 191.988281 C 43.3125 192.511719 43.75 192.949219 44.273438 193.035156 C 44.449219 193.121094 44.714844 193.121094 44.886719 193.035156 C 45.0625 193.035156 45.238281 192.949219 45.414062 192.859375 C 45.589844 192.6875 45.851562 192.511719 45.9375 192.335938 C 46.027344 192.160156 46.113281 191.988281 46.113281 191.8125 C 46.113281 191.636719 46.113281 191.550781 46.113281 191.375 C 46.113281 191.203125 46.027344 191.027344 45.9375 190.851562 L 45.675781 190.589844 C 45.5 190.328125 45.324219 190.242188 45.0625 190.15625 Z M 63.621094 180.378906 C 61.171875 180.378906 61.171875 184.132812 63.621094 184.132812 C 66.074219 184.132812 66.074219 180.378906 63.621094 180.378906 Z M 152.386719 179.941406 C 152.125 179.855469 151.863281 179.855469 151.597656 179.941406 C 151.425781 180.03125 151.335938 180.03125 151.160156 180.117188 L 150.8125 180.378906 C 150.722656 180.464844 150.722656 180.464844 150.636719 180.554688 L 150.546875 180.640625 C 150.460938 180.816406 150.460938 180.816406 150.285156 181.164062 C 150.199219 181.515625 150.199219 181.863281 150.285156 182.125 C 150.285156 182.300781 150.375 182.472656 150.460938 182.5625 C 150.546875 182.734375 150.636719 182.824219 150.722656 182.910156 L 150.8125 182.996094 C 150.984375 183.171875 151.160156 183.347656 151.425781 183.433594 C 151.597656 183.523438 151.773438 183.523438 151.949219 183.523438 C 152.210938 183.609375 152.472656 183.609375 152.738281 183.523438 C 152.910156 183.433594 153 183.433594 153.175781 183.347656 L 153.523438 183.085938 L 153.789062 182.734375 L 153.960938 182.210938 L 154.050781 181.6875 C 154.050781 181.425781 153.960938 181.164062 153.875 180.992188 C 153.789062 180.816406 153.789062 180.730469 153.613281 180.554688 C 153.523438 180.378906 153.4375 180.292969 153.261719 180.203125 C 153.175781 180.117188 153 180.03125 152.824219 179.941406 C 152.738281 179.941406 152.5625 179.941406 152.386719 179.941406 Z M 32.457031 177.238281 C 32.28125 177.238281 32.105469 177.238281 31.933594 177.324219 C 31.84375 177.324219 31.84375 177.410156 31.757812 177.410156 C 31.496094 177.5 31.320312 177.761719 31.230469 177.9375 C 31.144531 178.109375 31.058594 178.285156 31.058594 178.460938 C 31.058594 178.632812 31.058594 178.808594 31.058594 178.984375 L 31.058594 179.070312 C 31.058594 179.246094 31.144531 179.332031 31.230469 179.507812 C 31.320312 179.679688 31.496094 179.855469 31.757812 179.941406 C 32.019531 180.03125 32.195312 180.117188 32.457031 180.117188 C 32.984375 180.117188 33.421875 179.855469 33.683594 179.417969 C 33.683594 179.332031 33.769531 179.246094 33.769531 179.246094 C 33.769531 179.15625 33.859375 179.070312 33.859375 179.070312 C 33.945312 178.808594 33.945312 178.546875 33.859375 178.285156 C 33.769531 178.109375 33.683594 177.9375 33.59375 177.761719 C 33.507812 177.585938 33.332031 177.5 33.15625 177.410156 C 33.070312 177.324219 32.808594 177.238281 32.457031 177.238281 Z M 134.878906 175.40625 C 134.617188 175.316406 134.355469 175.316406 134.089844 175.40625 L 134.003906 175.40625 C 133.828125 175.492188 133.652344 175.578125 133.476562 175.667969 C 133.304688 175.753906 133.214844 175.929688 133.039062 176.101562 C 132.867188 176.363281 132.867188 176.625 132.867188 176.886719 C 132.867188 177.148438 132.953125 177.410156 133.039062 177.675781 C 133.214844 177.9375 133.390625 178.109375 133.566406 178.199219 L 133.742188 178.285156 C 133.914062 178.371094 134.089844 178.460938 134.265625 178.460938 C 134.355469 178.460938 134.527344 178.460938 134.617188 178.460938 C 134.792969 178.460938 134.878906 178.460938 134.964844 178.371094 C 135.054688 178.371094 135.230469 178.285156 135.316406 178.199219 C 135.492188 178.109375 135.578125 177.9375 135.667969 177.761719 L 135.84375 177.410156 L 135.929688 177.0625 L 135.84375 176.714844 L 135.753906 176.539062 C 135.667969 176.277344 135.578125 176.015625 135.316406 175.839844 C 135.316406 175.578125 135.140625 175.492188 134.878906 175.40625 Z M 43.136719 172.261719 C 42.875 172.175781 42.613281 172.175781 42.347656 172.261719 C 42.175781 172.261719 42 172.351562 41.824219 172.4375 C 41.648438 172.523438 41.472656 172.613281 41.386719 172.699219 C 41.125 172.875 41.035156 173.046875 40.863281 173.222656 L 40.6875 173.746094 C 40.597656 174.09375 40.597656 174.53125 40.6875 174.792969 C 40.773438 175.054688 40.863281 175.316406 41.035156 175.492188 C 41.125 175.667969 41.210938 175.753906 41.386719 175.839844 C 41.5625 176.015625 41.738281 176.101562 42 176.191406 L 42.085938 176.191406 C 42.175781 176.191406 42.261719 176.191406 42.347656 176.191406 C 42.613281 176.277344 42.875 176.277344 43.136719 176.191406 C 43.3125 176.101562 43.488281 176.015625 43.574219 176.015625 C 43.75 175.929688 43.835938 175.839844 44.011719 175.667969 C 44.101562 175.492188 44.1875 175.40625 44.363281 175.230469 C 44.539062 174.96875 44.625 174.707031 44.625 174.445312 C 44.714844 174.269531 44.714844 174.09375 44.625 173.921875 C 44.625 173.746094 44.539062 173.570312 44.449219 173.398438 C 44.363281 173.136719 44.1875 172.960938 44.011719 172.785156 C 43.835938 172.699219 43.75 172.613281 43.574219 172.4375 C 43.488281 172.4375 43.3125 172.351562 43.136719 172.261719 Z M 161.140625 165.714844 C 160.878906 165.628906 160.617188 165.628906 160.265625 165.714844 L 159.914062 165.890625 C 159.738281 165.980469 159.566406 166.152344 159.476562 166.328125 C 159.300781 166.503906 159.214844 166.675781 159.214844 166.851562 C 159.128906 167.113281 159.128906 167.550781 159.214844 167.898438 C 159.300781 168.246094 159.476562 168.507812 159.738281 168.683594 C 160.089844 169.121094 160.703125 169.207031 161.226562 169.121094 C 161.402344 169.121094 161.492188 169.035156 161.667969 168.945312 C 162.105469 168.683594 162.367188 168.246094 162.367188 167.8125 C 162.367188 167.722656 162.367188 167.722656 162.367188 167.636719 C 162.367188 167.550781 162.367188 167.460938 162.367188 167.289062 L 162.277344 166.851562 C 162.191406 166.589844 162.105469 166.328125 161.839844 166.152344 C 161.667969 165.890625 161.402344 165.804688 161.140625 165.714844 Z M 21.515625 124.257812 C 22.039062 120.15625 23.878906 115.707031 29.742188 118.148438 L 30.179688 118.324219 C 31.582031 118.847656 33.246094 119.546875 34.121094 120.855469 C 34.734375 121.726562 34.558594 123.386719 34.558594 124.433594 C 34.910156 127.664062 34.734375 130.980469 34.382812 134.210938 C 33.859375 141.800781 35.519531 149.746094 38.671875 156.640625 C 35.433594 161.789062 31.144531 166.675781 25.367188 168.769531 C 25.105469 162.921875 23.964844 157.164062 22.742188 151.402344 L 22.652344 151.140625 C 22.128906 148.523438 21.953125 145.90625 20.203125 143.722656 C 16.699219 139.96875 11.972656 142.0625 9.695312 136.042969 C 10.136719 135.78125 9.871094 134.996094 9.347656 135.167969 C 7.332031 135.519531 6.984375 131.851562 8.382812 130.894531 C 9.785156 130.019531 8.382812 128.449219 8.996094 127.226562 C 9.347656 126.703125 10.046875 126.703125 10.398438 126.179688 C 11.273438 124.085938 6.894531 122.6875 12.0625 120.332031 C 13.109375 119.984375 14.335938 120.15625 15.386719 120.15625 C 16.964844 120.332031 18.1875 121.378906 19.675781 121.726562 C 18.101562 125.742188 22.039062 129.671875 25.628906 126.441406 C 27.554688 128.273438 29.742188 132.464844 25.015625 130.457031 C 22.742188 128.886719 20.726562 126.964844 18.101562 126.003906 L 18.011719 126.003906 C 17.050781 125.65625 12.671875 123.5625 12.9375 125.394531 C 14.597656 126.964844 17.226562 126.964844 19.152344 128.1875 C 21.777344 129.410156 23.441406 132.289062 26.59375 132.289062 C 27.292969 136.652344 22.304688 134.035156 20.464844 132.8125 L 19.9375 132.550781 C 17.3125 131.15625 14.6875 129.84375 11.625 129.84375 C 10.746094 129.84375 10.746094 131.15625 11.625 131.15625 C 15.5625 131.15625 18.800781 133.683594 22.128906 135.519531 C 22.476562 138.050781 18.714844 136.914062 17.3125 136.566406 C 15.824219 136.390625 13.460938 134.734375 12.148438 135.605469 C 11.625 136.914062 13.898438 136.828125 14.6875 137.175781 C 11.097656 138.921875 14.25 139.96875 15.210938 137.351562 L 15.476562 137.4375 C 17.839844 138.222656 23.617188 139.882812 23.003906 135.867188 C 23.878906 136.214844 24.929688 136.476562 25.890625 136.304688 C 28.253906 139.882812 32.105469 138.484375 26.59375 136.042969 C 27.816406 135.429688 28.253906 133.25 27.03125 132.375 C 31.40625 132.113281 28.167969 127.488281 26.328125 126.003906 C 26.503906 125.832031 26.679688 125.65625 26.855469 125.480469 C 27.90625 126.003906 29.042969 126.265625 30.179688 126.355469 C 31.320312 126.441406 31.582031 124.519531 30.445312 124.347656 C 29.21875 124.171875 28.167969 123.824219 27.117188 123.300781 C 25.542969 122.601562 25.015625 125.570312 23.351562 125.65625 C 22.304688 125.832031 21.691406 125.046875 21.515625 124.257812 Z M 58.542969 162.3125 C 58.195312 162.3125 57.84375 162.488281 57.582031 162.75 C 57.320312 163.011719 57.144531 163.359375 57.144531 163.710938 C 57.144531 163.882812 57.144531 164.058594 57.230469 164.234375 C 57.320312 164.40625 57.40625 164.582031 57.492188 164.667969 C 57.757812 164.929688 58.105469 165.105469 58.457031 165.105469 C 58.808594 165.105469 59.15625 164.929688 59.417969 164.667969 C 59.683594 164.40625 59.859375 164.058594 59.859375 163.710938 C 59.859375 163.535156 59.859375 163.359375 59.769531 163.1875 C 59.683594 163.011719 59.59375 162.921875 59.507812 162.75 C 59.246094 162.488281 58.894531 162.3125 58.542969 162.3125 Z M 46.902344 153.585938 C 46.550781 153.585938 46.203125 153.671875 45.9375 153.847656 C 45.851562 153.933594 45.675781 154.019531 45.589844 154.109375 C 45.324219 154.371094 45.238281 154.632812 45.152344 154.894531 C 45.0625 155.242188 45.0625 155.503906 45.152344 155.855469 C 45.152344 156.027344 45.238281 156.203125 45.324219 156.378906 C 45.5 156.640625 45.675781 156.8125 45.9375 156.988281 C 46.203125 157.164062 46.550781 157.25 46.8125 157.25 C 47.164062 157.25 47.425781 157.164062 47.6875 156.988281 C 47.953125 156.8125 48.128906 156.640625 48.300781 156.378906 C 48.390625 156.203125 48.476562 156.027344 48.476562 155.855469 C 48.566406 155.503906 48.566406 155.242188 48.476562 154.894531 C 48.390625 154.632812 48.300781 154.371094 48.039062 154.109375 L 47.953125 154.019531 C 47.777344 153.847656 47.601562 153.757812 47.339844 153.671875 C 47.339844 153.585938 47.078125 153.585938 46.902344 153.585938 Z M 135.84375 153.671875 C 135.667969 153.671875 135.578125 153.671875 135.402344 153.671875 C 135.230469 153.671875 135.054688 153.757812 134.792969 153.847656 C 134.703125 153.933594 134.617188 154.019531 134.441406 154.109375 L 134.355469 154.195312 C 134.179688 154.457031 134.179688 154.457031 134.003906 154.808594 C 133.914062 154.980469 133.914062 155.242188 134.003906 155.417969 C 134.003906 155.59375 134.003906 155.679688 134.089844 155.765625 C 134.089844 155.855469 134.179688 156.027344 134.265625 156.117188 C 134.355469 156.203125 134.441406 156.289062 134.527344 156.378906 C 134.703125 156.550781 134.878906 156.640625 135.054688 156.640625 L 135.492188 156.726562 C 135.578125 156.726562 135.578125 156.726562 135.667969 156.726562 C 135.753906 156.726562 135.753906 156.726562 135.84375 156.726562 L 136.015625 156.726562 C 136.105469 156.726562 136.191406 156.640625 136.191406 156.640625 C 136.28125 156.640625 136.453125 156.550781 136.542969 156.464844 C 136.71875 156.378906 136.804688 156.203125 136.980469 156.027344 L 136.980469 155.941406 C 136.980469 155.855469 137.066406 155.855469 137.066406 155.765625 C 137.15625 155.59375 137.15625 155.417969 137.15625 155.332031 C 137.15625 155.15625 137.15625 154.980469 137.15625 154.808594 L 137.15625 154.71875 L 136.980469 154.371094 C 136.890625 154.285156 136.804688 154.109375 136.71875 154.019531 C 136.628906 153.933594 136.542969 153.847656 136.453125 153.757812 L 136.367188 153.757812 C 136.191406 153.671875 136.015625 153.671875 135.84375 153.671875 Z M 158.164062 150.964844 C 157.902344 149.917969 156.5 149.570312 155.800781 150.355469 C 155.011719 151.140625 155.363281 152.449219 156.414062 152.710938 L 156.5 152.710938 C 157.550781 152.972656 158.425781 152.015625 158.164062 151.054688 Z M 31.230469 142.5 C 31.230469 142.414062 31.144531 142.324219 31.058594 142.414062 C 30.179688 143.199219 29.570312 144.160156 28.519531 144.769531 C 27.46875 145.378906 26.328125 145.378906 25.191406 145.730469 C 24.839844 145.90625 24.839844 146.339844 25.191406 146.515625 C 27.292969 147.300781 31.058594 144.769531 31.230469 142.5 Z M 131.988281 142.324219 C 131.726562 142.238281 131.550781 142.238281 131.289062 142.324219 C 131.113281 142.324219 130.941406 142.324219 130.851562 142.414062 C 130.675781 142.414062 130.589844 142.5 130.414062 142.675781 C 130.238281 142.761719 130.152344 142.851562 130.0625 143.023438 C 129.890625 143.199219 129.800781 143.375 129.714844 143.636719 L 129.625 144.070312 L 129.714844 144.507812 C 129.800781 144.683594 129.800781 144.769531 129.890625 144.945312 L 130.152344 145.207031 C 130.328125 145.378906 130.328125 145.378906 130.589844 145.644531 C 130.765625 145.730469 131.027344 145.816406 131.289062 145.816406 C 131.464844 145.90625 131.640625 145.90625 131.726562 145.816406 C 131.902344 145.816406 132.078125 145.816406 132.164062 145.730469 C 132.339844 145.730469 132.429688 145.644531 132.601562 145.46875 C 132.777344 145.378906 132.953125 145.207031 133.039062 144.945312 C 133.128906 144.769531 133.128906 144.683594 133.214844 144.507812 L 133.304688 144.070312 L 133.214844 143.636719 C 133.128906 143.375 132.953125 143.113281 132.777344 142.851562 L 132.429688 142.589844 C 132.253906 142.414062 132.164062 142.324219 131.988281 142.324219 Z M 45.675781 142.675781 C 45.152344 142.5 44.625 142.675781 44.1875 143.023438 C 43.835938 143.375 43.664062 143.984375 43.835938 144.507812 C 44.011719 145.03125 44.363281 145.378906 44.886719 145.554688 C 45.0625 145.554688 45.152344 145.644531 45.324219 145.644531 C 45.589844 145.644531 45.851562 145.554688 46.027344 145.46875 L 46.289062 145.207031 C 46.464844 145.117188 46.550781 144.945312 46.550781 144.769531 C 46.640625 144.59375 46.726562 144.421875 46.640625 144.246094 C 46.640625 144.160156 46.640625 144.070312 46.640625 144.070312 C 46.640625 143.984375 46.640625 143.898438 46.640625 143.898438 C 46.550781 143.199219 46.203125 142.761719 45.675781 142.675781 Z M 156.0625 137.699219 C 155.886719 137.699219 155.714844 137.699219 155.625 137.789062 C 155.449219 137.875 155.363281 137.875 155.277344 138.050781 C 155.1875 138.136719 155.101562 138.3125 155.011719 138.398438 C 154.925781 138.574219 154.925781 138.660156 154.925781 138.835938 C 154.925781 139.007812 155.011719 139.269531 155.101562 139.445312 C 155.1875 139.53125 155.1875 139.621094 155.277344 139.707031 C 155.449219 139.882812 155.625 139.96875 155.800781 140.058594 L 155.886719 140.058594 C 156.0625 140.144531 156.238281 140.144531 156.414062 140.058594 C 156.589844 140.058594 156.765625 139.96875 156.9375 139.882812 C 157.113281 139.796875 157.203125 139.707031 157.289062 139.53125 L 157.375 139.269531 C 157.375 139.183594 157.375 139.097656 157.375 139.007812 C 157.375 138.921875 157.375 138.746094 157.375 138.660156 C 157.375 138.484375 157.289062 138.398438 157.203125 138.222656 C 157.113281 138.136719 157.027344 137.960938 156.851562 137.960938 C 156.851562 137.960938 156.765625 137.875 156.765625 137.875 C 156.5 137.699219 156.324219 137.699219 156.0625 137.699219 Z M 60.558594 136.390625 C 60.296875 136.390625 59.945312 136.476562 59.769531 136.652344 C 59.507812 136.828125 59.332031 137.003906 59.15625 137.265625 C 58.980469 137.527344 58.894531 137.789062 58.894531 138.050781 C 58.894531 138.3125 58.980469 138.574219 59.15625 138.835938 C 59.332031 139.097656 59.507812 139.269531 59.769531 139.445312 C 60.03125 139.621094 60.296875 139.707031 60.558594 139.707031 C 60.820312 139.707031 61.171875 139.621094 61.34375 139.445312 C 61.871094 139.183594 62.132812 138.574219 62.132812 138.050781 C 62.132812 137.4375 61.785156 136.914062 61.34375 136.652344 C 61.171875 136.476562 60.90625 136.390625 60.558594 136.390625 Z M 137.417969 134.210938 C 137.15625 134.210938 136.980469 134.210938 136.804688 134.296875 C 136.628906 134.382812 136.453125 134.472656 136.367188 134.558594 L 136.105469 134.820312 L 136.015625 134.90625 C 135.84375 135.082031 135.753906 135.34375 135.667969 135.519531 C 135.667969 135.691406 135.667969 135.78125 135.578125 135.953125 C 135.578125 136.304688 135.753906 136.742188 136.015625 137.003906 C 136.105469 137.175781 136.28125 137.265625 136.453125 137.265625 C 136.628906 137.351562 136.804688 137.351562 136.980469 137.351562 C 137.417969 137.351562 137.769531 137.265625 138.03125 136.914062 C 138.03125 136.914062 138.117188 136.828125 138.117188 136.828125 L 138.378906 136.566406 C 138.554688 136.390625 138.644531 136.214844 138.730469 135.953125 C 138.730469 135.867188 138.730469 135.691406 138.816406 135.605469 C 138.816406 135.257812 138.644531 134.90625 138.378906 134.644531 C 138.117188 134.382812 137.769531 134.210938 137.417969 134.210938 Z M 146.695312 130.367188 C 144.769531 130.367188 144.769531 133.335938 146.695312 133.335938 C 148.621094 133.335938 148.621094 130.367188 146.695312 130.367188 Z M 50.054688 126.179688 C 49.703125 126.179688 49.351562 126.265625 49.089844 126.441406 L 48.738281 126.703125 C 48.566406 126.964844 48.390625 127.140625 48.300781 127.488281 C 48.300781 127.664062 48.300781 127.835938 48.214844 127.925781 C 48.214844 128.1875 48.214844 128.363281 48.390625 128.625 C 48.476562 128.796875 48.566406 129.058594 48.738281 129.234375 C 48.914062 129.410156 49.089844 129.496094 49.351562 129.582031 C 49.527344 129.671875 49.789062 129.757812 50.054688 129.757812 C 50.402344 129.757812 50.664062 129.671875 50.929688 129.496094 C 51.015625 129.410156 51.191406 129.320312 51.277344 129.234375 C 51.453125 129.058594 51.628906 128.796875 51.714844 128.535156 L 51.714844 128.449219 L 51.804688 128.011719 C 51.804688 127.75 51.804688 127.574219 51.628906 127.3125 C 51.542969 127.050781 51.453125 126.878906 51.277344 126.703125 C 51.101562 126.527344 50.929688 126.441406 50.664062 126.355469 C 50.492188 126.265625 50.226562 126.179688 50.054688 126.179688 Z M 58.71875 120.59375 C 58.542969 120.59375 58.371094 120.59375 58.28125 120.679688 C 58.105469 120.769531 58.019531 120.855469 57.84375 120.941406 C 57.582031 121.117188 57.492188 121.554688 57.492188 121.816406 C 57.492188 122.078125 57.667969 122.515625 57.84375 122.6875 C 58.019531 122.863281 58.195312 122.949219 58.371094 123.039062 L 58.71875 123.125 C 59.070312 123.125 59.332031 122.949219 59.59375 122.777344 C 59.683594 122.777344 59.683594 122.6875 59.769531 122.6875 C 59.945312 122.515625 60.03125 122.253906 60.121094 121.902344 C 60.121094 121.726562 60.121094 121.640625 60.03125 121.464844 C 60.03125 121.292969 59.945312 121.203125 59.769531 121.117188 C 59.683594 121.117188 59.683594 121.03125 59.59375 121.03125 C 59.332031 120.769531 59.070312 120.59375 58.71875 120.59375 Z M 3.832031 110.644531 C 2.605469 109.160156 3.308594 108.113281 5.144531 108.460938 C 8.296875 108.898438 11.273438 110.90625 13.988281 112.300781 C 17.050781 113.875 20.113281 115.183594 23.179688 116.667969 C 21.863281 117.453125 20.988281 118.671875 20.203125 120.070312 C 18.800781 118.933594 16.875 118.410156 15.125 118.410156 C 11.972656 115.355469 6.546875 114.660156 3.832031 110.644531 Z M 147.398438 115.617188 C 147.046875 115.617188 146.785156 115.707031 146.433594 115.878906 L 146.347656 115.878906 L 145.910156 116.230469 C 145.734375 116.40625 145.558594 116.578125 145.472656 116.839844 C 145.472656 117.015625 145.382812 117.277344 145.382812 117.539062 C 145.382812 117.800781 145.472656 118.0625 145.558594 118.324219 C 145.644531 118.585938 145.734375 118.761719 145.996094 118.933594 C 146.085938 119.023438 146.257812 119.199219 146.433594 119.285156 C 146.609375 119.285156 146.695312 119.371094 146.871094 119.460938 C 147.046875 119.546875 147.222656 119.546875 147.484375 119.546875 C 147.835938 119.546875 148.183594 119.460938 148.449219 119.285156 L 148.796875 119.023438 C 148.972656 118.847656 149.148438 118.671875 149.234375 118.410156 C 149.324219 118.148438 149.410156 117.886719 149.410156 117.714844 L 149.410156 117.625 C 149.410156 117.625 149.410156 117.625 149.410156 117.539062 C 149.410156 117.363281 149.324219 117.191406 149.324219 117.015625 C 149.234375 116.753906 149.148438 116.578125 148.972656 116.316406 C 148.886719 116.230469 148.886719 116.140625 148.796875 116.054688 C 148.535156 115.792969 148.273438 115.617188 147.921875 115.53125 C 147.746094 115.617188 147.570312 115.617188 147.398438 115.617188 Z M 61.609375 110.730469 C 61.34375 110.730469 61.082031 110.820312 60.820312 110.90625 C 60.734375 110.992188 60.644531 111.082031 60.558594 111.082031 C 60.382812 111.253906 60.296875 111.429688 60.207031 111.691406 L 60.121094 112.039062 C 60.121094 112.214844 60.121094 112.390625 60.207031 112.5625 C 60.296875 112.738281 60.382812 112.914062 60.46875 113 C 60.558594 113.175781 60.734375 113.261719 60.90625 113.261719 C 61.082031 113.351562 61.257812 113.351562 61.433594 113.351562 C 61.695312 113.351562 61.871094 113.261719 62.132812 113.175781 C 62.222656 113.085938 62.308594 113 62.394531 113 C 62.570312 112.824219 62.660156 112.652344 62.746094 112.476562 L 62.746094 112.390625 L 62.832031 112.039062 C 62.832031 111.867188 62.832031 111.691406 62.746094 111.515625 C 62.660156 111.34375 62.570312 111.167969 62.484375 111.082031 C 62.394531 110.90625 62.222656 110.820312 62.046875 110.820312 C 61.871094 110.730469 61.785156 110.730469 61.609375 110.730469 Z M 136.542969 108.722656 C 136.105469 108.722656 135.753906 108.8125 135.492188 108.984375 C 135.316406 109.074219 135.230469 109.160156 135.054688 109.335938 C 134.792969 109.597656 134.617188 109.859375 134.527344 110.207031 L 134.441406 110.730469 C 134.441406 110.992188 134.527344 111.253906 134.617188 111.515625 C 134.703125 111.777344 134.878906 111.953125 135.054688 112.214844 C 135.230469 112.390625 135.492188 112.5625 135.667969 112.652344 C 135.929688 112.738281 136.191406 112.824219 136.453125 112.824219 C 136.804688 112.824219 137.15625 112.738281 137.503906 112.5625 C 137.679688 112.476562 137.769531 112.390625 137.941406 112.214844 C 138.207031 111.953125 138.378906 111.691406 138.46875 111.34375 L 138.554688 110.820312 C 138.554688 110.558594 138.46875 110.292969 138.378906 110.03125 C 138.292969 109.769531 138.117188 109.597656 137.941406 109.421875 C 137.769531 109.246094 137.503906 109.074219 137.328125 108.984375 C 137.066406 108.722656 136.804688 108.722656 136.542969 108.722656 Z M 68.085938 103.660156 C 67.910156 103.574219 67.734375 103.574219 67.5625 103.660156 C 67.296875 103.660156 67.035156 103.75 66.859375 103.921875 L 66.511719 104.183594 C 66.246094 104.445312 66.160156 104.710938 66.074219 104.972656 L 65.984375 105.496094 C 65.984375 105.757812 66.074219 106.019531 66.160156 106.191406 C 66.246094 106.367188 66.335938 106.628906 66.511719 106.714844 L 66.597656 106.804688 C 66.773438 106.976562 66.949219 107.152344 67.210938 107.152344 C 67.386719 107.238281 67.5625 107.238281 67.648438 107.238281 C 67.910156 107.328125 68.171875 107.328125 68.4375 107.238281 C 68.613281 107.152344 68.699219 107.152344 68.875 107.066406 C 69.488281 106.714844 69.835938 106.105469 69.835938 105.496094 C 69.835938 104.882812 69.488281 104.183594 68.875 103.921875 C 68.875 103.921875 68.875 103.921875 68.785156 103.921875 C 68.613281 103.75 68.347656 103.660156 68.085938 103.660156 Z M 68.085938 103.660156 " fill-opacity="1" fill-rule="evenodd"/></g></g><g clip-path="url(#3bf1926049)"><g clip-path="url(#52f8b54a7f)"><path fill="#ffffff" d="M 65.515625 32.609375 C 72.082031 15.589844 83.8125 3.019531 103.507812 10.875 C 104.035156 10.527344 104.820312 10.351562 105.523438 10.875 C 116.289062 17.597656 124.078125 28.417969 127.40625 40.636719 C 129.421875 40.988281 131.433594 41.683594 133.183594 42.820312 C 137.035156 45.265625 139.660156 49.105469 142.113281 52.769531 C 142.8125 53.902344 142.199219 55.738281 140.800781 56 C 140.1875 56.085938 139.574219 56.171875 139.050781 56.171875 C 139.222656 56.695312 139.398438 57.222656 139.660156 57.65625 C 140.539062 59.316406 138.875 61.0625 137.386719 60.625 C 137.210938 60.710938 137.035156 60.800781 136.859375 60.886719 C 136.859375 61.847656 136.335938 63.070312 135.371094 63.242188 C 133.796875 63.59375 131.785156 62.371094 132.132812 60.625 C 131.695312 60.710938 131.171875 60.710938 130.734375 60.625 C 130.644531 61.496094 130.734375 62.457031 130.558594 63.332031 C 130.121094 67.257812 126.179688 69.875 122.503906 68.742188 C 122.242188 69.964844 121.980469 71.710938 120.753906 72.320312 C 119.351562 76.246094 116.902344 80.785156 112.875 82.617188 C 113.226562 83.492188 113.050781 84.625 112 85.238281 C 104.644531 89.425781 95.890625 90.824219 87.664062 89.253906 C 84.335938 89.078125 81.097656 88.292969 78.035156 86.722656 C 75.757812 85.585938 73.746094 84.101562 71.644531 82.617188 C 69.628906 81.136719 67.441406 79.652344 65.867188 77.644531 C 64.117188 75.550781 63.328125 73.019531 62.800781 70.3125 C 60.261719 58.179688 61.140625 46.3125 65.515625 34.703125 C 71.03125 20.390625 60.089844 46.921875 65.515625 32.609375 Z M 65.515625 32.609375 " fill-opacity="1" fill-rule="evenodd"/></g></g><g clip-path="url(#d3d5f06f2d)"><g clip-path="url(#ebb511d2b3)"><path fill="#000000" d="M 97.03125 7.558594 C 93.703125 7.296875 90.289062 7.910156 87.136719 8.867188 C 82.0625 10.441406 77.421875 13.320312 73.65625 16.984375 C 69.71875 20.738281 66.828125 25.453125 65.078125 30.601562 C 62.976562 36.796875 62.628906 43.429688 62.015625 49.890625 C 61.75 53.207031 61.226562 56.347656 60.703125 59.664062 L 60.613281 60.1875 C 60.089844 63.332031 59.824219 66.558594 60.527344 69.703125 C 61.664062 74.9375 65.164062 79.390625 69.367188 82.707031 C 77.859375 89.425781 91.164062 93.617188 101.058594 87.332031 C 102.632812 86.371094 101.144531 83.929688 99.65625 84.886719 C 98.605469 85.585938 97.46875 86.199219 96.328125 86.632812 C 91.339844 88.378906 85.824219 87.769531 80.921875 86.109375 C 76.019531 84.453125 71.382812 81.746094 67.792969 77.992188 C 64.027344 74.152344 61.925781 69.351562 62.191406 63.855469 C 62.363281 60.625 63.152344 57.394531 63.503906 54.253906 C 63.851562 51.375 64.117188 48.582031 64.378906 45.699219 L 64.464844 44.652344 C 64.726562 38.890625 65.515625 32.957031 68.230469 27.632812 C 70.503906 23.183594 73.746094 19.253906 77.683594 16.199219 C 81.796875 12.96875 86.699219 10.789062 91.867188 9.914062 C 97.90625 8.957031 103.769531 10.703125 108.761719 14.019531 C 113.226562 16.984375 117.078125 20.914062 120.054688 25.363281 C 121.453125 27.546875 122.679688 29.816406 123.730469 32.171875 C 124.691406 34.441406 125.394531 36.710938 126.179688 39.066406 C 125.480469 39.066406 124.867188 39.066406 124.167969 39.152344 C 120.664062 39.503906 117.425781 41.335938 115.324219 44.214844 C 112.789062 47.707031 113.488281 51.984375 112.523438 55.910156 C 112.4375 56.261719 112.613281 56.523438 112.875 56.695312 C 114.363281 57.65625 116.375 57.65625 117.863281 56.609375 C 119.089844 55.648438 119.703125 53.992188 119.179688 52.507812 C 119.089844 52.332031 118.828125 52.332031 118.828125 52.59375 C 118.738281 55.125 116.375 57.046875 114.101562 55.910156 C 115.0625 52.332031 114.539062 48.582031 116.550781 45.527344 C 120.140625 40.113281 127.582031 39.851562 132.746094 42.90625 C 135.460938 44.476562 137.648438 46.921875 139.3125 49.628906 L 139.75 50.414062 C 140.363281 51.460938 141.0625 52.683594 141.148438 53.816406 C 141.238281 54.515625 140.976562 55.125 140.1875 54.777344 C 139.574219 54.515625 139.050781 53.902344 138.699219 53.292969 C 138.085938 52.332031 136.597656 53.207031 137.125 54.167969 C 137.910156 55.476562 138.347656 56.960938 138.4375 58.53125 L 138.4375 58.964844 C 138.4375 59.316406 138.4375 59.75 138.4375 59.75 C 138.347656 59.75 137.824219 59.140625 137.734375 59.054688 C 137.296875 58.617188 136.859375 58.269531 136.246094 58.179688 C 135.460938 58.007812 134.671875 59.054688 135.371094 59.664062 C 135.984375 60.1875 135.984375 61.324219 135.285156 61.757812 C 134.320312 62.457031 133.097656 61.324219 133.007812 60.363281 C 132.921875 59.316406 131.433594 59.316406 131.347656 60.363281 C 131.171875 62.71875 133.972656 64.640625 136.074219 63.503906 C 136.949219 63.070312 137.472656 62.195312 137.648438 61.234375 C 137.910156 61.410156 138.175781 61.496094 138.523438 61.496094 C 139.488281 61.585938 140.1875 60.886719 140.363281 59.925781 C 140.539062 58.878906 140.449219 57.65625 140.1875 56.523438 C 140.710938 56.609375 141.324219 56.609375 141.851562 56.261719 C 143.601562 55.300781 143.074219 53.03125 142.464844 51.546875 C 139.660156 45.175781 133.972656 39.417969 126.792969 38.980469 C 126.792969 37.84375 126.617188 36.796875 126.355469 35.664062 C 123.90625 24.664062 116.027344 14.542969 105.695312 9.742188 C 102.894531 8.605469 100.007812 7.820312 97.03125 7.558594 Z M 123.992188 51.460938 L 123.90625 51.460938 C 122.765625 51.199219 119.878906 50.9375 120.226562 52.769531 C 120.226562 52.855469 120.402344 52.855469 120.402344 52.769531 C 120.753906 51.636719 123.117188 52.507812 123.816406 52.855469 C 124.78125 53.207031 125.65625 53.816406 126.445312 54.515625 C 128.105469 56 129.246094 58.007812 129.421875 60.277344 C 129.59375 62.457031 128.980469 64.902344 127.320312 66.472656 C 126.53125 67.257812 125.566406 67.78125 124.429688 67.867188 C 123.378906 67.867188 122.328125 67.082031 121.367188 67.605469 C 121.191406 67.695312 121.015625 67.957031 121.015625 68.128906 C 121.015625 68.480469 121.191406 68.828125 121.453125 69.089844 C 119.878906 71.972656 118.652344 74.9375 116.640625 77.558594 C 115.675781 78.867188 114.539062 80.085938 113.226562 81.046875 C 112.613281 81.570312 111.910156 81.921875 111.300781 82.355469 C 110.511719 82.792969 109.8125 83.054688 109.199219 83.839844 C 108.671875 84.453125 109.199219 85.671875 109.984375 85.847656 C 111.910156 86.109375 113.75 84.539062 115.152344 83.40625 C 116.550781 82.269531 117.777344 80.875 118.738281 79.390625 C 120.664062 76.507812 121.980469 73.105469 122.503906 69.703125 C 123.117188 69.875 123.816406 69.964844 124.34375 69.964844 C 125.742188 69.964844 126.96875 69.441406 128.105469 68.65625 C 132.046875 65.597656 132.484375 59.402344 129.683594 55.476562 C 128.195312 53.378906 126.179688 51.984375 123.992188 51.460938 Z M 123.90625 58.617188 C 123.03125 58.53125 122.066406 58.703125 121.191406 58.964844 L 120.839844 59.054688 C 120.054688 59.316406 119.265625 59.664062 118.738281 60.1875 C 117.953125 61.0625 118.738281 62.542969 119.878906 62.195312 C 121.191406 61.847656 122.242188 60.710938 123.554688 60.277344 C 124.691406 59.839844 126.007812 59.925781 127.054688 60.625 C 127.230469 60.710938 127.40625 60.539062 127.320312 60.363281 C 126.53125 59.316406 125.304688 58.792969 123.90625 58.617188 Z M 123.90625 58.617188 " fill-opacity="1" fill-rule="evenodd"/></g></g><g clip-path="url(#ccb634902a)"><g clip-path="url(#a8957c863f)"><path fill="#000000" d="M 86.535156 67.703125 C 85.484375 66.046875 83.292969 70.148438 83.03125 70.847656 C 82.855469 71.542969 82.769531 72.15625 82.683594 72.851562 C 81.894531 73.027344 81.019531 73.027344 80.230469 72.851562 C 79.003906 72.589844 78.304688 71.980469 77.167969 71.371094 C 76.464844 71.019531 75.503906 71.457031 75.152344 72.066406 C 74.714844 72.851562 74.976562 73.640625 75.589844 74.164062 C 76.730469 75.210938 78.917969 75.472656 80.40625 75.210938 C 81.28125 75.035156 81.980469 74.773438 82.683594 74.25 C 82.683594 74.335938 82.683594 74.425781 82.683594 74.511719 L 82.683594 74.6875 C 82.769531 75.90625 83.121094 77.390625 84.082031 78.175781 C 85.570312 79.488281 87.496094 77.042969 86.007812 75.734375 L 85.921875 75.734375 C 85.046875 75.035156 84.78125 73.027344 84.871094 71.894531 C 84.871094 71.195312 85.046875 70.496094 85.21875 69.796875 L 85.308594 69.625 C 85.394531 69.449219 86.09375 67.617188 86.359375 67.878906 C 86.445312 67.964844 86.621094 67.878906 86.535156 67.703125 Z M 78.304688 58.101562 C 76.902344 58.976562 74.804688 60.894531 76.292969 62.992188 C 78.042969 64.824219 80.582031 62.730469 81.894531 61.769531 C 83.03125 60.984375 84.34375 62.902344 83.292969 63.777344 C 74.191406 70.585938 70.511719 58.363281 77.605469 57.144531 C 78.390625 56.96875 78.65625 57.839844 78.304688 58.101562 Z M 93.1875 50.335938 C 91.785156 50.074219 90.386719 50.421875 89.335938 51.207031 L 89.246094 51.296875 C 88.195312 52.082031 86.972656 53.476562 87.582031 54.875 C 87.847656 55.398438 88.546875 55.484375 89.070312 55.222656 C 89.859375 54.785156 90.035156 53.828125 90.734375 53.214844 C 91.347656 52.777344 92.136719 52.429688 92.835938 52.515625 C 94.585938 52.691406 95.636719 54.4375 96.25 55.921875 C 96.335938 56.097656 96.601562 56.183594 96.6875 56.007812 C 97.914062 53.566406 95.636719 50.773438 93.1875 50.335938 Z M 71.390625 49.375 C 68.761719 49.199219 65.699219 51.90625 66.398438 54.613281 C 66.75 55.921875 68.675781 55.921875 69.027344 54.613281 C 69.199219 53.914062 69.199219 53.304688 69.726562 52.691406 C 70.164062 52.167969 70.777344 51.90625 71.390625 51.992188 C 72.089844 52.082031 72.789062 52.429688 73.226562 52.867188 C 73.664062 53.304688 73.925781 54 74.367188 54.351562 C 74.453125 54.4375 74.628906 54.4375 74.714844 54.351562 C 75.503906 53.652344 75.066406 52.082031 74.539062 51.296875 C 73.839844 50.25 72.703125 49.550781 71.390625 49.375 Z M 98.175781 45.449219 C 96.511719 43.964844 93.449219 42.566406 91.171875 43.265625 C 89.859375 43.703125 89.335938 45.796875 90.734375 46.40625 C 92.398438 47.195312 94.324219 46.84375 96.074219 47.628906 C 96.777344 47.980469 97.476562 48.414062 98 49.027344 C 98.4375 49.550781 98.789062 50.160156 99.402344 50.421875 C 99.578125 50.511719 99.75 50.511719 99.839844 50.335938 C 101.066406 48.9375 99.3125 46.40625 98.175781 45.449219 Z M 74.277344 43.179688 C 73.226562 42.917969 72.089844 42.917969 71.039062 43.089844 C 69.988281 43.265625 68.9375 43.703125 68.0625 44.3125 L 67.886719 44.402344 C 66.925781 45.097656 65.785156 46.144531 65.875 47.367188 C 65.960938 48.414062 67.011719 49.113281 67.976562 48.589844 C 68.761719 48.152344 69.113281 47.28125 69.726562 46.667969 C 70.25 46.144531 70.863281 45.796875 71.5625 45.535156 C 72.441406 45.1875 73.140625 45.011719 74.015625 45.011719 C 74.628906 45.011719 75.242188 45.1875 75.855469 45.273438 C 75.765625 45.359375 76.292969 45.359375 76.554688 45.273438 C 76.730469 45.1875 76.730469 44.925781 76.730469 44.75 C 76.292969 43.875 75.066406 43.351562 74.277344 43.179688 Z M 74.277344 43.179688 " fill-opacity="1" fill-rule="evenodd"/></g></g><g clip-path="url(#16fe463f1f)"><g clip-path="url(#5be0bbc766)"><path fill="#000000" d="M 70.695312 80.121094 C 71.308594 79.945312 72.007812 79.683594 72.621094 79.421875 C 75.859375 77.851562 79.796875 77.5 83.210938 78.898438 C 84.875 79.597656 86.449219 80.816406 88.113281 81.605469 C 88.550781 81.777344 88.902344 81.867188 89.339844 82.039062 C 89.601562 81.953125 89.863281 81.867188 90.128906 81.777344 C 91.878906 81.082031 93.628906 80.292969 95.203125 79.335938 C 95.378906 79.074219 95.554688 78.8125 95.730469 78.636719 C 94.59375 78.460938 93.367188 78.199219 92.316406 77.9375 C 89.078125 77.066406 86.101562 75.667969 82.863281 74.707031 C 79.886719 73.835938 76.648438 73.398438 73.671875 74.445312 C 72.269531 74.96875 71.042969 75.84375 69.644531 76.453125 C 68.941406 76.804688 68.066406 77.066406 67.28125 77.066406 C 67.804688 78.375 68.503906 79.507812 69.46875 80.554688 C 69.820312 80.382812 70.257812 80.292969 70.695312 80.121094 Z M 63.691406 70.082031 C 63.953125 70.34375 65.179688 71.042969 65.527344 71.566406 C 65.617188 71.566406 65.703125 71.480469 65.792969 71.480469 C 65.96875 71.304688 66.230469 71.21875 66.492188 71.21875 C 68.242188 70.433594 69.820312 69.210938 71.21875 67.8125 C 72.183594 66.765625 73.234375 65.71875 74.546875 65.109375 C 76.121094 64.410156 77.609375 64.757812 79.273438 64.847656 C 81.023438 64.933594 82.773438 64.496094 84.523438 64.671875 C 85.839844 64.847656 86.976562 65.371094 88.027344 66.15625 C 90.128906 67.726562 91.617188 69.910156 93.367188 71.742188 C 95.378906 73.835938 97.917969 75.234375 100.632812 75.929688 C 100.632812 75.929688 100.71875 75.84375 100.71875 75.84375 C 102.734375 74.011719 104.570312 71.914062 106.234375 69.734375 C 107.8125 67.550781 112.011719 57.777344 113.0625 56.992188 C 113.5 56.640625 113.9375 56.46875 114.375 56.46875 C 115.164062 56.46875 115.953125 57.078125 116.214844 57.953125 C 116.738281 59.433594 116.476562 61.355469 116.476562 62.925781 C 116.390625 64.847656 116.300781 66.765625 116.128906 68.597656 C 115.953125 70.433594 115.6875 72.351562 115.339844 74.183594 C 115.164062 75.144531 114.988281 76.019531 114.8125 76.976562 C 114.726562 77.238281 114.640625 77.5 114.550781 77.761719 C 114.464844 78.199219 114.375 78.722656 114.203125 79.160156 C 113.5 82.128906 112.273438 85.09375 110.085938 87.277344 C 107.8125 89.546875 104.660156 91.117188 101.769531 92.425781 C 98.96875 93.734375 96.082031 94.871094 93.105469 95.742188 C 90.476562 96.878906 87.765625 97.835938 84.964844 98.359375 C 81.988281 98.886719 78.746094 98.886719 75.859375 97.835938 C 74.371094 97.3125 73.058594 96.617188 71.746094 95.65625 C 69.992188 94.695312 68.417969 93.472656 67.105469 91.816406 C 64.742188 88.847656 63.691406 85.183594 63.164062 81.429688 C 63.078125 80.46875 62.554688 76.804688 62.554688 76.191406 C 62.464844 74.359375 62.289062 72.527344 62.203125 70.695312 C 62.113281 69.820312 63.164062 69.648438 63.691406 70.082031 Z M 63.691406 70.082031 " fill-opacity="1" fill-rule="evenodd"/></g></g></svg>