<svg xmlns="http://www.w3.org/2000/svg" xmlns:xlink="http://www.w3.org/1999/xlink" width="200" zoomAndPan="magnify" viewBox="0 0 150 195.750001" height="261" preserveAspectRatio="xMidYMid meet" version="1.0"><defs><clipPath id="7b9ebe4c8e"><path d="M 0.09375 30.949219 L 149.488281 30.949219 L 149.488281 193.765625 L 0.09375 193.765625 Z M 0.09375 30.949219 " clip-rule="nonzero"/></clipPath><clipPath id="4c505e3dc8"><path d="M 18.820312 30.949219 L 130.761719 30.949219 C 141.105469 30.949219 149.488281 39.332031 149.488281 49.675781 L 149.488281 174.667969 C 149.488281 185.011719 141.105469 193.394531 130.761719 193.394531 L 18.820312 193.394531 C 8.480469 193.394531 0.09375 185.011719 0.09375 174.667969 L 0.09375 49.675781 C 0.09375 39.332031 8.480469 30.949219 18.820312 30.949219 Z M 18.820312 30.949219 " clip-rule="nonzero"/></clipPath><clipPath id="9a1b5d91ac"><path d="M 0.0976562 30.949219 L 149.15625 30.949219 L 149.15625 193.492188 L 0.0976562 193.492188 Z M 0.0976562 30.949219 " clip-rule="nonzero"/></clipPath><clipPath id="7244adc0da"><path d="M 18.820312 30.949219 L 130.757812 30.949219 C 141.097656 30.949219 149.480469 39.332031 149.480469 49.675781 L 149.480469 174.660156 C 149.480469 185.003906 141.097656 193.386719 130.757812 193.386719 L 18.820312 193.386719 C 8.480469 193.386719 0.0976562 185.003906 0.0976562 174.660156 L 0.0976562 49.675781 C 0.0976562 39.332031 8.480469 30.949219 18.820312 30.949219 Z M 18.820312 30.949219 " clip-rule="nonzero"/></clipPath><clipPath id="c36026f065"><path d="M 6.519531 67 L 144.34375 67 L 144.34375 195.5 L 6.519531 195.5 Z M 6.519531 67 " clip-rule="nonzero"/></clipPath></defs><g clip-path="url(#7b9ebe4c8e)"><g clip-path="url(#4c505e3dc8)"><path fill="#fd8a8a" d="M 0.09375 30.949219 L 149.488281 30.949219 L 149.488281 193.183594 L 0.09375 193.183594 Z M 0.09375 30.949219 " fill-opacity="1" fill-rule="nonzero"/></g></g><g clip-path="url(#9a1b5d91ac)"><g clip-path="url(#7244adc0da)"><path stroke-linecap="butt" transform="matrix(0.749043, 0, 0, 0.749043, 0.0966051, 30.949947)" fill="none" stroke-linejoin="miter" d="M 24.996824 -0.000971915 L 174.437418 -0.000971915 C 188.241482 -0.000971915 199.432839 11.190385 199.432839 24.999664 L 199.432839 191.858306 C 199.432839 205.667585 188.241482 216.858942 174.437418 216.858942 L 24.996824 216.858942 C 11.19276 216.858942 0.00140336 205.667585 0.00140336 191.858306 L 0.00140336 24.999664 C 0.00140336 11.190385 11.19276 -0.000971915 24.996824 -0.000971915 Z M 24.996824 -0.000971915 " stroke="#000000" stroke-width="2" stroke-opacity="1" stroke-miterlimit="4"/></g></g><path fill="#ffffff" d="M 127.769531 111.03125 C 125.386719 99.601562 116.84375 90.722656 105.339844 86.285156 C 103.121094 85.050781 100.984375 79.707031 98.027344 78.71875 C 97.535156 78.554688 98.273438 79.789062 98.027344 79.871094 C 97.042969 80.117188 95.972656 80.199219 94.824219 79.214844 C 92.851562 77.488281 92.277344 72.472656 91.128906 70.171875 C 84.882812 58.167969 69.4375 62.855469 67.300781 76.171875 C 65.824219 77.078125 63.769531 77.980469 62.207031 78.71875 C 60.566406 79.542969 59.167969 81.433594 57.445312 82.089844 C 55.964844 82.667969 53.5 82.253906 52.023438 82.832031 C 45.121094 85.132812 39.289062 88.257812 34.6875 94.421875 C 33.699219 95.738281 32.632812 97.382812 31.730469 98.699219 C 27.210938 103.960938 24.089844 109.796875 21.132812 116.128906 C 12.996094 134.625 10.78125 155.09375 8.808594 174.992188 C 8.890625 178.445312 6.507812 188.144531 9.957031 189.789062 C 9.792969 190.035156 9.792969 190.445312 10.203125 190.445312 C 18.832031 190.363281 27.539062 191.105469 36 192.667969 C 40.109375 193.40625 44.214844 194.394531 48.40625 194.558594 C 57.113281 194.476562 65.742188 193.078125 74.449219 194.394531 C 84.882812 194.394531 97.617188 194.0625 109.203125 193.652344 C 120.046875 193.242188 130.972656 194.144531 141.734375 192.335938 C 142.554688 192.171875 142.96875 191.1875 142.804688 190.445312 C 141.570312 185.84375 140.914062 181.15625 140.257812 176.472656 C 140.421875 173.429688 140.175781 170.304688 139.023438 167.507812 C 136.066406 148.4375 132.371094 129.609375 127.769531 111.03125 Z M 127.769531 111.03125 " fill-opacity="1" fill-rule="evenodd"/><g clip-path="url(#c36026f065)"><path fill="#000000" d="M 124.234375 135.941406 C 123.988281 137.089844 123.660156 138.160156 123.25 139.230469 C 122.839844 140.214844 122.183594 141.121094 121.769531 142.1875 C 121.6875 142.351562 121.605469 142.433594 121.523438 142.515625 L 121.523438 143.011719 C 121.769531 144.820312 122.019531 146.710938 122.183594 148.519531 L 122.265625 149.421875 C 122.675781 153.285156 123.332031 157.152344 123.824219 160.933594 C 124.316406 164.714844 124.8125 168.496094 125.386719 172.195312 C 125.960938 176.058594 126.535156 179.921875 127.109375 183.789062 C 127.359375 185.433594 127.6875 187.074219 128.015625 188.636719 L 128.261719 189.871094 C 130.644531 190.445312 131.300781 193.816406 128.835938 194.96875 C 127.769531 195.542969 126.289062 195.378906 125.386719 194.558594 C 124.398438 193.652344 124.398438 192.007812 124.152344 190.777344 L 123.90625 189.625 C 122.347656 180.992188 120.949219 172.277344 120.292969 163.5625 C 120.128906 161.34375 119.964844 159.042969 119.882812 156.820312 C 119.800781 154.683594 119.800781 152.546875 119.800781 150.410156 L 119.800781 149.832031 C 119.71875 147.53125 119.800781 145.3125 119.882812 143.011719 C 119.882812 142.765625 119.882812 142.433594 119.882812 142.1875 C 119.800781 142.105469 119.71875 142.023438 119.71875 141.859375 L 119.71875 141.695312 C 119.636719 141.367188 119.71875 140.871094 120.046875 140.625 C 120.128906 139.0625 120.292969 137.503906 120.375 136.023438 C 120.375 135.859375 120.539062 135.941406 120.539062 136.023438 C 120.621094 137.335938 120.867188 138.652344 121.03125 139.96875 C 122.347656 138.898438 123.332031 137.171875 123.90625 135.695312 C 124.152344 135.777344 124.316406 135.777344 124.234375 135.941406 Z M 93.097656 74.527344 C 93.34375 75.515625 93.757812 76.417969 94.332031 77.242188 C 94.578125 77.652344 94.90625 77.980469 95.316406 78.308594 C 95.644531 78.554688 95.972656 78.71875 96.386719 78.96875 C 96.878906 78.886719 97.371094 79.050781 97.78125 79.460938 L 97.699219 78.886719 C 97.699219 78.71875 97.945312 78.636719 98.027344 78.886719 C 99.507812 86.53125 100.902344 94.257812 102.136719 101.90625 L 102.628906 105.273438 L 103.121094 108.480469 C 103.945312 113.824219 104.765625 119.167969 105.339844 124.511719 C 106.160156 131.664062 106.820312 138.898438 107.3125 146.050781 C 107.804688 153.285156 108.132812 160.523438 108.296875 167.839844 C 108.378906 169.648438 108.378906 171.539062 108.460938 173.347656 L 108.871094 171.125 C 109.285156 168.90625 109.613281 166.769531 109.941406 164.550781 C 111.089844 156.65625 111.914062 148.765625 112.40625 140.789062 C 112.816406 133.554688 112.652344 126.074219 110.84375 119.003906 C 110.351562 117.195312 109.777344 115.46875 109.121094 113.742188 C 108.460938 112.097656 107.558594 110.535156 106.820312 108.890625 C 105.996094 107 105.75 105.191406 106.160156 103.136719 C 106.574219 101.328125 107.230469 99.683594 107.3125 97.792969 C 107.558594 94.339844 106.40625 91.050781 104.847656 88.09375 C 104.4375 87.269531 104.027344 86.53125 103.53125 85.789062 C 102.136719 83.488281 100.574219 81.1875 99.015625 79.050781 C 98.933594 78.96875 99.097656 78.804688 99.179688 78.886719 C 100.65625 80.363281 102.21875 81.761719 103.53125 83.324219 C 104.191406 84.0625 104.765625 84.886719 105.421875 85.707031 C 111.914062 86.777344 117.5 90.886719 121.359375 96.230469 C 125.714844 102.316406 127.933594 109.632812 129.492188 116.867188 C 131.300781 124.839844 132.863281 132.980469 134.421875 141.039062 C 136.066406 149.339844 137.792969 157.726562 139.433594 166.03125 C 140.257812 170.140625 141.078125 174.332031 141.980469 178.445312 C 142.390625 180.5 142.886719 182.636719 143.296875 184.691406 C 143.542969 185.761719 143.789062 186.828125 144.035156 187.898438 C 144.28125 189.132812 144.035156 189.871094 143.214844 190.777344 C 142.886719 191.105469 142.472656 191.105469 142.0625 190.941406 L 141.898438 190.777344 C 141.40625 190.527344 141.078125 190.28125 140.75 189.789062 C 140.421875 189.214844 140.421875 188.636719 140.257812 187.980469 C 140.089844 186.828125 139.84375 185.679688 139.679688 184.527344 C 139.351562 182.800781 139.023438 181.074219 138.695312 179.429688 L 137.050781 170.878906 C 136.640625 168.578125 136.148438 166.359375 135.738281 164.058594 C 134.09375 155.917969 132.535156 147.859375 130.890625 139.722656 C 129.328125 131.910156 128.015625 124.101562 126.207031 116.375 L 126.042969 116.210938 L 125.960938 115.796875 C 124.398438 109.140625 122.183594 102.644531 118.238281 96.972656 C 115.199219 92.613281 110.925781 88.75 105.914062 86.777344 C 106.242188 87.269531 106.574219 87.765625 106.902344 88.339844 C 108.953125 91.628906 110.433594 95.574219 110.023438 99.519531 C 109.859375 101.410156 109.121094 103.382812 109.203125 105.273438 C 109.285156 107 110.351562 108.480469 111.089844 110.042969 C 112.734375 113.414062 113.964844 117.03125 114.789062 120.8125 C 116.347656 128.292969 116.347656 135.941406 115.773438 143.503906 C 115.199219 151.726562 114.046875 159.945312 112.816406 168.085938 C 112.160156 172.277344 111.335938 176.386719 110.597656 180.582031 C 110.269531 182.636719 109.859375 184.691406 109.449219 186.746094 L 109.367188 187.734375 C 109.285156 188.308594 109.121094 188.800781 109.039062 189.378906 L 108.953125 189.707031 L 108.953125 189.789062 C 108.953125 190.199219 108.871094 190.527344 108.707031 190.777344 C 108.460938 191.515625 108.214844 192.253906 107.804688 192.996094 C 107.640625 193.324219 107.3125 193.570312 106.984375 193.652344 C 106.65625 194.394531 105.914062 194.96875 105.09375 194.96875 L 93.757812 194.886719 C 87.183594 194.886719 80.53125 194.804688 73.957031 194.804688 C 72.3125 194.804688 70.589844 194.804688 68.945312 194.722656 C 67.382812 194.640625 65.90625 194.476562 64.34375 194.3125 C 62.621094 194.0625 61.632812 192.832031 61.878906 191.105469 C 61.960938 190.695312 61.960938 190.363281 62.042969 189.953125 C 61.714844 190.035156 61.304688 190.035156 60.976562 189.707031 L 60.648438 189.378906 C 60.320312 189.050781 59.992188 188.636719 59.742188 188.144531 C 59.496094 187.652344 59.332031 187.160156 59.085938 186.664062 C 58.59375 185.597656 58.183594 184.527344 57.773438 183.375 C 56.949219 181.15625 56.046875 179.019531 55.226562 176.800781 C 53.664062 172.441406 52.269531 168.003906 51.117188 163.480469 C 48.980469 155.507812 47.339844 147.285156 46.351562 139.0625 L 46.105469 137.089844 L 46.023438 136.515625 C 45.613281 133.308594 45.367188 130.101562 45.449219 126.898438 C 45.53125 124.921875 45.859375 122.867188 46.597656 121.058594 C 47.257812 119.332031 48.324219 117.851562 49.390625 116.375 L 49.558594 116.210938 L 49.640625 116.042969 C 50.542969 114.648438 51.199219 113.167969 51.28125 111.523438 C 51.28125 109.796875 50.789062 108.152344 50.296875 106.507812 L 50.132812 106.097656 L 50.050781 105.851562 C 48.898438 102.5625 47.503906 99.273438 47.914062 95.65625 C 48.570312 90.3125 51.773438 86.039062 55.882812 82.75 C 52.269531 83.488281 48.734375 84.886719 45.53125 86.695312 C 41.835938 88.832031 38.464844 91.628906 35.589844 94.75 C 30.085938 100.753906 26.226562 107.90625 23.019531 115.304688 C 19.652344 123.03125 17.1875 131.171875 15.296875 139.394531 C 13.410156 147.613281 12.175781 156.082031 11.273438 164.46875 C 10.863281 168.660156 10.53125 172.851562 10.203125 177.046875 C 10.039062 179.183594 9.957031 181.320312 9.792969 183.539062 C 9.628906 185.679688 9.546875 187.898438 9.054688 189.953125 C 8.808594 190.941406 7.164062 191.023438 7 189.953125 C 6.589844 187.570312 6.753906 185.101562 6.835938 182.636719 L 6.835938 182.390625 C 6.917969 180.003906 7.082031 177.539062 7.246094 175.15625 C 7.574219 170.222656 8.070312 165.289062 8.644531 160.355469 C 10.699219 143.09375 14.558594 125.910156 22.117188 110.207031 C 25.648438 102.808594 30.25 95.574219 36.578125 90.230469 C 39.617188 87.683594 42.984375 85.625 46.679688 84.148438 C 49.96875 82.832031 53.253906 82.171875 56.785156 82.171875 C 58.511719 80.859375 60.402344 79.707031 62.289062 78.636719 C 62.375 78.554688 62.539062 78.71875 62.457031 78.804688 C 62.375 78.886719 62.375 78.886719 62.289062 78.96875 C 62.539062 78.96875 62.703125 79.050781 62.949219 79.296875 C 63.605469 80.035156 64.179688 80.941406 64.753906 81.84375 C 65.578125 82.832031 66.316406 83.816406 67.054688 84.804688 C 68.289062 86.367188 69.601562 87.929688 70.917969 89.40625 C 73.136719 91.957031 75.355469 94.503906 77.734375 96.890625 L 78.148438 97.300781 C 79.378906 98.535156 80.613281 100.011719 82.089844 101 L 82.171875 101.082031 C 82.746094 101.492188 83.242188 101.574219 83.734375 100.917969 C 84.226562 100.34375 84.636719 99.765625 85.046875 99.109375 L 85.128906 98.945312 C 87.183594 95.902344 89.15625 92.777344 90.882812 89.574219 C 91.703125 88.09375 92.441406 86.613281 93.179688 85.132812 L 93.425781 84.722656 C 93.839844 83.898438 94.25 83.078125 94.578125 82.253906 C 94.660156 82.089844 94.742188 81.84375 94.824219 81.679688 C 93.757812 80.941406 92.851562 79.378906 92.605469 78.226562 C 92.277344 76.992188 92.441406 75.679688 93.015625 74.527344 C 92.6875 74.199219 93.015625 74.28125 93.097656 74.527344 Z M 39.207031 125.828125 C 39.039062 130.597656 38.957031 135.445312 38.710938 140.214844 L 38.628906 141.859375 C 38.957031 142.269531 39.207031 142.679688 39.039062 143.339844 C 38.957031 143.585938 38.792969 143.832031 38.546875 143.832031 L 38.464844 145.394531 C 38.136719 152.21875 37.726562 159.125 36.988281 165.949219 C 36.082031 174.496094 35.097656 183.046875 34.03125 191.597656 C 33.867188 192.832031 33.042969 193.734375 31.730469 193.570312 C 30.414062 193.40625 29.839844 192.253906 30.003906 191.023438 C 30.660156 186.335938 31.320312 181.566406 31.894531 176.882812 L 32.550781 171.539062 C 33.371094 164.796875 34.195312 158.054688 35.179688 151.394531 C 35.589844 148.601562 36 145.804688 36.410156 143.011719 L 36.328125 142.679688 C 35.753906 141.859375 35.097656 141.121094 34.523438 140.378906 C 33.371094 138.898438 32.140625 137.421875 31.070312 135.859375 C 30.988281 135.777344 31.152344 135.695312 31.234375 135.695312 C 32.796875 136.84375 34.195312 137.996094 35.671875 139.230469 L 36.90625 140.296875 C 37.644531 135.445312 38.382812 130.597656 38.957031 125.746094 C 38.957031 125.746094 39.207031 125.664062 39.207031 125.828125 Z M 61.058594 79.871094 C 60.15625 80.777344 59.167969 81.597656 58.265625 82.421875 L 57.609375 83.078125 C 55.964844 84.640625 54.402344 86.203125 53.171875 88.09375 C 50.789062 91.464844 49.390625 95.574219 50.378906 99.683594 C 51.117188 103.054688 53.007812 106.179688 53.5 109.632812 C 53.746094 111.359375 53.664062 113.167969 53.007812 114.8125 C 52.351562 116.539062 51.28125 117.9375 50.296875 119.496094 C 48.160156 122.785156 47.914062 126.402344 48.078125 130.265625 C 48.324219 134.296875 48.734375 138.242188 49.308594 142.269531 C 50.460938 150.328125 52.1875 158.300781 54.484375 166.113281 C 55.636719 169.976562 56.949219 173.839844 58.347656 177.703125 C 59.003906 179.59375 59.828125 181.484375 60.648438 183.292969 C 61.058594 184.28125 61.46875 185.265625 61.960938 186.171875 C 61.796875 184.773438 61.796875 183.375 61.714844 182.0625 C 61.632812 180.089844 61.46875 178.195312 61.304688 176.222656 C 61.058594 172.277344 60.8125 168.332031 60.566406 164.386719 C 59.828125 150.246094 59.25 136.1875 59.25 122.046875 C 59.25 114.976562 59.414062 107.90625 59.742188 100.835938 C 59.910156 97.546875 60.15625 94.175781 60.402344 90.886719 L 60.484375 90.148438 C 60.730469 87.1875 60.976562 84.148438 61.386719 81.1875 C 61.222656 80.859375 61.140625 80.613281 61.058594 80.28125 L 61.058594 80.199219 C 61.058594 80.035156 61.058594 79.953125 61.058594 79.871094 Z M 68.945312 67.703125 C 68.945312 67.621094 69.109375 67.621094 69.109375 67.703125 C 69.601562 69.429688 69.4375 71.320312 69.027344 73.128906 C 68.78125 74.117188 68.453125 75.019531 68.042969 75.84375 L 67.878906 76.171875 C 67.546875 76.910156 67.136719 77.734375 66.480469 78.144531 C 66.234375 78.308594 65.660156 78.390625 65.414062 78.144531 L 65.25 78.0625 C 65.25 78.0625 65.167969 78.0625 65.167969 77.980469 C 64.917969 77.734375 64.753906 77.242188 64.917969 76.910156 C 65.25 76.089844 65.988281 75.433594 66.480469 74.691406 C 66.890625 74.035156 67.300781 73.292969 67.632812 72.554688 C 68.207031 71.074219 68.535156 69.429688 68.945312 67.703125 Z M 68.945312 67.703125 " fill-opacity="1" fill-rule="evenodd"/></g><path fill="#ffffff" d="M 109.96875 16.804688 C 109.558594 15.820312 108.902344 14.585938 107.753906 14.585938 C 106.847656 11.875 104.710938 9.160156 101.589844 9.242188 C 92.71875 0.0351562 81.378906 0.527344 69.632812 2.417969 C 63.386719 3.570312 57.144531 5.871094 52.460938 10.3125 C 46.875 15.574219 44.738281 24.699219 49.09375 31.359375 C 45.3125 33.414062 45.230469 38.183594 46.875 41.632812 C 44.902344 42.949219 44.820312 46.238281 47.039062 47.226562 C 46.957031 47.71875 47.039062 48.210938 47.203125 48.621094 C 46.136719 49.527344 44.738281 50.183594 43.589844 50.761719 C 43.097656 51.007812 42.765625 51.417969 42.683594 51.910156 C 38.90625 54.378906 29.375 60.542969 29.457031 65.394531 C 29.375 67.941406 31.265625 69.585938 33.566406 70.246094 C 32.167969 72.957031 31.183594 76.164062 32.5 79.042969 C 32.828125 79.945312 35.539062 82.492188 35.703125 82.578125 C 35.949219 82.742188 39.808594 81.015625 41.699219 80.109375 C 42.027344 82.492188 44.574219 83.726562 46.792969 82.90625 C 48.847656 82.246094 50.160156 80.519531 51.476562 78.957031 C 53.203125 82.742188 58.292969 82.824219 61.582031 81.179688 C 64.539062 79.78125 66.757812 77.316406 68.070312 74.273438 C 74.726562 77.5625 82.53125 78.464844 89.761719 77.148438 C 90.253906 77.972656 91.238281 78.546875 92.144531 78.21875 C 96.003906 77.066406 100.277344 76.984375 103.480469 74.355469 C 110.300781 69.503906 110.875 60.460938 110.382812 52.816406 C 109.96875 45.167969 110.300781 37.441406 108.902344 29.878906 C 109.476562 27.660156 110.546875 25.683594 111.449219 23.546875 C 112.433594 21.246094 112.433594 18.039062 109.96875 16.804688 Z M 109.96875 16.804688 " fill-opacity="1" fill-rule="evenodd"/><path fill="#000000" d="M 46.710938 49.363281 C 47.121094 49.28125 47.285156 49.773438 46.957031 50.019531 C 44.820312 51.417969 42.601562 52.652344 40.46875 54.132812 C 38.496094 55.527344 36.6875 57.171875 34.960938 58.898438 L 34.796875 59.0625 C 33.238281 60.625 31.511719 62.679688 31.511719 65.066406 C 31.511719 66.875 32.910156 68.847656 34.878906 68.683594 C 35.621094 68.601562 36.277344 69.503906 36.03125 70.246094 L 35.785156 70.984375 C 34.714844 73.863281 33.566406 77.148438 34.46875 80.191406 L 34.46875 80.273438 C 34.714844 80.933594 34.878906 81.589844 35.703125 81.589844 C 36.441406 81.589844 37.261719 81.34375 37.921875 81.097656 C 39.398438 80.601562 40.714844 79.78125 41.78125 78.710938 C 42.765625 77.808594 44 78.710938 43.917969 79.945312 C 43.753906 81.261719 45.808594 81.917969 46.792969 81.671875 C 48.683594 81.261719 49.996094 79.371094 51.066406 77.972656 C 51.558594 77.316406 52.871094 76.984375 53.285156 77.972656 C 54.1875 79.863281 55.996094 81.34375 58.210938 81.34375 C 59.363281 81.34375 60.429688 81.015625 61.335938 80.4375 C 61.746094 80.191406 62.074219 79.945312 62.402344 79.617188 L 62.484375 79.535156 C 62.976562 79.042969 63.304688 78.792969 63.882812 78.464844 C 64.457031 78.136719 65.277344 78.546875 65.277344 79.207031 C 65.277344 80.109375 65.03125 80.683594 64.375 81.34375 C 63.882812 81.917969 63.222656 82.328125 62.566406 82.742188 C 61.253906 83.480469 59.691406 83.972656 58.210938 83.890625 C 55.832031 83.808594 53.53125 82.660156 52.050781 80.769531 C 50.574219 82.578125 48.683594 84.21875 46.21875 84.21875 C 44.410156 84.21875 42.683594 83.234375 41.863281 81.753906 C 40.714844 82.578125 39.480469 83.152344 38.085938 83.5625 L 38.003906 83.5625 C 36.113281 84.136719 33.894531 84.304688 32.664062 82.410156 C 31.511719 80.601562 31.429688 78.136719 31.675781 76.164062 C 31.921875 74.355469 32.5 72.628906 33.074219 70.902344 C 31.265625 70.328125 29.785156 68.601562 29.375 66.792969 C 28.636719 63.996094 30.035156 61.285156 31.839844 59.226562 C 33.730469 56.925781 36.195312 55.035156 38.578125 53.390625 C 41.125 51.582031 43.835938 50.019531 46.710938 49.363281 Z M 109.230469 27.410156 C 109.230469 27.328125 109.394531 27.328125 109.394531 27.410156 C 110.21875 33.496094 110.710938 39.578125 111.121094 45.746094 C 111.285156 48.871094 111.53125 51.992188 111.777344 55.035156 C 112.023438 57.996094 112.433594 61.035156 112.351562 64.078125 C 112.1875 68.765625 109.96875 72.546875 106.191406 75.339844 C 102.660156 77.972656 98.222656 79.289062 93.867188 79.78125 C 91.320312 80.109375 88.773438 80.109375 86.226562 79.78125 C 84.914062 79.617188 83.597656 79.453125 82.285156 79.125 L 81.710938 78.957031 C 80.722656 78.710938 79.574219 78.382812 79.410156 77.148438 C 79.328125 76.574219 79.65625 76.164062 80.148438 75.835938 C 80.804688 75.425781 81.542969 75.671875 82.203125 75.835938 C 83.351562 76.164062 84.503906 76.410156 85.652344 76.574219 C 88.117188 76.984375 90.664062 76.984375 93.128906 76.738281 C 97.320312 76.328125 101.753906 74.929688 104.957031 72.136719 C 106.355469 70.902344 107.589844 69.421875 108.246094 67.695312 C 109.066406 65.394531 108.984375 62.925781 108.902344 60.542969 C 108.820312 55.035156 108.902344 49.527344 108.820312 43.9375 C 108.820312 38.429688 108.902344 32.921875 109.230469 27.410156 Z M 67.167969 1.597656 C 72.015625 0.363281 77.027344 0.0351562 82.039062 0.363281 C 86.800781 0.691406 92.144531 1.761719 96.003906 4.722656 C 96.167969 4.886719 96.085938 5.132812 95.839844 5.132812 C 93.292969 4.722656 90.746094 3.980469 88.199219 3.488281 C 85.734375 2.996094 83.1875 2.667969 80.722656 2.582031 C 72.179688 2.335938 62.730469 4.226562 55.832031 9.570312 C 52.625 12.039062 50.160156 15.410156 49.175781 19.4375 C 48.191406 23.546875 48.683594 27.988281 50.738281 31.6875 C 51.066406 32.179688 50.902344 33.085938 50.324219 33.332031 C 48.519531 34.152344 47.203125 36.125 47.203125 38.183594 C 47.203125 39.167969 47.53125 40.15625 48.109375 40.976562 C 48.683594 41.882812 49.585938 42.457031 50.242188 43.277344 C 50.488281 43.609375 50.488281 44.019531 50.324219 44.347656 C 50.738281 44.511719 51.148438 44.59375 51.476562 44.839844 C 51.804688 45.003906 51.804688 45.5 51.476562 45.664062 C 50.65625 46.074219 49.75 45.664062 49.175781 44.921875 C 49.09375 44.839844 49.011719 44.675781 48.929688 44.511719 C 48.273438 44.347656 47.695312 44.019531 47.121094 43.609375 C 46.136719 44.183594 45.972656 45.582031 46.875 46.566406 C 47.285156 47.0625 47.941406 47.390625 48.601562 47.636719 L 48.683594 47.636719 C 49.257812 47.882812 49.832031 47.964844 50.242188 48.457031 C 50.488281 47.882812 50.820312 47.390625 51.148438 46.894531 C 52.378906 45.167969 54.269531 43.691406 56.488281 43.855469 C 58.210938 44.019531 59.773438 45.253906 60.101562 46.976562 C 60.101562 47.144531 59.9375 47.226562 59.855469 47.0625 C 59.035156 45.085938 56.40625 45.003906 54.761719 46.074219 C 52.871094 47.308594 51.886719 49.527344 51.476562 51.664062 C 51.066406 53.71875 51.3125 56.269531 52.871094 57.832031 C 53.53125 58.488281 54.351562 58.898438 55.253906 59.0625 C 55.664062 59.144531 56.078125 59.0625 56.488281 58.980469 L 56.734375 58.898438 C 56.898438 58.898438 57.144531 58.816406 57.308594 58.816406 L 57.636719 58.816406 L 57.800781 58.898438 C 57.964844 58.980469 57.964844 58.980469 57.800781 58.816406 C 58.292969 58.734375 58.542969 59.144531 58.625 59.558594 C 58.625 59.558594 58.625 59.558594 58.707031 59.558594 C 60.675781 61.941406 62.074219 64.652344 64.128906 66.957031 L 64.703125 67.613281 C 66.265625 69.339844 68.070312 71.230469 70.125 72.136719 L 70.371094 72.21875 C 70.945312 72.464844 71.605469 72.792969 71.6875 73.613281 C 71.769531 74.273438 71.191406 74.765625 70.617188 74.929688 C 69.222656 75.257812 67.660156 74.027344 66.675781 73.285156 C 64.539062 71.558594 62.730469 69.339844 61.171875 67.039062 L 61.007812 66.792969 C 59.773438 64.902344 58.625 62.679688 58.210938 60.378906 L 58.128906 60.460938 C 58.046875 60.542969 57.964844 60.625 57.882812 60.707031 C 57.636719 60.953125 57.308594 61.035156 56.980469 61.117188 C 56.40625 61.285156 55.75 61.285156 55.089844 61.285156 C 53.859375 61.117188 52.625 60.707031 51.640625 59.886719 C 48.601562 57.5 48.273438 53.0625 49.503906 49.527344 C 48.519531 49.773438 47.367188 49.117188 46.546875 48.539062 C 45.644531 47.882812 44.902344 46.894531 44.738281 45.828125 C 44.574219 44.675781 45.3125 43.195312 46.300781 42.785156 C 45.230469 41.46875 44.574219 39.578125 44.492188 38.097656 C 44.410156 35.46875 45.726562 33.003906 47.859375 31.605469 C 45.890625 27.328125 45.480469 22.316406 46.792969 17.792969 C 49.667969 8.832031 58.542969 3.816406 67.167969 1.597656 Z M 59.527344 70.164062 C 59.773438 69.421875 60.019531 68.023438 61.089844 68.519531 C 62.074219 69.011719 61.417969 70.492188 61.089844 71.230469 C 60.675781 72.136719 59.9375 72.792969 58.953125 72.957031 C 58.128906 73.121094 57.308594 72.875 56.734375 72.300781 C 56.570312 72.136719 56.488281 71.890625 56.40625 71.722656 C 56.40625 71.640625 56.324219 71.558594 56.324219 71.558594 C 56.324219 71.558594 56.324219 71.640625 56.242188 71.722656 C 55.832031 72.21875 55.417969 72.792969 55.089844 73.367188 C 55.007812 73.53125 54.761719 73.367188 54.84375 73.285156 C 55.253906 72.382812 55.171875 70.984375 55.996094 70.328125 C 56.734375 69.75 57.390625 70.246094 57.800781 70.902344 C 58.378906 71.890625 59.28125 70.984375 59.527344 70.164062 Z M 51.640625 66.875 L 51.722656 66.792969 C 52.460938 65.722656 53.777344 64.40625 55.089844 65.476562 C 55.5 65.804688 55.5 66.296875 55.089844 66.628906 L 54.925781 66.710938 C 54.351562 67.121094 53.777344 67.53125 53.367188 68.105469 C 52.871094 68.765625 52.460938 69.421875 51.886719 69.914062 C 50.820312 70.820312 49.011719 70.984375 48.109375 69.75 L 48.027344 69.667969 C 47.941406 69.585938 47.859375 69.421875 47.777344 69.339844 L 47.695312 69.421875 C 47.285156 70.078125 46.792969 70.574219 46.21875 70.984375 C 45.066406 71.722656 43.753906 71.890625 42.4375 71.476562 C 42.273438 71.476562 42.355469 71.230469 42.4375 71.230469 C 44 71.066406 45.480469 69.996094 46.136719 68.519531 L 46.21875 68.355469 C 46.464844 67.777344 46.792969 67.285156 47.367188 67.039062 C 48.027344 66.792969 48.601562 67.039062 49.09375 67.53125 C 49.421875 67.941406 49.503906 68.683594 50.160156 68.519531 C 50.820312 68.269531 51.230469 67.449219 51.640625 66.875 Z M 47.121094 57.417969 C 47.449219 57.171875 48.027344 57.417969 48.109375 57.832031 C 48.519531 59.558594 46.710938 61.613281 45.066406 61.613281 C 44.65625 61.613281 44.164062 61.53125 43.835938 61.285156 C 43.507812 61.117188 43.179688 60.707031 42.851562 60.625 C 42.4375 60.542969 42.027344 61.117188 41.699219 61.449219 C 41.289062 61.777344 40.960938 62.1875 40.550781 62.433594 C 40.386719 62.597656 40.136719 62.351562 40.222656 62.1875 L 40.386719 61.777344 C 40.878906 60.460938 41.78125 58.40625 43.425781 58.980469 C 44.246094 59.226562 44.820312 60.214844 45.726562 59.476562 C 46.300781 58.980469 46.382812 57.996094 47.121094 57.417969 Z M 54.515625 50.511719 C 56.078125 48.703125 59.691406 49.691406 60.429688 51.828125 C 60.59375 52.320312 60.429688 52.898438 60.019531 53.308594 C 59.527344 53.71875 58.789062 53.882812 58.210938 53.554688 C 57.71875 53.226562 57.472656 52.734375 57.144531 52.320312 C 56.570312 51.664062 55.832031 51.335938 55.089844 51.089844 C 54.925781 51.171875 54.679688 51.335938 54.515625 51.5 C 54.433594 51.582031 54.269531 51.5 54.351562 51.335938 C 54.433594 51.171875 54.597656 51.089844 54.679688 50.925781 L 54.597656 50.925781 C 54.433594 50.925781 54.351562 50.679688 54.515625 50.511719 Z M 64.539062 30.78125 C 64.867188 30.78125 65.277344 31.113281 65.277344 31.523438 L 65.277344 31.605469 C 65.195312 32.34375 64.949219 32.753906 64.210938 33.085938 C 63.636719 33.332031 62.976562 33.496094 62.238281 33.578125 C 61.992188 33.578125 61.746094 33.578125 61.417969 33.578125 L 61.417969 33.988281 C 61.335938 34.648438 61.171875 35.304688 61.171875 35.960938 C 61.171875 37.195312 61.582031 38.265625 62.074219 39.414062 C 63.058594 41.550781 63.140625 43.773438 62.074219 45.910156 C 61.910156 46.238281 61.5 46.484375 61.171875 46.484375 C 60.675781 46.402344 60.511719 46.320312 60.265625 45.910156 C 60.019531 45.582031 60.101562 45.167969 60.265625 44.839844 C 60.757812 43.773438 60.925781 42.621094 60.675781 41.550781 C 60.429688 40.484375 59.855469 39.496094 59.609375 38.511719 C 59.199219 36.785156 59.609375 35.058594 60.511719 33.578125 C 59.855469 33.414062 59.28125 33.085938 58.871094 32.507812 C 58.707031 32.34375 58.789062 32.015625 59.035156 32.015625 L 59.363281 32.015625 C 60.265625 32.097656 61.089844 32.179688 61.910156 31.933594 C 62.402344 31.769531 62.730469 31.605469 63.140625 31.359375 L 63.222656 31.277344 C 63.71875 30.863281 63.964844 30.78125 64.539062 30.78125 Z M 66.675781 18.039062 C 68.894531 17.875 70.78125 19.355469 71.6875 21.328125 C 72.671875 23.464844 72.261719 25.851562 71.359375 27.90625 L 71.109375 28.480469 C 70.699219 29.550781 70.125 30.699219 69.222656 31.277344 C 68.234375 31.851562 67.332031 31.195312 67.660156 30.042969 C 67.824219 29.386719 68.316406 28.890625 68.730469 28.316406 C 69.058594 27.824219 69.386719 27.246094 69.714844 26.753906 C 70.289062 25.683594 70.699219 24.453125 70.699219 23.21875 C 70.699219 20.917969 69.222656 18.367188 66.675781 18.367188 C 66.511719 18.367188 66.511719 18.039062 66.675781 18.039062 Z M 77.847656 14.421875 C 77.683594 14.339844 77.847656 14.09375 78.011719 14.175781 C 80.558594 15.820312 82.449219 18.863281 82.859375 21.902344 C 83.105469 23.546875 82.941406 25.355469 82.203125 26.917969 C 81.792969 27.824219 81.132812 28.644531 80.148438 28.890625 C 79.164062 29.054688 78.257812 28.5625 78.011719 27.660156 C 77.847656 27.328125 78.09375 27 78.339844 26.753906 C 79.246094 26.179688 79.984375 25.355469 80.394531 24.371094 C 80.804688 23.300781 81.050781 22.152344 81.050781 21 C 81.050781 18.367188 79.984375 16.066406 77.847656 14.421875 Z M 109.148438 15.574219 C 109.066406 15.410156 109.148438 15.246094 109.3125 15.328125 C 111.203125 16.3125 112.351562 18.203125 112.679688 20.175781 C 113.011719 22.152344 112.597656 24.945312 111.039062 26.34375 C 110.132812 27.164062 108.574219 26.097656 109.3125 25.027344 C 109.804688 24.289062 110.382812 23.710938 110.710938 22.808594 C 110.957031 21.984375 111.039062 21.246094 111.039062 20.425781 C 110.957031 18.617188 110.300781 16.890625 109.148438 15.574219 Z M 86.472656 13.023438 C 89.679688 12.859375 91.566406 16.476562 91.976562 19.191406 C 92.226562 20.835938 92.0625 22.5625 91.15625 24.042969 L 91.074219 24.125 C 90.335938 25.273438 88.9375 26.589844 87.460938 26.097656 C 86.800781 25.851562 86.636719 25.191406 87.050781 24.699219 C 87.707031 23.875 88.691406 23.628906 89.265625 22.726562 C 89.925781 21.820312 90.171875 20.589844 90.171875 19.4375 L 90.171875 19.273438 C 90.089844 17.21875 89.101562 13.1875 86.472656 13.1875 C 86.308594 13.273438 86.308594 13.105469 86.472656 13.023438 Z M 96.414062 12.449219 C 99.453125 12.039062 101.34375 15.65625 101.917969 18.121094 C 102.246094 19.683594 102.328125 21.410156 101.917969 22.972656 L 101.917969 23.054688 C 101.507812 24.207031 100.441406 26.179688 99.042969 25.601562 C 98.632812 25.4375 98.222656 25.027344 98.46875 24.535156 C 98.714844 23.960938 99.042969 23.792969 99.535156 23.382812 C 99.867188 23.054688 100.113281 22.644531 100.359375 22.234375 C 100.851562 21.082031 100.933594 19.765625 100.851562 18.617188 L 100.851562 18.449219 C 100.6875 16.066406 99.371094 12.53125 96.578125 12.613281 C 96.25 12.695312 96.25 12.449219 96.414062 12.449219 Z M 102 9.078125 C 103.726562 8.421875 105.125 10.066406 106.109375 11.214844 C 107.339844 12.695312 108.410156 14.257812 109.066406 16.066406 C 109.640625 17.710938 109.722656 19.519531 109.230469 21.164062 C 108.984375 21.984375 108.574219 22.726562 108.082031 23.382812 L 108 23.464844 C 107.421875 24.125 106.929688 24.535156 106.027344 24.289062 C 105.699219 24.207031 105.535156 23.792969 105.535156 23.464844 C 105.699219 22.726562 106.027344 22.5625 106.519531 21.984375 C 106.929688 21.492188 107.257812 21 107.503906 20.339844 C 107.917969 19.109375 108 17.792969 107.671875 16.558594 C 107.339844 15.164062 106.683594 13.847656 105.863281 12.613281 L 105.699219 12.367188 C 104.875 11.050781 103.726562 9.078125 102 9.324219 C 101.835938 9.324219 101.835938 9.078125 102 9.078125 Z M 102 9.078125 " fill-opacity="1" fill-rule="evenodd"/><path fill="#000000" d="M 88.683594 58.167969 C 89.671875 56.605469 91.722656 60.46875 91.972656 61.128906 C 92.136719 61.785156 92.21875 62.359375 92.300781 62.9375 C 93.039062 63.101562 93.859375 63.101562 94.601562 62.9375 C 95.75 62.691406 96.40625 62.113281 97.476562 61.539062 C 98.132812 61.210938 99.035156 61.621094 99.363281 62.195312 C 99.777344 63.019531 99.53125 63.757812 98.953125 64.253906 C 97.886719 65.238281 95.832031 65.484375 94.4375 65.238281 C 93.613281 65.074219 92.957031 64.828125 92.300781 64.335938 C 92.300781 64.5 92.300781 64.582031 92.300781 64.664062 L 92.300781 64.828125 C 92.21875 65.976562 91.890625 67.375 90.984375 68.117188 C 89.589844 69.347656 87.78125 67.046875 89.179688 65.8125 L 89.261719 65.8125 C 90.082031 65.15625 90.328125 63.265625 90.246094 62.195312 C 90.246094 61.539062 90.082031 60.882812 89.917969 60.222656 L 89.835938 59.976562 C 89.753906 59.8125 89.09375 58.085938 88.847656 58.332031 C 88.765625 58.414062 88.601562 58.25 88.683594 58.167969 Z M 96.40625 49.125 C 97.722656 49.945312 99.695312 51.753906 98.296875 53.730469 C 96.652344 55.457031 94.269531 53.480469 93.039062 52.578125 C 91.972656 51.839844 90.738281 53.648438 91.722656 54.46875 C 100.269531 60.800781 103.71875 49.371094 97.066406 48.21875 C 96.324219 48.054688 96.078125 48.878906 96.40625 49.125 Z M 82.441406 41.726562 C 83.753906 41.480469 85.070312 41.808594 86.054688 42.546875 L 86.136719 42.628906 C 87.125 43.371094 88.273438 44.6875 87.699219 46 C 87.453125 46.496094 86.796875 46.578125 86.300781 46.328125 C 85.5625 45.917969 85.398438 45.015625 84.742188 44.4375 C 84.167969 44.027344 83.425781 43.699219 82.769531 43.78125 C 81.125 43.945312 80.140625 45.589844 79.566406 46.988281 C 79.484375 47.152344 79.238281 47.234375 79.15625 47.070312 C 78.003906 44.851562 80.140625 42.136719 82.441406 41.726562 Z M 102.898438 40.902344 C 105.363281 40.738281 108.238281 43.289062 107.582031 45.835938 C 107.25 47.070312 105.445312 47.070312 105.117188 45.835938 C 104.953125 45.179688 104.953125 44.601562 104.457031 44.027344 C 104.046875 43.535156 103.472656 43.289062 102.898438 43.371094 C 102.242188 43.453125 101.582031 43.78125 101.171875 44.191406 C 100.761719 44.601562 100.515625 45.261719 100.105469 45.589844 C 100.023438 45.671875 99.859375 45.671875 99.777344 45.589844 C 99.035156 44.933594 99.445312 43.453125 99.941406 42.710938 C 100.597656 41.726562 101.664062 40.984375 102.898438 40.902344 Z M 77.757812 37.203125 C 79.320312 35.808594 82.195312 34.492188 84.332031 35.148438 C 85.5625 35.558594 86.054688 37.53125 84.742188 38.109375 C 83.179688 38.847656 81.375 38.519531 79.730469 39.257812 C 79.074219 39.589844 78.414062 40 77.921875 40.574219 C 77.511719 41.066406 77.183594 41.644531 76.609375 41.890625 C 76.445312 41.972656 76.28125 41.972656 76.199219 41.808594 C 75.046875 40.492188 76.691406 38.109375 77.757812 37.203125 Z M 100.1875 35.066406 C 101.171875 34.820312 102.242188 34.820312 103.226562 34.984375 C 104.210938 35.148438 105.199219 35.558594 106.019531 36.136719 L 106.101562 36.21875 C 107.003906 36.875 108.074219 37.863281 107.992188 39.011719 C 107.910156 40 106.921875 40.65625 106.019531 40.164062 C 105.28125 39.753906 104.953125 38.929688 104.375 38.355469 C 103.882812 37.863281 103.308594 37.53125 102.652344 37.285156 C 101.910156 37.039062 101.253906 36.875 100.515625 36.875 C 99.941406 36.875 99.363281 37.039062 98.789062 37.121094 C 98.871094 37.203125 98.378906 37.203125 98.132812 37.121094 C 97.96875 37.039062 97.96875 36.792969 97.96875 36.628906 C 98.296875 35.722656 99.445312 35.230469 100.1875 35.066406 Z M 100.1875 35.066406 " fill-opacity="1" fill-rule="evenodd"/><path fill="#000000" d="M 96.566406 55.886719 C 94.675781 54.984375 91.144531 55.804688 89.914062 56.050781 C 86.953125 56.792969 84.078125 58.273438 83.09375 60.65625 C 82.109375 63.367188 84.078125 64.191406 84.40625 64.027344 C 86.460938 64.191406 88.84375 62.875 90.980469 62.546875 C 92.707031 62.300781 94.511719 62.054688 96.15625 61.148438 C 97.304688 61.808594 100.015625 62.136719 102.152344 62.710938 C 103.960938 63.203125 104.78125 64.273438 106.507812 64.027344 C 108.5625 63.78125 107.738281 59.503906 105.441406 57.777344 C 102.976562 55.886719 98.785156 55.148438 96.566406 55.886719 Z M 100.429688 74.222656 C 98.703125 74.632812 98.621094 70.933594 98.457031 69.617188 C 98.292969 68.628906 97.46875 65.917969 95.335938 66.082031 C 93.199219 66.246094 92.460938 68.382812 92.542969 69.78125 C 92.625 70.6875 93.445312 75.125 90.816406 75.699219 C 89.171875 75.699219 87.199219 75.617188 85.476562 75.289062 C 83.421875 74.796875 80.710938 73.152344 80.054688 76.441406 C 79.808594 77.589844 88.925781 81.042969 92.953125 81.375 C 97.058594 82.195312 101.824219 80.960938 104.78125 77.757812 C 105.441406 77.015625 107.328125 74.058594 107.410156 73.316406 C 107.65625 71.753906 107.082031 70.851562 105.191406 71.34375 C 103.796875 72.082031 101.496094 73.972656 100.429688 74.222656 Z M 100.429688 74.222656 " fill-opacity="1" fill-rule="evenodd"/><path fill="#000000" d="M 108.597656 52.105469 C 105.96875 53.335938 102.355469 51.527344 100.628906 49.554688 C 99.972656 48.816406 99.476562 46.84375 99.726562 45.527344 C 100.382812 42.074219 102.847656 39.9375 105.558594 39.277344 C 109.171875 38.292969 112.871094 40.757812 112.457031 43.71875 C 111.964844 46.515625 111.390625 50.625 108.597656 52.105469 M 90.851562 45.445312 C 90.605469 49.226562 87.648438 52.515625 83.949219 53.503906 C 78.117188 55.144531 75.242188 51.035156 73.929688 46.597656 C 73.765625 46.183594 73.515625 44.789062 74.339844 43.636719 C 77.542969 39.113281 85.429688 39.855469 89.292969 41.089844 C 90.441406 42.238281 90.933594 43.800781 90.851562 45.445312 M 116.320312 39.363281 C 115.992188 35.496094 103.914062 36.976562 102.519531 37.304688 C 98.65625 38.457031 95.371094 41.5 91.015625 40.183594 C 86.578125 35.167969 71.546875 36.648438 68.339844 39.195312 C 67.765625 38.949219 67.027344 39.113281 66.289062 39.277344 C 62.34375 39.113281 44.351562 40.511719 48.050781 45.527344 C 48.625 45.9375 49.199219 45.527344 49.199219 44.707031 C 68.421875 37.800781 66.535156 44.292969 68.835938 43.472656 C 69.164062 43.554688 69.574219 43.636719 69.902344 43.71875 C 71.628906 44.292969 72.285156 44.128906 72.53125 46.101562 C 74.09375 61.394531 94.46875 56.132812 92.824219 43.554688 C 94.46875 43.472656 95.945312 42.730469 97.671875 43.472656 C 98.902344 55.3125 108.351562 55.804688 111.226562 51.691406 C 113.363281 48.816406 112.542969 44.539062 115.5 42.320312 C 116.484375 43.226562 116.566406 39.9375 116.320312 39.363281 " fill-opacity="1" fill-rule="evenodd"/></svg>