<svg xmlns="http://www.w3.org/2000/svg" xmlns:xlink="http://www.w3.org/1999/xlink" width="203" zoomAndPan="magnify" viewBox="0 0 152.25 185.999996" height="248" preserveAspectRatio="xMidYMid meet" version="1.0"><defs><clipPath id="3d523513ec"><path d="M 0 77.429688 L 151.503906 77.429688 L 151.503906 184.304688 L 0 184.304688 Z M 0 77.429688 " clip-rule="nonzero"/></clipPath><clipPath id="a7816217c6"><path d="M 18.65625 77.429688 L 132.703125 77.429688 C 137.652344 77.429688 142.398438 79.394531 145.898438 82.894531 C 149.398438 86.390625 151.363281 91.136719 151.363281 96.085938 L 151.363281 165.648438 C 151.363281 170.59375 149.398438 175.339844 145.898438 178.839844 C 142.398438 182.339844 137.652344 184.304688 132.703125 184.304688 L 18.65625 184.304688 C 13.710938 184.304688 8.964844 182.339844 5.464844 178.839844 C 1.964844 175.339844 0 170.59375 0 165.648438 L 0 96.085938 C 0 91.136719 1.964844 86.390625 5.464844 82.894531 C 8.964844 79.394531 13.710938 77.429688 18.65625 77.429688 Z M 18.65625 77.429688 " clip-rule="nonzero"/></clipPath><clipPath id="f50d63e876"><path d="M 0 77.433594 L 151.503906 77.433594 L 151.503906 184.152344 L 0 184.152344 Z M 0 77.433594 " clip-rule="nonzero"/></clipPath><clipPath id="ba804c558d"><path d="M 18.65625 77.433594 L 132.695312 77.433594 C 137.644531 77.433594 142.390625 79.398438 145.886719 82.894531 C 149.386719 86.394531 151.351562 91.140625 151.351562 96.089844 L 151.351562 165.644531 C 151.351562 170.59375 149.386719 175.335938 145.886719 178.835938 C 142.390625 182.335938 137.644531 184.300781 132.695312 184.300781 L 18.65625 184.300781 C 13.707031 184.300781 8.964844 182.335938 5.464844 178.835938 C 1.964844 175.335938 0 170.59375 0 165.644531 L 0 96.089844 C 0 91.140625 1.964844 86.394531 5.464844 82.894531 C 8.964844 79.398438 13.707031 77.433594 18.65625 77.433594 Z M 18.65625 77.433594 " clip-rule="nonzero"/></clipPath><clipPath id="926db36a2a"><path d="M 19 70 L 144 70 L 144 185.542969 L 19 185.542969 Z M 19 70 " clip-rule="nonzero"/></clipPath><clipPath id="314251a541"><path d="M 18.394531 73 L 145 73 L 145 185 L 18.394531 185 Z M 18.394531 73 " clip-rule="nonzero"/></clipPath><clipPath id="eab1a9c7aa"><path d="M 50 0.457031 L 121 0.457031 L 121 81 L 50 81 Z M 50 0.457031 " clip-rule="nonzero"/></clipPath></defs><g clip-path="url(#3d523513ec)"><g clip-path="url(#a7816217c6)"><path fill="#a8d1d1" d="M 0 77.429688 L 151.546875 77.429688 L 151.546875 184.304688 L 0 184.304688 Z M 0 77.429688 " fill-opacity="1" fill-rule="nonzero"/></g></g><g clip-path="url(#f50d63e876)"><g clip-path="url(#ba804c558d)"><path stroke-linecap="butt" transform="matrix(0.746324, 0, 0, 0.746324, -0.000000000000042424, 77.432006)" fill="none" stroke-linejoin="miter" d="M 24.997536 0.00212744 L 177.798641 0.00212744 C 184.430107 0.00212744 190.789405 2.634824 195.473826 7.319246 C 200.163481 12.008901 202.796178 18.368198 202.796178 24.999664 L 202.796178 118.19609 C 202.796178 124.827556 200.163481 131.18162 195.473826 135.871275 C 190.789405 140.56093 184.430107 143.193627 177.798641 143.193627 L 24.997536 143.193627 C 18.366071 143.193627 12.012007 140.56093 7.322352 135.871275 C 2.632697 131.18162 0.000000000000056843 124.827556 0.000000000000056843 118.19609 L 0.000000000000056843 24.999664 C 0.000000000000056843 18.368198 2.632697 12.008901 7.322352 7.319246 C 12.012007 2.634824 18.366071 0.00212744 24.997536 0.00212744 Z M 24.997536 0.00212744 " stroke="#000000" stroke-width="2" stroke-opacity="1" stroke-miterlimit="4"/></g></g><g clip-path="url(#926db36a2a)"><path fill="#ffffff" d="M 78.382812 73.195312 C 82.332031 70.148438 92.285156 68.777344 96.539062 71.75 C 100.71875 74.644531 101.171875 79.441406 103.148438 83.785156 C 104.972656 82.945312 108.011719 84.164062 108.542969 85.84375 C 109.226562 86.679688 109.226562 88.890625 109.683594 90.03125 C 129.511719 93.230469 132.472656 108.695312 134.90625 126.289062 C 138.097656 144.117188 145.238281 161.941406 142.121094 180.300781 C 142.503906 180.910156 142.882812 181.441406 143.109375 182.128906 C 143.792969 183.347656 142.882812 185.023438 141.515625 184.945312 C 139.691406 184.792969 137.867188 184.566406 135.96875 184.488281 C 130.800781 184.335938 125.636719 184.335938 120.546875 184.414062 L 119.863281 184.414062 C 93.957031 184.71875 67.972656 185.402344 42.066406 185.554688 C 41.15625 185.554688 40.699219 184.71875 40.773438 183.878906 C 41.003906 182.203125 41.230469 180.527344 41.535156 178.851562 C 35.378906 180.453125 28.847656 180.910156 22.769531 179.003906 C 22.3125 178.546875 23.757812 178.777344 23.984375 178.699219 C 18.363281 174.8125 20.035156 166.738281 20.566406 160.875 C 23.679688 140.839844 24.746094 118.597656 36.746094 101.457031 C 41.6875 94.449219 49.359375 88.964844 58.019531 87.671875 L 58.25 87.671875 C 60.832031 87.367188 63.640625 87.214844 65.84375 85.84375 C 68.351562 83.859375 69.417969 80.128906 72.074219 80.050781 C 72.910156 80.050781 74.125 81.117188 75.417969 81.878906 C 75.496094 80.203125 76.40625 78.832031 76.632812 77.539062 L 76.632812 77.460938 C 76.863281 75.9375 76.632812 74.644531 78.382812 73.195312 Z M 120.925781 126.746094 C 115.378906 122.863281 100.945312 124.84375 100.640625 125.070312 C 99.882812 125.527344 99.578125 125.605469 99.199219 126.214844 C 98.816406 126.289062 98.4375 126.289062 98.058594 126.367188 C 97.296875 126.59375 97.832031 127.585938 98.742188 127.203125 C 98.210938 129.566406 99.804688 131.164062 100.414062 133.527344 C 100.640625 134.289062 100.414062 135.585938 100.414062 136.421875 C 100.488281 137.414062 101.554688 138.554688 101.402344 139.546875 C 100.792969 143.050781 97.296875 146.402344 98.742188 149.753906 C 99.730469 151.65625 102.617188 152.648438 104.515625 153.257812 C 108.542969 154.78125 115.457031 153.179688 117.8125 149.753906 C 119.027344 147.925781 120.46875 143.277344 121.230469 141.832031 L 121.382812 139.546875 C 121.835938 133.757812 122.140625 127.585938 120.925781 126.746094 Z M 120.925781 126.746094 " fill-opacity="1" fill-rule="evenodd"/></g><g clip-path="url(#314251a541)"><path fill="#000000" d="M 71.164062 79.746094 C 71.542969 79.441406 72.152344 79.824219 71.847656 80.28125 C 71.316406 81.347656 70.707031 82.335938 70.023438 83.25 C 69.566406 83.785156 69.113281 84.316406 68.582031 84.851562 C 69.796875 85.917969 70.859375 87.289062 71.921875 88.507812 C 73.214844 90.109375 74.429688 91.785156 75.875 93.230469 C 77.316406 94.679688 78.914062 95.667969 80.8125 96.355469 L 81.191406 96.507812 C 83.089844 97.191406 85.144531 98.105469 86.207031 99.933594 C 86.433594 100.316406 85.976562 100.773438 85.597656 100.542969 C 83.699219 99.402344 81.496094 99.171875 79.445312 98.410156 C 77.46875 97.648438 75.722656 96.507812 74.203125 95.058594 C 72.683594 93.613281 71.390625 91.9375 70.101562 90.335938 C 68.808594 88.738281 67.363281 87.367188 65.84375 85.996094 C 63.414062 87.59375 60.679688 88.28125 57.945312 89.042969 L 57.714844 88.964844 C 54.90625 89.652344 52.171875 90.488281 49.511719 91.632812 C 47.230469 92.699219 44.953125 93.992188 43.054688 95.667969 C 41.078125 97.496094 39.484375 99.859375 38.117188 102.144531 C 34.925781 107.246094 32.722656 112.882812 30.746094 118.597656 C 28.695312 124.539062 27.023438 130.554688 25.578125 136.652344 C 24.894531 139.773438 24.289062 142.898438 23.832031 146.019531 C 23.605469 147.542969 23.375 149.066406 23.226562 150.589844 C 23.074219 152.191406 22.996094 153.867188 22.464844 155.464844 C 22.238281 156.152344 21.78125 156.378906 21.25 156.378906 L 21.171875 157.675781 C 21.023438 159.351562 20.945312 161.101562 20.871094 162.855469 C 20.792969 165.75 20.792969 168.566406 21.023438 171.460938 L 21.023438 171.84375 C 21.171875 173.898438 21.554688 176.261719 23.074219 177.785156 C 24.667969 179.386719 27.175781 179.84375 29.378906 179.917969 C 34.46875 179.996094 39.332031 177.554688 43.890625 175.421875 C 48.523438 173.214844 53.007812 170.851562 57.414062 168.1875 C 59.617188 166.816406 61.894531 165.445312 64.023438 164.074219 C 65.085938 163.386719 66.148438 162.703125 67.214844 161.941406 C 67.820312 161.558594 68.429688 161.101562 69.035156 160.722656 C 68.734375 160.417969 68.582031 159.960938 68.882812 159.578125 C 67.136719 158.054688 66.378906 155.238281 66.300781 153.027344 C 66.226562 151.199219 66.53125 149.449219 66.679688 147.621094 C 66.757812 146.707031 66.910156 145.792969 67.0625 144.878906 C 67.136719 144.496094 67.136719 144.117188 67.214844 143.734375 C 62.425781 146.402344 57.414062 148.761719 52.324219 150.820312 C 49.816406 152.039062 47.15625 153.027344 44.496094 153.867188 L 43.964844 154.019531 C 41.457031 154.855469 38.800781 155.617188 36.214844 156.074219 C 36.0625 156.074219 35.988281 155.921875 36.140625 155.847656 C 38.722656 154.703125 41.304688 153.789062 43.964844 152.722656 L 44.421875 152.570312 C 44.34375 152.570312 44.34375 152.570312 44.269531 152.570312 C 42.75 152.191406 41.230469 151.65625 39.785156 151.125 C 38.417969 150.667969 36.824219 150.4375 35.53125 149.753906 C 35.457031 149.675781 35.457031 149.601562 35.609375 149.523438 C 37.050781 149.449219 38.648438 149.828125 40.089844 150.132812 L 40.621094 150.210938 C 41.535156 150.363281 42.445312 150.515625 43.359375 150.742188 C 43.359375 150.4375 43.585938 150.132812 43.8125 149.980469 C 46.398438 148 46.167969 144.117188 46.472656 141.222656 L 46.699219 139.089844 C 47.082031 135.355469 47.460938 131.546875 48.066406 127.8125 C 48.066406 127.585938 48.371094 127.660156 48.371094 127.890625 C 48.144531 132.539062 47.839844 137.109375 47.613281 141.753906 L 47.613281 142.515625 C 47.535156 145.335938 47.460938 148.304688 45.636719 150.515625 C 45.863281 150.363281 46.246094 150.363281 46.398438 150.589844 C 46.625 150.894531 46.777344 151.199219 46.777344 151.582031 C 48.371094 150.894531 49.96875 150.210938 51.636719 149.523438 C 56.804688 147.238281 61.820312 144.648438 66.757812 141.90625 C 67.289062 141.601562 67.820312 141.832031 68.050781 142.210938 C 68.734375 141.832031 69.644531 142.136719 70.253906 142.667969 C 70.253906 142.667969 70.253906 142.667969 70.328125 142.746094 C 71.085938 142.441406 71.773438 141.984375 72.378906 141.375 C 73.671875 140.15625 74.808594 138.707031 75.722656 137.261719 C 77.46875 134.59375 78.988281 131.546875 81.421875 129.335938 C 83.394531 127.507812 85.75 126.367188 88.332031 125.679688 C 88.332031 125.605469 88.332031 125.527344 88.410156 125.453125 C 88.5625 125.300781 88.636719 125.300781 88.789062 125.375 L 89.015625 124.917969 C 89.167969 124.691406 89.320312 124.460938 89.320312 124.386719 C 89.625 124.003906 89.929688 123.699219 90.234375 123.320312 C 90.765625 122.710938 91.296875 122.101562 91.980469 121.71875 C 93.425781 120.804688 95.019531 121.339844 96.539062 121.796875 C 97.449219 122.101562 98.363281 122.40625 99.273438 122.710938 L 99.351562 122.710938 C 100.035156 122.9375 100.792969 123.089844 101.097656 123.851562 C 101.25 124.15625 101.25 124.460938 101.171875 124.691406 C 107.628906 123.015625 114.773438 123.777344 121.078125 125.757812 C 121.304688 125.832031 121.535156 126.0625 121.609375 126.289062 C 122.292969 130.023438 122.671875 133.832031 122.292969 137.566406 C 121.988281 140.839844 121.304688 144.039062 119.9375 147.011719 L 119.863281 147.164062 C 118.570312 149.90625 116.59375 153.332031 113.480469 154.171875 C 111.582031 154.703125 109.53125 154.398438 107.628906 154.324219 C 105.808594 154.246094 103.90625 154.246094 102.085938 153.941406 C 100.488281 153.714844 99.046875 152.953125 98.058594 151.65625 C 97.222656 150.515625 96.765625 149.144531 96.386719 147.773438 C 96.234375 147.847656 96.082031 147.847656 95.855469 147.925781 C 95.171875 148.230469 94.5625 148.6875 94.03125 149.144531 C 92.890625 150.285156 91.980469 151.582031 90.765625 152.648438 C 89.699219 153.636719 88.410156 154.324219 87.117188 154.933594 C 84.382812 156.152344 81.421875 156.609375 78.53125 157.21875 L 78.304688 157.292969 C 76.101562 157.75 73.898438 158.359375 71.921875 159.503906 C 71.921875 159.808594 71.695312 160.1875 71.46875 160.339844 C 71.773438 160.644531 71.921875 161.179688 71.621094 161.636719 C 70.785156 162.929688 69.339844 163.691406 68.050781 164.605469 L 67.972656 164.683594 C 66.679688 165.519531 65.390625 166.359375 64.097656 167.195312 C 61.4375 168.871094 58.78125 170.394531 56.046875 171.917969 C 51.640625 174.28125 47.230469 176.566406 42.675781 178.625 C 42.976562 179.996094 42.824219 181.367188 43.054688 182.738281 L 43.054688 182.964844 C 43.128906 183.5 43.054688 183.878906 42.675781 184.183594 C 42.597656 184.183594 42.597656 184.261719 42.523438 184.261719 L 42.445312 184.261719 C 42.140625 184.488281 41.6875 184.488281 41.304688 184.261719 L 41.15625 184.261719 C 40.699219 184.03125 40.394531 183.347656 40.546875 182.8125 C 41.003906 181.519531 41.15625 180.222656 41.609375 178.929688 L 40.851562 179.308594 C 36.0625 181.367188 30.746094 183.117188 25.503906 181.746094 C 23.226562 181.136719 21.023438 179.765625 19.882812 177.632812 C 18.742188 175.5 18.589844 173.0625 18.515625 170.699219 C 18.4375 167.804688 18.589844 164.835938 18.96875 161.941406 C 19.199219 159.960938 19.503906 158.054688 20.035156 156.074219 C 19.804688 155.847656 19.578125 155.542969 19.578125 155.160156 C 19.351562 153.332031 19.730469 151.429688 19.957031 149.601562 C 20.1875 147.847656 20.488281 146.019531 20.71875 144.269531 C 21.324219 140.6875 22.007812 137.109375 22.84375 133.605469 C 24.289062 127.28125 26.1875 121.109375 28.46875 115.09375 L 28.695312 114.558594 C 30.820312 109 33.253906 103.667969 36.671875 98.792969 C 38.34375 96.507812 40.015625 94.375 42.371094 92.699219 C 44.496094 91.097656 47.003906 90.03125 49.511719 89.117188 C 52.019531 88.28125 54.601562 87.671875 57.261719 87.289062 C 59.917969 86.910156 62.730469 86.679688 65.238281 85.613281 C 64.933594 85.078125 65.160156 84.242188 65.695312 83.9375 C 67.898438 82.71875 69.566406 81.117188 71.164062 79.746094 Z M 128.449219 131.242188 C 128.523438 131.164062 128.675781 131.164062 128.675781 131.316406 C 127.839844 134.898438 127.003906 138.480469 126.472656 142.136719 C 125.484375 148.6875 125.710938 155.390625 125.789062 162.015625 L 125.789062 162.320312 C 125.863281 165.902344 125.863281 169.480469 126.015625 173.0625 C 126.09375 174.890625 126.167969 176.71875 126.09375 178.472656 C 126.09375 179.460938 125.789062 180.375 125.710938 181.367188 C 125.636719 182.203125 125.710938 183.042969 125.710938 183.878906 C 125.710938 184.414062 124.875 184.414062 124.875 183.878906 L 124.800781 183.195312 C 124.726562 182.28125 124.574219 181.441406 124.269531 180.605469 C 123.890625 179.613281 123.738281 178.625 123.660156 177.554688 C 123.507812 175.957031 123.355469 174.28125 123.355469 172.605469 L 123.28125 171.460938 C 122.976562 164.605469 122.976562 157.675781 123.507812 150.820312 L 123.507812 150.363281 C 123.964844 143.8125 124.800781 136.804688 128.449219 131.242188 Z M 109.910156 90.335938 C 109.683594 90.261719 109.757812 89.878906 109.984375 89.957031 L 110.441406 90.03125 C 113.785156 90.871094 117.050781 91.707031 120.242188 93.230469 C 123.355469 94.753906 126.015625 96.964844 128.144531 99.707031 C 132.246094 105.039062 133.917969 111.589844 135.285156 118.0625 C 136.804688 125.300781 138.171875 132.539062 139.617188 139.773438 L 139.917969 141.144531 C 141.285156 147.847656 142.65625 154.628906 143.566406 161.40625 L 143.640625 161.863281 C 144.628906 168.871094 145.238281 176.109375 144.175781 183.117188 C 143.945312 184.488281 141.667969 184.183594 141.742188 182.8125 C 141.96875 178.851562 142.199219 174.890625 142.046875 170.929688 C 141.894531 166.96875 141.515625 163.007812 140.90625 159.046875 C 140.449219 155.695312 139.765625 152.496094 139.160156 149.144531 L 139.082031 148.609375 C 138.550781 145.792969 138.019531 143.050781 137.488281 140.230469 L 136.726562 136.042969 C 135.511719 129.792969 134.296875 123.472656 132.929688 117.300781 L 132.855469 116.921875 C 131.488281 110.902344 129.511719 104.65625 125.558594 99.933594 C 121.457031 95.136719 115.609375 92.699219 109.910156 90.335938 Z M 95.09375 153.867188 C 95.171875 153.636719 95.550781 153.636719 95.628906 153.867188 C 96.007812 154.628906 96.082031 155.617188 96.160156 156.457031 L 96.160156 156.53125 C 96.234375 157.597656 96.3125 158.664062 96.386719 159.730469 C 96.460938 161.710938 96.539062 163.769531 96.539062 165.75 C 96.539062 167.804688 96.460938 169.863281 96.386719 171.917969 L 96.386719 172.453125 C 96.3125 174.203125 96.082031 176.261719 95.246094 177.785156 C 94.941406 178.320312 94.109375 178.164062 93.957031 177.632812 C 93.347656 175.726562 93.652344 173.519531 93.804688 171.613281 L 93.957031 170.089844 C 94.109375 168.566406 94.183594 167.121094 94.257812 165.597656 C 94.410156 163.539062 94.488281 161.484375 94.5625 159.425781 C 94.5625 158.742188 94.640625 158.054688 94.640625 157.445312 L 94.714844 156.457031 C 94.792969 155.542969 94.792969 154.628906 95.09375 153.867188 Z M 29.605469 156.53125 L 29.835938 156.304688 C 30.59375 155.542969 31.65625 154.324219 32.796875 154.398438 C 33.253906 154.398438 33.558594 154.78125 33.480469 155.3125 C 33.253906 156.304688 32.265625 156.835938 31.582031 157.445312 C 30.820312 158.132812 30.0625 158.816406 29.300781 159.503906 C 28.617188 160.113281 28.011719 160.796875 27.402344 161.484375 L 27.175781 161.710938 C 26.949219 161.941406 25.351562 163.386719 25.578125 163.769531 C 25.65625 163.84375 25.578125 163.921875 25.503906 163.921875 C 24.820312 163.691406 24.894531 163.082031 25.125 162.550781 C 25.65625 161.40625 26.492188 160.339844 27.25 159.351562 C 27.933594 158.285156 28.695312 157.371094 29.605469 156.53125 Z M 97.601562 127.890625 C 97.070312 126.671875 95.09375 126.671875 94.03125 126.746094 C 91.21875 126.898438 88.257812 127.660156 85.75 128.957031 C 83.167969 130.328125 81.496094 132.460938 79.902344 134.824219 L 79.824219 134.898438 C 78.304688 137.261719 76.863281 140.003906 74.507812 141.601562 C 73.289062 142.441406 71.921875 143.203125 70.480469 143.507812 C 70.402344 143.660156 70.253906 143.8125 70.023438 143.886719 L 69.949219 143.886719 C 69.566406 143.964844 68.882812 144.117188 68.351562 144.039062 C 68.351562 144.34375 68.351562 144.574219 68.351562 144.878906 C 68.351562 145.640625 68.351562 146.402344 68.351562 147.085938 C 68.351562 148.609375 68.277344 150.210938 68.351562 151.734375 C 68.429688 153.105469 68.582031 154.550781 69.265625 155.769531 C 69.71875 156.683594 70.402344 157.292969 71.164062 157.828125 C 73.0625 156.683594 75.191406 156 77.394531 155.464844 C 80.050781 154.855469 82.710938 154.398438 85.292969 153.5625 C 86.511719 153.179688 87.726562 152.570312 88.789062 151.886719 C 89.929688 151.125 90.839844 150.058594 91.675781 148.992188 L 91.828125 148.839844 C 92.738281 147.773438 93.726562 146.78125 95.019531 146.171875 C 96.160156 145.714844 97.601562 145.5625 98.589844 144.800781 C 99.121094 144.421875 99.121094 143.8125 99.199219 143.203125 C 98.589844 143.277344 97.90625 143.125 97.296875 143.050781 L 96.996094 143.050781 C 96.386719 142.972656 95.855469 142.898438 95.246094 142.746094 C 95.171875 142.746094 95.171875 142.515625 95.246094 142.515625 C 95.929688 142.363281 96.613281 142.289062 97.296875 142.210938 L 97.449219 142.210938 C 98.058594 142.136719 98.742188 141.984375 99.351562 142.136719 C 99.425781 141.679688 99.652344 141.296875 99.882812 140.917969 C 100.183594 140.308594 100.792969 139.699219 100.871094 139.011719 C 100.871094 138.785156 100.871094 138.554688 100.71875 138.402344 L 100.71875 138.328125 C 100.640625 138.25 100.640625 138.175781 100.566406 138.175781 C 100.566406 138.175781 100.566406 138.175781 100.488281 138.175781 C 100.035156 138.328125 99.578125 138.097656 99.351562 137.71875 C 98.363281 137.871094 97.375 137.871094 96.460938 137.871094 L 95.550781 137.945312 C 94.5625 138.023438 93.574219 138.023438 92.738281 137.792969 C 92.589844 137.792969 92.589844 137.566406 92.738281 137.488281 C 93.878906 137.03125 95.171875 136.878906 96.386719 136.652344 C 97.070312 136.574219 97.679688 136.5 98.363281 136.347656 C 98.816406 136.269531 99.273438 136.195312 99.730469 136.195312 C 100.871094 134.746094 100.261719 132.539062 98.664062 131.929688 C 98.058594 132.15625 97.601562 132.003906 96.917969 132.003906 C 96.3125 131.929688 95.628906 131.929688 95.019531 131.929688 C 93.726562 131.929688 92.4375 132.234375 91.144531 132.15625 C 90.917969 132.15625 90.765625 131.851562 90.917969 131.699219 C 91.90625 130.9375 93.273438 130.632812 94.488281 130.480469 L 94.714844 130.480469 C 95.09375 130.402344 95.628906 130.328125 96.160156 130.328125 C 96.3125 130.097656 96.460938 129.945312 96.765625 129.871094 C 96.84375 129.871094 96.917969 129.871094 97.070312 129.871094 C 97.832031 129.71875 97.832031 128.421875 97.601562 127.890625 Z M 44.953125 152.265625 C 44.878906 152.34375 44.878906 152.34375 44.953125 152.265625 L 44.878906 152.34375 Z M 110.972656 125.148438 C 107.707031 124.765625 104.515625 124.84375 101.25 124.996094 C 101.019531 125.832031 100.109375 126.59375 99.199219 126.59375 C 99.882812 127.660156 99.957031 129.03125 99.5 130.175781 C 100.488281 130.554688 101.402344 131.316406 101.933594 132.386719 C 102.691406 133.832031 102.539062 135.433594 101.855469 136.804688 C 102.464844 137.335938 102.84375 138.328125 102.84375 139.164062 C 102.769531 140.15625 102.238281 140.992188 101.78125 141.753906 C 101.25 142.59375 101.25 143.355469 101.097656 144.34375 C 100.871094 145.792969 99.882812 146.628906 98.664062 147.164062 L 98.742188 147.390625 C 99.046875 148.609375 99.425781 149.90625 100.335938 150.820312 C 101.476562 151.960938 103.300781 151.960938 104.820312 152.039062 L 104.894531 152.039062 C 106.339844 152.113281 107.707031 152.191406 109.148438 152.265625 L 110.136719 152.34375 C 111.734375 152.417969 113.328125 152.417969 114.621094 151.351562 C 116.746094 149.601562 118.265625 146.707031 119.179688 144.117188 C 121.152344 138.707031 121.152344 132.765625 120.242188 127.128906 C 117.355469 126.136719 114.164062 125.453125 110.972656 125.148438 Z M 84.078125 134.0625 C 84.761719 134.136719 85.21875 134.671875 85.371094 135.355469 C 85.597656 136.269531 85.523438 137.109375 86.054688 137.945312 C 86.664062 138.785156 86.964844 139.46875 87.117188 140.613281 C 87.117188 141.070312 87.117188 141.527344 87.269531 141.90625 L 87.347656 142.210938 C 87.421875 142.515625 87.496094 142.820312 87.421875 143.203125 C 87.421875 143.507812 87.269531 143.734375 86.890625 143.886719 C 85.828125 144.191406 85.066406 143.429688 84.839844 142.515625 C 84.609375 141.679688 84.914062 140.6875 84.609375 139.925781 C 84.460938 139.46875 84.078125 139.164062 83.925781 138.707031 C 83.773438 138.25 83.625 137.792969 83.625 137.335938 C 83.546875 136.421875 84.382812 135.355469 83.925781 134.59375 C 83.773438 134.367188 83.851562 134.0625 84.078125 134.0625 Z M 70.402344 124.917969 C 71.085938 124.765625 71.921875 124.460938 72.605469 124.691406 C 72.988281 124.84375 73.140625 125.222656 72.835938 125.527344 C 72.304688 126.0625 71.542969 126.0625 70.859375 126.214844 L 70.785156 126.214844 C 69.949219 126.367188 69.113281 126.519531 68.277344 126.671875 C 66.757812 126.898438 65.160156 127.128906 63.566406 127.355469 C 61.972656 127.585938 60.375 127.738281 58.703125 127.890625 L 58.171875 127.964844 C 56.804688 128.042969 55.363281 128.195312 54.070312 127.964844 C 53.84375 127.964844 53.917969 127.660156 54.070312 127.585938 C 55.511719 127.128906 57.109375 127.050781 58.628906 126.824219 C 60.222656 126.59375 61.820312 126.441406 63.414062 126.136719 C 65.011719 125.910156 66.605469 125.605469 68.199219 125.300781 C 68.960938 125.222656 69.71875 125.070312 70.402344 124.917969 Z M 95.550781 123.546875 C 94.941406 123.320312 94.257812 123.015625 93.574219 123.089844 C 92.4375 123.242188 91.449219 124.386719 90.535156 125.148438 L 90.992188 125.070312 C 93.347656 124.613281 96.386719 124.15625 98.363281 125.605469 C 98.515625 125.375 98.664062 125.148438 98.894531 124.996094 C 98.894531 124.996094 98.894531 124.996094 98.96875 124.917969 L 99.046875 124.765625 L 98.816406 124.691406 C 98.285156 124.539062 97.679688 124.234375 97.601562 124.234375 C 96.917969 124.003906 96.234375 123.777344 95.550781 123.546875 Z M 76.480469 74.71875 C 76.40625 73.5 78.304688 73.5 78.382812 74.71875 C 78.609375 77.386719 78 80.050781 76.710938 82.335938 C 76.710938 82.335938 76.710938 82.335938 76.710938 82.414062 C 77.546875 82.871094 78.304688 83.25 79.140625 83.632812 C 80.203125 84.089844 81.269531 84.546875 82.40625 84.851562 C 83.394531 85.15625 84.609375 85.308594 85.445312 85.996094 C 87.195312 87.441406 86.585938 90.335938 86.207031 92.242188 L 86.128906 92.546875 C 85.976562 93.535156 85.828125 94.527344 86.28125 95.441406 C 86.738281 96.429688 87.574219 97.191406 88.410156 97.878906 L 88.5625 98.03125 C 89.246094 98.640625 90.082031 99.476562 90.613281 100.316406 C 91.070312 99.324219 91.753906 98.5625 92.4375 97.648438 C 92.890625 97.039062 92.589844 96.8125 92.207031 96.203125 C 91.90625 95.59375 91.675781 94.984375 91.828125 94.296875 C 92.054688 93.003906 93.042969 92.089844 94.03125 91.402344 C 95.246094 90.566406 96.539062 89.957031 97.753906 89.195312 C 100.261719 87.671875 102.769531 85.84375 104.972656 83.859375 C 105.046875 83.785156 105.125 83.859375 105.125 83.9375 C 103.375 86.605469 101.324219 88.890625 98.816406 90.871094 C 97.832031 91.632812 96.691406 92.316406 95.628906 93.003906 L 95.324219 93.230469 C 94.867188 93.535156 94.335938 93.917969 94.183594 94.375 C 93.957031 94.832031 94.410156 95.210938 94.640625 95.59375 C 95.324219 96.886719 95.019531 98.03125 94.183594 99.097656 L 94.109375 99.171875 C 93.273438 100.238281 92.589844 101.230469 92.285156 102.523438 C 91.523438 105.496094 92.4375 108.542969 93.425781 111.207031 L 93.5 111.285156 C 94.03125 112.730469 94.5625 114.179688 95.019531 115.703125 L 95.171875 116.082031 C 95.550781 117.453125 95.929688 118.824219 95.476562 120.195312 C 95.324219 120.652344 94.640625 120.804688 94.410156 120.347656 C 93.5 118.75 93.195312 116.84375 92.664062 115.09375 C 92.054688 113.417969 91.449219 111.742188 90.839844 110.066406 C 90.15625 107.855469 89.625 105.496094 89.929688 103.210938 C 89.929688 103.210938 89.929688 103.210938 89.929688 103.132812 L 89.625 102.828125 C 89.09375 101.761719 88.636719 100.773438 87.726562 99.933594 C 86.8125 99.019531 85.75 98.257812 84.992188 97.117188 C 83.394531 94.753906 84.382812 92.089844 84.535156 89.5 L 84.535156 89.195312 C 84.535156 88.660156 84.609375 87.898438 84.230469 87.519531 C 83.851562 87.0625 82.941406 86.984375 82.40625 86.832031 C 81.039062 86.375 79.671875 85.765625 78.457031 85.078125 C 77.242188 84.46875 76.101562 83.707031 74.960938 82.871094 L 74.429688 82.414062 C 73.519531 81.726562 72.683594 81.042969 72.074219 80.128906 C 72 80.050781 72.152344 79.824219 72.226562 79.898438 C 73.214844 80.28125 74.125 80.964844 75.039062 81.5 C 75.039062 81.5 75.039062 81.421875 75.113281 81.421875 C 76.179688 79.367188 76.632812 77.082031 76.480469 74.71875 Z M 107.78125 88.8125 C 108.164062 87.746094 109.984375 87.824219 109.910156 89.117188 C 109.835938 90.109375 109.453125 90.945312 109.074219 91.859375 L 109 91.9375 C 108.617188 92.851562 108.164062 93.765625 107.628906 94.601562 C 106.566406 96.203125 105.351562 97.726562 104.058594 99.171875 C 102.921875 100.46875 101.324219 101.230469 99.578125 101.152344 C 98.816406 101.078125 98.058594 100.925781 97.449219 100.542969 C 96.691406 100.085938 95.855469 98.792969 94.867188 99.097656 C 94.792969 99.097656 94.714844 99.019531 94.792969 98.945312 C 95.929688 98.03125 97.222656 99.476562 98.363281 99.78125 C 100.035156 100.316406 101.703125 99.707031 102.769531 98.410156 C 103.90625 97.039062 104.894531 95.441406 105.808594 93.917969 C 106.261719 93.15625 106.71875 92.316406 107.097656 91.480469 C 107.402344 90.566406 107.480469 89.652344 107.78125 88.8125 Z M 105.125 82.261719 C 105.046875 82.109375 105.277344 81.957031 105.351562 82.03125 C 106.113281 82.488281 106.71875 83.175781 107.480469 83.707031 C 108.238281 84.316406 109 84.925781 109.835938 85.539062 C 110.972656 86.453125 109.683594 88.050781 108.617188 87.0625 C 107.25 85.84375 105.730469 84.089844 105.125 82.261719 Z M 100.945312 77.003906 C 101.25 75.785156 103.074219 76.320312 102.769531 77.460938 C 102.238281 79.367188 102.996094 81.347656 104.515625 82.640625 L 104.59375 82.71875 C 105.578125 83.480469 104.210938 84.851562 103.222656 84.089844 C 101.171875 82.414062 100.335938 79.59375 100.945312 77.003906 Z M 100.945312 77.003906 " fill-opacity="1" fill-rule="evenodd"/></g><path fill="#ffffff" d="M 116.699219 39.367188 C 116.089844 34.570312 114.191406 29.539062 112.214844 25.121094 C 107.808594 15.753906 97.628906 14.457031 88.589844 12.476562 C 79.625 11.183594 70.128906 9.964844 61.316406 12.628906 C 56.375 13.847656 54.402344 19.789062 55.160156 24.4375 C 55.617188 27.332031 56.90625 30.074219 58.046875 32.816406 C 60.328125 38.378906 61.695312 44.320312 61.695312 50.335938 C 61.542969 54.296875 61.011719 58.714844 65.492188 60.390625 C 69.824219 62.449219 70.203125 68.238281 75.597656 71.589844 C 77.800781 76.007812 83.652344 76.386719 87.90625 77.378906 C 90.5625 77.910156 93.300781 78.292969 96.035156 78.519531 C 103.933594 79.511719 110.242188 77.226562 114.34375 70.21875 C 117.078125 65.953125 119.128906 61 118.675781 55.746094 C 118.140625 50.261719 117.308594 44.851562 116.699219 39.367188 Z M 116.699219 39.367188 " fill-opacity="1" fill-rule="evenodd"/><g clip-path="url(#eab1a9c7aa)"><path fill="#000000" d="M 88.664062 1.050781 C 89.121094 0.519531 89.804688 0.746094 90.261719 1.128906 C 90.5625 1.203125 90.792969 1.355469 91.019531 1.507812 C 91.550781 1.433594 92.160156 1.433594 92.765625 1.433594 C 92.917969 1.355469 93.070312 1.28125 93.222656 1.203125 C 94.363281 0.824219 95.351562 0.976562 96.1875 1.585938 C 96.566406 1.203125 97.097656 0.976562 97.707031 0.976562 C 98.238281 0.976562 98.691406 1.28125 98.996094 1.660156 C 99.378906 1.128906 99.910156 0.824219 100.59375 0.746094 C 101.582031 0.671875 102.492188 1.050781 103.25 1.660156 C 103.707031 1.128906 104.316406 0.824219 105 0.824219 C 105.453125 0.746094 105.910156 0.746094 106.367188 0.898438 C 106.972656 1.050781 107.507812 1.433594 107.960938 1.890625 C 108.644531 1.203125 109.480469 0.746094 110.46875 0.824219 C 111.761719 0.898438 112.75 1.8125 113.28125 3.03125 C 114.117188 3.414062 114.953125 3.871094 115.558594 4.554688 C 115.558594 4.554688 115.636719 4.632812 115.636719 4.707031 C 116.015625 4.859375 116.320312 5.011719 116.621094 5.242188 C 117.535156 6.003906 117.761719 7.144531 117.457031 8.289062 C 117.535156 8.441406 117.535156 8.667969 117.535156 8.820312 C 118.445312 8.972656 119.207031 9.429688 119.660156 10.269531 C 120.269531 11.410156 120.195312 12.859375 119.511719 14 C 119.207031 14.457031 118.828125 14.839844 118.445312 15.21875 C 118.902344 16.285156 118.675781 17.582031 117.914062 18.417969 C 117.761719 18.722656 117.535156 18.953125 117.230469 19.257812 C 117.535156 20.324219 117.003906 21.464844 116.015625 22.074219 L 115.9375 22.304688 C 115.9375 22.304688 115.9375 22.378906 115.863281 22.378906 C 115.863281 22.457031 115.863281 22.457031 115.863281 22.53125 C 115.863281 22.914062 115.710938 23.292969 115.484375 23.675781 C 114.953125 24.4375 114.34375 24.894531 113.964844 25.730469 L 113.964844 25.808594 C 113.8125 26.1875 113.355469 26.492188 112.976562 26.339844 C 115.179688 30.988281 116.394531 36.09375 117.230469 41.121094 C 117.609375 43.632812 117.914062 46.148438 118.21875 48.660156 L 118.445312 51.175781 C 118.675781 53.382812 118.828125 55.667969 118.828125 57.878906 C 118.828125 62.980469 117.382812 67.855469 114.269531 71.894531 C 111.304688 75.703125 107.203125 78.445312 102.492188 79.585938 C 97.628906 80.730469 91.933594 80.273438 87.601562 77.683594 C 86.308594 76.921875 87.449219 75.09375 88.742188 75.703125 C 91.246094 76.84375 93.753906 77.683594 96.488281 77.910156 C 99.148438 78.0625 101.808594 77.757812 104.390625 76.921875 C 108.570312 75.398438 112.140625 72.351562 114.417969 68.542969 C 115.558594 66.714844 116.394531 64.65625 116.773438 62.523438 C 117.308594 59.859375 117.230469 57.117188 117.003906 54.375 L 117.003906 54.222656 C 116.621094 49.042969 116.089844 43.785156 115.253906 38.605469 C 114.496094 34.035156 113.355469 29.617188 111.914062 25.199219 C 111.304688 24.664062 110.695312 24.285156 110.011719 23.980469 C 104.921875 23.75 99.832031 23.828125 94.820312 24.207031 C 90.488281 24.511719 86.15625 25.046875 81.902344 25.730469 L 81.449219 25.882812 C 80.535156 26.035156 79.472656 26.113281 78.558594 26.492188 C 77.800781 26.796875 77.496094 27.484375 77.269531 28.246094 C 76.8125 30.226562 76.738281 32.359375 76.660156 34.339844 C 76.585938 36.320312 76.738281 38.300781 76.585938 40.28125 C 76.507812 41.882812 76.054688 43.558594 74.835938 44.777344 C 74.230469 45.386719 73.394531 45.765625 72.710938 46.222656 C 72.253906 46.527344 72.027344 46.832031 72.101562 47.441406 C 72.253906 48.660156 73.242188 50.261719 72.101562 51.25 C 71.875 51.402344 71.570312 51.480469 71.34375 51.25 C 70.886719 50.71875 70.28125 50.335938 69.671875 49.957031 C 69.445312 49.804688 69.59375 49.5 69.898438 49.574219 C 70.203125 49.726562 70.582031 49.878906 70.964844 50.03125 C 70.203125 49.421875 69.0625 49.042969 68.152344 48.890625 C 67.695312 48.8125 67.164062 48.738281 66.707031 48.8125 C 66.328125 48.964844 65.949219 49.117188 65.644531 49.269531 C 65.1875 49.5 64.734375 49.652344 64.203125 49.804688 C 62.53125 51.175781 61.769531 53.308594 62.074219 55.515625 C 62.226562 56.734375 62.835938 57.953125 63.820312 58.640625 C 65.039062 59.476562 66.632812 59.097656 68 59.707031 C 69.214844 60.238281 69.976562 61.457031 70.507812 62.601562 L 70.734375 63.058594 C 71.265625 64.125 71.800781 65.191406 72.484375 66.179688 C 73.316406 67.324219 74.304688 68.390625 75.445312 69.226562 C 75.976562 69.683594 76.507812 70.066406 77.117188 70.371094 L 77.269531 70.445312 C 77.875 70.828125 78.257812 71.132812 78.332031 71.894531 C 78.332031 72.121094 78.179688 72.351562 77.953125 72.503906 C 77.042969 73.113281 76.128906 72.351562 75.445312 71.894531 C 74.609375 71.359375 73.851562 70.75 73.167969 70.066406 C 71.800781 68.847656 70.660156 67.324219 69.746094 65.722656 C 69.0625 64.503906 68.683594 62.753906 67.542969 61.839844 C 66.859375 61.230469 65.949219 61.230469 65.113281 61.152344 C 64.355469 61.078125 63.59375 60.925781 62.910156 60.542969 C 60.097656 59.019531 59.339844 55.210938 60.023438 52.316406 C 60.097656 51.859375 60.328125 51.328125 60.480469 50.871094 C 59.414062 51.023438 58.277344 49.957031 58.65625 48.890625 C 58.65625 48.8125 58.730469 48.738281 58.730469 48.660156 C 58.046875 48.203125 57.515625 47.519531 57.210938 46.605469 C 57.058594 46.148438 57.058594 45.691406 57.136719 45.234375 C 56.832031 45.003906 56.527344 44.699219 56.375 44.320312 C 55.84375 44.089844 55.3125 43.710938 55.007812 43.101562 C 54.628906 42.339844 54.628906 41.652344 54.933594 41.042969 C 54.855469 40.96875 54.855469 40.890625 54.78125 40.816406 C 53.640625 40.128906 52.882812 38.835938 52.957031 37.464844 C 52.957031 37.007812 53.109375 36.625 53.261719 36.246094 C 53.261719 36.167969 53.261719 36.167969 53.183594 36.09375 C 52.273438 35.636719 51.4375 34.796875 51.210938 33.730469 C 50.90625 32.664062 51.285156 31.597656 51.894531 30.757812 C 50.90625 30.074219 50.375 29.082031 50.679688 27.558594 C 50.832031 26.949219 51.132812 26.417969 51.515625 25.960938 C 51.515625 25.960938 51.515625 25.960938 51.515625 25.882812 L 51.4375 25.808594 C 50.449219 25.121094 49.765625 23.902344 50.527344 22.457031 C 50.832031 21.769531 51.285156 21.3125 51.894531 21.007812 L 51.894531 20.933594 C 51.515625 20.09375 51.363281 19.179688 51.667969 18.191406 C 51.894531 17.351562 52.425781 16.742188 53.109375 16.285156 C 53.035156 15.90625 53.035156 15.523438 53.109375 15.144531 C 53.261719 14.457031 53.566406 13.847656 54.097656 13.390625 C 54.097656 13.316406 54.171875 13.238281 54.171875 13.085938 C 54.324219 12.554688 54.703125 11.945312 55.007812 11.488281 C 55.3125 11.105469 55.691406 10.953125 56.074219 10.953125 C 56.074219 10.574219 56.074219 10.269531 56.148438 9.886719 C 56.375 8.820312 57.058594 7.753906 58.125 7.296875 C 58.578125 7.070312 58.960938 7.070312 59.414062 7.070312 C 59.796875 6.308594 60.480469 5.773438 61.390625 5.621094 C 61.769531 5.546875 62.074219 5.546875 62.378906 5.621094 C 62.53125 5.546875 62.683594 5.46875 62.910156 5.394531 C 63.0625 5.316406 63.136719 5.316406 63.289062 5.242188 C 63.667969 4.707031 64.203125 4.328125 64.886719 4.097656 C 65.570312 3.792969 66.328125 3.871094 67.011719 4.097656 L 67.242188 4.023438 C 67.542969 3.488281 68.078125 3.03125 68.910156 2.804688 C 69.824219 2.574219 70.734375 2.878906 71.417969 3.488281 C 71.800781 2.652344 72.40625 2.042969 73.46875 2.117188 C 74.152344 2.117188 74.761719 2.5 75.21875 2.957031 C 75.445312 2.957031 75.75 2.878906 75.976562 2.878906 C 76.28125 2.574219 76.585938 2.269531 76.890625 1.964844 C 77.421875 1.507812 78.179688 1.585938 78.558594 2.195312 C 78.636719 2.347656 78.710938 2.5 78.789062 2.574219 L 79.167969 2.574219 C 79.625 1.964844 80.230469 1.585938 80.992188 1.585938 C 81.75 1.585938 82.28125 1.890625 82.664062 2.421875 C 82.96875 2.421875 83.347656 2.421875 83.652344 2.421875 C 83.953125 1.890625 84.410156 1.507812 84.941406 1.203125 C 85.320312 0.976562 85.929688 1.050781 86.234375 1.355469 C 86.460938 1.585938 86.691406 1.8125 86.839844 2.042969 C 87.296875 1.507812 87.980469 1.203125 88.664062 1.050781 Z M 65.039062 52.164062 C 65.796875 51.707031 66.785156 52.164062 67.542969 52.546875 C 68.457031 53.003906 69.292969 53.6875 69.824219 54.527344 C 70.582031 55.667969 68.835938 56.582031 68.078125 55.59375 C 67.621094 54.984375 67.242188 54.296875 66.632812 53.765625 C 66.101562 53.230469 65.339844 52.851562 65.039062 52.164062 Z M 65.570312 24.511719 C 65.796875 23.902344 64.886719 23.597656 64.65625 24.207031 C 64.355469 25.121094 64.734375 26.035156 65.570312 26.417969 C 65.796875 26.492188 66.101562 26.492188 66.253906 26.265625 C 66.40625 26.035156 66.328125 25.730469 66.101562 25.578125 C 65.570312 25.351562 65.417969 24.96875 65.570312 24.511719 Z M 57.59375 22.835938 C 58.046875 22.457031 57.363281 21.769531 56.90625 22.152344 C 56.453125 22.53125 56.148438 23.066406 56.222656 23.675781 C 56.300781 24.285156 56.757812 24.742188 57.289062 25.046875 C 57.820312 25.351562 58.277344 24.511719 57.742188 24.207031 L 57.667969 24.207031 C 57.441406 24.054688 57.210938 23.902344 57.136719 23.597656 C 57.136719 23.21875 57.363281 22.988281 57.59375 22.835938 Z M 60.175781 15.601562 C 60.707031 15.21875 60.25 14.382812 59.71875 14.761719 C 59.261719 15.066406 58.882812 15.523438 58.808594 16.132812 C 58.730469 16.742188 59.035156 17.199219 59.414062 17.65625 C 59.871094 18.113281 60.554688 17.429688 60.097656 16.972656 C 59.796875 16.4375 59.71875 15.980469 60.175781 15.601562 Z M 60.175781 15.601562 " fill-opacity="1" fill-rule="evenodd"/></g><path fill="#000000" d="M 103.472656 64.359375 C 103.699219 63.902344 104.308594 63.523438 104.839844 63.597656 C 107.195312 63.902344 107.121094 66.722656 106.285156 68.324219 C 105.523438 69.769531 103.851562 70.609375 102.179688 70.53125 C 100.433594 70.378906 98.992188 69.390625 98.304688 67.789062 C 97.851562 66.722656 97.699219 64.742188 98.839844 63.980469 C 98.839844 63.980469 98.914062 63.980469 98.914062 63.980469 C 99.445312 64.589844 99.445312 65.578125 99.976562 66.265625 C 100.359375 66.949219 101.117188 67.484375 101.878906 67.5625 C 102.484375 67.636719 103.09375 67.410156 103.320312 66.875 C 103.472656 66.570312 103.472656 66.417969 103.398438 66.265625 L 103.398438 66.035156 C 103.246094 65.425781 103.167969 64.96875 103.472656 64.359375 Z M 104.15625 51.945312 C 105.371094 52.707031 107.195312 54.382812 105.902344 56.210938 C 104.382812 57.808594 102.179688 55.980469 101.042969 55.144531 C 100.054688 54.457031 98.914062 56.132812 99.824219 56.894531 C 107.726562 62.835938 110.917969 52.171875 104.765625 51.105469 C 104.082031 50.953125 103.777344 51.714844 104.15625 51.945312 Z M 91.316406 46.917969 C 92.078125 45.773438 93.75 45.925781 94.203125 47.296875 C 94.433594 47.984375 94.128906 48.667969 94.128906 49.355469 C 94.128906 49.964844 94.128906 50.648438 93.898438 51.257812 C 93.445312 52.628906 92.304688 53.542969 90.859375 53.542969 C 89.417969 53.46875 88.203125 52.628906 87.59375 51.335938 C 86.988281 50.039062 87.136719 48.746094 87.59375 47.449219 C 87.59375 47.375 87.671875 47.375 87.746094 47.375 C 88.277344 47.90625 88.65625 48.515625 89.039062 49.125 L 89.417969 49.734375 C 89.722656 50.191406 90.175781 50.800781 90.710938 50.800781 L 90.785156 50.800781 C 90.9375 50.800781 90.9375 50.800781 91.011719 50.574219 C 91.089844 50.496094 91.089844 50.269531 91.089844 50.191406 L 91.089844 50.117188 C 91.089844 50.039062 91.089844 49.964844 91.089844 49.734375 L 91.089844 49.660156 C 91.011719 48.820312 90.785156 47.679688 91.316406 46.917969 Z M 110.160156 47.679688 C 110.007812 46.230469 112.058594 45.925781 112.664062 46.992188 C 113.046875 47.527344 113.121094 48.210938 113.199219 48.898438 L 113.199219 49.203125 C 113.273438 49.886719 113.273438 50.574219 113.046875 51.183594 C 112.589844 52.171875 111.601562 52.707031 110.539062 52.628906 C 109.476562 52.554688 108.5625 51.945312 108.105469 51.03125 C 107.652344 50.191406 107.195312 48.667969 107.726562 47.753906 C 107.726562 47.679688 107.804688 47.679688 107.878906 47.753906 C 108.410156 48.210938 108.488281 49.050781 108.789062 49.582031 C 109.09375 50.191406 109.550781 50.800781 110.308594 50.878906 C 110.992188 50.953125 111.222656 50.574219 111.070312 49.964844 C 110.84375 49.125 110.234375 48.59375 110.160156 47.679688 Z M 91.847656 38.386719 L 92.152344 38.234375 C 93.292969 37.777344 94.8125 37.320312 95.722656 38.234375 C 96.253906 38.765625 96.40625 39.605469 96.027344 40.289062 C 95.570312 41.128906 94.660156 41.128906 93.824219 41.28125 C 92.835938 41.433594 91.847656 41.660156 91.011719 42.042969 C 90.027344 42.5 89.039062 43.03125 88.125 43.566406 C 87.289062 44.097656 86.378906 45.089844 85.316406 45.242188 C 85.238281 45.242188 85.238281 45.242188 85.238281 45.164062 C 85.011719 44.175781 85.695312 43.109375 86.226562 42.347656 C 86.910156 41.355469 87.824219 40.59375 88.734375 39.910156 C 89.722656 39.300781 90.785156 38.765625 91.847656 38.386719 Z M 112.285156 42.042969 L 112.363281 42.042969 C 113.046875 41.964844 113.652344 41.964844 114.183594 42.5 C 114.566406 42.878906 114.71875 43.414062 114.566406 44.023438 C 114.414062 44.554688 114.03125 45.011719 113.425781 45.164062 C 111.527344 45.546875 109.476562 45.46875 107.574219 45.164062 C 106.738281 45.011719 105.828125 44.859375 104.992188 44.632812 L 104.613281 44.554688 C 103.929688 44.328125 103.09375 44.175781 102.5625 43.640625 C 102.410156 43.488281 102.484375 43.183594 102.714844 43.109375 C 103.625 42.726562 104.839844 42.957031 105.828125 42.878906 C 106.96875 42.878906 108.03125 42.726562 109.171875 42.652344 C 110.160156 42.5 111.222656 42.195312 112.285156 42.042969 Z M 112.285156 42.042969 " fill-opacity="1" fill-rule="evenodd"/><path fill="#000000" d="M 89.792969 68.496094 C 91.085938 65.449219 93.894531 63.164062 97.164062 62.402344 C 99.59375 61.792969 102.101562 61.792969 104.53125 62.019531 C 105.824219 62.171875 107.191406 62.25 108.40625 62.707031 C 109.46875 63.085938 110.304688 63.847656 110.914062 64.761719 C 111.671875 65.828125 112.207031 67.046875 112.507812 68.34375 C 112.585938 68.496094 112.585938 68.722656 112.660156 68.875 C 112.507812 69.789062 112.207031 70.628906 111.292969 71.238281 C 110.457031 71.847656 109.394531 72.074219 108.40625 72.152344 C 108.332031 72.074219 108.179688 72.074219 108.101562 72 C 106.507812 71.085938 105.367188 68.953125 103.390625 69.257812 C 101.644531 69.484375 100.429688 71.769531 99.367188 73.066406 C 95.945312 73.445312 92.527344 72.457031 89.792969 70.476562 C 89.71875 69.867188 89.71875 69.179688 89.792969 68.496094 M 115.015625 66.210938 C 114.710938 65.449219 114.410156 64.6875 114.027344 64 C 112.660156 61.714844 110.609375 59.808594 108.179688 58.820312 C 102.40625 56.304688 94.882812 58.058594 90.171875 62.171875 C 88.578125 63.542969 86.980469 65.601562 86.449219 67.808594 C 86.296875 67.808594 86.144531 67.886719 86.070312 68.039062 C 82.652344 65.90625 79.234375 63.847656 76.496094 60.878906 C 74.523438 58.742188 73.15625 56.152344 72.320312 53.410156 C 72.242188 53.183594 71.863281 53.183594 71.863281 53.488281 C 71.863281 53.5625 71.863281 53.640625 71.863281 53.640625 C 71.863281 53.5625 71.636719 53.5625 71.636719 53.714844 C 71.179688 57.144531 70.648438 60.726562 71.105469 64.152344 C 71.40625 66.210938 72.320312 67.65625 73.609375 69.332031 C 74.902344 71.085938 76.421875 72.683594 77.941406 74.207031 C 78.929688 75.199219 79.917969 76.339844 81.132812 77.027344 C 82.5 77.863281 84.09375 78.472656 85.539062 79.160156 C 87.058594 79.84375 88.578125 80.453125 90.097656 80.910156 C 93.210938 81.824219 96.480469 82.585938 99.746094 82.890625 C 102.328125 83.121094 105.367188 83.425781 107.875 82.433594 C 109.773438 81.671875 111.292969 80.300781 112.507812 78.703125 C 113.875 76.875 114.941406 74.894531 115.472656 72.683594 C 116.15625 70.476562 115.167969 66.589844 115.015625 66.210938 " fill-opacity="1" fill-rule="evenodd"/></svg>