<svg xmlns="http://www.w3.org/2000/svg" xmlns:xlink="http://www.w3.org/1999/xlink" width="255" zoomAndPan="magnify" viewBox="0 0 191.25 195.749994" height="261" preserveAspectRatio="xMidYMid meet" version="1.0"><defs><clipPath id="287d2bb123"><path d="M 0 21.039062 L 176.652344 21.039062 L 176.652344 194.972656 L 0 194.972656 Z M 0 21.039062 " clip-rule="nonzero"/></clipPath><clipPath id="a2c5870bef"><path d="M 18.675781 21.039062 L 157.714844 21.039062 C 168.027344 21.039062 176.390625 29.402344 176.390625 39.714844 L 176.390625 176.296875 C 176.390625 186.609375 168.027344 194.972656 157.714844 194.972656 L 18.675781 194.972656 C 8.363281 194.972656 0 186.609375 0 176.296875 L 0 39.714844 C 0 29.402344 8.363281 21.039062 18.675781 21.039062 Z M 18.675781 21.039062 " clip-rule="nonzero"/></clipPath><clipPath id="047afc177a"><path d="M 0 21.042969 L 176.308594 21.042969 L 176.308594 195 L 0 195 Z M 0 21.042969 " clip-rule="nonzero"/></clipPath><clipPath id="9cbde3abb8"><path d="M 18.675781 21.042969 L 157.703125 21.042969 C 168.015625 21.042969 176.378906 29.402344 176.378906 39.71875 L 176.378906 176.289062 C 176.378906 186.601562 168.015625 194.964844 157.703125 194.964844 L 18.675781 194.964844 C 8.363281 194.964844 0 186.601562 0 176.289062 L 0 39.71875 C 0 29.402344 8.363281 21.042969 18.675781 21.042969 Z M 18.675781 21.042969 " clip-rule="nonzero"/></clipPath><clipPath id="93ae4e3829"><path d="M 3 118 L 188 118 L 188 194.96875 L 3 194.96875 Z M 3 118 " clip-rule="nonzero"/></clipPath><clipPath id="9e914b016c"><path d="M 2 122 L 190.074219 122 L 190.074219 194.96875 L 2 194.96875 Z M 2 122 " clip-rule="nonzero"/></clipPath><clipPath id="626af569ce"><path d="M 60 45.554688 L 125 45.554688 L 125 129 L 60 129 Z M 60 45.554688 " clip-rule="nonzero"/></clipPath><clipPath id="d835327920"><path d="M 118 0.257812 L 164.28125 0.257812 L 164.28125 42 L 118 42 Z M 118 0.257812 " clip-rule="nonzero"/></clipPath></defs><g clip-path="url(#287d2bb123)"><g clip-path="url(#a2c5870bef)"><path fill="#ffc55a" d="M 0 21.039062 L 176.652344 21.039062 L 176.652344 194.972656 L 0 194.972656 Z M 0 21.039062 " fill-opacity="1" fill-rule="nonzero"/></g></g><g clip-path="url(#047afc177a)"><g clip-path="url(#9cbde3abb8)"><path stroke-linecap="butt" transform="matrix(0.74707, 0, 0, 0.74707, 0.000000000000021233, 21.041325)" fill="none" stroke-linejoin="miter" d="M 24.998694 0.00220052 L 211.095434 0.00220052 C 224.899356 0.00220052 236.094127 11.191743 236.094127 25.000894 L 236.094127 207.808745 C 236.094127 221.612667 224.899356 232.807439 211.095434 232.807439 L 24.998694 232.807439 C 11.194772 232.807439 -0.000000000000028422 221.612667 -0.000000000000028422 207.808745 L -0.000000000000028422 25.000894 C -0.000000000000028422 11.191743 11.194772 0.00220052 24.998694 0.00220052 Z M 24.998694 0.00220052 " stroke="#000000" stroke-width="2" stroke-opacity="1" stroke-miterlimit="4"/></g></g><g clip-path="url(#93ae4e3829)"><path fill="#ffffff" d="M 180.972656 167.335938 C 182.652344 166.5 184.25 165.511719 185.851562 164.597656 C 186.996094 163.914062 186.003906 162.242188 184.859375 162.851562 C 184.25 163.152344 183.71875 163.457031 183.109375 163.761719 C 183.566406 163.382812 184.023438 162.925781 184.402344 162.46875 C 185.851562 161.175781 183.945312 158.667969 182.269531 159.730469 C 180.820312 160.796875 179.296875 161.859375 177.621094 162.621094 C 174.113281 164.140625 170.226562 164.371094 166.414062 164.371094 C 165.042969 164.292969 163.746094 164.523438 162.375 164.75 C 162.90625 162.621094 164.203125 161.023438 164.890625 159.046875 C 165.421875 156.996094 162.449219 155.550781 161.382812 157.601562 C 161.152344 158.058594 160.847656 158.589844 160.621094 159.046875 C 158.332031 161.101562 154.523438 160.949219 152.234375 163.152344 C 150.9375 164.292969 150.253906 165.890625 150.023438 167.488281 C 149.871094 168.550781 150.101562 169.617188 149.492188 170.605469 C 146.367188 175.015625 141.410156 182.085938 138.894531 186.953125 C 137.140625 175.320312 132.339844 161.023438 127.382812 150.378906 C 125.785156 146.957031 123.878906 143.6875 121.4375 140.796875 C 121.742188 139.808594 120.753906 138.136719 120.144531 138.667969 C 118.238281 136.3125 114.808594 135.703125 112.140625 134.5625 C 108.480469 132.964844 105.429688 129.695312 103.90625 126.046875 C 102 118.972656 97.273438 118.0625 90.640625 118.441406 C 84.316406 118.441406 79.664062 121.105469 78.292969 127.492188 C 75.472656 132.359375 68.917969 131.519531 64.191406 132.8125 C 60.683594 133.574219 57.332031 134.867188 54.128906 136.386719 C 50.546875 133.042969 37.816406 147.183594 36.671875 150.835938 C 37.359375 150.988281 38.042969 151.140625 38.730469 151.292969 C 39.1875 151.367188 38.882812 152.28125 38.351562 152.128906 C 37.585938 151.976562 36.824219 151.824219 36.0625 151.746094 C 36.0625 151.824219 35.988281 151.898438 35.988281 151.976562 C 35.910156 151.976562 35.835938 151.976562 35.757812 151.976562 C 35.910156 152.050781 36.140625 152.203125 36.292969 152.355469 C 36.75 152.734375 36.140625 153.421875 35.683594 153.117188 C 35.222656 152.8125 34.691406 152.8125 34.15625 152.734375 C 34.15625 153.800781 30.347656 152.585938 29.734375 152.28125 C 27.144531 151.976562 24.476562 152.28125 22.035156 151.0625 C 18.757812 150.378906 15.558594 149.617188 12.355469 148.78125 C 11.515625 149.085938 10.679688 150.304688 11.363281 151.140625 C 11.746094 151.519531 11.289062 152.203125 10.753906 151.898438 C 9.152344 150.988281 7.933594 149.464844 6.867188 147.945312 C 6.410156 147.414062 5.496094 147.566406 4.808594 147.335938 C 4.734375 147.488281 4.65625 147.640625 4.65625 147.871094 C 1.835938 148.324219 3.816406 151.367188 5.265625 152.355469 C 4.503906 152.8125 4.503906 153.800781 4.582031 154.5625 C 4.429688 154.789062 4.429688 155.09375 4.582031 155.472656 C 5.113281 156.691406 6.257812 157.679688 7.097656 158.667969 C 8.085938 159.730469 8.925781 160.871094 10.070312 161.710938 C 14.488281 165.128906 19.902344 167.03125 25.46875 167.714844 C 27.449219 168.019531 30.269531 168.476562 31.488281 170.148438 C 31.183594 172.125 30.652344 174.027344 30.117188 175.929688 C 29.429688 178.4375 29.507812 181.097656 29.429688 183.683594 C 29.355469 183.609375 29.125 183.609375 29.125 183.761719 C 28.972656 184.824219 28.820312 185.964844 28.210938 186.800781 C 27.601562 188.476562 27.21875 190.300781 27.066406 192.050781 C 26.230469 200.414062 26 209.007812 27.90625 217.21875 C 28.667969 220.261719 29.886719 223.148438 31.488281 225.8125 C 31.945312 226.570312 32.785156 226.875 33.472656 226.648438 C 35.835938 227.863281 38.882812 228.242188 41.398438 227.941406 C 50.164062 225.429688 47.117188 231.4375 59.390625 229.613281 C 80.582031 226.953125 102 232.199219 123.191406 229.082031 C 123.726562 233.109375 130.511719 231.96875 132.875 230.222656 C 139.960938 224.972656 143.546875 208.246094 147.050781 199.804688 C 149.492188 193.113281 153.605469 181.328125 159.019531 176.839844 C 160.621094 175.546875 162.601562 174.941406 164.507812 174.40625 C 171.75 172.507812 179.066406 170.757812 186.386719 168.933594 C 187.605469 168.628906 187.375 166.5 186.082031 166.652344 C 184.480469 167.03125 182.726562 167.183594 180.972656 167.335938 Z M 180.972656 167.335938 " fill-opacity="1" fill-rule="evenodd"/></g><g clip-path="url(#9e914b016c)"><path fill="#000000" d="M 18.910156 166.121094 C 18.453125 166.042969 17.921875 165.890625 17.464844 165.738281 C 16.699219 165.511719 16.015625 165.28125 15.328125 164.980469 C 13.878906 164.371094 12.433594 163.6875 11.136719 162.851562 C 9 161.480469 7.097656 159.730469 5.648438 157.601562 L 5.570312 157.449219 C 4.734375 156.234375 3.285156 153.421875 4.960938 152.507812 C 3.894531 151.59375 2.828125 150 2.902344 148.707031 C 2.980469 146.957031 5.191406 146.957031 6.332031 147.71875 C 7.097656 148.175781 7.628906 148.933594 8.164062 149.617188 C 8.773438 150.378906 9.460938 151.0625 10.144531 151.824219 C 10.296875 151.976562 10.527344 152.203125 10.679688 152.355469 L 10.832031 152.507812 C 10.832031 152.433594 10.753906 152.355469 10.753906 152.28125 C 10.375 151.140625 10.832031 149.617188 11.976562 149.011719 C 12.660156 148.707031 13.421875 148.859375 14.109375 149.164062 L 14.183594 149.238281 C 15.101562 149.617188 16.089844 150 17.082031 150.226562 C 21.046875 151.367188 25.238281 151.59375 29.277344 152.128906 C 30.878906 152.355469 32.480469 152.585938 34.003906 153.039062 C 34.613281 150.53125 36.0625 148.097656 37.664062 146.121094 C 45.285156 136.539062 57.789062 133.421875 69.222656 131.367188 C 70.289062 131.21875 71.128906 132.585938 71.738281 132.207031 C 72.882812 131.597656 73.871094 130.683594 74.785156 129.773438 C 76.691406 127.71875 78.066406 125.363281 79.589844 123.082031 C 80.351562 121.941406 82.179688 122.929688 81.417969 124.144531 L 81.039062 124.753906 C 79.589844 127.1875 77.988281 129.621094 75.855469 131.445312 C 74.710938 132.433594 73.492188 133.195312 72.117188 133.726562 C 71.050781 134.105469 69.527344 134.410156 68.382812 134.03125 L 68.308594 133.878906 C 68.382812 133.953125 68.382812 134.03125 68.460938 134.105469 C 71.507812 138.515625 75.320312 142.242188 79.359375 145.816406 C 83.476562 149.390625 87.820312 152.585938 92.242188 155.703125 L 92.625 155.929688 C 99.867188 150.683594 105.964844 143.839844 110.234375 136.007812 C 109.320312 135.929688 108.480469 135.324219 107.71875 134.867188 C 106.804688 134.335938 105.964844 133.726562 105.277344 132.890625 C 103.832031 131.066406 103.984375 128.785156 103.753906 126.578125 C 103.753906 126.425781 103.90625 126.425781 103.984375 126.503906 C 104.746094 127.1875 105.050781 128.25 105.429688 129.164062 C 105.8125 130.226562 106.191406 131.066406 107.03125 131.75 C 107.792969 132.433594 108.785156 132.890625 109.699219 133.347656 C 110.15625 133.574219 112.519531 134.183594 112.824219 134.640625 C 116.941406 133.648438 120.90625 135.324219 123.953125 138.136719 C 126.925781 140.875 129.0625 144.371094 130.96875 147.871094 C 133.027344 151.59375 134.703125 155.472656 136.074219 159.429688 C 137.523438 163.457031 138.667969 167.5625 139.277344 171.824219 C 139.808594 175.394531 140.113281 179.046875 140.34375 182.695312 L 140.34375 183.152344 C 143.394531 178.363281 146.519531 173.648438 149.644531 169.007812 C 148.957031 167.109375 149.71875 165.128906 151.09375 163.609375 C 152.617188 161.9375 154.675781 161.175781 156.65625 160.339844 L 156.886719 160.1875 C 157.875 159.730469 158.789062 159.277344 159.628906 158.589844 C 160.390625 157.984375 161 157.070312 161.839844 156.539062 C 163.058594 155.703125 165.269531 155.855469 165.347656 157.753906 C 165.347656 158.742188 164.964844 159.882812 164.507812 160.796875 C 164.050781 161.859375 163.441406 162.773438 162.753906 163.609375 C 162.753906 163.6875 162.679688 163.6875 162.679688 163.6875 C 163.667969 163.839844 164.660156 163.988281 165.726562 164.066406 C 167.785156 164.140625 169.921875 163.988281 171.902344 163.535156 C 173.960938 163.078125 176.019531 162.394531 177.847656 161.328125 C 179.449219 160.492188 180.898438 159.351562 182.726562 159.046875 C 182.878906 159.046875 183.03125 158.972656 183.261719 158.972656 C 183.566406 158.972656 183.871094 159.277344 183.71875 159.578125 C 183.640625 159.730469 183.566406 159.882812 183.488281 160.035156 C 182.878906 161.40625 181.886719 162.773438 180.667969 163.761719 L 180.59375 163.839844 C 181.050781 163.6875 181.429688 163.535156 181.8125 163.304688 C 184.25 162.242188 186.386719 160.570312 188.976562 159.960938 C 189.128906 159.960938 189.207031 159.882812 189.359375 159.882812 C 190.195312 159.730469 190.578125 160.570312 190.121094 161.175781 C 190.042969 161.253906 189.96875 161.40625 189.890625 161.480469 C 188.75 162.925781 187.453125 164.21875 186.082031 165.433594 C 185.625 165.816406 185.089844 166.269531 184.632812 166.652344 C 184.402344 166.804688 184.175781 166.957031 184.023438 167.109375 L 183.945312 167.183594 C 184.175781 167.03125 184.480469 166.804688 184.707031 166.652344 C 186.308594 166.195312 187.832031 165.585938 189.359375 164.980469 C 189.96875 164.75 190.425781 165.359375 190.503906 165.816406 C 190.730469 167.488281 188.824219 168.703125 187.605469 169.542969 C 186.386719 170.378906 185.011719 170.984375 183.640625 171.441406 C 180.972656 172.429688 178.152344 172.8125 175.410156 173.191406 L 174.035156 173.34375 C 168.699219 174.105469 163.058594 175.015625 159.25 179.121094 C 157.113281 181.480469 155.664062 184.367188 154.292969 187.183594 C 152.996094 189.996094 151.777344 192.960938 150.710938 195.925781 C 149.566406 198.96875 148.578125 202.085938 147.507812 205.128906 C 146.519531 207.941406 145.375 210.753906 144.230469 213.492188 L 144.078125 213.949219 C 141.640625 219.804688 138.667969 225.355469 134.625 230.222656 C 133.941406 231.058594 132.875 229.917969 133.484375 229.082031 C 137.75 223.605469 140.726562 217.066406 143.242188 210.601562 C 144.382812 207.636719 145.296875 204.59375 146.367188 201.628906 L 146.976562 199.882812 C 147.8125 197.523438 148.730469 195.167969 149.566406 192.886719 C 150.710938 189.917969 151.929688 187.03125 153.378906 184.21875 L 153.53125 183.914062 C 154.902344 181.175781 156.582031 178.515625 158.867188 176.460938 C 162.984375 172.734375 168.472656 171.898438 173.808594 171.136719 L 175.484375 170.910156 C 177.695312 170.605469 179.984375 170.300781 182.191406 169.691406 C 183.488281 169.3125 184.707031 168.933594 185.851562 168.324219 C 186.308594 168.097656 186.765625 167.792969 187.222656 167.5625 C 186.003906 167.945312 184.707031 168.25 183.414062 168.476562 C 182.804688 168.628906 182.191406 168.703125 181.582031 168.703125 C 179.984375 168.855469 178.382812 168.855469 176.78125 168.78125 C 176.628906 168.78125 176.628906 168.550781 176.78125 168.550781 C 177.925781 168.324219 179.066406 168.097656 180.210938 167.792969 L 180.515625 167.714844 C 180.515625 167.5625 180.59375 167.335938 180.746094 167.109375 C 181.277344 166.421875 182.34375 166.042969 183.109375 165.585938 C 183.871094 165.054688 184.632812 164.523438 185.394531 163.914062 C 186.082031 163.382812 186.691406 162.847656 187.300781 162.242188 L 187.453125 162.089844 C 187.375 162.164062 187.300781 162.242188 187.300781 162.242188 C 185.625 163 184.097656 163.988281 182.421875 164.597656 C 181.050781 165.054688 179.601562 165.433594 178.230469 165.511719 L 178.078125 165.511719 C 176.550781 165.585938 175.027344 165.585938 173.578125 165.890625 C 173.425781 165.890625 173.351562 165.738281 173.503906 165.664062 C 174.800781 165.128906 176.171875 164.902344 177.46875 164.675781 C 177.46875 164.597656 177.542969 164.445312 177.695312 164.445312 L 178.078125 164.292969 C 179.144531 163.761719 180.058594 163.304688 180.972656 162.46875 C 181.734375 161.785156 182.34375 160.949219 182.878906 160.035156 C 180.972656 160.417969 179.296875 161.859375 177.542969 162.699219 C 175.636719 163.609375 173.65625 164.21875 171.597656 164.597656 L 171.367188 164.675781 C 167.558594 165.28125 162.90625 165.207031 159.476562 163.230469 C 159.402344 163.152344 159.476562 163 159.554688 163 C 160.542969 163.152344 161.457031 163.382812 162.449219 163.535156 C 162.296875 163.382812 162.144531 163.078125 162.375 162.773438 C 163.210938 161.785156 163.898438 160.644531 164.355469 159.429688 L 164.433594 159.199219 C 164.660156 158.589844 164.964844 157.753906 164.660156 157.222656 C 164.355469 156.765625 163.515625 156.765625 163.058594 156.996094 C 162.070312 157.449219 161.457031 158.515625 160.621094 159.199219 C 159.707031 159.882812 158.714844 160.417969 157.648438 160.949219 L 157.417969 161.023438 C 155.589844 161.859375 153.683594 162.546875 152.3125 163.914062 C 151.550781 164.675781 150.863281 165.664062 150.710938 166.726562 C 150.632812 167.183594 150.632812 167.714844 150.710938 168.25 C 150.785156 168.628906 151.015625 168.855469 150.9375 169.238281 C 150.785156 169.769531 150.175781 170.300781 149.871094 170.757812 C 149.492188 171.289062 149.1875 171.824219 148.804688 172.277344 C 148.117188 173.34375 147.433594 174.332031 146.746094 175.394531 C 145.375 177.449219 144.003906 179.578125 142.628906 181.632812 C 142.171875 182.316406 141.714844 183 141.335938 183.683594 L 140.648438 184.671875 L 140.265625 185.207031 L 139.65625 186.117188 C 139.65625 186.195312 139.65625 186.269531 139.65625 186.347656 C 139.582031 186.648438 139.351562 186.800781 139.125 186.953125 L 139.046875 186.953125 C 135.617188 192.351562 132.261719 197.828125 128.832031 203.304688 C 128.679688 204.976562 128.453125 206.648438 128.300781 208.246094 C 127.996094 211.972656 127.765625 215.773438 127.691406 219.574219 C 127.691406 221.402344 127.765625 223.226562 127.84375 225.050781 C 127.917969 225.886719 127.917969 226.800781 127.996094 227.636719 L 128.070312 228.242188 C 128.148438 229.082031 128.148438 229.917969 127.84375 230.753906 C 127.539062 231.4375 126.773438 231.589844 126.242188 231.058594 C 119.839844 230.828125 113.511719 230.601562 107.109375 230.449219 C 95.671875 230.222656 84.316406 230.296875 72.882812 230.449219 C 67.164062 230.523438 61.445312 230.753906 55.730469 230.90625 C 52.910156 230.980469 50.089844 231.132812 47.269531 231.132812 C 45.742188 231.132812 43.382812 230.601562 43.226562 228.929688 L 43.226562 228.851562 C 43.074219 228.929688 42.847656 228.929688 42.617188 229.003906 C 42.542969 229.003906 42.464844 229.003906 42.390625 229.003906 L 42.3125 229.003906 C 40.027344 229.6875 37.207031 228.699219 34.996094 228.167969 L 34.84375 228.09375 C 32.785156 227.558594 31.109375 226.800781 29.8125 225.125 C 27.449219 222.160156 26.609375 218.128906 26.230469 214.480469 C 25.847656 210.984375 25.847656 207.484375 26.304688 203.988281 C 26 201.171875 26.304688 198.285156 26.609375 195.472656 C 26.761719 194.101562 26.992188 192.734375 27.144531 191.289062 C 27.296875 190.527344 27.449219 189.769531 27.601562 189.007812 C 27.679688 188.703125 27.753906 188.398438 27.832031 188.09375 L 27.832031 187.941406 C 27.601562 187.941406 27.296875 187.941406 26.992188 187.789062 C 26.382812 187.410156 26.152344 186.726562 26.152344 186.042969 C 26.152344 183.988281 26.382812 181.859375 26.609375 179.804688 C 26.839844 177.753906 27.144531 175.699219 27.523438 173.648438 L 27.601562 173.417969 C 27.90625 171.898438 28.210938 170.300781 28.820312 168.855469 C 26.535156 168.476562 24.246094 168.097656 22.113281 167.335938 C 20.96875 167.03125 19.980469 166.652344 18.910156 166.121094 Z M 137.523438 187.636719 C 137.523438 187.636719 137.445312 187.636719 137.445312 187.636719 C 136.53125 187.867188 135.617188 188.09375 134.703125 188.324219 C 133.101562 188.703125 131.578125 189.160156 130.128906 189.84375 C 129.824219 193.722656 129.367188 197.601562 128.910156 201.476562 L 128.832031 202.238281 C 129.519531 201.023438 130.207031 199.804688 130.890625 198.589844 C 133.027344 194.9375 135.234375 191.289062 137.523438 187.636719 Z M 28.363281 188.019531 C 28.363281 188.476562 28.289062 188.929688 28.210938 189.386719 C 28.136719 190.148438 28.058594 190.910156 27.984375 191.59375 C 27.832031 193.039062 27.679688 194.480469 27.523438 195.925781 C 27.449219 196.839844 27.371094 197.753906 27.371094 198.742188 C 28.289062 195.320312 29.507812 191.972656 30.652344 188.703125 C 30.421875 188.703125 30.269531 188.628906 30.039062 188.550781 L 29.734375 188.476562 C 29.507812 188.398438 28.820312 188.246094 28.363281 188.019531 Z M 140.417969 184.902344 L 140.417969 185.054688 C 140.417969 185.585938 140.113281 185.890625 139.734375 185.964844 C 139.960938 185.585938 140.191406 185.207031 140.417969 184.902344 Z M 35.910156 159.199219 C 36.902344 159.277344 37.816406 159.503906 38.730469 159.808594 L 38.808594 159.808594 C 39.492188 160.035156 40.40625 160.417969 40.636719 161.101562 C 40.710938 161.328125 40.558594 161.480469 40.332031 161.480469 C 39.644531 161.558594 38.730469 160.796875 38.121094 160.492188 C 37.359375 160.1875 36.597656 159.960938 35.835938 159.882812 C 34.082031 159.65625 32.175781 159.808594 30.574219 160.492188 C 30.5 160.570312 30.421875 160.339844 30.5 160.339844 C 32.175781 159.503906 34.003906 159.046875 35.910156 159.199219 Z M 15.558594 163.839844 C 15.480469 163.761719 15.328125 163.609375 15.253906 163.535156 C 14.414062 162.699219 13.652344 161.785156 13.042969 160.71875 L 12.890625 160.417969 C 12.433594 159.503906 11.898438 158.289062 12.964844 157.601562 C 13.574219 157.222656 14.414062 157.296875 15.101562 157.527344 C 15.175781 157.527344 15.175781 157.527344 15.253906 157.601562 C 15.558594 157.679688 15.863281 157.832031 16.167969 157.984375 C 17.386719 158.515625 18.453125 159.351562 19.519531 160.035156 C 20.742188 160.796875 21.882812 161.328125 23.332031 161.558594 L 23.484375 161.558594 C 24.78125 161.785156 26.230469 162.011719 27.144531 163.078125 C 27.371094 163.382812 27.144531 163.839844 26.761719 163.6875 C 24.246094 162.851562 21.578125 162.621094 19.292969 161.253906 C 18.300781 160.644531 17.464844 160.035156 16.472656 159.503906 C 15.9375 159.199219 15.40625 158.972656 14.871094 158.820312 L 14.566406 158.742188 C 14.414062 158.667969 14.183594 158.667969 14.03125 158.667969 C 13.726562 158.742188 13.878906 158.894531 13.957031 159.199219 C 14.644531 161.328125 16.546875 163.078125 18.378906 164.21875 C 18.757812 164.523438 19.214844 164.75 19.671875 164.980469 C 22.570312 166.5 25.847656 167.261719 28.972656 168.097656 C 30.191406 168.402344 31.03125 168.703125 31.414062 168.78125 C 31.871094 168.703125 32.632812 168.933594 33.167969 169.238281 C 33.699219 169.542969 34.082031 169.921875 34.386719 170.300781 C 34.386719 170.300781 34.691406 170.53125 34.765625 170.910156 C 34.917969 171.289062 34.996094 171.671875 35.070312 172.050781 C 35.070312 172.277344 35.070312 172.429688 34.917969 172.582031 C 35.222656 177.601562 33.851562 182.621094 32.328125 187.410156 L 32.175781 187.867188 L 32.097656 188.171875 C 30.421875 193.265625 28.515625 198.285156 27.679688 203.605469 C 27.144531 207.179688 27.144531 210.832031 27.523438 214.40625 L 27.523438 214.632812 C 27.90625 217.980469 28.746094 221.78125 30.878906 224.441406 C 31.945312 225.8125 33.242188 226.417969 34.917969 226.875 L 34.996094 226.875 C 36.519531 227.253906 38.042969 227.863281 39.570312 228.015625 C 41.019531 228.167969 42.238281 227.636719 43.457031 227.179688 C 46.203125 224.746094 47.421875 221.25 48.335938 217.75 C 50.699219 208.625 50.394531 199.121094 49.097656 189.917969 C 48.410156 185.054688 47.421875 180.261719 46.507812 175.472656 C 46.050781 173.039062 45.515625 170.683594 45.132812 168.25 L 44.90625 166.804688 C 44.753906 166.042969 44.601562 165.207031 44.523438 164.445312 C 44.371094 163.382812 44.296875 162.316406 44.296875 161.253906 C 43 159.125 41.09375 157.296875 38.882812 156.082031 C 37.28125 155.167969 35.683594 154.5625 33.929688 154.105469 C 29.050781 152.886719 23.714844 152.964844 18.757812 151.898438 C 17.082031 151.59375 15.558594 151.0625 13.957031 150.457031 L 13.726562 150.378906 C 13.042969 150.074219 12.28125 149.921875 11.898438 150.757812 C 11.667969 151.367188 11.820312 151.976562 12.203125 152.507812 C 13.117188 153.726562 15.023438 154.332031 16.472656 154.789062 C 17.3125 155.09375 18.226562 155.246094 19.0625 155.398438 C 19.902344 155.550781 20.816406 155.625 21.65625 155.929688 C 21.960938 156.082031 22.035156 156.539062 21.65625 156.691406 C 20.589844 156.917969 19.519531 156.691406 18.453125 156.539062 C 17.3125 156.308594 16.167969 156.007812 15.023438 155.550781 C 14.796875 155.472656 14.566406 155.398438 14.414062 155.320312 L 14.261719 155.246094 C 14.414062 155.398438 14.566406 155.472656 14.796875 155.625 C 14.871094 155.625 14.796875 155.777344 14.71875 155.703125 C 12.128906 154.714844 9.6875 152.964844 7.859375 150.835938 L 7.78125 150.757812 C 7.097656 150 5.648438 147.792969 4.429688 148.402344 C 3.285156 149.011719 5.265625 151.292969 6.027344 152.203125 L 6.105469 152.28125 C 6.945312 152.28125 7.78125 152.8125 8.542969 153.269531 C 9.765625 154.027344 11.058594 154.636719 12.355469 155.246094 C 14.949219 156.460938 17.691406 157.296875 20.207031 158.589844 C 20.207031 158.589844 20.207031 158.667969 20.207031 158.667969 C 18.605469 158.4375 17.003906 157.984375 15.40625 157.449219 L 15.253906 157.449219 C 14.261719 157.148438 13.269531 156.765625 12.355469 156.386719 C 11.289062 155.929688 10.296875 155.472656 9.230469 154.941406 C 8.316406 154.410156 7.324219 153.574219 6.257812 153.421875 C 6.179688 153.421875 6.027344 153.421875 5.953125 153.421875 C 4.734375 153.496094 5.722656 155.550781 6.105469 156.082031 C 6.636719 157.070312 7.324219 157.984375 8.085938 158.820312 C 9.613281 160.492188 11.515625 161.859375 13.574219 162.851562 C 14.109375 163.230469 14.796875 163.535156 15.558594 163.839844 Z M 15.558594 163.839844 " fill-opacity="1" fill-rule="evenodd"/></g><path fill="#ffffff" d="M 115.976562 72.429688 C 114.835938 68.324219 114.988281 67.867188 113.308594 63.988281 C 107.667969 52.585938 70.011719 56.460938 66.199219 67.792969 C 64.066406 73.953125 64.523438 82.621094 63.988281 87.941406 C 63.835938 90.757812 63.683594 93.570312 63.53125 96.460938 C 63.457031 97.449219 63.378906 98.4375 63.378906 99.425781 C 63.226562 101.324219 63.152344 103.226562 63.074219 105.128906 C 62.390625 110.984375 65.285156 111.589844 70.394531 111.4375 C 71.765625 114.632812 73.898438 117.371094 76.566406 119.574219 C 75.957031 121.324219 78.246094 122.238281 79.539062 122.921875 C 86.402344 126.722656 94.863281 129.082031 102.484375 126.949219 C 104.695312 126.34375 113.996094 124.136719 116.816406 117.292969 C 118.1875 113.949219 121.085938 96.6875 117.273438 81.175781 Z M 115.976562 72.429688 " fill-opacity="1" fill-rule="evenodd"/><g clip-path="url(#626af569ce)"><path fill="#000000" d="M 91.890625 45.742188 C 92.957031 45.589844 94.175781 45.589844 94.785156 46.652344 C 94.9375 46.882812 95.015625 47.109375 95.015625 47.335938 C 97.910156 46.652344 100.960938 46.578125 103.933594 47.03125 C 104.847656 47.183594 105.152344 48.324219 104.773438 49.011719 C 104.695312 49.085938 104.695312 49.164062 104.621094 49.238281 C 105.535156 49.3125 106.449219 49.464844 107.363281 49.695312 C 108.050781 49.847656 108.660156 50.683594 108.355469 51.445312 C 108.355469 51.519531 108.277344 51.59375 108.277344 51.59375 C 109.726562 51.824219 111.097656 52.433594 112.320312 53.34375 C 112.472656 53.421875 112.625 53.574219 112.699219 53.722656 C 115.367188 53.421875 118.1875 53.953125 120.628906 55.246094 C 121.3125 55.625 121.617188 56.691406 121.160156 57.296875 C 121.007812 57.527344 120.855469 57.679688 120.703125 57.90625 C 121.769531 58.285156 122.6875 58.894531 123.296875 59.960938 C 123.980469 61.101562 124.210938 62.46875 123.828125 63.6875 C 124.589844 64.445312 124.972656 65.664062 124.746094 66.878906 C 124.515625 67.945312 123.828125 68.628906 122.992188 69.085938 C 123.144531 69.617188 122.992188 70.226562 122.609375 70.605469 C 122 71.214844 121.3125 71.746094 120.476562 72.050781 C 120.476562 72.277344 120.398438 72.429688 120.324219 72.660156 C 119.636719 74.027344 118.113281 74.941406 116.511719 75.09375 C 117.046875 77.296875 117.503906 79.503906 117.882812 81.707031 C 118.644531 85.660156 119.179688 89.617188 119.5625 93.644531 L 119.636719 94.101562 C 120.246094 100.871094 120.324219 107.941406 118.949219 114.632812 C 118.035156 118.890625 115.445312 122.464844 111.863281 124.898438 C 108.277344 127.332031 103.859375 128.625 99.511719 128.777344 C 97.300781 128.851562 95.089844 128.699219 92.878906 128.242188 C 91.8125 128.015625 90.824219 127.710938 89.90625 127.332031 C 88.839844 126.875 88.003906 126.265625 87.085938 125.582031 C 86.628906 125.203125 86.859375 124.367188 87.46875 124.289062 C 87.847656 124.214844 88.230469 124.136719 88.613281 124.0625 C 88.992188 123.984375 89.375 124.367188 89.296875 124.671875 L 90.058594 124.898438 C 90.289062 124.972656 90.59375 125.050781 90.824219 125.125 L 91.203125 125.203125 C 92.269531 125.507812 93.339844 125.734375 94.480469 125.960938 C 96.691406 126.34375 99.054688 126.34375 101.265625 126.039062 C 105 125.582031 108.886719 124.214844 111.785156 121.78125 C 113.234375 120.5625 114.453125 119.117188 115.292969 117.445312 C 116.359375 115.316406 116.738281 112.960938 116.96875 110.601562 C 117.730469 103.835938 117.503906 97.066406 116.894531 90.300781 C 116.585938 86.953125 116.128906 83.53125 115.75 80.1875 C 115.519531 78.4375 115.292969 76.765625 115.0625 75.015625 C 114.605469 74.863281 114.148438 74.710938 113.765625 74.40625 C 113.539062 74.179688 113.386719 73.953125 113.308594 73.722656 C 112.929688 73.648438 112.546875 73.417969 112.242188 73.039062 L 112.242188 72.960938 C 111.554688 71.898438 110.261719 71.367188 109.117188 70.910156 C 108.429688 70.679688 107.746094 70.453125 106.984375 70.226562 C 106.21875 69.996094 105.457031 69.617188 104.695312 69.539062 C 103.859375 69.464844 102.941406 69.691406 102.105469 69.617188 C 101.34375 69.539062 100.578125 69.238281 100.046875 68.703125 C 99.816406 68.476562 99.664062 68.25 99.511719 68.019531 C 96.84375 68.628906 94.023438 67.867188 91.203125 68.019531 C 89.375 68.171875 87.773438 69.238281 85.867188 69.238281 C 85.332031 69.238281 84.875 69.085938 84.496094 68.703125 C 82.742188 69.007812 80.988281 69.691406 79.3125 70.226562 C 77.710938 70.757812 76.109375 71.519531 74.507812 72.125 C 74.28125 72.8125 73.671875 73.113281 72.984375 72.960938 C 70.773438 72.582031 68.945312 71.214844 66.886719 70.679688 C 66.351562 72.8125 65.742188 74.863281 65.285156 77.070312 C 64.828125 79.273438 64.523438 81.480469 64.371094 83.683594 C 64.140625 85.890625 64.066406 88.171875 64.066406 90.375 C 64.066406 91.515625 64.066406 92.65625 64.140625 93.796875 C 64.140625 94.785156 64.371094 95.925781 63.988281 96.839844 L 63.988281 96.914062 C 63.914062 97.066406 63.761719 97.144531 63.683594 96.992188 C 63 96.230469 62.847656 95.015625 62.695312 94.101562 C 62.464844 92.960938 62.3125 91.820312 62.238281 90.605469 C 61.933594 88.324219 61.855469 85.964844 62.007812 83.609375 C 62.238281 79.046875 63 74.179688 64.601562 69.769531 C 64.140625 69.84375 63.914062 69.085938 63.835938 68.703125 C 63.761719 67.867188 63.914062 67.03125 64.066406 66.195312 L 64.140625 65.433594 C 64.292969 64.675781 64.449219 63.839844 64.675781 63.078125 C 65.363281 61.253906 66.277344 59.503906 67.421875 57.90625 C 69.785156 54.714844 73.0625 52.203125 76.871094 50.835938 C 77.101562 50.757812 77.328125 50.757812 77.558594 50.835938 C 80.988281 49.011719 84.648438 47.566406 88.382812 46.578125 C 89.527344 46.195312 90.671875 45.890625 91.890625 45.742188 Z M 63.53125 97.523438 C 65.058594 96.535156 68.257812 96.308594 69.171875 98.359375 C 69.171875 98.4375 69.097656 98.511719 69.019531 98.511719 L 68.792969 98.4375 C 67.953125 98.207031 67.269531 98.132812 66.429688 98.4375 C 65.667969 98.742188 64.980469 99.195312 64.523438 99.804688 C 63.378906 101.324219 63.226562 103.300781 63.378906 105.128906 L 63.378906 105.203125 C 63.457031 106.875 63.835938 108.777344 65.4375 109.539062 C 66.199219 109.917969 67.117188 109.917969 67.953125 109.917969 C 68.945312 109.917969 69.9375 109.996094 70.851562 110.296875 C 71.382812 110.449219 71.613281 111.136719 71.15625 111.589844 C 71.003906 111.742188 70.851562 111.820312 70.699219 111.972656 C 71.15625 112.503906 71.613281 112.960938 72.070312 113.492188 C 72.832031 114.40625 73.671875 115.242188 74.507812 116.078125 C 75.347656 116.914062 76.1875 117.675781 77.101562 118.359375 C 78.09375 119.042969 79.234375 119.574219 80.074219 120.410156 C 80.609375 120.945312 80.53125 121.78125 80.074219 122.3125 C 78.929688 123.679688 77.023438 122.238281 75.882812 121.398438 L 75.730469 121.324219 C 74.585938 120.488281 73.519531 119.574219 72.605469 118.433594 C 71.6875 117.292969 70.851562 116.152344 70.242188 114.859375 C 69.859375 114.101562 69.632812 113.339844 69.554688 112.578125 C 67.574219 113.417969 65.132812 113.1875 63.378906 111.972656 C 61.167969 110.375 60.484375 107.410156 60.484375 104.746094 L 60.484375 104.59375 C 60.484375 102.011719 61.167969 98.96875 63.53125 97.523438 Z M 67.953125 101.25 C 68.867188 101.25 69.632812 101.554688 70.394531 102.011719 L 70.46875 102.085938 C 71.15625 102.542969 72.222656 102.847656 72.605469 103.605469 C 72.832031 104.0625 72.832031 104.59375 72.453125 105.050781 C 71.765625 105.734375 70.699219 105.660156 69.859375 105.128906 C 69.25 104.671875 68.867188 104.0625 68.335938 103.683594 C 67.269531 102.847656 65.589844 102.921875 64.523438 103.605469 C 64.371094 103.605469 64.292969 103.53125 64.371094 103.453125 C 65.058594 102.085938 66.351562 101.25 67.953125 101.25 Z M 67.953125 101.25 " fill-opacity="1" fill-rule="evenodd"/></g><path fill="#000000" d="M 108.347656 114.261719 L 108.425781 114.261719 C 109.339844 114.03125 110.175781 113.804688 111.015625 114.335938 C 111.777344 114.867188 111.929688 115.859375 111.320312 116.542969 C 110.710938 117.300781 109.871094 117.226562 108.957031 117.226562 L 108.882812 117.226562 C 108.121094 117.226562 107.433594 117.226562 106.671875 117.148438 C 105.984375 117.074219 105.300781 117 104.613281 116.847656 L 104.230469 116.769531 C 103.851562 116.695312 103.394531 116.617188 103.242188 116.160156 C 102.859375 115.476562 105.605469 114.945312 105.910156 114.867188 C 106.746094 114.640625 107.507812 114.414062 108.347656 114.261719 Z M 109.871094 105.972656 C 109.414062 106.429688 108.882812 106.734375 108.195312 106.886719 C 106.59375 107.339844 104.535156 107.113281 103.164062 106.65625 C 102.859375 106.582031 102.632812 106.351562 102.480469 106.125 C 102.324219 105.894531 102.324219 105.59375 102.402344 105.289062 C 102.402344 105.210938 102.480469 105.136719 102.480469 105.058594 C 102.554688 104.832031 102.785156 104.679688 103.011719 104.605469 C 103.242188 104.527344 103.546875 104.453125 103.773438 104.527344 C 103.773438 104.527344 103.851562 104.527344 103.851562 104.527344 C 104.6875 104.753906 106.0625 105.210938 107.203125 105.136719 C 107.890625 105.058594 108.5 104.832031 108.804688 104.222656 C 108.957031 103.917969 108.957031 103.539062 108.804688 103.234375 C 108.578125 102.777344 108.121094 102.398438 107.816406 102.09375 C 107.28125 101.714844 106.746094 101.5625 106.136719 101.410156 C 105.910156 101.410156 105.679688 101.410156 105.453125 101.335938 C 105.375 101.335938 105.300781 101.257812 105.300781 101.183594 C 105.222656 101.105469 105.222656 101.03125 105.222656 100.953125 C 105.222656 100.878906 105.222656 100.800781 105.300781 100.726562 C 105.300781 100.648438 105.375 100.574219 105.453125 100.574219 C 106.59375 100.042969 108.042969 100.421875 109.109375 101.183594 C 109.644531 101.5625 110.101562 102.09375 110.40625 102.625 C 110.636719 103.160156 110.789062 103.765625 110.710938 104.300781 C 110.558594 105.058594 110.253906 105.59375 109.871094 105.972656 Z M 91.425781 94.71875 C 91.730469 94.566406 92.035156 95.25 92.035156 95.402344 L 92.1875 95.78125 C 92.417969 96.390625 92.644531 97 93.101562 97.457031 C 93.484375 97.835938 94.09375 98.140625 94.550781 97.683594 C 95.007812 97.304688 94.78125 96.847656 94.855469 96.316406 C 94.933594 95.402344 96.226562 94.492188 96.988281 95.480469 C 98.667969 97.609375 96.074219 100.574219 93.636719 100.042969 C 92.417969 99.738281 91.425781 98.824219 91.042969 97.609375 L 91.042969 97.53125 C 90.738281 96.847656 90.511719 95.097656 91.425781 94.71875 Z M 113.152344 96.238281 C 112.3125 94.414062 115.207031 93.578125 115.4375 95.25 L 115.4375 95.328125 C 115.667969 97.152344 115.207031 99.585938 112.921875 99.738281 C 110.40625 99.964844 109.339844 97.152344 109.566406 95.097656 C 109.644531 94.71875 110.023438 94.71875 110.175781 95.023438 L 110.175781 95.097656 C 110.558594 96.164062 110.941406 98.140625 112.386719 98.0625 C 113.457031 98.140625 113.457031 96.847656 113.152344 96.238281 Z M 114.980469 90.917969 C 116.429688 90.839844 116.429688 93.121094 114.980469 93.121094 C 110.175781 93.199219 105.375 93.351562 100.574219 93.425781 L 99.734375 93.425781 C 95.238281 93.5 90.664062 93.578125 86.164062 93.199219 C 85.785156 93.199219 85.859375 92.664062 86.164062 92.664062 C 90.890625 91.980469 95.617188 91.828125 100.421875 91.523438 C 105.300781 91.296875 110.101562 91.144531 114.980469 90.917969 Z M 114.980469 90.917969 " fill-opacity="1" fill-rule="evenodd"/><path fill="#000000" d="M 115.007812 77.171875 C 115.921875 76.867188 116.6875 77.855469 116.535156 78.691406 C 116.304688 79.679688 115.3125 80.515625 114.628906 81.203125 C 113.941406 81.960938 113.179688 82.644531 112.417969 83.332031 C 110.96875 84.625 109.445312 85.917969 107.84375 87.058594 L 107.234375 87.4375 C 105.785156 88.5 104.335938 89.566406 102.734375 90.480469 C 101.898438 91.011719 101.058594 91.46875 100.144531 91.921875 C 99.839844 92.074219 99.457031 92.378906 99.078125 92.53125 C 100.527344 93.597656 101.59375 95.269531 101.820312 96.867188 C 102.429688 100.742188 99.914062 104.316406 96.410156 105.761719 C 94.730469 106.371094 92.75 106.597656 90.921875 106.371094 C 89.015625 106.144531 87.109375 105.609375 85.8125 104.011719 C 84.746094 102.644531 84.289062 100.894531 84.210938 99.148438 C 84.210938 98.3125 84.210938 97.550781 84.363281 96.789062 C 83.601562 96.789062 82.839844 96.789062 82.078125 96.789062 C 80.25 96.789062 78.34375 96.789062 76.511719 96.789062 C 74.609375 96.714844 72.703125 96.636719 70.796875 96.484375 C 69.957031 96.410156 69.121094 96.257812 68.28125 96.179688 C 67.441406 96.03125 66.605469 96.03125 65.839844 95.726562 C 65.765625 95.726562 65.839844 95.648438 65.839844 95.648438 C 66.679688 95.421875 67.59375 95.421875 68.433594 95.421875 L 69.273438 95.34375 C 69.957031 95.269531 70.644531 95.269531 71.328125 95.269531 C 72.855469 95.117188 74.457031 95.039062 75.980469 95.039062 L 76.667969 95.039062 C 78.496094 95.039062 80.402344 94.964844 82.230469 94.890625 C 82.992188 94.890625 83.753906 94.8125 84.519531 94.8125 C 84.59375 94.585938 84.746094 94.433594 84.898438 94.203125 C 85.28125 93.671875 85.738281 93.214844 86.269531 92.757812 C 87.261719 91.847656 88.480469 91.238281 89.777344 90.78125 C 91.074219 90.328125 92.902344 90.097656 94.273438 90.175781 C 95.648438 90.175781 97.550781 90.402344 98.164062 91.46875 C 98.238281 91.621094 99.382812 91.390625 99.761719 91.085938 C 100.601562 90.480469 101.363281 89.792969 102.203125 89.1875 C 103.652344 87.96875 105.175781 86.753906 106.546875 85.460938 C 107.996094 84.089844 109.367188 82.722656 110.738281 81.355469 C 111.425781 80.667969 112.113281 79.910156 112.796875 79.226562 C 113.410156 78.464844 114.019531 77.550781 115.007812 77.171875 Z M 115.007812 77.171875 " fill-opacity="1" fill-rule="evenodd"/><g clip-path="url(#d835327920)"><path fill="#000814" d="M 143.804688 8.886719 C 143.804688 8.898438 143.03125 8.988281 141.628906 9.511719 C 140.300781 10.003906 138.101562 11.0625 136.175781 13.226562 C 134.554688 15.046875 133.003906 17.851562 132.746094 21.328125 C 132.644531 22.6875 132.742188 24.175781 133.195312 25.613281 C 133.605469 26.925781 134.332031 28.234375 135.40625 29.257812 C 136.261719 30.070312 137.339844 30.703125 138.542969 31.007812 C 139.679688 31.292969 140.933594 31.28125 142.105469 30.886719 C 143.085938 30.5625 144.003906 29.96875 144.75 29.183594 C 145.46875 28.425781 146.027344 27.492188 146.386719 26.460938 C 147.070312 24.511719 147 22.261719 146.292969 20.144531 C 145.945312 19.101562 145.4375 18.074219 144.683594 17.253906 C 143.957031 16.457031 142.96875 15.839844 141.886719 15.699219 C 140.984375 15.574219 140.035156 15.785156 139.207031 16.234375 C 138.394531 16.675781 137.699219 17.339844 137.148438 18.125 C 136.070312 19.648438 135.589844 21.527344 135.179688 23.476562 C 134.945312 24.640625 134.722656 25.855469 134.972656 27 C 135.09375 27.558594 135.324219 28.105469 135.691406 28.539062 C 136.050781 28.96875 136.542969 29.296875 137.082031 29.40625 C 137.625 29.515625 138.21875 29.402344 138.699219 29.109375 C 139.175781 28.816406 139.546875 28.339844 139.734375 27.800781 C 139.925781 27.265625 139.933594 26.664062 139.777344 26.109375 C 139.625 25.558594 139.300781 25.054688 138.875 24.664062 C 138.40625 24.230469 137.796875 23.9375 137.167969 23.894531 C 136.546875 23.851562 135.890625 24.058594 135.449219 24.496094 C 134.984375 24.945312 134.746094 25.648438 134.832031 26.304688 C 134.910156 26.957031 135.304688 27.574219 135.855469 27.941406 C 136.402344 28.308594 137.113281 28.4375 137.765625 28.304688 C 138.414062 28.171875 139.015625 27.78125 139.429688 27.246094 C 139.996094 26.515625 140.199219 25.515625 140.113281 24.554688 C 140.023438 23.601562 139.65625 22.679688 139.1875 21.804688 C 138.601562 20.71875 137.847656 19.691406 136.828125 19.027344 C 136.324219 18.699219 135.761719 18.457031 135.175781 18.355469 C 134.59375 18.253906 133.984375 18.289062 133.433594 18.484375 C 132.785156 18.710938 132.214844 19.164062 131.8125 19.738281 C 131.414062 20.308594 131.179688 21.003906 131.125 21.710938 C 131.015625 23.105469 131.632812 24.535156 132.613281 25.589844 C 133.78125 26.84375 135.445312 27.589844 137.179688 27.949219 C 138.886719 28.300781 140.65625 28.285156 142.464844 28.238281 C 143.332031 28.214844 144.199219 28.1875 145.039062 28.042969 C 145.875 27.902344 146.695312 27.644531 147.398438 27.199219 C 148.09375 26.757812 148.6875 26.121094 148.976562 25.359375 C 149.121094 24.980469 149.195312 24.570312 149.175781 24.171875 C 149.15625 23.769531 149.046875 23.375 148.851562 23.03125 C 148.652344 22.695312 148.371094 22.40625 148.03125 22.28125 C 147.863281 22.21875 147.683594 22.191406 147.511719 22.210938 C 147.34375 22.230469 147.175781 22.296875 147.050781 22.398438 C 146.832031 22.5625 146.710938 22.863281 146.660156 23.171875 C 146.613281 23.488281 146.648438 23.828125 146.6875 24.191406 C 146.730469 24.550781 146.769531 24.9375 146.71875 25.339844 C 146.675781 25.746094 146.5 26.164062 146.167969 26.464844 C 145.820312 26.757812 145.355469 26.867188 144.925781 26.785156 C 144.5 26.703125 144.125 26.464844 143.859375 26.140625 C 143.589844 25.820312 143.421875 25.4375 143.335938 25.046875 C 143.253906 24.65625 143.242188 24.261719 143.265625 23.878906 C 143.316406 23.117188 143.492188 22.40625 143.511719 21.714844 C 143.519531 21.367188 143.492188 21.027344 143.398438 20.714844 C 143.304688 20.40625 143.148438 20.117188 142.925781 19.90625 C 142.703125 19.691406 142.40625 19.546875 142.09375 19.496094 C 141.785156 19.441406 141.453125 19.480469 141.148438 19.589844 C 140.542969 19.804688 140.050781 20.339844 139.769531 20.957031 C 139.488281 21.574219 139.414062 22.289062 139.453125 23 C 139.492188 23.707031 139.652344 24.417969 139.824219 25.140625 C 139.980469 25.808594 140.140625 26.46875 140.394531 27.085938 C 140.644531 27.695312 140.980469 28.269531 141.445312 28.699219 C 141.878906 29.105469 142.429688 29.390625 143.015625 29.535156 C 143.59375 29.675781 144.214844 29.675781 144.808594 29.550781 C 145.988281 29.300781 147.050781 28.539062 147.8125 27.554688 C 148.570312 26.574219 149.039062 25.371094 149.3125 24.121094 C 149.578125 22.882812 149.644531 21.597656 149.671875 20.292969 C 149.691406 19.144531 149.683594 17.996094 149.339844 16.949219 C 149.171875 16.429688 148.925781 15.9375 148.585938 15.527344 C 148.25 15.117188 147.820312 14.78125 147.339844 14.597656 C 146.804688 14.390625 146.191406 14.367188 145.609375 14.480469 C 145.027344 14.59375 144.46875 14.851562 143.953125 15.1875 C 142.917969 15.851562 142.082031 16.820312 141.140625 17.738281 C 140.304688 18.5625 139.402344 19.3125 138.851562 20.265625 C 138.578125 20.742188 138.378906 21.261719 138.335938 21.789062 C 138.292969 22.3125 138.390625 22.855469 138.667969 23.277344 C 138.972656 23.773438 139.519531 24.117188 140.101562 24.238281 C 140.6875 24.355469 141.320312 24.246094 141.871094 23.980469 C 142.421875 23.710938 142.894531 23.273438 143.265625 22.757812 C 143.632812 22.242188 143.890625 21.644531 144.074219 21.019531 C 144.484375 19.625 144.476562 18.109375 144.199219 16.644531 C 143.925781 15.191406 143.378906 13.789062 142.722656 12.425781 C 142.117188 11.183594 141.421875 9.96875 140.398438 9.121094 C 139.894531 8.699219 139.3125 8.367188 138.691406 8.199219 C 138.070312 8.03125 137.40625 8.015625 136.808594 8.207031 C 136.324219 8.355469 135.875 8.640625 135.496094 8.996094 C 135.113281 9.355469 134.800781 9.792969 134.542969 10.265625 C 134.03125 11.210938 133.765625 12.296875 133.496094 13.402344 C 133.207031 14.601562 132.914062 15.796875 132.929688 16.980469 C 132.9375 17.570312 133.019531 18.160156 133.203125 18.707031 C 133.390625 19.25 133.675781 19.757812 134.066406 20.164062 C 134.480469 20.59375 135.015625 20.910156 135.59375 21.109375 C 136.167969 21.308594 136.792969 21.386719 137.417969 21.378906 C 138.667969 21.371094 139.910156 21.011719 141.179688 20.65625 C 143.40625 20.015625 145.671875 19.386719 147.597656 18.167969 C 148.554688 17.5625 149.429688 16.816406 150.105469 15.914062 C 150.773438 15.019531 151.253906 13.964844 151.402344 12.863281 C 151.542969 11.835938 151.398438 10.761719 150.992188 9.796875 C 150.589844 8.839844 149.925781 7.988281 149.101562 7.351562 C 147.949219 6.457031 146.46875 6 144.988281 5.964844 C 143.515625 5.933594 142.035156 6.324219 140.683594 6.984375 C 137.996094 8.289062 135.90625 10.632812 134.015625 13.101562 C 132.300781 15.359375 130.691406 17.78125 129.953125 20.5 C 129.53125 22.066406 129.390625 23.746094 129.867188 25.261719 C 130.101562 26.019531 130.480469 26.730469 131 27.308594 C 131.519531 27.882812 132.183594 28.332031 132.910156 28.558594 C 133.789062 28.835938 134.769531 28.78125 135.679688 28.511719 C 136.589844 28.242188 137.4375 27.746094 138.222656 27.15625 C 139.332031 26.316406 140.308594 25.292969 141.007812 24.097656 C 141.707031 22.910156 142.136719 21.550781 142.160156 20.179688 C 142.183594 18.816406 141.800781 17.429688 141.015625 16.332031 C 140.234375 15.238281 139.042969 14.425781 137.738281 14.191406 C 137.160156 14.085938 136.566406 14.085938 136.039062 14.261719 C 135.375 14.472656 134.796875 14.960938 134.417969 15.5625 C 134.035156 16.167969 133.851562 16.90625 133.855469 17.640625 C 133.859375 18.375 134.058594 19.113281 134.378906 19.789062 C 134.699219 20.464844 135.15625 21.082031 135.679688 21.636719 C 137.527344 23.601562 140.214844 24.65625 142.945312 25.058594 C 144.628906 25.300781 146.363281 25.3125 147.992188 24.886719 C 149.613281 24.464844 151.148438 23.609375 152.203125 22.324219 C 153.492188 20.777344 154.019531 18.65625 154.058594 16.570312 C 154.089844 14.488281 153.640625 12.40625 153.183594 10.308594 C 152.808594 8.636719 152.433594 6.953125 151.503906 5.628906 C 151.046875 4.964844 150.460938 4.390625 149.769531 4.03125 C 149.085938 3.671875 148.285156 3.507812 147.546875 3.65625 C 147.0625 3.75 146.597656 3.972656 146.183594 4.269531 C 145.765625 4.566406 145.398438 4.945312 145.066406 5.363281 C 144.40625 6.199219 143.914062 7.195312 143.320312 8.171875 C 142.601562 9.359375 141.773438 10.449219 141.316406 11.660156 C 141.089844 12.261719 140.945312 12.894531 140.960938 13.515625 C 140.976562 14.136719 141.136719 14.753906 141.472656 15.242188 C 141.742188 15.636719 142.128906 15.960938 142.5625 16.1875 C 142.996094 16.414062 143.492188 16.539062 143.992188 16.582031 C 144.996094 16.671875 146.027344 16.398438 147.015625 16.007812 C 149.257812 15.101562 151.300781 13.492188 152.296875 11.308594 C 152.796875 10.222656 153.039062 9.007812 152.9375 7.824219 C 152.835938 6.648438 152.390625 5.488281 151.636719 4.59375 C 150.730469 3.519531 149.34375 2.820312 147.953125 2.828125 C 146.996094 2.828125 146.03125 3.15625 145.234375 3.714844 C 144.441406 4.273438 143.804688 5.070312 143.398438 5.96875 C 142.578125 7.757812 142.71875 9.949219 143.53125 11.785156 C 144.027344 12.890625 144.8125 13.992188 145.089844 15.351562 C 145.230469 16.035156 145.199219 16.78125 144.910156 17.464844 C 144.765625 17.800781 144.546875 18.117188 144.265625 18.371094 C 143.984375 18.625 143.640625 18.8125 143.261719 18.898438 C 142.882812 18.984375 142.488281 18.964844 142.128906 18.855469 C 141.765625 18.75 141.4375 18.5625 141.15625 18.328125 C 140.601562 17.851562 140.238281 17.21875 140.011719 16.570312 C 139.785156 15.925781 139.671875 15.273438 139.554688 14.648438 C 139.433594 14.027344 139.308594 13.429688 139.074219 12.898438 C 138.644531 11.917969 137.820312 11.105469 136.839844 10.671875 C 135.863281 10.234375 134.71875 10.167969 133.679688 10.457031 C 132.855469 10.683594 132.085938 11.140625 131.425781 11.722656 C 130.765625 12.304688 130.214844 13.019531 129.75 13.792969 C 129.125 14.859375 128.65625 16.046875 128.765625 17.207031 C 128.816406 17.785156 129 18.351562 129.324219 18.808594 C 129.648438 19.257812 130.117188 19.617188 130.632812 19.75 C 131.136719 19.890625 131.703125 19.824219 132.183594 19.59375 C 132.660156 19.363281 133.066406 18.957031 133.316406 18.472656 C 133.570312 17.988281 133.671875 17.417969 133.625 16.863281 C 133.582031 16.308594 133.378906 15.761719 133.070312 15.292969 C 132.757812 14.816406 132.328125 14.410156 131.832031 14.148438 C 131.335938 13.882812 130.769531 13.753906 130.21875 13.792969 C 129.484375 13.84375 128.757812 14.207031 128.242188 14.753906 C 127.722656 15.300781 127.394531 16.042969 127.308594 16.808594 C 127.222656 17.574219 127.371094 18.375 127.707031 19.082031 C 128.039062 19.789062 128.5625 20.410156 129.1875 20.894531 C 129.8125 21.378906 130.539062 21.726562 131.304688 21.886719 C 132.066406 22.042969 132.871094 22.019531 133.609375 21.792969 C 134.347656 21.566406 135.027344 21.136719 135.535156 20.558594 C 136.042969 19.980469 136.386719 19.25 136.480469 18.488281 C 136.554688 17.878906 136.476562 17.246094 136.207031 16.722656 C 135.941406 16.203125 135.484375 15.769531 134.953125 15.601562 C 134.625 15.496094 134.257812 15.480469 133.914062 15.554688 C 133.566406 15.628906 133.234375 15.796875 132.953125 16.023438 C 132.390625 16.472656 132.039062 17.203125 131.941406 17.949219 C 131.84375 18.703125 132.011719 19.492188 132.335938 20.210938 C 132.660156 20.929688 133.152344 21.578125 133.710938 22.167969 C 134.449219 22.9375 135.292969 23.59375 136.242188 24.011719 C 137.1875 24.425781 138.242188 24.613281 139.234375 24.441406 C 140.117188 24.292969 140.960938 23.867188 141.578125 23.222656 C 142.195312 22.582031 142.597656 21.71875 142.652344 20.835938 C 142.726562 19.816406 142.335938 18.761719 141.648438 17.996094 C 140.960938 17.222656 139.96875 16.726562 138.9375 16.585938 C 138.035156 16.460938 137.09375 16.605469 136.207031 16.917969 C 135.324219 17.230469 134.496094 17.722656 133.710938 18.289062 C 132.148438 19.421875 130.773438 20.886719 129.128906 22.085938 C 129.128906 22.085938 129.125 22.085938 129.125 22.085938 C 127.347656 23.378906 125.367188 24.269531 123.742188 25.578125 C 122.933594 26.230469 122.207031 26.980469 121.699219 27.859375 C 121.195312 28.730469 120.894531 29.738281 120.960938 30.71875 C 121.011719 31.582031 121.34375 32.433594 121.839844 33.164062 C 122.339844 33.894531 123.015625 34.507812 123.765625 35.015625 C 124.410156 35.453125 125.105469 35.800781 125.839844 36.074219 C 127.222656 36.589844 128.726562 36.839844 130.21875 36.914062 C 132.515625 37.023438 134.832031 36.722656 137.160156 36.472656 C 138.222656 36.351562 139.265625 36.25 140.210938 35.910156 C 141.148438 35.570312 142.023438 34.996094 142.464844 34.164062 C 142.804688 33.550781 142.910156 32.800781 142.773438 32.109375 C 142.636719 31.414062 142.25 30.761719 141.714844 30.296875 C 141.179688 29.832031 140.480469 29.542969 139.773438 29.480469 C 139.0625 29.414062 138.324219 29.570312 137.691406 29.910156 C 136.9375 30.3125 136.3125 30.984375 135.953125 31.765625 C 135.59375 32.550781 135.488281 33.460938 135.652344 34.3125 C 135.851562 35.332031 136.453125 36.289062 137.304688 36.851562 C 138.148438 37.414062 139.269531 37.59375 140.21875 37.273438 C 140.816406 37.074219 141.359375 36.683594 141.773438 36.1875 C 142.183594 35.6875 142.46875 35.074219 142.609375 34.429688 C 142.898438 33.144531 142.582031 31.738281 141.941406 30.542969 C 141.527344 29.785156 140.984375 29.101562 140.324219 28.566406 C 139.664062 28.03125 138.886719 27.640625 138.066406 27.464844 C 136.847656 27.203125 135.511719 27.4375 134.476562 28.125 C 133.4375 28.804688 132.6875 29.953125 132.503906 31.183594 C 132.316406 32.410156 132.699219 33.738281 133.527344 34.644531 C 134.355469 35.550781 135.648438 36.050781 136.847656 35.894531 C 137.792969 35.777344 138.691406 35.273438 139.3125 34.542969 C 139.9375 33.8125 140.289062 32.835938 140.304688 31.867188 C 140.324219 30.699219 139.84375 29.503906 138.992188 28.734375 C 138.5625 28.34375 138.046875 28.054688 137.496094 27.902344 C 136.941406 27.75 136.351562 27.730469 135.796875 27.855469 C 135.242188 27.984375 134.71875 28.253906 134.300781 28.636719 C 133.882812 29.019531 133.5625 29.519531 133.398438 30.0625 C 133.238281 30.601562 133.222656 31.195312 133.371094 31.738281 C 133.519531 32.28125 133.828125 32.785156 134.25 33.152344 C 134.703125 33.550781 135.296875 33.796875 135.902344 33.847656 C 136.589844 33.90625 137.304688 33.707031 137.882812 33.316406 C 138.457031 32.921875 138.90625 32.324219 139.136719 31.65625 C 139.371094 30.988281 139.390625 30.242188 139.203125 29.554688 C 139.019531 28.863281 138.628906 28.226562 138.101562 27.742188 C 137.578125 27.257812 136.914062 26.917969 136.214844 26.765625 C 135.511719 26.609375 134.769531 26.640625 134.074219 26.839844 C 132.6875 27.230469 131.507812 28.335938 130.902344 29.671875 C 130.675781 30.171875 130.519531 30.730469 130.320312 31.300781 C 130.125 31.875 129.878906 32.464844 129.484375 32.992188 C 129.085938 33.523438 128.507812 33.949219 127.816406 34.09375 C 127.464844 34.160156 127.097656 34.140625 126.75 34.023438 C 126.398438 33.902344 126.085938 33.671875 125.863281 33.359375 C 125.582031 32.957031 125.484375 32.460938 125.5625 31.996094 C 125.640625 31.53125 125.871094 31.117188 126.195312 30.804688 C 126.6875 30.332031 127.34375 30.089844 127.996094 30.082031 C 128.648438 30.078125 129.273438 30.277344 129.804688 30.605469 C 130.859375 31.265625 131.554688 32.296875 132.121094 33.292969 C 133.070312 34.925781 133.875 36.601562 135.082031 37.914062 C 136.28125 39.230469 137.871094 40.183594 139.578125 40.683594 C 141.289062 41.1875 143.128906 41.242188 144.886719 40.910156 C 148.421875 40.253906 151.570312 38.023438 153.847656 35.203125 C 154.394531 34.519531 154.898438 33.804688 155.257812 33.035156 C 155.613281 32.265625 155.84375 31.433594 155.828125 30.609375 C 155.816406 29.617188 155.449219 28.617188 154.789062 27.894531 C 154.132812 27.175781 153.167969 26.71875 152.210938 26.722656 C 151.558594 26.71875 150.898438 26.925781 150.265625 27.210938 C 149.632812 27.5 149.019531 27.882812 148.378906 28.25 C 147.734375 28.617188 147.050781 28.96875 146.300781 29.179688 C 145.542969 29.390625 144.710938 29.429688 143.925781 29.179688 C 143.40625 29.003906 142.984375 28.734375 142.582031 28.589844 C 141.871094 28.328125 141.039062 28.363281 140.382812 28.714844 C 139.722656 29.058594 139.214844 29.734375 139.101562 30.460938 C 139.039062 30.828125 139.070312 31.210938 139.191406 31.558594 C 139.3125 31.90625 139.523438 32.222656 139.796875 32.460938 C 140.070312 32.699219 140.414062 32.859375 140.765625 32.917969 C 141.121094 32.976562 141.492188 32.929688 141.816406 32.785156 C 142.253906 32.605469 142.628906 32.203125 143.078125 31.820312 C 143.300781 31.625 143.542969 31.429688 143.828125 31.269531 C 144.109375 31.105469 144.4375 30.992188 144.789062 30.964844 C 145.363281 30.933594 145.910156 31.144531 146.320312 31.496094 C 146.730469 31.84375 147.023438 32.289062 147.222656 32.75 C 147.621094 33.671875 147.722656 34.617188 148.035156 35.410156 C 148.542969 36.722656 149.675781 37.777344 150.992188 38.265625 C 152.316406 38.757812 153.839844 38.6875 155.15625 38.15625 C 156.480469 37.621094 157.613281 36.613281 158.382812 35.390625 C 159.160156 34.164062 159.578125 32.710938 159.664062 31.246094 C 159.71875 30.195312 159.609375 29.136719 159.175781 28.230469 C 158.960938 27.773438 158.671875 27.359375 158.308594 27.027344 C 157.949219 26.695312 157.519531 26.4375 157.0625 26.3125 C 156.253906 26.074219 155.335938 26.246094 154.480469 26.554688 C 153.621094 26.867188 152.789062 27.347656 151.882812 27.726562 C 151.582031 27.855469 151.246094 27.976562 150.875 28.023438 C 150.5 28.078125 150.09375 28.019531 149.726562 27.808594 C 149.496094 27.667969 149.3125 27.476562 149.183594 27.25 C 149.054688 27.027344 148.976562 26.78125 148.949219 26.535156 C 148.902344 26.035156 149.03125 25.554688 149.261719 25.152344 C 149.726562 24.363281 150.441406 23.859375 151.03125 23.367188 C 151.320312 23.117188 151.589844 22.859375 151.78125 22.566406 C 151.96875 22.277344 152.101562 21.953125 152.105469 21.644531 C 152.105469 21.488281 152.085938 21.332031 152.03125 21.195312 C 151.976562 21.058594 151.894531 20.9375 151.792969 20.84375 C 151.691406 20.753906 151.566406 20.691406 151.441406 20.667969 C 151.320312 20.648438 151.1875 20.660156 151.082031 20.710938 C 150.953125 20.765625 150.835938 20.902344 150.753906 21.054688 C 150.671875 21.210938 150.632812 21.40625 150.613281 21.617188 C 150.578125 22.039062 150.664062 22.527344 150.613281 23.082031 C 150.527344 23.804688 150.214844 24.445312 149.859375 25 C 149.507812 25.558594 149.125 26.058594 148.855469 26.582031 C 148.59375 27.109375 148.417969 27.679688 148.507812 28.195312 C 148.550781 28.453125 148.648438 28.703125 148.804688 28.890625 C 148.957031 29.078125 149.164062 29.226562 149.386719 29.273438 C 149.648438 29.34375 149.964844 29.269531 150.21875 29.117188 C 150.476562 28.957031 150.679688 28.695312 150.816406 28.398438 C 151.105469 27.804688 151.058594 27.054688 150.976562 26.304688 C 150.875 25.550781 150.71875 24.742188 150.820312 23.890625 C 150.871094 23.464844 151.003906 23.035156 151.242188 22.648438 C 151.480469 22.261719 151.835938 21.9375 152.277344 21.757812 C 152.617188 21.628906 152.976562 21.59375 153.316406 21.632812 C 153.65625 21.667969 153.976562 21.765625 154.269531 21.890625 C 154.859375 22.144531 155.355469 22.488281 155.851562 22.726562 C 156.683594 23.125 157.625 23.292969 158.539062 23.21875 C 159.457031 23.144531 160.355469 22.820312 161.117188 22.300781 C 161.882812 21.78125 162.515625 21.054688 162.9375 20.230469 C 163.359375 19.398438 163.574219 18.460938 163.5625 17.527344 C 163.539062 15.660156 162.542969 13.820312 161.035156 12.753906 C 159.515625 11.671875 157.480469 11.363281 155.707031 11.890625 C 154.421875 12.269531 153.265625 13.066406 152.386719 14.09375 C 151.503906 15.125 150.894531 16.394531 150.558594 17.71875 C 150.382812 18.453125 150.28125 19.199219 150.472656 19.859375 C 150.566406 20.1875 150.726562 20.496094 150.949219 20.730469 C 151.167969 20.964844 151.457031 21.140625 151.757812 21.191406 C 152.042969 21.25 152.359375 21.199219 152.625 21.066406 C 152.898438 20.933594 153.128906 20.707031 153.285156 20.441406 C 153.445312 20.171875 153.527344 19.855469 153.535156 19.535156 C 153.542969 19.214844 153.472656 18.890625 153.339844 18.589844 C 153.078125 17.992188 152.546875 17.511719 151.941406 17.210938 C 151.332031 16.910156 150.625 16.789062 149.917969 16.773438 C 148.808594 16.753906 147.644531 17.007812 146.425781 16.9375 C 145.8125 16.898438 145.1875 16.765625 144.617188 16.472656 C 144.039062 16.179688 143.539062 15.703125 143.253906 15.089844 C 143.070312 14.671875 142.996094 14.21875 143.011719 13.78125 C 143.03125 13.339844 143.128906 12.917969 143.277344 12.519531 C 143.578125 11.730469 144.039062 11.050781 144.460938 10.394531 C 144.875 9.734375 145.261719 9.074219 145.402344 8.375 C 145.472656 8.023438 145.488281 7.664062 145.421875 7.328125 C 145.355469 6.996094 145.214844 6.675781 144.996094 6.4375 C 144.710938 6.109375 144.273438 5.910156 143.820312 5.84375 C 143.367188 5.777344 142.882812 5.851562 142.421875 6.003906 C 141.488281 6.300781 140.648438 6.941406 139.6875 7.445312 C 138.871094 7.871094 138.027344 8.175781 137.234375 8.53125 C 136.4375 8.890625 135.675781 9.304688 135.097656 9.890625 C 134.808594 10.1875 134.558594 10.519531 134.390625 10.886719 C 134.21875 11.25 134.121094 11.648438 134.125 12.039062 C 134.128906 12.429688 134.234375 12.820312 134.4375 13.140625 C 134.640625 13.457031 134.945312 13.71875 135.285156 13.835938 C 135.566406 13.941406 135.894531 13.949219 136.230469 13.933594 C 137.617188 13.847656 138.964844 13.125 139.796875 12.019531 C 140.640625 10.90625 140.96875 9.394531 140.671875 8.039062 C 140.375 6.671875 139.433594 5.449219 138.210938 4.820312 C 136.976562 4.179688 135.441406 4.140625 134.1875 4.707031 C 133.453125 5.039062 132.808594 5.566406 132.273438 6.191406 C 131.734375 6.816406 131.3125 7.542969 130.960938 8.308594 C 130.476562 9.375 130.132812 10.511719 130.199219 11.632812 C 130.234375 12.195312 130.359375 12.75 130.605469 13.246094 C 130.847656 13.738281 131.203125 14.175781 131.644531 14.480469 C 132.039062 14.753906 132.503906 14.925781 132.976562 14.980469 C 133.453125 15.035156 133.945312 14.972656 134.398438 14.808594 C 135.308594 14.484375 136.058594 13.71875 136.433594 12.816406 C 136.878906 11.761719 136.8125 10.5 136.335938 9.457031 C 135.855469 8.402344 134.957031 7.550781 133.914062 7.058594 C 132.988281 6.625 131.941406 6.460938 130.917969 6.515625 C 129.882812 6.574219 128.863281 6.855469 127.910156 7.273438 C 125.980469 8.113281 124.3125 9.515625 122.6875 10.890625 C 121.90625 11.558594 121.140625 12.21875 120.476562 12.960938 C 119.8125 13.710938 119.246094 14.546875 118.929688 15.46875 C 118.613281 16.398438 118.542969 17.417969 118.84375 18.320312 C 118.996094 18.773438 119.234375 19.195312 119.550781 19.539062 C 119.867188 19.882812 120.265625 20.15625 120.699219 20.304688 C 121.449219 20.574219 122.3125 20.46875 123.070312 20.152344 C 123.832031 19.832031 124.503906 19.28125 125.105469 18.671875 C 127.515625 16.226562 128.726562 12.796875 129.636719 9.511719 C 130.03125 8.066406 130.386719 6.617188 130.976562 5.222656 C 131.570312 3.8125 132.433594 2.488281 133.652344 1.558594 C 134.707031 0.761719 136.011719 0.3125 137.320312 0.34375 C 138.644531 0.378906 139.949219 0.929688 140.859375 1.890625 C 141.421875 2.484375 141.820312 3.207031 142.089844 3.957031 C 142.363281 4.710938 142.523438 5.496094 142.636719 6.265625 C 142.871094 7.84375 142.941406 9.375 143.46875 10.777344 C 143.734375 11.480469 144.109375 12.140625 144.617188 12.65625 C 145.128906 13.179688 145.78125 13.5625 146.476562 13.679688 C 147.175781 13.796875 147.929688 13.644531 148.46875 13.214844 C 148.742188 13 148.964844 12.71875 149.101562 12.402344 C 149.238281 12.085938 149.292969 11.730469 149.25 11.390625 C 149.203125 10.976562 148.992188 10.574219 148.777344 10.160156 C 148.554688 9.746094 148.320312 9.304688 148.21875 8.792969 C 148.136719 8.351562 148.175781 7.898438 148.320312 7.480469 C 148.464844 7.0625 148.714844 6.6875 149.035156 6.390625 C 149.683594 5.792969 150.582031 5.53125 151.433594 5.636719 C 152.289062 5.746094 153.074219 6.191406 153.640625 6.828125 C 154.207031 7.464844 154.558594 8.273438 154.691406 9.101562 C 154.953125 10.722656 154.441406 12.347656 153.730469 13.734375 C 153.003906 15.15625 152.082031 16.421875 151.390625 17.769531 C 150.515625 19.46875 149.960938 21.347656 148.914062 22.960938 C 148.378906 23.785156 147.710938 24.53125 146.886719 25.066406 C 146.050781 25.613281 145.050781 25.914062 144.058594 25.824219 C 142.898438 25.714844 141.828125 25.046875 141.191406 24.089844 C 140.546875 23.113281 140.367188 21.867188 140.664062 20.761719 C 140.859375 20.050781 141.238281 19.398438 141.75 18.890625 C 142.269531 18.371094 142.914062 17.996094 143.605469 17.800781 C 145.023438 17.402344 146.578125 17.78125 147.667969 18.691406 C 148.273438 19.191406 148.734375 19.839844 149.050781 20.539062 C 149.371094 21.25 149.542969 22.015625 149.59375 22.777344 C 149.695312 24.335938 149.3125 25.867188 148.78125 27.25 C 148.128906 28.96875 147.191406 30.566406 145.765625 31.601562 C 144.65625 32.398438 143.335938 32.796875 142.054688 32.914062 C 140.714844 33.039062 139.382812 32.878906 138.136719 32.625 C 136.859375 32.367188 135.527344 31.980469 134.339844 31.679688 C 133.039062 31.347656 131.796875 31.082031 130.542969 31.007812 C 129.667969 30.957031 128.800781 31 127.945312 30.957031 C 127.046875 30.914062 126.167969 30.777344 125.375 30.40625 C 124.539062 30.019531 123.84375 29.359375 123.53125 28.527344 C 123.371094 28.09375 123.320312 27.625 123.402344 27.179688 C 123.484375 26.71875 123.707031 26.292969 124.03125 25.980469 C 124.285156 25.742188 124.589844 25.574219 124.910156 25.480469 C 125.238281 25.382812 125.578125 25.363281 125.90625 25.402344 C 126.585938 25.480469 127.199219 25.804688 127.695312 26.210938 C 128.695312 27.035156 129.445312 28.410156 130.101562 29.277344 C 131.492188 31.121094 133.25 32.210938 134.789062 32.796875 C 136.589844 33.476562 138.195312 33.515625 139.140625 33.460938 C 140.132812 33.410156 140.628906 33.277344 140.632812 33.289062 C 140.632812 33.296875 140.140625 33.449219 139.144531 33.523438 C 138.195312 33.59375 136.574219 33.578125 134.75 32.90625 C 133.1875 32.332031 131.398438 31.242188 129.96875 29.378906 C 129.296875 28.5 128.542969 27.140625 127.574219 26.363281 C 127.097656 25.976562 126.515625 25.667969 125.882812 25.601562 C 125.578125 25.570312 125.265625 25.589844 124.96875 25.679688 C 124.675781 25.765625 124.398438 25.921875 124.179688 26.132812 C 123.886719 26.414062 123.6875 26.800781 123.617188 27.214844 C 123.542969 27.621094 123.59375 28.050781 123.742188 28.445312 C 124.027344 29.210938 124.6875 29.824219 125.472656 30.191406 C 126.226562 30.539062 127.074219 30.664062 127.957031 30.707031 C 128.796875 30.742188 129.664062 30.699219 130.554688 30.75 C 131.835938 30.820312 133.097656 31.082031 134.40625 31.410156 C 135.601562 31.710938 136.933594 32.089844 138.195312 32.339844 C 139.425781 32.582031 140.730469 32.734375 142.023438 32.609375 C 143.265625 32.488281 144.535156 32.105469 145.578125 31.34375 C 146.933594 30.359375 147.828125 28.8125 148.46875 27.128906 C 148.980469 25.769531 149.351562 24.285156 149.246094 22.800781 C 149.195312 22.078125 149.03125 21.351562 148.730469 20.6875 C 148.429688 20.035156 147.996094 19.429688 147.441406 18.972656 C 146.4375 18.140625 144.992188 17.792969 143.707031 18.164062 C 143.078125 18.34375 142.484375 18.6875 142.015625 19.160156 C 141.554688 19.625 141.207031 20.21875 141.035156 20.863281 C 140.765625 21.859375 140.933594 22.996094 141.519531 23.871094 C 142.085938 24.726562 143.0625 25.328125 144.097656 25.421875 C 144.980469 25.503906 145.894531 25.222656 146.667969 24.722656 C 147.429688 24.226562 148.054688 23.519531 148.570312 22.730469 C 149.570312 21.1875 150.117188 19.324219 151.011719 17.570312 C 151.722656 16.183594 152.640625 14.914062 153.339844 13.53125 C 154.015625 12.1875 154.507812 10.652344 154.25 9.175781 C 154.125 8.425781 153.808594 7.695312 153.304688 7.132812 C 152.804688 6.578125 152.113281 6.179688 151.378906 6.097656 C 150.65625 6.011719 149.878906 6.230469 149.347656 6.730469 C 149.082031 6.980469 148.875 7.292969 148.757812 7.636719 C 148.640625 7.976562 148.609375 8.351562 148.675781 8.703125 C 148.75 9.121094 148.972656 9.515625 149.191406 9.9375 C 149.417969 10.351562 149.644531 10.808594 149.71875 11.332031 C 149.773438 11.761719 149.707031 12.199219 149.535156 12.59375 C 149.363281 12.988281 149.09375 13.332031 148.761719 13.59375 C 148.097656 14.113281 147.21875 14.300781 146.394531 14.160156 C 145.585938 14.019531 144.84375 13.589844 144.269531 13 C 143.703125 12.421875 143.292969 11.707031 143.011719 10.953125 C 142.453125 9.453125 142.371094 7.882812 142.140625 6.34375 C 142.027344 5.585938 141.878906 4.839844 141.621094 4.132812 C 141.363281 3.433594 141 2.769531 140.496094 2.242188 C 139.6875 1.386719 138.5 0.890625 137.304688 0.863281 C 136.125 0.832031 134.929688 1.25 133.964844 1.980469 C 132.839844 2.824219 132.035156 4.082031 131.460938 5.433594 C 130.894531 6.773438 130.550781 8.199219 130.152344 9.65625 C 129.25 12.976562 128.003906 16.484375 125.496094 19.0625 C 124.871094 19.707031 124.140625 20.296875 123.285156 20.667969 C 122.429688 21.039062 121.433594 21.148438 120.515625 20.839844 C 119.988281 20.65625 119.515625 20.335938 119.140625 19.921875 C 118.765625 19.515625 118.484375 19.023438 118.3125 18.5 C 117.96875 17.453125 118.039062 16.308594 118.394531 15.28125 C 118.746094 14.265625 119.347656 13.363281 120.050781 12.578125 C 120.75 11.792969 121.535156 11.117188 122.316406 10.449219 C 123.9375 9.058594 125.652344 7.628906 127.675781 6.734375 C 128.679688 6.289062 129.765625 5.988281 130.882812 5.921875 C 131.992188 5.855469 133.132812 6.035156 134.160156 6.515625 C 135.328125 7.058594 136.328125 8.007812 136.878906 9.203125 C 137.429688 10.394531 137.496094 11.816406 136.992188 13.050781 C 136.554688 14.109375 135.6875 14.988281 134.605469 15.382812 C 134.066406 15.582031 133.484375 15.652344 132.910156 15.589844 C 132.335938 15.523438 131.78125 15.320312 131.300781 14.988281 C 130.765625 14.617188 130.339844 14.101562 130.054688 13.519531 C 129.773438 12.9375 129.621094 12.304688 129.585938 11.667969 C 129.523438 10.398438 129.882812 9.164062 130.398438 8.046875 C 130.765625 7.242188 131.21875 6.464844 131.800781 5.78125 C 132.382812 5.097656 133.101562 4.511719 133.933594 4.132812 C 135.367188 3.484375 137.082031 3.527344 138.496094 4.253906 C 139.894531 4.972656 140.945312 6.339844 141.292969 7.902344 C 141.628906 9.449219 141.265625 11.136719 140.308594 12.410156 C 139.355469 13.671875 137.851562 14.484375 136.273438 14.582031 C 135.886719 14.609375 135.476562 14.589844 135.074219 14.453125 C 134.582031 14.273438 134.167969 13.929688 133.890625 13.492188 C 133.617188 13.058594 133.480469 12.550781 133.476562 12.046875 C 133.472656 11.542969 133.59375 11.050781 133.800781 10.605469 C 134.011719 10.160156 134.300781 9.765625 134.636719 9.425781 C 135.3125 8.753906 136.140625 8.296875 136.96875 7.925781 C 137.792969 7.558594 138.625 7.257812 139.382812 6.855469 C 140.273438 6.382812 141.15625 5.726562 142.214844 5.367188 C 142.746094 5.191406 143.328125 5.105469 143.910156 5.183594 C 144.496094 5.257812 145.070312 5.527344 145.488281 5.988281 C 145.792969 6.332031 145.992188 6.757812 146.074219 7.199219 C 146.15625 7.640625 146.140625 8.085938 146.050781 8.511719 C 145.871094 9.351562 145.453125 10.085938 145.023438 10.761719 C 144.597656 11.429688 144.15625 12.070312 143.90625 12.757812 C 143.78125 13.101562 143.695312 13.457031 143.683594 13.804688 C 143.671875 14.15625 143.726562 14.503906 143.867188 14.808594 C 144.066406 15.257812 144.464844 15.625 144.921875 15.867188 C 145.382812 16.109375 145.921875 16.21875 146.46875 16.253906 C 147.5625 16.328125 148.714844 16.070312 149.929688 16.089844 C 150.707031 16.101562 151.507812 16.242188 152.238281 16.59375 C 152.96875 16.945312 153.609375 17.535156 153.960938 18.308594 C 154.136719 18.691406 154.226562 19.117188 154.21875 19.550781 C 154.210938 19.980469 154.097656 20.414062 153.875 20.792969 C 153.65625 21.171875 153.328125 21.488281 152.929688 21.6875 C 152.53125 21.886719 152.074219 21.957031 151.628906 21.875 C 151.167969 21.785156 150.757812 21.542969 150.449219 21.207031 C 150.140625 20.875 149.929688 20.46875 149.8125 20.046875 C 149.585938 19.199219 149.6875 18.335938 149.890625 17.550781 C 150.242188 16.125 150.898438 14.761719 151.863281 13.636719 C 152.816406 12.511719 154.082031 11.640625 155.511719 11.214844 C 157.488281 10.625 159.730469 10.964844 161.4375 12.171875 C 163.132812 13.375 164.234375 15.402344 164.269531 17.515625 C 164.285156 18.566406 164.042969 19.617188 163.566406 20.554688 C 163.089844 21.492188 162.382812 22.304688 161.515625 22.898438 C 160.652344 23.488281 159.640625 23.851562 158.597656 23.9375 C 157.554688 24.023438 156.496094 23.832031 155.546875 23.378906 C 154.980469 23.109375 154.492188 22.769531 153.992188 22.5625 C 153.742188 22.457031 153.488281 22.378906 153.242188 22.351562 C 152.996094 22.328125 152.75 22.347656 152.539062 22.433594 C 152.261719 22.539062 152.023438 22.765625 151.851562 23.035156 C 151.675781 23.308594 151.582031 23.640625 151.535156 23.984375 C 151.4375 24.675781 151.59375 25.417969 151.691406 26.210938 C 151.804688 27 151.828125 27.882812 151.476562 28.703125 C 151.292969 29.113281 150.996094 29.484375 150.601562 29.738281 C 150.199219 29.992188 149.703125 30.097656 149.21875 29.988281 C 148.824219 29.890625 148.480469 29.660156 148.238281 29.351562 C 147.996094 29.046875 147.847656 28.683594 147.792969 28.3125 C 147.6875 27.570312 147.890625 26.851562 148.210938 26.246094 C 148.523438 25.640625 148.917969 25.125 149.246094 24.605469 C 149.5625 24.085938 149.839844 23.550781 149.882812 23.003906 C 149.929688 22.589844 149.84375 22.105469 149.886719 21.558594 C 149.902344 21.285156 149.96875 20.996094 150.101562 20.71875 C 150.238281 20.4375 150.464844 20.195312 150.769531 20.042969 C 151.027344 19.921875 151.308594 19.890625 151.574219 19.941406 C 151.84375 19.992188 152.085938 20.113281 152.28125 20.292969 C 152.476562 20.46875 152.621094 20.6875 152.714844 20.925781 C 152.804688 21.164062 152.84375 21.414062 152.839844 21.660156 C 152.820312 22.152344 152.644531 22.605469 152.390625 22.984375 C 152.136719 23.359375 151.824219 23.664062 151.507812 23.933594 C 150.886719 24.476562 150.222656 24.914062 149.902344 25.519531 C 149.742188 25.820312 149.644531 26.148438 149.683594 26.453125 C 149.703125 26.601562 149.746094 26.75 149.820312 26.871094 C 149.890625 26.996094 149.992188 27.101562 150.105469 27.167969 C 150.28125 27.285156 150.535156 27.308594 150.789062 27.285156 C 151.046875 27.257812 151.3125 27.152344 151.597656 27.039062 C 152.449219 26.679688 153.292969 26.199219 154.226562 25.851562 C 155.160156 25.496094 156.226562 25.3125 157.261719 25.589844 C 157.84375 25.753906 158.375 26.066406 158.8125 26.472656 C 159.25 26.878906 159.597656 27.371094 159.847656 27.90625 C 160.34375 28.96875 160.476562 30.15625 160.410156 31.289062 C 160.320312 32.871094 159.867188 34.445312 159.015625 35.796875 C 158.167969 37.144531 156.921875 38.253906 155.4375 38.859375 C 153.957031 39.464844 152.253906 39.539062 150.734375 38.980469 C 149.21875 38.425781 147.933594 37.222656 147.332031 35.691406 C 146.972656 34.765625 146.875 33.832031 146.527344 33.0625 C 146.355469 32.679688 146.132812 32.328125 145.839844 32.089844 C 145.546875 31.851562 145.179688 31.699219 144.839844 31.730469 C 144.628906 31.738281 144.410156 31.824219 144.195312 31.941406 C 143.984375 32.058594 143.78125 32.222656 143.574219 32.402344 C 143.167969 32.765625 142.726562 33.207031 142.125 33.488281 C 141.660156 33.695312 141.144531 33.757812 140.644531 33.679688 C 140.148438 33.597656 139.679688 33.375 139.300781 33.046875 C 138.921875 32.714844 138.632812 32.285156 138.46875 31.8125 C 138.304688 31.339844 138.265625 30.828125 138.347656 30.335938 C 138.511719 29.347656 139.15625 28.488281 140.027344 28.027344 C 140.898438 27.578125 141.933594 27.527344 142.84375 27.863281 C 143.351562 28.050781 143.761719 28.3125 144.164062 28.441406 C 144.761719 28.648438 145.445312 28.601562 146.097656 28.429688 C 146.746094 28.253906 147.371094 27.925781 148 27.570312 C 148.621094 27.214844 149.253906 26.820312 149.945312 26.503906 C 150.640625 26.179688 151.40625 25.949219 152.210938 25.945312 C 153.402344 25.949219 154.558594 26.488281 155.359375 27.367188 C 156.15625 28.246094 156.589844 29.417969 156.605469 30.601562 C 156.613281 31.570312 156.359375 32.515625 155.957031 33.371094 C 155.554688 34.222656 155.023438 34.988281 154.449219 35.699219 C 152.085938 38.644531 148.789062 40.96875 145.03125 41.6875 C 143.160156 42.039062 141.203125 41.980469 139.359375 41.441406 C 137.519531 40.90625 135.8125 39.882812 134.503906 38.449219 C 133.207031 37.015625 132.367188 35.296875 131.441406 33.695312 C 130.871094 32.738281 130.269531 31.796875 129.398438 31.289062 C 128.96875 31.03125 128.480469 30.867188 128.007812 30.878906 C 127.539062 30.890625 127.0625 31.058594 126.746094 31.375 C 126.535156 31.582031 126.382812 31.851562 126.339844 32.125 C 126.300781 32.394531 126.355469 32.691406 126.503906 32.898438 C 126.621094 33.066406 126.804688 33.195312 127.007812 33.269531 C 127.210938 33.339844 127.445312 33.351562 127.667969 33.308594 C 128.121094 33.234375 128.539062 32.90625 128.855469 32.503906 C 129.175781 32.09375 129.382812 31.578125 129.574219 31.039062 C 129.761719 30.496094 129.925781 29.914062 130.183594 29.34375 C 130.875 27.796875 132.222656 26.546875 133.859375 26.070312 C 134.671875 25.835938 135.546875 25.800781 136.382812 25.980469 C 137.214844 26.164062 138.003906 26.566406 138.636719 27.152344 C 139.273438 27.734375 139.742188 28.5 139.972656 29.34375 C 140.199219 30.183594 140.175781 31.09375 139.886719 31.921875 C 139.601562 32.753906 139.050781 33.484375 138.328125 33.980469 C 137.601562 34.476562 136.714844 34.71875 135.835938 34.648438 C 135.066406 34.585938 134.316406 34.273438 133.726562 33.757812 C 133.183594 33.285156 132.792969 32.648438 132.605469 31.953125 C 132.414062 31.257812 132.429688 30.515625 132.636719 29.824219 C 132.84375 29.140625 133.238281 28.519531 133.765625 28.039062 C 134.289062 27.558594 134.933594 27.226562 135.625 27.070312 C 136.308594 26.914062 137.03125 26.933594 137.707031 27.125 C 138.382812 27.3125 139.007812 27.660156 139.527344 28.132812 C 140.5625 29.082031 141.132812 30.480469 141.105469 31.882812 C 141.085938 33.039062 140.671875 34.183594 139.921875 35.070312 C 139.171875 35.953125 138.101562 36.550781 136.949219 36.695312 C 135.46875 36.878906 133.945312 36.296875 132.9375 35.191406 C 131.9375 34.089844 131.484375 32.535156 131.710938 31.058594 C 131.9375 29.589844 132.808594 28.253906 134.039062 27.445312 C 135.265625 26.636719 136.804688 26.367188 138.234375 26.671875 C 139.1875 26.875 140.074219 27.320312 140.828125 27.933594 C 141.578125 28.542969 142.1875 29.308594 142.648438 30.152344 C 143.375 31.484375 143.71875 33.078125 143.394531 34.605469 C 143.230469 35.367188 142.890625 36.097656 142.390625 36.707031 C 141.890625 37.316406 141.222656 37.792969 140.46875 38.042969 C 139.261719 38.441406 137.910156 38.230469 136.859375 37.53125 C 135.816406 36.832031 135.101562 35.699219 134.863281 34.46875 C 134.664062 33.449219 134.789062 32.371094 135.222656 31.421875 C 135.65625 30.476562 136.398438 29.683594 137.3125 29.191406 C 138.082031 28.777344 138.96875 28.589844 139.84375 28.667969 C 140.71875 28.746094 141.566406 29.097656 142.238281 29.679688 C 142.910156 30.261719 143.386719 31.066406 143.5625 31.945312 C 143.738281 32.828125 143.605469 33.765625 143.171875 34.558594 C 142.578125 35.609375 141.554688 36.308594 140.476562 36.679688 C 139.410156 37.054688 138.308594 37.167969 137.246094 37.28125 C 134.929688 37.535156 132.570312 37.839844 130.183594 37.726562 C 128.621094 37.660156 127.039062 37.390625 125.558594 36.835938 C 124.777344 36.539062 124.023438 36.164062 123.320312 35.695312 C 122.5 35.144531 121.75 34.460938 121.175781 33.628906 C 120.601562 32.792969 120.222656 31.804688 120.152344 30.769531 C 120.085938 29.59375 120.421875 28.433594 121.003906 27.445312 C 121.582031 26.457031 122.375 25.632812 123.242188 24.941406 C 124.976562 23.554688 126.964844 22.652344 128.65625 21.425781 C 130.246094 20.269531 131.648438 18.78125 133.242188 17.628906 C 134.0625 17.027344 134.960938 16.5 135.941406 16.148438 C 136.921875 15.796875 137.992188 15.640625 139.046875 15.78125 C 140.257812 15.945312 141.414062 16.527344 142.246094 17.449219 C 143.078125 18.375 143.539062 19.632812 143.457031 20.890625 C 143.382812 21.980469 142.902344 23.015625 142.15625 23.789062 C 141.40625 24.5625 140.414062 25.066406 139.367188 25.242188 C 138.191406 25.4375 136.984375 25.230469 135.917969 24.757812 C 134.851562 24.28125 133.921875 23.5625 133.132812 22.730469 C 132.527344 22.097656 131.984375 21.375 131.605469 20.550781 C 131.222656 19.722656 131.035156 18.785156 131.144531 17.851562 C 131.253906 16.914062 131.703125 16.003906 132.449219 15.390625 C 132.824219 15.085938 133.269531 14.867188 133.746094 14.761719 C 134.222656 14.660156 134.726562 14.679688 135.199219 14.832031 C 135.957031 15.082031 136.574219 15.65625 136.921875 16.355469 C 137.269531 17.054688 137.371094 17.84375 137.273438 18.589844 C 137.15625 19.523438 136.75 20.402344 136.136719 21.097656 C 135.519531 21.792969 134.71875 22.296875 133.839844 22.566406 C 132.964844 22.832031 132.03125 22.863281 131.140625 22.675781 C 130.25 22.488281 129.414062 22.089844 128.703125 21.539062 C 127.984375 20.980469 127.382812 20.261719 126.984375 19.429688 C 126.589844 18.59375 126.410156 17.648438 126.515625 16.71875 C 126.617188 15.785156 127.015625 14.882812 127.664062 14.195312 C 128.316406 13.507812 129.210938 13.0625 130.164062 12.992188 C 130.871094 12.941406 131.582031 13.101562 132.203125 13.4375 C 132.824219 13.769531 133.351562 14.261719 133.734375 14.847656 C 134.117188 15.425781 134.359375 16.097656 134.421875 16.796875 C 134.480469 17.496094 134.347656 18.214844 134.023438 18.847656 C 133.695312 19.480469 133.171875 20.003906 132.527344 20.320312 C 131.878906 20.632812 131.128906 20.714844 130.429688 20.527344 C 129.710938 20.328125 129.097656 19.871094 128.679688 19.273438 C 128.261719 18.679688 128.03125 17.980469 127.976562 17.273438 C 127.871094 15.863281 128.378906 14.515625 129.070312 13.378906 C 129.566406 12.550781 130.167969 11.769531 130.902344 11.121094 C 131.636719 10.46875 132.511719 9.957031 133.46875 9.6875 C 134.683594 9.347656 136.003906 9.429688 137.160156 9.941406 C 138.320312 10.457031 139.277344 11.402344 139.796875 12.574219 C 140.070312 13.210938 140.210938 13.867188 140.328125 14.496094 C 140.449219 15.132812 140.554688 15.746094 140.753906 16.304688 C 140.957031 16.855469 141.246094 17.375 141.660156 17.714844 C 141.867188 17.886719 142.101562 18.023438 142.347656 18.09375 C 142.59375 18.164062 142.851562 18.179688 143.089844 18.125 C 143.324219 18.074219 143.554688 17.945312 143.742188 17.777344 C 143.933594 17.609375 144.082031 17.386719 144.191406 17.144531 C 144.410156 16.65625 144.421875 16.070312 144.320312 15.503906 C 144.113281 14.363281 143.351562 13.324219 142.816406 12.109375 C 141.90625 10.09375 141.769531 7.683594 142.683594 5.640625 C 143.148438 4.617188 143.871094 3.714844 144.789062 3.066406 C 145.710938 2.417969 146.824219 2.046875 147.953125 2.039062 C 149.597656 2.042969 151.179688 2.835938 152.230469 4.085938 C 153.09375 5.117188 153.601562 6.425781 153.710938 7.757812 C 153.824219 9.09375 153.554688 10.441406 153 11.640625 C 151.875 14.042969 149.695312 15.785156 147.300781 16.734375 C 146.253906 17.160156 145.105469 17.449219 143.929688 17.359375 C 143.339844 17.308594 142.75 17.15625 142.210938 16.878906 C 141.671875 16.601562 141.191406 16.195312 140.839844 15.683594 C 140.410156 15.042969 140.203125 14.28125 140.191406 13.53125 C 140.179688 12.785156 140.339844 12.054688 140.601562 11.382812 C 140.601562 11.382812 140.601562 11.378906 140.601562 11.378906 C 141.121094 10.035156 141.96875 8.90625 142.664062 7.769531 C 143.238281 6.828125 143.746094 5.804688 144.46875 4.882812 C 144.832031 4.421875 145.25 3.992188 145.738281 3.640625 C 146.230469 3.285156 146.792969 3.023438 147.402344 2.902344 C 148.339844 2.726562 149.304688 2.910156 150.125 3.347656 C 150.945312 3.785156 151.617188 4.441406 152.128906 5.191406 C 153.148438 6.691406 153.5625 8.464844 153.921875 10.140625 C 154.386719 12.242188 154.839844 14.382812 154.8125 16.582031 C 154.789062 18.792969 154.199219 21.074219 152.777344 22.808594 C 151.59375 24.234375 149.929688 25.171875 148.179688 25.617188 C 146.421875 26.066406 144.59375 26.0625 142.839844 25.804688 C 139.988281 25.394531 137.160156 24.265625 135.144531 22.152344 C 134.578125 21.554688 134.078125 20.871094 133.714844 20.113281 C 133.347656 19.351562 133.128906 18.507812 133.121094 17.648438 C 133.113281 16.78125 133.332031 15.910156 133.792969 15.167969 C 134.257812 14.421875 134.972656 13.832031 135.8125 13.558594 C 136.488281 13.34375 137.203125 13.335938 137.867188 13.460938 C 139.378906 13.742188 140.726562 14.660156 141.609375 15.898438 C 142.492188 17.148438 142.917969 18.679688 142.886719 20.191406 C 142.855469 21.707031 142.390625 23.1875 141.628906 24.472656 C 140.867188 25.761719 139.828125 26.855469 138.652344 27.738281 C 137.824219 28.367188 136.898438 28.898438 135.882812 29.207031 C 134.863281 29.515625 133.742188 29.570312 132.699219 29.25 C 131.835938 28.976562 131.070312 28.457031 130.472656 27.792969 C 129.875 27.125 129.445312 26.324219 129.1875 25.476562 C 128.671875 23.777344 128.808594 21.964844 129.269531 20.308594 C 130.0625 17.445312 131.714844 14.945312 133.460938 12.667969 C 135.367188 10.164062 137.539062 7.753906 140.378906 6.351562 C 141.8125 5.648438 143.402344 5.238281 145.003906 5.269531 C 146.617188 5.300781 148.230469 5.808594 149.519531 6.800781 C 150.4375 7.511719 151.167969 8.457031 151.621094 9.527344 C 152.074219 10.605469 152.234375 11.800781 152.074219 12.957031 C 151.902344 14.195312 151.378906 15.351562 150.644531 16.328125 C 149.90625 17.304688 148.96875 18.105469 147.953125 18.746094 C 145.914062 20.023438 143.585938 20.675781 141.359375 21.304688 C 140.09375 21.664062 138.792969 22.035156 137.425781 22.050781 C 136.738281 22.058594 136.042969 21.96875 135.378906 21.742188 C 134.714844 21.515625 134.09375 21.140625 133.59375 20.625 C 133.128906 20.140625 132.792969 19.546875 132.582031 18.917969 C 132.371094 18.292969 132.28125 17.636719 132.273438 16.988281 C 132.265625 15.691406 132.566406 14.441406 132.863281 13.246094 C 133.128906 12.136719 133.414062 11 133.976562 9.953125 C 134.257812 9.429688 134.613281 8.933594 135.054688 8.519531 C 135.496094 8.101562 136.027344 7.769531 136.617188 7.585938 C 137.351562 7.359375 138.136719 7.371094 138.859375 7.570312 C 139.582031 7.773438 140.246094 8.148438 140.808594 8.625 C 141.9375 9.578125 142.6875 10.871094 143.296875 12.148438 C 143.964844 13.539062 144.527344 14.996094 144.820312 16.523438 C 145.117188 18.066406 145.117188 19.683594 144.675781 21.199219 C 144.480469 21.878906 144.1875 22.539062 143.769531 23.125 C 143.351562 23.714844 142.796875 24.21875 142.140625 24.542969 C 141.480469 24.871094 140.714844 24.992188 139.984375 24.847656 C 139.242188 24.703125 138.5625 24.261719 138.148438 23.613281 C 137.792969 23.046875 137.664062 22.375 137.722656 21.734375 C 137.78125 21.089844 138.007812 20.484375 138.324219 19.953125 C 138.964844 18.886719 139.898438 18.09375 140.71875 17.296875 C 141.632812 16.402344 142.5 15.40625 143.625 14.671875 C 144.191406 14.304688 144.820312 14.019531 145.492188 13.886719 C 146.171875 13.75 146.890625 13.78125 147.550781 14.035156 C 148.144531 14.265625 148.652344 14.660156 149.046875 15.144531 C 149.4375 15.625 149.71875 16.1875 149.90625 16.765625 C 150.273438 17.929688 150.289062 19.144531 150.261719 20.304688 C 150.234375 21.621094 150.160156 22.945312 149.882812 24.246094 C 149.601562 25.5625 149.09375 26.84375 148.269531 27.910156 C 147.4375 28.996094 146.261719 29.828125 144.925781 30.117188 C 144.253906 30.261719 143.550781 30.257812 142.878906 30.09375 C 142.207031 29.929688 141.570312 29.597656 141.0625 29.121094 C 140.519531 28.609375 140.136719 27.964844 139.871094 27.300781 C 139.601562 26.632812 139.433594 25.945312 139.277344 25.273438 C 139.105469 24.546875 138.941406 23.804688 138.894531 23.03125 C 138.847656 22.257812 138.941406 21.453125 139.265625 20.722656 C 139.59375 19.984375 140.191406 19.355469 140.960938 19.066406 C 141.351562 18.921875 141.773438 18.878906 142.1875 18.949219 C 142.601562 19.015625 142.996094 19.207031 143.304688 19.503906 C 143.605469 19.796875 143.8125 20.171875 143.921875 20.558594 C 144.035156 20.945312 144.070312 21.34375 144.054688 21.730469 C 144.03125 22.5 143.851562 23.222656 143.808594 23.914062 C 143.785156 24.261719 143.792969 24.605469 143.863281 24.925781 C 143.9375 25.25 144.066406 25.554688 144.269531 25.789062 C 144.46875 26.023438 144.738281 26.203125 145.023438 26.253906 C 145.304688 26.300781 145.617188 26.234375 145.820312 26.054688 C 146.03125 25.886719 146.144531 25.582031 146.191406 25.269531 C 146.238281 24.953125 146.195312 24.609375 146.160156 24.25 C 146.117188 23.886719 146.082031 23.5 146.136719 23.09375 C 146.191406 22.683594 146.378906 22.273438 146.722656 21.984375 C 146.933594 21.8125 147.191406 21.710938 147.453125 21.683594 C 147.714844 21.65625 147.980469 21.691406 148.21875 21.785156 C 148.695312 21.972656 149.066406 22.34375 149.300781 22.765625 C 149.542969 23.1875 149.675781 23.667969 149.695312 24.144531 C 149.714844 24.628906 149.632812 25.105469 149.460938 25.546875 C 149.113281 26.433594 148.449219 27.15625 147.671875 27.640625 C 146.886719 28.128906 146.003906 28.40625 145.125 28.550781 C 144.238281 28.699219 143.347656 28.730469 142.476562 28.75 C 140.664062 28.792969 138.855469 28.804688 137.082031 28.441406 C 135.269531 28.070312 133.523438 27.273438 132.257812 25.925781 C 131.191406 24.789062 130.535156 23.230469 130.648438 21.671875 C 130.710938 20.882812 130.972656 20.109375 131.425781 19.464844 C 131.882812 18.8125 132.53125 18.300781 133.277344 18.039062 C 133.917969 17.816406 134.605469 17.777344 135.257812 17.894531 C 135.914062 18.011719 136.53125 18.277344 137.078125 18.640625 C 138.183594 19.371094 138.988281 20.457031 139.589844 21.585938 C 140.078125 22.492188 140.457031 23.472656 140.558594 24.511719 C 140.660156 25.566406 140.421875 26.671875 139.777344 27.519531 C 139.300781 28.136719 138.609375 28.582031 137.851562 28.734375 C 137.085938 28.890625 136.265625 28.738281 135.617188 28.304688 C 134.960938 27.863281 134.507812 27.140625 134.40625 26.359375 C 134.308594 25.5625 134.589844 24.738281 135.15625 24.1875 C 135.703125 23.664062 136.464844 23.421875 137.195312 23.476562 C 137.933594 23.53125 138.625 23.863281 139.152344 24.355469 C 139.632812 24.796875 139.992188 25.367188 140.171875 25.996094 C 140.347656 26.632812 140.332031 27.316406 140.117188 27.9375 C 139.894531 28.5625 139.464844 29.109375 138.90625 29.453125 C 138.339844 29.800781 137.652344 29.925781 137.003906 29.796875 C 136.363281 29.660156 135.796875 29.285156 135.390625 28.792969 C 134.980469 28.296875 134.722656 27.695312 134.59375 27.078125 C 134.339844 25.835938 134.566406 24.566406 134.8125 23.398438 C 135.222656 21.4375 135.730469 19.511719 136.855469 17.914062 C 137.433594 17.09375 138.171875 16.390625 139.039062 15.921875 C 139.929688 15.441406 140.949219 15.222656 141.933594 15.355469 C 143.109375 15.519531 144.164062 16.175781 144.929688 17.027344 C 145.71875 17.898438 146.246094 18.96875 146.597656 20.039062 C 147.320312 22.21875 147.378906 24.539062 146.667969 26.5625 C 146.292969 27.628906 145.707031 28.597656 144.957031 29.382812 C 144.175781 30.199219 143.21875 30.8125 142.191406 31.152344 C 140.964844 31.554688 139.660156 31.5625 138.480469 31.261719 C 137.230469 30.941406 136.117188 30.277344 135.238281 29.4375 C 134.132812 28.371094 133.394531 27.027344 132.980469 25.683594 C 132.527344 24.207031 132.433594 22.691406 132.546875 21.3125 C 132.828125 17.78125 134.414062 14.957031 136.070312 13.128906 C 138.035156 10.957031 140.261719 9.917969 141.605469 9.441406 C 143.023438 8.9375 143.800781 8.875 143.804688 8.886719 Z M 143.804688 8.886719 " fill-opacity="1" fill-rule="nonzero"/></g></svg>