<svg xmlns="http://www.w3.org/2000/svg" xmlns:xlink="http://www.w3.org/1999/xlink" width="237" zoomAndPan="magnify" viewBox="0 0 177.75 34.499999" height="46" preserveAspectRatio="xMidYMid meet" version="1.0"><defs><clipPath id="22f5561dec"><path d="M 1.144531 0 L 146.996094 0 L 146.996094 33.398438 L 1.144531 33.398438 Z M 1.144531 0 " clip-rule="nonzero"/></clipPath><clipPath id="80eda623ec"><path d="M 17.84375 0 L 130.207031 0 C 134.632812 0 138.882812 1.757812 142.011719 4.890625 C 145.144531 8.023438 146.902344 12.269531 146.902344 16.699219 C 146.902344 21.125 145.144531 25.375 142.011719 28.503906 C 138.882812 31.636719 134.632812 33.398438 130.207031 33.398438 L 17.84375 33.398438 C 13.417969 33.398438 9.167969 31.636719 6.039062 28.503906 C 2.90625 25.375 1.144531 21.125 1.144531 16.699219 C 1.144531 12.269531 2.90625 8.023438 6.039062 4.890625 C 9.167969 1.757812 13.417969 0 17.84375 0 Z M 17.84375 0 " clip-rule="nonzero"/></clipPath><clipPath id="485198582d"><path d="M 1.148438 0 L 146.785156 0 L 146.785156 33.269531 L 1.148438 33.269531 Z M 1.148438 0 " clip-rule="nonzero"/></clipPath><clipPath id="718ec0cc1d"><path d="M 17.847656 0 L 130.203125 0 C 134.628906 0 138.878906 1.757812 142.007812 4.890625 C 145.140625 8.023438 146.898438 12.269531 146.898438 16.699219 C 146.898438 21.125 145.140625 25.371094 142.007812 28.503906 C 138.878906 31.636719 134.628906 33.394531 130.203125 33.394531 L 17.847656 33.394531 C 13.417969 33.394531 9.171875 31.636719 6.039062 28.503906 C 2.90625 25.371094 1.148438 21.125 1.148438 16.699219 C 1.148438 12.269531 2.90625 8.023438 6.039062 4.890625 C 9.171875 1.757812 13.417969 0 17.847656 0 Z M 17.847656 0 " clip-rule="nonzero"/></clipPath><clipPath id="33dbf14306"><path d="M 152.015625 0 L 175.699219 0 L 175.699219 33.488281 L 152.015625 33.488281 Z M 152.015625 0 " clip-rule="nonzero"/></clipPath><clipPath id="2704b4b9cf"><path d="M 163.859375 0 C 170.398438 0 175.699219 5.300781 175.699219 11.839844 L 175.699219 21.554688 C 175.699219 28.09375 170.398438 33.398438 163.859375 33.398438 C 157.316406 33.398438 152.015625 28.09375 152.015625 21.554688 L 152.015625 11.839844 C 152.015625 5.300781 157.316406 0 163.859375 0 Z M 163.859375 0 " clip-rule="nonzero"/></clipPath><clipPath id="5f17173c13"><path d="M 152.015625 0 L 175.675781 0 L 175.675781 33.269531 L 152.015625 33.269531 Z M 152.015625 0 " clip-rule="nonzero"/></clipPath><clipPath id="328a34ae0c"><path d="M 163.855469 0 C 170.394531 0 175.695312 5.300781 175.695312 11.839844 L 175.695312 21.554688 C 175.695312 28.09375 170.394531 33.394531 163.855469 33.394531 C 157.316406 33.394531 152.015625 28.09375 152.015625 21.554688 L 152.015625 11.839844 C 152.015625 5.300781 157.316406 0 163.855469 0 Z M 163.855469 0 " clip-rule="nonzero"/></clipPath><clipPath id="4fd4f72374"><path d="M 14 13.421875 L 134 13.421875 L 134 20.078125 L 14 20.078125 Z M 14 13.421875 " clip-rule="nonzero"/></clipPath><clipPath id="702be53083"><path d="M 154.769531 6.15625 L 173 6.15625 L 173 27.59375 L 154.769531 27.59375 Z M 154.769531 6.15625 " clip-rule="nonzero"/></clipPath></defs><g clip-path="url(#22f5561dec)"><g clip-path="url(#80eda623ec)"><path fill="#ffffff" d="M 1.144531 0 L 146.863281 0 L 146.863281 33.398438 L 1.144531 33.398438 Z M 1.144531 0 " fill-opacity="1" fill-rule="nonzero"/></g></g><g clip-path="url(#485198582d)"><g clip-path="url(#718ec0cc1d)"><path stroke-linecap="butt" transform="matrix(0.739286, 0, 0, 0.739286, 1.148549, 0.000000000000325682)" fill="none" stroke-linejoin="miter" d="M 22.588165 -0.000000000000440537 L 174.566578 -0.000000000000440537 C 180.553142 -0.000000000000440537 186.301934 2.377717 190.534271 6.615338 C 194.771892 10.852959 197.149609 16.596468 197.149609 22.588315 C 197.149609 28.574879 194.771892 34.318388 190.534271 38.556009 C 186.301934 42.79363 180.553142 45.171347 174.566578 45.171347 L 22.588165 45.171347 C 16.596317 45.171347 10.852808 42.79363 6.615188 38.556009 C 2.377567 34.318388 -0.000150635 28.574879 -0.000150635 22.588315 C -0.000150635 16.596468 2.377567 10.852959 6.615188 6.615338 C 10.852808 2.377717 16.596317 -0.000000000000440537 22.588165 -0.000000000000440537 Z M 22.588165 -0.000000000000440537 " stroke="#000000" stroke-width="2" stroke-opacity="1" stroke-miterlimit="4"/></g></g><g clip-path="url(#33dbf14306)"><g clip-path="url(#2704b4b9cf)"><path fill="#ffffff" d="M 152.015625 0 L 175.699219 0 L 175.699219 33.394531 L 152.015625 33.394531 Z M 152.015625 0 " fill-opacity="1" fill-rule="nonzero"/></g></g><g clip-path="url(#5f17173c13)"><g clip-path="url(#328a34ae0c)"><path stroke-linecap="butt" transform="matrix(0.739286, 0, 0, 0.739286, 152.01728, 0.00000000000040185)" fill="none" stroke-linejoin="miter" d="M 16.013009 -0.000000000000543565 C 24.858118 -0.000000000000543565 32.028257 7.170139 32.028257 16.015248 L 32.028257 29.156099 C 32.028257 38.001208 24.858118 45.171347 16.013009 45.171347 C 7.1679 45.171347 -0.00223846 38.001208 -0.00223846 29.156099 L -0.00223846 16.015248 C -0.00223846 7.170139 7.1679 -0.000000000000543565 16.013009 -0.000000000000543565 Z M 16.013009 -0.000000000000543565 " stroke="#000000" stroke-width="2" stroke-opacity="1" stroke-miterlimit="4"/></g></g><g clip-path="url(#4fd4f72374)"><path fill="#000000" d="M 127.269531 15.726562 C 125.566406 14.648438 123.636719 13.425781 119.953125 13.425781 C 116.269531 13.425781 114.339844 14.648438 112.636719 15.726562 C 111 16.761719 109.585938 17.660156 106.582031 17.660156 C 103.582031 17.660156 102.167969 16.761719 100.53125 15.726562 C 98.828125 14.648438 96.898438 13.425781 93.214844 13.425781 C 89.53125 13.425781 87.601562 14.648438 85.898438 15.726562 C 84.261719 16.761719 82.847656 17.660156 79.84375 17.660156 C 76.84375 17.660156 75.429688 16.761719 73.792969 15.726562 C 72.089844 14.648438 70.160156 13.425781 66.476562 13.425781 C 62.792969 13.425781 60.863281 14.648438 59.160156 15.726562 C 57.523438 16.761719 56.109375 17.660156 53.109375 17.660156 C 50.109375 17.660156 48.695312 16.761719 47.054688 15.726562 C 45.351562 14.648438 43.421875 13.425781 39.738281 13.425781 C 36.054688 13.425781 34.125 14.648438 32.425781 15.726562 C 30.785156 16.761719 29.371094 17.660156 26.371094 17.660156 C 23.371094 17.660156 21.957031 16.761719 20.316406 15.726562 C 18.925781 14.84375 17.382812 13.867188 14.851562 13.539062 L 14.851562 15.980469 C 16.667969 16.269531 17.796875 16.980469 19.054688 17.777344 C 20.757812 18.855469 22.6875 20.078125 26.371094 20.078125 C 30.054688 20.078125 31.984375 18.855469 33.6875 17.777344 C 35.324219 16.742188 36.738281 15.84375 39.738281 15.84375 C 42.742188 15.84375 44.15625 16.742188 45.792969 17.777344 C 47.496094 18.855469 49.425781 20.078125 53.109375 20.078125 C 56.792969 20.078125 58.722656 18.855469 60.425781 17.777344 C 62.0625 16.742188 63.476562 15.84375 66.476562 15.84375 C 69.476562 15.84375 70.890625 16.742188 72.53125 17.777344 C 74.230469 18.855469 76.160156 20.078125 79.84375 20.078125 C 83.53125 20.078125 85.457031 18.855469 87.160156 17.777344 C 88.800781 16.742188 90.214844 15.84375 93.214844 15.84375 C 96.214844 15.84375 97.628906 16.742188 99.269531 17.777344 C 100.96875 18.855469 102.898438 20.078125 106.582031 20.078125 C 110.265625 20.078125 112.195312 18.855469 113.898438 17.777344 C 115.539062 16.742188 116.953125 15.84375 119.953125 15.84375 C 122.953125 15.84375 124.367188 16.742188 126.007812 17.777344 C 127.710938 18.855469 129.640625 20.078125 133.324219 20.078125 L 133.324219 17.660156 C 130.324219 17.660156 128.910156 16.761719 127.269531 15.726562 " fill-opacity="1" fill-rule="nonzero"/></g><g clip-path="url(#702be53083)"><path fill="#000814" d="M 172.9375 11.441406 C 166.566406 15.121094 163.855469 13.554688 163.855469 6.195312 C 163.855469 13.554688 161.140625 15.121094 154.769531 11.441406 C 161.140625 15.121094 161.140625 18.253906 154.769531 21.933594 C 161.140625 18.253906 163.855469 19.820312 163.855469 27.179688 C 163.855469 19.820312 166.566406 18.253906 172.9375 21.933594 C 166.566406 18.253906 166.566406 15.121094 172.9375 11.441406 Z M 172.9375 11.441406 " fill-opacity="1" fill-rule="nonzero"/></g></svg>