<svg xmlns="http://www.w3.org/2000/svg" xmlns:xlink="http://www.w3.org/1999/xlink" width="229" zoomAndPan="magnify" viewBox="0 0 171.75 217.499994" height="290" preserveAspectRatio="xMidYMid meet" version="1.0"><defs><clipPath id="d1be1e4914"><path d="M 2 21.160156 L 170 21.160156 L 170 216.261719 L 2 216.261719 Z M 2 21.160156 " clip-rule="nonzero"/></clipPath><clipPath id="d163925610"><path d="M 5 21.160156 L 167 21.160156 L 167 208.8125 L 5 208.8125 Z M 5 21.160156 " clip-rule="nonzero"/></clipPath><clipPath id="42c026e5a4"><path d="M 32 79 L 151.679688 79 L 151.679688 194 L 32 194 Z M 32 79 " clip-rule="nonzero"/></clipPath><clipPath id="7e5f913253"><path d="M 31.785156 84 L 151.679688 84 L 151.679688 194.191406 L 31.785156 194.191406 Z M 31.785156 84 " clip-rule="nonzero"/></clipPath><clipPath id="c3027633c6"><path d="M 8 0 L 53.347656 0 L 53.347656 85.636719 L 8 85.636719 Z M 8 0 " clip-rule="nonzero"/></clipPath></defs><g clip-path="url(#d1be1e4914)"><path fill="#00215e" d="M 102.523438 117.71875 C 98.304688 110.335938 99.539062 101.035156 102.226562 92.964844 C 104.917969 84.898438 108.945312 77.261719 110.230469 68.824219 C 110.640625 65.8125 110.714844 62.789062 110.445312 59.757812 C 110.179688 56.726562 109.578125 53.765625 108.648438 50.867188 C 107.714844 47.972656 106.476562 45.214844 104.925781 42.59375 C 103.375 39.976562 101.554688 37.5625 99.464844 35.351562 C 97.351562 33.171875 95.042969 31.214844 92.539062 29.492188 C 90.035156 27.765625 87.390625 26.304688 84.597656 25.105469 C 81.804688 23.902344 78.921875 22.988281 75.949219 22.359375 C 72.976562 21.734375 69.96875 21.402344 66.929688 21.367188 C 53.738281 21.191406 40.828125 26.460938 29.882812 33.898438 C 24.28125 37.703125 18.988281 42.1875 15.433594 47.945312 C 12.609375 52.597656 10.941406 57.898438 9.539062 63.183594 C 5.828125 77.195312 3.5 91.4375 2.546875 105.902344 C 1.597656 120.367188 2.042969 134.785156 3.886719 149.164062 C 5.5625 162.148438 8.441406 175.160156 14.613281 186.707031 C 20.78125 198.257812 30.535156 208.253906 42.875 212.652344 C 50.078125 215.226562 57.820312 215.816406 65.464844 216.003906 C 88.441406 216.585938 111.054688 213.980469 133.296875 208.179688 C 142.472656 205.785156 152.035156 202.527344 158.109375 195.242188 C 161.273438 191.433594 163.269531 186.804688 164.953125 182.132812 C 168.824219 171.386719 171.28125 159.375 167.285156 148.660156 C 162.570312 136.003906 149.820312 129.234375 136.820312 129.105469 C 124.449219 128.9375 109.726562 130.46875 102.523438 117.71875 Z M 102.523438 117.71875 " fill-opacity="1" fill-rule="nonzero"/></g><g clip-path="url(#d163925610)"><path fill="#00215e" d="M 69.738281 113.871094 C 73.789062 106.78125 72.605469 97.851562 70.023438 90.105469 C 67.441406 82.359375 63.570312 75.027344 62.335938 66.925781 C 61.941406 64.03125 61.875 61.128906 62.132812 58.21875 C 62.386719 55.308594 62.964844 52.464844 63.859375 49.683594 C 64.753906 46.902344 65.945312 44.253906 67.433594 41.742188 C 68.917969 39.226562 70.667969 36.910156 72.675781 34.789062 C 74.707031 32.691406 76.921875 30.816406 79.324219 29.160156 C 81.726562 27.503906 84.269531 26.097656 86.949219 24.945312 C 89.632812 23.792969 92.398438 22.917969 95.253906 22.3125 C 98.109375 21.710938 100.996094 21.390625 103.914062 21.359375 C 116.582031 21.1875 128.976562 26.25 139.484375 33.390625 C 144.863281 37.046875 149.945312 41.347656 153.359375 46.878906 C 156.070312 51.34375 157.671875 56.4375 159.019531 61.511719 C 162.582031 74.964844 164.816406 88.636719 165.730469 102.523438 C 166.644531 116.414062 166.214844 130.261719 164.445312 144.066406 C 162.835938 156.53125 160.070312 169.027344 154.148438 180.113281 C 148.222656 191.203125 138.859375 200.800781 127.011719 205.023438 C 120.09375 207.496094 112.664062 208.0625 105.320312 208.246094 C 83.257812 208.804688 61.546875 206.296875 40.191406 200.730469 C 31.382812 198.433594 22.199219 195.304688 16.363281 188.304688 C 13.328125 184.652344 11.414062 180.207031 9.792969 175.71875 C 6.078125 165.402344 3.71875 153.867188 7.554688 143.582031 C 12.082031 131.429688 24.324219 124.929688 36.808594 124.808594 C 48.6875 124.644531 62.824219 126.113281 69.738281 113.871094 Z M 69.738281 113.871094 " fill-opacity="1" fill-rule="nonzero"/></g><g clip-path="url(#42c026e5a4)"><path fill="#ffffff" d="M 47.09375 114.304688 C 48.414062 109.089844 49.664062 106.8125 52.082031 104.976562 C 54.355469 103.285156 57.582031 101.816406 62.351562 100.789062 C 67.339844 99.90625 67.484375 97.335938 68.734375 93.148438 C 69.101562 91.898438 70.933594 91.53125 71.667969 92.488281 C 71.742188 92.339844 71.886719 92.265625 72.035156 92.191406 C 71.960938 91.605469 72.765625 89.914062 72.765625 89.328125 C 72.472656 83.378906 74.382812 80.367188 79.296875 79.261719 C 80.320312 79.042969 87.511719 78.894531 88.539062 79.191406 C 93.011719 80.4375 97.484375 84.40625 96.824219 89.179688 C 98.21875 91.015625 99.613281 92.191406 101.8125 92.78125 C 106.65625 93.367188 111.496094 93.957031 116.410156 94.398438 C 125.871094 95.867188 134.820312 100.859375 140.910156 108.28125 C 141.496094 108.941406 141.640625 109.898438 141.128906 110.632812 C 141.496094 112.320312 143.695312 116.363281 142.007812 117.464844 C 144.871094 124.222656 151.324219 137.371094 151.398438 141.117188 C 151.472656 156.839844 149.785156 177.335938 134.234375 186.003906 C 133.648438 186.589844 133.5 187.324219 133.28125 188.207031 C 132.621094 191.074219 130.125 193.128906 127.414062 192.984375 C 114.0625 193.277344 101.152344 191.660156 87.804688 191.585938 C 81.9375 191.585938 74.820312 192.394531 69.761719 192.984375 C 64.699219 193.570312 59.492188 193.054688 54.578125 191.585938 C 54.136719 192.25 53.328125 192.617188 52.449219 192.394531 C 47.386719 191.367188 43.28125 188.28125 39.6875 184.828125 C 38.585938 182.84375 34.332031 177.1875 36.019531 175.203125 C 34.480469 168.667969 34.550781 161.6875 37.265625 155.445312 C 36.898438 154.339844 37.558594 153.019531 37.265625 151.84375 C 37.046875 150.960938 36.460938 150.667969 36.164062 149.785156 C 35.726562 148.613281 36.164062 146.996094 36.679688 145.820312 C 36.898438 145.230469 36.3125 144.570312 36.164062 143.984375 C 35.433594 141.117188 37.121094 141.339844 38.292969 139.429688 C 38.292969 139.429688 38 138.03125 38 138.03125 C 37.851562 137.078125 38.292969 135.753906 38.660156 134.949219 C 38.953125 134.359375 39.539062 134.066406 40.054688 134.140625 C 39.464844 132.15625 38.734375 130.539062 37.925781 128.628906 C 36.53125 125.25 34.773438 122.089844 32.792969 119.078125 C 31.984375 117.832031 33.085938 116.433594 34.40625 116.289062 C 38.660156 115.921875 42.914062 115.261719 47.09375 114.304688 Z M 47.09375 114.304688 " fill-opacity="1" fill-rule="evenodd"/></g><g clip-path="url(#7e5f913253)"><path fill="#000000" d="M 59.636719 139.648438 C 61.324219 138.988281 63.230469 138.621094 65.066406 138.472656 C 64.039062 138.328125 63.085938 138.105469 62.058594 138.03125 C 61.324219 137.960938 60.664062 137.960938 60.152344 138.546875 C 59.785156 138.914062 59.636719 139.355469 59.417969 139.796875 C 59.492188 139.722656 59.5625 139.648438 59.636719 139.648438 Z M 41.226562 133.332031 C 44.015625 133.476562 46.875 134.140625 49.367188 135.386719 C 50.394531 135.902344 51.347656 136.636719 51.644531 137.8125 C 51.789062 138.398438 51.714844 139.0625 51.644531 139.648438 C 51.570312 140.089844 51.570312 140.675781 51.203125 141.046875 C 51.128906 141.117188 51.054688 141.117188 50.984375 141.191406 C 51.9375 141.632812 52.816406 142.148438 53.621094 142.660156 C 54.355469 143.175781 55.089844 143.910156 55.457031 144.71875 C 55.457031 144.644531 55.53125 144.570312 55.53125 144.425781 C 56.117188 142.734375 56.996094 141.339844 58.390625 140.457031 C 58.171875 140.382812 57.949219 140.089844 58.023438 139.722656 C 58.316406 138.253906 59.710938 136.929688 61.324219 137.003906 C 63.011719 137.078125 64.917969 137.738281 66.460938 138.546875 C 67.046875 138.546875 67.558594 138.546875 68.144531 138.546875 C 68.21875 138.546875 68.21875 138.695312 68.144531 138.695312 C 67.707031 138.769531 67.265625 138.839844 66.753906 138.914062 C 65.652344 139.0625 64.625 139.28125 63.523438 139.574219 C 62.277344 139.871094 60.957031 140.238281 59.785156 140.824219 C 57.511719 141.925781 56.117188 144.792969 56.410156 147.363281 C 56.484375 147.804688 56.628906 149.050781 57.21875 148.90625 C 57.730469 148.832031 57.878906 147.804688 58.097656 147.4375 C 58.539062 146.40625 59.34375 145.820312 60.371094 145.378906 C 61.542969 144.863281 62.71875 144.496094 63.964844 144.128906 C 64.480469 143.617188 65.140625 143.324219 65.871094 143.101562 C 66.53125 142.882812 67.191406 142.515625 67.925781 142.734375 C 68.367188 142.808594 68.441406 143.394531 68.144531 143.691406 C 67.78125 144.128906 67.191406 144.277344 66.679688 144.496094 C 65.945312 144.71875 65.210938 145.011719 64.550781 145.230469 C 63.453125 145.601562 62.277344 145.96875 61.179688 146.40625 L 61.179688 146.480469 C 61.25 146.480469 61.398438 146.554688 61.324219 146.628906 C 61.179688 147.65625 60.957031 148.757812 61.179688 149.785156 C 61.398438 150.59375 62.058594 151.476562 63.011719 151.257812 C 62.863281 151.109375 62.792969 150.890625 62.9375 150.667969 C 63.304688 149.933594 68 146.847656 68.441406 148.023438 C 68.441406 148.097656 68.441406 148.097656 68.367188 148.097656 C 68 148.023438 67.414062 148.613281 67.121094 148.832031 C 66.679688 149.125 66.3125 149.417969 65.871094 149.640625 C 65.433594 149.933594 64.992188 150.300781 64.550781 150.59375 C 64.183594 150.890625 63.964844 151.109375 63.597656 151.257812 C 63.820312 151.328125 63.964844 151.550781 64.039062 151.769531 C 64.183594 152.429688 64.550781 152.945312 65.140625 153.167969 C 65.726562 153.460938 66.460938 153.238281 67.046875 153.3125 C 67.925781 153.386719 68.660156 153.828125 69.320312 154.414062 C 70.640625 155.664062 71.300781 157.867188 73.207031 158.457031 C 74.308594 158.824219 75.554688 158.601562 76.726562 158.457031 C 77.976562 158.308594 79.222656 158.160156 80.46875 158.308594 C 81.714844 158.457031 82.816406 158.894531 83.917969 159.410156 C 84.941406 159.925781 86.117188 160.4375 87.070312 161.171875 C 87.289062 160.585938 87.4375 160 87.582031 159.410156 C 87.949219 158.015625 88.097656 156.546875 88.171875 155.078125 C 88.242188 153.679688 88.171875 152.285156 88.023438 150.890625 C 87.949219 150.226562 87.878906 149.492188 87.804688 148.832031 C 87.804688 148.683594 87.730469 148.464844 87.730469 148.316406 C 86.042969 147.363281 84.355469 146.628906 82.597656 145.820312 C 82.523438 145.820312 82.523438 145.746094 82.449219 145.746094 C 82.230469 145.601562 82.082031 145.453125 82.007812 145.304688 C 79.515625 143.617188 77.386719 141.339844 75.773438 138.695312 C 75.113281 137.59375 74.453125 136.417969 73.648438 135.460938 C 72.695312 134.433594 71.667969 133.773438 70.273438 133.476562 C 68.734375 133.109375 67.046875 132.890625 65.433594 132.742188 C 64.550781 132.671875 63.597656 132.597656 62.570312 132.597656 C 61.910156 132.597656 61.25 132.671875 60.664062 132.816406 C 59.785156 133.039062 59.269531 133.773438 58.683594 134.433594 C 58.171875 135.09375 57.582031 135.753906 57.144531 136.417969 C 56.703125 137.078125 56.191406 137.738281 55.824219 138.472656 C 55.601562 138.914062 55.382812 139.355469 55.164062 139.796875 C 55.089844 139.941406 55.015625 140.164062 54.941406 140.308594 C 54.871094 140.457031 54.941406 140.675781 54.796875 140.675781 C 55.53125 140.675781 55.53125 141.925781 54.796875 141.851562 C 51.789062 141.707031 56.117188 135.828125 56.703125 135.019531 C 57.582031 133.847656 58.539062 132.375 59.929688 131.863281 C 59.929688 131.863281 60.003906 131.863281 60.003906 131.863281 C 59.5625 131.496094 59.269531 130.980469 58.976562 130.539062 C 58.683594 130.027344 58.242188 129.511719 58.171875 128.921875 C 58.097656 128.554688 58.539062 128.335938 58.757812 128.628906 C 59.050781 129.070312 59.199219 129.730469 59.492188 130.246094 C 59.710938 130.761719 60.003906 131.273438 60.222656 131.789062 C 60.8125 131.640625 61.398438 131.570312 61.984375 131.496094 C 61.179688 130.464844 59.859375 128.410156 59.710938 128.117188 C 58.976562 126.941406 58.242188 125.691406 57.582031 124.441406 C 56.851562 123.121094 56.261719 121.652344 55.53125 120.328125 C 55.164062 119.519531 54.722656 118.785156 54.28125 118.050781 C 54.136719 117.757812 53.988281 117.539062 53.769531 117.316406 C 53.769531 117.242188 53.695312 117.242188 53.621094 117.167969 C 53.550781 117.167969 53.550781 117.097656 53.476562 117.097656 C 53.257812 116.949219 53.109375 116.582031 52.964844 116.433594 C 52.667969 116.066406 52.375 116.066406 51.9375 116.066406 C 51.054688 116.066406 50.101562 116.066406 49.222656 116.140625 C 47.902344 116.214844 46.582031 116.214844 45.261719 116.289062 C 44.894531 116.289062 44.453125 116.363281 44.085938 116.363281 C 42.179688 116.507812 40.199219 116.65625 38.292969 116.800781 C 36.605469 116.949219 34.917969 117.242188 33.160156 117.390625 C 35.433594 122.898438 38 128.261719 40.933594 133.476562 C 41.152344 133.183594 41.226562 133.257812 41.226562 133.332031 Z M 53.988281 147.4375 C 54.355469 147.582031 54.722656 147.804688 55.089844 148.097656 C 55.015625 147.730469 55.015625 147.289062 55.015625 146.921875 C 54.722656 147.214844 54.429688 147.363281 53.988281 147.4375 Z M 38.144531 138.03125 C 38.144531 138.03125 38.21875 138.03125 38.144531 138.03125 C 38.734375 139.136719 38.511719 140.308594 37.632812 141.191406 C 37.191406 141.632812 36.238281 142.148438 36.238281 142.808594 C 36.238281 143.394531 36.898438 143.835938 37.191406 144.351562 C 37.414062 144.792969 37.558594 145.304688 37.339844 145.746094 C 37.121094 146.335938 36.386719 146.628906 36.09375 147.214844 C 35.800781 147.949219 36.3125 148.90625 36.605469 149.566406 C 36.898438 150.152344 37.339844 150.816406 37.632812 151.476562 C 39.539062 152.429688 41.226562 153.972656 42.695312 155.515625 C 44.308594 157.207031 45.628906 159.117188 48.195312 159.117188 C 48.414062 159.117188 48.636719 159.261719 48.78125 159.410156 C 49.515625 159.410156 50.175781 159.484375 50.910156 159.484375 C 52.15625 159.484375 53.402344 159.484375 54.648438 159.410156 C 54.722656 159.117188 54.648438 158.675781 54.648438 158.457031 C 54.648438 157.648438 54.648438 156.839844 54.722656 156.03125 C 54.722656 155.8125 54.722656 155.589844 54.722656 155.371094 C 54.28125 156.179688 53.402344 156.546875 52.449219 156.472656 C 50.835938 156.398438 49.296875 156.105469 47.683594 155.882812 C 46.875 155.738281 45.996094 155.589844 45.1875 155.445312 C 44.527344 155.296875 43.574219 155.371094 43.0625 154.78125 C 42.914062 154.636719 42.914062 154.414062 43.132812 154.339844 C 43.574219 154.121094 43.867188 154.269531 44.382812 154.339844 C 45.042969 154.488281 45.628906 154.5625 46.289062 154.707031 C 47.535156 154.929688 48.707031 155.148438 49.957031 155.296875 C 50.617188 155.371094 51.347656 155.515625 52.007812 155.589844 C 52.597656 155.664062 53.328125 155.738281 53.769531 155.296875 C 54.722656 154.339844 54.210938 152.800781 53.550781 151.917969 C 53.550781 151.917969 53.550781 151.917969 53.550781 151.84375 C 52.960938 151.695312 52.375 151.550781 51.789062 151.402344 C 50.6875 151.183594 49.515625 151.035156 48.414062 150.816406 C 46.066406 150.449219 43.722656 150.226562 41.375 150.007812 C 40.785156 149.933594 40.785156 149.050781 41.375 149.125 C 44.746094 149.417969 48.121094 149.714844 51.421875 150.375 C 52.230469 150.523438 53.109375 150.742188 53.917969 150.960938 C 54.28125 151.035156 54.722656 151.183594 55.164062 151.183594 C 55.164062 151.183594 55.238281 151.183594 55.238281 151.183594 C 56.042969 151.183594 56.117188 150.449219 55.675781 149.933594 C 55.601562 149.859375 55.601562 149.785156 55.53125 149.714844 C 54.722656 148.757812 53.769531 148.171875 52.816406 147.507812 C 51.714844 147.363281 50.617188 146.996094 49.515625 146.773438 C 46.800781 146.1875 44.160156 145.527344 41.445312 144.9375 C 40.933594 144.792969 41.152344 143.984375 41.667969 144.128906 C 43.722656 144.570312 45.773438 145.085938 47.828125 145.527344 L 50.835938 146.1875 C 51.421875 146.335938 52.15625 146.628906 52.890625 146.703125 C 53.257812 146.773438 53.550781 146.773438 53.84375 146.703125 C 54.796875 146.480469 54.871094 145.230469 54.429688 144.496094 C 53.988281 143.691406 53.035156 143.175781 52.230469 142.734375 C 50.835938 141.925781 49.367188 141.339844 47.976562 140.675781 C 47.753906 140.605469 47.460938 140.53125 47.242188 140.53125 C 45.773438 140.238281 44.085938 140.015625 42.695312 139.429688 C 42.253906 139.28125 42.472656 138.621094 42.914062 138.621094 C 44.015625 138.621094 45.113281 139.0625 46.214844 139.28125 C 47.386719 139.503906 48.488281 139.796875 49.664062 140.015625 C 49.808594 140.015625 50.46875 140.238281 50.542969 140.238281 C 50.617188 140.238281 50.617188 139.941406 50.617188 139.796875 C 50.6875 139.28125 50.761719 138.769531 50.6875 138.328125 C 50.542969 137.226562 49.589844 136.710938 48.707031 136.269531 C 46.65625 135.316406 44.382812 134.726562 42.105469 134.507812 C 41.59375 134.433594 41.082031 134.433594 40.566406 134.433594 C 39.980469 134.433594 39.464844 134.285156 39.101562 134.949219 C 38.585938 135.683594 38.292969 136.929688 38.144531 138.03125 Z M 41.007812 172.707031 C 41.445312 171.164062 41.300781 169.476562 41.667969 167.859375 C 41.8125 167.050781 42.035156 166.242188 42.253906 165.433594 C 42.472656 164.773438 42.765625 164.113281 42.765625 163.449219 C 42.765625 163.378906 42.695312 163.378906 42.695312 163.378906 C 42.035156 163.746094 41.59375 164.554688 41.226562 165.140625 C 40.785156 165.875 40.492188 166.683594 40.199219 167.492188 C 39.6875 169.109375 39.246094 171.089844 39.90625 172.707031 C 40.125 173.222656 40.859375 173.292969 41.007812 172.707031 Z M 54.941406 151.992188 C 54.578125 151.917969 54.210938 151.84375 53.769531 151.769531 C 54.210938 152.210938 54.578125 152.652344 54.796875 153.238281 C 54.871094 152.871094 54.941406 152.429688 54.941406 151.992188 Z M 58.609375 184.535156 C 59.269531 184.09375 59.785156 183.433594 60.371094 182.84375 C 60.957031 182.257812 60.078125 181.375 59.492188 181.964844 C 58.976562 182.476562 58.609375 183.066406 58.023438 183.507812 C 57.730469 183.726562 57.65625 184.019531 57.804688 184.386719 C 57.949219 184.609375 58.316406 184.753906 58.609375 184.535156 Z M 62.351562 166.460938 C 61.105469 165.949219 59.929688 165.359375 58.609375 164.992188 C 57.878906 164.773438 57.511719 165.949219 58.316406 166.167969 C 59.492188 166.535156 60.589844 167.050781 61.765625 167.566406 C 62.5 167.859375 63.085938 166.757812 62.351562 166.460938 Z M 75.335938 166.09375 C 75.628906 165.359375 74.453125 165.066406 74.160156 165.800781 C 73.792969 166.609375 73.425781 167.492188 73.0625 168.300781 C 72.765625 169.035156 73.941406 169.328125 74.234375 168.59375 C 74.601562 167.785156 74.96875 166.902344 75.335938 166.09375 Z M 88.097656 180.933594 C 88.316406 181.230469 88.609375 181.375 88.976562 181.15625 C 89.269531 181.007812 89.417969 180.566406 89.199219 180.273438 C 88.609375 179.464844 88.023438 178.730469 87.289062 177.996094 C 86.703125 177.410156 85.824219 178.289062 86.410156 178.878906 C 87.070312 179.539062 87.582031 180.199219 88.097656 180.933594 Z M 89.929688 97.777344 C 89.34375 98.144531 88.832031 98.65625 88.390625 99.097656 C 87.804688 99.6875 88.683594 100.566406 89.269531 99.980469 C 89.710938 99.539062 90.078125 99.171875 90.589844 98.804688 C 90.882812 98.582031 90.957031 98.289062 90.8125 97.921875 C 90.664062 97.703125 90.222656 97.628906 89.929688 97.777344 Z M 71.375 117.757812 C 71.667969 118.417969 71.960938 119.007812 72.035156 119.742188 C 72.035156 120.550781 73.28125 120.550781 73.28125 119.742188 C 73.28125 118.785156 72.914062 117.976562 72.472656 117.097656 C 72.035156 116.433594 71.007812 117.023438 71.375 117.757812 Z M 64.480469 101.742188 C 63.820312 101.300781 63.160156 102.402344 63.820312 102.84375 C 64.332031 103.210938 64.917969 103.578125 65.433594 103.945312 C 66.09375 104.386719 66.753906 103.285156 66.09375 102.84375 C 65.578125 102.402344 65.066406 102.109375 64.480469 101.742188 Z M 94.113281 129.804688 C 94.257812 130.613281 95.433594 130.246094 95.285156 129.511719 C 95.140625 128.335938 94.917969 127.085938 94.550781 125.910156 C 94.332031 125.175781 93.160156 125.472656 93.378906 126.207031 C 93.746094 127.382812 93.964844 128.554688 94.113281 129.804688 Z M 98.4375 143.984375 C 99.246094 143.984375 99.246094 142.734375 98.4375 142.734375 C 97.707031 142.734375 96.972656 142.953125 96.3125 143.101562 C 95.503906 143.324219 95.871094 144.496094 96.605469 144.277344 C 97.265625 144.203125 97.851562 144.058594 98.4375 143.984375 Z M 100.054688 172.707031 C 100.347656 172.855469 100.640625 172.925781 100.859375 173.074219 C 101.445312 173.292969 101.960938 173.589844 102.546875 173.808594 C 103.71875 174.324219 104.820312 174.835938 105.996094 175.425781 C 108.269531 176.527344 110.617188 177.554688 112.960938 178.585938 C 115.308594 179.6875 117.65625 180.789062 120.003906 181.890625 C 121.105469 182.402344 122.203125 182.917969 123.378906 183.433594 C 124.332031 183.875 125.503906 184.609375 126.53125 184.679688 C 126.605469 184.679688 126.605469 184.609375 126.605469 184.609375 C 126.238281 184.167969 125.578125 183.875 125.066406 183.578125 C 124.550781 183.285156 123.964844 182.992188 123.453125 182.699219 C 122.351562 182.109375 121.175781 181.523438 120.078125 180.933594 C 117.804688 179.757812 115.53125 178.65625 113.257812 177.480469 C 110.910156 176.308594 108.636719 175.132812 106.289062 174.03125 C 105.1875 173.515625 104.085938 173 102.988281 172.488281 C 102.398438 172.191406 101.8125 171.898438 101.226562 171.605469 C 100.933594 171.457031 100.714844 171.386719 100.417969 171.238281 C 100.054688 171.089844 99.832031 171.089844 99.464844 171.015625 C 98.878906 170.871094 98.585938 171.605469 99.097656 171.972656 C 99.464844 172.265625 99.6875 172.488281 100.054688 172.707031 Z M 108.339844 185.417969 C 108.488281 185.121094 108.195312 184.753906 107.902344 184.679688 C 107.535156 184.609375 107.242188 184.828125 107.167969 185.121094 C 106.800781 185.929688 106.359375 186.738281 105.699219 187.324219 C 105.113281 187.914062 105.996094 188.796875 106.582031 188.207031 C 107.386719 187.398438 107.902344 186.445312 108.339844 185.417969 Z M 114.429688 165.507812 C 115.015625 164.921875 114.136719 164.039062 113.550781 164.625 L 111.9375 166.242188 C 111.347656 166.832031 112.230469 167.710938 112.816406 167.125 Z M 130.933594 162.863281 C 132.105469 163.230469 133.425781 163.523438 134.234375 164.480469 C 134.308594 164.554688 134.308594 164.480469 134.308594 164.40625 C 133.28125 162.277344 130.417969 161.539062 128.4375 160.878906 C 127.046875 160.367188 125.578125 159.925781 124.113281 159.558594 C 124.257812 157.867188 123.816406 156.105469 123.746094 154.414062 C 123.597656 152.652344 123.453125 150.890625 123.378906 149.050781 C 123.304688 147.214844 123.304688 145.378906 123.378906 143.542969 C 123.453125 141.707031 123.671875 139.941406 123.746094 138.105469 C 123.746094 137.960938 123.523438 137.960938 123.453125 138.03125 C 122.863281 139.722656 122.570312 141.558594 122.351562 143.324219 C 122.132812 145.160156 122.058594 146.996094 122.132812 148.832031 C 122.132812 150.742188 122.277344 152.578125 122.425781 154.488281 C 122.496094 155.371094 122.570312 156.25 122.644531 157.132812 C 122.71875 157.792969 122.71875 158.457031 122.863281 159.117188 C 121.984375 158.894531 121.105469 158.675781 120.222656 158.527344 C 117.4375 157.867188 114.578125 157.28125 111.789062 156.617188 C 110.394531 156.25 109.074219 155.882812 107.679688 155.515625 C 106.359375 155.148438 105.039062 154.78125 103.71875 154.636719 C 103.28125 154.5625 103.207031 155.222656 103.5 155.445312 C 104.601562 156.179688 105.996094 156.691406 107.242188 157.132812 C 108.488281 157.574219 109.808594 157.867188 111.054688 158.160156 C 113.695312 158.824219 116.410156 159.335938 119.125 159.925781 C 121.835938 160.511719 124.476562 161.027344 127.117188 161.761719 C 128.367188 162.128906 129.6875 162.496094 130.933594 162.863281 Z M 137.242188 129.585938 C 137.902344 130.027344 138.5625 128.921875 137.902344 128.484375 C 137.019531 127.96875 136.066406 127.527344 135.039062 127.160156 C 134.308594 126.867188 134.015625 128.042969 134.746094 128.335938 C 135.628906 128.777344 136.433594 129.144531 137.242188 129.585938 Z M 139.734375 175.792969 C 140.394531 176.160156 141.054688 175.132812 140.394531 174.691406 C 139.441406 174.101562 138.339844 173.734375 137.386719 173.292969 C 136.65625 172.925781 136.066406 174.03125 136.726562 174.398438 C 137.753906 174.835938 138.78125 175.203125 139.734375 175.792969 Z M 140.910156 149.566406 C 140.25 150.226562 139.367188 150.523438 138.488281 150.816406 C 137.753906 151.109375 138.046875 152.285156 138.78125 151.992188 C 139.808594 151.550781 140.910156 151.183594 141.714844 150.375 C 142.300781 149.933594 141.421875 149.050781 140.910156 149.566406 Z M 133.5 114.011719 C 132.765625 114.304688 133.058594 115.480469 133.792969 115.1875 C 134.601562 114.890625 135.480469 114.597656 136.289062 114.304688 C 137.019531 114.011719 136.726562 112.835938 135.996094 113.128906 C 135.113281 113.421875 134.308594 113.644531 133.5 114.011719 Z M 120.445312 99.832031 C 119.636719 99.6875 119.34375 100.859375 120.152344 101.007812 C 121.105469 101.15625 122.058594 101.375 123.011719 101.742188 C 123.746094 102.035156 124.113281 100.859375 123.304688 100.566406 C 122.351562 100.199219 121.398438 100.054688 120.445312 99.832031 Z M 116.117188 134.285156 C 116.851562 133.917969 116.191406 132.890625 115.457031 133.183594 C 114.722656 133.550781 113.917969 133.847656 113.109375 133.992188 C 112.300781 134.140625 112.667969 135.386719 113.402344 135.167969 C 114.355469 135.019531 115.238281 134.652344 116.117188 134.285156 Z M 112.007812 114.890625 C 111.203125 114.671875 110.910156 115.847656 111.714844 116.066406 C 113.035156 116.433594 114.429688 116.65625 115.824219 116.949219 C 116.628906 117.167969 116.921875 115.921875 116.117188 115.773438 C 114.796875 115.480469 113.402344 115.261719 112.007812 114.890625 Z M 94.773438 108.796875 C 93.964844 108.941406 94.332031 110.117188 95.066406 109.96875 C 95.871094 109.824219 96.753906 109.824219 97.558594 109.824219 C 98.367188 109.824219 98.367188 108.574219 97.558594 108.574219 C 96.605469 108.574219 95.652344 108.648438 94.773438 108.796875 Z M 38.367188 115.332031 C 40.421875 115.113281 42.402344 114.964844 44.453125 114.890625 C 44.527344 114.890625 44.675781 114.890625 44.746094 114.890625 C 44.746094 114.890625 44.746094 114.820312 44.820312 114.820312 C 45.480469 113.863281 45.996094 112.835938 46.363281 111.734375 C 46.800781 110.707031 47.167969 109.601562 47.753906 108.648438 C 48.488281 107.546875 49.441406 106.738281 50.46875 106.003906 C 51.128906 106.445312 51.714844 106.957031 52.230469 107.472656 C 52.816406 108.058594 53.695312 107.179688 53.109375 106.589844 C 52.597656 106.152344 52.082031 105.710938 51.570312 105.269531 C 52.230469 104.902344 52.816406 104.535156 53.476562 104.167969 C 55.824219 102.84375 58.242188 101.597656 60.664062 100.492188 C 61.765625 99.980469 62.9375 99.464844 64.113281 99.023438 C 64.699219 98.804688 65.359375 98.4375 65.945312 98.144531 C 65.871094 97.703125 66.019531 97.1875 66.386719 96.894531 C 66.605469 96.675781 66.824219 96.601562 67.121094 96.453125 C 67.191406 96.453125 67.191406 96.378906 67.265625 96.378906 C 67.265625 96.378906 67.191406 96.378906 67.121094 96.453125 C 66.972656 96.527344 66.972656 96.527344 67.046875 96.378906 C 67.046875 96.160156 67.558594 95.570312 67.632812 95.351562 C 68 94.46875 68.144531 93.515625 68.734375 92.707031 C 69.539062 91.605469 70.859375 91.164062 72.105469 91.53125 C 72.253906 90.210938 72.253906 88.8125 72.765625 87.566406 C 72.765625 87.566406 72.839844 87.492188 72.839844 87.566406 C 73.355469 88.445312 73.425781 89.476562 73.425781 90.503906 C 73.5 91.457031 73.425781 92.488281 73.28125 93.441406 C 73.355469 93.515625 73.425781 93.589844 73.5 93.589844 C 73.867188 93.882812 74.308594 94.027344 74.746094 94.175781 C 75.628906 94.46875 76.507812 94.617188 77.386719 94.617188 C 79.734375 94.765625 82.15625 94.46875 84.429688 94.101562 C 86.777344 93.660156 90.296875 93.074219 92.351562 91.898438 C 93.746094 91.164062 94.992188 90.210938 96.238281 89.253906 C 95.800781 87.785156 95.652344 86.167969 96.09375 84.921875 C 96.164062 84.773438 96.386719 84.773438 96.460938 84.921875 C 96.753906 86.09375 96.824219 87.34375 97.191406 88.519531 C 97.191406 88.519531 97.191406 88.519531 97.191406 88.59375 C 97.339844 88.519531 97.414062 88.445312 97.558594 88.371094 C 97.851562 88.152344 98.21875 88.300781 98.367188 88.59375 C 101.007812 92.855469 105.261719 93.074219 109.734375 93.808594 C 114.578125 94.617188 119.492188 95.5 124.183594 97.113281 C 128.953125 98.730469 133.28125 101.007812 136.65625 104.386719 C 137.386719 105.121094 138.121094 105.929688 138.78125 106.8125 C 138.121094 106.886719 137.460938 107.03125 136.800781 107.253906 C 136.066406 107.472656 136.359375 108.722656 137.09375 108.429688 C 137.902344 108.132812 138.78125 108.058594 139.589844 107.988281 C 141.863281 111.144531 143.695312 114.746094 145.234375 118.273438 C 148.242188 125.03125 150.152344 132.230469 151.03125 139.574219 C 150.515625 139.28125 150.078125 138.988281 149.5625 138.769531 C 148.832031 138.398438 148.242188 139.503906 148.902344 139.871094 C 149.710938 140.238281 150.445312 140.75 151.175781 141.191406 C 151.472656 144.425781 151.617188 147.65625 151.542969 150.816406 C 151.398438 158.527344 150.296875 166.390625 147.949219 173.734375 C 146.777344 177.335938 145.308594 180.933594 143.035156 183.945312 C 142.007812 185.34375 140.835938 186.589844 139.441406 187.621094 C 138.78125 188.132812 138.046875 188.574219 137.316406 188.941406 C 136.359375 189.457031 135.113281 189.601562 134.308594 190.265625 C 134.015625 190.484375 133.792969 190.777344 133.648438 191.144531 C 133.71875 191.808594 133.71875 192.46875 133.574219 193.054688 C 133.5 193.277344 133.355469 193.421875 133.207031 193.496094 C 133.207031 193.570312 133.207031 193.644531 133.207031 193.644531 C 133.207031 193.644531 133.132812 193.644531 133.132812 193.644531 C 133.132812 193.570312 133.132812 193.570312 133.132812 193.496094 C 133.058594 193.496094 132.988281 193.496094 132.914062 193.496094 C 130.566406 193.496094 128.21875 193.421875 125.871094 193.351562 C 126.019531 192.761719 126.238281 192.25 126.457031 191.660156 C 126.753906 190.925781 125.503906 190.558594 125.285156 191.367188 C 125.066406 192.027344 124.84375 192.6875 124.625 193.351562 C 122.132812 193.277344 119.5625 193.128906 117.070312 193.054688 C 111.714844 192.910156 106.359375 192.835938 101.007812 192.6875 C 92.644531 192.542969 84.28125 192.175781 75.921875 192.46875 C 75.628906 191.878906 75.335938 191.21875 74.96875 190.632812 C 74.601562 189.898438 73.574219 190.558594 73.867188 191.292969 C 74.085938 191.734375 74.308594 192.101562 74.527344 192.542969 C 72.839844 192.617188 71.152344 192.761719 69.464844 192.910156 C 66.605469 193.203125 63.746094 193.644531 60.882812 193.9375 C 57.949219 194.230469 55.089844 194.15625 52.230469 193.71875 C 51.714844 193.644531 51.421875 193.351562 51.277344 192.910156 C 51.128906 192.761719 50.984375 192.617188 50.835938 192.46875 C 50.6875 192.320312 50.46875 192.246094 50.25 192.175781 C 49.808594 192.027344 49.441406 191.953125 49.003906 191.878906 C 48.5625 191.808594 48.046875 191.808594 47.609375 191.734375 C 47.242188 191.660156 46.800781 191.585938 46.433594 191.511719 C 45.703125 191.367188 45.042969 191.144531 44.382812 190.851562 C 43.792969 190.632812 43.28125 190.265625 42.765625 189.824219 C 41.742188 189.089844 40.859375 188.132812 40.125 187.105469 C 39.6875 186.519531 39.246094 185.929688 38.878906 185.269531 C 38.21875 184.167969 37.632812 183.066406 37.046875 181.890625 C 36.824219 181.523438 36.679688 181.230469 36.460938 180.863281 C 37.558594 180.492188 38.734375 180.273438 39.90625 180.273438 C 40.714844 180.273438 40.714844 179.023438 39.90625 179.023438 C 38.511719 179.023438 37.265625 179.390625 35.945312 179.757812 C 35.871094 179.613281 35.800781 179.390625 35.800781 179.246094 C 35.652344 178.878906 35.503906 178.511719 35.433594 178.144531 C 35.359375 177.996094 35.285156 177.777344 35.210938 177.628906 C 35.066406 177.042969 34.917969 176.453125 34.773438 175.867188 C 34.480469 174.910156 34.257812 173.957031 34.113281 173 C 33.964844 172.339844 33.890625 171.753906 33.820312 171.089844 C 33.597656 169.546875 33.453125 168.003906 33.378906 166.390625 C 33.378906 165.433594 33.453125 164.480469 33.597656 163.449219 C 33.671875 162.789062 33.746094 162.128906 33.820312 161.46875 C 33.964844 160.511719 34.113281 159.558594 34.332031 158.601562 C 34.480469 157.941406 34.699219 157.355469 34.84375 156.691406 C 35.285156 155.371094 35.726562 154.046875 36.3125 152.726562 C 36.3125 152.652344 36.53125 152.429688 36.605469 152.429688 C 36.679688 152.429688 36.753906 152.503906 36.753906 152.578125 C 36.753906 152.503906 36.824219 152.429688 36.824219 152.359375 C 36.824219 152.285156 36.972656 152.136719 37.046875 152.136719 C 37.046875 152.136719 36.972656 152.136719 36.972656 152.0625 C 36.386719 151.402344 36.019531 150.523438 35.652344 149.785156 C 35.359375 149.125 34.992188 148.464844 34.917969 147.804688 C 34.84375 147.140625 34.917969 146.554688 35.359375 146.039062 C 35.800781 145.453125 36.679688 145.160156 36.164062 144.351562 C 35.652344 143.394531 34.84375 142.585938 35.652344 141.484375 C 36.019531 140.972656 36.679688 140.605469 37.121094 140.164062 C 37.632812 139.574219 37.925781 138.839844 37.925781 138.105469 C 37.925781 138.105469 37.851562 138.105469 37.851562 138.03125 C 37.414062 136.636719 37.707031 135.167969 38.21875 133.847656 C 38.441406 133.109375 39.027344 132.964844 39.613281 132.890625 C 36.898438 127.675781 34.40625 122.3125 32.203125 116.875 C 32.132812 116.730469 32.058594 116.507812 31.984375 116.363281 C 31.910156 116.066406 32.132812 115.773438 32.351562 115.699219 C 34.40625 115.628906 36.386719 115.480469 38.367188 115.332031 Z M 38.367188 115.332031 " fill-opacity="1" fill-rule="evenodd"/></g><path fill="#ffffff" d="M 59.097656 34.957031 C 59.464844 34.078125 60.050781 32.976562 61.078125 32.976562 C 61.886719 30.550781 63.792969 28.125 66.578125 28.199219 C 74.5 19.972656 84.550781 20.414062 95.113281 22.101562 C 100.6875 23.132812 106.261719 25.1875 110.441406 29.15625 C 115.429688 33.855469 117.335938 42.011719 113.449219 47.960938 C 116.75 49.722656 116.824219 53.984375 115.355469 57.070312 C 117.117188 58.246094 117.191406 61.183594 115.210938 62.066406 C 115.285156 62.507812 115.210938 62.949219 115.0625 63.316406 C 116.015625 64.121094 117.265625 64.710938 118.289062 65.226562 C 118.730469 65.445312 119.023438 65.8125 119.097656 66.253906 C 122.472656 68.457031 130.980469 73.964844 130.90625 78.300781 C 130.980469 80.578125 129.292969 82.046875 127.238281 82.636719 C 128.484375 85.058594 129.367188 87.925781 128.191406 90.496094 C 127.898438 91.304688 125.480469 93.582031 125.332031 93.65625 C 125.113281 93.800781 121.664062 92.257812 119.976562 91.449219 C 119.683594 93.582031 117.410156 94.683594 115.429688 93.949219 C 113.597656 93.359375 112.421875 91.816406 111.25 90.421875 C 109.707031 93.800781 105.160156 93.875 102.226562 92.40625 C 99.585938 91.15625 97.605469 88.953125 96.433594 86.234375 C 90.492188 89.171875 83.523438 89.980469 77.070312 88.804688 C 76.628906 89.539062 75.75 90.054688 74.941406 89.761719 C 71.492188 88.734375 67.679688 88.660156 64.820312 86.308594 C 58.730469 81.972656 58.21875 73.894531 58.65625 67.0625 C 59.023438 60.230469 58.730469 53.324219 59.976562 46.566406 C 59.464844 44.582031 58.511719 42.820312 57.703125 40.910156 C 56.824219 38.925781 56.898438 36.058594 59.097656 34.957031 Z M 59.097656 34.957031 " fill-opacity="1" fill-rule="evenodd"/><path fill="#000000" d="M 115.503906 64.050781 C 115.136719 63.976562 114.988281 64.417969 115.285156 64.636719 C 117.191406 65.886719 119.171875 66.988281 121.078125 68.308594 C 122.839844 69.558594 124.453125 71.027344 125.992188 72.570312 L 126.140625 72.71875 C 127.53125 74.113281 129.074219 75.949219 129.074219 78.082031 C 129.074219 79.695312 127.824219 81.460938 126.066406 81.3125 C 125.40625 81.238281 124.820312 82.046875 125.039062 82.707031 L 125.257812 83.371094 C 126.210938 85.941406 127.238281 88.878906 126.433594 91.597656 L 126.433594 91.671875 C 126.210938 92.257812 126.066406 92.847656 125.332031 92.847656 C 124.671875 92.847656 123.9375 92.625 123.351562 92.40625 C 122.03125 91.964844 120.859375 91.230469 119.90625 90.273438 C 119.023438 89.46875 117.925781 90.273438 117.996094 91.378906 C 118.144531 92.550781 116.308594 93.140625 115.429688 92.921875 C 113.742188 92.550781 112.570312 90.863281 111.617188 89.613281 C 111.175781 89.027344 110.003906 88.734375 109.636719 89.613281 C 108.828125 91.304688 107.214844 92.625 105.234375 92.625 C 104.207031 92.625 103.253906 92.332031 102.445312 91.816406 C 102.082031 91.597656 101.785156 91.378906 101.492188 91.082031 L 101.421875 91.011719 C 100.980469 90.570312 100.6875 90.347656 100.171875 90.054688 C 99.660156 89.761719 98.925781 90.128906 98.925781 90.714844 C 98.925781 91.523438 99.148438 92.039062 99.734375 92.625 C 100.171875 93.140625 100.761719 93.507812 101.347656 93.875 C 102.519531 94.535156 103.914062 94.976562 105.234375 94.902344 C 107.363281 94.828125 109.414062 93.800781 110.734375 92.113281 C 112.054688 93.726562 113.742188 95.199219 115.945312 95.199219 C 117.558594 95.199219 119.097656 94.316406 119.832031 92.992188 C 120.859375 93.726562 121.957031 94.242188 123.203125 94.609375 L 123.277344 94.609375 C 124.964844 95.125 126.945312 95.269531 128.046875 93.582031 C 129.074219 91.964844 129.144531 89.761719 128.925781 87.996094 C 128.707031 86.382812 128.191406 84.839844 127.679688 83.296875 C 129.292969 82.78125 130.613281 81.238281 130.980469 79.625 C 131.640625 77.125 130.394531 74.703125 128.78125 72.863281 C 127.09375 70.808594 124.890625 69.117188 122.765625 67.648438 C 120.566406 66.03125 118.070312 64.636719 115.503906 64.050781 Z M 59.757812 44.433594 C 59.757812 44.363281 59.609375 44.363281 59.609375 44.433594 C 58.878906 49.871094 58.4375 55.308594 58.070312 60.816406 C 57.925781 63.609375 57.703125 66.398438 57.484375 69.117188 C 57.265625 71.761719 56.898438 74.480469 56.96875 77.199219 C 57.117188 81.386719 59.097656 84.765625 62.472656 87.261719 C 65.625 89.613281 69.585938 90.789062 73.472656 91.230469 C 75.75 91.523438 78.023438 91.523438 80.296875 91.230469 C 81.46875 91.082031 82.644531 90.9375 83.816406 90.644531 L 84.328125 90.496094 C 85.210938 90.273438 86.238281 89.980469 86.382812 88.878906 C 86.457031 88.367188 86.164062 87.996094 85.722656 87.703125 C 85.136719 87.335938 84.476562 87.558594 83.890625 87.703125 C 82.863281 87.996094 81.835938 88.21875 80.808594 88.367188 C 78.609375 88.734375 76.335938 88.734375 74.132812 88.511719 C 70.394531 88.144531 66.433594 86.894531 63.570312 84.398438 C 62.324219 83.296875 61.226562 81.972656 60.636719 80.429688 C 59.90625 78.375 59.976562 76.171875 60.050781 74.039062 C 60.125 69.117188 60.050781 64.195312 60.125 59.199219 C 60.125 54.277344 60.050781 49.355469 59.757812 44.433594 Z M 97.3125 21.367188 C 92.984375 20.265625 88.511719 19.972656 84.035156 20.265625 C 79.78125 20.558594 75.015625 21.515625 71.566406 24.160156 C 71.421875 24.304688 71.492188 24.527344 71.714844 24.527344 C 73.988281 24.160156 76.261719 23.5 78.535156 23.058594 C 80.734375 22.617188 83.007812 22.324219 85.210938 22.25 C 92.839844 22.027344 101.273438 23.71875 107.433594 28.492188 C 110.296875 30.699219 112.496094 33.710938 113.375 37.308594 C 114.257812 40.980469 113.816406 44.949219 111.984375 48.253906 C 111.6875 48.695312 111.835938 49.503906 112.347656 49.722656 C 113.964844 50.457031 115.136719 52.222656 115.136719 54.058594 C 115.136719 54.941406 114.84375 55.820312 114.328125 56.554688 C 113.816406 57.363281 113.007812 57.878906 112.421875 58.613281 C 112.203125 58.90625 112.203125 59.273438 112.347656 59.566406 C 111.984375 59.714844 111.617188 59.789062 111.324219 60.007812 C 111.027344 60.15625 111.027344 60.597656 111.324219 60.742188 C 112.054688 61.109375 112.863281 60.742188 113.375 60.082031 C 113.449219 60.007812 113.523438 59.863281 113.597656 59.714844 C 114.183594 59.566406 114.695312 59.273438 115.210938 58.90625 C 116.089844 59.421875 116.238281 60.671875 115.429688 61.550781 C 115.0625 61.992188 114.476562 62.285156 113.890625 62.507812 L 113.816406 62.507812 C 113.304688 62.726562 112.789062 62.800781 112.421875 63.242188 C 112.203125 62.726562 111.910156 62.285156 111.617188 61.84375 C 110.515625 60.304688 108.828125 58.980469 106.847656 59.128906 C 105.308594 59.273438 103.914062 60.375 103.621094 61.917969 C 103.621094 62.066406 103.765625 62.140625 103.839844 61.992188 C 104.574219 60.230469 106.921875 60.15625 108.386719 61.109375 C 110.074219 62.210938 110.957031 64.195312 111.324219 66.105469 C 111.6875 67.941406 111.46875 70.21875 110.074219 71.617188 C 109.488281 72.203125 108.753906 72.570312 107.949219 72.71875 C 107.582031 72.792969 107.214844 72.71875 106.847656 72.644531 L 106.628906 72.570312 C 106.480469 72.570312 106.261719 72.496094 106.113281 72.496094 L 105.820312 72.496094 L 105.675781 72.570312 C 105.527344 72.644531 105.527344 72.644531 105.675781 72.496094 C 105.234375 72.425781 105.015625 72.792969 104.941406 73.160156 C 104.941406 73.160156 104.941406 73.160156 104.867188 73.160156 C 103.105469 75.289062 101.859375 77.714844 100.027344 79.769531 L 99.511719 80.359375 C 98.121094 81.902344 96.507812 83.589844 94.671875 84.398438 L 94.453125 84.472656 C 93.9375 84.839844 93.425781 85.132812 93.351562 85.792969 C 93.277344 86.382812 93.792969 86.824219 94.304688 86.96875 C 95.550781 87.261719 96.945312 86.160156 97.828125 85.5 C 99.734375 83.957031 101.347656 81.972656 102.742188 79.917969 L 102.886719 79.695312 C 103.988281 78.007812 105.015625 76.023438 105.382812 73.964844 L 105.453125 74.039062 C 105.527344 74.113281 105.601562 74.1875 105.675781 74.261719 C 105.894531 74.480469 106.1875 74.554688 106.480469 74.628906 C 106.996094 74.773438 107.582031 74.773438 108.167969 74.773438 C 109.269531 74.628906 110.367188 74.261719 111.25 73.527344 C 113.964844 71.394531 114.257812 67.429688 113.15625 64.269531 C 114.035156 64.488281 115.0625 63.902344 115.796875 63.386719 C 116.605469 62.800781 117.265625 61.917969 117.410156 60.964844 C 117.558594 59.933594 116.898438 58.613281 116.015625 58.246094 C 116.96875 57.070312 117.558594 55.382812 117.628906 54.058594 C 117.703125 51.707031 116.53125 49.503906 114.625 48.253906 C 116.164062 44.433594 116.53125 39.953125 115.355469 35.914062 C 112.9375 27.832031 104.941406 23.351562 97.3125 21.367188 Z M 104.132812 82.636719 C 103.914062 81.972656 103.695312 80.726562 102.742188 81.167969 C 101.859375 81.605469 102.445312 82.929688 102.742188 83.589844 C 103.105469 84.398438 103.765625 84.984375 104.648438 85.132812 C 105.382812 85.28125 106.113281 85.058594 106.628906 84.546875 C 106.773438 84.398438 106.847656 84.179688 106.921875 84.03125 C 106.921875 83.957031 106.996094 83.882812 106.996094 83.882812 C 106.996094 83.882812 106.996094 83.957031 107.066406 84.03125 C 107.433594 84.472656 107.800781 84.984375 108.09375 85.5 C 108.167969 85.648438 108.386719 85.5 108.316406 85.425781 C 107.949219 84.617188 108.023438 83.371094 107.289062 82.78125 C 106.628906 82.269531 106.042969 82.707031 105.675781 83.296875 C 105.160156 84.179688 104.355469 83.371094 104.132812 82.636719 Z M 111.175781 79.695312 L 111.101562 79.625 C 110.441406 78.667969 109.269531 77.492188 108.09375 78.449219 C 107.726562 78.742188 107.726562 79.183594 108.09375 79.476562 L 108.242188 79.550781 C 108.753906 79.917969 109.269531 80.285156 109.636719 80.796875 C 110.074219 81.386719 110.441406 81.972656 110.957031 82.414062 C 111.910156 83.222656 113.523438 83.371094 114.328125 82.269531 L 114.402344 82.195312 C 114.476562 82.121094 114.550781 81.972656 114.625 81.902344 L 114.695312 81.972656 C 115.0625 82.5625 115.503906 83.003906 116.015625 83.371094 C 117.042969 84.03125 118.21875 84.179688 119.390625 83.8125 C 119.539062 83.8125 119.464844 83.589844 119.390625 83.589844 C 117.996094 83.445312 116.675781 82.488281 116.089844 81.167969 L 116.015625 81.019531 C 115.796875 80.503906 115.503906 80.0625 114.988281 79.84375 C 114.402344 79.625 113.890625 79.84375 113.449219 80.285156 C 113.15625 80.652344 113.082031 81.3125 112.496094 81.167969 C 111.835938 80.945312 111.542969 80.210938 111.175781 79.695312 Z M 115.136719 71.25 C 114.84375 71.027344 114.328125 71.25 114.257812 71.617188 C 113.890625 73.160156 115.503906 74.996094 116.96875 74.996094 C 117.335938 74.996094 117.777344 74.921875 118.070312 74.703125 C 118.363281 74.554688 118.65625 74.1875 118.949219 74.113281 C 119.316406 74.039062 119.683594 74.554688 119.976562 74.847656 C 120.34375 75.140625 120.636719 75.507812 121.003906 75.730469 C 121.152344 75.875 121.371094 75.65625 121.296875 75.507812 L 121.152344 75.140625 C 120.710938 73.964844 119.90625 72.128906 118.4375 72.644531 C 117.703125 72.863281 117.191406 73.746094 116.382812 73.085938 C 115.871094 72.644531 115.796875 71.761719 115.136719 71.25 Z M 108.609375 65.078125 C 107.214844 63.460938 103.988281 64.34375 103.328125 66.253906 C 103.179688 66.695312 103.328125 67.207031 103.695312 67.574219 C 104.132812 67.941406 104.792969 68.089844 105.308594 67.796875 C 105.746094 67.503906 105.96875 67.0625 106.261719 66.695312 C 106.773438 66.105469 107.433594 65.8125 108.09375 65.59375 C 108.242188 65.664062 108.460938 65.8125 108.609375 65.960938 C 108.683594 66.03125 108.828125 65.960938 108.753906 65.8125 C 108.683594 65.664062 108.535156 65.59375 108.460938 65.445312 L 108.535156 65.445312 C 108.683594 65.445312 108.753906 65.226562 108.609375 65.078125 Z M 99.585938 47.445312 C 99.292969 47.445312 98.925781 47.742188 98.925781 48.109375 L 98.925781 48.179688 C 99.074219 48.84375 99.292969 49.210938 99.953125 49.503906 C 100.464844 49.722656 101.054688 49.871094 101.714844 49.945312 C 101.933594 49.945312 102.152344 49.945312 102.445312 49.945312 L 102.445312 50.3125 C 102.519531 50.898438 102.667969 51.488281 102.667969 52.074219 C 102.667969 53.175781 102.300781 54.132812 101.859375 55.160156 C 100.980469 57.070312 100.90625 59.054688 101.859375 60.964844 C 102.007812 61.257812 102.375 61.476562 102.667969 61.476562 C 103.105469 61.40625 103.253906 61.332031 103.472656 60.964844 C 103.695312 60.671875 103.621094 60.304688 103.472656 60.007812 C 103.035156 59.054688 102.886719 58.027344 103.105469 57.070312 C 103.328125 56.117188 103.839844 55.234375 104.0625 54.351562 C 104.425781 52.808594 104.0625 51.265625 103.253906 49.945312 C 103.839844 49.796875 104.355469 49.503906 104.722656 48.988281 C 104.867188 48.84375 104.792969 48.550781 104.574219 48.550781 L 104.28125 48.550781 C 103.472656 48.621094 102.742188 48.695312 102.007812 48.476562 C 101.566406 48.328125 101.273438 48.179688 100.90625 47.960938 L 100.832031 47.886719 C 100.394531 47.519531 100.101562 47.445312 99.585938 47.445312 Z M 97.753906 36.058594 C 95.773438 35.914062 94.085938 37.234375 93.277344 39 C 92.398438 40.910156 92.765625 43.039062 93.570312 44.875 L 93.71875 45.464844 C 94.160156 46.34375 94.671875 47.375 95.480469 47.886719 C 96.359375 48.402344 97.167969 47.8125 96.871094 46.785156 C 96.726562 46.199219 96.285156 45.757812 95.917969 45.242188 C 95.625 44.800781 95.332031 44.289062 95.039062 43.847656 C 94.527344 42.890625 94.160156 41.789062 94.160156 40.6875 C 94.160156 38.632812 95.480469 36.355469 97.753906 36.355469 C 97.898438 36.355469 97.898438 36.058594 97.753906 36.058594 Z M 87.777344 32.828125 C 87.925781 32.753906 87.777344 32.535156 87.628906 32.609375 C 85.355469 34.078125 83.667969 36.796875 83.304688 39.511719 C 83.082031 40.980469 83.230469 42.597656 83.890625 43.996094 C 84.257812 44.800781 84.84375 45.535156 85.722656 45.757812 C 86.53125 45.902344 87.410156 45.464844 87.628906 44.65625 C 87.703125 44.363281 87.558594 44.066406 87.335938 43.847656 C 86.53125 43.332031 85.871094 42.597656 85.503906 41.71875 C 85.136719 40.761719 84.917969 39.734375 84.917969 38.703125 C 84.84375 36.355469 85.871094 34.296875 87.777344 32.828125 Z M 59.832031 33.855469 C 59.90625 33.710938 59.832031 33.5625 59.683594 33.636719 C 57.996094 34.519531 56.96875 36.207031 56.675781 37.96875 C 56.382812 39.734375 56.75 42.230469 58.144531 43.480469 C 58.949219 44.214844 60.34375 43.257812 59.683594 42.304688 C 59.246094 41.644531 58.730469 41.128906 58.4375 40.320312 C 58.21875 39.585938 58.144531 38.925781 58.144531 38.191406 C 58.144531 36.574219 58.730469 35.03125 59.832031 33.855469 Z M 80.003906 31.578125 C 77.140625 31.433594 75.453125 34.664062 75.089844 37.089844 C 74.867188 38.558594 75.015625 40.101562 75.820312 41.421875 L 75.894531 41.496094 C 76.554688 42.523438 77.800781 43.699219 79.121094 43.257812 C 79.707031 43.039062 79.855469 42.453125 79.488281 42.011719 C 78.902344 41.277344 78.023438 41.054688 77.507812 40.246094 C 76.921875 39.441406 76.703125 38.335938 76.703125 37.308594 L 76.703125 37.164062 C 76.773438 35.324219 77.65625 31.726562 80.003906 31.726562 C 80.148438 31.800781 80.148438 31.652344 80.003906 31.578125 Z M 71.199219 31.066406 C 68.488281 30.699219 66.800781 33.929688 66.285156 36.132812 C 65.992188 37.53125 65.917969 39.074219 66.285156 40.46875 L 66.285156 40.542969 C 66.652344 41.570312 67.605469 43.332031 68.851562 42.820312 C 69.21875 42.671875 69.585938 42.304688 69.367188 41.863281 C 69.148438 41.351562 68.851562 41.203125 68.414062 40.835938 C 68.121094 40.542969 67.898438 40.175781 67.679688 39.808594 C 67.238281 38.777344 67.167969 37.601562 67.238281 36.574219 L 67.238281 36.425781 C 67.386719 34.296875 68.558594 31.136719 71.054688 31.210938 C 71.347656 31.285156 71.273438 31.066406 71.199219 31.066406 Z M 66.210938 28.054688 C 64.671875 27.464844 63.425781 28.933594 62.546875 29.964844 C 61.445312 31.285156 60.492188 32.679688 59.90625 34.296875 C 59.390625 35.765625 59.316406 37.382812 59.757812 38.851562 C 59.976562 39.585938 60.34375 40.246094 60.785156 40.835938 L 60.859375 40.910156 C 61.371094 41.496094 61.8125 41.863281 62.617188 41.644531 C 62.910156 41.570312 63.058594 41.203125 63.058594 40.910156 C 62.910156 40.246094 62.617188 40.101562 62.179688 39.585938 C 61.8125 39.144531 61.519531 38.703125 61.296875 38.117188 C 60.929688 37.015625 60.859375 35.839844 61.152344 34.738281 C 61.445312 33.488281 62.03125 32.3125 62.765625 31.210938 L 62.910156 30.992188 C 63.644531 29.816406 64.671875 28.054688 66.210938 28.273438 C 66.285156 28.273438 66.285156 28.054688 66.210938 28.054688 Z M 66.210938 28.054688 " fill-opacity="1" fill-rule="evenodd"/><path fill="#000000" d="M 71.792969 73.679688 C 69.960938 73.679688 69.226562 74.046875 67.980469 74.710938 C 66.804688 75.445312 65.484375 76.324219 65.191406 77.648438 C 64.898438 78.898438 65.484375 80.144531 66.660156 80.660156 C 67.394531 80.953125 75.316406 81.613281 76.5625 81.6875 C 77.808594 81.761719 78.980469 81.6875 79.789062 80.808594 C 81.84375 78.675781 78.980469 75.886719 77.148438 74.855469 C 75.535156 73.976562 73.628906 73.679688 71.792969 73.679688 Z M 72.234375 75.148438 C 73.628906 75.148438 75.902344 76.179688 75.902344 76.691406 C 75.902344 77.207031 69.300781 76.691406 69.152344 76.253906 C 69.007812 75.8125 70.839844 75.148438 72.234375 75.148438 Z M 71.207031 63.835938 C 70.035156 64.570312 68.273438 66.1875 69.519531 67.949219 C 70.988281 69.492188 73.113281 67.730469 74.214844 66.921875 C 75.167969 66.261719 76.269531 67.878906 75.386719 68.613281 C 67.6875 74.269531 64.605469 64.058594 70.621094 63.027344 C 71.207031 62.882812 71.5 63.617188 71.207031 63.835938 Z M 84.410156 57.371094 C 82.429688 55.902344 79.421875 57.003906 78.910156 59.355469 C 78.542969 59.503906 78.394531 59.796875 78.320312 60.238281 L 78.320312 60.3125 C 78.25 60.824219 78.6875 61.265625 79.128906 61.414062 C 79.640625 61.558594 80.007812 61.484375 80.449219 61.265625 C 80.890625 61.046875 81.035156 60.457031 80.960938 60.015625 C 80.816406 59.503906 81.328125 58.914062 81.769531 58.769531 C 82.28125 58.546875 82.871094 58.695312 83.382812 58.988281 C 83.894531 59.355469 84.335938 59.945312 84.484375 60.53125 L 84.484375 60.605469 C 84.628906 61.117188 84.703125 62.148438 84.191406 62.441406 C 84.117188 62.515625 84.191406 62.589844 84.261719 62.589844 C 85.363281 62.367188 86.023438 61.707031 86.023438 60.53125 C 86.097656 59.28125 85.363281 58.105469 84.410156 57.371094 Z M 66.074219 56.933594 C 64.09375 56.195312 61.597656 58.105469 62.332031 60.3125 C 62.84375 61.78125 64.753906 61.191406 64.605469 59.722656 L 64.605469 59.648438 C 64.457031 58.914062 65.046875 58.546875 65.777344 58.769531 C 66.804688 59.136719 67.394531 60.75 66.878906 61.707031 C 66.804688 61.855469 66.953125 61.925781 67.027344 61.78125 L 67.097656 61.707031 C 67.613281 60.824219 68.125 60.238281 67.980469 59.136719 C 67.757812 58.179688 67.027344 57.300781 66.074219 56.933594 Z M 70.105469 51.714844 C 70.105469 51.640625 70.035156 51.570312 69.886719 51.570312 C 69.152344 51.714844 68.566406 52.230469 67.90625 52.597656 C 67.171875 52.964844 66.511719 53.257812 65.707031 53.480469 C 64.972656 53.699219 64.238281 53.773438 63.433594 53.773438 C 62.625 53.773438 61.746094 53.480469 60.9375 53.480469 C 59.691406 53.550781 59.03125 55.316406 60.277344 55.902344 C 62.039062 56.785156 64.679688 56.125 66.367188 55.390625 C 67.832031 54.875 69.960938 53.480469 70.105469 51.714844 Z M 79.054688 52.15625 C 78.394531 51.347656 77.074219 51.273438 76.5625 52.230469 C 75.976562 53.257812 76.707031 54.285156 77.660156 54.433594 C 79.496094 55.242188 81.402344 55.902344 83.382812 56.125 L 83.675781 56.125 C 85.4375 56.34375 87.636719 56.417969 89.175781 55.609375 C 89.324219 55.535156 89.25 55.316406 89.105469 55.242188 C 88.222656 55.023438 87.195312 55.023438 86.316406 54.800781 C 85.4375 54.65625 84.554688 54.433594 83.75 54.214844 C 82.0625 53.847656 80.523438 53.183594 79.054688 52.15625 Z M 79.054688 52.15625 " fill-opacity="1" fill-rule="evenodd"/><g clip-path="url(#c3027633c6)"><path fill="#ffbd59" d="M 53.386719 26.433594 C 53.253906 28.746094 51.234375 30.441406 48.898438 29.710938 C 47.726562 29.347656 46.695312 28.753906 45.839844 27.882812 C 44.691406 26.710938 43.328125 25.804688 42.082031 24.75 C 40.746094 23.621094 39.625 22.324219 38.542969 20.972656 C 36.621094 18.582031 34.628906 16.242188 32.609375 13.929688 C 31 12.085938 29.332031 10.285156 28.109375 8.140625 C 27.472656 7.019531 27.324219 5.742188 26.972656 4.535156 C 26.777344 3.867188 27.066406 3.1875 27.460938 2.632812 C 28.558594 1.101562 29.914062 -0.00390625 32.015625 0.136719 C 33.394531 0.015625 34.636719 0.59375 35.816406 1.308594 C 38.457031 2.90625 40.585938 5.074219 42.574219 7.40625 C 44.335938 9.472656 46.121094 11.519531 47.5625 13.824219 C 49.476562 16.902344 51.367188 19.992188 52.632812 23.421875 C 53 24.417969 53.449219 25.324219 53.386719 26.433594 Z M 36.867188 41.125 C 35.820312 40.722656 34.722656 40.476562 33.726562 39.90625 C 31.148438 38.417969 28.46875 37.128906 25.664062 36.117188 C 23.722656 35.417969 21.71875 34.941406 19.703125 34.511719 C 17.371094 34.007812 15.039062 33.855469 12.683594 34.480469 C 8.84375 35.5 7.921875 39.136719 8.703125 42.097656 C 9.054688 43.421875 10.222656 43.875 11.355469 44.316406 C 13.507812 45.164062 15.808594 45.4375 18.035156 45.984375 C 20.964844 46.703125 23.878906 47.492188 26.835938 48.117188 C 28.972656 48.570312 31.113281 48.851562 33.15625 48.941406 C 34.277344 48.882812 35.289062 48.871094 36.191406 49.300781 C 37.367188 49.859375 39.628906 49.164062 40.523438 47.929688 C 40.976562 47.304688 41.3125 46.617188 41.128906 45.785156 C 40.597656 43.417969 39.074219 41.96875 36.867188 41.125 Z M 37.765625 66.953125 C 37.730469 66.597656 37.394531 66.40625 37.257812 66.09375 C 36.84375 65.140625 35.851562 64.734375 34.9375 65.1875 C 34.015625 65.648438 33.101562 66.140625 32.230469 66.691406 C 28.109375 69.300781 24.761719 72.773438 21.566406 76.398438 C 20.296875 77.835938 19.203125 79.417969 18.832031 81.390625 C 18.539062 82.949219 19.117188 84.242188 20.515625 84.980469 C 21.371094 85.429688 22.296875 85.5 23.214844 85.582031 C 24.4375 85.691406 25.449219 85.25 26.277344 84.316406 C 26.964844 83.539062 27.539062 82.6875 28.132812 81.84375 C 29.203125 80.328125 30.65625 79.132812 31.722656 77.632812 C 33.5 75.132812 35.179688 72.566406 36.964844 70.066406 C 37.441406 69.402344 37.925781 68.660156 37.769531 67.679688 C 37.769531 67.480469 37.789062 67.214844 37.765625 66.953125 Z M 41.300781 31.875 C 39.164062 30.945312 37.390625 29.378906 35.210938 28.519531 C 34.003906 28.042969 32.859375 27.421875 31.484375 27.574219 C 30.441406 27.464844 29.464844 27.632812 28.835938 28.601562 C 28.136719 29.675781 28.316406 30.738281 29.398438 31.8125 C 31.773438 34.175781 34.679688 35.59375 37.855469 36.511719 C 38.382812 36.664062 38.9375 36.738281 39.453125 36.917969 C 40.128906 37.148438 40.789062 37.058594 41.359375 36.738281 C 42.636719 36.019531 42.75 34.96875 42.421875 33.472656 C 42.28125 32.824219 41.972656 32.167969 41.300781 31.875 Z M 27.554688 63.511719 C 29.246094 63.511719 30.691406 63.171875 32.335938 62.386719 C 33.246094 61.949219 34.171875 61.570312 35.144531 61.292969 C 36.863281 60.808594 37.679688 58.898438 36.894531 57.339844 C 36.832031 57.214844 36.785156 57.074219 36.773438 56.9375 C 36.652344 55.765625 35.863281 55.15625 34.765625 55.464844 C 32.777344 56.023438 30.730469 56.167969 28.703125 56.445312 C 27.1875 56.65625 25.714844 57.011719 24.652344 58.234375 C 24.125 58.839844 23.675781 59.523438 23.792969 60.367188 C 24.027344 62.082031 25.773438 63.511719 27.554688 63.511719 Z M 27.554688 63.511719 " fill-opacity="1" fill-rule="nonzero"/></g></svg>