<svg xmlns="http://www.w3.org/2000/svg" xmlns:xlink="http://www.w3.org/1999/xlink" width="280" zoomAndPan="magnify" viewBox="0 0 210 159.750002" height="213" preserveAspectRatio="xMidYMid meet" version="1.0"><defs><clipPath id="1085506d1a"><path d="M 0.164062 49.132812 L 209.609375 49.132812 L 209.609375 156.367188 L 0.164062 156.367188 Z M 0.164062 49.132812 " clip-rule="nonzero"/></clipPath><clipPath id="72bc8de305"><path d="M 18.886719 49.132812 L 190.476562 49.132812 C 195.441406 49.132812 200.203125 51.105469 203.714844 54.613281 C 207.226562 58.125 209.199219 62.886719 209.199219 67.851562 L 209.199219 137.644531 C 209.199219 142.609375 207.226562 147.371094 203.714844 150.882812 C 200.203125 154.394531 195.441406 156.367188 190.476562 156.367188 L 18.886719 156.367188 C 13.917969 156.367188 9.15625 154.394531 5.648438 150.882812 C 2.136719 147.371094 0.164062 142.609375 0.164062 137.644531 L 0.164062 67.851562 C 0.164062 62.886719 2.136719 58.125 5.648438 54.613281 C 9.15625 51.105469 13.917969 49.132812 18.886719 49.132812 Z M 18.886719 49.132812 " clip-rule="nonzero"/></clipPath><clipPath id="4d6d3d19b4"><path d="M 0.164062 49.132812 L 209.085938 49.132812 L 209.085938 156.214844 L 0.164062 156.214844 Z M 0.164062 49.132812 " clip-rule="nonzero"/></clipPath><clipPath id="da6c1cbe27"><path d="M 18.882812 49.132812 L 190.472656 49.132812 C 195.4375 49.132812 200.199219 51.105469 203.710938 54.617188 C 207.21875 58.125 209.191406 62.886719 209.191406 67.851562 L 209.191406 137.644531 C 209.191406 142.609375 207.21875 147.371094 203.710938 150.882812 C 200.199219 154.390625 195.4375 156.363281 190.472656 156.363281 L 18.882812 156.363281 C 13.917969 156.363281 9.15625 154.390625 5.648438 150.882812 C 2.136719 147.371094 0.164062 142.609375 0.164062 137.644531 L 0.164062 67.851562 C 0.164062 62.886719 2.136719 58.125 5.648438 54.617188 C 9.15625 51.105469 13.917969 49.132812 18.882812 49.132812 Z M 18.882812 49.132812 " clip-rule="nonzero"/></clipPath><clipPath id="622ce558dc"><path d="M 18 62 L 178 62 L 178 159.5 L 18 159.5 Z M 18 62 " clip-rule="nonzero"/></clipPath></defs><g clip-path="url(#1085506d1a)"><g clip-path="url(#72bc8de305)"><path fill="#fc4100" d="M 0.164062 49.132812 L 209.1875 49.132812 L 209.1875 156.367188 L 0.164062 156.367188 Z M 0.164062 49.132812 " fill-opacity="1" fill-rule="nonzero"/></g></g><g clip-path="url(#4d6d3d19b4)"><g clip-path="url(#da6c1cbe27)"><path stroke-linecap="butt" transform="matrix(0.748828, 0, 0, 0.748828, 0.164061, 49.132474)" fill="none" stroke-linejoin="miter" d="M 24.997394 0.00045266 L 254.141898 0.00045266 C 260.772049 0.00045266 267.130943 2.634777 271.820563 7.324397 C 276.504965 12.008799 279.13929 18.367694 279.13929 24.997845 L 279.13929 118.200769 C 279.13929 124.830921 276.504965 131.189815 271.820563 135.879434 C 267.130943 140.563837 260.772049 143.198162 254.141898 143.198162 L 24.997394 143.198162 C 18.367243 143.198162 12.008348 140.563837 7.323946 135.879434 C 2.634326 131.189815 0.00000175274 124.830921 0.00000175274 118.200769 L 0.00000175274 24.997845 C 0.00000175274 18.367694 2.634326 12.008799 7.323946 7.324397 C 12.008348 2.634777 18.367243 0.00045266 24.997394 0.00045266 Z M 24.997394 0.00045266 " stroke="#000000" stroke-width="2" stroke-opacity="1" stroke-miterlimit="4"/></g></g><path fill="#ffffff" d="M 106.164062 59.074219 C 113.457031 58.554688 123.523438 59.976562 125.65625 68.363281 C 126.300781 71.394531 127.589844 72.75 129.785156 74.6875 C 143.597656 92.367188 95.453125 95.335938 93 78.105469 C 87.773438 79.976562 82.09375 80.429688 76.929688 82.300781 C 74.027344 83.332031 71.445312 85.011719 68.992188 86.753906 C 58.988281 93.851562 49.113281 101.207031 39.113281 108.367188 C 42.984375 110.109375 50.339844 116.886719 47.308594 121.464844 C 46.597656 122.371094 45.566406 122.949219 44.660156 123.59375 L 44.210938 123.984375 C 43.175781 124.757812 41.433594 125.984375 40.46875 126.691406 L 40.273438 126.820312 C 40.207031 126.886719 40.144531 126.949219 40.078125 126.949219 C 46.984375 137.144531 55.179688 146.566406 64.214844 154.953125 C 64.992188 155.664062 64.667969 157.277344 63.570312 157.46875 L 62.214844 157.664062 C 57.957031 158.308594 53.566406 158.824219 49.242188 158.503906 C 45.050781 158.050781 42.46875 154.308594 39.628906 151.597656 C 33.882812 145.726562 28.527344 139.46875 23.621094 132.886719 L 23.492188 132.757812 C 21.945312 130.691406 19.945312 128.5625 19.816406 125.917969 C 19.558594 125.144531 20.265625 123.984375 20.914062 123.402344 L 21.171875 123.078125 C 24.785156 117.851562 28.914062 112.753906 34.078125 109.011719 C 34.078125 108.433594 34.335938 107.851562 34.851562 107.464844 L 56.535156 91.722656 C 62.085938 87.914062 67.3125 83.398438 73.316406 80.300781 C 79.511719 77.332031 86.480469 77.203125 92.804688 74.75 C 92.933594 72.945312 96.679688 72.492188 96.613281 72.75 C 100.550781 70.363281 102.617188 67.523438 103.261719 64.878906 C 103.839844 62.296875 103.066406 59.910156 106.164062 59.074219 Z M 159.535156 115.207031 C 166.183594 105.140625 172.574219 116.304688 175.347656 122.949219 C 178.640625 132.113281 171.796875 143.402344 167.410156 151.339844 C 165.796875 153.535156 163.667969 158.179688 160.828125 158.503906 C 153.664062 158.503906 146.4375 157.984375 139.273438 157.792969 C 134.625 156.632812 141.144531 149.664062 145.660156 152.179688 C 147.015625 152.695312 147.726562 154.242188 149.015625 154.761719 C 149.535156 154.890625 149.535156 154.632812 149.726562 154.179688 L 149.726562 154.113281 C 150.050781 153.277344 150.4375 152.4375 150.757812 151.597656 C 153.664062 144.371094 156.761719 137.210938 159.859375 130.113281 C 160.503906 128.5625 159.601562 127.273438 158.375 126.371094 C 157.472656 125.59375 153.535156 123.789062 157.214844 124.5625 C 155.859375 121.207031 157.601562 117.851562 159.535156 115.207031 Z M 142.949219 101.464844 C 143.597656 101.398438 144.433594 102.042969 144.5 102.691406 C 145.339844 107.917969 144.433594 113.011719 143.339844 118.109375 L 143.144531 119.015625 C 142.757812 120.886719 142.304688 122.757812 141.273438 124.371094 C 140.238281 126.046875 138.691406 127.273438 136.882812 128.046875 C 131.140625 130.304688 124.042969 128.046875 119.78125 123.789062 C 117.070312 120.109375 119.460938 115.464844 119.910156 111.402344 C 119.460938 110.304688 119.332031 109.078125 119.070312 107.917969 L 119.070312 107.789062 L 118.105469 103.59375 C 117.910156 102.691406 118.554688 101.398438 119.652344 101.527344 C 127.460938 102.433594 135.269531 102.433594 142.949219 101.464844 Z M 142.949219 101.464844 " fill-opacity="1" fill-rule="evenodd"/><g clip-path="url(#622ce558dc)"><path fill="#000000" d="M 169.925781 113.851562 C 169.925781 113.722656 170.054688 113.660156 170.121094 113.722656 C 171.476562 115.015625 172.445312 116.691406 173.476562 118.238281 C 174.507812 119.722656 175.542969 121.144531 176.316406 122.757812 C 177.027344 124.304688 177.476562 125.789062 177.605469 127.464844 C 177.734375 129.144531 177.542969 130.757812 177.285156 132.433594 C 176.703125 135.660156 175.476562 138.695312 174.121094 141.660156 C 172.832031 144.5 171.347656 147.339844 169.796875 150.050781 L 169.21875 151.019531 C 168.507812 152.179688 167.863281 153.40625 167.085938 154.566406 C 166.183594 155.984375 165.34375 157.46875 164.117188 158.695312 C 163.28125 159.535156 161.601562 158.695312 162.054688 157.46875 C 162.246094 156.953125 162.375 156.4375 162.632812 155.921875 C 162.828125 155.535156 163.085938 155.210938 163.28125 154.824219 C 163.730469 154.113281 164.117188 153.339844 164.570312 152.628906 C 165.472656 151.082031 166.378906 149.535156 167.28125 147.984375 C 168.828125 145.273438 170.25 142.5 171.539062 139.726562 L 171.667969 139.402344 C 172.832031 136.757812 173.992188 134.046875 174.507812 131.210938 C 175.023438 128.242188 174.574219 125.402344 173.476562 122.5625 C 172.894531 121.078125 172.316406 119.660156 171.667969 118.304688 L 171.539062 118.046875 C 170.960938 116.691406 170.25 115.335938 169.925781 113.851562 Z M 103.972656 62.167969 C 103.972656 62.105469 104.101562 62.105469 104.101562 62.167969 C 104.488281 64.6875 103.648438 67.394531 102.226562 69.523438 C 101.453125 70.6875 100.550781 71.71875 99.453125 72.558594 L 99.386719 72.621094 C 98.292969 73.460938 96.742188 74.300781 95.386719 73.71875 C 95.324219 73.71875 95.324219 73.65625 95.257812 73.65625 C 95.386719 73.914062 95.582031 74.171875 95.710938 74.429688 C 96.160156 75.203125 96.550781 75.976562 96.9375 76.75 C 97.710938 78.105469 98.613281 79.332031 99.777344 80.429688 C 104.359375 84.6875 110.8125 85.71875 116.878906 85.71875 L 117.328125 85.71875 C 119.976562 85.71875 123.460938 85.847656 125.527344 83.914062 C 126.621094 82.882812 127.269531 81.398438 127.785156 80.042969 C 128.300781 78.6875 128.6875 77.269531 129.140625 75.914062 C 128.171875 75.269531 127.332031 74.492188 126.6875 73.589844 C 125.976562 72.621094 125.460938 71.589844 125.136719 70.429688 L 125.074219 70.234375 C 124.816406 69.332031 124.621094 68.105469 125.007812 67.265625 C 125.074219 67.136719 125.203125 67.203125 125.269531 67.265625 C 125.460938 67.652344 125.527344 68.171875 125.65625 68.558594 C 125.785156 69.074219 125.976562 69.589844 126.171875 70.042969 C 126.621094 71.007812 127.140625 71.914062 127.847656 72.6875 C 128.429688 73.332031 129.011719 73.914062 129.722656 74.429688 C 130.109375 73.71875 131.074219 73.65625 131.851562 73.847656 C 132.882812 74.171875 133.914062 74.558594 134.949219 74.945312 L 135.140625 75.007812 C 136.175781 75.398438 137.273438 75.785156 138.238281 76.363281 C 138.820312 76.621094 139.335938 76.882812 139.851562 77.140625 C 142.433594 78.363281 144.953125 79.65625 147.46875 80.945312 L 147.984375 81.203125 C 149.015625 81.785156 150.113281 82.300781 151.019531 83.074219 C 151.921875 83.847656 152.695312 84.945312 153.339844 85.914062 C 154.890625 88.171875 156.375 90.558594 157.921875 92.816406 C 161.019531 97.464844 164.117188 102.109375 167.28125 106.691406 C 168.054688 107.789062 168.894531 108.882812 169.539062 110.046875 C 170.183594 111.140625 170.183594 112.304688 170.054688 113.53125 L 170.054688 113.789062 C 169.796875 116.046875 169.410156 118.238281 168.121094 120.238281 C 166.121094 123.335938 162.957031 125.207031 159.535156 126.5625 C 159.925781 126.886719 160.3125 127.207031 160.828125 127.402344 C 161.601562 127.726562 162.375 127.917969 163.214844 127.984375 C 164.054688 128.046875 165.085938 127.855469 165.796875 128.433594 C 166.054688 128.691406 166.054688 129.207031 165.796875 129.46875 C 165.152344 130.046875 164.246094 129.855469 163.410156 129.789062 L 163.34375 129.789062 C 162.570312 129.726562 161.796875 129.53125 161.085938 129.273438 C 160.890625 129.207031 160.761719 129.144531 160.570312 129.015625 C 160.570312 129.015625 160.570312 129.078125 160.570312 129.078125 C 160.441406 130.046875 160.183594 130.886719 159.921875 131.789062 L 159.730469 132.371094 C 159.34375 133.53125 159.019531 134.691406 158.632812 135.855469 C 157.921875 138.046875 157.148438 140.242188 156.375 142.4375 L 155.730469 144.308594 C 155.019531 146.242188 154.308594 148.179688 153.535156 150.050781 C 153.082031 151.210938 152.566406 152.371094 152.113281 153.597656 C 151.664062 154.761719 151.277344 155.984375 150.695312 157.082031 C 150.242188 157.984375 148.886719 157.339844 149.144531 156.4375 C 149.40625 155.210938 149.921875 154.050781 150.308594 152.824219 C 150.695312 151.597656 151.082031 150.4375 151.535156 149.210938 C 152.242188 147.144531 153.019531 145.082031 153.855469 143.082031 L 154.632812 141.082031 C 155.40625 139.082031 156.179688 137.144531 157.019531 135.144531 L 157.085938 134.953125 C 157.921875 132.886719 158.828125 130.628906 160.441406 129.015625 C 160.441406 129.015625 160.503906 128.949219 160.503906 128.949219 C 160.117188 128.757812 159.730469 128.5 159.40625 128.175781 C 159.277344 128.046875 158.761719 127.402344 158.570312 127.015625 C 158.375 127.078125 158.117188 127.144531 157.921875 127.273438 C 157.535156 127.402344 157.214844 127.335938 157.019531 127.078125 L 156.566406 127.335938 C 156.117188 127.597656 155.601562 127.855469 155.148438 127.917969 C 154.503906 127.917969 154.050781 127.597656 153.664062 127.078125 C 153.339844 126.628906 153.210938 126.113281 152.824219 125.726562 C 152.4375 125.335938 151.984375 124.949219 151.597656 124.628906 L 151.082031 124.242188 C 150.113281 123.53125 149.210938 122.820312 148.4375 121.917969 C 148.050781 121.464844 147.53125 120.886719 147.273438 120.304688 C 147.210938 120.175781 147.210938 120.109375 147.210938 119.980469 C 147.144531 120.304688 147.082031 120.691406 147.082031 121.015625 C 146.308594 125.984375 145.726562 130.949219 145.53125 135.984375 C 145.46875 138.4375 145.402344 140.953125 145.53125 143.402344 C 145.597656 144.628906 145.660156 145.855469 145.789062 147.082031 C 145.855469 147.726562 145.917969 148.308594 145.984375 148.953125 L 145.984375 149.082031 C 145.984375 149.277344 146.046875 149.46875 145.984375 149.597656 C 146.566406 149.921875 146.953125 150.628906 147.144531 151.210938 C 147.339844 151.664062 147.210938 152.113281 146.886719 152.371094 C 147.210938 152.695312 147.53125 153.082031 147.789062 153.46875 C 147.855469 153.535156 147.726562 153.597656 147.660156 153.597656 C 147.210938 153.277344 146.757812 152.953125 146.308594 152.757812 C 146.046875 152.890625 145.789062 152.890625 145.53125 152.824219 C 145.273438 152.757812 145.015625 152.566406 144.824219 152.308594 C 143.46875 152.050781 141.984375 152.371094 140.757812 153.210938 C 140.5 153.40625 140.238281 153.597656 140.046875 153.792969 C 139.980469 153.855469 139.980469 153.855469 139.917969 153.921875 L 140.175781 154.050781 C 140.304688 154.113281 140.371094 154.113281 140.433594 154.113281 C 140.691406 154.179688 140.886719 154.179688 141.144531 154.179688 L 141.53125 154.179688 C 142.886719 154.308594 144.304688 154.308594 145.597656 154.890625 C 145.855469 155.019531 145.789062 155.40625 145.53125 155.46875 C 144.5625 155.726562 143.660156 155.726562 142.691406 155.664062 L 142.5 155.664062 C 141.59375 155.597656 140.628906 155.597656 139.789062 155.339844 C 139.980469 155.921875 139.722656 156.632812 138.820312 156.761719 C 136.238281 157.082031 133.59375 156.953125 131.011719 156.695312 C 128.367188 156.4375 125.785156 156.242188 123.136719 156.113281 C 114.621094 155.664062 106.101562 155.726562 97.515625 155.855469 L 92.675781 155.921875 C 88.804688 155.984375 84.996094 155.984375 81.125 155.984375 L 79.316406 155.984375 C 78.542969 155.984375 77.769531 155.984375 77.058594 155.921875 L 76.605469 155.921875 C 75.703125 155.855469 74.476562 156.050781 73.703125 155.46875 C 73.058594 155.019531 72.929688 154.242188 73.316406 153.535156 C 73.445312 153.339844 73.574219 153.148438 73.769531 153.019531 C 74.089844 150.179688 74.285156 147.339844 74.476562 144.4375 C 75.121094 134.433594 74.734375 124.5 73.25 114.625 C 69.121094 115.851562 65.121094 117.464844 61.183594 119.144531 C 59.054688 120.046875 56.921875 121.015625 54.859375 121.980469 C 52.921875 122.886719 51.050781 124.046875 48.984375 124.628906 C 48.792969 124.820312 48.535156 124.886719 48.339844 124.820312 C 48.148438 124.886719 47.886719 124.820312 47.695312 124.691406 C 47.628906 124.691406 47.628906 124.628906 47.566406 124.628906 L 47.113281 124.820312 C 46.402344 124.371094 45.695312 123.789062 45.179688 123.144531 C 44.53125 123.722656 43.886719 124.242188 43.242188 124.757812 C 42.53125 125.335938 41.820312 125.917969 41.113281 126.5 C 40.855469 126.757812 40.53125 126.949219 40.273438 127.207031 L 40.207031 127.273438 C 41.242188 127.984375 42.210938 129.015625 43.046875 129.917969 C 43.953125 130.886719 44.789062 131.917969 45.695312 132.886719 L 46.535156 133.855469 C 52.40625 140.757812 58.34375 147.984375 65.894531 153.019531 C 67.121094 153.792969 65.957031 155.792969 64.734375 154.953125 C 62.472656 153.40625 60.34375 151.664062 58.277344 149.855469 C 54.730469 146.757812 51.503906 143.144531 48.46875 139.46875 C 46.921875 137.597656 45.4375 135.660156 44.015625 133.726562 L 43.5 133.082031 C 42.855469 132.175781 42.210938 131.339844 41.5625 130.433594 L 41.433594 130.242188 C 40.855469 129.46875 40.273438 128.5625 39.949219 127.660156 C 39.820312 127.789062 39.628906 127.917969 39.433594 127.984375 C 39.046875 128.113281 38.59375 127.789062 38.464844 127.464844 C 38.207031 126.5625 39.046875 126.046875 39.691406 125.53125 C 40.46875 124.949219 41.242188 124.371094 42.082031 123.851562 L 42.339844 123.660156 C 43.304688 122.949219 44.339844 122.242188 45.4375 121.660156 C 45.5 121.59375 45.5 121.59375 45.566406 121.53125 C 45.628906 121.464844 45.695312 121.464844 45.695312 121.402344 C 44.402344 119.273438 42.984375 117.273438 41.371094 115.335938 C 40.144531 113.917969 38.917969 112.496094 37.5625 111.207031 L 36.980469 110.625 C 36.078125 109.722656 35.109375 108.882812 34.140625 108.109375 L 33.820312 108.496094 C 33.367188 108.949219 32.980469 109.464844 32.527344 109.917969 C 31.625 110.820312 30.785156 111.722656 29.882812 112.625 C 28.464844 114.109375 27.042969 115.660156 25.625 117.207031 L 24.914062 117.980469 C 23.429688 119.59375 21.878906 121.207031 20.589844 122.886719 L 20.523438 122.949219 C 19.945312 123.722656 19.558594 124.5625 19.816406 125.53125 C 20.074219 126.5 20.71875 127.335938 21.234375 128.113281 L 21.300781 128.175781 C 23.492188 131.53125 25.753906 134.824219 28.269531 137.984375 C 33.238281 144.308594 38.917969 150.242188 45.695312 154.628906 C 46.664062 155.210938 45.757812 156.761719 44.789062 156.113281 C 40.855469 153.535156 37.175781 150.4375 33.882812 147.082031 C 30.785156 144.050781 28.011719 140.628906 25.429688 137.210938 C 24.140625 135.53125 22.914062 133.789062 21.75 132.046875 C 20.589844 130.371094 19.300781 128.5625 18.523438 126.691406 C 18.074219 125.726562 17.945312 124.628906 18.265625 123.59375 C 18.589844 122.628906 19.234375 121.851562 19.878906 121.078125 L 19.945312 121.015625 C 21.492188 119.273438 23.042969 117.59375 24.589844 115.917969 C 26.140625 114.238281 27.816406 112.625 29.496094 111.011719 C 30.785156 109.789062 32.207031 108.691406 33.625 107.660156 C 33.496094 107.59375 33.367188 107.464844 33.238281 107.398438 C 32.851562 107.140625 32.722656 106.5625 33.109375 106.175781 C 34.078125 105.207031 35.238281 104.304688 36.273438 103.398438 C 37.304688 102.5625 38.273438 101.722656 39.304688 100.820312 C 41.371094 99.078125 43.371094 97.335938 45.4375 95.65625 C 49.113281 92.558594 52.730469 89.398438 56.40625 86.300781 C 57.957031 85.011719 59.441406 83.71875 60.988281 82.429688 L 63.699219 80.105469 L 65.054688 79.011719 C 65.765625 78.429688 66.410156 77.847656 67.183594 77.460938 C 68.992188 76.429688 71.1875 75.976562 73.1875 75.460938 L 73.316406 75.398438 C 75.574219 74.75 77.832031 74.171875 80.09375 73.65625 C 82.351562 73.136719 84.675781 72.6875 86.996094 72.234375 C 89.0625 71.847656 91.191406 71.527344 93.320312 71.460938 C 93.839844 71.265625 94.484375 71.203125 95 71.394531 C 95.195312 71.460938 95.453125 71.589844 95.644531 71.785156 C 96.679688 71.394531 97.710938 71.265625 98.679688 70.621094 C 99.648438 70.042969 100.484375 69.203125 101.195312 68.300781 C 102.617188 66.558594 103.390625 64.429688 103.972656 62.167969 Z M 127.65625 124.304688 C 126.816406 124.242188 126.105469 124.5625 125.398438 124.949219 C 125.785156 125.144531 126.234375 125.335938 126.621094 125.464844 L 129.332031 126.628906 C 130.238281 127.015625 131.207031 127.335938 132.042969 127.855469 C 132.109375 127.917969 132.171875 127.917969 132.171875 127.984375 C 133.078125 127.402344 134.042969 126.886719 134.949219 126.371094 C 135.140625 126.242188 135.335938 126.113281 135.59375 125.984375 C 134.496094 126.371094 133.398438 126.5 132.238281 126.175781 C 130.6875 125.726562 129.332031 124.433594 127.65625 124.304688 Z M 129.914062 121.59375 L 129.785156 121.464844 C 129.011719 120.949219 128.042969 120.238281 127.074219 120.691406 C 126.621094 120.949219 126.234375 121.273438 125.785156 121.53125 C 125.332031 121.789062 124.816406 121.980469 124.363281 122.113281 C 123.523438 122.304688 122.558594 122.304688 121.652344 122.175781 L 121.652344 123.402344 C 122.363281 123.660156 123.007812 123.984375 123.65625 124.242188 C 124.105469 124.113281 124.492188 123.917969 124.945312 123.722656 L 125.269531 123.59375 C 126.105469 123.207031 127.011719 122.949219 127.914062 123.078125 C 129.65625 123.335938 131.011719 124.628906 132.753906 125.078125 C 134.820312 125.59375 136.691406 124.046875 138.691406 123.660156 C 139.015625 123.59375 139.335938 123.53125 139.660156 123.53125 L 139.851562 123.53125 C 140.304688 123.273438 140.886719 123.015625 141.207031 122.628906 C 141.53125 122.175781 141.53125 121.402344 141.660156 120.886719 C 141.660156 120.820312 141.660156 120.757812 141.660156 120.757812 C 141.464844 120.757812 141.273438 120.757812 141.078125 120.820312 C 140.5 120.949219 139.917969 121.144531 139.335938 121.402344 C 138.304688 121.851562 137.273438 122.371094 136.109375 122.691406 C 135.011719 123.015625 133.851562 123.144531 132.753906 122.949219 C 131.722656 122.691406 130.816406 122.175781 129.914062 121.59375 Z M 130.109375 117.335938 L 129.914062 117.207031 C 129.460938 116.949219 129.011719 116.625 128.429688 116.757812 C 127.976562 116.820312 127.527344 117.207031 127.140625 117.464844 C 126.234375 117.980469 125.203125 118.238281 124.171875 118.304688 C 123.332031 118.367188 122.429688 118.238281 121.589844 117.980469 L 121.589844 120.691406 C 121.910156 120.757812 122.234375 120.886719 122.558594 120.886719 C 123.589844 120.949219 124.558594 120.691406 125.398438 120.175781 L 125.847656 119.917969 C 126.558594 119.464844 127.269531 119.078125 128.238281 119.207031 C 129.203125 119.402344 129.980469 119.980469 130.753906 120.5 L 130.882812 120.5625 C 131.785156 121.144531 132.6875 121.53125 133.785156 121.53125 C 134.949219 121.53125 136.175781 121.207031 137.273438 120.820312 C 138.367188 120.433594 139.402344 119.917969 140.5625 119.789062 C 140.949219 119.722656 141.335938 119.722656 141.789062 119.789062 C 141.855469 119.464844 141.917969 119.207031 141.917969 118.886719 C 142.046875 118.238281 142.113281 117.59375 142.175781 116.949219 C 140.109375 116.367188 138.175781 118.175781 136.238281 118.757812 C 135.140625 119.078125 133.914062 119.078125 132.753906 118.757812 C 131.785156 118.5 130.945312 117.851562 130.109375 117.335938 Z M 130.109375 112.820312 C 129.65625 112.753906 129.203125 112.949219 128.816406 113.144531 C 127.847656 113.660156 127.011719 114.433594 125.914062 114.691406 C 124.492188 115.078125 122.945312 114.753906 121.589844 114.175781 C 121.589844 115.015625 121.589844 115.851562 121.589844 116.625 C 121.847656 116.757812 122.105469 116.820312 122.429688 116.886719 C 123.394531 117.078125 124.429688 117.078125 125.398438 116.820312 C 126.363281 116.5625 127.140625 115.722656 128.105469 115.53125 C 129.140625 115.273438 130.042969 115.789062 130.882812 116.304688 L 131.140625 116.496094 C 132.042969 117.144531 132.949219 117.660156 134.109375 117.789062 C 135.335938 117.917969 136.433594 117.53125 137.53125 117.015625 L 137.789062 116.886719 C 139.207031 116.238281 140.949219 115.53125 142.371094 116.238281 C 142.5 115.207031 142.5625 114.175781 142.628906 113.144531 C 142.433594 113.078125 142.242188 113.011719 141.984375 113.011719 C 141.464844 113.011719 140.886719 113.207031 140.371094 113.335938 C 139.273438 113.722656 138.238281 114.304688 137.140625 114.753906 C 136.109375 115.144531 134.949219 115.335938 133.851562 115.207031 C 132.820312 115.015625 132.042969 114.496094 131.335938 113.789062 L 131.207031 113.660156 C 130.882812 113.273438 130.558594 112.882812 130.109375 112.820312 Z M 130.882812 108.949219 C 130.367188 108.691406 129.722656 108.433594 129.140625 108.496094 C 128.558594 108.5625 128.171875 108.949219 127.847656 109.335938 L 127.65625 109.53125 C 127.011719 110.238281 126.429688 110.882812 125.460938 111.207031 C 124.492188 111.53125 123.394531 111.402344 122.492188 110.949219 C 122.171875 110.753906 121.847656 110.5625 121.523438 110.367188 L 121.523438 112.5625 C 122.171875 112.882812 122.75 113.144531 123.460938 113.335938 C 124.75 113.660156 125.785156 113.402344 126.882812 112.691406 L 127.011719 112.625 C 127.847656 112.109375 128.6875 111.464844 129.65625 111.402344 C 130.625 111.335938 131.398438 111.917969 132.042969 112.5625 L 132.109375 112.625 C 132.949219 113.464844 133.785156 113.917969 134.949219 113.789062 C 136.109375 113.722656 137.207031 113.144531 138.304688 112.691406 L 138.433594 112.625 C 139.402344 112.238281 140.5625 111.789062 141.660156 111.980469 C 141.917969 112.046875 142.242188 112.109375 142.5625 112.238281 C 142.628906 111.207031 142.628906 110.175781 142.628906 109.207031 C 141.984375 108.691406 141.078125 108.5625 140.304688 108.820312 C 139.078125 109.140625 138.109375 110.046875 136.949219 110.5625 C 135.917969 111.011719 134.882812 111.078125 133.785156 110.691406 C 132.753906 110.304688 131.914062 109.53125 130.882812 108.949219 Z M 142.628906 104.691406 C 140.820312 104.753906 139.078125 105.917969 137.335938 106.367188 C 135.398438 106.882812 133.851562 106.175781 132.109375 105.398438 L 131.914062 105.269531 C 131.011719 104.882812 130.109375 104.5625 129.140625 104.691406 C 128.171875 104.820312 127.332031 105.398438 126.492188 105.851562 L 126.363281 105.917969 C 124.878906 106.753906 123.332031 107.335938 121.589844 107.207031 C 121.589844 107.722656 121.589844 108.304688 121.589844 108.820312 C 121.847656 109.011719 122.171875 109.140625 122.429688 109.335938 L 122.492188 109.398438 C 123.332031 109.917969 124.171875 110.238281 125.136719 109.917969 C 126.105469 109.59375 126.558594 108.753906 127.203125 108.109375 C 127.785156 107.464844 128.625 107.078125 129.460938 107.140625 C 130.429688 107.207031 131.335938 107.59375 132.109375 108.109375 C 132.882812 108.625 133.65625 109.269531 134.5625 109.53125 C 136.625 110.109375 138.367188 107.917969 140.371094 107.59375 C 141.207031 107.464844 142.113281 107.660156 142.691406 108.109375 C 142.691406 107.011719 142.628906 105.851562 142.628906 104.691406 Z M 127.074219 104.175781 C 126.816406 104.175781 126.558594 104.175781 126.300781 104.175781 C 125.332031 104.238281 124.429688 104.238281 123.460938 104.304688 C 122.816406 104.367188 121.976562 104.5625 121.394531 104.367188 C 121.394531 104.433594 121.332031 104.496094 121.332031 104.5625 C 121.394531 105.011719 121.460938 105.527344 121.523438 106.046875 C 122.105469 106.109375 122.6875 106.109375 123.332031 105.980469 C 124.621094 105.722656 125.785156 104.820312 127.074219 104.175781 Z M 142.5625 103.785156 C 139.144531 104.046875 135.65625 103.914062 132.171875 104.046875 L 131.785156 104.046875 C 131.785156 104.046875 131.722656 104.046875 131.722656 104.046875 C 132.109375 104.175781 132.496094 104.367188 132.882812 104.5625 L 133.269531 104.753906 C 134.171875 105.207031 135.140625 105.527344 136.175781 105.464844 C 137.273438 105.398438 138.304688 104.949219 139.335938 104.5625 C 140.304688 104.238281 141.464844 103.980469 142.5 104.109375 C 142.628906 103.980469 142.5625 103.851562 142.5625 103.785156 Z M 142.5625 103.785156 " fill-opacity="1" fill-rule="evenodd"/></g><path fill="#ffffff" d="M 113.996094 10.738281 C 121.742188 10.738281 133.101562 15.898438 133.9375 20.867188 C 134.972656 26.738281 137.164062 48.808594 135.941406 55.96875 C 134.714844 63.195312 130.003906 68.488281 119.546875 68.488281 C 109.09375 68.488281 101.285156 62.742188 99.476562 60.808594 C 98.25 59.519531 96.960938 56.808594 95.539062 52.742188 C 91.730469 52.097656 89.796875 50.226562 89.796875 47.195312 C 89.796875 44.160156 90.765625 42.160156 92.699219 41.191406 C 91.601562 28.613281 92.183594 20.738281 94.378906 17.640625 C 97.667969 12.933594 106.316406 10.738281 113.996094 10.738281 Z M 113.996094 10.738281 " fill-opacity="1" fill-rule="evenodd"/><path fill="#000000" d="M 111.804688 0.09375 C 113.222656 0.09375 114.640625 0.15625 116.0625 0.285156 C 116.125 0.285156 116.191406 0.285156 116.257812 0.285156 C 118.964844 0.0273438 121.613281 0.285156 124.324219 0.351562 C 126.90625 0.480469 129.613281 0.738281 131.875 1.964844 C 132.195312 2.09375 132.390625 2.285156 132.648438 2.480469 C 132.972656 2.542969 133.230469 2.609375 133.488281 2.738281 C 134.195312 2.609375 135.035156 2.929688 135.230469 3.769531 C 135.488281 5.058594 135.550781 6.285156 135.421875 7.578125 C 135.421875 7.578125 135.421875 7.640625 135.421875 7.640625 C 135.746094 8.804688 135.679688 10.09375 135.421875 11.320312 C 135.550781 12.804688 135.617188 14.289062 135.617188 15.769531 C 135.617188 16.804688 135.679688 17.835938 135.550781 18.867188 C 135.488281 19.773438 135.101562 20.480469 134.519531 21.125 C 134.390625 21.253906 134.195312 21.253906 134.066406 21.253906 C 134.003906 21.253906 134.003906 21.253906 133.9375 21.253906 C 134.261719 22.03125 134.585938 22.804688 134.84375 23.578125 C 135.292969 24.804688 135.746094 26.03125 136.070312 27.257812 C 136.714844 29.773438 137.101562 32.355469 137.359375 34.933594 C 137.8125 39.515625 137.941406 44.160156 138.003906 48.808594 C 138.070312 53.195312 137.683594 57.777344 135.230469 61.519531 C 133.035156 64.808594 129.742188 67.195312 126 68.488281 C 123.871094 69.195312 121.546875 69.519531 119.355469 69.582031 C 118.191406 69.648438 117.03125 69.582031 115.933594 69.453125 C 114.835938 69.324219 113.675781 69.324219 112.898438 68.488281 C 112.707031 68.226562 112.707031 67.777344 113.027344 67.648438 C 113.675781 67.390625 114.0625 67.324219 114.773438 67.453125 C 115.351562 67.519531 115.933594 67.582031 116.515625 67.648438 C 117.738281 67.710938 118.964844 67.710938 120.191406 67.648438 C 122.453125 67.453125 124.773438 66.808594 126.773438 65.839844 C 130.003906 64.292969 132.710938 61.839844 134.261719 58.550781 C 136.003906 54.742188 135.875 50.355469 135.808594 46.289062 C 135.746094 41.839844 135.550781 37.386719 135.164062 32.933594 C 134.972656 30.804688 134.714844 28.613281 134.457031 26.480469 C 134.324219 25.320312 134.132812 24.222656 133.9375 23.0625 C 133.808594 22.480469 133.679688 21.902344 133.550781 21.253906 C 133.488281 21.253906 133.359375 21.253906 133.292969 21.253906 C 132.710938 21.253906 132.132812 21.125 131.679688 20.738281 C 131.488281 20.867188 131.292969 20.933594 131.035156 20.933594 C 128.710938 21.0625 126.324219 20.933594 123.9375 20.933594 C 121.546875 20.933594 119.222656 20.933594 116.835938 20.933594 C 114.511719 20.933594 112.125 20.933594 109.738281 20.867188 C 107.542969 20.804688 105.285156 20.867188 103.089844 20.480469 C 102.378906 23.0625 102.378906 25.902344 103.929688 28.222656 C 104.382812 28.871094 103.992188 29.644531 103.476562 30.03125 C 102.898438 30.417969 101.863281 31.0625 101.023438 31.128906 C 100.960938 31.320312 100.832031 31.515625 100.765625 31.707031 C 100.378906 32.675781 99.992188 33.644531 99.734375 34.613281 C 99.605469 35.128906 99.476562 35.644531 99.410156 36.226562 C 99.410156 36.289062 99.410156 36.417969 99.410156 36.484375 C 99.410156 36.546875 99.410156 36.546875 99.410156 36.613281 C 99.476562 36.871094 99.539062 37.128906 99.539062 37.386719 C 99.671875 38.03125 99.734375 38.675781 99.863281 39.320312 C 99.992188 40.546875 99.992188 42.097656 98.832031 42.804688 C 98.1875 43.195312 97.476562 43.128906 96.765625 42.871094 C 96.3125 42.675781 95.925781 42.484375 95.539062 42.226562 C 95.28125 42.097656 95.023438 41.96875 94.828125 41.839844 C 94.765625 41.773438 94.699219 41.773438 94.636719 41.710938 C 94.183594 41.773438 93.734375 41.96875 93.539062 42.097656 C 92.894531 42.417969 92.3125 42.871094 91.859375 43.453125 C 90.828125 44.613281 90.503906 46.226562 90.636719 47.710938 C 90.765625 49.128906 91.34375 50.679688 92.441406 51.644531 C 92.894531 52.03125 93.539062 52.292969 94.121094 52.292969 C 94.441406 52.292969 94.699219 52.226562 95.023438 52.164062 C 95.347656 52.097656 95.667969 52.097656 95.925781 51.96875 C 96.3125 51.773438 96.832031 52.292969 96.636719 52.679688 C 96.507812 53 96.441406 53.257812 96.3125 53.515625 C 97.410156 55.386719 98.703125 57.128906 99.992188 58.871094 C 101.15625 60.421875 102.574219 61.710938 103.863281 63.132812 C 104.445312 63.777344 104.703125 65.003906 103.605469 65.261719 C 102.574219 65.519531 101.800781 64.421875 101.15625 63.710938 C 98.636719 60.871094 96.765625 57.582031 95.863281 53.902344 C 95.476562 54.164062 95.023438 54.355469 94.507812 54.421875 C 93.539062 54.550781 92.570312 54.355469 91.730469 53.902344 C 88.570312 52.03125 87.796875 47.066406 89.28125 43.96875 C 89.667969 43.195312 90.183594 42.546875 90.828125 42.03125 C 90.765625 41.902344 90.765625 41.839844 90.765625 41.710938 C 90.828125 41.515625 90.894531 41.257812 90.957031 41.0625 C 90.894531 41 90.828125 40.933594 90.828125 40.871094 C 90.894531 40.226562 90.957031 39.644531 91.023438 39 C 91.023438 38.097656 90.957031 37.128906 90.957031 36.226562 C 90.957031 34.742188 91.085938 33.257812 91.085938 31.773438 C 91.085938 26.609375 91.34375 21.386719 91.34375 16.222656 C 91.34375 13.707031 91.34375 11.125 91.28125 8.609375 C 91.28125 8.542969 91.28125 8.542969 91.28125 8.480469 C 91.214844 6.480469 90.699219 3.769531 92.699219 2.414062 C 93.023438 2.222656 93.410156 2.222656 93.796875 2.351562 C 94.828125 1.640625 96.121094 1.316406 97.347656 1.125 C 99.671875 0.738281 102.058594 0.542969 104.382812 0.351562 C 105.605469 0.222656 106.898438 0.15625 108.125 0.222656 C 109.285156 0.15625 110.511719 0.0273438 111.804688 0.09375 Z M 92.894531 45.453125 C 93.34375 45 93.992188 45.128906 94.570312 45.257812 C 95.347656 45.386719 96.054688 45.710938 96.703125 46.160156 C 97.410156 46.613281 98.25 47.257812 98.378906 48.097656 C 98.507812 48.871094 97.734375 49.773438 96.894531 49.257812 C 96.121094 48.742188 95.796875 47.839844 95.089844 47.195312 C 94.765625 46.871094 94.441406 46.613281 94.054688 46.355469 C 93.863281 46.226562 93.734375 46.097656 93.539062 46.03125 C 93.539062 46.03125 92.765625 45.773438 92.894531 46.097656 C 92.957031 46.226562 92.828125 46.289062 92.699219 46.226562 C 92.507812 45.96875 92.636719 45.710938 92.894531 45.453125 Z M 92.894531 45.453125 " fill-opacity="1" fill-rule="evenodd"/><path fill="#000000" d="M 122.703125 58.6875 C 121.800781 58.300781 120.960938 57.71875 120.378906 56.878906 C 120.121094 56.621094 120.121094 56.296875 120.121094 56.039062 C 120.1875 55.71875 120.378906 55.460938 120.574219 55.265625 C 120.832031 55.074219 121.089844 55.007812 121.414062 55.007812 C 121.671875 55.074219 121.929688 55.203125 122.121094 55.460938 L 122.1875 55.523438 C 122.574219 55.976562 123.027344 56.429688 123.542969 56.6875 C 124.058594 56.945312 124.640625 57.074219 125.21875 57.007812 C 126.316406 56.878906 127.09375 56.296875 127.929688 55.460938 C 128.058594 55.332031 128.125 55.265625 128.253906 55.136719 C 128.320312 55.007812 128.382812 54.945312 128.511719 54.945312 C 128.640625 54.878906 128.769531 54.878906 128.835938 54.945312 C 128.964844 55.007812 129.027344 55.074219 129.09375 55.136719 C 129.15625 55.203125 129.222656 55.332031 129.15625 55.460938 C 129.09375 56.296875 128.640625 57.074219 127.996094 57.652344 C 127.285156 58.300781 126.382812 58.75 125.480469 58.945312 C 124.574219 59.203125 123.605469 59.074219 122.703125 58.6875 Z M 125.996094 45.523438 C 127.027344 46.167969 128.578125 47.589844 127.480469 49.136719 C 126.1875 50.492188 124.316406 48.941406 123.347656 48.234375 C 122.511719 47.652344 121.542969 49.070312 122.316406 49.71875 C 129.027344 54.6875 131.738281 45.71875 126.511719 44.8125 C 125.929688 44.683594 125.738281 45.328125 125.996094 45.523438 Z M 113.992188 39.78125 C 114.121094 38.363281 116.25 38.039062 116.445312 39.457031 C 116.636719 40.683594 116.378906 41.84375 115.863281 43.007812 C 115.347656 44.105469 113.992188 43.585938 113.863281 42.621094 C 113.796875 41.265625 113.925781 40.621094 113.992188 39.78125 Z M 130.382812 39.136719 C 130.707031 38.75 131.09375 38.492188 131.609375 38.621094 C 133.222656 39.070312 132.769531 41.394531 132.191406 42.492188 C 131.867188 43.070312 130.898438 43.265625 130.449219 42.75 C 129.738281 41.84375 129.351562 40.101562 130.320312 39.265625 C 130.320312 39.265625 130.382812 39.199219 130.382812 39.136719 Z M 115.863281 33.585938 L 116.121094 33.523438 C 116.894531 33.394531 117.929688 33.265625 118.445312 33.910156 C 118.765625 34.230469 118.832031 34.878906 118.445312 35.199219 C 117.734375 35.78125 116.960938 35.523438 116.121094 35.585938 C 115.410156 35.652344 114.765625 35.714844 114.121094 35.910156 C 112.636719 36.296875 111.472656 37.070312 110.183594 37.910156 C 109.988281 38.039062 109.859375 37.78125 109.925781 37.652344 C 110.636719 36.230469 112.054688 35.070312 113.476562 34.359375 C 114.25 34.039062 115.023438 33.714844 115.863281 33.585938 Z M 128.898438 32.941406 L 129.09375 33.007812 C 131.222656 33.457031 133.996094 34.359375 135.03125 36.425781 C 135.09375 36.75 135.03125 36.8125 134.964844 36.8125 C 134.964844 36.878906 134.902344 36.878906 134.773438 36.941406 C 134.707031 36.941406 134.707031 36.941406 134.644531 36.941406 C 134.191406 36.8125 133.804688 36.683594 133.480469 36.492188 L 133.09375 36.296875 C 132.640625 36.101562 132.191406 35.84375 131.738281 35.714844 C 130.707031 35.394531 129.671875 35.136719 128.640625 35.007812 C 128.382812 35.007812 128.1875 34.878906 127.996094 34.75 C 127.800781 34.617188 127.671875 34.425781 127.671875 34.230469 C 127.609375 33.910156 127.609375 33.714844 127.800781 33.457031 C 127.929688 33.265625 128.125 33.136719 128.320312 33.007812 C 128.449219 32.941406 128.707031 32.878906 128.898438 32.941406 Z M 128.898438 32.941406 " fill-opacity="1" fill-rule="evenodd"/></svg>