<svg xmlns="http://www.w3.org/2000/svg" xmlns:xlink="http://www.w3.org/1999/xlink" width="500" zoomAndPan="magnify" viewBox="0 0 375 374.999991" height="500" preserveAspectRatio="xMidYMid meet" version="1.0"><defs><clipPath id="2b2fa390d8"><path d="M 42.765625 9.078125 L 332.265625 9.078125 L 332.265625 375 L 42.765625 375 Z M 42.765625 9.078125 " clip-rule="nonzero"/></clipPath></defs><g clip-path="url(#2b2fa390d8)"><path fill="#000000" d="M 323.992188 354.167969 C 324.566406 344.417969 324.648438 334.585938 325.792969 324.832031 C 326.859375 315.820312 328.25 306.804688 328.496094 297.707031 C 328.660156 291.5625 328.332031 285.335938 327.757812 279.1875 C 327.023438 271.566406 326.121094 265.011719 324.15625 256.980469 C 322.105469 248.621094 318.996094 241.082031 315.882812 234.199219 C 312.523438 226.988281 309.164062 219.613281 304.414062 213.140625 C 301.546875 209.207031 297.53125 205.191406 293.109375 201.257812 C 289.503906 198.0625 285.488281 195.109375 280.492188 192.160156 C 277.460938 190.359375 274.183594 188.964844 270.90625 187.570312 C 266.8125 185.769531 260.011719 182.984375 254.523438 180.6875 C 247.644531 177.738281 240.761719 174.707031 234.535156 170.527344 C 229.292969 166.921875 224.625 162.414062 220.691406 157.332031 C 219.21875 155.449219 217.742188 153.5625 216.597656 151.433594 C 214.792969 148.15625 213.402344 144.550781 212.417969 140.945312 C 210.617188 133.570312 210.453125 125.949219 210.453125 118.410156 C 210.371094 114.476562 209.878906 110.542969 209.386719 106.691406 C 209.140625 104.96875 207.914062 97.347656 206.929688 93.824219 C 206.027344 90.136719 204.800781 86.613281 203.488281 83.089844 C 201.769531 78.417969 198.984375 72.765625 195.871094 67.355469 C 193.742188 63.503906 192.019531 60.882812 189.808594 58.179688 C 183.828125 50.964844 177.273438 45.476562 170.394531 40.640625 C 161.546875 34.167969 152.371094 29.90625 143.035156 26.546875 C 127.140625 20.972656 110.839844 16.140625 94.210938 13.679688 C 90.933594 13.269531 87.574219 13.023438 84.214844 12.777344 C 80.449219 12.617188 76.761719 12.535156 72.992188 12.371094 C 66.359375 12.125 59.722656 11.632812 53.085938 11.960938 C 56.9375 10.976562 60.867188 10.484375 64.800781 10.074219 C 70.863281 9.582031 76.925781 9.5 82.988281 9.746094 C 96.09375 10.074219 108.957031 13.023438 121.570312 16.304688 C 126.402344 17.53125 131.15625 19.089844 135.988281 20.5625 C 143.523438 22.859375 150.980469 25.5625 158.105469 29.003906 C 164.332031 31.953125 170.066406 35.804688 175.554688 39.902344 C 183.664062 45.886719 191.121094 52.933594 196.691406 61.375 C 202.015625 70.140625 206.683594 79.402344 209.550781 89.316406 C 211.273438 95.054688 212.253906 100.953125 213.074219 106.9375 C 213.730469 111.769531 214.21875 116.6875 214.058594 121.605469 C 214.136719 128.488281 214.382812 133.652344 215.777344 139.632812 C 216.84375 143.648438 217.824219 146.1875 219.464844 149.140625 C 220.527344 151.105469 221.921875 152.910156 223.230469 154.628906 C 227.082031 159.546875 232.324219 164.542969 236.421875 167.25 C 242.15625 171.101562 248.460938 174.050781 254.851562 176.835938 C 261.078125 179.542969 265.664062 181.425781 271.316406 183.800781 C 274.511719 185.195312 277.789062 186.589844 280.902344 188.308594 C 283.851562 189.949219 286.636719 191.832031 289.421875 193.800781 C 292.535156 196.175781 295.566406 198.714844 298.433594 201.421875 C 301.136719 203.960938 303.757812 206.664062 306.050781 209.617188 C 311.539062 216.5 315.144531 224.53125 318.832031 232.398438 C 322.1875 239.855469 325.382812 247.394531 327.351562 255.34375 C 330.382812 267.304688 331.691406 279.84375 332.019531 292.382812 C 332.265625 302.789062 330.464844 314.261719 329.480469 322.046875 C 328.742188 328.109375 328.167969 334.09375 327.1875 340.074219 C 326.367188 344.828125 325.21875 349.5 323.992188 354.167969 Z M 298.761719 353.597656 C 299.824219 349.910156 300.644531 346.140625 301.546875 342.371094 C 302.773438 337.371094 303.839844 332.371094 304.332031 327.292969 C 304.90625 321.71875 304.742188 316.0625 304.414062 310.492188 C 304.085938 305.246094 303.59375 300.003906 303.019531 294.757812 C 301.300781 279.925781 298.105469 265.09375 292.042969 251.328125 C 289.175781 244.851562 286.0625 238.378906 281.96875 232.5625 C 279.589844 229.28125 277.050781 226.085938 274.019531 223.382812 C 268.695312 218.546875 262.46875 215.023438 256.164062 211.746094 C 249.9375 208.550781 243.382812 206.171875 237.074219 203.058594 C 228.390625 199.042969 220.117188 194.292969 212.089844 189.128906 C 206.4375 185.523438 202.34375 182.246094 197.179688 176.917969 C 193.742188 173.3125 191.9375 171.347656 189.808594 167.660156 C 186.53125 162.003906 184.320312 155.039062 183.171875 147.335938 C 182.4375 142.828125 182.191406 136.683594 181.535156 130.699219 C 180.304688 118.65625 178.914062 106.445312 175.390625 94.890625 C 173.507812 89.234375 170.96875 83.828125 168.019531 78.582031 C 166.296875 75.550781 164.578125 72.4375 162.449219 69.730469 C 157.449219 63.421875 151.226562 58.097656 144.671875 53.34375 C 140.65625 50.558594 136.316406 48.34375 132.054688 46.050781 C 124.191406 42.28125 116 39.003906 107.398438 37.117188 C 103.140625 36.214844 98.878906 35.476562 94.539062 34.988281 C 89.949219 34.496094 85.363281 34.332031 80.773438 34.085938 C 76.269531 33.839844 71.765625 33.921875 67.257812 34.085938 C 63 34.25 58.738281 34.496094 54.5625 35.152344 C 61.851562 35.558594 69.144531 36.707031 76.433594 37.199219 C 81.921875 37.609375 87.492188 37.855469 93.0625 38.429688 C 96.996094 38.921875 101.828125 39.574219 106.824219 40.722656 C 112.476562 42.035156 118.046875 43.917969 123.371094 46.214844 C 127.46875 47.851562 135.90625 52.03125 141.148438 55.390625 C 144.671875 57.769531 147.785156 60.226562 151.636719 63.667969 C 154.011719 65.796875 156.222656 68.09375 158.351562 70.550781 C 158.515625 70.796875 159.5 71.945312 159.828125 72.355469 C 161.710938 74.976562 163.347656 77.761719 164.988281 80.632812 C 167.855469 85.875 169.574219 89.398438 171.378906 94.398438 C 172.851562 98.578125 173.917969 102.921875 174.734375 107.347656 C 176.128906 114.476562 176.621094 119.554688 177.4375 127.09375 C 178.175781 134.222656 178.339844 141.4375 179.40625 148.484375 C 180.304688 155.039062 182.191406 161.429688 185.058594 167.414062 C 186.121094 169.625 187.351562 171.757812 188.824219 173.722656 C 190.546875 176.015625 192.429688 178.066406 194.394531 180.113281 C 199.066406 184.949219 204.308594 189.292969 209.960938 192.816406 C 217.496094 197.652344 225.28125 202.242188 233.390625 205.929688 C 236.503906 207.402344 239.617188 208.878906 242.726562 210.1875 C 247.152344 212.074219 249.445312 212.976562 254.03125 215.269531 C 259.601562 218.054688 266.074219 221.90625 269.597656 224.859375 C 273.203125 227.808594 276.640625 231.988281 278.445312 234.609375 C 281.230469 238.542969 283.441406 242.804688 285.570312 247.066406 C 288.4375 252.964844 289.914062 256.570312 291.960938 262.554688 C 295.484375 272.878906 297.777344 285.664062 298.84375 294.59375 C 299.496094 299.757812 299.90625 305 300.316406 310.246094 C 300.726562 316.144531 300.890625 322.046875 300.234375 327.863281 C 299.414062 335.074219 298.679688 342.289062 298.761719 349.5 C 298.761719 350.480469 298.761719 351.464844 298.761719 352.449219 C 298.761719 352.777344 298.761719 353.1875 298.761719 353.515625 C 298.761719 353.679688 298.761719 353.84375 298.761719 354.003906 C 298.679688 353.84375 298.679688 353.761719 298.761719 353.597656 Z M 272.382812 355.316406 C 273.449219 350.890625 274.183594 346.382812 274.59375 341.796875 C 275.496094 331.304688 275.90625 320.816406 275.332031 310.410156 C 275.085938 304.59375 274.675781 298.773438 273.53125 293.121094 C 271.808594 284.1875 268.285156 275.746094 264.191406 267.714844 C 260.339844 260.09375 256.082031 252.554688 250.265625 246.164062 C 246.003906 241.820312 241.007812 238.132812 235.519531 235.429688 C 231.257812 233.296875 226.753906 231.578125 222.167969 230.101562 C 214.21875 227.726562 206.027344 225.839844 198.328125 222.644531 C 196.855469 221.90625 195.460938 221.171875 194.070312 220.351562 C 191.855469 219.039062 189.070312 217.074219 188.253906 216.335938 C 186.449219 215.023438 183.253906 212.15625 180.550781 209.535156 C 178.996094 207.976562 177.4375 206.335938 176.046875 204.617188 C 173.425781 201.257812 171.296875 197.570312 169.574219 193.636719 C 169.65625 193.800781 169.738281 193.964844 169.820312 194.128906 C 168.511719 191.09375 167.363281 188.0625 166.460938 184.867188 C 164.578125 178.476562 163.265625 171.839844 161.957031 165.28125 C 160.808594 159.628906 159.582031 153.972656 158.597656 148.238281 C 157.449219 141.355469 156.46875 134.46875 154.910156 127.667969 C 153.4375 121.359375 151.636719 115.050781 149.09375 109.066406 C 147.785156 105.789062 146.0625 102.757812 144.015625 99.808594 C 140.902344 95.21875 137.054688 91.121094 132.546875 87.84375 C 129.269531 85.300781 125.585938 83.253906 121.898438 81.449219 C 117.476562 79.320312 112.886719 77.515625 108.21875 75.960938 C 99.289062 73.175781 90.195312 71.125 81.019531 69.570312 C 75.695312 68.585938 70.207031 68.09375 64.71875 68.257812 C 60.050781 68.339844 55.460938 69.078125 50.875 70.058594 C 53.824219 70.140625 56.773438 70.222656 59.722656 70.386719 C 64.0625 70.714844 66.847656 71.125 70.453125 71.535156 C 74.796875 72.109375 83.398438 73.582031 89.132812 74.976562 C 99.289062 77.191406 110.757812 80.46875 118.621094 84.402344 C 123.535156 86.777344 127.960938 89.398438 131.15625 92.023438 C 137.300781 97.265625 140.820312 101.773438 144.425781 109.230469 C 146.226562 113.082031 149.257812 122.589844 150.652344 128.734375 C 152.207031 135.78125 153.273438 142.992188 154.421875 150.203125 C 155.484375 156.023438 156.714844 161.757812 157.859375 167.496094 C 159.828125 176.917969 161.546875 186.507812 165.480469 195.273438 C 167.363281 199.699219 169.820312 203.796875 172.769531 207.566406 C 174.898438 210.269531 177.355469 212.730469 179.898438 215.023438 C 185.140625 219.777344 190.957031 224.039062 197.507812 226.660156 C 204.964844 229.527344 212.910156 231.167969 220.527344 233.378906 C 226.507812 235.265625 230.523438 236.738281 235.601562 239.527344 C 238.632812 241.164062 241.089844 242.96875 242.972656 244.441406 C 244.777344 245.917969 246.496094 247.394531 248.054688 249.113281 C 253.460938 255.179688 258.128906 263.535156 262.226562 271.894531 C 265.992188 279.679688 268.695312 286.890625 270.335938 295.988281 C 271.480469 302.625 271.808594 312.214844 271.808594 320.40625 C 271.726562 329.257812 270.988281 338.027344 270.089844 346.792969 C 269.433594 353.761719 268.53125 361.546875 268.285156 368.101562 C 270.007812 363.839844 271.316406 359.578125 272.382812 355.316406 Z M 241.746094 373.753906 C 242.5625 369.902344 243.464844 366.132812 244.203125 362.28125 C 244.941406 357.855469 245.1875 355.808594 245.675781 351.464844 C 246.085938 347.449219 246.660156 343.433594 246.824219 339.417969 C 246.578125 333.109375 245.839844 326.800781 245.105469 320.488281 C 243.957031 311.640625 242.074219 302.789062 238.058594 294.757812 C 236.09375 290.90625 233.554688 287.464844 230.851562 284.105469 C 227.65625 279.925781 223.558594 276.402344 219.054688 273.535156 C 212.089844 269.109375 204.472656 265.832031 196.691406 262.960938 C 188.660156 260.011719 183.007812 258.292969 175.964844 253.867188 C 171.460938 251 169.328125 249.113281 165.480469 245.097656 C 160.726562 240.019531 157.53125 235.183594 153.601562 228.382812 C 150.40625 222.316406 147.785156 215.925781 145.65625 210.925781 C 142.542969 203.46875 139.839844 195.847656 138.363281 187.898438 C 136.398438 178.230469 135.742188 168.230469 133.367188 158.644531 C 131.15625 149.792969 127.058594 141.601562 122.144531 133.898438 C 119.769531 130.289062 117.230469 126.683594 114.28125 123.488281 C 111.496094 120.621094 108.21875 118.410156 105.023438 116.195312 C 101.417969 113.820312 97.652344 111.769531 93.800781 109.804688 C 90.359375 108.164062 89.050781 107.507812 85.445312 106.117188 C 82.167969 104.886719 78.890625 103.984375 75.449219 103.25 C 71.929688 102.429688 68.324219 101.773438 64.71875 101.445312 C 58.164062 100.789062 51.613281 101.855469 45.140625 103.167969 C 47.761719 103.167969 50.382812 103.167969 53.003906 103.25 C 55.542969 103.332031 58.082031 103.496094 60.625 103.738281 C 63.980469 104.230469 67.339844 104.96875 70.617188 105.625 C 75.613281 106.691406 80.613281 108 85.363281 109.96875 C 87.082031 110.707031 92.816406 113.492188 95.929688 115.292969 C 99.042969 117.015625 102.074219 118.898438 104.941406 121.03125 C 107.726562 123.078125 107.5625 122.832031 110.757812 125.867188 C 113.871094 129.0625 115.671875 131.765625 118.539062 136.109375 C 121.652344 141.027344 124.847656 147.007812 126.402344 150.941406 C 128.453125 156.105469 129.84375 161.429688 130.746094 166.839844 C 132.300781 176.015625 133.039062 185.441406 135.332031 194.539062 C 137.300781 202.648438 140.65625 210.351562 143.851562 217.972656 C 145.574219 221.988281 147.375 226.085938 149.421875 229.9375 C 151.308594 233.296875 153.355469 236.65625 155.566406 239.855469 C 161.300781 247.882812 168.265625 255.015625 177.113281 259.601562 C 182.273438 262.390625 187.84375 264.273438 193.414062 266.242188 C 198.574219 268.042969 202.179688 269.519531 206.355469 271.402344 C 210.863281 273.453125 215.203125 275.746094 219.21875 278.53125 C 222.167969 280.582031 224.789062 282.957031 227.738281 286.644531 C 230.113281 289.59375 232.078125 292.21875 234.371094 296.398438 C 237.320312 302.132812 239.207031 308.851562 240.515625 316.308594 C 241.253906 320.734375 241.5 323.441406 242.074219 328.519531 C 242.402344 332.125 242.890625 335.730469 242.972656 339.335938 C 242.808594 344.664062 241.828125 349.910156 241.664062 355.234375 C 241.335938 360.972656 241.5 366.707031 241.5 372.445312 C 241.5 373.015625 241.5 373.589844 241.5 374.246094 C 241.5 374.410156 241.5 374.574219 241.5 374.65625 C 241.582031 374.410156 241.664062 374.082031 241.746094 373.753906 Z M 208.976562 371.132812 C 211.925781 363.59375 212.007812 355.398438 211.925781 347.367188 C 211.761719 341.140625 211.273438 334.914062 209.550781 328.847656 C 207.75 322.703125 205.375 316.71875 201.933594 311.3125 C 199.148438 307.214844 195.871094 303.445312 192.019531 300.332031 C 186.039062 295.414062 178.503906 293.285156 171.378906 290.824219 C 166.378906 289.105469 163.839844 288.121094 159.664062 286.070312 C 155.976562 284.269531 152.535156 282.136719 149.257812 279.679688 C 147.128906 277.960938 145 276.074219 143.035156 274.109375 C 140.25 271.320312 137.625 268.371094 135.003906 265.421875 C 130.335938 260.09375 127.632812 256.816406 123.78125 251 C 120.585938 245.835938 118.457031 241.738281 116.738281 237.066406 C 114.445312 230.757812 113.214844 222.890625 112.558594 218.054688 C 111.25 209.699219 110.59375 196.585938 108.546875 186.34375 C 107.726562 182.410156 106.660156 178.476562 105.351562 174.625 C 104.121094 171.265625 102.648438 168.070312 101.089844 164.871094 C 99.535156 162.003906 98.140625 159.054688 96.175781 156.433594 C 94.539062 154.300781 92.570312 152.5 90.523438 150.859375 C 87.328125 148.320312 83.558594 146.597656 79.710938 145.289062 C 76.269531 144.140625 72.664062 143.484375 69.0625 142.992188 C 64.0625 142.335938 58.902344 142.253906 53.90625 142.746094 C 50.136719 143.074219 46.453125 143.894531 42.765625 144.550781 C 46.695312 144.714844 50.546875 144.632812 54.480469 144.878906 C 58.738281 145.125 64.226562 145.777344 67.011719 146.1875 C 69.714844 146.515625 74.550781 147.335938 78.480469 148.730469 C 82.414062 150.121094 87.246094 152.582031 90.359375 155.777344 C 93.226562 158.480469 94.375 160.449219 96.421875 164.382812 C 98.46875 168.3125 100.191406 172.003906 101.253906 174.953125 C 104.121094 183.066406 105.351562 190.605469 106.089844 197.898438 C 106.90625 205.601562 107.5625 213.386719 108.710938 221.089844 C 109.773438 228.546875 111.25 235.921875 114.445312 242.804688 C 116.246094 246.65625 118.210938 250.425781 120.585938 254.03125 C 123.535156 258.457031 126.8125 262.554688 130.253906 266.652344 C 135.742188 272.878906 141.230469 279.269531 148.03125 284.1875 C 153.027344 287.957031 158.761719 290.660156 164.578125 292.957031 C 169.328125 294.757812 174.164062 296.152344 178.996094 297.789062 C 183.335938 299.347656 188.089844 301.722656 191.527344 304.917969 C 196.527344 309.589844 199.394531 313.359375 202.425781 319.753906 C 204.0625 323.277344 205.863281 328.191406 207.011719 333.191406 C 208.484375 339.746094 208.242188 346.792969 208.894531 354.578125 C 209.304688 358.675781 209.550781 362.855469 209.386719 366.953125 C 209.386719 367.773438 209.304688 368.675781 209.222656 369.492188 C 209.140625 370.066406 209.058594 370.722656 208.976562 371.296875 C 208.976562 371.460938 208.894531 371.625 208.894531 371.871094 C 208.8125 371.542969 208.894531 371.296875 208.976562 371.132812 Z M 208.976562 371.132812 " fill-opacity="1" fill-rule="nonzero"/></g></svg>